<svg width="513" height="495" viewBox="0 0 513 495" fill="none" xmlns="http://www.w3.org/2000/svg">
<path d="M168.213 159.857L171.217 161.56L169.587 158.515L133.885 91.8146L194.067 146.723L196.369 148.823L195.719 145.775L181.326 78.3233L226.006 143.486L227.469 145.619L227.821 143.057L236.332 81.2639L260.892 150.433L261.589 152.396L262.685 150.624L293.622 100.599L295.326 166.839L295.372 168.631L296.873 167.65L347.43 134.61L325.993 191.074L325.356 192.75L327.117 192.411L392.183 179.88L349.949 220.819L348.453 222.269L350.52 222.529L423.345 231.696L364.811 253.251L362.384 254.145L364.781 255.116L438.005 284.794L369.036 285.19L365.919 285.208L368.465 287.007L434.994 334.024L362.192 313.445L358.868 312.505L361.176 315.075L414.777 374.771L344.981 335.208L341.977 333.505L343.606 336.55L379.309 403.25L319.127 348.342L316.825 346.242L317.475 349.29L331.868 416.741L287.188 351.578L285.725 349.445L285.372 352.007L276.861 413.801L252.302 344.632L251.605 342.669L250.509 344.441L219.571 394.466L217.868 328.226L217.822 326.434L216.321 327.415L165.763 360.454L187.201 303.991L187.837 302.315L186.077 302.654L121.011 315.185L163.245 274.246L164.74 272.796L162.673 272.536L89.8485 263.369L148.383 241.814L150.809 240.92L148.413 239.949L75.1885 210.27L144.158 209.875L147.274 209.857L144.729 208.058L78.2001 161.041L151.002 181.62L154.326 182.56L152.018 179.99L98.4171 120.294L168.213 159.857Z" stroke="black" stroke-width="2"/>
</svg>
