<svg width="221" height="85" viewBox="0 0 221 85" fill="none" xmlns="http://www.w3.org/2000/svg">
<rect x="7.72363" width="214.619" height="55.6396" transform="rotate(7.96082 7.72363 0)" fill="#EBFC1D"/>
<mask id="path-2-outside-1" maskUnits="userSpaceOnUse" x="5.46072" y="8.76576" width="208.677" height="65.273" fill="black">
<rect fill="white" x="5.46072" y="8.76576" width="208.677" height="65.273"/>
<path d="M49.2233 32.6443L56.9882 52.4726L48.8592 51.3915L42.7833 35.026L41.2441 34.8212L36.4011 49.7347L29.6911 48.8423L34.5582 33.9321L33.3797 33.7753L19.5419 47.4925L10.7395 46.3219L28.8062 29.7342L21.2589 11.9313L29.3879 13.0124L35.0599 28.3747L36.3345 28.5442L40.8598 14.5381L47.6179 15.4369L42.9724 29.427L44.1028 29.5774L58.4165 16.873L66.9784 18.0117L49.2233 32.6443Z"/>
<path d="M71.3556 18.5938L94.8527 21.7187L92.9575 27.6264L76.6995 25.4642L74.2812 33.0796L89.1923 35.0626L87.294 40.9942L72.4309 39.0175L69.5649 47.9611L86.6165 50.2289L84.7181 56.1604L60.2349 52.9044L71.3556 18.5938Z"/>
<path d="M119.988 37.0645C120.128 36.028 120.084 35.0807 119.856 34.2227C119.631 33.3487 119.259 32.5932 118.741 31.9562C118.241 31.3053 117.609 30.7831 116.846 30.3895C116.101 29.982 115.272 29.7175 114.358 29.596C112.85 29.3955 111.493 29.4747 110.287 29.8336C109.08 30.1925 108.003 30.7391 107.055 31.4733C106.11 32.1917 105.283 33.0637 104.574 34.0893C103.883 35.1012 103.292 36.1587 102.801 37.2621C102.327 38.3676 101.941 39.4768 101.645 40.5898C101.366 41.689 101.165 42.701 101.041 43.6259C100.876 44.8537 100.865 46.029 101.008 47.1518C101.167 48.2766 101.52 49.2894 102.069 50.1901C102.633 51.0929 103.412 51.8538 104.406 52.473C105.416 53.0942 106.682 53.5061 108.205 53.7087C109.119 53.8302 110.016 53.8359 110.896 53.7257C111.794 53.6016 112.638 53.3324 113.428 52.9181C114.22 52.4878 114.945 51.8943 115.601 51.1376C116.258 50.3809 116.81 49.4238 117.26 48.2662L124.763 49.2641C123.996 51.2073 123.041 52.9143 121.897 54.3852C120.769 55.8583 119.456 57.0634 117.959 58.0005C116.481 58.9238 114.828 59.5643 113.001 59.9219C111.174 60.2794 109.195 60.3164 107.062 60.0328C105.106 59.7727 103.389 59.3091 101.912 58.6419C100.451 57.9769 99.2041 57.178 98.1707 56.2453C97.1373 55.3125 96.2893 54.2746 95.6269 53.1314C94.9826 51.9745 94.4902 50.781 94.1495 49.5508C93.8088 48.3206 93.6066 47.0926 93.5428 45.8668C93.4971 44.6272 93.5503 43.4413 93.7024 42.3091C93.9273 40.6347 94.3217 38.9748 94.8854 37.3293C95.4514 35.6678 96.1851 34.0936 97.0866 32.6066C97.9881 31.1196 99.044 29.7587 100.254 28.5238C101.481 27.291 102.86 26.2571 104.392 25.422C105.924 24.587 107.61 23.9997 109.451 23.6602C111.294 23.3048 113.282 23.2688 115.414 23.5524C117.418 23.819 119.218 24.3342 120.813 25.0981C122.423 25.8642 123.758 26.8614 124.817 28.0897C125.876 29.318 126.636 30.7663 127.098 32.4346C127.559 34.1028 127.65 35.9734 127.372 38.0464L119.988 37.0645Z"/>
<path d="M141.419 34.0713L132.063 32.8271L134.006 26.9259L159.067 30.2587L157.124 36.16L148.802 35.0533L139.577 63.4562L132.193 62.4743L141.419 34.0713Z"/>
<path d="M164.093 30.9272L171.477 31.9091L167.091 45.4226L173.753 46.3085C175.837 46.5858 177.602 47.0558 179.047 47.7187C180.494 48.3656 181.642 49.1756 182.491 50.1487C183.341 51.1058 183.912 52.2043 184.202 53.444C184.511 54.6699 184.569 56.0004 184.376 57.4356C184.305 57.9618 184.168 58.6172 183.965 59.4017C183.764 60.1703 183.452 60.9728 183.03 61.8094C182.609 62.6299 182.052 63.4404 181.357 64.2406C180.68 65.0271 179.813 65.7072 178.757 66.2809C177.703 66.8386 176.44 67.2469 174.969 67.5058C173.517 67.7508 171.812 67.7432 169.856 67.4831L152.949 65.2346L164.093 30.9272ZM162.255 60.2881L169.085 61.1965C170.207 61.3458 171.222 61.3834 172.13 61.3093C173.039 61.2193 173.828 60.9995 174.495 60.65C175.18 60.2866 175.73 59.7755 176.145 59.1165C176.56 58.4575 176.835 57.6257 176.97 56.6211C177.071 55.8716 177.026 55.2327 176.836 54.7042C176.664 54.162 176.374 53.7095 175.966 53.3468C175.573 52.9862 175.073 52.7006 174.465 52.4899C173.857 52.2791 173.176 52.1237 172.422 52.0235L165.231 51.0671L162.255 60.2881Z"/>
<path d="M203.1 36.1391L210.627 37.1402L207.502 45.8301L199.832 61.5606L196.248 61.084L199.974 44.829L203.1 36.1391ZM193.44 63.5834L200.607 64.5366L198.211 71.2541L191.044 70.301L193.44 63.5834Z"/>
</mask>
<path d="M49.2233 32.6443L56.9882 52.4726L48.8592 51.3915L42.7833 35.026L41.2441 34.8212L36.4011 49.7347L29.6911 48.8423L34.5582 33.9321L33.3797 33.7753L19.5419 47.4925L10.7395 46.3219L28.8062 29.7342L21.2589 11.9313L29.3879 13.0124L35.0599 28.3747L36.3345 28.5442L40.8598 14.5381L47.6179 15.4369L42.9724 29.427L44.1028 29.5774L58.4165 16.873L66.9784 18.0117L49.2233 32.6443Z" fill="#ED603C"/>
<path d="M49.2233 32.6443L56.9882 52.4726L48.8592 51.3915L42.7833 35.026L41.2441 34.8212L36.4011 49.7347L29.6911 48.8423L34.5582 33.9321L33.3797 33.7753L19.5419 47.4925L10.7395 46.3219L28.8062 29.7342L21.2589 11.9313L29.3879 13.0124L35.0599 28.3747L36.3345 28.5442L40.8598 14.5381L47.6179 15.4369L42.9724 29.427L44.1028 29.5774L58.4165 16.873L66.9784 18.0117L49.2233 32.6443Z" fill="url(#paint0_linear)"/>
<path d="M49.2233 32.6443L56.9882 52.4726L48.8592 51.3915L42.7833 35.026L41.2441 34.8212L36.4011 49.7347L29.6911 48.8423L34.5582 33.9321L33.3797 33.7753L19.5419 47.4925L10.7395 46.3219L28.8062 29.7342L21.2589 11.9313L29.3879 13.0124L35.0599 28.3747L36.3345 28.5442L40.8598 14.5381L47.6179 15.4369L42.9724 29.427L44.1028 29.5774L58.4165 16.873L66.9784 18.0117L49.2233 32.6443Z" fill="url(#paint1_linear)"/>
<path d="M71.3556 18.5938L94.8527 21.7187L92.9575 27.6264L76.6995 25.4642L74.2812 33.0796L89.1923 35.0626L87.294 40.9942L72.4309 39.0175L69.5649 47.9611L86.6165 50.2289L84.7181 56.1604L60.2349 52.9044L71.3556 18.5938Z" fill="#ED603C"/>
<path d="M71.3556 18.5938L94.8527 21.7187L92.9575 27.6264L76.6995 25.4642L74.2812 33.0796L89.1923 35.0626L87.294 40.9942L72.4309 39.0175L69.5649 47.9611L86.6165 50.2289L84.7181 56.1604L60.2349 52.9044L71.3556 18.5938Z" fill="url(#paint2_linear)"/>
<path d="M71.3556 18.5938L94.8527 21.7187L92.9575 27.6264L76.6995 25.4642L74.2812 33.0796L89.1923 35.0626L87.294 40.9942L72.4309 39.0175L69.5649 47.9611L86.6165 50.2289L84.7181 56.1604L60.2349 52.9044L71.3556 18.5938Z" fill="url(#paint3_linear)"/>
<path d="M119.988 37.0645C120.128 36.028 120.084 35.0807 119.856 34.2227C119.631 33.3487 119.259 32.5932 118.741 31.9562C118.241 31.3053 117.609 30.7831 116.846 30.3895C116.101 29.982 115.272 29.7175 114.358 29.596C112.85 29.3955 111.493 29.4747 110.287 29.8336C109.08 30.1925 108.003 30.7391 107.055 31.4733C106.11 32.1917 105.283 33.0637 104.574 34.0893C103.883 35.1012 103.292 36.1587 102.801 37.2621C102.327 38.3676 101.941 39.4768 101.645 40.5898C101.366 41.689 101.165 42.701 101.041 43.6259C100.876 44.8537 100.865 46.029 101.008 47.1518C101.167 48.2766 101.52 49.2894 102.069 50.1901C102.633 51.0929 103.412 51.8538 104.406 52.473C105.416 53.0942 106.682 53.5061 108.205 53.7087C109.119 53.8302 110.016 53.8359 110.896 53.7257C111.794 53.6016 112.638 53.3324 113.428 52.9181C114.22 52.4878 114.945 51.8943 115.601 51.1376C116.258 50.3809 116.81 49.4238 117.26 48.2662L124.763 49.2641C123.996 51.2073 123.041 52.9143 121.897 54.3852C120.769 55.8583 119.456 57.0634 117.959 58.0005C116.481 58.9238 114.828 59.5643 113.001 59.9219C111.174 60.2794 109.195 60.3164 107.062 60.0328C105.106 59.7727 103.389 59.3091 101.912 58.6419C100.451 57.9769 99.2041 57.178 98.1707 56.2453C97.1373 55.3125 96.2893 54.2746 95.6269 53.1314C94.9826 51.9745 94.4902 50.781 94.1495 49.5508C93.8088 48.3206 93.6066 47.0926 93.5428 45.8668C93.4971 44.6272 93.5503 43.4413 93.7024 42.3091C93.9273 40.6347 94.3217 38.9748 94.8854 37.3293C95.4514 35.6678 96.1851 34.0936 97.0866 32.6066C97.9881 31.1196 99.044 29.7587 100.254 28.5238C101.481 27.291 102.86 26.2571 104.392 25.422C105.924 24.587 107.61 23.9997 109.451 23.6602C111.294 23.3048 113.282 23.2688 115.414 23.5524C117.418 23.819 119.218 24.3342 120.813 25.0981C122.423 25.8642 123.758 26.8614 124.817 28.0897C125.876 29.318 126.636 30.7663 127.098 32.4346C127.559 34.1028 127.65 35.9734 127.372 38.0464L119.988 37.0645Z" fill="#ED603C"/>
<path d="M119.988 37.0645C120.128 36.028 120.084 35.0807 119.856 34.2227C119.631 33.3487 119.259 32.5932 118.741 31.9562C118.241 31.3053 117.609 30.7831 116.846 30.3895C116.101 29.982 115.272 29.7175 114.358 29.596C112.85 29.3955 111.493 29.4747 110.287 29.8336C109.08 30.1925 108.003 30.7391 107.055 31.4733C106.11 32.1917 105.283 33.0637 104.574 34.0893C103.883 35.1012 103.292 36.1587 102.801 37.2621C102.327 38.3676 101.941 39.4768 101.645 40.5898C101.366 41.689 101.165 42.701 101.041 43.6259C100.876 44.8537 100.865 46.029 101.008 47.1518C101.167 48.2766 101.52 49.2894 102.069 50.1901C102.633 51.0929 103.412 51.8538 104.406 52.473C105.416 53.0942 106.682 53.5061 108.205 53.7087C109.119 53.8302 110.016 53.8359 110.896 53.7257C111.794 53.6016 112.638 53.3324 113.428 52.9181C114.22 52.4878 114.945 51.8943 115.601 51.1376C116.258 50.3809 116.81 49.4238 117.26 48.2662L124.763 49.2641C123.996 51.2073 123.041 52.9143 121.897 54.3852C120.769 55.8583 119.456 57.0634 117.959 58.0005C116.481 58.9238 114.828 59.5643 113.001 59.9219C111.174 60.2794 109.195 60.3164 107.062 60.0328C105.106 59.7727 103.389 59.3091 101.912 58.6419C100.451 57.9769 99.2041 57.178 98.1707 56.2453C97.1373 55.3125 96.2893 54.2746 95.6269 53.1314C94.9826 51.9745 94.4902 50.781 94.1495 49.5508C93.8088 48.3206 93.6066 47.0926 93.5428 45.8668C93.4971 44.6272 93.5503 43.4413 93.7024 42.3091C93.9273 40.6347 94.3217 38.9748 94.8854 37.3293C95.4514 35.6678 96.1851 34.0936 97.0866 32.6066C97.9881 31.1196 99.044 29.7587 100.254 28.5238C101.481 27.291 102.86 26.2571 104.392 25.422C105.924 24.587 107.61 23.9997 109.451 23.6602C111.294 23.3048 113.282 23.2688 115.414 23.5524C117.418 23.819 119.218 24.3342 120.813 25.0981C122.423 25.8642 123.758 26.8614 124.817 28.0897C125.876 29.318 126.636 30.7663 127.098 32.4346C127.559 34.1028 127.65 35.9734 127.372 38.0464L119.988 37.0645Z" fill="url(#paint4_linear)"/>
<path d="M119.988 37.0645C120.128 36.028 120.084 35.0807 119.856 34.2227C119.631 33.3487 119.259 32.5932 118.741 31.9562C118.241 31.3053 117.609 30.7831 116.846 30.3895C116.101 29.982 115.272 29.7175 114.358 29.596C112.85 29.3955 111.493 29.4747 110.287 29.8336C109.08 30.1925 108.003 30.7391 107.055 31.4733C106.11 32.1917 105.283 33.0637 104.574 34.0893C103.883 35.1012 103.292 36.1587 102.801 37.2621C102.327 38.3676 101.941 39.4768 101.645 40.5898C101.366 41.689 101.165 42.701 101.041 43.6259C100.876 44.8537 100.865 46.029 101.008 47.1518C101.167 48.2766 101.52 49.2894 102.069 50.1901C102.633 51.0929 103.412 51.8538 104.406 52.473C105.416 53.0942 106.682 53.5061 108.205 53.7087C109.119 53.8302 110.016 53.8359 110.896 53.7257C111.794 53.6016 112.638 53.3324 113.428 52.9181C114.22 52.4878 114.945 51.8943 115.601 51.1376C116.258 50.3809 116.81 49.4238 117.26 48.2662L124.763 49.2641C123.996 51.2073 123.041 52.9143 121.897 54.3852C120.769 55.8583 119.456 57.0634 117.959 58.0005C116.481 58.9238 114.828 59.5643 113.001 59.9219C111.174 60.2794 109.195 60.3164 107.062 60.0328C105.106 59.7727 103.389 59.3091 101.912 58.6419C100.451 57.9769 99.2041 57.178 98.1707 56.2453C97.1373 55.3125 96.2893 54.2746 95.6269 53.1314C94.9826 51.9745 94.4902 50.781 94.1495 49.5508C93.8088 48.3206 93.6066 47.0926 93.5428 45.8668C93.4971 44.6272 93.5503 43.4413 93.7024 42.3091C93.9273 40.6347 94.3217 38.9748 94.8854 37.3293C95.4514 35.6678 96.1851 34.0936 97.0866 32.6066C97.9881 31.1196 99.044 29.7587 100.254 28.5238C101.481 27.291 102.86 26.2571 104.392 25.422C105.924 24.587 107.61 23.9997 109.451 23.6602C111.294 23.3048 113.282 23.2688 115.414 23.5524C117.418 23.819 119.218 24.3342 120.813 25.0981C122.423 25.8642 123.758 26.8614 124.817 28.0897C125.876 29.318 126.636 30.7663 127.098 32.4346C127.559 34.1028 127.65 35.9734 127.372 38.0464L119.988 37.0645Z" fill="url(#paint5_linear)"/>
<path d="M141.419 34.0713L132.063 32.8271L134.006 26.9259L159.067 30.2587L157.124 36.16L148.802 35.0533L139.577 63.4562L132.193 62.4743L141.419 34.0713Z" fill="#ED603C"/>
<path d="M141.419 34.0713L132.063 32.8271L134.006 26.9259L159.067 30.2587L157.124 36.16L148.802 35.0533L139.577 63.4562L132.193 62.4743L141.419 34.0713Z" fill="url(#paint6_linear)"/>
<path d="M141.419 34.0713L132.063 32.8271L134.006 26.9259L159.067 30.2587L157.124 36.16L148.802 35.0533L139.577 63.4562L132.193 62.4743L141.419 34.0713Z" fill="url(#paint7_linear)"/>
<path d="M164.093 30.9272L171.477 31.9091L167.091 45.4226L173.753 46.3085C175.837 46.5858 177.602 47.0558 179.047 47.7187C180.494 48.3656 181.642 49.1756 182.491 50.1487C183.341 51.1058 183.912 52.2043 184.202 53.444C184.511 54.6699 184.569 56.0004 184.376 57.4356C184.305 57.9618 184.168 58.6172 183.965 59.4017C183.764 60.1703 183.452 60.9728 183.03 61.8094C182.609 62.6299 182.052 63.4404 181.357 64.2406C180.68 65.0271 179.813 65.7072 178.757 66.2809C177.703 66.8386 176.44 67.2469 174.969 67.5058C173.517 67.7508 171.812 67.7432 169.856 67.4831L152.949 65.2346L164.093 30.9272ZM162.255 60.2881L169.085 61.1965C170.207 61.3458 171.222 61.3834 172.13 61.3093C173.039 61.2193 173.828 60.9995 174.495 60.65C175.18 60.2866 175.73 59.7755 176.145 59.1165C176.56 58.4575 176.835 57.6257 176.97 56.6211C177.071 55.8716 177.026 55.2327 176.836 54.7042C176.664 54.162 176.374 53.7095 175.966 53.3468C175.573 52.9862 175.073 52.7006 174.465 52.4899C173.857 52.2791 173.176 52.1237 172.422 52.0235L165.231 51.0671L162.255 60.2881Z" fill="#ED603C"/>
<path d="M164.093 30.9272L171.477 31.9091L167.091 45.4226L173.753 46.3085C175.837 46.5858 177.602 47.0558 179.047 47.7187C180.494 48.3656 181.642 49.1756 182.491 50.1487C183.341 51.1058 183.912 52.2043 184.202 53.444C184.511 54.6699 184.569 56.0004 184.376 57.4356C184.305 57.9618 184.168 58.6172 183.965 59.4017C183.764 60.1703 183.452 60.9728 183.03 61.8094C182.609 62.6299 182.052 63.4404 181.357 64.2406C180.68 65.0271 179.813 65.7072 178.757 66.2809C177.703 66.8386 176.44 67.2469 174.969 67.5058C173.517 67.7508 171.812 67.7432 169.856 67.4831L152.949 65.2346L164.093 30.9272ZM162.255 60.2881L169.085 61.1965C170.207 61.3458 171.222 61.3834 172.13 61.3093C173.039 61.2193 173.828 60.9995 174.495 60.65C175.18 60.2866 175.73 59.7755 176.145 59.1165C176.56 58.4575 176.835 57.6257 176.97 56.6211C177.071 55.8716 177.026 55.2327 176.836 54.7042C176.664 54.162 176.374 53.7095 175.966 53.3468C175.573 52.9862 175.073 52.7006 174.465 52.4899C173.857 52.2791 173.176 52.1237 172.422 52.0235L165.231 51.0671L162.255 60.2881Z" fill="url(#paint8_linear)"/>
<path d="M164.093 30.9272L171.477 31.9091L167.091 45.4226L173.753 46.3085C175.837 46.5858 177.602 47.0558 179.047 47.7187C180.494 48.3656 181.642 49.1756 182.491 50.1487C183.341 51.1058 183.912 52.2043 184.202 53.444C184.511 54.6699 184.569 56.0004 184.376 57.4356C184.305 57.9618 184.168 58.6172 183.965 59.4017C183.764 60.1703 183.452 60.9728 183.03 61.8094C182.609 62.6299 182.052 63.4404 181.357 64.2406C180.68 65.0271 179.813 65.7072 178.757 66.2809C177.703 66.8386 176.44 67.2469 174.969 67.5058C173.517 67.7508 171.812 67.7432 169.856 67.4831L152.949 65.2346L164.093 30.9272ZM162.255 60.2881L169.085 61.1965C170.207 61.3458 171.222 61.3834 172.13 61.3093C173.039 61.2193 173.828 60.9995 174.495 60.65C175.18 60.2866 175.73 59.7755 176.145 59.1165C176.56 58.4575 176.835 57.6257 176.97 56.6211C177.071 55.8716 177.026 55.2327 176.836 54.7042C176.664 54.162 176.374 53.7095 175.966 53.3468C175.573 52.9862 175.073 52.7006 174.465 52.4899C173.857 52.2791 173.176 52.1237 172.422 52.0235L165.231 51.0671L162.255 60.2881Z" fill="url(#paint9_linear)"/>
<path d="M203.1 36.1391L210.627 37.1402L207.502 45.8301L199.832 61.5606L196.248 61.084L199.974 44.829L203.1 36.1391ZM193.44 63.5834L200.607 64.5366L198.211 71.2541L191.044 70.301L193.44 63.5834Z" fill="#ED603C"/>
<path d="M203.1 36.1391L210.627 37.1402L207.502 45.8301L199.832 61.5606L196.248 61.084L199.974 44.829L203.1 36.1391ZM193.44 63.5834L200.607 64.5366L198.211 71.2541L191.044 70.301L193.44 63.5834Z" fill="url(#paint10_linear)"/>
<path d="M203.1 36.1391L210.627 37.1402L207.502 45.8301L199.832 61.5606L196.248 61.084L199.974 44.829L203.1 36.1391ZM193.44 63.5834L200.607 64.5366L198.211 71.2541L191.044 70.301L193.44 63.5834Z" fill="url(#paint11_linear)"/>
<path d="M49.2233 32.6443L56.9882 52.4726L48.8592 51.3915L42.7833 35.026L41.2441 34.8212L36.4011 49.7347L29.6911 48.8423L34.5582 33.9321L33.3797 33.7753L19.5419 47.4925L10.7395 46.3219L28.8062 29.7342L21.2589 11.9313L29.3879 13.0124L35.0599 28.3747L36.3345 28.5442L40.8598 14.5381L47.6179 15.4369L42.9724 29.427L44.1028 29.5774L58.4165 16.873L66.9784 18.0117L49.2233 32.6443Z" stroke="black" stroke-width="4" mask="url(#path-2-outside-1)"/>
<path d="M71.3556 18.5938L94.8527 21.7187L92.9575 27.6264L76.6995 25.4642L74.2812 33.0796L89.1923 35.0626L87.294 40.9942L72.4309 39.0175L69.5649 47.9611L86.6165 50.2289L84.7181 56.1604L60.2349 52.9044L71.3556 18.5938Z" stroke="black" stroke-width="4" mask="url(#path-2-outside-1)"/>
<path d="M119.988 37.0645C120.128 36.028 120.084 35.0807 119.856 34.2227C119.631 33.3487 119.259 32.5932 118.741 31.9562C118.241 31.3053 117.609 30.7831 116.846 30.3895C116.101 29.982 115.272 29.7175 114.358 29.596C112.85 29.3955 111.493 29.4747 110.287 29.8336C109.08 30.1925 108.003 30.7391 107.055 31.4733C106.11 32.1917 105.283 33.0637 104.574 34.0893C103.883 35.1012 103.292 36.1587 102.801 37.2621C102.327 38.3676 101.941 39.4768 101.645 40.5898C101.366 41.689 101.165 42.701 101.041 43.6259C100.876 44.8537 100.865 46.029 101.008 47.1518C101.167 48.2766 101.52 49.2894 102.069 50.1901C102.633 51.0929 103.412 51.8538 104.406 52.473C105.416 53.0942 106.682 53.5061 108.205 53.7087C109.119 53.8302 110.016 53.8359 110.896 53.7257C111.794 53.6016 112.638 53.3324 113.428 52.9181C114.22 52.4878 114.945 51.8943 115.601 51.1376C116.258 50.3809 116.81 49.4238 117.26 48.2662L124.763 49.2641C123.996 51.2073 123.041 52.9143 121.897 54.3852C120.769 55.8583 119.456 57.0634 117.959 58.0005C116.481 58.9238 114.828 59.5643 113.001 59.9219C111.174 60.2794 109.195 60.3164 107.062 60.0328C105.106 59.7727 103.389 59.3091 101.912 58.6419C100.451 57.9769 99.2041 57.178 98.1707 56.2453C97.1373 55.3125 96.2893 54.2746 95.6269 53.1314C94.9826 51.9745 94.4902 50.781 94.1495 49.5508C93.8088 48.3206 93.6066 47.0926 93.5428 45.8668C93.4971 44.6272 93.5503 43.4413 93.7024 42.3091C93.9273 40.6347 94.3217 38.9748 94.8854 37.3293C95.4514 35.6678 96.1851 34.0936 97.0866 32.6066C97.9881 31.1196 99.044 29.7587 100.254 28.5238C101.481 27.291 102.86 26.2571 104.392 25.422C105.924 24.587 107.61 23.9997 109.451 23.6602C111.294 23.3048 113.282 23.2688 115.414 23.5524C117.418 23.819 119.218 24.3342 120.813 25.0981C122.423 25.8642 123.758 26.8614 124.817 28.0897C125.876 29.318 126.636 30.7663 127.098 32.4346C127.559 34.1028 127.65 35.9734 127.372 38.0464L119.988 37.0645Z" stroke="black" stroke-width="4" mask="url(#path-2-outside-1)"/>
<path d="M141.419 34.0713L132.063 32.8271L134.006 26.9259L159.067 30.2587L157.124 36.16L148.802 35.0533L139.577 63.4562L132.193 62.4743L141.419 34.0713Z" stroke="black" stroke-width="4" mask="url(#path-2-outside-1)"/>
<path d="M164.093 30.9272L171.477 31.9091L167.091 45.4226L173.753 46.3085C175.837 46.5858 177.602 47.0558 179.047 47.7187C180.494 48.3656 181.642 49.1756 182.491 50.1487C183.341 51.1058 183.912 52.2043 184.202 53.444C184.511 54.6699 184.569 56.0004 184.376 57.4356C184.305 57.9618 184.168 58.6172 183.965 59.4017C183.764 60.1703 183.452 60.9728 183.03 61.8094C182.609 62.6299 182.052 63.4404 181.357 64.2406C180.68 65.0271 179.813 65.7072 178.757 66.2809C177.703 66.8386 176.44 67.2469 174.969 67.5058C173.517 67.7508 171.812 67.7432 169.856 67.4831L152.949 65.2346L164.093 30.9272ZM162.255 60.2881L169.085 61.1965C170.207 61.3458 171.222 61.3834 172.13 61.3093C173.039 61.2193 173.828 60.9995 174.495 60.65C175.18 60.2866 175.73 59.7755 176.145 59.1165C176.56 58.4575 176.835 57.6257 176.97 56.6211C177.071 55.8716 177.026 55.2327 176.836 54.7042C176.664 54.162 176.374 53.7095 175.966 53.3468C175.573 52.9862 175.073 52.7006 174.465 52.4899C173.857 52.2791 173.176 52.1237 172.422 52.0235L165.231 51.0671L162.255 60.2881Z" stroke="black" stroke-width="4" mask="url(#path-2-outside-1)"/>
<path d="M203.1 36.1391L210.627 37.1402L207.502 45.8301L199.832 61.5606L196.248 61.084L199.974 44.829L203.1 36.1391ZM193.44 63.5834L200.607 64.5366L198.211 71.2541L191.044 70.301L193.44 63.5834Z" stroke="black" stroke-width="4" mask="url(#path-2-outside-1)"/>
<defs>
<linearGradient id="paint0_linear" x1="121.882" y1="15.7159" x2="115.122" y2="66.5453" gradientUnits="userSpaceOnUse">
<stop stop-color="#2FAD74"/>
<stop offset="0.385417" stop-color="#ED603C"/>
</linearGradient>
<linearGradient id="paint1_linear" x1="128.9" y1="17.579" x2="108.022" y2="110.717" gradientUnits="userSpaceOnUse">
<stop offset="0.00520833" stop-color="white"/>
<stop offset="0.541667" stop-color="white" stop-opacity="0"/>
<stop offset="1" stop-color="#D597C3"/>
</linearGradient>
<linearGradient id="paint2_linear" x1="121.882" y1="15.7159" x2="115.122" y2="66.5453" gradientUnits="userSpaceOnUse">
<stop stop-color="#2FAD74"/>
<stop offset="0.385417" stop-color="#ED603C"/>
</linearGradient>
<linearGradient id="paint3_linear" x1="128.9" y1="17.579" x2="108.022" y2="110.717" gradientUnits="userSpaceOnUse">
<stop offset="0.00520833" stop-color="white"/>
<stop offset="0.541667" stop-color="white" stop-opacity="0"/>
<stop offset="1" stop-color="#D597C3"/>
</linearGradient>
<linearGradient id="paint4_linear" x1="121.882" y1="15.7159" x2="115.122" y2="66.5453" gradientUnits="userSpaceOnUse">
<stop stop-color="#2FAD74"/>
<stop offset="0.385417" stop-color="#ED603C"/>
</linearGradient>
<linearGradient id="paint5_linear" x1="128.9" y1="17.579" x2="108.022" y2="110.717" gradientUnits="userSpaceOnUse">
<stop offset="0.00520833" stop-color="white"/>
<stop offset="0.541667" stop-color="white" stop-opacity="0"/>
<stop offset="1" stop-color="#D597C3"/>
</linearGradient>
<linearGradient id="paint6_linear" x1="121.882" y1="15.7159" x2="115.122" y2="66.5453" gradientUnits="userSpaceOnUse">
<stop stop-color="#2FAD74"/>
<stop offset="0.385417" stop-color="#ED603C"/>
</linearGradient>
<linearGradient id="paint7_linear" x1="128.9" y1="17.579" x2="108.022" y2="110.717" gradientUnits="userSpaceOnUse">
<stop offset="0.00520833" stop-color="white"/>
<stop offset="0.541667" stop-color="white" stop-opacity="0"/>
<stop offset="1" stop-color="#D597C3"/>
</linearGradient>
<linearGradient id="paint8_linear" x1="121.882" y1="15.7159" x2="115.122" y2="66.5453" gradientUnits="userSpaceOnUse">
<stop stop-color="#2FAD74"/>
<stop offset="0.385417" stop-color="#ED603C"/>
</linearGradient>
<linearGradient id="paint9_linear" x1="128.9" y1="17.579" x2="108.022" y2="110.717" gradientUnits="userSpaceOnUse">
<stop offset="0.00520833" stop-color="white"/>
<stop offset="0.541667" stop-color="white" stop-opacity="0"/>
<stop offset="1" stop-color="#D597C3"/>
</linearGradient>
<linearGradient id="paint10_linear" x1="121.882" y1="15.7159" x2="115.122" y2="66.5453" gradientUnits="userSpaceOnUse">
<stop stop-color="#2FAD74"/>
<stop offset="0.385417" stop-color="#ED603C"/>
</linearGradient>
<linearGradient id="paint11_linear" x1="128.9" y1="17.579" x2="108.022" y2="110.717" gradientUnits="userSpaceOnUse">
<stop offset="0.00520833" stop-color="white"/>
<stop offset="0.541667" stop-color="white" stop-opacity="0"/>
<stop offset="1" stop-color="#D597C3"/>
</linearGradient>
</defs>
</svg>
