<svg width="327" height="148" viewBox="0 0 327 148" fill="none" xmlns="http://www.w3.org/2000/svg">
<mask id="path-1-outside-1" maskUnits="userSpaceOnUse" x="-9.42419" y="-28.3727" width="348.268" height="177.781" fill="black">
<rect fill="white" x="-9.42419" y="-28.3727" width="348.268" height="177.781"/>
<path d="M2.24054 83.9767L10.5012 80.8773C12.0576 80.2934 13.4406 79.9922 14.6502 79.9738C15.8667 79.9404 16.9274 80.1209 17.8324 80.5154C18.7442 80.8948 19.5043 81.4494 20.1129 82.179C20.7282 82.8936 21.2075 83.7091 21.5507 84.6253C22.0616 85.9887 22.3125 87.2879 22.3034 88.5229C22.3053 89.7538 22.0391 90.8987 21.5048 91.9576C20.9705 93.0165 20.1695 93.9764 19.1017 94.8373C18.0448 95.6941 16.711 96.4247 15.1002 97.0291L10.2842 98.836L11.9207 107.776L6.90873 109.657L2.24054 83.9767ZM9.49449 94.3924L13.9514 92.7202C14.7459 92.4221 15.3852 92.0578 15.8694 91.6273C16.3537 91.1969 16.7059 90.7288 16.9261 90.2232C17.1572 89.7135 17.2679 89.1806 17.2581 88.6244C17.2443 88.0573 17.1332 87.4957 16.9247 86.9394C16.7572 86.4922 16.5455 86.0927 16.2895 85.7408C16.0403 85.374 15.73 85.0923 15.3585 84.8958C14.9828 84.6884 14.5392 84.5812 14.0276 84.5741C13.5269 84.5629 12.9445 84.6819 12.2806 84.931L8.06865 86.5112L9.49449 94.3924Z"/>
<path d="M35.7122 77.1474L35.6469 77.1719L34.4681 89.184L40.4922 86.9238L35.7122 77.1474ZM31.6917 72.9269L37.5526 70.728L49.5999 93.6396L44.6533 95.4955L42.441 90.9325L33.9844 94.1053L33.454 99.6973L28.1319 101.694L31.6917 72.9269Z"/>
<path d="M63.5119 70.1882C63.2463 69.4792 62.895 68.8895 62.458 68.419C62.017 67.9375 61.5236 67.5815 60.9779 67.3508C60.4389 67.1051 59.8606 66.9862 59.2428 66.9941C58.6319 66.9869 58.0162 67.0997 57.3959 67.3325C56.3728 67.7163 55.5403 68.2277 54.8983 68.8667C54.2564 69.5056 53.7607 70.2203 53.4113 71.0107C53.0579 71.7903 52.8317 72.6278 52.7327 73.5233C52.6405 74.4039 52.6273 75.2797 52.693 76.1508C52.7695 77.0178 52.9039 77.8569 53.0961 78.668C53.2951 79.4642 53.5131 80.1786 53.7501 80.8113C54.0648 81.6511 54.459 82.4052 54.9328 83.0734C55.4174 83.7375 55.9871 84.264 56.6417 84.6528C57.3073 85.0376 58.0605 85.2589 58.9014 85.3166C59.7532 85.3702 60.6961 85.2031 61.73 84.8151C62.3504 84.5824 62.9204 84.2814 63.44 83.9123C63.9664 83.5282 64.4092 83.0697 64.7681 82.537C65.1231 81.9933 65.3793 81.3684 65.5368 80.6624C65.6944 79.9563 65.7179 79.1576 65.6073 78.266L70.7008 76.355C70.8783 77.8559 70.8558 79.2701 70.6332 80.5977C70.4215 81.9212 70.0015 83.1362 69.3734 84.2427C68.752 85.3343 67.9237 86.3044 66.8886 87.1531C65.8535 88.0017 64.6122 88.6976 63.1647 89.2407C61.8368 89.7389 60.5913 90.0258 59.4279 90.1015C58.2755 90.1731 57.2127 90.0866 56.2398 89.8421C55.2668 89.5976 54.3754 89.2229 53.5656 88.7181C52.7626 88.1983 52.0432 87.6036 51.4075 86.9339C50.7718 86.2642 50.2245 85.549 49.7657 84.7881C49.3136 84.0122 48.9425 83.237 48.6523 82.4626C48.2233 81.3173 47.9064 80.1237 47.7018 78.8818C47.4931 77.629 47.4205 76.3748 47.4839 75.1194C47.5473 73.864 47.7516 72.6366 48.0967 71.4372C48.4527 70.2337 48.9734 69.1053 49.6587 68.052C50.3441 66.9987 51.2118 66.0511 52.2619 65.2092C53.3079 64.3565 54.5546 63.6586 56.0022 63.1155C57.3626 62.6051 58.6783 62.3229 59.9491 62.2691C61.2308 62.2112 62.4168 62.3945 63.5068 62.8191C64.5969 63.2436 65.5728 63.91 66.4344 64.8184C67.2961 65.7267 67.9926 66.8898 68.5238 68.3078L63.5119 70.1882Z"/>
<path d="M86.4054 68.9699C86.0925 69.162 85.7143 69.3785 85.2708 69.6195C84.8273 69.8606 84.3655 70.1023 83.8853 70.3446C83.4119 70.572 82.9418 70.7919 82.4752 71.0043C82.0086 71.2167 81.5957 71.3903 81.2365 71.525C78.9945 72.3662 77.1863 72.5595 75.8118 72.1048C74.4373 71.6501 73.4661 70.6647 72.8981 69.1486C72.7877 68.8541 72.689 68.5739 72.6018 68.308C72.5255 68.0381 72.4525 67.7606 72.383 67.4757C72.3135 67.1908 72.2508 66.8908 72.1949 66.5759C72.1349 66.2501 72.066 65.884 71.9883 65.4778L70.7097 58.2878L75.7216 56.4074L77.1945 64.5135C77.2341 64.7848 77.2791 65.054 77.3295 65.3212C77.38 65.5884 77.4624 65.8748 77.5769 66.1802C77.8425 66.8891 78.3039 67.3256 78.9612 67.4895C79.6185 67.6535 80.5403 67.5129 81.7266 67.0678C82.0966 66.929 82.4877 66.7636 82.9 66.5716C83.3122 66.3796 83.706 66.1883 84.0815 65.9977C84.4528 65.7961 84.7861 65.6089 85.0813 65.4359C85.3765 65.263 85.5812 65.1302 85.6955 65.0376L83.6068 53.449L88.6188 51.5686L93.2543 77.261L88.2424 79.1414L86.4054 68.9699Z"/>
<path d="M93.3042 49.8107L109.254 43.8264L110.07 48.2414L99.0343 52.382L100.102 58.0649L110.224 54.2673L111.046 58.6986L100.957 62.484L102.195 69.1668L113.769 64.8241L114.592 69.2554L97.9724 75.4908L93.3042 49.8107Z"/>
<path d="M130.414 45.0874C130.148 44.3784 129.797 43.7887 129.36 43.3182C128.919 42.8367 128.425 42.4807 127.88 42.25C127.341 42.0043 126.763 41.8854 126.145 41.8933C125.534 41.8861 124.918 41.9989 124.298 42.2317C123.275 42.6155 122.442 43.1269 121.8 43.7659C121.158 44.4048 120.663 45.1195 120.313 45.9099C119.96 46.6895 119.734 47.527 119.635 48.4225C119.542 49.3031 119.529 50.1789 119.595 51.05C119.671 51.917 119.806 52.7561 119.998 53.5672C120.197 54.3634 120.415 55.0778 120.652 55.7105C120.967 56.5503 121.361 57.3044 121.835 57.9726C122.319 58.6367 122.889 59.1632 123.544 59.552C124.209 59.9368 124.962 60.1581 125.803 60.2158C126.655 60.2694 127.598 60.1023 128.632 59.7143C129.252 59.4816 129.822 59.1806 130.342 58.8115C130.868 58.4274 131.311 57.9689 131.67 57.4362C132.025 56.8925 132.281 56.2676 132.439 55.5616C132.596 54.8556 132.62 54.0568 132.509 53.1652L137.603 51.2542C137.78 52.7551 137.758 54.1693 137.535 55.4969C137.323 56.8204 136.903 58.0354 136.275 59.1419C135.654 60.2335 134.826 61.2036 133.791 62.0523C132.755 62.9009 131.514 63.5968 130.067 64.1399C128.739 64.6381 127.493 64.925 126.33 65.0007C125.177 65.0723 124.115 64.9858 123.142 64.7413C122.169 64.4968 121.277 64.1221 120.467 63.6173C119.664 63.0975 118.945 62.5028 118.309 61.8331C117.674 61.1634 117.126 60.4482 116.668 59.6873C116.216 58.9114 115.844 58.1362 115.554 57.3618C115.125 56.2165 114.808 55.0229 114.604 53.781C114.395 52.5282 114.322 51.274 114.386 50.0186C114.449 48.7632 114.654 47.5358 114.999 46.3364C115.355 45.1329 115.875 44.0045 116.561 42.9512C117.246 41.8979 118.114 40.9503 119.164 40.1085C120.21 39.2557 121.457 38.5578 122.904 38.0147C124.265 37.5043 125.58 37.2221 126.851 37.1683C128.133 37.1104 129.319 37.2937 130.409 37.7183C131.499 38.1428 132.475 38.8092 133.336 39.7176C134.198 40.6259 134.894 41.789 135.426 43.207L130.414 45.0874Z"/>
<path d="M138.232 32.9543L143.146 31.1106L144.891 41.3352L150.411 28.3849L156.631 26.0513L150.485 40.1135L162.67 51.2169L157.087 53.3117L148.369 45.0503L146.472 49.2327L147.879 56.7663L142.9 58.6344L138.232 32.9543Z"/>
<path d="M162.359 39.8011C161.93 38.6558 161.614 37.4622 161.409 36.2202C161.2 34.9674 161.128 33.7133 161.191 32.4578C161.254 31.2024 161.459 29.975 161.804 28.7756C162.16 27.5722 162.681 26.4438 163.366 25.3905C164.051 24.3371 164.919 23.3895 165.969 22.5477C167.015 21.6949 168.262 20.997 169.709 20.4539C171.037 19.9557 172.277 19.6709 173.43 19.5992C174.593 19.5236 175.661 19.608 176.634 19.8525C177.607 20.0971 178.495 20.4792 179.298 20.999C180.108 21.5038 180.831 22.0911 181.466 22.7607C182.098 23.4195 182.64 24.1368 183.092 24.9127C183.555 25.6845 183.931 26.4576 184.222 27.232C184.651 28.3773 184.97 29.5763 185.178 30.8292C185.383 32.0711 185.453 33.3198 185.39 34.5752C185.327 35.8306 185.117 37.0601 184.761 38.2635C184.416 39.4629 183.901 40.5893 183.215 41.6426C182.53 42.6959 181.662 43.6435 180.612 44.4854C179.566 45.3381 178.319 46.036 176.872 46.5791C175.533 47.0814 174.287 47.3683 173.135 47.4399C171.983 47.5116 170.914 47.4271 169.931 47.1867C168.958 46.9421 168.066 46.5675 167.256 46.0626C166.453 45.5428 165.734 44.9481 165.098 44.2785C164.473 43.6047 163.932 42.8874 163.473 42.1265C163.021 41.3506 162.65 40.5755 162.359 39.8011ZM167.457 38.1497C167.87 39.2514 168.38 40.1486 168.987 40.8414C169.59 41.5233 170.249 42.0226 170.963 42.3392C171.678 42.6559 172.419 42.813 173.188 42.8107C173.964 42.7934 174.727 42.6439 175.478 42.3622C176.501 41.9783 177.334 41.4669 177.976 40.828C178.618 40.189 179.113 39.4743 179.463 38.6839C179.812 37.8934 180.033 37.058 180.125 36.1774C180.228 35.2928 180.241 34.417 180.165 33.55C180.099 32.6789 179.967 31.8453 179.768 31.0491C179.575 30.2379 179.361 29.516 179.124 28.8834C178.707 27.7708 178.197 26.8736 177.594 26.1917C176.991 25.5098 176.332 25.0105 175.618 24.6938C174.903 24.3772 174.158 24.2275 173.383 24.2448C172.614 24.2471 171.854 24.3891 171.103 24.6709C170.08 25.0547 169.247 25.5661 168.605 26.2051C167.963 26.8441 167.468 27.5588 167.118 28.3492C166.765 29.1287 166.539 29.9662 166.44 30.8618C166.348 31.7423 166.334 32.6181 166.4 33.4892C166.477 34.3562 166.611 35.1953 166.803 36.0065C167.002 36.8027 167.22 37.5171 167.457 38.1497Z"/>
<path d="M190.683 5.66176C190.779 5.88673 190.918 6.08992 191.097 6.27132C191.284 6.43772 191.516 6.56189 191.795 6.64384C192.085 6.7217 192.436 6.74575 192.847 6.71598C193.264 6.67123 193.756 6.54269 194.322 6.33035C194.801 6.15068 195.24 5.94849 195.64 5.72379C196.036 5.48819 196.382 5.23415 196.677 4.96169C196.983 4.68514 197.226 4.38879 197.405 4.07264C197.58 3.74558 197.68 3.39735 197.703 3.02795L199.27 2.43994C199.417 3.23065 199.425 3.98038 199.293 4.68914C199.157 5.387 198.913 6.02617 198.559 6.60668C198.202 7.17628 197.746 7.68312 197.192 8.1272C196.646 8.55628 196.029 8.89946 195.344 9.15671C194.31 9.54464 193.451 9.73637 192.766 9.7319C192.082 9.72743 191.512 9.58058 191.056 9.29134C190.596 8.99119 190.218 8.57931 189.922 8.05571C189.634 7.5171 189.365 6.91512 189.115 6.24977L190.683 5.66176ZM186.294 14.9219L191.306 13.0415L194.348 30.2065L194.414 30.182L200.334 9.65429L205.689 7.64525L210.324 33.3376L205.296 35.2242L202.725 17.2292L202.66 17.2537L196.04 38.6971L190.897 40.6265L186.294 14.9219Z"/>
<path d="M19.6225 141.156C20.2498 141.107 20.7573 141.054 21.145 140.995C21.5437 140.933 21.9172 140.836 22.2654 140.706C22.9293 140.457 23.4361 140.186 23.7856 139.893C24.1461 139.596 24.3956 139.284 24.5343 138.959C24.6689 138.622 24.7129 138.276 24.6665 137.92C24.631 137.56 24.5417 137.189 24.3987 136.808C24.2475 136.404 24.0282 135.951 23.7409 135.45C23.4536 134.948 23.0785 134.361 22.6156 133.688L13.7931 120.726L18.952 118.791L26.5884 131.172L26.6537 131.147L28.3065 115.281L33.8245 113.211L29.8751 137.608C29.7135 138.602 29.4853 139.484 29.1904 140.254C28.9022 141.009 28.5283 141.684 28.0687 142.279C27.609 142.875 27.0561 143.387 26.41 143.816C25.7679 144.256 25.0115 144.639 24.1408 144.966C23.8905 145.06 23.6123 145.146 23.3062 145.223C23.0109 145.297 22.6987 145.358 22.3694 145.407C22.0551 145.462 21.7368 145.507 21.4143 145.541C21.1068 145.582 20.8136 145.611 20.5346 145.628L19.6225 141.156Z"/>
<path d="M36.1754 112.329L52.7294 106.118L53.5456 110.533L41.9382 114.888L42.9733 120.583L48.9158 118.353C50.3307 117.822 51.6089 117.523 52.7505 117.456C53.8879 117.377 54.8915 117.505 55.7611 117.838C56.6375 118.156 57.3793 118.661 57.9864 119.354C58.6004 120.032 59.0912 120.862 59.459 121.843C59.5939 122.203 59.7308 122.668 59.8698 123.238C60.0048 123.797 60.0812 124.415 60.0992 125.093C60.1131 125.759 60.0365 126.466 59.8694 127.213C59.6983 127.949 59.3761 128.679 58.9029 129.404C58.4365 130.114 57.7816 130.802 56.9383 131.466C56.0908 132.12 55.0032 132.696 53.6754 133.194L40.8436 138.009L36.1754 112.329ZM44.9679 131.721L51.0573 129.437C51.8192 129.151 52.4749 128.83 53.0244 128.475C53.5699 128.108 53.9943 127.7 54.2975 127.251C54.5967 126.79 54.7652 126.279 54.803 125.718C54.8518 125.152 54.7474 124.525 54.49 123.838C54.2979 123.326 54.0515 122.933 53.7507 122.66C53.4566 122.372 53.1184 122.182 52.736 122.089C52.3645 121.992 51.9502 121.98 51.4931 122.052C51.0359 122.124 50.5516 122.256 50.04 122.447L43.7221 124.818L44.9679 131.721Z"/>
<path d="M60.4024 103.239L65.4144 101.359L68.4564 118.524L68.5217 118.499L74.4424 97.9713L79.7971 95.9623L84.4327 121.655L79.4044 123.541L76.8335 105.546L76.7682 105.571L70.1479 127.014L65.0053 128.944L60.4024 103.239Z"/>
<path d="M100.253 93.0087L93.3309 95.6058L95.1938 109.126C95.3767 110.476 95.4656 111.724 95.4607 112.871C95.4625 114.002 95.3112 115.023 95.0068 115.933C94.7092 116.829 94.2326 117.611 93.577 118.28C92.9323 118.945 92.0604 119.483 90.9611 119.896C90.406 120.104 89.8761 120.247 89.3713 120.324C88.8707 120.413 88.3128 120.448 87.6978 120.43L86.7815 115.847C87.1638 115.84 87.5231 115.805 87.8591 115.741C88.202 115.662 88.4496 115.594 88.6019 115.537C88.8414 115.447 89.0604 115.353 89.259 115.253C89.4536 115.143 89.6188 114.988 89.7548 114.787C89.8908 114.587 89.9914 114.325 90.0565 114.002C90.1285 113.664 90.1671 113.221 90.1723 112.671C90.1735 112.111 90.1351 111.429 90.0572 110.624C89.9861 109.805 89.8775 108.82 89.7314 107.668L87.7803 92.9671L104.465 86.7072L109.117 112.393L104.105 114.274L100.253 93.0087Z"/>
<path d="M133.858 92.2503C133.545 92.4423 133.167 92.6589 132.723 92.8999C132.28 93.1409 131.818 93.3826 131.338 93.625C130.864 93.8524 130.394 94.0723 129.928 94.2847C129.461 94.4971 129.048 94.6706 128.689 94.8054C126.447 95.6466 124.639 95.8398 123.264 95.3851C121.89 94.9305 120.918 93.945 120.35 92.4289C120.24 92.1344 120.141 91.8542 120.054 91.5884C119.978 91.3184 119.905 91.041 119.835 90.7561C119.766 90.4711 119.703 90.1712 119.647 89.8563C119.587 89.5305 119.518 89.1644 119.441 88.7581L118.162 81.5682L123.174 79.6878L124.647 87.7939C124.686 88.0652 124.731 88.3344 124.782 88.6016C124.832 88.8688 124.915 89.1551 125.029 89.4605C125.295 90.1695 125.756 90.606 126.414 90.7699C127.071 90.9338 127.993 90.7933 129.179 90.3482C129.549 90.2093 129.94 90.0439 130.352 89.852C130.765 89.66 131.158 89.4687 131.534 89.2781C131.905 89.0765 132.238 88.8893 132.534 88.7163C132.829 88.5433 133.034 88.4106 133.148 88.3179L131.059 76.7294L136.071 74.8489L140.707 100.541L135.695 102.422L133.858 92.2503Z"/>
<path d="M140.757 73.091L156.707 67.1068L157.523 71.5218L146.487 75.6624L147.554 81.3452L157.676 77.5476L158.499 81.979L148.409 85.7643L149.647 92.4471L161.222 88.1044L162.044 92.5358L145.425 98.7712L140.757 73.091Z"/>
<path d="M176.95 64.2329L170.028 66.8299L171.891 80.3506C172.074 81.7002 172.163 82.9482 172.158 84.0946C172.16 85.226 172.008 86.247 171.704 87.1574C171.406 88.0528 170.93 88.835 170.274 89.5039C169.63 90.1688 168.758 90.7074 167.658 91.1198C167.103 91.3281 166.573 91.4709 166.069 91.5484C165.568 91.6367 165.01 91.6718 164.395 91.6538L163.479 87.071C163.861 87.0644 164.22 87.0292 164.556 86.9653C164.899 86.8864 165.147 86.8184 165.299 86.7612C165.539 86.6714 165.758 86.5768 165.956 86.4774C166.151 86.3671 166.316 86.2118 166.452 86.0115C166.588 85.8112 166.689 85.5495 166.754 85.2265C166.826 84.8885 166.864 84.4448 166.87 83.8954C166.871 83.3352 166.832 82.6529 166.754 81.8486C166.683 81.0293 166.575 80.0437 166.429 78.8918L164.477 64.1912L181.162 57.9313L185.814 83.6176L180.802 85.498L176.95 64.2329Z"/>
<path d="M188.001 71.2646C187.572 70.1193 187.255 68.9257 187.05 67.6838C186.842 66.4309 186.769 65.1768 186.833 63.9214C186.896 62.666 187.1 61.4386 187.445 60.2392C187.801 59.0357 188.322 57.9073 189.007 56.854C189.693 55.8007 190.56 54.8531 191.61 54.0112C192.656 53.1585 193.903 52.4606 195.351 51.9175C196.679 51.4193 197.919 51.1344 199.071 51.0628C200.235 50.9871 201.303 51.0715 202.276 51.3161C203.249 51.5606 204.137 51.9428 204.94 52.4626C205.749 52.9674 206.472 53.5546 207.108 54.2243C207.74 54.883 208.281 55.6003 208.733 56.3762C209.196 57.148 209.573 57.9211 209.863 58.6955C210.292 59.8408 210.611 61.0399 210.82 62.2927C211.024 63.5347 211.095 64.7833 211.032 66.0388C210.968 67.2942 210.758 68.5236 210.402 69.7271C210.057 70.9265 209.542 72.0528 208.857 73.1062C208.171 74.1595 207.304 75.1071 206.254 75.9489C205.208 76.8017 203.961 77.4996 202.513 78.0427C201.175 78.5449 199.929 78.8319 198.777 78.9035C197.624 78.9751 196.556 78.8907 195.572 78.6502C194.599 78.4057 193.708 78.031 192.898 77.5262C192.095 77.0064 191.376 76.4117 190.74 75.742C190.115 75.0683 189.573 74.351 189.114 73.5901C188.662 72.8142 188.291 72.039 188.001 71.2646ZM193.099 69.6133C193.511 70.7149 194.021 71.6121 194.629 72.3049C195.232 72.9869 195.89 73.4861 196.605 73.8028C197.319 74.1194 198.061 74.2766 198.83 74.2743C199.605 74.257 200.369 74.1075 201.12 73.8257C202.143 73.4419 202.975 72.9305 203.617 72.2915C204.259 71.6525 204.755 70.9379 205.104 70.1474C205.453 69.357 205.674 68.5215 205.766 67.641C205.869 66.7563 205.883 65.8805 205.806 65.0135C205.74 64.1424 205.608 63.3088 205.409 62.5126C205.217 61.7014 205.002 60.9795 204.765 60.3469C204.349 59.2344 203.839 58.3371 203.236 57.6552C202.632 56.9733 201.974 56.474 201.259 56.1574C200.545 55.8407 199.8 55.6911 199.024 55.7084C198.255 55.7107 197.495 55.8527 196.744 56.1344C195.721 56.5183 194.889 57.0297 194.247 57.6687C193.605 58.3076 193.109 59.0223 192.76 59.8127C192.406 60.5923 192.18 61.4298 192.081 62.3253C191.989 63.2059 191.976 64.0817 192.042 64.9528C192.118 65.8198 192.253 66.6589 192.445 67.47C192.644 68.2662 192.862 68.9806 193.099 69.6133Z"/>
<path d="M211.87 46.4099L221.258 42.888C222.781 42.3163 224.124 41.9742 225.286 41.8617C226.448 41.7492 227.463 41.8411 228.331 42.1374C229.196 42.4228 229.92 42.8976 230.504 43.5617C231.088 44.2259 231.564 45.0488 231.931 46.0305C232.164 46.6522 232.305 47.2773 232.355 47.9057C232.411 48.5192 232.365 49.1271 232.219 49.7295C232.079 50.317 231.828 50.89 231.466 51.4487C231.111 51.9924 230.639 52.5054 230.05 52.9876C230.591 53.0711 231.095 53.1927 231.565 53.3524C232.03 53.5013 232.46 53.7196 232.853 54.0074C233.242 54.2844 233.59 54.6328 233.896 55.0529C234.214 55.4688 234.483 55.9713 234.703 56.5603C235.157 57.771 235.366 58.9243 235.329 60.0203C235.289 61.1053 235.01 62.118 234.494 63.0583C233.977 63.9986 233.229 64.8515 232.25 65.617C231.266 66.3716 230.051 67.0205 228.603 67.5636L216.539 72.0901L211.87 46.4099ZM220.728 65.7783L226.883 63.4691C227.645 63.1833 228.244 62.8278 228.681 62.4028C229.117 61.9777 229.433 61.5294 229.629 61.0579C229.825 60.5863 229.916 60.1168 229.902 59.6492C229.888 59.1817 229.81 58.757 229.667 58.3752C229.475 57.8626 229.224 57.459 228.915 57.1643C228.602 56.8588 228.243 56.6453 227.837 56.5238C227.443 56.3981 227.007 56.3625 226.531 56.4167C226.055 56.471 225.555 56.5961 225.033 56.7921L219.482 58.8747L220.728 65.7783ZM218.701 54.6519L224.48 52.4836C225.667 52.0385 226.474 51.4432 226.902 50.6978C227.326 49.9415 227.353 49.0671 226.981 48.0745C226.813 47.6273 226.593 47.2871 226.319 47.0538C226.056 46.8165 225.751 46.6637 225.402 46.5953C225.065 46.5229 224.693 46.5254 224.288 46.6029C223.878 46.6694 223.456 46.7844 223.021 46.9477L217.666 48.9568L218.701 54.6519Z"/>
<path d="M236.032 37.3448L251.982 31.3605L252.798 35.7755L241.762 39.9161L242.83 45.5989L252.952 41.8014L253.774 46.2327L243.685 50.018L244.923 56.7009L256.497 52.3581L257.32 56.7895L240.7 63.0249L236.032 37.3448Z"/>
<path d="M256.798 29.5536L261.712 27.7099L263.457 37.9345L268.977 24.9842L275.197 22.6506L269.051 36.7128L281.237 47.8162L275.653 49.911L266.935 41.6496L265.038 45.832L266.446 53.3656L261.466 55.2337L256.798 29.5536Z"/>
<path d="M289.943 22.8468L289.878 22.8713L288.699 34.8834L294.723 32.6232L289.943 22.8468ZM285.923 18.6263L291.784 16.4274L303.831 39.339L298.884 41.1949L296.672 36.6319L288.216 39.8047L287.685 45.3968L282.363 47.3935L285.923 18.6263Z"/>
<path d="M304.997 11.4885L310.107 9.57138L311.094 16.1805L311.605 28.8273L309.173 29.74L305.984 18.0976L304.997 11.4885ZM308.247 32.2892L313.112 30.4639L313.888 35.5659L309.023 37.3912L308.247 32.2892Z"/>
<path d="M316.131 7.31122L321.241 5.39404L322.228 12.0031L322.739 24.65L320.306 25.5626L317.118 13.9203L316.131 7.31122ZM319.381 28.1119L324.246 26.2866L325.022 31.3886L320.157 33.2139L319.381 28.1119Z"/>
</mask>
<path d="M2.24054 83.9767L10.5012 80.8773C12.0576 80.2934 13.4406 79.9922 14.6502 79.9738C15.8667 79.9404 16.9274 80.1209 17.8324 80.5154C18.7442 80.8948 19.5043 81.4494 20.1129 82.179C20.7282 82.8936 21.2075 83.7091 21.5507 84.6253C22.0616 85.9887 22.3125 87.2879 22.3034 88.5229C22.3053 89.7538 22.0391 90.8987 21.5048 91.9576C20.9705 93.0165 20.1695 93.9764 19.1017 94.8373C18.0448 95.6941 16.711 96.4247 15.1002 97.0291L10.2842 98.836L11.9207 107.776L6.90873 109.657L2.24054 83.9767ZM9.49449 94.3924L13.9514 92.7202C14.7459 92.4221 15.3852 92.0578 15.8694 91.6273C16.3537 91.1969 16.7059 90.7288 16.9261 90.2232C17.1572 89.7135 17.2679 89.1806 17.2581 88.6244C17.2443 88.0573 17.1332 87.4957 16.9247 86.9394C16.7572 86.4922 16.5455 86.0927 16.2895 85.7408C16.0403 85.374 15.73 85.0923 15.3585 84.8958C14.9828 84.6884 14.5392 84.5812 14.0276 84.5741C13.5269 84.5629 12.9445 84.6819 12.2806 84.931L8.06865 86.5112L9.49449 94.3924Z" fill="#D597C3"/>
<path d="M35.7122 77.1474L35.6469 77.1719L34.4681 89.184L40.4922 86.9238L35.7122 77.1474ZM31.6917 72.9269L37.5526 70.728L49.5999 93.6396L44.6533 95.4955L42.441 90.9325L33.9844 94.1053L33.454 99.6973L28.1319 101.694L31.6917 72.9269Z" fill="#D597C3"/>
<path d="M63.5119 70.1882C63.2463 69.4792 62.895 68.8895 62.458 68.419C62.017 67.9375 61.5236 67.5815 60.9779 67.3508C60.4389 67.1051 59.8606 66.9862 59.2428 66.9941C58.6319 66.9869 58.0162 67.0997 57.3959 67.3325C56.3728 67.7163 55.5403 68.2277 54.8983 68.8667C54.2564 69.5056 53.7607 70.2203 53.4113 71.0107C53.0579 71.7903 52.8317 72.6278 52.7327 73.5233C52.6405 74.4039 52.6273 75.2797 52.693 76.1508C52.7695 77.0178 52.9039 77.8569 53.0961 78.668C53.2951 79.4642 53.5131 80.1786 53.7501 80.8113C54.0648 81.6511 54.459 82.4052 54.9328 83.0734C55.4174 83.7375 55.9871 84.264 56.6417 84.6528C57.3073 85.0376 58.0605 85.2589 58.9014 85.3166C59.7532 85.3702 60.6961 85.2031 61.73 84.8151C62.3504 84.5824 62.9204 84.2814 63.44 83.9123C63.9664 83.5282 64.4092 83.0697 64.7681 82.537C65.1231 81.9933 65.3793 81.3684 65.5368 80.6624C65.6944 79.9563 65.7179 79.1576 65.6073 78.266L70.7008 76.355C70.8783 77.8559 70.8558 79.2701 70.6332 80.5977C70.4215 81.9212 70.0015 83.1362 69.3734 84.2427C68.752 85.3343 67.9237 86.3044 66.8886 87.1531C65.8535 88.0017 64.6122 88.6976 63.1647 89.2407C61.8368 89.7389 60.5913 90.0258 59.4279 90.1015C58.2755 90.1731 57.2127 90.0866 56.2398 89.8421C55.2668 89.5976 54.3754 89.2229 53.5656 88.7181C52.7626 88.1983 52.0432 87.6036 51.4075 86.9339C50.7718 86.2642 50.2245 85.549 49.7657 84.7881C49.3136 84.0122 48.9425 83.237 48.6523 82.4626C48.2233 81.3173 47.9064 80.1237 47.7018 78.8818C47.4931 77.629 47.4205 76.3748 47.4839 75.1194C47.5473 73.864 47.7516 72.6366 48.0967 71.4372C48.4527 70.2337 48.9734 69.1053 49.6587 68.052C50.3441 66.9987 51.2118 66.0511 52.2619 65.2092C53.3079 64.3565 54.5546 63.6586 56.0022 63.1155C57.3626 62.6051 58.6783 62.3229 59.9491 62.2691C61.2308 62.2112 62.4168 62.3945 63.5068 62.8191C64.5969 63.2436 65.5728 63.91 66.4344 64.8184C67.2961 65.7267 67.9926 66.8898 68.5238 68.3078L63.5119 70.1882Z" fill="#D597C3"/>
<path d="M86.4054 68.9699C86.0925 69.162 85.7143 69.3785 85.2708 69.6195C84.8273 69.8606 84.3655 70.1023 83.8853 70.3446C83.4119 70.572 82.9418 70.7919 82.4752 71.0043C82.0086 71.2167 81.5957 71.3903 81.2365 71.525C78.9945 72.3662 77.1863 72.5595 75.8118 72.1048C74.4373 71.6501 73.4661 70.6647 72.8981 69.1486C72.7877 68.8541 72.689 68.5739 72.6018 68.308C72.5255 68.0381 72.4525 67.7606 72.383 67.4757C72.3135 67.1908 72.2508 66.8908 72.1949 66.5759C72.1349 66.2501 72.066 65.884 71.9883 65.4778L70.7097 58.2878L75.7216 56.4074L77.1945 64.5135C77.2341 64.7848 77.2791 65.054 77.3295 65.3212C77.38 65.5884 77.4624 65.8748 77.5769 66.1802C77.8425 66.8891 78.3039 67.3256 78.9612 67.4895C79.6185 67.6535 80.5403 67.5129 81.7266 67.0678C82.0966 66.929 82.4877 66.7636 82.9 66.5716C83.3122 66.3796 83.706 66.1883 84.0815 65.9977C84.4528 65.7961 84.7861 65.6089 85.0813 65.4359C85.3765 65.263 85.5812 65.1302 85.6955 65.0376L83.6068 53.449L88.6188 51.5686L93.2543 77.261L88.2424 79.1414L86.4054 68.9699Z" fill="#D597C3"/>
<path d="M93.3042 49.8107L109.254 43.8264L110.07 48.2414L99.0343 52.382L100.102 58.0649L110.224 54.2673L111.046 58.6986L100.957 62.484L102.195 69.1668L113.769 64.8241L114.592 69.2554L97.9724 75.4908L93.3042 49.8107Z" fill="#D597C3"/>
<path d="M130.414 45.0874C130.148 44.3784 129.797 43.7887 129.36 43.3182C128.919 42.8367 128.425 42.4807 127.88 42.25C127.341 42.0043 126.763 41.8854 126.145 41.8933C125.534 41.8861 124.918 41.9989 124.298 42.2317C123.275 42.6155 122.442 43.1269 121.8 43.7659C121.158 44.4048 120.663 45.1195 120.313 45.9099C119.96 46.6895 119.734 47.527 119.635 48.4225C119.542 49.3031 119.529 50.1789 119.595 51.05C119.671 51.917 119.806 52.7561 119.998 53.5672C120.197 54.3634 120.415 55.0778 120.652 55.7105C120.967 56.5503 121.361 57.3044 121.835 57.9726C122.319 58.6367 122.889 59.1632 123.544 59.552C124.209 59.9368 124.962 60.1581 125.803 60.2158C126.655 60.2694 127.598 60.1023 128.632 59.7143C129.252 59.4816 129.822 59.1806 130.342 58.8115C130.868 58.4274 131.311 57.9689 131.67 57.4362C132.025 56.8925 132.281 56.2676 132.439 55.5616C132.596 54.8556 132.62 54.0568 132.509 53.1652L137.603 51.2542C137.78 52.7551 137.758 54.1693 137.535 55.4969C137.323 56.8204 136.903 58.0354 136.275 59.1419C135.654 60.2335 134.826 61.2036 133.791 62.0523C132.755 62.9009 131.514 63.5968 130.067 64.1399C128.739 64.6381 127.493 64.925 126.33 65.0007C125.177 65.0723 124.115 64.9858 123.142 64.7413C122.169 64.4968 121.277 64.1221 120.467 63.6173C119.664 63.0975 118.945 62.5028 118.309 61.8331C117.674 61.1634 117.126 60.4482 116.668 59.6873C116.216 58.9114 115.844 58.1362 115.554 57.3618C115.125 56.2165 114.808 55.0229 114.604 53.781C114.395 52.5282 114.322 51.274 114.386 50.0186C114.449 48.7632 114.654 47.5358 114.999 46.3364C115.355 45.1329 115.875 44.0045 116.561 42.9512C117.246 41.8979 118.114 40.9503 119.164 40.1085C120.21 39.2557 121.457 38.5578 122.904 38.0147C124.265 37.5043 125.58 37.2221 126.851 37.1683C128.133 37.1104 129.319 37.2937 130.409 37.7183C131.499 38.1428 132.475 38.8092 133.336 39.7176C134.198 40.6259 134.894 41.789 135.426 43.207L130.414 45.0874Z" fill="#D597C3"/>
<path d="M138.232 32.9543L143.146 31.1106L144.891 41.3352L150.411 28.3849L156.631 26.0513L150.485 40.1135L162.67 51.2169L157.087 53.3117L148.369 45.0503L146.472 49.2327L147.879 56.7663L142.9 58.6344L138.232 32.9543Z" fill="#D597C3"/>
<path d="M162.359 39.8011C161.93 38.6558 161.614 37.4622 161.409 36.2202C161.2 34.9674 161.128 33.7133 161.191 32.4578C161.254 31.2024 161.459 29.975 161.804 28.7756C162.16 27.5722 162.681 26.4438 163.366 25.3905C164.051 24.3371 164.919 23.3895 165.969 22.5477C167.015 21.6949 168.262 20.997 169.709 20.4539C171.037 19.9557 172.277 19.6709 173.43 19.5992C174.593 19.5236 175.661 19.608 176.634 19.8525C177.607 20.0971 178.495 20.4792 179.298 20.999C180.108 21.5038 180.831 22.0911 181.466 22.7607C182.098 23.4195 182.64 24.1368 183.092 24.9127C183.555 25.6845 183.931 26.4576 184.222 27.232C184.651 28.3773 184.97 29.5763 185.178 30.8292C185.383 32.0711 185.453 33.3198 185.39 34.5752C185.327 35.8306 185.117 37.0601 184.761 38.2635C184.416 39.4629 183.901 40.5893 183.215 41.6426C182.53 42.6959 181.662 43.6435 180.612 44.4854C179.566 45.3381 178.319 46.036 176.872 46.5791C175.533 47.0814 174.287 47.3683 173.135 47.4399C171.983 47.5116 170.914 47.4271 169.931 47.1867C168.958 46.9421 168.066 46.5675 167.256 46.0626C166.453 45.5428 165.734 44.9481 165.098 44.2785C164.473 43.6047 163.932 42.8874 163.473 42.1265C163.021 41.3506 162.65 40.5755 162.359 39.8011ZM167.457 38.1497C167.87 39.2514 168.38 40.1486 168.987 40.8414C169.59 41.5233 170.249 42.0226 170.963 42.3392C171.678 42.6559 172.419 42.813 173.188 42.8107C173.964 42.7934 174.727 42.6439 175.478 42.3622C176.501 41.9783 177.334 41.4669 177.976 40.828C178.618 40.189 179.113 39.4743 179.463 38.6839C179.812 37.8934 180.033 37.058 180.125 36.1774C180.228 35.2928 180.241 34.417 180.165 33.55C180.099 32.6789 179.967 31.8453 179.768 31.0491C179.575 30.2379 179.361 29.516 179.124 28.8834C178.707 27.7708 178.197 26.8736 177.594 26.1917C176.991 25.5098 176.332 25.0105 175.618 24.6938C174.903 24.3772 174.158 24.2275 173.383 24.2448C172.614 24.2471 171.854 24.3891 171.103 24.6709C170.08 25.0547 169.247 25.5661 168.605 26.2051C167.963 26.8441 167.468 27.5588 167.118 28.3492C166.765 29.1287 166.539 29.9662 166.44 30.8618C166.348 31.7423 166.334 32.6181 166.4 33.4892C166.477 34.3562 166.611 35.1953 166.803 36.0065C167.002 36.8027 167.22 37.5171 167.457 38.1497Z" fill="#D597C3"/>
<path d="M190.683 5.66176C190.779 5.88673 190.918 6.08992 191.097 6.27132C191.284 6.43772 191.516 6.56189 191.795 6.64384C192.085 6.7217 192.436 6.74575 192.847 6.71598C193.264 6.67123 193.756 6.54269 194.322 6.33035C194.801 6.15068 195.24 5.94849 195.64 5.72379C196.036 5.48819 196.382 5.23415 196.677 4.96169C196.983 4.68514 197.226 4.38879 197.405 4.07264C197.58 3.74558 197.68 3.39735 197.703 3.02795L199.27 2.43994C199.417 3.23065 199.425 3.98038 199.293 4.68914C199.157 5.387 198.913 6.02617 198.559 6.60668C198.202 7.17628 197.746 7.68312 197.192 8.1272C196.646 8.55628 196.029 8.89946 195.344 9.15671C194.31 9.54464 193.451 9.73637 192.766 9.7319C192.082 9.72743 191.512 9.58058 191.056 9.29134C190.596 8.99119 190.218 8.57931 189.922 8.05571C189.634 7.5171 189.365 6.91512 189.115 6.24977L190.683 5.66176ZM186.294 14.9219L191.306 13.0415L194.348 30.2065L194.414 30.182L200.334 9.65429L205.689 7.64525L210.324 33.3376L205.296 35.2242L202.725 17.2292L202.66 17.2537L196.04 38.6971L190.897 40.6265L186.294 14.9219Z" fill="#D597C3"/>
<path d="M19.6225 141.156C20.2498 141.107 20.7573 141.054 21.145 140.995C21.5437 140.933 21.9172 140.836 22.2654 140.706C22.9293 140.457 23.4361 140.186 23.7856 139.893C24.1461 139.596 24.3956 139.284 24.5343 138.959C24.6689 138.622 24.7129 138.276 24.6665 137.92C24.631 137.56 24.5417 137.189 24.3987 136.808C24.2475 136.404 24.0282 135.951 23.7409 135.45C23.4536 134.948 23.0785 134.361 22.6156 133.688L13.7931 120.726L18.952 118.791L26.5884 131.172L26.6537 131.147L28.3065 115.281L33.8245 113.211L29.8751 137.608C29.7135 138.602 29.4853 139.484 29.1904 140.254C28.9022 141.009 28.5283 141.684 28.0687 142.279C27.609 142.875 27.0561 143.387 26.41 143.816C25.7679 144.256 25.0115 144.639 24.1408 144.966C23.8905 145.06 23.6123 145.146 23.3062 145.223C23.0109 145.297 22.6987 145.358 22.3694 145.407C22.0551 145.462 21.7368 145.507 21.4143 145.541C21.1068 145.582 20.8136 145.611 20.5346 145.628L19.6225 141.156Z" fill="#D597C3"/>
<path d="M36.1754 112.329L52.7294 106.118L53.5456 110.533L41.9382 114.888L42.9733 120.583L48.9158 118.353C50.3307 117.822 51.6089 117.523 52.7505 117.456C53.8879 117.377 54.8915 117.505 55.7611 117.838C56.6375 118.156 57.3793 118.661 57.9864 119.354C58.6004 120.032 59.0912 120.862 59.459 121.843C59.5939 122.203 59.7308 122.668 59.8698 123.238C60.0048 123.797 60.0812 124.415 60.0992 125.093C60.1131 125.759 60.0365 126.466 59.8694 127.213C59.6983 127.949 59.3761 128.679 58.9029 129.404C58.4365 130.114 57.7816 130.802 56.9383 131.466C56.0908 132.12 55.0032 132.696 53.6754 133.194L40.8436 138.009L36.1754 112.329ZM44.9679 131.721L51.0573 129.437C51.8192 129.151 52.4749 128.83 53.0244 128.475C53.5699 128.108 53.9943 127.7 54.2975 127.251C54.5967 126.79 54.7652 126.279 54.803 125.718C54.8518 125.152 54.7474 124.525 54.49 123.838C54.2979 123.326 54.0515 122.933 53.7507 122.66C53.4566 122.372 53.1184 122.182 52.736 122.089C52.3645 121.992 51.9502 121.98 51.4931 122.052C51.0359 122.124 50.5516 122.256 50.04 122.447L43.7221 124.818L44.9679 131.721Z" fill="#D597C3"/>
<path d="M60.4024 103.239L65.4144 101.359L68.4564 118.524L68.5217 118.499L74.4424 97.9713L79.7971 95.9623L84.4327 121.655L79.4044 123.541L76.8335 105.546L76.7682 105.571L70.1479 127.014L65.0053 128.944L60.4024 103.239Z" fill="#D597C3"/>
<path d="M100.253 93.0087L93.3309 95.6058L95.1938 109.126C95.3767 110.476 95.4656 111.724 95.4607 112.871C95.4625 114.002 95.3112 115.023 95.0068 115.933C94.7092 116.829 94.2326 117.611 93.577 118.28C92.9323 118.945 92.0604 119.483 90.9611 119.896C90.406 120.104 89.8761 120.247 89.3713 120.324C88.8707 120.413 88.3128 120.448 87.6978 120.43L86.7815 115.847C87.1638 115.84 87.5231 115.805 87.8591 115.741C88.202 115.662 88.4496 115.594 88.6019 115.537C88.8414 115.447 89.0604 115.353 89.259 115.253C89.4536 115.143 89.6188 114.988 89.7548 114.787C89.8908 114.587 89.9914 114.325 90.0565 114.002C90.1285 113.664 90.1671 113.221 90.1723 112.671C90.1735 112.111 90.1351 111.429 90.0572 110.624C89.9861 109.805 89.8775 108.82 89.7314 107.668L87.7803 92.9671L104.465 86.7072L109.117 112.393L104.105 114.274L100.253 93.0087Z" fill="#D597C3"/>
<path d="M133.858 92.2503C133.545 92.4423 133.167 92.6589 132.723 92.8999C132.28 93.1409 131.818 93.3826 131.338 93.625C130.864 93.8524 130.394 94.0723 129.928 94.2847C129.461 94.4971 129.048 94.6706 128.689 94.8054C126.447 95.6466 124.639 95.8398 123.264 95.3851C121.89 94.9305 120.918 93.945 120.35 92.4289C120.24 92.1344 120.141 91.8542 120.054 91.5884C119.978 91.3184 119.905 91.041 119.835 90.7561C119.766 90.4711 119.703 90.1712 119.647 89.8563C119.587 89.5305 119.518 89.1644 119.441 88.7581L118.162 81.5682L123.174 79.6878L124.647 87.7939C124.686 88.0652 124.731 88.3344 124.782 88.6016C124.832 88.8688 124.915 89.1551 125.029 89.4605C125.295 90.1695 125.756 90.606 126.414 90.7699C127.071 90.9338 127.993 90.7933 129.179 90.3482C129.549 90.2093 129.94 90.0439 130.352 89.852C130.765 89.66 131.158 89.4687 131.534 89.2781C131.905 89.0765 132.238 88.8893 132.534 88.7163C132.829 88.5433 133.034 88.4106 133.148 88.3179L131.059 76.7294L136.071 74.8489L140.707 100.541L135.695 102.422L133.858 92.2503Z" fill="#D597C3"/>
<path d="M140.757 73.091L156.707 67.1068L157.523 71.5218L146.487 75.6624L147.554 81.3452L157.676 77.5476L158.499 81.979L148.409 85.7643L149.647 92.4471L161.222 88.1044L162.044 92.5358L145.425 98.7712L140.757 73.091Z" fill="#D597C3"/>
<path d="M176.95 64.2329L170.028 66.8299L171.891 80.3506C172.074 81.7002 172.163 82.9482 172.158 84.0946C172.16 85.226 172.008 86.247 171.704 87.1574C171.406 88.0528 170.93 88.835 170.274 89.5039C169.63 90.1688 168.758 90.7074 167.658 91.1198C167.103 91.3281 166.573 91.4709 166.069 91.5484C165.568 91.6367 165.01 91.6718 164.395 91.6538L163.479 87.071C163.861 87.0644 164.22 87.0292 164.556 86.9653C164.899 86.8864 165.147 86.8184 165.299 86.7612C165.539 86.6714 165.758 86.5768 165.956 86.4774C166.151 86.3671 166.316 86.2118 166.452 86.0115C166.588 85.8112 166.689 85.5495 166.754 85.2265C166.826 84.8885 166.864 84.4448 166.87 83.8954C166.871 83.3352 166.832 82.6529 166.754 81.8486C166.683 81.0293 166.575 80.0437 166.429 78.8918L164.477 64.1912L181.162 57.9313L185.814 83.6176L180.802 85.498L176.95 64.2329Z" fill="#D597C3"/>
<path d="M188.001 71.2646C187.572 70.1193 187.255 68.9257 187.05 67.6838C186.842 66.4309 186.769 65.1768 186.833 63.9214C186.896 62.666 187.1 61.4386 187.445 60.2392C187.801 59.0357 188.322 57.9073 189.007 56.854C189.693 55.8007 190.56 54.8531 191.61 54.0112C192.656 53.1585 193.903 52.4606 195.351 51.9175C196.679 51.4193 197.919 51.1344 199.071 51.0628C200.235 50.9871 201.303 51.0715 202.276 51.3161C203.249 51.5606 204.137 51.9428 204.94 52.4626C205.749 52.9674 206.472 53.5546 207.108 54.2243C207.74 54.883 208.281 55.6003 208.733 56.3762C209.196 57.148 209.573 57.9211 209.863 58.6955C210.292 59.8408 210.611 61.0399 210.82 62.2927C211.024 63.5347 211.095 64.7833 211.032 66.0388C210.968 67.2942 210.758 68.5236 210.402 69.7271C210.057 70.9265 209.542 72.0528 208.857 73.1062C208.171 74.1595 207.304 75.1071 206.254 75.9489C205.208 76.8017 203.961 77.4996 202.513 78.0427C201.175 78.5449 199.929 78.8319 198.777 78.9035C197.624 78.9751 196.556 78.8907 195.572 78.6502C194.599 78.4057 193.708 78.031 192.898 77.5262C192.095 77.0064 191.376 76.4117 190.74 75.742C190.115 75.0683 189.573 74.351 189.114 73.5901C188.662 72.8142 188.291 72.039 188.001 71.2646ZM193.099 69.6133C193.511 70.7149 194.021 71.6121 194.629 72.3049C195.232 72.9869 195.89 73.4861 196.605 73.8028C197.319 74.1194 198.061 74.2766 198.83 74.2743C199.605 74.257 200.369 74.1075 201.12 73.8257C202.143 73.4419 202.975 72.9305 203.617 72.2915C204.259 71.6525 204.755 70.9379 205.104 70.1474C205.453 69.357 205.674 68.5215 205.766 67.641C205.869 66.7563 205.883 65.8805 205.806 65.0135C205.74 64.1424 205.608 63.3088 205.409 62.5126C205.217 61.7014 205.002 60.9795 204.765 60.3469C204.349 59.2344 203.839 58.3371 203.236 57.6552C202.632 56.9733 201.974 56.474 201.259 56.1574C200.545 55.8407 199.8 55.6911 199.024 55.7084C198.255 55.7107 197.495 55.8527 196.744 56.1344C195.721 56.5183 194.889 57.0297 194.247 57.6687C193.605 58.3076 193.109 59.0223 192.76 59.8127C192.406 60.5923 192.18 61.4298 192.081 62.3253C191.989 63.2059 191.976 64.0817 192.042 64.9528C192.118 65.8198 192.253 66.6589 192.445 67.47C192.644 68.2662 192.862 68.9806 193.099 69.6133Z" fill="#D597C3"/>
<path d="M211.87 46.4099L221.258 42.888C222.781 42.3163 224.124 41.9742 225.286 41.8617C226.448 41.7492 227.463 41.8411 228.331 42.1374C229.196 42.4228 229.92 42.8976 230.504 43.5617C231.088 44.2259 231.564 45.0488 231.931 46.0305C232.164 46.6522 232.305 47.2773 232.355 47.9057C232.411 48.5192 232.365 49.1271 232.219 49.7295C232.079 50.317 231.828 50.89 231.466 51.4487C231.111 51.9924 230.639 52.5054 230.05 52.9876C230.591 53.0711 231.095 53.1927 231.565 53.3524C232.03 53.5013 232.46 53.7196 232.853 54.0074C233.242 54.2844 233.59 54.6328 233.896 55.0529C234.214 55.4688 234.483 55.9713 234.703 56.5603C235.157 57.771 235.366 58.9243 235.329 60.0203C235.289 61.1053 235.01 62.118 234.494 63.0583C233.977 63.9986 233.229 64.8515 232.25 65.617C231.266 66.3716 230.051 67.0205 228.603 67.5636L216.539 72.0901L211.87 46.4099ZM220.728 65.7783L226.883 63.4691C227.645 63.1833 228.244 62.8278 228.681 62.4028C229.117 61.9777 229.433 61.5294 229.629 61.0579C229.825 60.5863 229.916 60.1168 229.902 59.6492C229.888 59.1817 229.81 58.757 229.667 58.3752C229.475 57.8626 229.224 57.459 228.915 57.1643C228.602 56.8588 228.243 56.6453 227.837 56.5238C227.443 56.3981 227.007 56.3625 226.531 56.4167C226.055 56.471 225.555 56.5961 225.033 56.7921L219.482 58.8747L220.728 65.7783ZM218.701 54.6519L224.48 52.4836C225.667 52.0385 226.474 51.4432 226.902 50.6978C227.326 49.9415 227.353 49.0671 226.981 48.0745C226.813 47.6273 226.593 47.2871 226.319 47.0538C226.056 46.8165 225.751 46.6637 225.402 46.5953C225.065 46.5229 224.693 46.5254 224.288 46.6029C223.878 46.6694 223.456 46.7844 223.021 46.9477L217.666 48.9568L218.701 54.6519Z" fill="#D597C3"/>
<path d="M236.032 37.3448L251.982 31.3605L252.798 35.7755L241.762 39.9161L242.83 45.5989L252.952 41.8014L253.774 46.2327L243.685 50.018L244.923 56.7009L256.497 52.3581L257.32 56.7895L240.7 63.0249L236.032 37.3448Z" fill="#D597C3"/>
<path d="M256.798 29.5536L261.712 27.7099L263.457 37.9345L268.977 24.9842L275.197 22.6506L269.051 36.7128L281.237 47.8162L275.653 49.911L266.935 41.6496L265.038 45.832L266.446 53.3656L261.466 55.2337L256.798 29.5536Z" fill="#D597C3"/>
<path d="M289.943 22.8468L289.878 22.8713L288.699 34.8834L294.723 32.6232L289.943 22.8468ZM285.923 18.6263L291.784 16.4274L303.831 39.339L298.884 41.1949L296.672 36.6319L288.216 39.8047L287.685 45.3968L282.363 47.3935L285.923 18.6263Z" fill="#D597C3"/>
<path d="M304.997 11.4885L310.107 9.57138L311.094 16.1805L311.605 28.8273L309.173 29.74L305.984 18.0976L304.997 11.4885ZM308.247 32.2892L313.112 30.4639L313.888 35.5659L309.023 37.3912L308.247 32.2892Z" fill="#D597C3"/>
<path d="M316.131 7.31122L321.241 5.39404L322.228 12.0031L322.739 24.65L320.306 25.5626L317.118 13.9203L316.131 7.31122ZM319.381 28.1119L324.246 26.2866L325.022 31.3886L320.157 33.2139L319.381 28.1119Z" fill="#D597C3"/>
<path d="M2.24054 83.9767L10.5012 80.8773C12.0576 80.2934 13.4406 79.9922 14.6502 79.9738C15.8667 79.9404 16.9274 80.1209 17.8324 80.5154C18.7442 80.8948 19.5043 81.4494 20.1129 82.179C20.7282 82.8936 21.2075 83.7091 21.5507 84.6253C22.0616 85.9887 22.3125 87.2879 22.3034 88.5229C22.3053 89.7538 22.0391 90.8987 21.5048 91.9576C20.9705 93.0165 20.1695 93.9764 19.1017 94.8373C18.0448 95.6941 16.711 96.4247 15.1002 97.0291L10.2842 98.836L11.9207 107.776L6.90873 109.657L2.24054 83.9767ZM9.49449 94.3924L13.9514 92.7202C14.7459 92.4221 15.3852 92.0578 15.8694 91.6273C16.3537 91.1969 16.7059 90.7288 16.9261 90.2232C17.1572 89.7135 17.2679 89.1806 17.2581 88.6244C17.2443 88.0573 17.1332 87.4957 16.9247 86.9394C16.7572 86.4922 16.5455 86.0927 16.2895 85.7408C16.0403 85.374 15.73 85.0923 15.3585 84.8958C14.9828 84.6884 14.5392 84.5812 14.0276 84.5741C13.5269 84.5629 12.9445 84.6819 12.2806 84.931L8.06865 86.5112L9.49449 94.3924Z" stroke="black" stroke-width="3" mask="url(#path-1-outside-1)"/>
<path d="M35.7122 77.1474L35.6469 77.1719L34.4681 89.184L40.4922 86.9238L35.7122 77.1474ZM31.6917 72.9269L37.5526 70.728L49.5999 93.6396L44.6533 95.4955L42.441 90.9325L33.9844 94.1053L33.454 99.6973L28.1319 101.694L31.6917 72.9269Z" stroke="black" stroke-width="3" mask="url(#path-1-outside-1)"/>
<path d="M63.5119 70.1882C63.2463 69.4792 62.895 68.8895 62.458 68.419C62.017 67.9375 61.5236 67.5815 60.9779 67.3508C60.4389 67.1051 59.8606 66.9862 59.2428 66.9941C58.6319 66.9869 58.0162 67.0997 57.3959 67.3325C56.3728 67.7163 55.5403 68.2277 54.8983 68.8667C54.2564 69.5056 53.7607 70.2203 53.4113 71.0107C53.0579 71.7903 52.8317 72.6278 52.7327 73.5233C52.6405 74.4039 52.6273 75.2797 52.693 76.1508C52.7695 77.0178 52.9039 77.8569 53.0961 78.668C53.2951 79.4642 53.5131 80.1786 53.7501 80.8113C54.0648 81.6511 54.459 82.4052 54.9328 83.0734C55.4174 83.7375 55.9871 84.264 56.6417 84.6528C57.3073 85.0376 58.0605 85.2589 58.9014 85.3166C59.7532 85.3702 60.6961 85.2031 61.73 84.8151C62.3504 84.5824 62.9204 84.2814 63.44 83.9123C63.9664 83.5282 64.4092 83.0697 64.7681 82.537C65.1231 81.9933 65.3793 81.3684 65.5368 80.6624C65.6944 79.9563 65.7179 79.1576 65.6073 78.266L70.7008 76.355C70.8783 77.8559 70.8558 79.2701 70.6332 80.5977C70.4215 81.9212 70.0015 83.1362 69.3734 84.2427C68.752 85.3343 67.9237 86.3044 66.8886 87.1531C65.8535 88.0017 64.6122 88.6976 63.1647 89.2407C61.8368 89.7389 60.5913 90.0258 59.4279 90.1015C58.2755 90.1731 57.2127 90.0866 56.2398 89.8421C55.2668 89.5976 54.3754 89.2229 53.5656 88.7181C52.7626 88.1983 52.0432 87.6036 51.4075 86.9339C50.7718 86.2642 50.2245 85.549 49.7657 84.7881C49.3136 84.0122 48.9425 83.237 48.6523 82.4626C48.2233 81.3173 47.9064 80.1237 47.7018 78.8818C47.4931 77.629 47.4205 76.3748 47.4839 75.1194C47.5473 73.864 47.7516 72.6366 48.0967 71.4372C48.4527 70.2337 48.9734 69.1053 49.6587 68.052C50.3441 66.9987 51.2118 66.0511 52.2619 65.2092C53.3079 64.3565 54.5546 63.6586 56.0022 63.1155C57.3626 62.6051 58.6783 62.3229 59.9491 62.2691C61.2308 62.2112 62.4168 62.3945 63.5068 62.8191C64.5969 63.2436 65.5728 63.91 66.4344 64.8184C67.2961 65.7267 67.9926 66.8898 68.5238 68.3078L63.5119 70.1882Z" stroke="black" stroke-width="3" mask="url(#path-1-outside-1)"/>
<path d="M86.4054 68.9699C86.0925 69.162 85.7143 69.3785 85.2708 69.6195C84.8273 69.8606 84.3655 70.1023 83.8853 70.3446C83.4119 70.572 82.9418 70.7919 82.4752 71.0043C82.0086 71.2167 81.5957 71.3903 81.2365 71.525C78.9945 72.3662 77.1863 72.5595 75.8118 72.1048C74.4373 71.6501 73.4661 70.6647 72.8981 69.1486C72.7877 68.8541 72.689 68.5739 72.6018 68.308C72.5255 68.0381 72.4525 67.7606 72.383 67.4757C72.3135 67.1908 72.2508 66.8908 72.1949 66.5759C72.1349 66.2501 72.066 65.884 71.9883 65.4778L70.7097 58.2878L75.7216 56.4074L77.1945 64.5135C77.2341 64.7848 77.2791 65.054 77.3295 65.3212C77.38 65.5884 77.4624 65.8748 77.5769 66.1802C77.8425 66.8891 78.3039 67.3256 78.9612 67.4895C79.6185 67.6535 80.5403 67.5129 81.7266 67.0678C82.0966 66.929 82.4877 66.7636 82.9 66.5716C83.3122 66.3796 83.706 66.1883 84.0815 65.9977C84.4528 65.7961 84.7861 65.6089 85.0813 65.4359C85.3765 65.263 85.5812 65.1302 85.6955 65.0376L83.6068 53.449L88.6188 51.5686L93.2543 77.261L88.2424 79.1414L86.4054 68.9699Z" stroke="black" stroke-width="3" mask="url(#path-1-outside-1)"/>
<path d="M93.3042 49.8107L109.254 43.8264L110.07 48.2414L99.0343 52.382L100.102 58.0649L110.224 54.2673L111.046 58.6986L100.957 62.484L102.195 69.1668L113.769 64.8241L114.592 69.2554L97.9724 75.4908L93.3042 49.8107Z" stroke="black" stroke-width="3" mask="url(#path-1-outside-1)"/>
<path d="M130.414 45.0874C130.148 44.3784 129.797 43.7887 129.36 43.3182C128.919 42.8367 128.425 42.4807 127.88 42.25C127.341 42.0043 126.763 41.8854 126.145 41.8933C125.534 41.8861 124.918 41.9989 124.298 42.2317C123.275 42.6155 122.442 43.1269 121.8 43.7659C121.158 44.4048 120.663 45.1195 120.313 45.9099C119.96 46.6895 119.734 47.527 119.635 48.4225C119.542 49.3031 119.529 50.1789 119.595 51.05C119.671 51.917 119.806 52.7561 119.998 53.5672C120.197 54.3634 120.415 55.0778 120.652 55.7105C120.967 56.5503 121.361 57.3044 121.835 57.9726C122.319 58.6367 122.889 59.1632 123.544 59.552C124.209 59.9368 124.962 60.1581 125.803 60.2158C126.655 60.2694 127.598 60.1023 128.632 59.7143C129.252 59.4816 129.822 59.1806 130.342 58.8115C130.868 58.4274 131.311 57.9689 131.67 57.4362C132.025 56.8925 132.281 56.2676 132.439 55.5616C132.596 54.8556 132.62 54.0568 132.509 53.1652L137.603 51.2542C137.78 52.7551 137.758 54.1693 137.535 55.4969C137.323 56.8204 136.903 58.0354 136.275 59.1419C135.654 60.2335 134.826 61.2036 133.791 62.0523C132.755 62.9009 131.514 63.5968 130.067 64.1399C128.739 64.6381 127.493 64.925 126.33 65.0007C125.177 65.0723 124.115 64.9858 123.142 64.7413C122.169 64.4968 121.277 64.1221 120.467 63.6173C119.664 63.0975 118.945 62.5028 118.309 61.8331C117.674 61.1634 117.126 60.4482 116.668 59.6873C116.216 58.9114 115.844 58.1362 115.554 57.3618C115.125 56.2165 114.808 55.0229 114.604 53.781C114.395 52.5282 114.322 51.274 114.386 50.0186C114.449 48.7632 114.654 47.5358 114.999 46.3364C115.355 45.1329 115.875 44.0045 116.561 42.9512C117.246 41.8979 118.114 40.9503 119.164 40.1085C120.21 39.2557 121.457 38.5578 122.904 38.0147C124.265 37.5043 125.58 37.2221 126.851 37.1683C128.133 37.1104 129.319 37.2937 130.409 37.7183C131.499 38.1428 132.475 38.8092 133.336 39.7176C134.198 40.6259 134.894 41.789 135.426 43.207L130.414 45.0874Z" stroke="black" stroke-width="3" mask="url(#path-1-outside-1)"/>
<path d="M138.232 32.9543L143.146 31.1106L144.891 41.3352L150.411 28.3849L156.631 26.0513L150.485 40.1135L162.67 51.2169L157.087 53.3117L148.369 45.0503L146.472 49.2327L147.879 56.7663L142.9 58.6344L138.232 32.9543Z" stroke="black" stroke-width="3" mask="url(#path-1-outside-1)"/>
<path d="M162.359 39.8011C161.93 38.6558 161.614 37.4622 161.409 36.2202C161.2 34.9674 161.128 33.7133 161.191 32.4578C161.254 31.2024 161.459 29.975 161.804 28.7756C162.16 27.5722 162.681 26.4438 163.366 25.3905C164.051 24.3371 164.919 23.3895 165.969 22.5477C167.015 21.6949 168.262 20.997 169.709 20.4539C171.037 19.9557 172.277 19.6709 173.43 19.5992C174.593 19.5236 175.661 19.608 176.634 19.8525C177.607 20.0971 178.495 20.4792 179.298 20.999C180.108 21.5038 180.831 22.0911 181.466 22.7607C182.098 23.4195 182.64 24.1368 183.092 24.9127C183.555 25.6845 183.931 26.4576 184.222 27.232C184.651 28.3773 184.97 29.5763 185.178 30.8292C185.383 32.0711 185.453 33.3198 185.39 34.5752C185.327 35.8306 185.117 37.0601 184.761 38.2635C184.416 39.4629 183.901 40.5893 183.215 41.6426C182.53 42.6959 181.662 43.6435 180.612 44.4854C179.566 45.3381 178.319 46.036 176.872 46.5791C175.533 47.0814 174.287 47.3683 173.135 47.4399C171.983 47.5116 170.914 47.4271 169.931 47.1867C168.958 46.9421 168.066 46.5675 167.256 46.0626C166.453 45.5428 165.734 44.9481 165.098 44.2785C164.473 43.6047 163.932 42.8874 163.473 42.1265C163.021 41.3506 162.65 40.5755 162.359 39.8011ZM167.457 38.1497C167.87 39.2514 168.38 40.1486 168.987 40.8414C169.59 41.5233 170.249 42.0226 170.963 42.3392C171.678 42.6559 172.419 42.813 173.188 42.8107C173.964 42.7934 174.727 42.6439 175.478 42.3622C176.501 41.9783 177.334 41.4669 177.976 40.828C178.618 40.189 179.113 39.4743 179.463 38.6839C179.812 37.8934 180.033 37.058 180.125 36.1774C180.228 35.2928 180.241 34.417 180.165 33.55C180.099 32.6789 179.967 31.8453 179.768 31.0491C179.575 30.2379 179.361 29.516 179.124 28.8834C178.707 27.7708 178.197 26.8736 177.594 26.1917C176.991 25.5098 176.332 25.0105 175.618 24.6938C174.903 24.3772 174.158 24.2275 173.383 24.2448C172.614 24.2471 171.854 24.3891 171.103 24.6709C170.08 25.0547 169.247 25.5661 168.605 26.2051C167.963 26.8441 167.468 27.5588 167.118 28.3492C166.765 29.1287 166.539 29.9662 166.44 30.8618C166.348 31.7423 166.334 32.6181 166.4 33.4892C166.477 34.3562 166.611 35.1953 166.803 36.0065C167.002 36.8027 167.22 37.5171 167.457 38.1497Z" stroke="black" stroke-width="3" mask="url(#path-1-outside-1)"/>
<path d="M190.683 5.66176C190.779 5.88673 190.918 6.08992 191.097 6.27132C191.284 6.43772 191.516 6.56189 191.795 6.64384C192.085 6.7217 192.436 6.74575 192.847 6.71598C193.264 6.67123 193.756 6.54269 194.322 6.33035C194.801 6.15068 195.24 5.94849 195.64 5.72379C196.036 5.48819 196.382 5.23415 196.677 4.96169C196.983 4.68514 197.226 4.38879 197.405 4.07264C197.58 3.74558 197.68 3.39735 197.703 3.02795L199.27 2.43994C199.417 3.23065 199.425 3.98038 199.293 4.68914C199.157 5.387 198.913 6.02617 198.559 6.60668C198.202 7.17628 197.746 7.68312 197.192 8.1272C196.646 8.55628 196.029 8.89946 195.344 9.15671C194.31 9.54464 193.451 9.73637 192.766 9.7319C192.082 9.72743 191.512 9.58058 191.056 9.29134C190.596 8.99119 190.218 8.57931 189.922 8.05571C189.634 7.5171 189.365 6.91512 189.115 6.24977L190.683 5.66176ZM186.294 14.9219L191.306 13.0415L194.348 30.2065L194.414 30.182L200.334 9.65429L205.689 7.64525L210.324 33.3376L205.296 35.2242L202.725 17.2292L202.66 17.2537L196.04 38.6971L190.897 40.6265L186.294 14.9219Z" stroke="black" stroke-width="3" mask="url(#path-1-outside-1)"/>
<path d="M19.6225 141.156C20.2498 141.107 20.7573 141.054 21.145 140.995C21.5437 140.933 21.9172 140.836 22.2654 140.706C22.9293 140.457 23.4361 140.186 23.7856 139.893C24.1461 139.596 24.3956 139.284 24.5343 138.959C24.6689 138.622 24.7129 138.276 24.6665 137.92C24.631 137.56 24.5417 137.189 24.3987 136.808C24.2475 136.404 24.0282 135.951 23.7409 135.45C23.4536 134.948 23.0785 134.361 22.6156 133.688L13.7931 120.726L18.952 118.791L26.5884 131.172L26.6537 131.147L28.3065 115.281L33.8245 113.211L29.8751 137.608C29.7135 138.602 29.4853 139.484 29.1904 140.254C28.9022 141.009 28.5283 141.684 28.0687 142.279C27.609 142.875 27.0561 143.387 26.41 143.816C25.7679 144.256 25.0115 144.639 24.1408 144.966C23.8905 145.06 23.6123 145.146 23.3062 145.223C23.0109 145.297 22.6987 145.358 22.3694 145.407C22.0551 145.462 21.7368 145.507 21.4143 145.541C21.1068 145.582 20.8136 145.611 20.5346 145.628L19.6225 141.156Z" stroke="black" stroke-width="3" mask="url(#path-1-outside-1)"/>
<path d="M36.1754 112.329L52.7294 106.118L53.5456 110.533L41.9382 114.888L42.9733 120.583L48.9158 118.353C50.3307 117.822 51.6089 117.523 52.7505 117.456C53.8879 117.377 54.8915 117.505 55.7611 117.838C56.6375 118.156 57.3793 118.661 57.9864 119.354C58.6004 120.032 59.0912 120.862 59.459 121.843C59.5939 122.203 59.7308 122.668 59.8698 123.238C60.0048 123.797 60.0812 124.415 60.0992 125.093C60.1131 125.759 60.0365 126.466 59.8694 127.213C59.6983 127.949 59.3761 128.679 58.9029 129.404C58.4365 130.114 57.7816 130.802 56.9383 131.466C56.0908 132.12 55.0032 132.696 53.6754 133.194L40.8436 138.009L36.1754 112.329ZM44.9679 131.721L51.0573 129.437C51.8192 129.151 52.4749 128.83 53.0244 128.475C53.5699 128.108 53.9943 127.7 54.2975 127.251C54.5967 126.79 54.7652 126.279 54.803 125.718C54.8518 125.152 54.7474 124.525 54.49 123.838C54.2979 123.326 54.0515 122.933 53.7507 122.66C53.4566 122.372 53.1184 122.182 52.736 122.089C52.3645 121.992 51.9502 121.98 51.4931 122.052C51.0359 122.124 50.5516 122.256 50.04 122.447L43.7221 124.818L44.9679 131.721Z" stroke="black" stroke-width="3" mask="url(#path-1-outside-1)"/>
<path d="M60.4024 103.239L65.4144 101.359L68.4564 118.524L68.5217 118.499L74.4424 97.9713L79.7971 95.9623L84.4327 121.655L79.4044 123.541L76.8335 105.546L76.7682 105.571L70.1479 127.014L65.0053 128.944L60.4024 103.239Z" stroke="black" stroke-width="3" mask="url(#path-1-outside-1)"/>
<path d="M100.253 93.0087L93.3309 95.6058L95.1938 109.126C95.3767 110.476 95.4656 111.724 95.4607 112.871C95.4625 114.002 95.3112 115.023 95.0068 115.933C94.7092 116.829 94.2326 117.611 93.577 118.28C92.9323 118.945 92.0604 119.483 90.9611 119.896C90.406 120.104 89.8761 120.247 89.3713 120.324C88.8707 120.413 88.3128 120.448 87.6978 120.43L86.7815 115.847C87.1638 115.84 87.5231 115.805 87.8591 115.741C88.202 115.662 88.4496 115.594 88.6019 115.537C88.8414 115.447 89.0604 115.353 89.259 115.253C89.4536 115.143 89.6188 114.988 89.7548 114.787C89.8908 114.587 89.9914 114.325 90.0565 114.002C90.1285 113.664 90.1671 113.221 90.1723 112.671C90.1735 112.111 90.1351 111.429 90.0572 110.624C89.9861 109.805 89.8775 108.82 89.7314 107.668L87.7803 92.9671L104.465 86.7072L109.117 112.393L104.105 114.274L100.253 93.0087Z" stroke="black" stroke-width="3" mask="url(#path-1-outside-1)"/>
<path d="M133.858 92.2503C133.545 92.4423 133.167 92.6589 132.723 92.8999C132.28 93.1409 131.818 93.3826 131.338 93.625C130.864 93.8524 130.394 94.0723 129.928 94.2847C129.461 94.4971 129.048 94.6706 128.689 94.8054C126.447 95.6466 124.639 95.8398 123.264 95.3851C121.89 94.9305 120.918 93.945 120.35 92.4289C120.24 92.1344 120.141 91.8542 120.054 91.5884C119.978 91.3184 119.905 91.041 119.835 90.7561C119.766 90.4711 119.703 90.1712 119.647 89.8563C119.587 89.5305 119.518 89.1644 119.441 88.7581L118.162 81.5682L123.174 79.6878L124.647 87.7939C124.686 88.0652 124.731 88.3344 124.782 88.6016C124.832 88.8688 124.915 89.1551 125.029 89.4605C125.295 90.1695 125.756 90.606 126.414 90.7699C127.071 90.9338 127.993 90.7933 129.179 90.3482C129.549 90.2093 129.94 90.0439 130.352 89.852C130.765 89.66 131.158 89.4687 131.534 89.2781C131.905 89.0765 132.238 88.8893 132.534 88.7163C132.829 88.5433 133.034 88.4106 133.148 88.3179L131.059 76.7294L136.071 74.8489L140.707 100.541L135.695 102.422L133.858 92.2503Z" stroke="black" stroke-width="3" mask="url(#path-1-outside-1)"/>
<path d="M140.757 73.091L156.707 67.1068L157.523 71.5218L146.487 75.6624L147.554 81.3452L157.676 77.5476L158.499 81.979L148.409 85.7643L149.647 92.4471L161.222 88.1044L162.044 92.5358L145.425 98.7712L140.757 73.091Z" stroke="black" stroke-width="3" mask="url(#path-1-outside-1)"/>
<path d="M176.95 64.2329L170.028 66.8299L171.891 80.3506C172.074 81.7002 172.163 82.9482 172.158 84.0946C172.16 85.226 172.008 86.247 171.704 87.1574C171.406 88.0528 170.93 88.835 170.274 89.5039C169.63 90.1688 168.758 90.7074 167.658 91.1198C167.103 91.3281 166.573 91.4709 166.069 91.5484C165.568 91.6367 165.01 91.6718 164.395 91.6538L163.479 87.071C163.861 87.0644 164.22 87.0292 164.556 86.9653C164.899 86.8864 165.147 86.8184 165.299 86.7612C165.539 86.6714 165.758 86.5768 165.956 86.4774C166.151 86.3671 166.316 86.2118 166.452 86.0115C166.588 85.8112 166.689 85.5495 166.754 85.2265C166.826 84.8885 166.864 84.4448 166.87 83.8954C166.871 83.3352 166.832 82.6529 166.754 81.8486C166.683 81.0293 166.575 80.0437 166.429 78.8918L164.477 64.1912L181.162 57.9313L185.814 83.6176L180.802 85.498L176.95 64.2329Z" stroke="black" stroke-width="3" mask="url(#path-1-outside-1)"/>
<path d="M188.001 71.2646C187.572 70.1193 187.255 68.9257 187.05 67.6838C186.842 66.4309 186.769 65.1768 186.833 63.9214C186.896 62.666 187.1 61.4386 187.445 60.2392C187.801 59.0357 188.322 57.9073 189.007 56.854C189.693 55.8007 190.56 54.8531 191.61 54.0112C192.656 53.1585 193.903 52.4606 195.351 51.9175C196.679 51.4193 197.919 51.1344 199.071 51.0628C200.235 50.9871 201.303 51.0715 202.276 51.3161C203.249 51.5606 204.137 51.9428 204.94 52.4626C205.749 52.9674 206.472 53.5546 207.108 54.2243C207.74 54.883 208.281 55.6003 208.733 56.3762C209.196 57.148 209.573 57.9211 209.863 58.6955C210.292 59.8408 210.611 61.0399 210.82 62.2927C211.024 63.5347 211.095 64.7833 211.032 66.0388C210.968 67.2942 210.758 68.5236 210.402 69.7271C210.057 70.9265 209.542 72.0528 208.857 73.1062C208.171 74.1595 207.304 75.1071 206.254 75.9489C205.208 76.8017 203.961 77.4996 202.513 78.0427C201.175 78.5449 199.929 78.8319 198.777 78.9035C197.624 78.9751 196.556 78.8907 195.572 78.6502C194.599 78.4057 193.708 78.031 192.898 77.5262C192.095 77.0064 191.376 76.4117 190.74 75.742C190.115 75.0683 189.573 74.351 189.114 73.5901C188.662 72.8142 188.291 72.039 188.001 71.2646ZM193.099 69.6133C193.511 70.7149 194.021 71.6121 194.629 72.3049C195.232 72.9869 195.89 73.4861 196.605 73.8028C197.319 74.1194 198.061 74.2766 198.83 74.2743C199.605 74.257 200.369 74.1075 201.12 73.8257C202.143 73.4419 202.975 72.9305 203.617 72.2915C204.259 71.6525 204.755 70.9379 205.104 70.1474C205.453 69.357 205.674 68.5215 205.766 67.641C205.869 66.7563 205.883 65.8805 205.806 65.0135C205.74 64.1424 205.608 63.3088 205.409 62.5126C205.217 61.7014 205.002 60.9795 204.765 60.3469C204.349 59.2344 203.839 58.3371 203.236 57.6552C202.632 56.9733 201.974 56.474 201.259 56.1574C200.545 55.8407 199.8 55.6911 199.024 55.7084C198.255 55.7107 197.495 55.8527 196.744 56.1344C195.721 56.5183 194.889 57.0297 194.247 57.6687C193.605 58.3076 193.109 59.0223 192.76 59.8127C192.406 60.5923 192.18 61.4298 192.081 62.3253C191.989 63.2059 191.976 64.0817 192.042 64.9528C192.118 65.8198 192.253 66.6589 192.445 67.47C192.644 68.2662 192.862 68.9806 193.099 69.6133Z" stroke="black" stroke-width="3" mask="url(#path-1-outside-1)"/>
<path d="M211.87 46.4099L221.258 42.888C222.781 42.3163 224.124 41.9742 225.286 41.8617C226.448 41.7492 227.463 41.8411 228.331 42.1374C229.196 42.4228 229.92 42.8976 230.504 43.5617C231.088 44.2259 231.564 45.0488 231.931 46.0305C232.164 46.6522 232.305 47.2773 232.355 47.9057C232.411 48.5192 232.365 49.1271 232.219 49.7295C232.079 50.317 231.828 50.89 231.466 51.4487C231.111 51.9924 230.639 52.5054 230.05 52.9876C230.591 53.0711 231.095 53.1927 231.565 53.3524C232.03 53.5013 232.46 53.7196 232.853 54.0074C233.242 54.2844 233.59 54.6328 233.896 55.0529C234.214 55.4688 234.483 55.9713 234.703 56.5603C235.157 57.771 235.366 58.9243 235.329 60.0203C235.289 61.1053 235.01 62.118 234.494 63.0583C233.977 63.9986 233.229 64.8515 232.25 65.617C231.266 66.3716 230.051 67.0205 228.603 67.5636L216.539 72.0901L211.87 46.4099ZM220.728 65.7783L226.883 63.4691C227.645 63.1833 228.244 62.8278 228.681 62.4028C229.117 61.9777 229.433 61.5294 229.629 61.0579C229.825 60.5863 229.916 60.1168 229.902 59.6492C229.888 59.1817 229.81 58.757 229.667 58.3752C229.475 57.8626 229.224 57.459 228.915 57.1643C228.602 56.8588 228.243 56.6453 227.837 56.5238C227.443 56.3981 227.007 56.3625 226.531 56.4167C226.055 56.471 225.555 56.5961 225.033 56.7921L219.482 58.8747L220.728 65.7783ZM218.701 54.6519L224.48 52.4836C225.667 52.0385 226.474 51.4432 226.902 50.6978C227.326 49.9415 227.353 49.0671 226.981 48.0745C226.813 47.6273 226.593 47.2871 226.319 47.0538C226.056 46.8165 225.751 46.6637 225.402 46.5953C225.065 46.5229 224.693 46.5254 224.288 46.6029C223.878 46.6694 223.456 46.7844 223.021 46.9477L217.666 48.9568L218.701 54.6519Z" stroke="black" stroke-width="3" mask="url(#path-1-outside-1)"/>
<path d="M236.032 37.3448L251.982 31.3605L252.798 35.7755L241.762 39.9161L242.83 45.5989L252.952 41.8014L253.774 46.2327L243.685 50.018L244.923 56.7009L256.497 52.3581L257.32 56.7895L240.7 63.0249L236.032 37.3448Z" stroke="black" stroke-width="3" mask="url(#path-1-outside-1)"/>
<path d="M256.798 29.5536L261.712 27.7099L263.457 37.9345L268.977 24.9842L275.197 22.6506L269.051 36.7128L281.237 47.8162L275.653 49.911L266.935 41.6496L265.038 45.832L266.446 53.3656L261.466 55.2337L256.798 29.5536Z" stroke="black" stroke-width="3" mask="url(#path-1-outside-1)"/>
<path d="M289.943 22.8468L289.878 22.8713L288.699 34.8834L294.723 32.6232L289.943 22.8468ZM285.923 18.6263L291.784 16.4274L303.831 39.339L298.884 41.1949L296.672 36.6319L288.216 39.8047L287.685 45.3968L282.363 47.3935L285.923 18.6263Z" stroke="black" stroke-width="3" mask="url(#path-1-outside-1)"/>
<path d="M304.997 11.4885L310.107 9.57138L311.094 16.1805L311.605 28.8273L309.173 29.74L305.984 18.0976L304.997 11.4885ZM308.247 32.2892L313.112 30.4639L313.888 35.5659L309.023 37.3912L308.247 32.2892Z" stroke="black" stroke-width="3" mask="url(#path-1-outside-1)"/>
<path d="M316.131 7.31122L321.241 5.39404L322.228 12.0031L322.739 24.65L320.306 25.5626L317.118 13.9203L316.131 7.31122ZM319.381 28.1119L324.246 26.2866L325.022 31.3886L320.157 33.2139L319.381 28.1119Z" stroke="black" stroke-width="3" mask="url(#path-1-outside-1)"/>
</svg>
