<svg width="189" height="168" viewBox="0 0 189 168" fill="none" xmlns="http://www.w3.org/2000/svg">
<path d="M129.14 1.17312L133.777 2.30866C134.774 2.5527 135.544 2.97307 136.088 3.56977C136.642 4.16896 136.805 4.93638 136.576 5.87205C136.444 6.41107 136.178 6.85805 135.778 7.21299C135.391 7.56025 134.933 7.76056 134.402 7.81392C135.036 8.13083 135.473 8.57186 135.711 9.13703C135.961 9.70468 135.997 10.3495 135.82 11.0716C135.319 13.1159 133.696 13.8018 130.95 13.1294L126.48 12.035L129.14 1.17312ZM130.245 2.73721L129.404 6.16968L131.982 6.80095C132.277 6.87317 132.528 6.92909 132.733 6.96873C132.952 7.00068 133.201 7.01852 133.48 7.02224C133.76 7.02597 133.989 6.99057 134.169 6.91605C134.362 6.83385 134.542 6.69457 134.708 6.49822C134.885 6.30435 135.012 6.04978 135.089 5.7345C135.166 5.41922 135.18 5.14235 135.131 4.90387C135.084 4.65522 135.003 4.45753 134.888 4.31079C134.776 4.15388 134.6 4.01379 134.36 3.89052C134.131 3.76973 133.916 3.67935 133.715 3.61937C133.527 3.55172 133.275 3.47929 132.96 3.4021L130.245 2.73721ZM129.128 7.29858L128.179 11.1735L131.047 11.8757C131.403 11.9629 131.694 12.0287 131.92 12.0734C132.149 12.1078 132.409 12.123 132.701 12.1191C133.004 12.1176 133.252 12.0707 133.447 11.9783C133.645 11.8758 133.831 11.7111 134.005 11.4842C134.181 11.2472 134.315 10.9456 134.404 10.5795C134.479 10.2744 134.503 9.99999 134.476 9.75632C134.46 9.51514 134.376 9.30603 134.226 9.12899C134.085 8.95445 133.944 8.80657 133.801 8.68536C133.668 8.56665 133.458 8.45593 133.171 8.3532C132.883 8.25047 132.658 8.17919 132.495 8.13934C132.335 8.08933 132.087 8.02323 131.752 7.94106L129.128 7.29858Z" fill="black"/>
<path d="M149.042 6.04612L150.476 6.39724L147.816 17.2591L146.382 16.908L149.042 6.04612ZM145.812 13.3566C145.563 14.3737 145.074 15.0947 144.345 15.5198C143.628 15.9373 142.741 16.0165 141.683 15.7575L136.924 14.5921L139.583 3.73022L141.017 4.08134L139.938 8.49016L143.263 9.30446C144.331 9.56593 145.085 10.0524 145.526 10.7639C145.968 11.4652 146.064 12.3294 145.812 13.3566ZM144.363 13.0018C144.689 11.6695 144.059 10.8091 142.473 10.4206L139.635 9.72585L138.664 13.6923L141.502 14.387C143.088 14.7755 144.042 14.3138 144.363 13.0018Z" fill="black"/>
<path d="M150.213 17.8459L152.872 6.98404L154.306 7.33516L151.953 16.9461L156.774 18.1264L159.127 8.51552L160.561 8.86665L158.208 18.4776L163.028 19.6579L165.382 10.047L166.816 10.3981L164.156 21.26L150.213 17.8459Z" fill="black"/>
<path d="M177.254 12.954L174.594 23.8159L173.16 23.4648L175.514 13.8538L171.502 12.8714L169.79 18.9366C169.471 20.0657 169.015 20.9136 168.423 21.4802C167.842 22.0494 167.155 22.2368 166.362 22.0426C166.036 21.9629 165.708 21.807 165.376 21.575L165.675 20.3546C165.813 20.4961 166.06 20.6104 166.416 20.6976C166.711 20.7698 166.961 20.761 167.166 20.6711C167.384 20.5736 167.619 20.2969 167.871 19.8411C168.133 19.3878 168.381 18.7263 168.615 17.8566L170.435 11.2843L177.254 12.954Z" fill="black"/>
<path d="M177.029 24.4119L179.688 13.55L181.122 13.9012L178.87 23.1002L178.9 23.1077L186.477 15.2123L188.292 15.6568L185.633 26.5186L184.199 26.1675L186.459 16.938L186.428 16.9305L178.829 24.8527L177.029 24.4119Z" fill="black"/>
<path d="M185.726 43.777L174.562 43.1329L174.647 41.659L179.868 41.9602L180.208 36.0645L174.987 35.7633L175.072 34.2894L186.236 34.9334L186.151 36.4073L181.494 36.1387L181.154 42.0344L185.811 42.303L185.726 43.777Z" fill="black"/>
<path d="M185.313 50.9377L173.897 54.6527L173.992 53.0063L177.482 51.9648L177.752 47.2765L174.407 45.8092L174.498 44.2412L185.409 49.2756L185.313 50.9377ZM178.683 51.5936L183.951 49.9939L178.904 47.7677L178.683 51.5936Z" fill="black"/>
<path d="M185.025 60.5251L184.899 62.5629L175.223 65.5652L184.46 69.6171L184.333 71.6706L173.171 70.9768L173.258 69.5817L182.57 70.1605L173.476 66.086L173.555 64.8006L183.088 61.8209L173.777 61.2421L173.864 59.8313L185.025 60.5251Z" fill="black"/>
<path d="M173.016 73.4708L184.178 74.1645L184.086 75.6381L174.634 75.0505L174.632 75.0818L183.744 81.1403L183.628 83.0057L172.467 82.3119L172.559 80.8384L182.042 81.4279L182.044 81.3966L172.901 75.3205L173.016 73.4708Z" fill="black"/>
<path d="M182.993 93.2213L181.708 93.1414L181.941 89.3949L172.065 88.781L172.156 87.3075L182.032 87.9214L182.265 84.1748L183.55 84.2547L182.993 93.2213Z" fill="black"/>
<path d="M171.754 93.785L182.915 94.4788L182.823 95.9523L173.371 95.3648L173.369 95.3961L182.481 101.455L182.365 103.32L171.204 102.626L171.296 101.153L180.78 101.742L180.782 101.711L171.639 95.6348L171.754 93.785Z" fill="black"/>
<path d="M181.662 114.633L170.501 113.939L170.593 112.466L175.813 112.79L176.179 106.896L170.959 106.571L171.051 105.098L182.212 105.792L182.12 107.265L177.464 106.976L177.098 112.87L181.754 113.159L181.662 114.633Z" fill="black"/>
<path d="M170.256 117.884L170.347 116.411L181.509 117.105L181.053 124.441L179.767 124.361L180.132 118.498L170.256 117.884Z" fill="black"/>
<path d="M15.9573 11.5216L14.104 11.5168L10.0348 5.94635L8.71194 7.32507L8.70114 11.5029L7.25619 11.4991L7.26699 7.32133L5.95125 5.93579L1.85331 11.4852L0 11.4804L4.98016 4.89668L0.531507 0.298984L2.38482 0.303776L7.27166 5.51514L7.2851 0.316447L8.73005 0.320183L8.71661 5.51888L13.6303 0.332853L15.4836 0.337645L11.0113 4.91227L15.9573 11.5216Z" fill="black"/>
<path d="M24.8444 0.361849L24.8411 1.64974L18.5744 1.63354L18.5653 5.13598L24.4237 5.15113L24.4205 6.39191L18.5621 6.37676L18.5521 10.2404L24.8974 10.2568L24.8941 11.5447L17.0725 11.5245L17.1014 0.341828L24.8444 0.361849Z" fill="black"/>
<path d="M36.1556 7.34891C36.0263 8.76213 35.5314 9.86551 34.6707 10.6591C33.8206 11.4422 32.6992 11.8319 31.3066 11.8283C29.715 11.8242 28.4547 11.2974 27.5255 10.2479C26.5963 9.18799 26.1341 7.76277 26.1387 5.97228C26.143 4.29697 26.6126 2.90558 27.5473 1.7981C28.4926 0.680169 29.7924 0.123344 31.4468 0.127622C32.63 0.130681 33.671 0.452731 34.5698 1.09377C35.4686 1.73481 35.9689 2.62088 36.0707 3.75199L34.5943 3.74817C34.4287 3.01479 34.0637 2.44319 33.4994 2.03337C32.935 1.61308 32.2393 1.40187 31.4121 1.39973C30.1661 1.39651 29.2226 1.83384 28.5816 2.71173C27.9511 3.58964 27.6341 4.67254 27.6308 5.96044C27.6271 7.38445 27.9593 8.50568 28.6273 9.32413C29.2953 10.1426 30.2104 10.5533 31.3727 10.5563C32.3255 10.5588 33.0854 10.2885 33.6522 9.74548C34.219 9.19199 34.5614 8.39187 34.6793 7.34509L36.1556 7.34891Z" fill="black"/>
<path d="M45.5203 0.41531L45.517 1.7032L41.7632 1.6935L41.7377 11.5883L40.2613 11.5845L40.2869 1.68968L36.5331 1.67997L36.5365 0.392081L45.5203 0.41531Z" fill="black"/>
<path d="M55.0998 8.30885C55.0971 9.35592 54.7913 10.1718 54.1825 10.7566C53.5842 11.331 52.7406 11.6167 51.6516 11.6139L46.7513 11.6013L46.7802 0.418568L48.2566 0.422385L48.2449 4.96143L51.6688 4.97028C52.7682 4.97312 53.6156 5.26849 54.2109 5.8564C54.8062 6.43383 55.1025 7.25131 55.0998 8.30885ZM53.6077 8.30499C53.6113 6.93333 52.7963 6.24539 51.1629 6.24117L48.2416 6.23361L48.231 10.3172L51.1523 10.3247C52.7858 10.329 53.6042 9.65571 53.6077 8.30499Z" fill="black"/>
<path d="M58.5038 0.448881L58.4949 3.87279L58.0894 8.85059L57.367 8.84872L57.0186 3.86898L57.0274 0.445063L58.5038 0.448881ZM58.5575 10.0455L58.5534 11.6318L56.9043 11.6275L56.9084 10.0412L58.5575 10.0455Z" fill="black"/>
<path d="M69.5957 0.000219263C71.2919 0.0131152 72.6071 0.557136 73.5414 1.63228C74.4757 2.69696 74.9363 4.08787 74.9232 5.80502C74.9101 7.53264 74.4333 8.95307 73.4929 10.0663C72.5526 11.1796 71.229 11.7297 69.5223 11.7167C68.6533 11.7101 67.8745 11.5471 67.1858 11.2278C66.4971 10.9084 65.935 10.4696 65.4995 9.91131C65.0744 9.35312 64.7494 8.71715 64.5245 8.00341C64.31 7.28975 64.2059 6.51934 64.2122 5.69217C64.2255 3.94361 64.7177 2.55471 65.6889 1.52546C66.6705 0.496295 67.9728 -0.0121194 69.5957 0.000219263ZM69.5859 1.28808C68.34 1.27861 67.3786 1.71108 66.7018 2.5855C66.0355 3.44953 65.6975 4.52548 65.6877 5.81334C65.677 7.21637 66.0193 8.33937 66.7144 9.18234C67.4201 10.0149 68.3646 10.4357 69.5477 10.4447C70.7204 10.4536 71.6607 10.0419 72.3686 9.20962C73.0765 8.37732 73.4357 7.26489 73.4463 5.87232C73.4568 4.49023 73.1092 3.38289 72.4035 2.55032C71.7083 1.71782 70.7691 1.29708 69.5859 1.28808Z" fill="black"/>
<path d="M76.8303 0.322234L78.872 0.337756L82.3966 9.83559L85.9396 0.391489L87.997 0.407131L87.912 11.5895L86.5142 11.5789L86.5851 2.24977L83.0118 11.5523L81.724 11.5425L78.2297 2.18624L78.1588 11.5154L76.7453 11.5046L76.8303 0.322234Z" fill="black"/>
<path d="M90.4107 11.6085L90.4957 0.426128L91.972 0.437353L91.9 9.90784L91.9314 9.90808L97.4847 0.479264L99.3536 0.493474L99.2686 11.6759L97.7923 11.6647L97.8645 2.16275L97.8331 2.16251L92.2639 11.6226L90.4107 11.6085Z" fill="black"/>
<path d="M109.755 11.7556L108.279 11.7444L108.316 6.7657C107.173 7.01878 106.136 7.14178 105.204 7.13469C104.555 7.12976 103.979 7.04685 103.478 6.88598C102.987 6.71471 102.606 6.51286 102.336 6.28044C102.076 6.03763 101.864 5.7533 101.698 5.42744C101.533 5.10159 101.426 4.80758 101.375 4.54542C101.325 4.27279 101.301 3.98989 101.303 3.69672L101.328 0.50848L102.804 0.519705L102.781 3.5823C102.779 3.80218 102.788 4.0012 102.807 4.17935C102.838 4.34712 102.899 4.5413 102.991 4.76189C103.084 4.97202 103.214 5.15101 103.38 5.29887C103.546 5.44673 103.786 5.57421 104.1 5.6813C104.413 5.77792 104.784 5.82786 105.214 5.83113C106.156 5.83829 107.194 5.72053 108.326 5.47783L108.364 0.561975L109.84 0.573199L109.755 11.7556Z" fill="black"/>
<path d="M112.221 11.7743L112.306 0.591945L113.782 0.603169L113.71 10.0737L113.741 10.0739L119.295 0.64508L121.164 0.65929L121.079 11.8417L119.602 11.8305L119.674 2.32857L119.643 2.32833L114.074 11.7884L112.221 11.7743Z" fill="black"/>
<path d="M179.72 130.434L180.052 135.197C180.124 136.221 179.958 137.083 179.556 137.782C179.154 138.493 178.472 138.881 177.511 138.948C176.958 138.987 176.451 138.87 175.991 138.598C175.543 138.335 175.212 137.959 174.999 137.47C174.891 138.171 174.604 138.721 174.138 139.12C173.674 139.531 173.07 139.762 172.329 139.813C170.229 139.96 169.081 138.623 168.885 135.803L168.564 131.212L179.72 130.434ZM178.567 131.963L175.042 132.209L175.227 134.857C175.248 135.16 175.271 135.415 175.296 135.623C175.332 135.841 175.391 136.084 175.472 136.351C175.554 136.618 175.658 136.826 175.784 136.975C175.921 137.133 176.108 137.262 176.346 137.361C176.584 137.47 176.866 137.513 177.189 137.491C177.513 137.468 177.781 137.397 177.993 137.277C178.216 137.157 178.379 137.019 178.484 136.865C178.599 136.71 178.679 136.5 178.723 136.234C178.769 135.979 178.789 135.747 178.785 135.537C178.792 135.337 178.784 135.076 178.762 134.752L178.567 131.963ZM173.882 132.29L169.903 132.567L170.108 135.513C170.134 135.878 170.16 136.176 170.186 136.405C170.223 136.633 170.288 136.886 170.381 137.163C170.474 137.45 170.595 137.672 170.742 137.83C170.9 137.987 171.114 138.114 171.383 138.211C171.662 138.307 171.99 138.341 172.366 138.315C172.679 138.293 172.948 138.233 173.172 138.133C173.397 138.044 173.57 137.901 173.693 137.703C173.817 137.516 173.914 137.336 173.986 137.163C174.059 137.001 174.1 136.767 174.11 136.462C174.121 136.157 174.12 135.92 174.108 135.753C174.107 135.585 174.094 135.329 174.07 134.984L173.882 132.29Z" fill="black"/>
<path d="M174.915 150.038L173.599 150.13L173.281 145.571L174.598 145.479L174.915 150.038Z" fill="black"/>
<path d="M177.51 151.348C178.661 151.299 179.571 151.556 180.24 152.118C180.91 152.69 181.283 153.525 181.36 154.622C181.428 155.604 181.217 156.411 180.725 157.043C180.234 157.676 179.555 158.023 178.688 158.083C178.166 158.119 177.686 158.016 177.25 157.774C176.824 157.541 176.495 157.192 176.263 156.725C176.161 157.362 175.882 157.88 175.427 158.279C174.972 158.678 174.405 158.901 173.726 158.949C172.703 159.03 171.848 158.733 171.161 158.057C170.484 157.39 170.107 156.488 170.027 155.349C169.949 154.221 170.194 153.296 170.763 152.574C171.343 151.862 172.16 151.469 173.215 151.395L173.419 151.381L173.511 152.697C172.719 152.784 172.124 153.051 171.725 153.499C171.325 153.947 171.152 154.541 171.203 155.283C171.253 155.993 171.491 156.554 171.919 156.965C172.358 157.386 172.896 157.574 173.533 157.529C174.18 157.484 174.682 157.224 175.037 156.747C175.393 156.282 175.545 155.673 175.492 154.921C175.479 154.733 175.441 154.494 175.379 154.204L176.507 154.126C176.507 154.273 176.512 154.425 176.523 154.581C176.571 155.271 176.771 155.803 177.123 156.177C177.485 156.561 177.949 156.733 178.513 156.694C179.056 156.656 179.482 156.448 179.792 156.069C180.102 155.701 180.237 155.225 180.196 154.64C180.149 153.972 179.899 153.464 179.444 153.118C179 152.771 178.386 152.615 177.601 152.648L177.51 151.348Z" fill="black"/>
<path d="M181.973 163.422C182.02 164.091 181.934 164.669 181.716 165.156C181.51 165.653 181.237 166.04 180.9 166.315C180.562 166.591 180.111 166.821 179.547 167.008C178.993 167.193 178.487 167.318 178.03 167.381C177.583 167.444 177.041 167.497 176.404 167.542C175.819 167.583 175.289 167.593 174.816 167.574C174.343 167.565 173.845 167.5 173.322 167.379C172.8 167.268 172.358 167.094 171.995 166.857C171.642 166.62 171.341 166.284 171.09 165.85C170.839 165.416 170.693 164.891 170.65 164.275C170.604 163.627 170.675 163.055 170.861 162.56C171.058 162.074 171.314 161.688 171.63 161.404C171.946 161.119 172.355 160.881 172.856 160.689C173.368 160.506 173.852 160.378 174.309 160.304C174.776 160.229 175.312 160.171 175.918 160.129C176.44 160.092 176.896 160.071 177.284 160.065C177.672 160.069 178.109 160.091 178.595 160.131C179.092 160.18 179.513 160.277 179.859 160.421C180.215 160.564 180.554 160.755 180.875 160.995C181.196 161.235 181.45 161.559 181.636 161.966C181.822 162.383 181.935 162.868 181.973 163.422ZM180.655 164.38C180.762 164.121 180.805 163.829 180.782 163.505C180.76 163.181 180.677 162.898 180.534 162.656C180.402 162.414 180.252 162.22 180.084 162.074C179.917 161.928 179.672 161.809 179.351 161.716C179.04 161.622 178.778 161.556 178.566 161.518C178.354 161.491 178.048 161.476 177.649 161.472C177.261 161.468 176.983 161.471 176.816 161.483C176.659 161.494 176.393 161.513 176.017 161.539C175.651 161.564 175.348 161.591 175.109 161.618C174.869 161.645 174.558 161.693 174.174 161.762C173.791 161.83 173.472 161.926 173.218 162.049C172.975 162.171 172.728 162.319 172.478 162.494C172.238 162.668 172.06 162.896 171.943 163.177C171.837 163.468 171.797 163.796 171.823 164.161C171.844 164.475 171.921 164.748 172.053 164.98C172.185 165.222 172.335 165.417 172.503 165.562C172.67 165.708 172.899 165.823 173.188 165.908C173.489 166.003 173.745 166.069 173.958 166.106C174.181 166.143 174.47 166.16 174.827 166.156C175.195 166.162 175.462 166.159 175.629 166.147C175.808 166.145 176.064 166.133 176.398 166.109C176.764 166.084 177.025 166.066 177.182 166.055C177.338 166.044 177.609 166.009 177.993 165.951C178.377 165.893 178.672 165.83 178.877 165.763C179.083 165.707 179.334 165.611 179.629 165.475C179.924 165.339 180.144 165.187 180.29 165.019C180.436 164.852 180.557 164.639 180.655 164.38Z" fill="black"/>
</svg>
