<svg width="147" height="269" viewBox="0 0 147 269" fill="none" xmlns="http://www.w3.org/2000/svg">
<path d="M91.3459 82.8359L93.232 86.7262C93.6373 87.5623 93.7889 88.3423 93.6868 89.0661C93.5888 89.7985 93.1474 90.355 92.3625 90.7355C91.9103 90.9547 91.4451 91.0275 90.9668 90.9538C90.5012 90.8845 90.0966 90.6803 89.7531 90.3411C89.8981 90.9662 89.8425 91.5253 89.5863 92.0183C89.3342 92.5198 88.9053 92.9174 88.2996 93.2111C86.5848 94.0424 85.169 93.3064 84.0522 91.0029L82.2344 87.2534L91.3459 82.8359ZM90.8929 84.5096L88.0136 85.9056L89.0621 88.0683C89.182 88.3157 89.2876 88.5226 89.3789 88.6891C89.4828 88.86 89.6141 89.044 89.7729 89.2409C89.9316 89.4379 90.0889 89.5777 90.2448 89.6602C90.4134 89.747 90.6142 89.7919 90.8474 89.7947C91.0847 89.8061 91.3356 89.7477 91.6001 89.6195C91.8646 89.4912 92.0657 89.341 92.2035 89.1689C92.3498 88.9926 92.441 88.8219 92.4769 88.657C92.5214 88.4879 92.5175 88.2843 92.4653 88.0462C92.4172 87.8167 92.3561 87.6145 92.2819 87.4397C92.2204 87.2694 92.1255 87.052 91.9973 86.7875L90.8929 84.5096ZM87.0666 86.3647L83.8161 87.9406L84.9825 90.3464C85.1273 90.645 85.2495 90.8861 85.349 91.0696C85.457 91.2491 85.5968 91.4395 85.7682 91.6409C85.9437 91.8508 86.12 91.9971 86.2971 92.0798C86.4827 92.1584 86.7049 92.193 86.9637 92.1834C87.231 92.1697 87.5182 92.0884 87.8254 91.9395C88.0813 91.8154 88.2866 91.6738 88.4412 91.5145C88.5999 91.3638 88.6975 91.1848 88.734 90.9774C88.7746 90.7786 88.7959 90.5944 88.798 90.4248C88.8042 90.2638 88.7601 90.0533 88.6657 89.7935C88.5714 89.5337 88.4911 89.3355 88.4249 89.199C88.3673 89.0584 88.2702 88.8473 88.1337 88.5658L87.0666 86.3647Z" fill="black"/>
<path d="M99.4398 99.5306L100.023 100.733L90.9115 105.151L90.3283 103.948L99.4398 99.5306ZM92.4763 101.5C91.6232 101.914 90.8378 101.989 90.1201 101.726C89.4151 101.467 88.8475 100.894 88.4174 100.007L86.4816 96.0139L95.5931 91.5964L96.1763 92.7993L92.478 94.5924L93.8305 97.3821C94.2648 98.2779 94.361 99.0848 94.119 99.8027C93.8855 100.516 93.338 101.082 92.4763 101.5ZM91.8869 100.284C93.0045 99.7424 93.2407 98.8061 92.5954 97.4752L91.4414 95.0949L88.1142 96.708L89.2682 99.0883C89.9135 100.419 90.7863 100.818 91.8869 100.284Z" fill="black"/>
<path d="M91.8862 107.161L100.998 102.744L101.581 103.947L93.5187 107.855L95.4793 111.899L103.541 107.991L104.125 109.194L96.0625 113.102L98.023 117.146L106.085 113.237L106.668 114.44L97.5569 118.858L91.8862 107.161Z" fill="black"/>
<path d="M110.914 123.197L101.802 127.614L101.219 126.411L109.281 122.502L107.649 119.137L102.431 121.446C101.459 121.875 100.604 122.047 99.8676 121.961C99.1349 121.884 98.6073 121.513 98.2847 120.848C98.1523 120.575 98.0714 120.256 98.0419 119.891L99.0657 119.394C99.0466 119.572 99.1094 119.811 99.2541 120.109C99.3741 120.357 99.5247 120.526 99.7059 120.617C99.8998 120.713 100.228 120.717 100.692 120.629C101.159 120.55 101.764 120.341 102.506 120.003L108.14 117.476L110.914 123.197Z" fill="black"/>
<path d="M102.792 129.656L111.904 125.239L112.487 126.442L104.77 130.183L104.783 130.208L114.665 130.933L115.403 132.456L106.291 136.874L105.708 135.671L113.45 131.917L113.438 131.891L103.524 131.166L102.792 129.656Z" fill="black"/>
<path d="M122.676 151.569L113.04 154.679L112.629 153.407L117.136 151.952L115.494 146.863L110.987 148.318L110.576 147.046L120.213 143.936L120.623 145.208L116.603 146.505L118.246 151.594L122.266 150.297L122.676 151.569Z" fill="black"/>
<path d="M124.671 157.75L116.249 164.622L115.79 163.201L118.396 161.18L117.09 157.133L113.785 156.989L113.349 155.636L124.208 156.315L124.671 157.75ZM119.289 160.473L123.213 157.398L118.223 157.171L119.289 160.473Z" fill="black"/>
<path d="M129.215 170.637L129.684 172.425L122.217 177.753L131.31 178.615L131.783 180.417L121.99 182.989L121.668 181.765L129.839 179.619L120.862 178.697L120.566 177.569L127.917 172.301L119.746 174.447L119.421 173.209L129.215 170.637Z" fill="black"/>
<path d="M122.564 185.177L132.358 182.605L132.698 183.898L124.403 186.077L124.411 186.104L133.966 188.726L134.396 190.363L124.602 192.935L124.262 191.642L132.584 189.457L132.577 189.429L122.991 186.8L122.564 185.177Z" fill="black"/>
<path d="M136.75 199.327L135.622 199.623L134.759 196.336L126.093 198.612L125.753 197.319L134.419 195.043L133.556 191.755L134.684 191.459L136.75 199.327Z" fill="black"/>
<path d="M127.246 203.003L137.04 200.43L137.38 201.723L129.085 203.902L129.092 203.929L138.648 206.551L139.078 208.188L129.284 210.761L128.944 209.468L137.266 207.282L137.259 207.254L127.673 204.626L127.246 203.003Z" fill="black"/>
<path d="M141.685 218.115L131.891 220.687L131.552 219.394L136.132 218.191L134.774 213.019L130.193 214.222L129.854 212.929L139.647 210.357L139.987 211.65L135.902 212.723L137.26 217.895L141.345 216.822L141.685 218.115Z" fill="black"/>
<path d="M132.8 224.149L132.461 222.856L142.255 220.284L143.945 226.721L142.817 227.018L141.466 221.873L132.8 224.149Z" fill="black"/>
<path d="M12.3925 16.6606L11.0368 15.6715L11.017 9.42506L9.31428 9.73199L7.08463 12.7881L6.02764 12.0169L8.25729 8.96083L8.02984 7.2457L2.07543 9.13345L0.719727 8.14436L7.87075 5.96774L7.05546 0.232422L8.41116 1.22151L9.22124 7.6396L11.9957 3.83674L13.0527 4.6079L10.2782 8.41076L16.6373 7.22313L17.993 8.21222L12.2825 9.18648L12.3925 16.6606Z" fill="black"/>
<path d="M24.8404 13.208L24.1531 14.1501L19.569 10.8056L17.6998 13.3676L21.9852 16.4942L21.323 17.4018L17.0376 14.2753L14.9756 17.1016L19.6171 20.488L18.9298 21.43L13.2083 17.2557L19.1763 9.07558L24.8404 13.208Z" fill="black"/>
<path d="M29.4145 24.3439C28.5682 25.3108 27.6186 25.8562 26.5659 25.9801C25.5264 26.1019 24.4973 25.7912 23.4786 25.048C22.3143 24.1986 21.6708 23.1423 21.5479 21.879C21.4307 20.6081 21.8498 19.3178 22.8054 18.008C23.6994 16.7825 24.7835 16.0125 26.0575 15.698C27.3448 15.3813 28.5935 15.6645 29.8037 16.5474C30.6692 17.1789 31.2609 17.9685 31.5787 18.9163C31.8965 19.8641 31.792 20.7795 31.265 21.6626L30.1851 20.8747C30.4537 20.2491 30.4902 19.6361 30.2945 19.0356C30.1044 18.4275 29.7068 17.9027 29.1018 17.4612C28.1903 16.7963 27.2663 16.615 26.3296 16.9175C25.4007 17.2256 24.5925 17.8507 23.9052 18.7928C23.1452 19.8345 22.7924 20.8329 22.8467 21.7879C22.901 22.743 23.3533 23.5307 24.2035 24.1509C24.9005 24.6595 25.6011 24.8655 26.3053 24.7689C27.015 24.6647 27.6914 24.2604 28.3345 23.5559L29.4145 24.3439Z" fill="black"/>
<path d="M39.9649 24.2425L39.2775 25.1846L36.5317 23.1812L31.2509 30.4193L30.171 29.6314L35.4517 22.3933L32.7058 20.39L33.3932 19.4479L39.9649 24.2425Z" fill="black"/>
<path d="M42.7877 35.1218C42.2289 35.8877 41.5709 36.3231 40.8137 36.4279C40.0698 36.5306 39.2996 36.2914 38.503 35.7103L34.9184 33.095L40.8865 24.9149L41.9665 25.7028L39.544 29.0231L42.0486 30.8504C42.8529 31.4372 43.3168 32.1043 43.4404 32.8517C43.5697 33.5915 43.3521 34.3482 42.7877 35.1218ZM41.6963 34.3255C42.4283 33.3221 42.1969 32.3845 41.002 31.5128L38.8651 29.9537L36.6857 32.9409L38.8227 34.4999C40.0175 35.3717 40.9754 35.3135 41.6963 34.3255Z" fill="black"/>
<path d="M49.4623 31.1716L47.635 33.6762L44.6907 37.1087L44.1622 36.7231L46.555 32.8883L48.3824 30.3837L49.4623 31.1716ZM44.3983 38.2333L43.5517 39.3937L42.3453 38.5136L43.1919 37.3532L44.3983 38.2333Z" fill="black"/>
<path d="M57.4269 39.6482C58.3879 40.8464 58.7581 42.0809 58.5375 43.3516C58.3244 44.6164 57.6113 45.7352 56.3983 46.708C55.1779 47.6867 53.908 48.1643 52.5887 48.1408C51.2693 48.1172 50.1262 47.5026 49.1593 46.297C48.667 45.6831 48.336 45.0431 48.1664 44.377C47.9968 43.7109 47.9834 43.0653 48.1263 42.4403C48.2751 41.8226 48.5357 41.2308 48.9082 40.6647C49.2866 40.106 49.7679 39.5924 50.3522 39.1238C51.5874 38.1331 52.844 37.6844 54.1219 37.7776C55.4058 37.8783 56.5075 38.5018 57.4269 39.6482ZM56.5172 40.3778C55.8113 39.4977 54.9579 39.07 53.957 39.0949C52.9694 39.1213 52.0207 39.4993 51.1109 40.2289C50.1198 41.0238 49.5271 41.9063 49.3329 42.8764C49.1519 43.8479 49.3966 44.7516 50.0669 45.5874C50.7313 46.4158 51.558 46.8405 52.5471 46.8615C53.5363 46.8825 54.5227 46.4985 55.5064 45.7096C56.4827 44.9266 57.0614 44.0493 57.2423 43.0778C57.4292 42.1136 57.1875 41.2136 56.5172 40.3778Z" fill="black"/>
<path d="M61.3381 44.9114L62.4948 46.3537L57.8424 54.2597L66.4988 51.3462L67.6644 52.7996L59.7651 59.1348L58.9732 58.1474L65.5633 52.8621L56.989 55.6733L56.2594 54.7636L60.8297 46.9599L54.2396 52.2451L53.4388 51.2466L61.3381 44.9114Z" fill="black"/>
<path d="M61.1807 60.8999L69.0799 54.5647L69.9163 55.6076L63.2263 60.9729L63.2441 60.9951L73.0394 59.5017L74.0983 60.822L66.199 67.1571L65.3626 66.1143L72.0748 60.7311L72.057 60.709L62.2306 62.209L61.1807 60.8999Z" fill="black"/>
<path d="M72.1398 74.5647L71.3034 73.5218L74.8204 70.7013C73.9889 70.0434 73.3092 69.3853 72.7813 68.727C72.4135 68.2684 72.1427 67.8171 71.9689 67.3731C71.8085 66.9306 71.7325 66.5479 71.741 66.2251C71.7628 65.9038 71.8409 65.592 71.9753 65.2898C72.1097 64.9875 72.2545 64.7438 72.4097 64.5585C72.5724 64.3673 72.7572 64.1887 72.9643 64.0226L75.2165 62.2163L76.0529 63.2592L73.8895 64.9943C73.7342 65.1188 73.5996 65.2389 73.4857 65.3546C73.3851 65.4717 73.2839 65.6258 73.182 65.8169C73.0874 66.0021 73.0358 66.1954 73.0272 66.3968C73.0186 66.5982 73.0662 66.8395 73.1702 67.1207C73.2816 67.396 73.4589 67.6852 73.7021 67.9885C74.236 68.6541 74.912 69.3152 75.7301 69.9716L79.2027 67.1867L80.0391 68.2295L72.1398 74.5647Z" fill="black"/>
<path d="M73.5367 76.3065L81.436 69.9713L82.2723 71.0142L75.5824 76.3795L75.6002 76.4017L85.3954 74.9083L86.4543 76.2286L78.555 82.5638L77.7186 81.5209L84.4308 76.1378L84.413 76.1156L74.5866 77.6156L73.5367 76.3065Z" fill="black"/>
<path d="M144.741 234.664L145.042 238.977C145.106 239.904 144.956 240.684 144.592 241.318C144.228 241.961 143.611 242.313 142.741 242.374C142.24 242.409 141.781 242.303 141.364 242.056C140.958 241.818 140.659 241.478 140.466 241.035C140.368 241.669 140.108 242.168 139.687 242.53C139.266 242.901 138.72 243.11 138.048 243.157C136.147 243.29 135.108 242.079 134.93 239.525L134.64 235.368L144.741 234.664ZM143.697 236.048L140.505 236.271L140.672 238.669C140.691 238.943 140.712 239.174 140.735 239.363C140.768 239.56 140.821 239.78 140.895 240.022C140.969 240.264 141.063 240.452 141.176 240.587C141.301 240.73 141.47 240.847 141.686 240.936C141.902 241.035 142.156 241.074 142.449 241.054C142.743 241.033 142.985 240.969 143.177 240.861C143.379 240.751 143.527 240.627 143.622 240.487C143.726 240.347 143.798 240.157 143.838 239.916C143.879 239.685 143.898 239.475 143.894 239.285C143.901 239.104 143.894 238.867 143.873 238.574L143.697 236.048ZM139.455 236.344L135.851 236.596L136.037 239.263C136.061 239.594 136.084 239.863 136.108 240.07C136.141 240.277 136.2 240.506 136.284 240.757C136.369 241.017 136.478 241.218 136.611 241.361C136.754 241.503 136.948 241.618 137.191 241.706C137.445 241.793 137.741 241.824 138.082 241.8C138.366 241.781 138.609 241.726 138.812 241.635C139.015 241.555 139.173 241.425 139.284 241.246C139.395 241.077 139.484 240.914 139.549 240.757C139.615 240.61 139.652 240.398 139.661 240.122C139.671 239.846 139.67 239.632 139.659 239.481C139.658 239.329 139.647 239.097 139.625 238.784L139.455 236.344Z" fill="black"/>
<path d="M140.39 252.416L139.199 252.499L138.911 248.37L140.102 248.287L140.39 252.416Z" fill="black"/>
<path d="M142.74 253.601C143.782 253.557 144.606 253.79 145.212 254.299C145.818 254.817 146.156 255.573 146.225 256.566C146.287 257.455 146.096 258.186 145.651 258.759C145.207 259.331 144.592 259.645 143.807 259.7C143.334 259.733 142.9 259.64 142.504 259.42C142.119 259.209 141.821 258.893 141.611 258.47C141.518 259.047 141.266 259.516 140.854 259.877C140.442 260.239 139.928 260.441 139.314 260.484C138.387 260.558 137.613 260.289 136.99 259.676C136.378 259.073 136.036 258.255 135.964 257.224C135.893 256.203 136.115 255.365 136.63 254.712C137.155 254.067 137.896 253.711 138.851 253.644L139.035 253.632L139.118 254.823C138.402 254.902 137.862 255.144 137.501 255.549C137.14 255.954 136.982 256.493 137.029 257.164C137.074 257.808 137.29 258.315 137.677 258.687C138.074 259.068 138.561 259.239 139.138 259.199C139.725 259.158 140.179 258.922 140.5 258.491C140.823 258.069 140.96 257.518 140.913 256.837C140.901 256.666 140.867 256.45 140.81 256.188L141.832 256.117C141.832 256.25 141.836 256.387 141.846 256.529C141.89 257.153 142.071 257.635 142.389 257.974C142.717 258.322 143.137 258.478 143.648 258.442C144.139 258.408 144.525 258.219 144.806 257.877C145.087 257.544 145.209 257.112 145.172 256.582C145.129 255.977 144.903 255.518 144.491 255.204C144.089 254.89 143.533 254.748 142.822 254.779L142.74 253.601Z" fill="black"/>
<path d="M146.781 264.534C146.823 265.14 146.746 265.663 146.548 266.105C146.361 266.555 146.115 266.905 145.809 267.154C145.503 267.404 145.095 267.613 144.584 267.781C144.082 267.949 143.625 268.062 143.21 268.119C142.806 268.176 142.315 268.225 141.738 268.265C141.208 268.302 140.729 268.311 140.3 268.294C139.872 268.286 139.421 268.227 138.948 268.117C138.475 268.017 138.074 267.86 137.746 267.645C137.427 267.43 137.154 267.126 136.927 266.733C136.7 266.34 136.567 265.864 136.528 265.306C136.487 264.72 136.551 264.202 136.719 263.753C136.897 263.313 137.129 262.964 137.416 262.707C137.702 262.449 138.072 262.233 138.525 262.059C138.989 261.894 139.428 261.778 139.841 261.711C140.264 261.643 140.75 261.591 141.298 261.552C141.771 261.519 142.183 261.5 142.535 261.495C142.887 261.499 143.282 261.518 143.722 261.554C144.172 261.599 144.553 261.686 144.867 261.817C145.189 261.946 145.496 262.12 145.787 262.337C146.078 262.554 146.307 262.847 146.475 263.216C146.644 263.594 146.746 264.033 146.781 264.534ZM145.587 265.402C145.685 265.167 145.723 264.903 145.703 264.61C145.682 264.316 145.608 264.06 145.478 263.841C145.358 263.621 145.223 263.446 145.071 263.314C144.919 263.182 144.698 263.074 144.407 262.989C144.125 262.904 143.888 262.845 143.696 262.811C143.504 262.786 143.227 262.772 142.866 262.769C142.514 262.765 142.262 262.768 142.111 262.779C141.969 262.789 141.728 262.805 141.387 262.829C141.056 262.852 140.782 262.876 140.566 262.901C140.349 262.925 140.067 262.969 139.719 263.031C139.372 263.093 139.083 263.18 138.854 263.291C138.633 263.401 138.41 263.536 138.183 263.694C137.966 263.852 137.805 264.058 137.699 264.312C137.603 264.576 137.567 264.873 137.59 265.204C137.61 265.488 137.679 265.735 137.798 265.945C137.918 266.165 138.054 266.341 138.206 266.473C138.357 266.604 138.564 266.709 138.826 266.786C139.098 266.871 139.331 266.931 139.523 266.965C139.725 266.999 139.987 267.014 140.31 267.01C140.643 267.015 140.886 267.013 141.037 267.002C141.198 267 141.43 266.989 141.733 266.968C142.064 266.945 142.301 266.928 142.442 266.918C142.584 266.909 142.829 266.877 143.177 266.824C143.525 266.772 143.792 266.715 143.978 266.655C144.164 266.603 144.391 266.516 144.658 266.393C144.925 266.27 145.125 266.133 145.257 265.981C145.389 265.829 145.499 265.636 145.587 265.402Z" fill="black"/>
</svg>
