<svg width="552" height="335" viewBox="0 0 552 335" fill="none" xmlns="http://www.w3.org/2000/svg">
<rect x="25.4351" y="103" width="530.102" height="97.4175" transform="rotate(7.33364 25.4351 103)" fill="white"/>
<mask id="path-2-outside-1" maskUnits="userSpaceOnUse" x="31.1377" y="125.277" width="504" height="119" fill="black">
<rect fill="white" x="31.1377" y="125.277" width="504" height="119"/>
<path d="M51.0026 128.277L72.7395 130.941C76.2678 131.373 79.2141 132.067 81.5784 133.022C83.9427 133.976 85.8163 135.178 87.1992 136.626C88.5853 138.05 89.5089 139.698 89.9701 141.57C90.4313 143.443 90.5229 145.514 90.245 147.782C90.069 149.218 89.7116 150.569 89.173 151.833C88.6627 153.075 87.9616 154.204 87.0696 155.22C86.206 156.215 85.142 157.069 83.8777 157.784C82.6417 158.477 81.21 158.992 79.5826 159.33C80.5449 160.036 81.4002 160.78 82.1485 161.563C82.8998 162.32 83.5113 163.175 83.9829 164.128C84.4575 165.056 84.7797 166.08 84.9493 167.201C85.1441 168.325 85.1582 169.567 84.9914 170.928C84.6487 173.725 83.8893 176.165 82.7134 178.246C81.5405 180.303 79.9794 181.979 78.0299 183.275C76.0805 184.571 73.771 185.464 71.1016 185.956C68.4353 186.422 65.4261 186.45 62.0743 186.039L34.1377 182.616L51.0026 128.277ZM48.621 174.644L62.8728 176.391C64.6369 176.607 66.1563 176.524 67.4308 176.143C68.7054 175.762 69.7701 175.215 70.625 174.501C71.4799 173.787 72.1298 172.972 72.5748 172.054C73.0198 171.137 73.2963 170.237 73.4044 169.355C73.5495 168.17 73.4714 167.137 73.1701 166.256C72.8719 165.35 72.3913 164.575 71.7284 163.931C71.0906 163.29 70.2832 162.782 69.306 162.406C68.3288 162.031 67.2353 161.769 66.0256 161.621L53.1725 160.046L48.621 174.644ZM55.919 151.096L69.3014 152.736C72.0484 153.073 74.2128 152.737 75.7944 151.728C77.3792 150.695 78.312 149.031 78.5931 146.738C78.7197 145.705 78.6357 144.824 78.341 144.098C78.0716 143.374 77.6339 142.77 77.0281 142.287C76.4474 141.806 75.7253 141.437 74.8618 141.177C74.0013 140.893 73.067 140.689 72.059 140.565L59.6595 139.046L55.919 151.096Z"/>
<path d="M100.697 150.789C101.356 148.542 102.319 146.422 103.587 144.428C104.854 142.435 106.469 140.74 108.431 139.343C110.396 137.921 112.722 136.889 115.41 136.246C118.126 135.581 121.223 135.462 124.701 135.888C127.826 136.271 130.448 137.002 132.567 138.08C134.715 139.136 136.414 140.406 137.664 141.889C138.918 143.347 139.771 144.948 140.222 146.692C140.674 148.436 140.794 150.164 140.584 151.878C140.384 153.516 139.965 155.051 139.33 156.482C138.697 157.888 137.854 159.128 136.802 160.202C135.749 161.275 134.478 162.155 132.986 162.842C131.521 163.532 129.829 163.977 127.911 164.177L127.893 164.328C129.05 164.905 130.069 165.567 130.949 166.314C131.833 167.037 132.547 167.891 133.091 168.879C133.663 169.845 134.052 170.954 134.256 172.207C134.461 173.46 134.464 174.893 134.267 176.505C134.094 177.917 133.738 179.357 133.2 180.826C132.662 182.295 131.927 183.701 130.995 185.045C130.088 186.392 128.962 187.648 127.617 188.813C126.3 189.957 124.75 190.918 122.966 191.697C121.208 192.479 119.211 193.015 116.975 193.303C114.737 193.618 112.269 193.609 109.573 193.279C106.271 192.874 103.425 192.091 101.035 190.928C98.6676 189.794 96.7446 188.369 95.2665 186.653C93.7916 184.912 92.7664 182.944 92.191 180.751C91.6188 178.532 91.487 176.162 91.7959 173.642L91.9256 172.583L102.586 173.89C102.521 175.672 102.655 177.185 102.989 178.429C103.326 179.646 103.854 180.658 104.574 181.462C105.297 182.241 106.22 182.853 107.342 183.298C108.493 183.72 109.837 184.026 111.374 184.214C113.113 184.427 114.65 184.308 115.984 183.858C117.318 183.407 118.446 182.765 119.366 181.932C120.315 181.076 121.051 180.079 121.575 178.941C122.123 177.806 122.467 176.671 122.606 175.537C122.782 174.1 122.7 172.888 122.361 171.9C122.021 170.912 121.506 170.107 120.815 169.485C120.152 168.841 119.343 168.346 118.388 167.998C117.458 167.654 116.476 167.419 115.443 167.292L112.267 166.903L114.638 158.829C115.186 158.947 115.747 159.067 116.321 159.188C116.923 159.288 117.501 159.371 118.055 159.439C119.517 159.618 120.89 159.582 122.174 159.33C123.458 159.078 124.601 158.63 125.601 157.985C126.6 157.34 127.42 156.494 128.06 155.447C128.703 154.374 129.113 153.12 129.289 151.684C129.561 149.466 129.103 147.772 127.916 146.604C126.754 145.438 125.039 144.716 122.771 144.439C121.208 144.247 119.804 144.331 118.558 144.69C117.34 145.027 116.264 145.56 115.33 146.29C114.397 147.019 113.586 147.892 112.899 148.908C112.215 149.898 111.638 150.953 111.169 152.072L100.697 150.789Z"/>
<path d="M143.227 172.27C143.552 169.624 144.142 166.997 144.999 164.391C145.858 161.759 146.983 159.262 148.372 156.9C149.762 154.537 151.396 152.371 153.274 150.402C155.178 148.435 157.325 146.78 159.715 145.435C162.105 144.091 164.742 143.135 167.625 142.568C170.512 141.975 173.631 141.884 176.983 142.294C180.058 142.671 182.747 143.372 185.052 144.396C187.382 145.423 189.366 146.664 191.004 148.118C192.642 149.572 193.976 151.207 195.008 153.021C196.067 154.814 196.875 156.678 197.43 158.613C197.989 160.524 198.315 162.457 198.408 164.412C198.526 166.371 198.476 168.245 198.256 170.034C197.932 172.68 197.34 175.319 196.481 177.951C195.624 180.558 194.501 183.042 193.112 185.404C191.722 187.766 190.076 189.931 188.172 191.898C186.293 193.867 184.159 195.524 181.769 196.869C179.379 198.213 176.742 199.169 173.858 199.736C170.972 200.329 167.853 200.42 164.501 200.009C161.401 199.63 158.699 198.928 156.394 197.903C154.089 196.879 152.105 195.638 150.442 194.181C148.804 192.727 147.455 191.104 146.396 189.311C145.365 187.496 144.571 185.621 144.016 183.686C143.485 181.753 143.159 179.821 143.038 177.887C142.945 175.932 143.008 174.059 143.227 172.27ZM154.768 174.221C154.456 176.767 154.539 179.015 155.016 180.966C155.496 182.893 156.269 184.522 157.333 185.855C158.398 187.188 159.676 188.24 161.167 189.011C162.687 189.76 164.316 190.241 166.055 190.454C168.424 190.744 170.553 190.596 172.441 190.008C174.329 189.421 176.01 188.54 177.485 187.365C178.959 186.19 180.229 184.798 181.296 183.189C182.388 181.583 183.297 179.904 184.024 178.151C184.775 176.402 185.36 174.657 185.778 172.918C186.224 171.156 186.537 169.544 186.716 168.083C187.031 165.512 186.948 163.264 186.468 161.337C185.988 159.411 185.215 157.782 184.151 156.449C183.086 155.116 181.794 154.075 180.274 153.326C178.783 152.555 177.167 152.063 175.428 151.85C173.059 151.56 170.931 151.708 169.043 152.296C167.155 152.883 165.473 153.764 163.999 154.939C162.528 156.089 161.245 157.479 160.15 159.11C159.083 160.719 158.174 162.398 157.422 164.148C156.696 165.901 156.11 167.658 155.663 169.419C155.246 171.159 154.947 172.759 154.768 174.221Z"/>
<path d="M214.539 148.316L233.668 150.66C237.272 151.102 240.254 151.915 242.616 153.099C245.006 154.262 246.879 155.681 248.234 157.356C249.617 159.009 250.53 160.848 250.973 162.872C251.444 164.874 251.55 166.933 251.29 169.05C250.904 172.2 250.08 174.964 248.816 177.342C247.578 179.723 245.907 181.667 243.804 183.174C241.701 184.681 239.181 185.728 236.244 186.315C233.332 186.905 230.011 186.971 226.281 186.514L215.129 185.148L209.28 204.077L197.674 202.655L214.539 148.316ZM218.083 175.763L228.403 177.028C230.243 177.253 231.849 177.194 233.221 176.851C234.593 176.507 235.748 175.958 236.685 175.203C237.646 174.451 238.398 173.533 238.941 172.448C239.486 171.338 239.837 170.141 239.995 168.856C240.121 167.822 240.114 166.837 239.973 165.898C239.861 164.938 239.544 164.081 239.022 163.326C238.504 162.546 237.753 161.892 236.769 161.362C235.81 160.835 234.562 160.477 233.025 160.289L223.272 159.094L218.083 175.763Z"/>
<path d="M266.178 154.644L287.915 157.307C291.444 157.739 294.39 158.433 296.754 159.388C299.119 160.343 300.992 161.544 302.375 162.993C303.761 164.416 304.685 166.064 305.146 167.937C305.607 169.809 305.699 171.88 305.421 174.148C305.245 175.585 304.887 176.935 304.349 178.199C303.839 179.441 303.137 180.57 302.245 181.587C301.382 182.581 300.318 183.435 299.054 184.15C297.818 184.843 296.386 185.358 294.758 185.696C295.721 186.402 296.576 187.146 297.324 187.929C298.076 188.686 298.687 189.541 299.159 190.494C299.633 191.422 299.955 192.446 300.125 193.567C300.32 194.691 300.334 195.933 300.167 197.294C299.824 200.092 299.065 202.531 297.889 204.613C296.716 206.669 295.155 208.345 293.206 209.641C291.256 210.937 288.947 211.83 286.277 212.322C283.611 212.788 280.602 212.816 277.25 212.405L249.314 208.982L266.178 154.644ZM263.797 201.011L278.049 202.757C279.813 202.973 281.332 202.891 282.607 202.51C283.881 202.129 284.946 201.581 285.801 200.867C286.656 200.154 287.306 199.338 287.751 198.42C288.196 197.503 288.472 196.603 288.58 195.721C288.725 194.536 288.647 193.504 288.346 192.623C288.048 191.716 287.567 190.941 286.904 190.297C286.266 189.656 285.459 189.148 284.482 188.772C283.505 188.397 282.411 188.135 281.201 187.987L268.348 186.412L263.797 201.011ZM271.095 177.463L284.477 179.102C287.224 179.439 289.389 179.103 290.97 178.095C292.555 177.061 293.488 175.397 293.769 173.104C293.896 172.071 293.811 171.191 293.517 170.464C293.247 169.74 292.81 169.137 292.204 168.653C291.623 168.173 290.901 167.803 290.038 167.544C289.177 167.259 288.243 167.055 287.235 166.931L274.835 165.412L271.095 177.463Z"/>
<path d="M342.215 175.74L342.064 175.722L327.662 197.747L341.611 199.456L342.215 175.74ZM338.685 163.528L352.256 165.191L352.478 221.623L341.024 220.22L341.342 209.17L321.76 206.77L315.091 217.042L302.767 215.532L338.685 163.528Z"/>
<path d="M405.483 181.421L389.455 179.457L379.423 207.466C378.415 210.259 377.329 212.761 376.163 214.971C375.025 217.159 373.702 218.98 372.194 220.432C370.714 221.862 369.001 222.893 367.057 223.525C365.137 224.159 362.905 224.321 360.359 224.009C359.074 223.851 357.903 223.593 356.847 223.233C355.788 222.899 354.672 222.404 353.499 221.748L356.348 211.967C357.095 212.34 357.826 212.635 358.542 212.85C359.285 213.044 359.834 213.162 360.186 213.205C360.741 213.273 361.261 213.311 361.746 213.32C362.234 213.303 362.711 213.169 363.176 212.919C363.642 212.669 364.1 212.265 364.553 211.707C365.033 211.126 365.555 210.307 366.12 209.251C366.687 208.169 367.301 206.812 367.962 205.179C368.65 203.524 369.434 201.51 370.314 199.136L381.365 168.758L420 173.492L403.097 227.826L391.491 226.404L405.483 181.421Z"/>
<path d="M460.169 197.331C460.37 195.693 460.284 194.198 459.912 192.848C459.544 191.473 458.947 190.287 458.123 189.291C457.327 188.272 456.326 187.459 455.122 186.851C453.946 186.221 452.639 185.818 451.203 185.642C448.834 185.351 446.705 185.5 444.817 186.087C442.929 186.674 441.248 187.555 439.774 188.731C438.302 189.881 437.019 191.271 435.924 192.902C434.857 194.511 433.948 196.19 433.196 197.939C432.47 199.692 431.884 201.449 431.438 203.211C431.02 204.95 430.722 206.551 430.542 208.013C430.305 209.953 430.308 211.808 430.551 213.578C430.82 215.35 431.392 216.942 432.268 218.354C433.169 219.769 434.405 220.957 435.976 221.916C437.572 222.879 439.567 223.508 441.961 223.801C443.397 223.977 444.805 223.97 446.184 223.781C447.591 223.57 448.911 223.131 450.144 222.463C451.38 221.77 452.507 220.821 453.525 219.616C454.542 218.41 455.393 216.89 456.079 215.056L467.873 216.501C466.703 219.581 465.232 222.291 463.462 224.632C461.716 226.976 459.677 228.901 457.344 230.405C455.039 231.888 452.456 232.927 449.595 233.523C446.734 234.119 443.627 234.212 440.275 233.801C437.2 233.424 434.498 232.722 432.168 231.695C429.864 230.671 427.892 229.431 426.254 227.977C424.616 226.523 423.268 224.9 422.208 223.107C421.177 221.293 420.384 219.418 419.828 217.482C419.272 215.547 418.933 213.612 418.812 211.679C418.719 209.723 418.782 207.851 419.002 206.061C419.326 203.415 419.916 200.789 420.773 198.182C421.633 195.55 422.757 193.053 424.147 190.691C425.536 188.329 427.17 186.163 429.048 184.193C430.952 182.227 433.099 180.571 435.489 179.227C437.88 177.883 440.516 176.927 443.4 176.359C446.286 175.766 449.406 175.675 452.757 176.086C455.908 176.472 458.741 177.254 461.257 178.432C463.798 179.613 465.91 181.164 467.594 183.084C469.277 185.004 470.495 187.277 471.248 189.901C472 192.526 472.176 195.476 471.775 198.753L460.169 197.331Z"/>
<path d="M514.994 241.537L503.351 240.11L510.026 218.519L499.403 217.218C498.017 217.048 496.875 216.972 495.977 216.99C495.105 217.011 494.337 217.224 493.674 217.629C493.013 218.008 492.401 218.624 491.836 219.475C491.274 220.302 490.636 221.439 489.921 222.886L484.943 232.828C484.539 233.623 484.176 234.282 483.856 234.805C483.565 235.307 483.309 235.723 483.089 236.054C482.87 236.385 482.658 236.654 482.454 236.859C482.275 237.067 482.096 237.275 481.917 237.484L469.064 235.909L469.574 234.245C470.015 234.196 470.385 234.101 470.684 233.959C471.008 233.819 471.305 233.587 471.575 233.262C471.873 232.915 472.173 232.453 472.474 231.876C472.778 231.273 473.154 230.501 473.602 229.558L478.095 220.132C478.888 218.464 479.574 217.142 480.155 216.164C480.735 215.186 481.341 214.416 481.973 213.854C482.629 213.295 483.381 212.901 484.228 212.672C485.077 212.418 486.164 212.219 487.486 212.074C486.174 211.504 485.093 210.834 484.24 210.065C483.388 209.295 482.706 208.495 482.194 207.665C481.685 206.81 481.314 205.971 481.082 205.15C480.853 204.303 480.694 203.516 480.604 202.789C480.542 202.04 480.533 201.386 480.576 200.829C480.618 200.271 480.655 199.867 480.686 199.614C480.865 198.153 481.18 196.733 481.63 195.356C482.083 193.953 482.678 192.645 483.416 191.431C484.156 190.191 485.022 189.069 486.015 188.066C487.036 187.04 488.191 186.171 489.481 185.459C490.387 184.956 491.319 184.546 492.279 184.229C493.239 183.911 494.316 183.685 495.509 183.55C496.702 183.415 498.05 183.375 499.552 183.431C501.08 183.491 502.839 183.642 504.83 183.886L531.859 187.198L514.994 241.537ZM517.305 195.123L504.906 193.603C504.25 193.523 503.505 193.445 502.671 193.368C501.836 193.291 500.979 193.289 500.101 193.36C499.225 193.406 498.35 193.555 497.475 193.806C496.629 194.035 495.839 194.424 495.107 194.974C494.399 195.526 493.784 196.27 493.26 197.203C492.762 198.14 492.426 199.314 492.253 200.725C492.062 202.287 492.241 203.537 492.791 204.474C493.342 205.412 494.058 206.139 494.941 206.656C495.828 207.149 496.783 207.496 497.807 207.698C498.834 207.875 499.713 208.008 500.444 208.098L512.843 209.617L517.305 195.123Z"/>
</mask>
<path d="M51.0026 128.277L72.7395 130.941C76.2678 131.373 79.2141 132.067 81.5784 133.022C83.9427 133.976 85.8163 135.178 87.1992 136.626C88.5853 138.05 89.5089 139.698 89.9701 141.57C90.4313 143.443 90.5229 145.514 90.245 147.782C90.069 149.218 89.7116 150.569 89.173 151.833C88.6627 153.075 87.9616 154.204 87.0696 155.22C86.206 156.215 85.142 157.069 83.8777 157.784C82.6417 158.477 81.21 158.992 79.5826 159.33C80.5449 160.036 81.4002 160.78 82.1485 161.563C82.8998 162.32 83.5113 163.175 83.9829 164.128C84.4575 165.056 84.7797 166.08 84.9493 167.201C85.1441 168.325 85.1582 169.567 84.9914 170.928C84.6487 173.725 83.8893 176.165 82.7134 178.246C81.5405 180.303 79.9794 181.979 78.0299 183.275C76.0805 184.571 73.771 185.464 71.1016 185.956C68.4353 186.422 65.4261 186.45 62.0743 186.039L34.1377 182.616L51.0026 128.277ZM48.621 174.644L62.8728 176.391C64.6369 176.607 66.1563 176.524 67.4308 176.143C68.7054 175.762 69.7701 175.215 70.625 174.501C71.4799 173.787 72.1298 172.972 72.5748 172.054C73.0198 171.137 73.2963 170.237 73.4044 169.355C73.5495 168.17 73.4714 167.137 73.1701 166.256C72.8719 165.35 72.3913 164.575 71.7284 163.931C71.0906 163.29 70.2832 162.782 69.306 162.406C68.3288 162.031 67.2353 161.769 66.0256 161.621L53.1725 160.046L48.621 174.644ZM55.919 151.096L69.3014 152.736C72.0484 153.073 74.2128 152.737 75.7944 151.728C77.3792 150.695 78.312 149.031 78.5931 146.738C78.7197 145.705 78.6357 144.824 78.341 144.098C78.0716 143.374 77.6339 142.77 77.0281 142.287C76.4474 141.806 75.7253 141.437 74.8618 141.177C74.0013 140.893 73.067 140.689 72.059 140.565L59.6595 139.046L55.919 151.096Z" fill="url(#paint0_linear)"/>
<path d="M100.697 150.789C101.356 148.542 102.319 146.422 103.587 144.428C104.854 142.435 106.469 140.74 108.431 139.343C110.396 137.921 112.722 136.889 115.41 136.246C118.126 135.581 121.223 135.462 124.701 135.888C127.826 136.271 130.448 137.002 132.567 138.08C134.715 139.136 136.414 140.406 137.664 141.889C138.918 143.347 139.771 144.948 140.222 146.692C140.674 148.436 140.794 150.164 140.584 151.878C140.384 153.516 139.965 155.051 139.33 156.482C138.697 157.888 137.854 159.128 136.802 160.202C135.749 161.275 134.478 162.155 132.986 162.842C131.521 163.532 129.829 163.977 127.911 164.177L127.893 164.328C129.05 164.905 130.069 165.567 130.949 166.314C131.833 167.037 132.547 167.891 133.091 168.879C133.663 169.845 134.052 170.954 134.256 172.207C134.461 173.46 134.464 174.893 134.267 176.505C134.094 177.917 133.738 179.357 133.2 180.826C132.662 182.295 131.927 183.701 130.995 185.045C130.088 186.392 128.962 187.648 127.617 188.813C126.3 189.957 124.75 190.918 122.966 191.697C121.208 192.479 119.211 193.015 116.975 193.303C114.737 193.618 112.269 193.609 109.573 193.279C106.271 192.874 103.425 192.091 101.035 190.928C98.6676 189.794 96.7446 188.369 95.2665 186.653C93.7916 184.912 92.7664 182.944 92.191 180.751C91.6188 178.532 91.487 176.162 91.7959 173.642L91.9256 172.583L102.586 173.89C102.521 175.672 102.655 177.185 102.989 178.429C103.326 179.646 103.854 180.658 104.574 181.462C105.297 182.241 106.22 182.853 107.342 183.298C108.493 183.72 109.837 184.026 111.374 184.214C113.113 184.427 114.65 184.308 115.984 183.858C117.318 183.407 118.446 182.765 119.366 181.932C120.315 181.076 121.051 180.079 121.575 178.941C122.123 177.806 122.467 176.671 122.606 175.537C122.782 174.1 122.7 172.888 122.361 171.9C122.021 170.912 121.506 170.107 120.815 169.485C120.152 168.841 119.343 168.346 118.388 167.998C117.458 167.654 116.476 167.419 115.443 167.292L112.267 166.903L114.638 158.829C115.186 158.947 115.747 159.067 116.321 159.188C116.923 159.288 117.501 159.371 118.055 159.439C119.517 159.618 120.89 159.582 122.174 159.33C123.458 159.078 124.601 158.63 125.601 157.985C126.6 157.34 127.42 156.494 128.06 155.447C128.703 154.374 129.113 153.12 129.289 151.684C129.561 149.466 129.103 147.772 127.916 146.604C126.754 145.438 125.039 144.716 122.771 144.439C121.208 144.247 119.804 144.331 118.558 144.69C117.34 145.027 116.264 145.56 115.33 146.29C114.397 147.019 113.586 147.892 112.899 148.908C112.215 149.898 111.638 150.953 111.169 152.072L100.697 150.789Z" fill="url(#paint1_linear)"/>
<path d="M143.227 172.27C143.552 169.624 144.142 166.997 144.999 164.391C145.858 161.759 146.983 159.262 148.372 156.9C149.762 154.537 151.396 152.371 153.274 150.402C155.178 148.435 157.325 146.78 159.715 145.435C162.105 144.091 164.742 143.135 167.625 142.568C170.512 141.975 173.631 141.884 176.983 142.294C180.058 142.671 182.747 143.372 185.052 144.396C187.382 145.423 189.366 146.664 191.004 148.118C192.642 149.572 193.976 151.207 195.008 153.021C196.067 154.814 196.875 156.678 197.43 158.613C197.989 160.524 198.315 162.457 198.408 164.412C198.526 166.371 198.476 168.245 198.256 170.034C197.932 172.68 197.34 175.319 196.481 177.951C195.624 180.558 194.501 183.042 193.112 185.404C191.722 187.766 190.076 189.931 188.172 191.898C186.293 193.867 184.159 195.524 181.769 196.869C179.379 198.213 176.742 199.169 173.858 199.736C170.972 200.329 167.853 200.42 164.501 200.009C161.401 199.63 158.699 198.928 156.394 197.903C154.089 196.879 152.105 195.638 150.442 194.181C148.804 192.727 147.455 191.104 146.396 189.311C145.365 187.496 144.571 185.621 144.016 183.686C143.485 181.753 143.159 179.821 143.038 177.887C142.945 175.932 143.008 174.059 143.227 172.27ZM154.768 174.221C154.456 176.767 154.539 179.015 155.016 180.966C155.496 182.893 156.269 184.522 157.333 185.855C158.398 187.188 159.676 188.24 161.167 189.011C162.687 189.76 164.316 190.241 166.055 190.454C168.424 190.744 170.553 190.596 172.441 190.008C174.329 189.421 176.01 188.54 177.485 187.365C178.959 186.19 180.229 184.798 181.296 183.189C182.388 181.583 183.297 179.904 184.024 178.151C184.775 176.402 185.36 174.657 185.778 172.918C186.224 171.156 186.537 169.544 186.716 168.083C187.031 165.512 186.948 163.264 186.468 161.337C185.988 159.411 185.215 157.782 184.151 156.449C183.086 155.116 181.794 154.075 180.274 153.326C178.783 152.555 177.167 152.063 175.428 151.85C173.059 151.56 170.931 151.708 169.043 152.296C167.155 152.883 165.473 153.764 163.999 154.939C162.528 156.089 161.245 157.479 160.15 159.11C159.083 160.719 158.174 162.398 157.422 164.148C156.696 165.901 156.11 167.658 155.663 169.419C155.246 171.159 154.947 172.759 154.768 174.221Z" fill="url(#paint2_linear)"/>
<path d="M214.539 148.316L233.668 150.66C237.272 151.102 240.254 151.915 242.616 153.099C245.006 154.262 246.879 155.681 248.234 157.356C249.617 159.009 250.53 160.848 250.973 162.872C251.444 164.874 251.55 166.933 251.29 169.05C250.904 172.2 250.08 174.964 248.816 177.342C247.578 179.723 245.907 181.667 243.804 183.174C241.701 184.681 239.181 185.728 236.244 186.315C233.332 186.905 230.011 186.971 226.281 186.514L215.129 185.148L209.28 204.077L197.674 202.655L214.539 148.316ZM218.083 175.763L228.403 177.028C230.243 177.253 231.849 177.194 233.221 176.851C234.593 176.507 235.748 175.958 236.685 175.203C237.646 174.451 238.398 173.533 238.941 172.448C239.486 171.338 239.837 170.141 239.995 168.856C240.121 167.822 240.114 166.837 239.973 165.898C239.861 164.938 239.544 164.081 239.022 163.326C238.504 162.546 237.753 161.892 236.769 161.362C235.81 160.835 234.562 160.477 233.025 160.289L223.272 159.094L218.083 175.763Z" fill="url(#paint3_linear)"/>
<path d="M266.178 154.644L287.915 157.307C291.444 157.739 294.39 158.433 296.754 159.388C299.119 160.343 300.992 161.544 302.375 162.993C303.761 164.416 304.685 166.064 305.146 167.937C305.607 169.809 305.699 171.88 305.421 174.148C305.245 175.585 304.887 176.935 304.349 178.199C303.839 179.441 303.137 180.57 302.245 181.587C301.382 182.581 300.318 183.435 299.054 184.15C297.818 184.843 296.386 185.358 294.758 185.696C295.721 186.402 296.576 187.146 297.324 187.929C298.076 188.686 298.687 189.541 299.159 190.494C299.633 191.422 299.955 192.446 300.125 193.567C300.32 194.691 300.334 195.933 300.167 197.294C299.824 200.092 299.065 202.531 297.889 204.613C296.716 206.669 295.155 208.345 293.206 209.641C291.256 210.937 288.947 211.83 286.277 212.322C283.611 212.788 280.602 212.816 277.25 212.405L249.314 208.982L266.178 154.644ZM263.797 201.011L278.049 202.757C279.813 202.973 281.332 202.891 282.607 202.51C283.881 202.129 284.946 201.581 285.801 200.867C286.656 200.154 287.306 199.338 287.751 198.42C288.196 197.503 288.472 196.603 288.58 195.721C288.725 194.536 288.647 193.504 288.346 192.623C288.048 191.716 287.567 190.941 286.904 190.297C286.266 189.656 285.459 189.148 284.482 188.772C283.505 188.397 282.411 188.135 281.201 187.987L268.348 186.412L263.797 201.011ZM271.095 177.463L284.477 179.102C287.224 179.439 289.389 179.103 290.97 178.095C292.555 177.061 293.488 175.397 293.769 173.104C293.896 172.071 293.811 171.191 293.517 170.464C293.247 169.74 292.81 169.137 292.204 168.653C291.623 168.173 290.901 167.803 290.038 167.544C289.177 167.259 288.243 167.055 287.235 166.931L274.835 165.412L271.095 177.463Z" fill="url(#paint4_linear)"/>
<path d="M342.215 175.74L342.064 175.722L327.662 197.747L341.611 199.456L342.215 175.74ZM338.685 163.528L352.256 165.191L352.478 221.623L341.024 220.22L341.342 209.17L321.76 206.77L315.091 217.042L302.767 215.532L338.685 163.528Z" fill="url(#paint5_linear)"/>
<path d="M405.483 181.421L389.455 179.457L379.423 207.466C378.415 210.259 377.329 212.761 376.163 214.971C375.025 217.159 373.702 218.98 372.194 220.432C370.714 221.862 369.001 222.893 367.057 223.525C365.137 224.159 362.905 224.321 360.359 224.009C359.074 223.851 357.903 223.593 356.847 223.233C355.788 222.899 354.672 222.404 353.499 221.748L356.348 211.967C357.095 212.34 357.826 212.635 358.542 212.85C359.285 213.044 359.834 213.162 360.186 213.205C360.741 213.273 361.261 213.311 361.746 213.32C362.234 213.303 362.711 213.169 363.176 212.919C363.642 212.669 364.1 212.265 364.553 211.707C365.033 211.126 365.555 210.307 366.12 209.251C366.687 208.169 367.301 206.812 367.962 205.179C368.65 203.524 369.434 201.51 370.314 199.136L381.365 168.758L420 173.492L403.097 227.826L391.491 226.404L405.483 181.421Z" fill="url(#paint6_linear)"/>
<path d="M460.169 197.331C460.37 195.693 460.284 194.198 459.912 192.848C459.544 191.473 458.947 190.287 458.123 189.291C457.327 188.272 456.326 187.459 455.122 186.851C453.946 186.221 452.639 185.818 451.203 185.642C448.834 185.351 446.705 185.5 444.817 186.087C442.929 186.674 441.248 187.555 439.774 188.731C438.302 189.881 437.019 191.271 435.924 192.902C434.857 194.511 433.948 196.19 433.196 197.939C432.47 199.692 431.884 201.449 431.438 203.211C431.02 204.95 430.722 206.551 430.542 208.013C430.305 209.953 430.308 211.808 430.551 213.578C430.82 215.35 431.392 216.942 432.268 218.354C433.169 219.769 434.405 220.957 435.976 221.916C437.572 222.879 439.567 223.508 441.961 223.801C443.397 223.977 444.805 223.97 446.184 223.781C447.591 223.57 448.911 223.131 450.144 222.463C451.38 221.77 452.507 220.821 453.525 219.616C454.542 218.41 455.393 216.89 456.079 215.056L467.873 216.501C466.703 219.581 465.232 222.291 463.462 224.632C461.716 226.976 459.677 228.901 457.344 230.405C455.039 231.888 452.456 232.927 449.595 233.523C446.734 234.119 443.627 234.212 440.275 233.801C437.2 233.424 434.498 232.722 432.168 231.695C429.864 230.671 427.892 229.431 426.254 227.977C424.616 226.523 423.268 224.9 422.208 223.107C421.177 221.293 420.384 219.418 419.828 217.482C419.272 215.547 418.933 213.612 418.812 211.679C418.719 209.723 418.782 207.851 419.002 206.061C419.326 203.415 419.916 200.789 420.773 198.182C421.633 195.55 422.757 193.053 424.147 190.691C425.536 188.329 427.17 186.163 429.048 184.193C430.952 182.227 433.099 180.571 435.489 179.227C437.88 177.883 440.516 176.927 443.4 176.359C446.286 175.766 449.406 175.675 452.757 176.086C455.908 176.472 458.741 177.254 461.257 178.432C463.798 179.613 465.91 181.164 467.594 183.084C469.277 185.004 470.495 187.277 471.248 189.901C472 192.526 472.176 195.476 471.775 198.753L460.169 197.331Z" fill="url(#paint7_linear)"/>
<path d="M514.994 241.537L503.351 240.11L510.026 218.519L499.403 217.218C498.017 217.048 496.875 216.972 495.977 216.99C495.105 217.011 494.337 217.224 493.674 217.629C493.013 218.008 492.401 218.624 491.836 219.475C491.274 220.302 490.636 221.439 489.921 222.886L484.943 232.828C484.539 233.623 484.176 234.282 483.856 234.805C483.565 235.307 483.309 235.723 483.089 236.054C482.87 236.385 482.658 236.654 482.454 236.859C482.275 237.067 482.096 237.275 481.917 237.484L469.064 235.909L469.574 234.245C470.015 234.196 470.385 234.101 470.684 233.959C471.008 233.819 471.305 233.587 471.575 233.262C471.873 232.915 472.173 232.453 472.474 231.876C472.778 231.273 473.154 230.501 473.602 229.558L478.095 220.132C478.888 218.464 479.574 217.142 480.155 216.164C480.735 215.186 481.341 214.416 481.973 213.854C482.629 213.295 483.381 212.901 484.228 212.672C485.077 212.418 486.164 212.219 487.486 212.074C486.174 211.504 485.093 210.834 484.24 210.065C483.388 209.295 482.706 208.495 482.194 207.665C481.685 206.81 481.314 205.971 481.082 205.15C480.853 204.303 480.694 203.516 480.604 202.789C480.542 202.04 480.533 201.386 480.576 200.829C480.618 200.271 480.655 199.867 480.686 199.614C480.865 198.153 481.18 196.733 481.63 195.356C482.083 193.953 482.678 192.645 483.416 191.431C484.156 190.191 485.022 189.069 486.015 188.066C487.036 187.04 488.191 186.171 489.481 185.459C490.387 184.956 491.319 184.546 492.279 184.229C493.239 183.911 494.316 183.685 495.509 183.55C496.702 183.415 498.05 183.375 499.552 183.431C501.08 183.491 502.839 183.642 504.83 183.886L531.859 187.198L514.994 241.537ZM517.305 195.123L504.906 193.603C504.25 193.523 503.505 193.445 502.671 193.368C501.836 193.291 500.979 193.289 500.101 193.36C499.225 193.406 498.35 193.555 497.475 193.806C496.629 194.035 495.839 194.424 495.107 194.974C494.399 195.526 493.784 196.27 493.26 197.203C492.762 198.14 492.426 199.314 492.253 200.725C492.062 202.287 492.241 203.537 492.791 204.474C493.342 205.412 494.058 206.139 494.941 206.656C495.828 207.149 496.783 207.496 497.807 207.698C498.834 207.875 499.713 208.008 500.444 208.098L512.843 209.617L517.305 195.123Z" fill="url(#paint8_linear)"/>
<path d="M51.0026 128.277L72.7395 130.941C76.2678 131.373 79.2141 132.067 81.5784 133.022C83.9427 133.976 85.8163 135.178 87.1992 136.626C88.5853 138.05 89.5089 139.698 89.9701 141.57C90.4313 143.443 90.5229 145.514 90.245 147.782C90.069 149.218 89.7116 150.569 89.173 151.833C88.6627 153.075 87.9616 154.204 87.0696 155.22C86.206 156.215 85.142 157.069 83.8777 157.784C82.6417 158.477 81.21 158.992 79.5826 159.33C80.5449 160.036 81.4002 160.78 82.1485 161.563C82.8998 162.32 83.5113 163.175 83.9829 164.128C84.4575 165.056 84.7797 166.08 84.9493 167.201C85.1441 168.325 85.1582 169.567 84.9914 170.928C84.6487 173.725 83.8893 176.165 82.7134 178.246C81.5405 180.303 79.9794 181.979 78.0299 183.275C76.0805 184.571 73.771 185.464 71.1016 185.956C68.4353 186.422 65.4261 186.45 62.0743 186.039L34.1377 182.616L51.0026 128.277ZM48.621 174.644L62.8728 176.391C64.6369 176.607 66.1563 176.524 67.4308 176.143C68.7054 175.762 69.7701 175.215 70.625 174.501C71.4799 173.787 72.1298 172.972 72.5748 172.054C73.0198 171.137 73.2963 170.237 73.4044 169.355C73.5495 168.17 73.4714 167.137 73.1701 166.256C72.8719 165.35 72.3913 164.575 71.7284 163.931C71.0906 163.29 70.2832 162.782 69.306 162.406C68.3288 162.031 67.2353 161.769 66.0256 161.621L53.1725 160.046L48.621 174.644ZM55.919 151.096L69.3014 152.736C72.0484 153.073 74.2128 152.737 75.7944 151.728C77.3792 150.695 78.312 149.031 78.5931 146.738C78.7197 145.705 78.6357 144.824 78.341 144.098C78.0716 143.374 77.6339 142.77 77.0281 142.287C76.4474 141.806 75.7253 141.437 74.8618 141.177C74.0013 140.893 73.067 140.689 72.059 140.565L59.6595 139.046L55.919 151.096Z" stroke="black" stroke-width="4" mask="url(#path-2-outside-1)"/>
<path d="M100.697 150.789C101.356 148.542 102.319 146.422 103.587 144.428C104.854 142.435 106.469 140.74 108.431 139.343C110.396 137.921 112.722 136.889 115.41 136.246C118.126 135.581 121.223 135.462 124.701 135.888C127.826 136.271 130.448 137.002 132.567 138.08C134.715 139.136 136.414 140.406 137.664 141.889C138.918 143.347 139.771 144.948 140.222 146.692C140.674 148.436 140.794 150.164 140.584 151.878C140.384 153.516 139.965 155.051 139.33 156.482C138.697 157.888 137.854 159.128 136.802 160.202C135.749 161.275 134.478 162.155 132.986 162.842C131.521 163.532 129.829 163.977 127.911 164.177L127.893 164.328C129.05 164.905 130.069 165.567 130.949 166.314C131.833 167.037 132.547 167.891 133.091 168.879C133.663 169.845 134.052 170.954 134.256 172.207C134.461 173.46 134.464 174.893 134.267 176.505C134.094 177.917 133.738 179.357 133.2 180.826C132.662 182.295 131.927 183.701 130.995 185.045C130.088 186.392 128.962 187.648 127.617 188.813C126.3 189.957 124.75 190.918 122.966 191.697C121.208 192.479 119.211 193.015 116.975 193.303C114.737 193.618 112.269 193.609 109.573 193.279C106.271 192.874 103.425 192.091 101.035 190.928C98.6676 189.794 96.7446 188.369 95.2665 186.653C93.7916 184.912 92.7664 182.944 92.191 180.751C91.6188 178.532 91.487 176.162 91.7959 173.642L91.9256 172.583L102.586 173.89C102.521 175.672 102.655 177.185 102.989 178.429C103.326 179.646 103.854 180.658 104.574 181.462C105.297 182.241 106.22 182.853 107.342 183.298C108.493 183.72 109.837 184.026 111.374 184.214C113.113 184.427 114.65 184.308 115.984 183.858C117.318 183.407 118.446 182.765 119.366 181.932C120.315 181.076 121.051 180.079 121.575 178.941C122.123 177.806 122.467 176.671 122.606 175.537C122.782 174.1 122.7 172.888 122.361 171.9C122.021 170.912 121.506 170.107 120.815 169.485C120.152 168.841 119.343 168.346 118.388 167.998C117.458 167.654 116.476 167.419 115.443 167.292L112.267 166.903L114.638 158.829C115.186 158.947 115.747 159.067 116.321 159.188C116.923 159.288 117.501 159.371 118.055 159.439C119.517 159.618 120.89 159.582 122.174 159.33C123.458 159.078 124.601 158.63 125.601 157.985C126.6 157.34 127.42 156.494 128.06 155.447C128.703 154.374 129.113 153.12 129.289 151.684C129.561 149.466 129.103 147.772 127.916 146.604C126.754 145.438 125.039 144.716 122.771 144.439C121.208 144.247 119.804 144.331 118.558 144.69C117.34 145.027 116.264 145.56 115.33 146.29C114.397 147.019 113.586 147.892 112.899 148.908C112.215 149.898 111.638 150.953 111.169 152.072L100.697 150.789Z" stroke="black" stroke-width="4" mask="url(#path-2-outside-1)"/>
<path d="M143.227 172.27C143.552 169.624 144.142 166.997 144.999 164.391C145.858 161.759 146.983 159.262 148.372 156.9C149.762 154.537 151.396 152.371 153.274 150.402C155.178 148.435 157.325 146.78 159.715 145.435C162.105 144.091 164.742 143.135 167.625 142.568C170.512 141.975 173.631 141.884 176.983 142.294C180.058 142.671 182.747 143.372 185.052 144.396C187.382 145.423 189.366 146.664 191.004 148.118C192.642 149.572 193.976 151.207 195.008 153.021C196.067 154.814 196.875 156.678 197.43 158.613C197.989 160.524 198.315 162.457 198.408 164.412C198.526 166.371 198.476 168.245 198.256 170.034C197.932 172.68 197.34 175.319 196.481 177.951C195.624 180.558 194.501 183.042 193.112 185.404C191.722 187.766 190.076 189.931 188.172 191.898C186.293 193.867 184.159 195.524 181.769 196.869C179.379 198.213 176.742 199.169 173.858 199.736C170.972 200.329 167.853 200.42 164.501 200.009C161.401 199.63 158.699 198.928 156.394 197.903C154.089 196.879 152.105 195.638 150.442 194.181C148.804 192.727 147.455 191.104 146.396 189.311C145.365 187.496 144.571 185.621 144.016 183.686C143.485 181.753 143.159 179.821 143.038 177.887C142.945 175.932 143.008 174.059 143.227 172.27ZM154.768 174.221C154.456 176.767 154.539 179.015 155.016 180.966C155.496 182.893 156.269 184.522 157.333 185.855C158.398 187.188 159.676 188.24 161.167 189.011C162.687 189.76 164.316 190.241 166.055 190.454C168.424 190.744 170.553 190.596 172.441 190.008C174.329 189.421 176.01 188.54 177.485 187.365C178.959 186.19 180.229 184.798 181.296 183.189C182.388 181.583 183.297 179.904 184.024 178.151C184.775 176.402 185.36 174.657 185.778 172.918C186.224 171.156 186.537 169.544 186.716 168.083C187.031 165.512 186.948 163.264 186.468 161.337C185.988 159.411 185.215 157.782 184.151 156.449C183.086 155.116 181.794 154.075 180.274 153.326C178.783 152.555 177.167 152.063 175.428 151.85C173.059 151.56 170.931 151.708 169.043 152.296C167.155 152.883 165.473 153.764 163.999 154.939C162.528 156.089 161.245 157.479 160.15 159.11C159.083 160.719 158.174 162.398 157.422 164.148C156.696 165.901 156.11 167.658 155.663 169.419C155.246 171.159 154.947 172.759 154.768 174.221Z" stroke="black" stroke-width="4" mask="url(#path-2-outside-1)"/>
<path d="M214.539 148.316L233.668 150.66C237.272 151.102 240.254 151.915 242.616 153.099C245.006 154.262 246.879 155.681 248.234 157.356C249.617 159.009 250.53 160.848 250.973 162.872C251.444 164.874 251.55 166.933 251.29 169.05C250.904 172.2 250.08 174.964 248.816 177.342C247.578 179.723 245.907 181.667 243.804 183.174C241.701 184.681 239.181 185.728 236.244 186.315C233.332 186.905 230.011 186.971 226.281 186.514L215.129 185.148L209.28 204.077L197.674 202.655L214.539 148.316ZM218.083 175.763L228.403 177.028C230.243 177.253 231.849 177.194 233.221 176.851C234.593 176.507 235.748 175.958 236.685 175.203C237.646 174.451 238.398 173.533 238.941 172.448C239.486 171.338 239.837 170.141 239.995 168.856C240.121 167.822 240.114 166.837 239.973 165.898C239.861 164.938 239.544 164.081 239.022 163.326C238.504 162.546 237.753 161.892 236.769 161.362C235.81 160.835 234.562 160.477 233.025 160.289L223.272 159.094L218.083 175.763Z" stroke="black" stroke-width="4" mask="url(#path-2-outside-1)"/>
<path d="M266.178 154.644L287.915 157.307C291.444 157.739 294.39 158.433 296.754 159.388C299.119 160.343 300.992 161.544 302.375 162.993C303.761 164.416 304.685 166.064 305.146 167.937C305.607 169.809 305.699 171.88 305.421 174.148C305.245 175.585 304.887 176.935 304.349 178.199C303.839 179.441 303.137 180.57 302.245 181.587C301.382 182.581 300.318 183.435 299.054 184.15C297.818 184.843 296.386 185.358 294.758 185.696C295.721 186.402 296.576 187.146 297.324 187.929C298.076 188.686 298.687 189.541 299.159 190.494C299.633 191.422 299.955 192.446 300.125 193.567C300.32 194.691 300.334 195.933 300.167 197.294C299.824 200.092 299.065 202.531 297.889 204.613C296.716 206.669 295.155 208.345 293.206 209.641C291.256 210.937 288.947 211.83 286.277 212.322C283.611 212.788 280.602 212.816 277.25 212.405L249.314 208.982L266.178 154.644ZM263.797 201.011L278.049 202.757C279.813 202.973 281.332 202.891 282.607 202.51C283.881 202.129 284.946 201.581 285.801 200.867C286.656 200.154 287.306 199.338 287.751 198.42C288.196 197.503 288.472 196.603 288.58 195.721C288.725 194.536 288.647 193.504 288.346 192.623C288.048 191.716 287.567 190.941 286.904 190.297C286.266 189.656 285.459 189.148 284.482 188.772C283.505 188.397 282.411 188.135 281.201 187.987L268.348 186.412L263.797 201.011ZM271.095 177.463L284.477 179.102C287.224 179.439 289.389 179.103 290.97 178.095C292.555 177.061 293.488 175.397 293.769 173.104C293.896 172.071 293.811 171.191 293.517 170.464C293.247 169.74 292.81 169.137 292.204 168.653C291.623 168.173 290.901 167.803 290.038 167.544C289.177 167.259 288.243 167.055 287.235 166.931L274.835 165.412L271.095 177.463Z" stroke="black" stroke-width="4" mask="url(#path-2-outside-1)"/>
<path d="M342.215 175.74L342.064 175.722L327.662 197.747L341.611 199.456L342.215 175.74ZM338.685 163.528L352.256 165.191L352.478 221.623L341.024 220.22L341.342 209.17L321.76 206.77L315.091 217.042L302.767 215.532L338.685 163.528Z" stroke="black" stroke-width="4" mask="url(#path-2-outside-1)"/>
<path d="M405.483 181.421L389.455 179.457L379.423 207.466C378.415 210.259 377.329 212.761 376.163 214.971C375.025 217.159 373.702 218.98 372.194 220.432C370.714 221.862 369.001 222.893 367.057 223.525C365.137 224.159 362.905 224.321 360.359 224.009C359.074 223.851 357.903 223.593 356.847 223.233C355.788 222.899 354.672 222.404 353.499 221.748L356.348 211.967C357.095 212.34 357.826 212.635 358.542 212.85C359.285 213.044 359.834 213.162 360.186 213.205C360.741 213.273 361.261 213.311 361.746 213.32C362.234 213.303 362.711 213.169 363.176 212.919C363.642 212.669 364.1 212.265 364.553 211.707C365.033 211.126 365.555 210.307 366.12 209.251C366.687 208.169 367.301 206.812 367.962 205.179C368.65 203.524 369.434 201.51 370.314 199.136L381.365 168.758L420 173.492L403.097 227.826L391.491 226.404L405.483 181.421Z" stroke="black" stroke-width="4" mask="url(#path-2-outside-1)"/>
<path d="M460.169 197.331C460.37 195.693 460.284 194.198 459.912 192.848C459.544 191.473 458.947 190.287 458.123 189.291C457.327 188.272 456.326 187.459 455.122 186.851C453.946 186.221 452.639 185.818 451.203 185.642C448.834 185.351 446.705 185.5 444.817 186.087C442.929 186.674 441.248 187.555 439.774 188.731C438.302 189.881 437.019 191.271 435.924 192.902C434.857 194.511 433.948 196.19 433.196 197.939C432.47 199.692 431.884 201.449 431.438 203.211C431.02 204.95 430.722 206.551 430.542 208.013C430.305 209.953 430.308 211.808 430.551 213.578C430.82 215.35 431.392 216.942 432.268 218.354C433.169 219.769 434.405 220.957 435.976 221.916C437.572 222.879 439.567 223.508 441.961 223.801C443.397 223.977 444.805 223.97 446.184 223.781C447.591 223.57 448.911 223.131 450.144 222.463C451.38 221.77 452.507 220.821 453.525 219.616C454.542 218.41 455.393 216.89 456.079 215.056L467.873 216.501C466.703 219.581 465.232 222.291 463.462 224.632C461.716 226.976 459.677 228.901 457.344 230.405C455.039 231.888 452.456 232.927 449.595 233.523C446.734 234.119 443.627 234.212 440.275 233.801C437.2 233.424 434.498 232.722 432.168 231.695C429.864 230.671 427.892 229.431 426.254 227.977C424.616 226.523 423.268 224.9 422.208 223.107C421.177 221.293 420.384 219.418 419.828 217.482C419.272 215.547 418.933 213.612 418.812 211.679C418.719 209.723 418.782 207.851 419.002 206.061C419.326 203.415 419.916 200.789 420.773 198.182C421.633 195.55 422.757 193.053 424.147 190.691C425.536 188.329 427.17 186.163 429.048 184.193C430.952 182.227 433.099 180.571 435.489 179.227C437.88 177.883 440.516 176.927 443.4 176.359C446.286 175.766 449.406 175.675 452.757 176.086C455.908 176.472 458.741 177.254 461.257 178.432C463.798 179.613 465.91 181.164 467.594 183.084C469.277 185.004 470.495 187.277 471.248 189.901C472 192.526 472.176 195.476 471.775 198.753L460.169 197.331Z" stroke="black" stroke-width="4" mask="url(#path-2-outside-1)"/>
<path d="M514.994 241.537L503.351 240.11L510.026 218.519L499.403 217.218C498.017 217.048 496.875 216.972 495.977 216.99C495.105 217.011 494.337 217.224 493.674 217.629C493.013 218.008 492.401 218.624 491.836 219.475C491.274 220.302 490.636 221.439 489.921 222.886L484.943 232.828C484.539 233.623 484.176 234.282 483.856 234.805C483.565 235.307 483.309 235.723 483.089 236.054C482.87 236.385 482.658 236.654 482.454 236.859C482.275 237.067 482.096 237.275 481.917 237.484L469.064 235.909L469.574 234.245C470.015 234.196 470.385 234.101 470.684 233.959C471.008 233.819 471.305 233.587 471.575 233.262C471.873 232.915 472.173 232.453 472.474 231.876C472.778 231.273 473.154 230.501 473.602 229.558L478.095 220.132C478.888 218.464 479.574 217.142 480.155 216.164C480.735 215.186 481.341 214.416 481.973 213.854C482.629 213.295 483.381 212.901 484.228 212.672C485.077 212.418 486.164 212.219 487.486 212.074C486.174 211.504 485.093 210.834 484.24 210.065C483.388 209.295 482.706 208.495 482.194 207.665C481.685 206.81 481.314 205.971 481.082 205.15C480.853 204.303 480.694 203.516 480.604 202.789C480.542 202.04 480.533 201.386 480.576 200.829C480.618 200.271 480.655 199.867 480.686 199.614C480.865 198.153 481.18 196.733 481.63 195.356C482.083 193.953 482.678 192.645 483.416 191.431C484.156 190.191 485.022 189.069 486.015 188.066C487.036 187.04 488.191 186.171 489.481 185.459C490.387 184.956 491.319 184.546 492.279 184.229C493.239 183.911 494.316 183.685 495.509 183.55C496.702 183.415 498.05 183.375 499.552 183.431C501.08 183.491 502.839 183.642 504.83 183.886L531.859 187.198L514.994 241.537ZM517.305 195.123L504.906 193.603C504.25 193.523 503.505 193.445 502.671 193.368C501.836 193.291 500.979 193.289 500.101 193.36C499.225 193.406 498.35 193.555 497.475 193.806C496.629 194.035 495.839 194.424 495.107 194.974C494.399 195.526 493.784 196.27 493.26 197.203C492.762 198.14 492.426 199.314 492.253 200.725C492.062 202.287 492.241 203.537 492.791 204.474C493.342 205.412 494.058 206.139 494.941 206.656C495.828 207.149 496.783 207.496 497.807 207.698C498.834 207.875 499.713 208.008 500.444 208.098L512.843 209.617L517.305 195.123Z" stroke="black" stroke-width="4" mask="url(#path-2-outside-1)"/>
<rect x="39.4351" width="384.452" height="97.4175" transform="rotate(7.33364 39.4351 0)" fill="white"/>
<mask id="path-4-outside-2" maskUnits="userSpaceOnUse" x="41.6431" y="24.3086" width="334" height="95" fill="black">
<rect fill="white" x="41.6431" y="24.3086" width="334" height="95"/>
<path d="M85.0909 39.521L84.9397 39.5025L70.5378 61.5276L84.4872 63.2369L85.0909 39.521ZM81.5608 27.3086L95.1321 28.9715L95.3543 85.4038L83.8999 84.0003L84.2179 72.9501L64.6359 70.5506L57.9669 80.8226L45.6431 79.3125L81.5608 27.3086Z"/>
<path d="M116.718 31.6165L128.323 33.0386L121.878 53.6981L143.615 56.3616L150.098 35.7067L161.704 37.1288L144.763 91.458L133.12 90.0313L140.737 65.7551L119 63.0916L111.383 87.3679L99.7773 85.9458L116.718 31.6165Z"/>
<path d="M192.679 52.7041L192.528 52.6856L178.126 74.7107L192.075 76.42L192.679 52.7041ZM189.149 40.4917L202.72 42.1546L202.942 98.5869L191.488 97.1834L191.806 86.1332L172.224 83.7337L165.555 94.0057L153.231 92.4957L189.149 40.4917Z"/>
<path d="M224.306 44.7996L235.911 46.2217L229.466 66.8812L251.203 69.5447L257.686 48.8898L269.291 50.3119L252.351 104.641L240.708 103.214L248.325 78.9382L226.588 76.2747L218.971 100.551L207.365 99.1289L224.306 44.7996Z"/>
<path d="M300.267 65.8872L300.116 65.8687L285.714 87.8939L299.663 89.6031L300.267 65.8872ZM296.737 53.6748L310.308 55.3378L310.53 111.77L299.076 110.366L299.394 99.3163L279.812 96.9168L273.143 107.189L260.819 105.679L296.737 53.6748Z"/>
<path d="M361.138 80.4829C361.339 78.8448 361.253 77.3506 360.881 76.0005C360.513 74.6251 359.916 73.4392 359.092 72.4429C358.296 71.4245 357.295 70.6112 356.091 70.0032C354.915 69.373 353.608 68.9699 352.172 68.7939C349.803 68.5036 347.674 68.6521 345.786 69.2393C343.898 69.8265 342.217 70.7077 340.742 71.8828C339.271 73.0328 337.988 74.4231 336.893 76.054C335.826 77.6628 334.917 79.342 334.165 81.0917C333.439 82.8445 332.853 84.6017 332.407 86.3632C331.989 88.1027 331.69 89.7032 331.511 91.165C331.273 93.1055 331.276 94.9605 331.52 96.7298C331.789 98.5022 332.361 100.094 333.237 101.506C334.138 102.921 335.374 104.109 336.945 105.069C338.54 106.032 340.536 106.66 342.93 106.953C344.366 107.129 345.774 107.123 347.153 106.933C348.56 106.722 349.88 106.283 351.113 105.615C352.349 104.923 353.476 103.973 354.493 102.768C355.511 101.562 356.362 100.042 357.047 98.2078L368.842 99.6531C367.672 102.733 366.201 105.443 364.431 107.784C362.685 110.129 360.646 112.053 358.313 113.558C356.008 115.04 353.425 116.08 350.564 116.675C347.702 117.271 344.596 117.364 341.244 116.953C338.169 116.576 335.467 115.874 333.137 114.847C330.832 113.823 328.861 112.584 327.223 111.13C325.585 109.675 324.236 108.052 323.177 106.259C322.146 104.445 321.352 102.57 320.797 100.634C320.241 98.6988 319.902 96.7643 319.781 94.8309C319.688 92.8754 319.751 91.003 319.971 89.2137C320.295 86.5674 320.885 83.941 321.742 81.3345C322.601 78.7027 323.726 76.2057 325.115 73.8435C326.505 71.4812 328.139 69.3152 330.017 67.3455C331.921 65.3788 334.068 63.7234 336.458 62.3791C338.848 61.0348 341.485 60.0789 344.369 59.5113C347.255 58.9185 350.374 58.8275 353.726 59.2382C356.876 59.6242 359.71 60.4063 362.226 61.5843C364.767 62.7654 366.879 64.316 368.562 66.2362C370.246 68.1563 371.464 70.4288 372.216 73.0535C372.969 75.6782 373.145 78.6287 372.743 81.905L361.138 80.4829Z"/>
</mask>
<path d="M85.0909 39.521L84.9397 39.5025L70.5378 61.5276L84.4872 63.2369L85.0909 39.521ZM81.5608 27.3086L95.1321 28.9715L95.3543 85.4038L83.8999 84.0003L84.2179 72.9501L64.6359 70.5506L57.9669 80.8226L45.6431 79.3125L81.5608 27.3086Z" fill="url(#paint9_linear)"/>
<path d="M116.718 31.6165L128.323 33.0386L121.878 53.6981L143.615 56.3616L150.098 35.7067L161.704 37.1288L144.763 91.458L133.12 90.0313L140.737 65.7551L119 63.0916L111.383 87.3679L99.7773 85.9458L116.718 31.6165Z" fill="url(#paint10_linear)"/>
<path d="M192.679 52.7041L192.528 52.6856L178.126 74.7107L192.075 76.42L192.679 52.7041ZM189.149 40.4917L202.72 42.1546L202.942 98.5869L191.488 97.1834L191.806 86.1332L172.224 83.7337L165.555 94.0057L153.231 92.4957L189.149 40.4917Z" fill="url(#paint11_linear)"/>
<path d="M224.306 44.7996L235.911 46.2217L229.466 66.8812L251.203 69.5447L257.686 48.8898L269.291 50.3119L252.351 104.641L240.708 103.214L248.325 78.9382L226.588 76.2747L218.971 100.551L207.365 99.1289L224.306 44.7996Z" fill="url(#paint12_linear)"/>
<path d="M300.267 65.8872L300.116 65.8687L285.714 87.8939L299.663 89.6031L300.267 65.8872ZM296.737 53.6748L310.308 55.3378L310.53 111.77L299.076 110.366L299.394 99.3163L279.812 96.9168L273.143 107.189L260.819 105.679L296.737 53.6748Z" fill="url(#paint13_linear)"/>
<path d="M361.138 80.4829C361.339 78.8448 361.253 77.3506 360.881 76.0005C360.513 74.6251 359.916 73.4392 359.092 72.4429C358.296 71.4245 357.295 70.6112 356.091 70.0032C354.915 69.373 353.608 68.9699 352.172 68.7939C349.803 68.5036 347.674 68.6521 345.786 69.2393C343.898 69.8265 342.217 70.7077 340.742 71.8828C339.271 73.0328 337.988 74.4231 336.893 76.054C335.826 77.6628 334.917 79.342 334.165 81.0917C333.439 82.8445 332.853 84.6017 332.407 86.3632C331.989 88.1027 331.69 89.7032 331.511 91.165C331.273 93.1055 331.276 94.9605 331.52 96.7298C331.789 98.5022 332.361 100.094 333.237 101.506C334.138 102.921 335.374 104.109 336.945 105.069C338.54 106.032 340.536 106.66 342.93 106.953C344.366 107.129 345.774 107.123 347.153 106.933C348.56 106.722 349.88 106.283 351.113 105.615C352.349 104.923 353.476 103.973 354.493 102.768C355.511 101.562 356.362 100.042 357.047 98.2078L368.842 99.6531C367.672 102.733 366.201 105.443 364.431 107.784C362.685 110.129 360.646 112.053 358.313 113.558C356.008 115.04 353.425 116.08 350.564 116.675C347.702 117.271 344.596 117.364 341.244 116.953C338.169 116.576 335.467 115.874 333.137 114.847C330.832 113.823 328.861 112.584 327.223 111.13C325.585 109.675 324.236 108.052 323.177 106.259C322.146 104.445 321.352 102.57 320.797 100.634C320.241 98.6988 319.902 96.7643 319.781 94.8309C319.688 92.8754 319.751 91.003 319.971 89.2137C320.295 86.5674 320.885 83.941 321.742 81.3345C322.601 78.7027 323.726 76.2057 325.115 73.8435C326.505 71.4812 328.139 69.3152 330.017 67.3455C331.921 65.3788 334.068 63.7234 336.458 62.3791C338.848 61.0348 341.485 60.0789 344.369 59.5113C347.255 58.9185 350.374 58.8275 353.726 59.2382C356.876 59.6242 359.71 60.4063 362.226 61.5843C364.767 62.7654 366.879 64.316 368.562 66.2362C370.246 68.1563 371.464 70.4288 372.216 73.0535C372.969 75.6782 373.145 78.6287 372.743 81.905L361.138 80.4829Z" fill="url(#paint14_linear)"/>
<path d="M85.0909 39.521L84.9397 39.5025L70.5378 61.5276L84.4872 63.2369L85.0909 39.521ZM81.5608 27.3086L95.1321 28.9715L95.3543 85.4038L83.8999 84.0003L84.2179 72.9501L64.6359 70.5506L57.9669 80.8226L45.6431 79.3125L81.5608 27.3086Z" stroke="black" stroke-width="4" mask="url(#path-4-outside-2)"/>
<path d="M116.718 31.6165L128.323 33.0386L121.878 53.6981L143.615 56.3616L150.098 35.7067L161.704 37.1288L144.763 91.458L133.12 90.0313L140.737 65.7551L119 63.0916L111.383 87.3679L99.7773 85.9458L116.718 31.6165Z" stroke="black" stroke-width="4" mask="url(#path-4-outside-2)"/>
<path d="M192.679 52.7041L192.528 52.6856L178.126 74.7107L192.075 76.42L192.679 52.7041ZM189.149 40.4917L202.72 42.1546L202.942 98.5869L191.488 97.1834L191.806 86.1332L172.224 83.7337L165.555 94.0057L153.231 92.4957L189.149 40.4917Z" stroke="black" stroke-width="4" mask="url(#path-4-outside-2)"/>
<path d="M224.306 44.7996L235.911 46.2217L229.466 66.8812L251.203 69.5447L257.686 48.8898L269.291 50.3119L252.351 104.641L240.708 103.214L248.325 78.9382L226.588 76.2747L218.971 100.551L207.365 99.1289L224.306 44.7996Z" stroke="black" stroke-width="4" mask="url(#path-4-outside-2)"/>
<path d="M300.267 65.8872L300.116 65.8687L285.714 87.8939L299.663 89.6031L300.267 65.8872ZM296.737 53.6748L310.308 55.3378L310.53 111.77L299.076 110.366L299.394 99.3163L279.812 96.9168L273.143 107.189L260.819 105.679L296.737 53.6748Z" stroke="black" stroke-width="4" mask="url(#path-4-outside-2)"/>
<path d="M361.138 80.4829C361.339 78.8448 361.253 77.3506 360.881 76.0005C360.513 74.6251 359.916 73.4392 359.092 72.4429C358.296 71.4245 357.295 70.6112 356.091 70.0032C354.915 69.373 353.608 68.9699 352.172 68.7939C349.803 68.5036 347.674 68.6521 345.786 69.2393C343.898 69.8265 342.217 70.7077 340.742 71.8828C339.271 73.0328 337.988 74.4231 336.893 76.054C335.826 77.6628 334.917 79.342 334.165 81.0917C333.439 82.8445 332.853 84.6017 332.407 86.3632C331.989 88.1027 331.69 89.7032 331.511 91.165C331.273 93.1055 331.276 94.9605 331.52 96.7298C331.789 98.5022 332.361 100.094 333.237 101.506C334.138 102.921 335.374 104.109 336.945 105.069C338.54 106.032 340.536 106.66 342.93 106.953C344.366 107.129 345.774 107.123 347.153 106.933C348.56 106.722 349.88 106.283 351.113 105.615C352.349 104.923 353.476 103.973 354.493 102.768C355.511 101.562 356.362 100.042 357.047 98.2078L368.842 99.6531C367.672 102.733 366.201 105.443 364.431 107.784C362.685 110.129 360.646 112.053 358.313 113.558C356.008 115.04 353.425 116.08 350.564 116.675C347.702 117.271 344.596 117.364 341.244 116.953C338.169 116.576 335.467 115.874 333.137 114.847C330.832 113.823 328.861 112.584 327.223 111.13C325.585 109.675 324.236 108.052 323.177 106.259C322.146 104.445 321.352 102.57 320.797 100.634C320.241 98.6988 319.902 96.7643 319.781 94.8309C319.688 92.8754 319.751 91.003 319.971 89.2137C320.295 86.5674 320.885 83.941 321.742 81.3345C322.601 78.7027 323.726 76.2057 325.115 73.8435C326.505 71.4812 328.139 69.3152 330.017 67.3455C331.921 65.3788 334.068 63.7234 336.458 62.3791C338.848 61.0348 341.485 60.0789 344.369 59.5113C347.255 58.9185 350.374 58.8275 353.726 59.2382C356.876 59.6242 359.71 60.4063 362.226 61.5843C364.767 62.7654 366.879 64.316 368.562 66.2362C370.246 68.1563 371.464 70.4288 372.216 73.0535C372.969 75.6782 373.145 78.6287 372.743 81.905L361.138 80.4829Z" stroke="black" stroke-width="4" mask="url(#path-4-outside-2)"/>
<rect x="12.4351" y="208" width="237.76" height="97.4175" transform="rotate(7.33364 12.4351 208)" fill="white"/>
<path d="M38.2754 232.304L37.4486 232.203L37.1996 232.998L20.1834 287.318L19.8246 288.463L21.0161 288.609L32.9241 290.069L33.4108 290.128L33.7559 289.78L65.3252 257.931L53.537 291.37L53.1232 292.544L54.3585 292.695L66.0019 294.122L66.8299 294.223L67.0782 293.427L84.0187 239.098L84.3755 237.953L83.1856 237.807L70.7862 236.288L70.288 236.227L69.9413 236.59L40.4984 267.424L50.7131 235.02L51.0747 233.873L49.881 233.726L38.2754 232.304ZM84.637 282.956L83.8323 282.857L83.5694 283.624L79.8074 294.598L79.4074 295.764L80.6317 295.914L92.0861 297.318L92.8908 297.417L93.1537 296.65L96.9156 285.676L97.3157 284.509L96.0913 284.359L84.637 282.956ZM106.185 285.596L105.38 285.497L105.117 286.264L101.355 297.238L100.955 298.405L102.18 298.555L113.634 299.958L114.439 300.057L114.701 299.29L118.463 288.316L118.864 287.15L117.639 287L106.185 285.596ZM127.733 288.236L126.928 288.138L126.665 288.905L122.903 299.878L122.503 301.045L123.727 301.195L135.182 302.599L135.986 302.697L136.249 301.93L140.011 290.957L140.411 289.79L139.187 289.64L127.733 288.236Z" fill="url(#paint15_linear)" stroke="black" stroke-width="2"/>
<defs>
<linearGradient id="paint0_linear" x1="325.748" y1="146.817" x2="304.427" y2="320.818" gradientUnits="userSpaceOnUse">
<stop stop-color="white"/>
<stop offset="0.4375" stop-color="#ED603C"/>
</linearGradient>
<linearGradient id="paint1_linear" x1="325.748" y1="146.817" x2="304.427" y2="320.818" gradientUnits="userSpaceOnUse">
<stop stop-color="white"/>
<stop offset="0.4375" stop-color="#ED603C"/>
</linearGradient>
<linearGradient id="paint2_linear" x1="325.748" y1="146.817" x2="304.427" y2="320.818" gradientUnits="userSpaceOnUse">
<stop stop-color="white"/>
<stop offset="0.4375" stop-color="#ED603C"/>
</linearGradient>
<linearGradient id="paint3_linear" x1="325.748" y1="146.817" x2="304.427" y2="320.818" gradientUnits="userSpaceOnUse">
<stop stop-color="white"/>
<stop offset="0.4375" stop-color="#ED603C"/>
</linearGradient>
<linearGradient id="paint4_linear" x1="325.748" y1="146.817" x2="304.427" y2="320.818" gradientUnits="userSpaceOnUse">
<stop stop-color="white"/>
<stop offset="0.4375" stop-color="#ED603C"/>
</linearGradient>
<linearGradient id="paint5_linear" x1="325.748" y1="146.817" x2="304.427" y2="320.818" gradientUnits="userSpaceOnUse">
<stop stop-color="white"/>
<stop offset="0.4375" stop-color="#ED603C"/>
</linearGradient>
<linearGradient id="paint6_linear" x1="325.748" y1="146.817" x2="304.427" y2="320.818" gradientUnits="userSpaceOnUse">
<stop stop-color="white"/>
<stop offset="0.4375" stop-color="#ED603C"/>
</linearGradient>
<linearGradient id="paint7_linear" x1="325.748" y1="146.817" x2="304.427" y2="320.818" gradientUnits="userSpaceOnUse">
<stop stop-color="white"/>
<stop offset="0.4375" stop-color="#ED603C"/>
</linearGradient>
<linearGradient id="paint8_linear" x1="325.748" y1="146.817" x2="304.427" y2="320.818" gradientUnits="userSpaceOnUse">
<stop stop-color="white"/>
<stop offset="0.4375" stop-color="#ED603C"/>
</linearGradient>
<linearGradient id="paint9_linear" x1="229.829" y1="30.3486" x2="215.895" y2="144.066" gradientUnits="userSpaceOnUse">
<stop stop-color="white"/>
<stop offset="0.4375" stop-color="#ED603C"/>
</linearGradient>
<linearGradient id="paint10_linear" x1="229.829" y1="30.3486" x2="215.895" y2="144.066" gradientUnits="userSpaceOnUse">
<stop stop-color="white"/>
<stop offset="0.4375" stop-color="#ED603C"/>
</linearGradient>
<linearGradient id="paint11_linear" x1="229.829" y1="30.3486" x2="215.895" y2="144.066" gradientUnits="userSpaceOnUse">
<stop stop-color="white"/>
<stop offset="0.4375" stop-color="#ED603C"/>
</linearGradient>
<linearGradient id="paint12_linear" x1="229.829" y1="30.3486" x2="215.895" y2="144.066" gradientUnits="userSpaceOnUse">
<stop stop-color="white"/>
<stop offset="0.4375" stop-color="#ED603C"/>
</linearGradient>
<linearGradient id="paint13_linear" x1="229.829" y1="30.3486" x2="215.895" y2="144.066" gradientUnits="userSpaceOnUse">
<stop stop-color="white"/>
<stop offset="0.4375" stop-color="#ED603C"/>
</linearGradient>
<linearGradient id="paint14_linear" x1="229.829" y1="30.3486" x2="215.895" y2="144.066" gradientUnits="userSpaceOnUse">
<stop stop-color="white"/>
<stop offset="0.4375" stop-color="#ED603C"/>
</linearGradient>
<linearGradient id="paint15_linear" x1="176.543" y1="235.128" x2="154.015" y2="418.984" gradientUnits="userSpaceOnUse">
<stop stop-color="white"/>
<stop offset="0.4375" stop-color="#ED603C"/>
</linearGradient>
</defs>
</svg>
