<svg width="413" height="173" viewBox="0 0 413 173" fill="none" xmlns="http://www.w3.org/2000/svg">
<path d="M14.0209 46.7481C12.3377 46.7481 10.7977 46.4621 9.40102 45.8903C8.04011 45.3185 6.87617 44.5143 5.90921 43.4778C4.94225 42.4414 4.19017 41.2262 3.65297 39.8324C3.15158 38.4385 2.90088 36.9017 2.90088 35.2219C2.90088 32.041 3.54553 28.9316 4.83481 25.8937C6.12409 22.8201 7.87895 20.1038 10.0994 17.745C12.3198 15.3504 14.8984 13.4204 17.8351 11.9551C20.8076 10.4897 23.9592 9.75705 27.2898 9.75705C28.4358 9.75705 29.5998 9.90001 30.7816 10.1859C31.9635 10.4719 33.0558 10.865 34.0585 11.3654C33.6288 13.0809 33.2348 14.7964 32.8767 16.5119C32.5186 18.2275 32.1783 19.943 31.856 21.6585H31.3188C31.2472 20.4076 31.086 19.1567 30.8353 17.9058C30.6205 16.6549 30.2265 15.5291 29.6535 14.5284C29.1163 13.5276 28.3821 12.7235 27.451 12.1159C26.5198 11.4726 25.3201 11.1509 23.8517 11.1509C22.2401 11.1509 20.718 11.5262 19.2855 12.2767C17.853 13.0273 16.5458 14.028 15.3639 15.2789C14.1821 16.5298 13.1256 17.9594 12.1945 19.5677C11.2991 21.176 10.5291 22.8379 9.8845 24.5535C9.27567 26.269 8.79219 27.9666 8.43405 29.6464C8.11173 31.3262 7.95057 32.863 7.95057 34.2569C7.95057 35.615 8.09383 36.9017 8.38033 38.1168C8.70265 39.2963 9.18614 40.3506 9.83078 41.2798C10.4754 42.1733 11.317 42.8881 12.3556 43.4242C13.43 43.9246 14.7193 44.1748 16.2235 44.1748C17.7993 44.1748 19.2676 43.871 20.6285 43.2634C21.9894 42.6558 23.2429 41.8695 24.3889 40.9046C25.5708 39.9396 26.6452 38.8674 27.6121 37.6879C28.5791 36.4728 29.4565 35.2576 30.2444 34.0425L30.9428 34.525C30.1907 35.9903 29.2058 37.4556 27.9882 38.921C26.7705 40.3506 25.4096 41.6551 23.9054 42.8345C22.4371 43.9782 20.8434 44.9253 19.1244 45.6759C17.4411 46.3907 15.74 46.7481 14.0209 46.7481Z" fill="black"/>
<path d="M45.3335 46.7481C43.7577 46.7481 42.3968 46.48 41.2507 45.9439C40.1405 45.4436 39.2273 44.7287 38.511 43.7995C37.7947 42.8703 37.2575 41.7802 36.8994 40.5293C36.5413 39.2784 36.3622 37.9024 36.3622 36.4013C36.3622 34.5786 36.6308 32.6486 37.168 30.6114C37.741 28.5742 38.5289 26.5728 39.5317 24.6071C40.5345 22.6414 41.7342 20.765 43.1309 18.978C44.5277 17.1553 46.0497 15.5648 47.6971 14.2067C49.3804 12.8486 51.171 11.7764 53.0692 10.9901C54.9673 10.1681 56.9191 9.75705 58.9246 9.75705C60.4646 9.75705 61.8076 10.0251 62.9536 10.5612C64.0997 11.0616 65.0308 11.7764 65.7471 12.7056C66.4634 13.6349 67.0006 14.7249 67.3587 15.9758C67.7168 17.2267 67.8959 18.6027 67.8959 20.1038C67.8959 21.9266 67.6094 23.8565 67.0364 25.8937C66.4992 27.9309 65.7292 29.9323 64.7264 31.8981C63.7236 33.8638 62.5239 35.758 61.1272 37.5807C59.7304 39.3677 58.1905 40.9403 56.5072 42.2984C54.8598 43.6565 53.0871 44.7466 51.1889 45.5686C49.2908 46.3549 47.339 46.7481 45.3335 46.7481ZM47.4823 45.0325C49.0939 45.0325 50.598 44.55 51.9948 43.5851C53.3915 42.5843 54.6449 41.2977 55.7552 39.7251C56.9012 38.1526 57.904 36.4013 58.7635 34.4713C59.6588 32.5056 60.4109 30.5578 61.0197 28.6278C61.6286 26.6621 62.0762 24.8215 62.3627 23.106C62.685 21.3547 62.8462 19.9251 62.8462 18.8172C62.8462 17.7807 62.7388 16.7979 62.5239 15.8686C62.3448 14.9394 62.0225 14.1352 61.5569 13.4562C61.0914 12.7414 60.4467 12.1874 59.623 11.7942C58.8351 11.3654 57.8323 11.1509 56.6147 11.1509C55.0389 11.1509 53.5526 11.6513 52.1559 12.652C50.795 13.617 49.5415 14.8858 48.3955 16.4583C47.2853 18.0309 46.2825 19.8 45.3872 21.7657C44.5277 23.6957 43.7935 25.6435 43.1847 27.6092C42.6116 29.5392 42.164 31.3798 41.8417 33.1311C41.5551 34.8466 41.4119 36.2583 41.4119 37.3663C41.4119 38.4027 41.5014 39.3856 41.6805 40.3148C41.8954 41.2441 42.2177 42.0661 42.6475 42.7809C43.113 43.46 43.7398 44.014 44.5277 44.4428C45.3156 44.836 46.3004 45.0325 47.4823 45.0325Z" fill="black"/>
<path d="M77.9239 46.7481C76.4914 46.7481 75.2021 46.5694 74.0561 46.212C72.91 45.8546 71.9431 45.3721 71.1552 44.7645C70.3673 44.1212 69.7585 43.4064 69.3287 42.6201C68.9348 41.7981 68.7378 40.9224 68.7378 39.9932C68.7378 38.5636 69.1138 37.402 69.8659 36.5085C70.6538 35.5793 71.7282 35.1147 73.0891 35.1147C73.7338 35.1147 74.2889 35.347 74.7544 35.8116C75.22 36.2762 75.4528 36.8659 75.4528 37.5807C75.4528 38.4028 75.1126 39.1354 74.4321 39.7787C73.7875 40.4221 72.9459 40.7616 71.9073 40.7973C71.9431 41.3692 72.0326 41.941 72.1759 42.5129C72.3549 43.049 72.6594 43.5493 73.0891 44.0139C73.5547 44.4428 74.1635 44.8002 74.9156 45.0862C75.7035 45.3721 76.7242 45.515 77.9776 45.515C79.2669 45.515 80.5204 45.2112 81.7381 44.6037C82.9915 43.9603 84.1017 43.0847 85.0687 41.9768C86.0357 40.8688 86.8056 39.5822 87.3787 38.1168C87.9875 36.6515 88.2919 35.0611 88.2919 33.3455C88.2919 32.1661 88.1128 31.1832 87.7547 30.397C87.4324 29.6107 86.9847 28.9852 86.4117 28.5206C85.8745 28.0202 85.2478 27.6628 84.5315 27.4484C83.8152 27.234 83.081 27.1267 82.329 27.1267H80.1802L80.6637 25.8937H82.2215C83.6182 25.8937 84.9434 25.6971 86.1968 25.304C87.4503 24.9109 88.5426 24.339 89.4737 23.5885C90.4049 22.8022 91.1391 21.8372 91.6763 20.6935C92.2135 19.5141 92.4821 18.156 92.4821 16.6192C92.4821 14.8321 92.1418 13.4562 91.4614 12.4912C90.7809 11.5262 89.7065 11.0437 88.2382 11.0437C87.1996 11.0437 86.1789 11.3117 85.1761 11.8478C84.2092 12.3482 83.2601 13.0451 82.329 13.9386C81.3978 14.8321 80.5025 15.8507 79.643 16.9944C78.7834 18.1381 77.9776 19.3354 77.2256 20.5863L76.6346 20.4255C77.0644 18.6385 77.4404 17.0302 77.7628 15.6006C78.1209 14.1352 78.3537 12.7771 78.4611 11.5262C79.5713 11.5262 80.4846 11.4368 81.2009 11.2581C81.9529 11.0794 82.6692 10.8829 83.3497 10.6684C84.0659 10.454 84.8359 10.2574 85.6596 10.0787C86.5191 9.90001 87.6114 9.81066 88.9365 9.81066C90.2616 9.81066 91.4256 9.98936 92.4283 10.3468C93.4311 10.7042 94.2548 11.1867 94.8995 11.7942C95.5799 12.4018 96.0813 13.1166 96.4036 13.9386C96.7618 14.7249 96.9408 15.5648 96.9408 16.4583C96.9408 17.9237 96.6722 19.2461 96.135 20.4255C95.6337 21.6049 94.9532 22.6235 94.0937 23.4813C93.2342 24.339 92.2314 25.0359 91.0853 25.5721C89.9393 26.0724 88.7575 26.3762 87.5398 26.4834C88.3635 26.6621 89.1156 26.9302 89.7961 27.2876C90.5123 27.645 91.1212 28.1275 91.6225 28.7351C92.1597 29.3426 92.5716 30.0932 92.8581 30.9867C93.1804 31.8802 93.3416 32.9345 93.3416 34.1497C93.3416 36.4728 92.7686 38.4385 91.6225 40.0468C90.4765 41.6551 89.0798 42.9596 87.4324 43.9603C85.8208 44.9253 84.1376 45.6223 82.3827 46.0511C80.6278 46.5158 79.1416 46.7481 77.9239 46.7481Z" fill="black"/>
<path d="M90.5016 55.8082C91.182 54.2356 91.8625 52.5558 92.5429 50.7688C93.1876 49.0176 93.7606 46.9089 94.262 44.4428C95.5154 44.3713 96.6077 44.0676 97.5389 43.5315C98.5059 42.9954 99.3475 42.4056 100.064 41.7623C100.923 40.9403 101.783 39.9932 102.642 38.921C103.502 37.813 104.308 36.7051 105.06 35.5971C105.848 34.4892 106.546 33.4527 107.155 32.4878C107.764 31.5228 108.247 30.7365 108.605 30.1289C109.966 27.7701 111.076 25.7329 111.936 24.0174C112.831 22.3018 113.565 20.7293 114.138 19.2997C114.64 17.9058 115.034 16.6906 115.32 15.6542C115.643 14.6177 115.786 13.9029 115.75 13.5098C115.714 12.8664 115.267 12.4018 114.407 12.1159C113.547 11.83 112.437 11.5798 111.076 11.3654V10.6148C112.545 10.6863 114.049 10.7399 115.589 10.7756C117.165 10.8114 118.705 10.8293 120.209 10.8293H133.155C134.086 10.8293 135.089 10.8114 136.164 10.7756C137.238 10.7042 138.384 10.6506 139.602 10.6148V11.3654C138.671 11.5083 137.847 11.7228 137.131 12.0087C136.414 12.2589 135.644 12.652 134.821 13.1881C134.677 13.2953 134.445 13.6706 134.122 14.3139C133.836 14.9215 133.478 15.7257 133.048 16.7264C132.654 17.6914 132.206 18.8172 131.705 20.1038C131.239 21.3547 130.756 22.6771 130.254 24.071L124.882 39.6715C124.56 40.6365 124.309 41.4228 124.13 42.0304C123.951 42.6022 123.987 43.0668 124.238 43.4242C124.488 43.7459 124.972 43.9782 125.688 44.1212C126.44 44.2641 127.568 44.3713 129.073 44.4428C128.571 46.1584 128.159 48.0526 127.837 50.1255C127.515 52.1984 127.282 54.0927 127.139 55.8082H126.44C125.903 54.8075 125.491 53.8782 125.205 53.0205C124.918 52.1627 124.685 51.3407 124.506 50.5544C124.363 49.8038 124.256 49.0533 124.184 48.3028C124.148 47.588 124.112 46.8553 124.077 46.1047C123.504 46.069 122.841 46.0154 122.089 45.9439C121.337 45.9082 120.567 45.8724 119.779 45.8367C119.027 45.801 118.257 45.7652 117.469 45.7295C116.717 45.6937 116.037 45.6759 115.428 45.6759H108.283C107.674 45.6759 106.976 45.6759 106.188 45.6759C105.4 45.7116 104.576 45.7473 103.717 45.7831C102.893 45.8546 102.069 45.926 101.246 45.9975C100.458 46.069 99.7772 46.1584 99.2042 46.2656C98.5596 47.4093 97.9507 48.3742 97.3777 49.1605C96.8405 49.9825 96.2854 50.7331 95.7124 51.4122C95.1036 52.0912 94.4589 52.7703 93.7785 53.4493C93.098 54.1284 92.2922 54.9147 91.3611 55.8082H90.5016ZM110.378 44.55C111.846 44.55 113.171 44.5143 114.353 44.4428C115.571 44.3713 116.932 44.2641 118.436 44.1212L129.61 12.3303C128.929 12.2589 128.052 12.2053 126.977 12.1695C125.939 12.098 125.008 12.0623 124.184 12.0623C123.074 12.0623 122.161 12.098 121.444 12.1695C120.764 12.241 120.191 12.4018 119.725 12.652C119.26 12.8664 118.866 13.206 118.543 13.6706C118.221 14.1352 117.899 14.7607 117.576 15.5469L115.481 20.3183C113.87 24.1067 112.276 27.2876 110.7 29.8609C109.16 32.4342 107.871 34.525 106.832 36.1333C106.045 37.3127 105.364 38.2955 104.791 39.0818C104.254 39.8324 103.788 40.4578 103.394 40.9582C103.036 41.4585 102.75 41.8517 102.535 42.1376C102.356 42.4235 102.23 42.6737 102.159 42.8881C102.051 43.2455 102.087 43.5493 102.266 43.7995C102.481 44.0139 102.857 44.139 103.394 44.1748C103.645 44.1748 104.021 44.2105 104.523 44.282C105.024 44.3177 105.597 44.3535 106.242 44.3892C106.886 44.425 107.549 44.4607 108.229 44.4964C108.945 44.5322 109.662 44.55 110.378 44.55Z" fill="black"/>
<path d="M131.192 45.1398C132.159 44.9253 132.982 44.6573 133.663 44.3356C134.307 44.0139 134.934 43.5672 135.543 42.9954C136.152 42.4235 136.778 41.6908 137.423 40.7973C138.068 39.9038 138.838 38.7959 139.733 37.4735C140.306 36.58 141.04 35.4542 141.936 34.0961C142.867 32.7022 143.887 31.1832 144.998 29.5392C146.144 27.8594 147.361 26.1082 148.651 24.2854C149.976 22.4627 151.319 20.6757 152.68 18.9244C154.041 17.1731 155.384 15.5112 156.709 13.9386C158.07 12.3661 159.377 10.9722 160.63 9.75705L161.866 10.0787V42.1912C161.866 42.7273 161.973 43.1562 162.188 43.4778C162.439 43.7638 162.743 44.014 163.101 44.2284C163.459 44.4071 163.853 44.5679 164.283 44.7109C164.749 44.8181 165.178 44.9611 165.572 45.1398V45.8903C164.534 45.7831 163.477 45.7116 162.403 45.6759C161.364 45.6759 160.326 45.6759 159.287 45.6759C157.998 45.6759 156.709 45.6759 155.419 45.6759C154.13 45.7116 152.841 45.7831 151.551 45.8903V45.1398C152.698 44.8538 153.629 44.5858 154.345 44.3356C155.097 44.0854 155.688 43.7995 156.118 43.4778C156.547 43.1562 156.834 42.7809 156.977 42.352C157.156 41.8874 157.246 41.3156 157.246 40.6365V30.665H146.126C145.911 30.9509 145.606 31.4156 145.213 32.0589C144.854 32.6665 144.443 33.3634 143.977 34.1497C143.511 34.936 143.028 35.7759 142.527 36.6694C142.061 37.5629 141.631 38.4206 141.237 39.2426C140.843 40.0647 140.521 40.7973 140.27 41.4407C140.02 42.084 139.894 42.5665 139.894 42.8881C139.894 43.3528 140.037 43.7102 140.324 43.9603C140.611 44.2105 140.951 44.4071 141.345 44.55C141.774 44.693 142.204 44.8002 142.634 44.8717C143.1 44.9432 143.493 45.0325 143.816 45.1398V45.8903C142.706 45.7831 141.613 45.7116 140.539 45.6759C139.464 45.6759 138.372 45.6759 137.262 45.6759C136.223 45.6759 135.221 45.6937 134.254 45.7295C133.251 45.7652 132.23 45.8188 131.192 45.8903V45.1398ZM157.246 29.1639V14.9572C155.312 17.1374 153.503 19.4248 151.82 21.8193C150.173 24.2139 148.543 26.6621 146.932 29.1639H157.246Z" fill="black"/>
<path d="M165.238 45.0325C166.241 44.8538 167.047 44.693 167.655 44.55C168.264 44.4071 168.748 44.2284 169.106 44.0139C169.5 43.7995 169.804 43.5136 170.019 43.1562C170.27 42.763 170.538 42.2448 170.825 41.6015C171.004 41.2084 171.362 40.297 171.899 38.8674C172.436 37.402 173.063 35.6865 173.779 33.7208C174.496 31.7193 175.248 29.6107 176.036 27.3948C176.824 25.1432 177.54 23.0524 178.184 21.1224C178.829 19.1567 179.366 17.4769 179.796 16.083C180.226 14.6892 180.441 13.8314 180.441 13.5098C180.441 12.795 180.047 12.3125 179.259 12.0623C178.471 11.8121 177.486 11.5798 176.304 11.3654V10.6148C177.522 10.6863 178.722 10.7399 179.904 10.7756C181.121 10.8114 182.339 10.8293 183.556 10.8293C184.846 10.8293 186.117 10.8114 187.371 10.7756C188.66 10.7399 189.949 10.6863 191.238 10.6148V11.3654C190.415 11.4726 189.681 11.6155 189.036 11.7942C188.427 11.9372 187.872 12.1695 187.371 12.4912C186.905 12.8128 186.475 13.2417 186.081 13.7778C185.687 14.2782 185.329 14.9215 185.007 15.7078C184.219 17.6377 183.395 19.7107 182.536 21.9266C181.712 24.1067 181.014 26.1796 180.441 28.1453C180.333 28.5385 180.136 29.1282 179.85 29.9145C179.563 30.7008 179.241 31.5943 178.883 32.595C178.525 33.5957 178.149 34.65 177.755 35.758C177.361 36.8659 177.003 37.9024 176.68 38.8674L200.962 13.9923C200.998 13.9208 201.016 13.8314 201.016 13.7242C201.016 13.2596 200.854 12.8843 200.532 12.5984C200.21 12.3125 199.816 12.098 199.35 11.9551C198.92 11.7764 198.455 11.6513 197.953 11.5798C197.488 11.5083 197.076 11.4368 196.718 11.3654V10.6148C198.007 10.6863 199.296 10.7399 200.586 10.7756C201.875 10.8114 203.164 10.8293 204.454 10.8293C205.671 10.8293 206.889 10.8114 208.107 10.7756C209.324 10.7042 210.542 10.6506 211.76 10.6148V11.3654C210.828 11.5083 210.005 11.7228 209.288 12.0087C208.572 12.2589 207.802 12.652 206.978 13.1881C206.799 13.3311 206.495 13.8493 206.065 14.7428C205.671 15.6363 205.206 16.78 204.669 18.1738C204.131 19.532 203.54 21.0688 202.896 22.7843C202.287 24.4998 201.66 26.2511 201.016 28.0381C200.371 29.7894 199.762 31.5228 199.189 33.2383C198.616 34.9181 198.097 36.4549 197.631 37.8488C197.201 39.2069 196.843 40.3327 196.557 41.2262C196.306 42.084 196.181 42.5843 196.181 42.7273C196.181 43.1204 196.378 43.4778 196.772 43.7995C197.201 44.0854 197.685 44.3356 198.222 44.55C198.759 44.7287 199.296 44.8717 199.834 44.9789C200.371 45.0862 200.783 45.1398 201.069 45.1398V45.8903C199.887 45.8188 198.706 45.7652 197.524 45.7295C196.378 45.6937 195.214 45.6759 194.032 45.6759C192.671 45.6759 191.292 45.6937 189.895 45.7295C188.499 45.7652 187.12 45.8188 185.759 45.8903V45.1398C186.798 44.9968 187.621 44.8538 188.23 44.7109C188.875 44.5322 189.412 44.2641 189.842 43.9067C190.272 43.5136 190.648 42.9954 190.97 42.352C191.292 41.673 191.668 40.7616 192.098 39.6179L196.234 28.1453C196.342 27.7879 196.539 27.1804 196.825 26.3226C197.148 25.4291 197.506 24.4462 197.9 23.374C198.294 22.2661 198.688 21.1403 199.082 19.9966C199.511 18.8172 199.887 17.745 200.21 16.78L175.821 41.7087C175.606 42.4235 175.498 42.906 175.498 43.1562C175.498 43.4778 175.66 43.7638 175.982 44.0139C176.34 44.2641 176.734 44.4786 177.164 44.6573C177.594 44.8002 178.023 44.9253 178.453 45.0325C178.883 45.104 179.205 45.1398 179.42 45.1398V45.8903C178.274 45.8188 177.11 45.7652 175.928 45.7295C174.746 45.6937 173.582 45.6759 172.436 45.6759C171.255 45.6759 170.055 45.6937 168.837 45.7295C167.655 45.7652 166.456 45.8188 165.238 45.8903V45.0325ZM193.71 8.20235C192.707 8.20235 191.919 8.00578 191.346 7.61264C190.773 7.18376 190.486 6.62979 190.486 5.95073C190.486 5.12871 190.719 4.46751 191.185 3.96715C191.686 3.46679 192.277 3.05578 192.958 2.73412C193.423 3.41318 193.907 3.94928 194.408 4.34242C194.909 4.73557 195.661 4.93214 196.664 4.93214C197.452 4.93214 198.258 4.78918 199.082 4.50326C199.941 4.1816 200.765 3.80632 201.553 3.37744C202.341 2.91282 203.075 2.39459 203.755 1.82275C204.472 1.2509 205.08 0.696933 205.582 0.160832C205.689 0.0536105 205.779 0 205.85 0C205.994 0 206.065 0.0536105 206.065 0.160832C206.065 0.303792 206.011 0.428882 205.904 0.536101C204.973 1.53683 203.988 2.50181 202.949 3.43105C201.947 4.32455 200.926 5.12871 199.887 5.84351C198.849 6.55831 197.792 7.13015 196.718 7.55903C195.679 7.98792 194.677 8.20235 193.71 8.20235Z" fill="black"/>
<path d="M233.36 46.7481C231.677 46.7481 230.137 46.4621 228.741 45.8903C227.38 45.3185 226.216 44.5143 225.249 43.4778C224.282 42.4414 223.53 41.2262 222.992 39.8324C222.491 38.4385 222.24 36.9017 222.24 35.2219C222.24 32.041 222.885 28.9316 224.174 25.8937C225.464 22.8201 227.218 20.1038 229.439 17.745C231.659 15.3504 234.238 13.4204 237.175 11.9551C240.147 10.4897 243.299 9.75705 246.629 9.75705C247.775 9.75705 248.939 9.90001 250.121 10.1859C251.303 10.4719 252.395 10.865 253.398 11.3654C252.968 13.0809 252.574 14.7964 252.216 16.5119C251.858 18.2275 251.518 19.943 251.196 21.6585H250.658C250.587 20.4076 250.426 19.1567 250.175 17.9058C249.96 16.6549 249.566 15.5291 248.993 14.5284C248.456 13.5276 247.722 12.7235 246.79 12.1159C245.859 11.4726 244.66 11.1509 243.191 11.1509C241.58 11.1509 240.058 11.5262 238.625 12.2767C237.193 13.0273 235.885 14.028 234.703 15.2789C233.522 16.5298 232.465 17.9594 231.534 19.5677C230.639 21.176 229.869 22.8379 229.224 24.5535C228.615 26.269 228.132 27.9666 227.774 29.6464C227.451 31.3262 227.29 32.863 227.29 34.2569C227.29 35.615 227.433 36.9017 227.72 38.1168C228.042 39.2963 228.526 40.3506 229.17 41.2798C229.815 42.1733 230.657 42.8881 231.695 43.4242C232.77 43.9246 234.059 44.1748 235.563 44.1748C237.139 44.1748 238.607 43.871 239.968 43.2634C241.329 42.6558 242.582 41.8695 243.728 40.9046C244.91 39.9396 245.985 38.8674 246.952 37.6879C247.919 36.4728 248.796 35.2576 249.584 34.0425L250.282 34.525C249.53 35.9903 248.545 37.4556 247.328 38.921C246.11 40.3506 244.749 41.6551 243.245 42.8345C241.777 43.9782 240.183 44.9253 238.464 45.6759C236.781 46.3907 235.08 46.7481 233.36 46.7481Z" fill="black"/>
<path d="M248.127 45.1398C249.094 44.9253 249.918 44.6573 250.598 44.3356C251.243 44.0139 251.87 43.5672 252.479 42.9954C253.087 42.4235 253.714 41.6908 254.359 40.7973C255.003 39.9038 255.773 38.7959 256.669 37.4735C257.242 36.58 257.976 35.4542 258.871 34.0961C259.802 32.7022 260.823 31.1832 261.933 29.5392C263.079 27.8594 264.297 26.1082 265.586 24.2854C266.911 22.4627 268.254 20.6757 269.615 18.9244C270.976 17.1731 272.319 15.5112 273.644 13.9386C275.005 12.3661 276.312 10.9722 277.566 9.75705L278.801 10.0787V42.1912C278.801 42.7273 278.909 43.1562 279.124 43.4778C279.374 43.7638 279.679 44.014 280.037 44.2284C280.395 44.4071 280.789 44.5679 281.219 44.7109C281.684 44.8181 282.114 44.9611 282.508 45.1398V45.8903C281.469 45.7831 280.413 45.7116 279.339 45.6759C278.3 45.6759 277.261 45.6759 276.223 45.6759C274.934 45.6759 273.644 45.6759 272.355 45.6759C271.066 45.7116 269.776 45.7831 268.487 45.8903V45.1398C269.633 44.8538 270.564 44.5858 271.281 44.3356C272.033 44.0854 272.624 43.7995 273.053 43.4778C273.483 43.1562 273.77 42.7809 273.913 42.352C274.092 41.8874 274.181 41.3156 274.181 40.6365V30.665H263.061C262.846 30.9509 262.542 31.4156 262.148 32.0589C261.79 32.6665 261.378 33.3634 260.913 34.1497C260.447 34.936 259.964 35.7759 259.462 36.6694C258.997 37.5629 258.567 38.4206 258.173 39.2426C257.779 40.0647 257.457 40.7973 257.206 41.4407C256.955 42.084 256.83 42.5665 256.83 42.8881C256.83 43.3528 256.973 43.7102 257.26 43.9603C257.546 44.2105 257.886 44.4071 258.28 44.55C258.71 44.693 259.14 44.8002 259.57 44.8717C260.035 44.9432 260.429 45.0325 260.751 45.1398V45.8903C259.641 45.7831 258.549 45.7116 257.474 45.6759C256.4 45.6759 255.308 45.6759 254.198 45.6759C253.159 45.6759 252.156 45.6937 251.189 45.7295C250.186 45.7652 249.166 45.8188 248.127 45.8903V45.1398ZM274.181 29.1639V14.9572C272.248 17.1374 270.439 19.4248 268.756 21.8193C267.108 24.2139 265.479 26.6621 263.867 29.1639H274.181Z" fill="black"/>
<path d="M280.992 44.8181C281.708 44.0676 282.585 43.0847 283.624 41.8695C284.663 40.6186 285.791 39.2248 287.008 37.6879C288.262 36.1154 289.551 34.4713 290.876 32.7558C292.237 31.0045 293.562 29.289 294.852 27.6092C296.177 25.8937 297.412 24.2497 298.558 22.6771C299.74 21.0688 300.761 19.6571 301.62 18.4419C302.516 17.191 303.214 16.1724 303.715 15.3861C304.253 14.5998 304.521 14.1531 304.521 14.0459C304.521 13.5455 304.253 13.1345 303.715 12.8128C303.214 12.4912 302.623 12.241 301.943 12.0623C301.262 11.8478 300.582 11.7049 299.901 11.6334C299.257 11.5262 298.773 11.4368 298.451 11.3654V10.6148C299.597 10.6863 300.761 10.7399 301.943 10.7756C303.124 10.8114 304.288 10.8293 305.434 10.8293C306.366 10.8293 307.297 10.8114 308.228 10.7756C309.159 10.7042 310.09 10.6506 311.021 10.6148C310.341 12.795 309.732 15.0287 309.195 17.3161C308.658 19.5677 308.138 21.8551 307.637 24.1782C307.171 26.4656 306.688 28.7887 306.186 31.1475C305.685 33.4706 305.112 35.8116 304.467 38.1704L304.575 38.2777C305.685 36.8838 306.921 35.347 308.282 33.6672C309.678 31.9874 311.075 30.2719 312.472 28.5206C313.904 26.7336 315.301 24.9823 316.662 23.2668C318.023 21.5513 319.258 19.9609 320.369 18.4955C321.479 16.9944 322.41 15.7078 323.162 14.6356C323.95 13.5634 324.469 12.7771 324.72 12.2767C324.863 11.9908 324.971 11.7228 325.042 11.4726C325.114 11.1867 325.185 10.9007 325.257 10.6148C326.152 10.6506 327.03 10.7042 327.889 10.7756C328.749 10.8114 329.626 10.8293 330.522 10.8293C331.31 10.8293 332.097 10.8114 332.885 10.7756C333.673 10.7399 334.461 10.6863 335.249 10.6148V11.3654C334.21 11.6155 333.351 11.8657 332.67 12.1159C331.99 12.3303 331.435 12.5627 331.005 12.8128C330.575 13.063 330.235 13.3311 329.984 13.617C329.77 13.8672 329.591 14.1531 329.447 14.4747C329.304 14.8679 329.053 15.5469 328.695 16.5119C328.337 17.4769 327.907 18.6385 327.406 19.9966C326.94 21.319 326.421 22.7665 325.848 24.339C325.311 25.9116 324.756 27.5199 324.183 29.1639C323.61 30.7722 323.055 32.3627 322.517 33.9352C321.98 35.4721 321.497 36.8659 321.067 38.1168C320.673 39.3677 320.351 40.4221 320.1 41.2798C319.849 42.1376 319.724 42.6916 319.724 42.9417C319.724 43.2277 319.939 43.4957 320.369 43.7459C320.834 43.9961 321.353 44.2284 321.926 44.4428C322.499 44.6215 323.055 44.7824 323.592 44.9253C324.165 45.0325 324.577 45.104 324.827 45.1398V45.8903C323.466 45.7831 322.105 45.7116 320.745 45.6759C319.419 45.6759 318.077 45.6759 316.716 45.6759C315.534 45.6759 314.352 45.6937 313.17 45.7295C311.988 45.7652 310.806 45.8188 309.625 45.8903L309.786 45.1398C310.466 44.9253 311.075 44.7645 311.612 44.6573C312.149 44.5143 312.615 44.3535 313.009 44.1748C313.403 43.9961 313.743 43.7638 314.03 43.4778C314.352 43.1919 314.638 42.7809 314.889 42.2448C315.211 41.5658 315.605 40.5829 316.071 39.2963C316.572 37.9739 317.092 36.5085 317.629 34.9002C318.202 33.2562 318.793 31.5228 319.402 29.7C320.046 27.8415 320.691 26.0009 321.336 24.1782C321.98 22.3554 322.607 20.622 323.216 18.978C323.825 17.334 324.398 15.8865 324.935 14.6356L324.827 14.4747C324.433 15.0108 323.771 15.8865 322.84 17.1016C321.909 18.3168 320.816 19.7285 319.563 21.3368C318.309 22.9452 316.948 24.6964 315.48 26.5906C314.012 28.4491 312.525 30.3255 311.021 32.2197C309.553 34.1139 308.12 35.9367 306.724 37.6879C305.327 39.4392 304.073 40.9939 302.963 42.352C301.889 43.6744 301.011 44.7466 300.331 45.5686C299.651 46.3549 299.274 46.7481 299.203 46.7481C298.988 46.7481 298.863 46.6587 298.827 46.48C298.791 46.3371 298.773 46.212 298.773 46.1047C298.773 45.8546 298.898 45.1576 299.149 44.0139C299.4 42.8345 299.722 41.3692 300.116 39.6179C300.546 37.8309 301.011 35.8652 301.513 33.7208C302.014 31.5764 302.498 29.4141 302.963 27.234C303.465 25.0181 303.912 22.9094 304.306 20.908C304.7 18.8708 305.005 17.0838 305.219 15.5469L305.112 15.4397C304.682 16.0473 303.93 17.0838 302.856 18.5491C301.817 20.0145 300.635 21.6942 299.31 23.5885C297.985 25.447 296.606 27.4127 295.174 29.4856C293.741 31.5585 292.434 33.5064 291.252 35.3291C290.07 37.1161 289.086 38.6708 288.298 39.9932C287.546 41.3156 287.17 42.1733 287.17 42.5665C287.17 43.0668 287.402 43.46 287.868 43.7459C288.333 44.0318 288.871 44.2641 289.479 44.4428C290.124 44.6215 290.733 44.7645 291.306 44.8717C291.915 44.9432 292.345 45.0325 292.595 45.1398V45.8903C291.449 45.8188 290.303 45.7652 289.157 45.7295C288.047 45.6937 286.919 45.6759 285.773 45.6759C284.949 45.6759 284.125 45.6759 283.302 45.6759C282.478 45.7116 281.654 45.7831 280.831 45.8903L280.992 44.8181Z" fill="black"/>
<path d="M334.151 46.1047C332.969 46.1047 331.984 45.7652 331.197 45.0862C330.409 44.3713 330.015 43.46 330.015 42.352C330.015 41.6372 330.283 41.0118 330.82 40.4757C331.358 39.9038 332.074 39.6179 332.969 39.6179C333.686 39.6179 334.312 39.886 334.849 40.4221C335.422 40.9582 335.709 41.7444 335.709 42.7809C335.709 43.1383 335.691 43.4064 335.655 43.5851C335.978 43.5851 336.318 43.5493 336.676 43.4778C337.07 43.3706 337.518 43.1741 338.019 42.8881C338.556 42.6022 339.165 42.1912 339.845 41.6551C340.526 41.119 341.314 40.4042 342.209 39.5107C342.424 39.2963 342.567 38.9567 342.639 38.4921C342.711 37.9917 342.746 37.4378 342.746 36.8302C342.746 35.8295 342.693 34.9538 342.585 34.2033L339.953 13.9386C339.881 13.474 339.684 13.0988 339.362 12.8128C339.04 12.5269 338.646 12.2946 338.18 12.1159C337.715 11.9372 337.231 11.7942 336.73 11.687C336.264 11.5798 335.834 11.4726 335.44 11.3654V10.6148C336.801 10.6863 338.144 10.7399 339.469 10.7756C340.83 10.8114 342.191 10.8293 343.552 10.8293C344.555 10.8293 345.558 10.8114 346.56 10.7756C347.563 10.7042 348.584 10.6506 349.622 10.6148V11.3654C348.906 11.4726 348.244 11.5977 347.635 11.7406C347.062 11.8836 346.543 12.098 346.077 12.3839C345.611 12.6699 345.253 13.063 345.003 13.5634C344.752 14.028 344.627 14.6356 344.627 15.3861C344.627 15.5291 344.627 15.6899 344.627 15.8686C344.627 16.0116 344.644 16.1724 344.68 16.3511L346.936 34.1497C347.509 33.4349 348.1 32.6665 348.709 31.8444C349.318 30.9867 349.981 30.0753 350.697 29.1103C352.129 27.1089 353.526 25.2146 354.887 23.4276C356.248 21.6049 357.466 19.9966 358.54 18.6027C359.614 17.2089 360.474 16.0652 361.119 15.1717C361.799 14.2782 362.139 13.7421 362.139 13.5634C362.139 13.3489 361.942 13.1345 361.548 12.9201C361.19 12.6699 360.707 12.4554 360.098 12.2767C359.525 12.0623 358.88 11.8836 358.164 11.7406C357.448 11.5619 356.767 11.4368 356.123 11.3654V10.6148C357.233 10.6506 358.325 10.7042 359.4 10.7756C360.474 10.8114 361.566 10.8293 362.676 10.8293C363.536 10.8293 364.396 10.8114 365.255 10.7756C366.115 10.7042 366.974 10.6506 367.834 10.6148V11.3654C367.332 11.8657 366.509 12.7414 365.362 13.9923C364.216 15.2074 362.891 16.6728 361.387 18.3883C359.883 20.1038 358.289 21.998 356.606 24.071C354.923 26.1082 353.311 28.1632 351.771 30.2361C349.085 33.8459 346.793 36.7051 344.895 38.8138C343.033 40.9224 341.421 42.5129 340.06 43.5851C338.735 44.6573 337.607 45.3542 336.676 45.6759C335.781 45.9618 334.939 46.1047 334.151 46.1047Z" fill="black"/>
<path d="M389.686 46.7481C388.11 46.7481 386.749 46.48 385.603 45.9439C384.493 45.4436 383.579 44.7287 382.863 43.7995C382.147 42.8703 381.61 41.7802 381.251 40.5293C380.893 39.2784 380.714 37.9024 380.714 36.4013C380.714 33.971 381.18 31.4156 382.111 28.7351H374.751C374.68 29.1282 374.501 29.7179 374.214 30.5042C373.963 31.2905 373.659 32.184 373.301 33.1847C372.979 34.1497 372.62 35.1861 372.227 36.2941C371.833 37.3663 371.474 38.367 371.152 39.2963C370.83 40.2255 370.561 41.0475 370.346 41.7623C370.131 42.4414 370.024 42.906 370.024 43.1562C370.024 43.4778 370.185 43.7638 370.507 44.0139C370.866 44.2641 371.26 44.4786 371.689 44.6573C372.119 44.8002 372.549 44.9253 372.979 45.0325C373.408 45.104 373.731 45.1398 373.946 45.1398V45.8903C372.799 45.8188 371.636 45.7652 370.454 45.7295C369.272 45.6937 368.108 45.6759 366.962 45.6759C365.78 45.6759 364.58 45.6937 363.363 45.7295C362.181 45.7652 360.981 45.8188 359.763 45.8903V45.0325C360.766 44.8538 361.572 44.693 362.181 44.55C362.79 44.4071 363.291 44.2284 363.685 44.0139C364.079 43.7995 364.383 43.5136 364.598 43.1562C364.849 42.763 365.118 42.2448 365.404 41.6015C365.583 41.2084 365.941 40.297 366.478 38.8674C367.016 37.402 367.624 35.6865 368.305 33.7208C369.021 31.7193 369.773 29.6107 370.561 27.3948C371.349 25.1432 372.065 23.0524 372.71 21.1224C373.355 19.1567 373.892 17.4769 374.322 16.083C374.751 14.6892 374.966 13.8314 374.966 13.5098C374.966 12.795 374.572 12.3125 373.784 12.0623C372.996 11.8121 372.012 11.5798 370.83 11.3654V10.6148C372.047 10.6863 373.247 10.7399 374.429 10.7756C375.647 10.8114 376.864 10.8293 378.082 10.8293C379.371 10.8293 380.643 10.8114 381.896 10.7756C383.185 10.7399 384.475 10.6863 385.764 10.6148V11.3654C384.94 11.4726 384.206 11.6155 383.561 11.7942C382.953 11.9372 382.397 12.1695 381.896 12.4912C381.431 12.8128 381.001 13.2417 380.607 13.7778C380.213 14.2782 379.855 14.9215 379.532 15.7078C378.745 17.6377 377.992 19.5677 377.276 21.4977C376.56 23.3919 375.897 25.304 375.289 27.234H382.702C383.597 25.0181 384.743 22.8558 386.14 20.7471C387.573 18.6385 389.184 16.78 390.975 15.1717C392.765 13.5276 394.699 12.2231 396.777 11.2581C398.89 10.2574 401.056 9.75705 403.277 9.75705C404.817 9.75705 406.16 10.0251 407.306 10.5612C408.452 11.0616 409.383 11.7764 410.099 12.7056C410.815 13.6349 411.353 14.7249 411.711 15.9758C412.069 17.2267 412.248 18.6027 412.248 20.1038C412.248 21.9266 411.961 23.8565 411.388 25.8937C410.851 27.9309 410.081 29.9323 409.078 31.8981C408.076 33.8638 406.876 35.758 405.479 37.5807C404.082 39.3677 402.543 40.9403 400.859 42.2984C399.212 43.6565 397.439 44.7466 395.541 45.5686C393.643 46.3549 391.691 46.7481 389.686 46.7481ZM391.834 45.0325C393.446 45.0325 394.95 44.55 396.347 43.5851C397.744 42.5843 398.997 41.2977 400.107 39.7251C401.253 38.1526 402.256 36.4013 403.116 34.4713C404.011 32.5056 404.763 30.5578 405.372 28.6278C405.981 26.6621 406.428 24.8215 406.715 23.106C407.037 21.3547 407.198 19.9251 407.198 18.8172C407.198 17.7807 407.091 16.7979 406.876 15.8686C406.697 14.9394 406.375 14.1352 405.909 13.4562C405.443 12.7414 404.799 12.1874 403.975 11.7942C403.187 11.3654 402.184 11.1509 400.967 11.1509C399.391 11.1509 397.905 11.6513 396.508 12.652C395.147 13.617 393.894 14.8858 392.748 16.4583C391.637 18.0309 390.635 19.8 389.739 21.7657C388.88 23.6957 388.146 25.6435 387.537 27.6092C386.964 29.5392 386.516 31.3798 386.194 33.1311C385.907 34.8466 385.764 36.2583 385.764 37.3663C385.764 38.4027 385.853 39.3856 386.033 40.3148C386.247 41.2441 386.57 42.0661 387 42.7809C387.465 43.46 388.092 44.014 388.88 44.4428C389.668 44.836 390.652 45.0325 391.834 45.0325Z" fill="black"/>
<path d="M14.0209 105.719C12.3377 105.719 10.7977 105.433 9.40102 104.861C8.04011 104.29 6.87617 103.485 5.90921 102.449C4.94225 101.413 4.19017 100.197 3.65297 98.8035C3.15158 97.4097 2.90088 95.8728 2.90088 94.1931C2.90088 91.0122 3.54553 87.9028 4.83481 84.8649C6.12409 81.7912 7.87895 79.075 10.0994 76.7161C12.3198 74.3216 14.8984 72.3916 17.8351 70.9262C20.8076 69.4609 23.9592 68.7282 27.2898 68.7282C28.4358 68.7282 29.5998 68.8712 30.7816 69.1571C31.9635 69.443 33.0558 69.8362 34.0585 70.3365C33.6288 72.0521 33.2348 73.7676 32.8767 75.4831C32.5186 77.1986 32.1783 78.9142 31.856 80.6297H31.3188C31.2472 79.3788 31.086 78.1279 30.8353 76.877C30.6205 75.6261 30.2265 74.5003 29.6535 73.4995C29.1163 72.4988 28.3821 71.6947 27.451 71.0871C26.5198 70.4438 25.3201 70.1221 23.8517 70.1221C22.2401 70.1221 20.718 70.4974 19.2855 71.2479C17.853 71.9985 16.5458 72.9992 15.3639 74.2501C14.1821 75.501 13.1256 76.9306 12.1945 78.5389C11.2991 80.1472 10.5291 81.8091 9.8845 83.5246C9.27567 85.2402 8.79219 86.9378 8.43405 88.6176C8.11173 90.2974 7.95057 91.8342 7.95057 93.2281C7.95057 94.5862 8.09383 95.8728 8.38033 97.088C8.70265 98.2674 9.18614 99.3218 9.83078 100.251C10.4754 101.145 11.317 101.859 12.3556 102.395C13.43 102.896 14.7193 103.146 16.2235 103.146C17.7993 103.146 19.2676 102.842 20.6285 102.235C21.9894 101.627 23.2429 100.841 24.3889 99.8757C25.5708 98.9108 26.6452 97.8386 27.6121 96.6591C28.5791 95.444 29.4565 94.2288 30.2444 93.0136L30.9428 93.4961C30.1907 94.9615 29.2058 96.4268 27.9882 97.8922C26.7705 99.3218 25.4096 100.626 23.9054 101.806C22.4371 102.949 20.8434 103.897 19.1244 104.647C17.4411 105.362 15.74 105.719 14.0209 105.719Z" fill="black"/>
<path d="M31.1514 103.95C31.5095 103.843 31.9572 103.736 32.4944 103.628C32.9957 103.521 33.4971 103.396 33.9985 103.253C34.4999 103.074 34.9655 102.878 35.3952 102.663C35.825 102.413 36.1115 102.127 36.2548 101.806C36.6845 100.876 37.2217 99.5362 37.8664 97.7849C38.5468 96.0337 39.2631 94.1037 40.0152 91.995C40.7673 89.8864 41.5193 87.7241 42.2714 85.5082C43.0593 83.2923 43.7577 81.2551 44.3665 79.3967C44.9753 77.5382 45.4767 75.9835 45.8707 74.7326C46.2646 73.4817 46.4616 72.7847 46.4616 72.6418C46.4616 72.2844 46.2467 71.9806 45.8169 71.7304C45.423 71.4802 44.9574 71.2658 44.4202 71.0871C43.883 70.8726 43.3279 70.7118 42.7549 70.6046C42.1819 70.4974 41.7342 70.408 41.4119 70.3365V69.586C42.9161 69.6575 44.3844 69.7111 45.8169 69.7468C47.2495 69.7826 48.7178 69.8004 50.222 69.8004C51.368 69.8004 52.5319 69.7826 53.7138 69.7468C54.8956 69.6753 56.0596 69.6217 57.2056 69.586V70.3365C56.6684 70.408 56.0954 70.4974 55.4866 70.6046C54.8777 70.7118 54.2868 70.8726 53.7138 71.0871C53.1766 71.3015 52.6752 71.5874 52.2096 71.9448C51.7799 72.3022 51.4576 72.7847 51.2427 73.3923L46.8913 85.4546H49.6311C51.4217 85.4546 52.9259 85.0793 54.1436 84.3288C55.397 83.5425 56.5072 82.5954 57.4742 81.4874C58.4412 80.3438 59.3186 79.1286 60.1065 77.842C60.9302 76.5196 61.8076 75.3044 62.7388 74.1965C63.8848 72.5524 64.995 71.3015 66.0694 70.4438C67.1796 69.5503 68.3077 69.1035 69.4538 69.1035C70.4566 69.1035 71.2265 69.3894 71.7637 69.9613C72.3368 70.4974 72.6233 71.1586 72.6233 71.9448C72.6233 72.6954 72.3905 73.3566 71.9249 73.9284C71.4593 74.5003 70.8147 74.7862 69.991 74.7862C69.1673 74.7862 68.5405 74.6075 68.1108 74.2501C67.7168 73.8569 67.4661 73.4817 67.3587 73.1243C66.9647 73.1243 66.535 73.2672 66.0694 73.5531C65.6038 73.8391 65.1204 74.1965 64.619 74.6254C64.1534 75.0542 63.6878 75.5367 63.2222 76.0728C62.7567 76.6089 62.3627 77.1272 62.0404 77.6275C61.539 78.2708 60.9839 79.0214 60.3751 79.8791C59.8021 80.7012 59.1395 81.5232 58.3874 82.3452C57.6712 83.1315 56.8475 83.8642 55.9163 84.5432C55.021 85.2223 53.9824 85.7405 52.8006 86.0979V86.2051C54.2689 86.634 55.4149 87.2237 56.2386 87.9743C57.0623 88.6891 57.6712 89.529 58.0651 90.494C58.4949 91.4589 58.7814 92.549 58.9246 93.7642C59.1037 94.9436 59.247 96.1945 59.3544 97.5169L59.4618 98.6963C59.5693 99.84 59.7484 100.751 59.999 101.43C60.2856 102.109 60.6795 102.646 61.1809 103.039C61.6823 103.432 62.309 103.7 63.0611 103.843C63.849 103.986 64.798 104.075 65.9082 104.111L65.8545 104.647L61.5032 104.861C60.1781 104.861 59.0679 104.736 58.1726 104.486C57.313 104.236 56.6147 103.825 56.0775 103.253C55.5403 102.681 55.1284 101.949 54.8419 101.055C54.5912 100.126 54.4122 99.018 54.3047 97.7313L54.1973 96.4983C54.0898 95.0687 53.9466 93.7463 53.7675 92.5311C53.6243 91.316 53.3019 90.2795 52.8006 89.4218C52.335 88.564 51.6187 87.9028 50.6517 87.4382C49.6848 86.9378 48.3239 86.6876 46.569 86.6876C46.2109 87.6884 45.7453 88.9571 45.1723 90.494C44.5993 92.0308 44.0442 93.5676 43.507 95.1044C42.9698 96.6413 42.5042 98.053 42.1103 99.3396C41.7521 100.626 41.5731 101.502 41.5731 101.967C41.5731 102.181 41.8596 102.413 42.4326 102.663C43.0056 102.878 43.6502 103.092 44.3665 103.307C45.0828 103.521 45.7811 103.7 46.4616 103.843C47.1778 103.986 47.6613 104.075 47.912 104.111V104.861C46.4079 104.79 44.8858 104.736 43.3458 104.701C41.8417 104.665 40.3375 104.647 38.8333 104.647C37.544 104.647 36.2548 104.665 34.9655 104.701C33.712 104.736 32.4406 104.79 31.1514 104.861V103.95Z" fill="black"/>
<path d="M64.6185 104.111C65.5855 103.897 66.4092 103.628 67.0897 103.307C67.7343 102.985 68.361 102.538 68.9699 101.967C69.5787 101.395 70.2054 100.662 70.8501 99.7685C71.4947 98.875 72.2647 97.7671 73.16 96.4447C73.7331 95.5512 74.4672 94.4254 75.3626 93.0672C76.2937 91.6734 77.3144 90.1544 78.4246 88.5104C79.5706 86.8306 80.7883 85.0793 82.0776 83.2566C83.4027 81.4338 84.7457 79.6468 86.1066 77.8956C87.4675 76.1443 88.8105 74.4824 90.1356 72.9098C91.4965 71.3373 92.8037 69.9434 94.0572 68.7282L95.2927 69.0499V101.162C95.2927 101.698 95.4002 102.127 95.615 102.449C95.8657 102.735 96.1702 102.985 96.5283 103.2C96.8864 103.378 97.2804 103.539 97.7101 103.682C98.1757 103.789 98.6055 103.932 98.9994 104.111V104.861C97.9608 104.754 96.9043 104.683 95.8299 104.647C94.7913 104.647 93.7527 104.647 92.7142 104.647C91.4249 104.647 90.1356 104.647 88.8463 104.647C87.557 104.683 86.2677 104.754 84.9785 104.861V104.111C86.1245 103.825 87.0556 103.557 87.7719 103.307C88.524 103.057 89.1149 102.771 89.5447 102.449C89.9744 102.127 90.2609 101.752 90.4042 101.323C90.5833 100.859 90.6728 100.287 90.6728 99.6077V89.6362H79.5527C79.3379 89.9221 79.0334 90.3867 78.6395 91.0301C78.2814 91.6376 77.8695 92.3346 77.4039 93.1209C76.9384 93.9071 76.4549 94.747 75.9535 95.6405C75.4879 96.534 75.0582 97.3918 74.6642 98.2138C74.2703 99.0359 73.9479 99.7685 73.6972 100.412C73.4465 101.055 73.3212 101.538 73.3212 101.859C73.3212 102.324 73.4645 102.681 73.751 102.932C74.0375 103.182 74.3777 103.378 74.7716 103.521C75.2014 103.664 75.6312 103.771 76.0609 103.843C76.5265 103.914 76.9205 104.004 77.2428 104.111V104.861C76.1326 104.754 75.0402 104.683 73.9658 104.647C72.8914 104.647 71.7991 104.647 70.6889 104.647C69.6503 104.647 68.6476 104.665 67.6806 104.701C66.6778 104.736 65.6571 104.79 64.6185 104.861V104.111ZM90.6728 88.1351V73.9284C88.7389 76.1086 86.9303 78.3959 85.2471 80.7905C83.5996 83.1851 81.9701 85.6333 80.3585 88.1351H90.6728Z" fill="black"/>
<path d="M98.6649 104.004C99.6677 103.825 100.473 103.664 101.082 103.521C101.691 103.378 102.175 103.2 102.533 102.985C102.927 102.771 103.249 102.485 103.5 102.127C103.75 101.734 104.001 101.216 104.252 100.573C104.431 100.18 104.789 99.2682 105.326 97.8385C105.863 96.3732 106.49 94.6577 107.206 92.692C107.923 90.6905 108.675 88.5819 109.463 86.366C110.251 84.1143 110.967 82.0236 111.611 80.0936C112.256 78.1279 112.793 76.4481 113.223 75.0542C113.653 73.6604 113.868 72.8026 113.868 72.4809C113.868 71.7661 113.474 71.2836 112.686 71.0335C111.898 70.7833 110.913 70.551 109.731 70.3365V69.586C110.949 69.6575 112.149 69.7111 113.33 69.7468C114.548 69.7826 115.766 69.8004 116.983 69.8004C118.273 69.8004 119.544 69.7826 120.798 69.7468C122.087 69.7111 123.376 69.6575 124.665 69.586V70.3365C123.842 70.4438 123.108 70.5867 122.463 70.7654C121.854 70.9084 121.299 71.1407 120.798 71.4623C120.332 71.784 119.902 72.2129 119.508 72.749C119.114 73.2494 118.756 73.8927 118.434 74.679C117.646 76.6089 116.894 78.5389 116.178 80.4689C115.461 82.3631 114.799 84.2752 114.19 86.2051H129.447C129.554 85.8835 129.733 85.3474 129.984 84.5968C130.234 83.8463 130.521 83.0243 130.843 82.1308C131.201 81.2015 131.56 80.2365 131.918 79.2358C132.276 78.1994 132.598 77.2522 132.885 76.3945C133.171 75.501 133.404 74.7326 133.583 74.0892C133.798 73.4102 133.905 72.9456 133.905 72.6954C133.905 72.2308 133.744 71.8555 133.422 71.5696C133.099 71.2837 132.706 71.0692 132.24 70.9262C131.81 70.7476 131.345 70.6225 130.843 70.551C130.378 70.4795 129.966 70.408 129.608 70.3365V69.586C130.897 69.6575 132.186 69.7111 133.476 69.7468C134.765 69.7826 136.054 69.8004 137.343 69.8004C138.561 69.8004 139.779 69.7826 140.996 69.7468C142.214 69.6753 143.432 69.6217 144.649 69.586V70.3365C143.718 70.4795 142.894 70.6939 142.178 70.9799C141.462 71.23 140.692 71.6232 139.868 72.1593C139.689 72.3022 139.385 72.8205 138.955 73.714C138.561 74.6075 138.095 75.7512 137.558 77.145C137.021 78.5032 136.43 80.04 135.785 81.7555C135.177 83.471 134.55 85.2223 133.905 87.0093C133.261 88.7606 132.652 90.494 132.079 92.2095C131.506 93.8893 130.986 95.4261 130.521 96.82C130.091 98.1781 129.733 99.3039 129.447 100.197C129.196 101.055 129.07 101.556 129.07 101.698C129.07 102.092 129.267 102.449 129.661 102.771C130.091 103.057 130.575 103.307 131.112 103.521C131.649 103.7 132.186 103.843 132.723 103.95C133.261 104.057 133.673 104.111 133.959 104.111V104.861C132.777 104.79 131.595 104.736 130.413 104.701C129.267 104.665 128.104 104.647 126.922 104.647C125.561 104.647 124.182 104.665 122.785 104.701C121.389 104.736 120.01 104.79 118.649 104.861V104.111C119.687 103.968 120.511 103.825 121.12 103.682C121.765 103.503 122.302 103.235 122.732 102.878C123.161 102.485 123.537 101.967 123.86 101.323C124.182 100.644 124.558 99.7328 124.988 98.5891L128.909 87.7062H113.707C113.563 88.0994 113.348 88.707 113.062 89.529C112.811 90.3153 112.507 91.2088 112.149 92.2095C111.791 93.1745 111.414 94.1931 111.021 95.2653C110.662 96.3375 110.322 97.3382 110 98.2674C109.678 99.1967 109.409 100.019 109.194 100.734C109.015 101.413 108.925 101.877 108.925 102.127C108.925 102.449 109.087 102.735 109.409 102.985C109.767 103.235 110.161 103.45 110.591 103.628C111.021 103.771 111.45 103.896 111.88 104.004C112.31 104.075 112.632 104.111 112.847 104.111V104.861C111.701 104.79 110.537 104.736 109.355 104.701C108.173 104.665 107.009 104.647 105.863 104.647C104.682 104.647 103.482 104.665 102.264 104.701C101.082 104.736 99.8826 104.79 98.6649 104.861V104.004Z" fill="black"/>
<path d="M133.834 114.779C134.515 113.207 135.195 111.527 135.876 109.74C136.52 107.989 137.093 105.88 137.595 103.414C138.848 103.343 139.941 103.039 140.872 102.503C141.839 101.967 142.68 101.377 143.397 100.734C144.256 99.9115 145.116 98.9644 145.975 97.8922C146.835 96.7842 147.64 95.6763 148.393 94.5683C149.18 93.4604 149.879 92.4239 150.488 91.4589C151.096 90.494 151.58 89.7077 151.938 89.1001C153.299 86.7412 154.409 84.7041 155.269 82.9885C156.164 81.273 156.898 79.7004 157.471 78.2708C157.973 76.877 158.367 75.6618 158.653 74.6254C158.975 73.5889 159.119 72.8741 159.083 72.4809C159.047 71.8376 158.599 71.373 157.74 71.0871C156.88 70.8012 155.77 70.551 154.409 70.3365V69.586C155.878 69.6575 157.382 69.7111 158.922 69.7468C160.497 69.7826 162.037 69.8004 163.542 69.8004H176.488C177.419 69.8004 178.422 69.7826 179.496 69.7468C180.571 69.6753 181.717 69.6217 182.935 69.586V70.3365C182.003 70.4795 181.18 70.6939 180.463 70.9799C179.747 71.23 178.977 71.6232 178.153 72.1593C178.01 72.2665 177.777 72.6418 177.455 73.2851C177.169 73.8927 176.81 74.6968 176.381 75.6975C175.987 76.6625 175.539 77.7883 175.038 79.075C174.572 80.3259 174.089 81.6483 173.587 83.0422L168.215 98.6427C167.893 99.6077 167.642 100.394 167.463 101.002C167.284 101.573 167.32 102.038 167.571 102.395C167.821 102.717 168.305 102.949 169.021 103.092C169.773 103.235 170.901 103.343 172.405 103.414C171.904 105.13 171.492 107.024 171.17 109.097C170.848 111.17 170.615 113.064 170.471 114.779H169.773C169.236 113.779 168.824 112.849 168.538 111.992C168.251 111.134 168.018 110.312 167.839 109.526C167.696 108.775 167.588 108.024 167.517 107.274C167.481 106.559 167.445 105.826 167.409 105.076C166.836 105.04 166.174 104.987 165.422 104.915C164.67 104.879 163.9 104.844 163.112 104.808C162.36 104.772 161.59 104.736 160.802 104.701C160.05 104.665 159.369 104.647 158.76 104.647H151.616C151.007 104.647 150.309 104.647 149.521 104.647C148.733 104.683 147.909 104.719 147.05 104.754C146.226 104.826 145.402 104.897 144.578 104.969C143.79 105.04 143.11 105.13 142.537 105.237C141.892 106.38 141.284 107.345 140.711 108.132C140.173 108.954 139.618 109.704 139.045 110.383C138.436 111.062 137.792 111.741 137.111 112.421C136.431 113.1 135.625 113.886 134.694 114.779H133.834ZM153.711 103.521C155.179 103.521 156.504 103.485 157.686 103.414C158.904 103.343 160.265 103.235 161.769 103.092L172.943 71.3015C172.262 71.23 171.385 71.1764 170.31 71.1407C169.272 71.0692 168.341 71.0335 167.517 71.0335C166.407 71.0335 165.493 71.0692 164.777 71.1407C164.097 71.2122 163.524 71.373 163.058 71.6232C162.593 71.8376 162.199 72.1771 161.876 72.6418C161.554 73.1064 161.232 73.7318 160.909 74.5181L158.814 79.2894C157.203 83.0779 155.609 86.2588 154.033 88.832C152.493 91.4053 151.204 93.4961 150.165 95.1044C149.377 96.2839 148.697 97.2667 148.124 98.053C147.587 98.8035 147.121 99.429 146.727 99.9294C146.369 100.43 146.083 100.823 145.868 101.109C145.689 101.395 145.563 101.645 145.492 101.859C145.384 102.217 145.42 102.521 145.599 102.771C145.814 102.985 146.19 103.11 146.727 103.146C146.978 103.146 147.354 103.182 147.855 103.253C148.357 103.289 148.93 103.325 149.574 103.36C150.219 103.396 150.882 103.432 151.562 103.468C152.278 103.503 152.995 103.521 153.711 103.521Z" fill="black"/>
<path d="M174.524 104.111C175.491 103.897 176.315 103.628 176.996 103.307C177.64 102.985 178.267 102.538 178.876 101.967C179.485 101.395 180.111 100.662 180.756 99.7685C181.401 98.875 182.171 97.7671 183.066 96.4447C183.639 95.5512 184.373 94.4254 185.268 93.0672C186.2 91.6734 187.22 90.1544 188.33 88.5104C189.476 86.8306 190.694 85.0793 191.983 83.2566C193.309 81.4338 194.652 79.6468 196.012 77.8956C197.373 76.1443 198.716 74.4824 200.041 72.9098C201.402 71.3373 202.71 69.9434 203.963 68.7282L205.199 69.0499V101.162C205.199 101.698 205.306 102.127 205.521 102.449C205.772 102.735 206.076 102.985 206.434 103.2C206.792 103.378 207.186 103.539 207.616 103.682C208.082 103.789 208.511 103.932 208.905 104.111V104.861C207.867 104.754 206.81 104.683 205.736 104.647C204.697 104.647 203.659 104.647 202.62 104.647C201.331 104.647 200.041 104.647 198.752 104.647C197.463 104.683 196.174 104.754 194.884 104.861V104.111C196.03 103.825 196.961 103.557 197.678 103.307C198.43 103.057 199.021 102.771 199.451 102.449C199.88 102.127 200.167 101.752 200.31 101.323C200.489 100.859 200.579 100.287 200.579 99.6077V89.6362H189.459C189.244 89.9221 188.939 90.3867 188.545 91.0301C188.187 91.6376 187.775 92.3346 187.31 93.1209C186.844 93.9071 186.361 94.747 185.859 95.6405C185.394 96.534 184.964 97.3918 184.57 98.2138C184.176 99.0359 183.854 99.7685 183.603 100.412C183.352 101.055 183.227 101.538 183.227 101.859C183.227 102.324 183.37 102.681 183.657 102.932C183.943 103.182 184.284 103.378 184.677 103.521C185.107 103.664 185.537 103.771 185.967 103.843C186.432 103.914 186.826 104.004 187.149 104.111V104.861C186.038 104.754 184.946 104.683 183.872 104.647C182.797 104.647 181.705 104.647 180.595 104.647C179.556 104.647 178.553 104.665 177.586 104.701C176.584 104.736 175.563 104.79 174.524 104.861V104.111ZM200.579 88.1351V73.9284C198.645 76.1086 196.836 78.3959 195.153 80.7905C193.505 83.1851 191.876 85.6333 190.264 88.1351H200.579Z" fill="black"/>
<path d="M211.364 105.344C210.505 105.344 209.753 105.094 209.108 104.593C208.428 104.057 208.087 103.325 208.087 102.395C208.087 101.824 208.213 101.323 208.463 100.894C208.678 100.43 208.965 100.072 209.323 99.8221C209.645 99.5362 210.021 99.3218 210.451 99.1788C210.881 99.0358 211.31 98.9644 211.74 98.9644C212.492 98.9644 213.065 99.1609 213.459 99.5541C213.853 99.9472 214.05 100.448 214.05 101.055C214.05 101.198 214.05 101.341 214.05 101.484C214.05 101.591 214.014 101.734 213.943 101.913C214.48 101.913 215.071 101.734 215.716 101.377C216.396 100.984 217.13 100.34 217.918 99.4469C218.706 98.5176 219.548 97.3025 220.443 95.8014C221.374 94.3003 222.359 92.4061 223.397 90.1187C224.006 88.7963 224.597 87.4739 225.17 86.1515C225.779 84.8291 226.316 83.5782 226.782 82.3988C227.283 81.2194 227.731 80.1472 228.125 79.1822C228.519 78.1815 228.823 77.3595 229.038 76.7161C229.36 75.7512 229.611 74.9291 229.79 74.2501C229.969 73.571 230.059 72.9992 230.059 72.5346C230.059 71.7125 229.736 71.1764 229.092 70.9262C228.483 70.6761 227.462 70.4795 226.03 70.3365V69.586C227.247 69.6575 228.447 69.7111 229.629 69.7468C230.847 69.7826 232.064 69.8004 233.282 69.8004H246.39C247.607 69.8004 248.825 69.7826 250.043 69.7468C251.26 69.6753 252.478 69.6217 253.696 69.586V70.3365C252.764 70.4795 251.941 70.6939 251.225 70.9799C250.508 71.23 249.738 71.6232 248.915 72.1593C248.7 72.338 248.359 72.9634 247.894 74.0356C247.428 75.0721 246.873 76.4124 246.229 78.0564C245.62 79.6647 244.957 81.4517 244.241 83.4174C243.525 85.3831 242.826 87.3488 242.146 89.3145C241.465 91.2445 240.821 93.0851 240.212 94.8364C239.639 96.5519 239.173 97.9994 238.815 99.1788C238.6 99.8936 238.421 100.483 238.278 100.948C238.171 101.377 238.117 101.627 238.117 101.698C238.117 102.092 238.314 102.449 238.708 102.771C239.137 103.057 239.621 103.307 240.158 103.521C240.695 103.7 241.233 103.843 241.77 103.95C242.307 104.057 242.719 104.111 243.005 104.111V104.861C241.823 104.79 240.642 104.736 239.46 104.701C238.314 104.665 237.15 104.647 235.968 104.647C234.607 104.647 233.228 104.665 231.832 104.701C230.435 104.736 229.056 104.79 227.695 104.861V104.111C228.734 103.968 229.575 103.825 230.22 103.682C230.865 103.503 231.402 103.235 231.832 102.878C232.261 102.485 232.637 101.967 232.96 101.323C233.282 100.644 233.64 99.7328 234.034 98.5891L243.704 71.3015C242.343 71.23 241.215 71.1764 240.319 71.1407C239.424 71.1049 238.708 71.0871 238.171 71.0871C237.49 71.0871 236.72 71.1586 235.861 71.3015C235.001 71.4445 234.338 71.6947 233.873 72.0521C233.372 72.4095 232.96 72.8741 232.637 73.4459C232.315 73.982 231.993 74.6254 231.67 75.3759L226.137 88.0815C225.994 88.4032 225.725 88.9929 225.331 89.8506C224.973 90.7084 224.526 91.6734 223.988 92.7456C223.487 93.8178 222.932 94.9257 222.323 96.0694C221.714 97.2131 221.123 98.2317 220.55 99.1252C219.691 100.448 218.831 101.52 217.972 102.342C217.148 103.128 216.342 103.754 215.554 104.218C214.766 104.647 214.014 104.933 213.298 105.076C212.618 105.255 211.973 105.344 211.364 105.344Z" fill="black"/>
<path d="M246.876 104.111C247.771 103.932 248.524 103.771 249.132 103.628C249.705 103.45 250.171 103.253 250.529 103.039C250.923 102.789 251.245 102.467 251.496 102.074C251.747 101.645 251.997 101.091 252.248 100.412C252.499 99.8043 252.893 98.7321 253.43 97.1952C254.003 95.6227 254.648 93.8535 255.364 91.8878C256.08 89.9221 256.814 87.8671 257.566 85.7227C258.318 83.5425 258.999 81.5232 259.608 79.6647C260.252 77.8062 260.772 76.2337 261.166 74.947C261.595 73.6246 261.81 72.8383 261.81 72.5882C261.81 72.1593 261.631 71.8197 261.273 71.5696C260.951 71.2837 260.557 71.0692 260.091 70.9262C259.661 70.7476 259.196 70.6225 258.695 70.551C258.229 70.4438 257.853 70.3723 257.566 70.3365V69.586C258.784 69.6575 259.984 69.7111 261.166 69.7468C262.383 69.7826 263.601 69.8004 264.819 69.8004C266.108 69.8004 267.379 69.7826 268.633 69.7468C269.922 69.7111 271.211 69.6575 272.501 69.586V70.3365C271.462 70.5152 270.549 70.7475 269.761 71.0335C269.009 71.3194 268.328 71.6768 267.72 72.1057C267.54 72.2129 267.326 72.4988 267.075 72.9634C266.86 73.4281 266.627 73.9463 266.377 74.5181C266.162 75.0542 265.947 75.5903 265.732 76.1264C265.553 76.6625 265.41 77.0735 265.302 77.3595L262.24 85.4546C265.105 85.4546 267.469 85.6512 269.331 86.0443C271.193 86.4017 272.662 86.9378 273.736 87.6526C274.846 88.3674 275.616 89.2252 276.046 90.2259C276.476 91.2266 276.691 92.3346 276.691 93.5497C276.691 95.444 276.207 97.1059 275.24 98.5355C274.309 99.9293 273.127 101.109 271.695 102.074C270.262 103.003 268.686 103.7 266.967 104.165C265.248 104.629 263.619 104.861 262.079 104.861C261.112 104.861 260.252 104.844 259.5 104.808C258.784 104.808 258.122 104.79 257.513 104.754C256.904 104.719 256.313 104.683 255.74 104.647C255.203 104.647 254.63 104.647 254.021 104.647C252.803 104.647 251.586 104.647 250.368 104.647C249.186 104.683 247.986 104.754 246.769 104.861L246.876 104.111ZM261.488 103.789C262.956 103.789 264.317 103.503 265.571 102.932C266.86 102.36 267.97 101.609 268.901 100.68C269.832 99.7149 270.549 98.607 271.05 97.3561C271.587 96.0694 271.856 94.7292 271.856 93.3353C271.856 91.9772 271.623 90.8692 271.158 90.0115C270.728 89.118 270.083 88.421 269.224 87.9207C268.364 87.3846 267.326 87.0272 266.108 86.8485C264.89 86.634 263.511 86.5268 261.971 86.5268L256.492 102.449C257.925 103.343 259.59 103.789 261.488 103.789Z" fill="black"/>
<path d="M277.19 104.004C278.193 103.825 278.998 103.664 279.607 103.521C280.216 103.378 280.699 103.2 281.058 102.985C281.452 102.771 281.774 102.485 282.025 102.127C282.275 101.734 282.526 101.216 282.777 100.573C282.956 100.18 283.314 99.2682 283.851 97.8385C284.388 96.3732 285.015 94.6577 285.731 92.692C286.448 90.6905 287.2 88.5819 287.988 86.366C288.775 84.1143 289.492 82.0236 290.136 80.0936C290.781 78.1279 291.318 76.4481 291.748 75.0542C292.178 73.6604 292.393 72.8026 292.393 72.4809C292.393 71.7661 291.999 71.2836 291.211 71.0335C290.423 70.7833 289.438 70.551 288.256 70.3365V69.586C289.474 69.6575 290.674 69.7111 291.855 69.7468C293.073 69.7826 294.291 69.8004 295.508 69.8004C296.798 69.8004 298.069 69.7826 299.322 69.7468C300.612 69.7111 301.901 69.6575 303.19 69.586V70.3365C302.367 70.4438 301.632 70.5867 300.988 70.7654C300.379 70.9084 299.824 71.1407 299.322 71.4623C298.857 71.784 298.427 72.2129 298.033 72.749C297.639 73.2494 297.281 73.8927 296.959 74.679C296.171 76.6089 295.419 78.5389 294.703 80.4689C293.986 82.3631 293.324 84.2752 292.715 86.2051H307.971C308.079 85.8835 308.258 85.3474 308.509 84.5968C308.759 83.8463 309.046 83.0243 309.368 82.1308C309.726 81.2015 310.084 80.2365 310.443 79.2358C310.801 78.1994 311.123 77.2522 311.409 76.3945C311.696 75.501 311.929 74.7326 312.108 74.0892C312.323 73.4102 312.43 72.9456 312.43 72.6954C312.43 72.2308 312.269 71.8555 311.947 71.5696C311.624 71.2837 311.23 71.0692 310.765 70.9262C310.335 70.7476 309.869 70.6225 309.368 70.551C308.903 70.4795 308.491 70.408 308.133 70.3365V69.586C309.422 69.6575 310.711 69.7111 312 69.7468C313.29 69.7826 314.579 69.8004 315.868 69.8004C317.086 69.8004 318.304 69.7826 319.521 69.7468C320.739 69.6753 321.957 69.6217 323.174 69.586V70.3365C322.243 70.4795 321.419 70.6939 320.703 70.9799C319.987 71.23 319.217 71.6232 318.393 72.1593C318.214 72.3022 317.91 72.8205 317.48 73.714C317.086 74.6075 316.62 75.7512 316.083 77.145C315.546 78.5032 314.955 80.04 314.31 81.7555C313.702 83.471 313.075 85.2223 312.43 87.0093C311.785 88.7606 311.177 90.494 310.604 92.2095C310.031 93.8893 309.511 95.4261 309.046 96.82C308.616 98.1781 308.258 99.3039 307.971 100.197C307.721 101.055 307.595 101.556 307.595 101.698C307.595 102.092 307.792 102.449 308.186 102.771C308.616 103.057 309.099 103.307 309.637 103.521C310.174 103.7 310.711 103.843 311.248 103.95C311.785 104.057 312.197 104.111 312.484 104.111V104.861C311.302 104.79 310.12 104.736 308.938 104.701C307.792 104.665 306.628 104.647 305.447 104.647C304.086 104.647 302.707 104.665 301.31 104.701C299.913 104.736 298.535 104.79 297.174 104.861V104.111C298.212 103.968 299.036 103.825 299.645 103.682C300.289 103.503 300.827 103.235 301.256 102.878C301.686 102.485 302.062 101.967 302.384 101.323C302.707 100.644 303.083 99.7328 303.513 98.5891L307.434 87.7062H292.231C292.088 88.0994 291.873 88.707 291.587 89.529C291.336 90.3153 291.032 91.2088 290.673 92.2095C290.315 93.1745 289.939 94.1931 289.545 95.2653C289.187 96.3375 288.847 97.3382 288.525 98.2674C288.202 99.1967 287.934 100.019 287.719 100.734C287.54 101.413 287.45 101.877 287.45 102.127C287.45 102.449 287.611 102.735 287.934 102.985C288.292 103.235 288.686 103.45 289.116 103.628C289.545 103.771 289.975 103.896 290.405 104.004C290.835 104.075 291.157 104.111 291.372 104.111V104.861C290.226 104.79 289.062 104.736 287.88 104.701C286.698 104.665 285.534 104.647 284.388 104.647C283.206 104.647 282.007 104.665 280.789 104.701C279.607 104.736 278.407 104.79 277.19 104.861V104.004Z" fill="black"/>
<path d="M322.19 105.076C321.008 105.076 320.023 104.736 319.235 104.057C318.447 103.343 318.054 102.431 318.054 101.323C318.054 100.608 318.322 99.983 318.859 99.4469C319.397 98.875 320.113 98.5891 321.008 98.5891C321.724 98.5891 322.351 98.8571 322.888 99.3932C323.461 99.9294 323.748 100.716 323.748 101.752C323.748 102.109 323.73 102.378 323.694 102.556C324.016 102.556 324.357 102.521 324.715 102.449C325.109 102.342 325.556 102.145 326.058 101.859C326.595 101.573 327.204 101.162 327.884 100.626C328.565 100.09 329.353 99.3754 330.248 98.4819C330.463 98.2674 330.606 97.9279 330.678 97.4633C330.749 96.9629 330.785 96.409 330.785 95.8014C330.785 94.8006 330.732 93.925 330.624 93.1745L327.992 72.9098C327.92 72.4452 327.723 72.0699 327.401 71.784C327.079 71.4981 326.685 71.2658 326.219 71.0871C325.753 70.9084 325.27 70.7654 324.769 70.6582C324.303 70.551 323.873 70.4438 323.479 70.3365V69.586C324.84 69.6575 326.183 69.7111 327.508 69.7468C328.869 69.7826 330.23 69.8004 331.591 69.8004C332.594 69.8004 333.597 69.7826 334.599 69.7468C335.602 69.6753 336.623 69.6217 337.661 69.586V70.3365C336.945 70.4438 336.283 70.5688 335.674 70.7118C335.101 70.8548 334.581 71.0692 334.116 71.3551C333.65 71.6411 333.292 72.0342 333.041 72.5346C332.791 72.9992 332.665 73.6068 332.665 74.3573C332.665 74.5003 332.665 74.6611 332.665 74.8398C332.665 74.9827 332.683 75.1436 332.719 75.3223L334.975 93.1209C335.548 92.4061 336.139 91.6376 336.748 90.8156C337.357 89.9579 338.02 89.0465 338.736 88.0815C340.168 86.0801 341.565 84.1858 342.926 82.3988C344.287 80.5761 345.505 78.9678 346.579 77.5739C347.653 76.18 348.513 75.0364 349.157 74.1429C349.838 73.2494 350.178 72.7133 350.178 72.5346C350.178 72.3201 349.981 72.1057 349.587 71.8912C349.229 71.6411 348.746 71.4266 348.137 71.2479C347.564 71.0335 346.919 70.8548 346.203 70.7118C345.487 70.5331 344.806 70.408 344.162 70.3365V69.586C345.272 69.6217 346.364 69.6753 347.438 69.7468C348.513 69.7826 349.605 69.8004 350.715 69.8004C351.575 69.8004 352.434 69.7826 353.294 69.7468C354.153 69.6753 355.013 69.6217 355.872 69.586V70.3365C355.371 70.8369 354.547 71.7125 353.401 72.9634C352.255 74.1786 350.93 75.6439 349.426 77.3595C347.922 79.075 346.328 80.9692 344.645 83.0422C342.962 85.0793 341.35 87.1344 339.81 89.2073C337.124 92.8171 334.832 95.6763 332.934 97.7849C331.072 99.8936 329.46 101.484 328.099 102.556C326.774 103.628 325.646 104.325 324.715 104.647C323.82 104.933 322.978 105.076 322.19 105.076Z" fill="black"/>
<path d="M377.724 105.719C376.149 105.719 374.788 105.451 373.642 104.915C372.531 104.415 371.618 103.7 370.902 102.771C370.186 101.841 369.648 100.751 369.29 99.5005C368.932 98.2496 368.753 96.8736 368.753 95.3725C368.753 92.9422 369.219 90.3867 370.15 87.7062H362.79C362.719 88.0994 362.54 88.6891 362.253 89.4754C362.002 90.2617 361.698 91.1552 361.34 92.1559C361.017 93.1209 360.659 94.1573 360.265 95.2653C359.871 96.3375 359.513 97.3382 359.191 98.2674C358.869 99.1967 358.6 100.019 358.385 100.734C358.17 101.413 358.063 101.877 358.063 102.127C358.063 102.449 358.224 102.735 358.546 102.985C358.904 103.235 359.298 103.45 359.728 103.628C360.158 103.771 360.588 103.896 361.017 104.004C361.447 104.075 361.77 104.111 361.984 104.111V104.861C360.838 104.79 359.674 104.736 358.493 104.701C357.311 104.665 356.147 104.647 355.001 104.647C353.819 104.647 352.619 104.665 351.402 104.701C350.22 104.736 349.02 104.79 347.802 104.861V104.004C348.805 103.825 349.611 103.664 350.22 103.521C350.829 103.378 351.33 103.2 351.724 102.985C352.118 102.771 352.422 102.485 352.637 102.127C352.888 101.734 353.156 101.216 353.443 100.573C353.622 100.18 353.98 99.2682 354.517 97.8385C355.055 96.3732 355.663 94.6577 356.344 92.692C357.06 90.6905 357.812 88.5819 358.6 86.366C359.388 84.1143 360.104 82.0236 360.749 80.0936C361.393 78.1279 361.931 76.4481 362.36 75.0542C362.79 73.6604 363.005 72.8026 363.005 72.4809C363.005 71.7661 362.611 71.2836 361.823 71.0335C361.035 70.7833 360.05 70.551 358.869 70.3365V69.586C360.086 69.6575 361.286 69.7111 362.468 69.7468C363.686 69.7826 364.903 69.8004 366.121 69.8004C367.41 69.8004 368.682 69.7826 369.935 69.7468C371.224 69.7111 372.514 69.6575 373.803 69.586V70.3365C372.979 70.4438 372.245 70.5867 371.6 70.7654C370.991 70.9084 370.436 71.1407 369.935 71.4623C369.469 71.784 369.04 72.2129 368.646 72.749C368.252 73.2494 367.894 73.8927 367.571 74.679C366.783 76.6089 366.031 78.5389 365.315 80.4689C364.599 82.3631 363.936 84.2752 363.327 86.2051H370.741C371.636 83.9893 372.782 81.827 374.179 79.7183C375.611 77.6096 377.223 75.7512 379.014 74.1429C380.804 72.4988 382.738 71.1943 384.815 70.2293C386.928 69.2286 389.095 68.7282 391.316 68.7282C392.856 68.7282 394.199 68.9963 395.345 69.5324C396.491 70.0327 397.422 70.7476 398.138 71.6768C398.854 72.606 399.392 73.6961 399.75 74.947C400.108 76.1979 400.287 77.5739 400.287 79.075C400.287 80.8977 400 82.8277 399.427 84.8649C398.89 86.9021 398.12 88.9035 397.117 90.8692C396.115 92.8349 394.915 94.7292 393.518 96.5519C392.121 98.3389 390.581 99.9115 388.898 101.27C387.251 102.628 385.478 103.718 383.58 104.54C381.682 105.326 379.73 105.719 377.724 105.719ZM379.873 104.004C381.485 104.004 382.989 103.521 384.386 102.556C385.782 101.556 387.036 100.269 388.146 98.6963C389.292 97.1237 390.295 95.3725 391.154 93.4425C392.05 91.4768 392.802 89.529 393.411 87.599C394.02 85.6333 394.467 83.7927 394.754 82.0772C395.076 80.3259 395.237 78.8963 395.237 77.7884C395.237 76.7519 395.13 75.769 394.915 74.8398C394.736 73.9106 394.413 73.1064 393.948 72.4273C393.482 71.7125 392.838 71.1586 392.014 70.7654C391.226 70.3365 390.223 70.1221 389.006 70.1221C387.43 70.1221 385.944 70.6225 384.547 71.6232C383.186 72.5882 381.932 73.8569 380.786 75.4295C379.676 77.0021 378.673 78.7712 377.778 80.7369C376.919 82.6669 376.184 84.6147 375.576 86.5804C375.003 88.5104 374.555 90.351 374.233 92.1023C373.946 93.8178 373.803 95.2295 373.803 96.3375C373.803 97.3739 373.892 98.3568 374.071 99.286C374.286 100.215 374.609 101.037 375.038 101.752C375.504 102.431 376.131 102.985 376.919 103.414C377.707 103.807 378.691 104.004 379.873 104.004Z" fill="black"/>
<path d="M11.4961 164.69C9.92031 164.69 8.5594 164.422 7.41337 163.886C6.30316 163.386 5.38992 162.671 4.67365 161.742C3.95738 160.813 3.42018 159.723 3.06205 158.472C2.70391 157.221 2.52484 155.845 2.52484 154.344C2.52484 152.521 2.79344 150.591 3.33065 148.554C3.90366 146.517 4.69155 144.515 5.69433 142.549C6.6971 140.584 7.89685 138.707 9.29358 136.92C10.6903 135.098 12.2124 133.507 13.8598 132.149C15.543 130.791 17.3337 129.719 19.2318 128.932C21.1299 128.11 23.0817 127.699 25.0873 127.699C26.6273 127.699 27.9703 127.967 29.1163 128.504C30.2623 129.004 31.1935 129.719 31.9097 130.648C32.626 131.577 33.1632 132.667 33.5213 133.918C33.8795 135.169 34.0585 136.545 34.0585 138.046C34.0585 139.869 33.772 141.799 33.199 143.836C32.6618 145.873 31.8918 147.875 30.8891 149.84C29.8863 151.806 28.6865 153.7 27.2898 155.523C25.8931 157.31 24.3531 158.883 22.6699 160.241C21.0225 161.599 19.2497 162.689 17.3516 163.511C15.4535 164.297 13.5016 164.69 11.4961 164.69ZM13.6449 162.975C15.2565 162.975 16.7607 162.492 18.1574 161.527C19.5541 160.527 20.8076 159.24 21.9178 157.667C23.0638 156.095 24.0666 154.344 24.9261 152.414C25.8215 150.448 26.5735 148.5 27.1824 146.57C27.7912 144.604 28.2389 142.764 28.5254 141.048C28.8477 139.297 29.0088 137.867 29.0088 136.76C29.0088 135.723 28.9014 134.74 28.6865 133.811C28.5075 132.882 28.1851 132.078 27.7196 131.399C27.254 130.684 26.6094 130.13 25.7856 129.737C24.9977 129.308 23.995 129.093 22.7773 129.093C21.2015 129.093 19.7153 129.594 18.3186 130.594C16.9576 131.559 15.7042 132.828 14.5581 134.401C13.4479 135.973 12.4452 137.742 11.5498 139.708C10.6903 141.638 9.95612 143.586 9.3473 145.552C8.77428 147.482 8.32661 149.322 8.00429 151.073C7.71779 152.789 7.57453 154.201 7.57453 155.309C7.57453 156.345 7.66407 157.328 7.84313 158.257C8.05801 159.186 8.38033 160.008 8.81009 160.723C9.27567 161.402 9.9024 161.956 10.6903 162.385C11.4782 162.778 12.4631 162.975 13.6449 162.975Z" fill="black"/>
<path d="M32.6853 163.082C33.5807 162.903 34.3148 162.743 34.8878 162.6C35.4967 162.421 35.9801 162.224 36.3383 162.01C36.7322 161.76 37.0545 161.438 37.3052 161.045C37.5559 160.616 37.8066 160.062 38.0573 159.383C38.308 158.775 38.702 157.703 39.2392 156.166C39.8122 154.594 40.4568 152.825 41.1731 150.859C41.8894 148.893 42.6235 146.838 43.3756 144.694C44.1277 142.514 44.8082 140.494 45.417 138.636C46.0616 136.777 46.5809 135.205 46.9749 133.918C47.4046 132.596 47.6195 131.81 47.6195 131.559C47.6195 131.13 47.4404 130.791 47.0823 130.541C46.76 130.255 46.366 130.04 45.9005 129.897C45.4707 129.719 45.0051 129.594 44.5037 129.522C44.0382 129.415 43.6621 129.343 43.3756 129.308V128.557C44.5933 128.629 45.793 128.682 46.9749 128.718C48.1925 128.754 49.4102 128.772 50.6278 128.772H66.3141C66.2783 129.594 66.2425 130.398 66.2066 131.184C66.1708 131.935 66.1529 132.721 66.1529 133.543C66.1529 134.365 66.1708 135.187 66.2066 136.009C66.2425 136.795 66.2783 137.599 66.3141 138.421H65.6694C65.3113 138.028 64.9711 137.474 64.6488 136.76C64.3264 136.009 64.0399 135.241 63.7892 134.454C63.5386 133.668 63.3058 132.9 63.0909 132.149C62.9118 131.399 62.7686 130.809 62.6611 130.38C60.9421 130.165 59.2409 130.058 57.5577 130.058C56.5191 130.058 55.5522 130.094 54.6568 130.165C53.7973 130.201 53.278 130.219 53.0989 130.219L48.0493 144.426C51.165 144.426 53.7257 144.622 55.7312 145.015C57.7726 145.373 59.3663 145.909 60.5123 146.624C61.6584 147.339 62.4462 148.196 62.876 149.197C63.3416 150.198 63.5744 151.306 63.5744 152.521C63.5744 154.415 63.0909 156.077 62.1239 157.507C61.1928 158.901 60.0109 160.062 58.5784 160.991C57.1459 161.921 55.5701 162.635 53.851 163.136C52.132 163.6 50.5025 163.833 48.9625 163.833C47.0286 163.833 45.3274 163.797 43.8591 163.725C42.3907 163.654 41.0477 163.618 39.8301 163.618C38.6124 163.618 37.3948 163.618 36.1771 163.618C34.9953 163.654 33.7955 163.725 32.5779 163.833L32.6853 163.082ZM48.3716 162.76C49.8399 162.76 51.2008 162.457 52.4543 161.849C53.7436 161.242 54.8538 160.437 55.785 159.437C56.7161 158.436 57.4324 157.31 57.9338 156.059C58.471 154.808 58.7396 153.557 58.7396 152.306C58.7396 150.948 58.5068 149.84 58.0412 148.983C57.5756 148.089 56.8773 147.392 55.9461 146.892C55.0508 146.356 53.9048 145.998 52.508 145.82C51.1471 145.605 49.5713 145.498 47.7807 145.498L42.4086 161.152C43.0175 161.724 43.877 162.135 44.9872 162.385C46.0974 162.635 47.2256 162.76 48.3716 162.76Z" fill="black"/>
<path d="M66.6242 164.315C65.7647 164.315 65.0126 164.065 64.368 163.565C63.6875 163.029 63.3473 162.296 63.3473 161.367C63.3473 160.795 63.4727 160.294 63.7234 159.866C63.9382 159.401 64.2247 159.043 64.5829 158.793C64.9052 158.507 65.2812 158.293 65.711 158.15C66.1408 158.007 66.5705 157.936 67.0003 157.936C67.7524 157.936 68.3254 158.132 68.7193 158.525C69.1133 158.918 69.3102 159.419 69.3102 160.026C69.3102 160.169 69.3102 160.312 69.3102 160.455C69.3102 160.562 69.2744 160.705 69.2028 160.884C69.74 160.884 70.3309 160.705 70.9756 160.348C71.656 159.955 72.3902 159.312 73.1781 158.418C73.966 157.489 74.8076 156.274 75.7029 154.773C76.6341 153.271 77.6189 151.377 78.6575 149.09C79.2664 147.767 79.8573 146.445 80.4303 145.123C81.0391 143.8 81.5763 142.549 82.0419 141.37C82.5433 140.191 82.991 139.118 83.3849 138.153C83.7789 137.153 84.0833 136.331 84.2981 135.687C84.6205 134.722 84.8712 133.9 85.0502 133.221C85.2293 132.542 85.3188 131.97 85.3188 131.506C85.3188 130.684 84.9965 130.148 84.3519 129.897C83.743 129.647 82.7224 129.451 81.2898 129.308V128.557C82.5075 128.629 83.7072 128.682 84.8891 128.718C86.1067 128.754 87.3244 128.772 88.542 128.772H101.65C102.867 128.772 104.085 128.754 105.303 128.718C106.52 128.647 107.738 128.593 108.956 128.557V129.308C108.025 129.451 107.201 129.665 106.485 129.951C105.768 130.201 104.998 130.594 104.175 131.13C103.96 131.309 103.619 131.935 103.154 133.007C102.688 134.043 102.133 135.384 101.489 137.028C100.88 138.636 100.217 140.423 99.5009 142.389C98.7847 144.354 98.0863 146.32 97.4058 148.286C96.7254 150.216 96.0808 152.056 95.4719 153.808C94.8989 155.523 94.4333 156.971 94.0752 158.15C93.8603 158.865 93.6813 159.455 93.538 159.919C93.4306 160.348 93.3768 160.598 93.3768 160.67C93.3768 161.063 93.5738 161.42 93.9678 161.742C94.3975 162.028 94.881 162.278 95.4182 162.492C95.9554 162.671 96.4926 162.814 97.0298 162.921C97.567 163.029 97.9789 163.082 98.2654 163.082V163.833C97.0835 163.761 95.9017 163.708 94.7198 163.672C93.5738 163.636 92.4099 163.618 91.228 163.618C89.8671 163.618 88.4883 163.636 87.0916 163.672C85.6949 163.708 84.3161 163.761 82.9551 163.833V163.082C83.9937 162.939 84.8354 162.796 85.48 162.653C86.1246 162.475 86.6618 162.206 87.0916 161.849C87.5214 161.456 87.8974 160.938 88.2197 160.294C88.542 159.615 88.9002 158.704 89.2941 157.56L98.9637 130.273C97.6028 130.201 96.4747 130.148 95.5794 130.112C94.684 130.076 93.9678 130.058 93.4306 130.058C92.7501 130.058 91.9801 130.13 91.1206 130.273C90.2611 130.416 89.5985 130.666 89.133 131.023C88.6316 131.381 88.2197 131.845 87.8974 132.417C87.5751 132.953 87.2528 133.597 86.9304 134.347L81.3973 147.053C81.254 147.374 80.9854 147.964 80.5915 148.822C80.2333 149.68 79.7857 150.645 79.2485 151.717C78.7471 152.789 78.192 153.897 77.5831 155.041C76.9743 156.184 76.3834 157.203 75.8104 158.096C74.9509 159.419 74.0913 160.491 73.2318 161.313C72.4081 162.099 71.6023 162.725 70.8144 163.189C70.0265 163.618 69.2744 163.904 68.5582 164.047C67.8777 164.226 67.2331 164.315 66.6242 164.315Z" fill="black"/>
<path d="M116.103 164.69C114.528 164.69 113.167 164.422 112.021 163.886C110.91 163.386 109.997 162.671 109.281 161.742C108.565 160.813 108.027 159.723 107.669 158.472C107.311 157.221 107.132 155.845 107.132 154.344C107.132 152.521 107.401 150.591 107.938 148.554C108.511 146.517 109.299 144.515 110.302 142.549C111.304 140.584 112.504 138.707 113.901 136.92C115.298 135.098 116.82 133.507 118.467 132.149C120.15 130.791 121.941 129.719 123.839 128.932C125.737 128.11 127.689 127.699 129.695 127.699C131.235 127.699 132.578 127.967 133.724 128.504C134.87 129.004 135.801 129.719 136.517 130.648C137.233 131.577 137.77 132.667 138.129 133.918C138.487 135.169 138.666 136.545 138.666 138.046C138.666 139.869 138.379 141.799 137.806 143.836C137.269 145.873 136.499 147.875 135.496 149.84C134.494 151.806 133.294 153.7 131.897 155.523C130.5 157.31 128.96 158.883 127.277 160.241C125.63 161.599 123.857 162.689 121.959 163.511C120.061 164.297 118.109 164.69 116.103 164.69ZM118.252 162.975C119.864 162.975 121.368 162.492 122.765 161.527C124.161 160.527 125.415 159.24 126.525 157.667C127.671 156.095 128.674 154.344 129.533 152.414C130.429 150.448 131.181 148.5 131.79 146.57C132.398 144.604 132.846 142.764 133.133 141.048C133.455 139.297 133.616 137.867 133.616 136.76C133.616 135.723 133.509 134.74 133.294 133.811C133.115 132.882 132.792 132.078 132.327 131.399C131.861 130.684 131.217 130.13 130.393 129.737C129.605 129.308 128.602 129.093 127.385 129.093C125.809 129.093 124.323 129.594 122.926 130.594C121.565 131.559 120.311 132.828 119.165 134.401C118.055 135.973 117.052 137.742 116.157 139.708C115.298 141.638 114.563 143.586 113.955 145.552C113.382 147.482 112.934 149.322 112.612 151.073C112.325 152.789 112.182 154.201 112.182 155.309C112.182 156.345 112.271 157.328 112.45 158.257C112.665 159.186 112.988 160.008 113.417 160.723C113.883 161.402 114.51 161.956 115.298 162.385C116.085 162.778 117.07 162.975 118.252 162.975Z" fill="black"/>
<path d="M152.803 162.921C153.161 162.814 153.591 162.725 154.092 162.653C154.594 162.546 155.095 162.421 155.596 162.278C156.098 162.135 156.546 161.956 156.939 161.742C157.369 161.527 157.656 161.259 157.799 160.938C158.121 160.473 158.515 159.597 158.981 158.311C159.482 157.024 160.001 155.612 160.539 154.076C161.076 152.539 161.595 151.002 162.097 149.465C162.598 147.928 163.01 146.66 163.332 145.659C161.577 145.659 160.055 145.891 158.766 146.356C157.512 146.785 156.366 147.428 155.328 148.286C154.289 149.143 153.304 150.18 152.373 151.395C151.478 152.61 150.529 153.968 149.526 155.469C148.344 157.221 147.216 158.65 146.142 159.758C145.103 160.83 144.065 161.67 143.026 162.278C142.023 162.886 141.02 163.297 140.018 163.511C139.051 163.725 138.03 163.833 136.956 163.833C136.311 163.833 135.648 163.815 134.968 163.779C134.287 163.743 133.625 163.69 132.98 163.618V163.082C134.305 163.046 135.469 162.85 136.472 162.492C137.475 162.135 138.406 161.599 139.266 160.884C140.125 160.169 140.967 159.294 141.79 158.257C142.614 157.185 143.527 155.934 144.53 154.505C145.819 152.646 146.93 151.145 147.861 150.001C148.792 148.858 149.705 147.946 150.6 147.267C151.532 146.588 152.516 146.088 153.555 145.766C154.629 145.409 155.937 145.087 157.477 144.801V144.694C156.653 144.229 156.026 143.675 155.596 143.032C155.203 142.353 154.916 141.656 154.737 140.941C154.558 140.191 154.45 139.44 154.415 138.689C154.415 137.939 154.379 137.242 154.307 136.599C154.343 135.598 154.182 134.687 153.824 133.865C153.466 133.007 152.982 132.506 152.373 132.363C152.194 132.614 151.926 132.917 151.567 133.275C151.245 133.597 150.672 133.757 149.848 133.757C149.025 133.757 148.38 133.489 147.914 132.953C147.449 132.381 147.216 131.756 147.216 131.077C147.216 130.148 147.521 129.415 148.129 128.879C148.774 128.343 149.598 128.075 150.6 128.075C151.603 128.075 152.427 128.396 153.072 129.04C153.752 129.647 154.289 130.434 154.683 131.399C155.113 132.363 155.417 133.436 155.596 134.615C155.776 135.759 155.865 136.849 155.865 137.885C155.865 138.743 155.901 139.565 155.972 140.351C156.08 141.138 156.313 141.835 156.671 142.442C157.029 143.05 157.548 143.532 158.229 143.89C158.945 144.247 159.912 144.426 161.13 144.426H163.869L168.006 131.613C167.97 131.256 167.755 130.952 167.361 130.702C167.003 130.451 166.555 130.237 166.018 130.058C165.517 129.844 164.98 129.683 164.407 129.576C163.834 129.469 163.368 129.379 163.01 129.308V128.557C164.514 128.629 165.964 128.682 167.361 128.718C168.794 128.754 170.262 128.772 171.766 128.772C172.912 128.772 174.076 128.754 175.258 128.718C176.44 128.647 177.604 128.593 178.75 128.557V129.308C178.213 129.379 177.64 129.469 177.031 129.576C176.422 129.683 175.831 129.844 175.258 130.058C174.721 130.273 174.219 130.559 173.754 130.916C173.324 131.273 173.002 131.756 172.787 132.363L168.436 144.426H171.175C172.966 144.426 174.47 144.051 175.688 143.3C176.941 142.514 178.051 141.567 179.018 140.459C179.985 139.315 180.863 138.1 181.651 136.813C182.474 135.491 183.352 134.276 184.283 133.168C185.429 131.524 186.539 130.273 187.614 129.415C188.724 128.521 189.852 128.075 190.998 128.075C192.001 128.075 192.771 128.361 193.308 128.932C193.881 129.469 194.167 130.13 194.167 130.916C194.167 131.667 193.935 132.328 193.469 132.9C193.004 133.471 192.359 133.757 191.535 133.757C190.711 133.757 190.085 133.579 189.655 133.221C189.261 132.828 189.01 132.453 188.903 132.095C188.509 132.095 188.079 132.238 187.614 132.524C187.148 132.81 186.665 133.168 186.163 133.597C185.698 134.025 185.232 134.508 184.766 135.044C184.301 135.58 183.907 136.098 183.585 136.599C183.083 137.242 182.528 137.993 181.919 138.85C181.346 139.672 180.684 140.494 179.932 141.316C179.215 142.103 178.392 142.835 177.461 143.514C176.565 144.193 175.527 144.712 174.345 145.069V145.176C175.67 145.569 176.726 146.141 177.514 146.892C178.302 147.607 178.911 148.464 179.341 149.465C179.771 150.43 180.075 151.52 180.254 152.735C180.469 153.915 180.63 155.166 180.737 156.488L180.845 157.667C180.952 158.811 181.149 159.723 181.436 160.402C181.722 161.081 182.116 161.617 182.618 162.01C183.155 162.403 183.817 162.671 184.605 162.814C185.393 162.957 186.342 163.046 187.452 163.082V163.618L183.047 163.833C181.722 163.833 180.612 163.708 179.717 163.457C178.857 163.207 178.159 162.796 177.622 162.224C177.084 161.653 176.673 160.92 176.386 160.026C176.135 159.097 175.956 157.989 175.849 156.703L175.741 155.469C175.634 154.04 175.491 152.717 175.312 151.502C175.168 150.287 174.846 149.251 174.345 148.393C173.879 147.535 173.163 146.874 172.196 146.409C171.229 145.909 169.868 145.659 168.113 145.659C167.755 146.66 167.29 147.928 166.717 149.465C166.144 151.002 165.588 152.539 165.051 154.076C164.514 155.612 164.048 157.024 163.654 158.311C163.296 159.597 163.117 160.473 163.117 160.938C163.117 161.152 163.404 161.384 163.977 161.635C164.55 161.849 165.194 162.064 165.911 162.278C166.627 162.492 167.325 162.671 168.006 162.814C168.722 162.957 169.206 163.046 169.456 163.082V163.833C167.952 163.761 166.448 163.708 164.944 163.672C163.44 163.636 161.935 163.618 160.431 163.618C159.142 163.618 157.871 163.636 156.617 163.672C155.364 163.708 154.092 163.761 152.803 163.833V162.921Z" fill="black"/>
<path d="M188.587 162.921C188.945 162.814 189.393 162.707 189.93 162.6C190.431 162.492 190.933 162.367 191.434 162.224C191.935 162.046 192.401 161.849 192.831 161.635C193.261 161.384 193.547 161.099 193.69 160.777C194.12 159.848 194.657 158.507 195.302 156.756C195.982 155.005 196.699 153.075 197.451 150.966C198.203 148.858 198.955 146.695 199.707 144.479C200.495 142.264 201.193 140.226 201.802 138.368C202.411 136.509 202.912 134.955 203.306 133.704C203.7 132.453 203.897 131.756 203.897 131.613C203.897 131.256 203.682 130.952 203.252 130.702C202.859 130.451 202.393 130.237 201.856 130.058C201.319 129.844 200.763 129.683 200.19 129.576C199.617 129.469 199.17 129.379 198.847 129.308V128.557C200.352 128.629 201.82 128.682 203.252 128.718C204.685 128.754 206.153 128.772 207.658 128.772C208.804 128.772 209.967 128.754 211.149 128.718C212.331 128.647 213.495 128.593 214.641 128.557V129.308C214.104 129.379 213.531 129.469 212.922 129.576C212.313 129.683 211.722 129.844 211.149 130.058C210.612 130.273 210.111 130.559 209.645 130.916C209.215 131.273 208.893 131.756 208.678 132.363L204.327 144.426H207.067C208.857 144.426 210.361 144.051 211.579 143.3C212.833 142.514 213.943 141.567 214.91 140.459C215.877 139.315 216.754 138.1 217.542 136.813C218.366 135.491 219.243 134.276 220.174 133.168C221.32 131.524 222.431 130.273 223.505 129.415C224.615 128.521 225.743 128.075 226.889 128.075C227.892 128.075 228.662 128.361 229.199 128.932C229.772 129.469 230.059 130.13 230.059 130.916C230.059 131.667 229.826 132.328 229.36 132.9C228.895 133.471 228.25 133.757 227.427 133.757C226.603 133.757 225.976 133.579 225.546 133.221C225.152 132.828 224.902 132.453 224.794 132.095C224.4 132.095 223.971 132.238 223.505 132.524C223.039 132.81 222.556 133.168 222.054 133.597C221.589 134.025 221.123 134.508 220.658 135.044C220.192 135.58 219.798 136.098 219.476 136.599C218.975 137.242 218.419 137.993 217.811 138.85C217.238 139.672 216.575 140.494 215.823 141.316C215.107 142.103 214.283 142.835 213.352 143.514C212.457 144.193 211.418 144.712 210.236 145.069V145.176C211.704 145.605 212.85 146.195 213.674 146.945C214.498 147.66 215.107 148.5 215.501 149.465C215.93 150.43 216.217 151.52 216.36 152.735C216.539 153.915 216.682 155.166 216.79 156.488L216.897 157.667C217.005 158.811 217.184 159.723 217.435 160.402C217.721 161.081 218.115 161.617 218.616 162.01C219.118 162.403 219.745 162.671 220.497 162.814C221.285 162.957 222.234 163.046 223.344 163.082L223.29 163.618L218.939 163.833C217.614 163.833 216.503 163.708 215.608 163.457C214.749 163.207 214.05 162.796 213.513 162.224C212.976 161.653 212.564 160.92 212.277 160.026C212.027 159.097 211.848 157.989 211.74 156.703L211.633 155.469C211.525 154.04 211.382 152.717 211.203 151.502C211.06 150.287 210.737 149.251 210.236 148.393C209.77 147.535 209.054 146.874 208.087 146.409C207.12 145.909 205.759 145.659 204.005 145.659C203.646 146.66 203.181 147.928 202.608 149.465C202.035 151.002 201.48 152.539 200.943 154.076C200.405 155.612 199.94 157.024 199.546 158.311C199.188 159.597 199.009 160.473 199.009 160.938C199.009 161.152 199.295 161.384 199.868 161.635C200.441 161.849 201.086 162.064 201.802 162.278C202.518 162.492 203.217 162.671 203.897 162.814C204.613 162.957 205.097 163.046 205.348 163.082V163.833C203.843 163.761 202.321 163.708 200.781 163.672C199.277 163.636 197.773 163.618 196.269 163.618C194.98 163.618 193.69 163.636 192.401 163.672C191.148 163.708 189.876 163.761 188.587 163.833V162.921Z" fill="black"/>
<path d="M230.488 164.047C229.306 164.047 228.321 163.708 227.534 163.029C226.746 162.314 226.352 161.402 226.352 160.294C226.352 159.58 226.62 158.954 227.157 158.418C227.695 157.846 228.411 157.56 229.306 157.56C230.023 157.56 230.649 157.828 231.186 158.364C231.76 158.901 232.046 159.687 232.046 160.723C232.046 161.081 232.028 161.349 231.992 161.527C232.315 161.527 232.655 161.492 233.013 161.42C233.407 161.313 233.855 161.116 234.356 160.83C234.893 160.545 235.502 160.134 236.182 159.597C236.863 159.061 237.651 158.347 238.546 157.453C238.761 157.239 238.904 156.899 238.976 156.434C239.048 155.934 239.083 155.38 239.083 154.773C239.083 153.772 239.03 152.896 238.922 152.146L236.29 131.881C236.218 131.416 236.021 131.041 235.699 130.755C235.377 130.469 234.983 130.237 234.517 130.058C234.052 129.88 233.568 129.737 233.067 129.629C232.601 129.522 232.171 129.415 231.777 129.308V128.557C233.138 128.629 234.481 128.682 235.806 128.718C237.167 128.754 238.528 128.772 239.889 128.772C240.892 128.772 241.895 128.754 242.897 128.718C243.9 128.647 244.921 128.593 245.96 128.557V129.308C245.243 129.415 244.581 129.54 243.972 129.683C243.399 129.826 242.88 130.04 242.414 130.326C241.948 130.612 241.59 131.005 241.34 131.506C241.089 131.97 240.964 132.578 240.964 133.328C240.964 133.471 240.964 133.632 240.964 133.811C240.964 133.954 240.981 134.115 241.017 134.293L243.274 152.092C243.847 151.377 244.437 150.609 245.046 149.787C245.655 148.929 246.318 148.018 247.034 147.053C248.466 145.051 249.863 143.157 251.224 141.37C252.585 139.547 253.803 137.939 254.877 136.545C255.951 135.151 256.811 134.008 257.456 133.114C258.136 132.221 258.476 131.684 258.476 131.506C258.476 131.291 258.279 131.077 257.885 130.862C257.527 130.612 257.044 130.398 256.435 130.219C255.862 130.005 255.217 129.826 254.501 129.683C253.785 129.504 253.104 129.379 252.46 129.308V128.557C253.57 128.593 254.662 128.647 255.737 128.718C256.811 128.754 257.903 128.772 259.013 128.772C259.873 128.772 260.733 128.754 261.592 128.718C262.452 128.647 263.311 128.593 264.171 128.557V129.308C263.669 129.808 262.846 130.684 261.699 131.935C260.553 133.15 259.228 134.615 257.724 136.331C256.22 138.046 254.626 139.94 252.943 142.013C251.26 144.051 249.648 146.106 248.108 148.178C245.422 151.788 243.13 154.647 241.232 156.756C239.37 158.865 237.758 160.455 236.397 161.527C235.072 162.6 233.944 163.297 233.013 163.618C232.118 163.904 231.276 164.047 230.488 164.047Z" fill="black"/>
<path d="M0 52.3771H413V55.0576H0V52.3771ZM0 111.348H401.039V114.029H0V111.348ZM0 170.32H258.96V173H0V170.32Z" fill="black"/>
</svg>
