<svg width="346" height="130" viewBox="0 0 346 130" fill="none" xmlns="http://www.w3.org/2000/svg">
<rect x="11.1714" width="337.577" height="87.5163" transform="rotate(7.33364 11.1714 0)" fill="white"/>
<mask id="path-2-outside-1" maskUnits="userSpaceOnUse" x="10.0513" y="14.7539" width="325" height="98" fill="black">
<rect fill="white" x="10.0513" y="14.7539" width="325" height="98"/>
<path d="M77.2187 50.9585L89.7468 82.1159L76.9693 80.5502L67.1518 54.8283L64.7324 54.5319L57.3873 78.1508L46.8402 76.8584L54.2231 53.2441L52.3708 53.0171L30.8872 74.9036L17.0513 73.2083L45.123 46.7188L32.9711 18.7539L45.7486 20.3196L54.9151 44.4653L56.9187 44.7108L63.7807 22.5291L74.4034 23.8307L67.3524 45.9892L69.1291 46.2069L91.3771 25.9106L104.835 27.5596L77.2187 50.9585Z"/>
<path d="M111.715 28.4027L148.649 32.9283L145.776 42.2841L120.221 39.1527L116.556 51.2125L139.994 54.0845L137.116 63.478L113.754 60.6154L109.409 74.779L136.212 78.0632L133.334 87.4568L94.8503 82.7412L111.715 28.4027Z"/>
<path d="M188.365 56.7116C188.565 55.0735 188.48 53.5793 188.108 52.2291C187.739 50.8538 187.143 49.6679 186.318 48.6716C185.522 47.6532 184.522 46.8399 183.318 46.2319C182.141 45.6017 180.835 45.1986 179.398 45.0226C177.029 44.7323 174.901 44.8808 173.013 45.468C171.124 46.0552 169.443 46.9364 167.969 48.1115C166.498 49.2614 165.215 50.6518 164.12 52.2827C163.053 53.8915 162.144 55.5707 161.392 57.3204C160.666 59.0732 160.079 60.8303 159.633 62.5919C159.216 64.3314 158.917 65.9319 158.738 67.3937C158.5 69.3342 158.503 71.1892 158.747 72.9585C159.016 74.7309 159.588 76.3231 160.464 77.735C161.365 79.15 162.601 80.3375 164.171 81.2973C165.767 82.2603 167.762 82.8885 170.157 83.1818C171.593 83.3579 173.001 83.3513 174.38 83.1621C175.787 82.9509 177.107 82.5115 178.34 81.844C179.576 81.1513 180.703 80.2022 181.72 78.9966C182.738 77.7911 183.589 76.2711 184.274 74.4365L196.069 75.8817C194.898 78.9615 193.428 81.6719 191.657 84.013C189.912 86.3572 187.873 88.2817 185.54 89.7864C183.235 91.269 180.652 92.3083 177.79 92.9042C174.929 93.5001 171.823 93.5926 168.471 93.1819C165.396 92.8052 162.694 92.1031 160.364 91.0758C158.059 90.0516 156.088 88.8124 154.45 87.3582C152.812 85.9041 151.463 84.2807 150.404 82.4882C149.373 80.6735 148.579 78.7984 148.023 76.863C147.468 74.9275 147.129 72.993 147.008 71.0596C146.915 69.1041 146.978 67.2317 147.197 65.4423C147.522 62.7961 148.112 60.1697 148.969 57.5631C149.828 54.9314 150.953 52.4344 152.342 50.0721C153.732 47.7099 155.366 45.5439 157.244 43.5742C159.148 41.6075 161.295 39.9521 163.685 38.6078C166.075 37.2635 168.712 36.3076 171.595 35.74C174.482 35.1472 177.601 35.0562 180.953 35.4669C184.103 35.8529 186.936 36.6349 189.452 37.813C191.994 38.9941 194.106 40.5447 195.789 42.4649C197.472 44.385 198.69 46.6575 199.443 49.2822C200.196 51.9069 200.372 54.8574 199.97 58.1337L188.365 56.7116Z"/>
<path d="M221.949 51.6178L207.244 49.8159L210.193 40.4694L249.583 45.2961L246.635 54.6426L233.555 53.0399L219.563 98.0227L207.957 96.6006L221.949 51.6178Z"/>
<path d="M257.484 46.2643L269.09 47.6863L262.439 69.088L272.91 70.3711C276.186 70.7726 278.964 71.4839 281.244 72.505C283.526 73.501 285.342 74.7594 286.69 76.2804C288.042 77.7762 288.956 79.4998 289.433 81.4513C289.939 83.3806 290.052 85.4793 289.774 87.7475C289.672 88.5792 289.469 89.6158 289.163 90.8574C288.861 92.0738 288.385 93.3457 287.736 94.6731C287.091 95.9754 286.229 97.2639 285.152 98.5389C284.103 99.7917 282.755 100.88 281.107 101.804C279.462 102.702 277.487 103.368 275.183 103.802C272.907 104.214 270.232 104.231 267.157 103.855L240.582 100.598L257.484 46.2643ZM255.103 92.6313L265.839 93.9469C267.603 94.163 269.197 94.2048 270.62 94.0722C272.046 93.9145 273.28 93.554 274.321 92.9909C275.39 92.4057 276.245 91.5895 276.885 90.5424C277.525 89.4952 277.942 88.1778 278.136 86.5901C278.282 85.4056 278.2 84.398 277.893 83.5673C277.614 82.7145 277.151 82.0055 276.504 81.4402C275.882 80.8779 275.092 80.4358 274.134 80.1137C273.175 79.7917 272.104 79.5581 270.92 79.413L259.616 78.0279L255.103 92.6313Z"/>
<path d="M318.796 53.8154L330.629 55.2653L325.872 69.0331L314.104 93.9902L308.471 93.3L314.04 67.5832L318.796 53.8154ZM304.107 97.293L315.372 98.6733L311.727 109.316L300.462 107.936L304.107 97.293Z"/>
</mask>
<path d="M77.2187 50.9585L89.7468 82.1159L76.9693 80.5502L67.1518 54.8283L64.7324 54.5319L57.3873 78.1508L46.8402 76.8584L54.2231 53.2441L52.3708 53.0171L30.8872 74.9036L17.0513 73.2083L45.123 46.7188L32.9711 18.7539L45.7486 20.3196L54.9151 44.4653L56.9187 44.7108L63.7807 22.5291L74.4034 23.8307L67.3524 45.9892L69.1291 46.2069L91.3771 25.9106L104.835 27.5596L77.2187 50.9585Z" fill="#ED603C"/>
<path d="M77.2187 50.9585L89.7468 82.1159L76.9693 80.5502L67.1518 54.8283L64.7324 54.5319L57.3873 78.1508L46.8402 76.8584L54.2231 53.2441L52.3708 53.0171L30.8872 74.9036L17.0513 73.2083L45.123 46.7188L32.9711 18.7539L45.7486 20.3196L54.9151 44.4653L56.9187 44.7108L63.7807 22.5291L74.4034 23.8307L67.3524 45.9892L69.1291 46.2069L91.3771 25.9106L104.835 27.5596L77.2187 50.9585Z" fill="url(#paint0_linear)"/>
<path d="M77.2187 50.9585L89.7468 82.1159L76.9693 80.5502L67.1518 54.8283L64.7324 54.5319L57.3873 78.1508L46.8402 76.8584L54.2231 53.2441L52.3708 53.0171L30.8872 74.9036L17.0513 73.2083L45.123 46.7188L32.9711 18.7539L45.7486 20.3196L54.9151 44.4653L56.9187 44.7108L63.7807 22.5291L74.4034 23.8307L67.3524 45.9892L69.1291 46.2069L91.3771 25.9106L104.835 27.5596L77.2187 50.9585Z" fill="url(#paint1_linear)"/>
<path d="M111.715 28.4027L148.649 32.9283L145.776 42.2841L120.221 39.1527L116.556 51.2125L139.994 54.0845L137.116 63.478L113.754 60.6154L109.409 74.779L136.212 78.0632L133.334 87.4568L94.8503 82.7412L111.715 28.4027Z" fill="#ED603C"/>
<path d="M111.715 28.4027L148.649 32.9283L145.776 42.2841L120.221 39.1527L116.556 51.2125L139.994 54.0845L137.116 63.478L113.754 60.6154L109.409 74.779L136.212 78.0632L133.334 87.4568L94.8503 82.7412L111.715 28.4027Z" fill="url(#paint2_linear)"/>
<path d="M111.715 28.4027L148.649 32.9283L145.776 42.2841L120.221 39.1527L116.556 51.2125L139.994 54.0845L137.116 63.478L113.754 60.6154L109.409 74.779L136.212 78.0632L133.334 87.4568L94.8503 82.7412L111.715 28.4027Z" fill="url(#paint3_linear)"/>
<path d="M188.365 56.7116C188.565 55.0735 188.48 53.5793 188.108 52.2291C187.739 50.8538 187.143 49.6679 186.318 48.6716C185.522 47.6532 184.522 46.8399 183.318 46.2319C182.141 45.6017 180.835 45.1986 179.398 45.0226C177.029 44.7323 174.901 44.8808 173.013 45.468C171.124 46.0552 169.443 46.9364 167.969 48.1115C166.498 49.2614 165.215 50.6518 164.12 52.2827C163.053 53.8915 162.144 55.5707 161.392 57.3204C160.666 59.0732 160.079 60.8303 159.633 62.5919C159.216 64.3314 158.917 65.9319 158.738 67.3937C158.5 69.3342 158.503 71.1892 158.747 72.9585C159.016 74.7309 159.588 76.3231 160.464 77.735C161.365 79.15 162.601 80.3375 164.171 81.2973C165.767 82.2603 167.762 82.8885 170.157 83.1818C171.593 83.3579 173.001 83.3513 174.38 83.1621C175.787 82.9509 177.107 82.5115 178.34 81.844C179.576 81.1513 180.703 80.2022 181.72 78.9966C182.738 77.7911 183.589 76.2711 184.274 74.4365L196.069 75.8817C194.898 78.9615 193.428 81.6719 191.657 84.013C189.912 86.3572 187.873 88.2817 185.54 89.7864C183.235 91.269 180.652 92.3083 177.79 92.9042C174.929 93.5001 171.823 93.5926 168.471 93.1819C165.396 92.8052 162.694 92.1031 160.364 91.0758C158.059 90.0516 156.088 88.8124 154.45 87.3582C152.812 85.9041 151.463 84.2807 150.404 82.4882C149.373 80.6735 148.579 78.7984 148.023 76.863C147.468 74.9275 147.129 72.993 147.008 71.0596C146.915 69.1041 146.978 67.2317 147.197 65.4423C147.522 62.7961 148.112 60.1697 148.969 57.5631C149.828 54.9314 150.953 52.4344 152.342 50.0721C153.732 47.7099 155.366 45.5439 157.244 43.5742C159.148 41.6075 161.295 39.9521 163.685 38.6078C166.075 37.2635 168.712 36.3076 171.595 35.74C174.482 35.1472 177.601 35.0562 180.953 35.4669C184.103 35.8529 186.936 36.6349 189.452 37.813C191.994 38.9941 194.106 40.5447 195.789 42.4649C197.472 44.385 198.69 46.6575 199.443 49.2822C200.196 51.9069 200.372 54.8574 199.97 58.1337L188.365 56.7116Z" fill="#ED603C"/>
<path d="M188.365 56.7116C188.565 55.0735 188.48 53.5793 188.108 52.2291C187.739 50.8538 187.143 49.6679 186.318 48.6716C185.522 47.6532 184.522 46.8399 183.318 46.2319C182.141 45.6017 180.835 45.1986 179.398 45.0226C177.029 44.7323 174.901 44.8808 173.013 45.468C171.124 46.0552 169.443 46.9364 167.969 48.1115C166.498 49.2614 165.215 50.6518 164.12 52.2827C163.053 53.8915 162.144 55.5707 161.392 57.3204C160.666 59.0732 160.079 60.8303 159.633 62.5919C159.216 64.3314 158.917 65.9319 158.738 67.3937C158.5 69.3342 158.503 71.1892 158.747 72.9585C159.016 74.7309 159.588 76.3231 160.464 77.735C161.365 79.15 162.601 80.3375 164.171 81.2973C165.767 82.2603 167.762 82.8885 170.157 83.1818C171.593 83.3579 173.001 83.3513 174.38 83.1621C175.787 82.9509 177.107 82.5115 178.34 81.844C179.576 81.1513 180.703 80.2022 181.72 78.9966C182.738 77.7911 183.589 76.2711 184.274 74.4365L196.069 75.8817C194.898 78.9615 193.428 81.6719 191.657 84.013C189.912 86.3572 187.873 88.2817 185.54 89.7864C183.235 91.269 180.652 92.3083 177.79 92.9042C174.929 93.5001 171.823 93.5926 168.471 93.1819C165.396 92.8052 162.694 92.1031 160.364 91.0758C158.059 90.0516 156.088 88.8124 154.45 87.3582C152.812 85.9041 151.463 84.2807 150.404 82.4882C149.373 80.6735 148.579 78.7984 148.023 76.863C147.468 74.9275 147.129 72.993 147.008 71.0596C146.915 69.1041 146.978 67.2317 147.197 65.4423C147.522 62.7961 148.112 60.1697 148.969 57.5631C149.828 54.9314 150.953 52.4344 152.342 50.0721C153.732 47.7099 155.366 45.5439 157.244 43.5742C159.148 41.6075 161.295 39.9521 163.685 38.6078C166.075 37.2635 168.712 36.3076 171.595 35.74C174.482 35.1472 177.601 35.0562 180.953 35.4669C184.103 35.8529 186.936 36.6349 189.452 37.813C191.994 38.9941 194.106 40.5447 195.789 42.4649C197.472 44.385 198.69 46.6575 199.443 49.2822C200.196 51.9069 200.372 54.8574 199.97 58.1337L188.365 56.7116Z" fill="url(#paint4_linear)"/>
<path d="M188.365 56.7116C188.565 55.0735 188.48 53.5793 188.108 52.2291C187.739 50.8538 187.143 49.6679 186.318 48.6716C185.522 47.6532 184.522 46.8399 183.318 46.2319C182.141 45.6017 180.835 45.1986 179.398 45.0226C177.029 44.7323 174.901 44.8808 173.013 45.468C171.124 46.0552 169.443 46.9364 167.969 48.1115C166.498 49.2614 165.215 50.6518 164.12 52.2827C163.053 53.8915 162.144 55.5707 161.392 57.3204C160.666 59.0732 160.079 60.8303 159.633 62.5919C159.216 64.3314 158.917 65.9319 158.738 67.3937C158.5 69.3342 158.503 71.1892 158.747 72.9585C159.016 74.7309 159.588 76.3231 160.464 77.735C161.365 79.15 162.601 80.3375 164.171 81.2973C165.767 82.2603 167.762 82.8885 170.157 83.1818C171.593 83.3579 173.001 83.3513 174.38 83.1621C175.787 82.9509 177.107 82.5115 178.34 81.844C179.576 81.1513 180.703 80.2022 181.72 78.9966C182.738 77.7911 183.589 76.2711 184.274 74.4365L196.069 75.8817C194.898 78.9615 193.428 81.6719 191.657 84.013C189.912 86.3572 187.873 88.2817 185.54 89.7864C183.235 91.269 180.652 92.3083 177.79 92.9042C174.929 93.5001 171.823 93.5926 168.471 93.1819C165.396 92.8052 162.694 92.1031 160.364 91.0758C158.059 90.0516 156.088 88.8124 154.45 87.3582C152.812 85.9041 151.463 84.2807 150.404 82.4882C149.373 80.6735 148.579 78.7984 148.023 76.863C147.468 74.9275 147.129 72.993 147.008 71.0596C146.915 69.1041 146.978 67.2317 147.197 65.4423C147.522 62.7961 148.112 60.1697 148.969 57.5631C149.828 54.9314 150.953 52.4344 152.342 50.0721C153.732 47.7099 155.366 45.5439 157.244 43.5742C159.148 41.6075 161.295 39.9521 163.685 38.6078C166.075 37.2635 168.712 36.3076 171.595 35.74C174.482 35.1472 177.601 35.0562 180.953 35.4669C184.103 35.8529 186.936 36.6349 189.452 37.813C191.994 38.9941 194.106 40.5447 195.789 42.4649C197.472 44.385 198.69 46.6575 199.443 49.2822C200.196 51.9069 200.372 54.8574 199.97 58.1337L188.365 56.7116Z" fill="url(#paint5_linear)"/>
<path d="M221.949 51.6178L207.244 49.8159L210.193 40.4694L249.583 45.2961L246.635 54.6426L233.555 53.0399L219.563 98.0227L207.957 96.6006L221.949 51.6178Z" fill="#ED603C"/>
<path d="M221.949 51.6178L207.244 49.8159L210.193 40.4694L249.583 45.2961L246.635 54.6426L233.555 53.0399L219.563 98.0227L207.957 96.6006L221.949 51.6178Z" fill="url(#paint6_linear)"/>
<path d="M221.949 51.6178L207.244 49.8159L210.193 40.4694L249.583 45.2961L246.635 54.6426L233.555 53.0399L219.563 98.0227L207.957 96.6006L221.949 51.6178Z" fill="url(#paint7_linear)"/>
<path d="M257.484 46.2643L269.09 47.6863L262.439 69.088L272.91 70.3711C276.186 70.7726 278.964 71.4839 281.244 72.505C283.526 73.501 285.342 74.7594 286.69 76.2804C288.042 77.7762 288.956 79.4998 289.433 81.4513C289.939 83.3806 290.052 85.4793 289.774 87.7475C289.672 88.5792 289.469 89.6158 289.163 90.8574C288.861 92.0738 288.385 93.3457 287.736 94.6731C287.091 95.9754 286.229 97.2639 285.152 98.5389C284.103 99.7917 282.755 100.88 281.107 101.804C279.462 102.702 277.487 103.368 275.183 103.802C272.907 104.214 270.232 104.231 267.157 103.855L240.582 100.598L257.484 46.2643ZM255.103 92.6313L265.839 93.9469C267.603 94.163 269.197 94.2048 270.62 94.0722C272.046 93.9145 273.28 93.554 274.321 92.9909C275.39 92.4057 276.245 91.5895 276.885 90.5424C277.525 89.4952 277.942 88.1778 278.136 86.5901C278.282 85.4056 278.2 84.398 277.893 83.5673C277.614 82.7145 277.151 82.0055 276.504 81.4402C275.882 80.8779 275.092 80.4358 274.134 80.1137C273.175 79.7917 272.104 79.5581 270.92 79.413L259.616 78.0279L255.103 92.6313Z" fill="#ED603C"/>
<path d="M257.484 46.2643L269.09 47.6863L262.439 69.088L272.91 70.3711C276.186 70.7726 278.964 71.4839 281.244 72.505C283.526 73.501 285.342 74.7594 286.69 76.2804C288.042 77.7762 288.956 79.4998 289.433 81.4513C289.939 83.3806 290.052 85.4793 289.774 87.7475C289.672 88.5792 289.469 89.6158 289.163 90.8574C288.861 92.0738 288.385 93.3457 287.736 94.6731C287.091 95.9754 286.229 97.2639 285.152 98.5389C284.103 99.7917 282.755 100.88 281.107 101.804C279.462 102.702 277.487 103.368 275.183 103.802C272.907 104.214 270.232 104.231 267.157 103.855L240.582 100.598L257.484 46.2643ZM255.103 92.6313L265.839 93.9469C267.603 94.163 269.197 94.2048 270.62 94.0722C272.046 93.9145 273.28 93.554 274.321 92.9909C275.39 92.4057 276.245 91.5895 276.885 90.5424C277.525 89.4952 277.942 88.1778 278.136 86.5901C278.282 85.4056 278.2 84.398 277.893 83.5673C277.614 82.7145 277.151 82.0055 276.504 81.4402C275.882 80.8779 275.092 80.4358 274.134 80.1137C273.175 79.7917 272.104 79.5581 270.92 79.413L259.616 78.0279L255.103 92.6313Z" fill="url(#paint8_linear)"/>
<path d="M257.484 46.2643L269.09 47.6863L262.439 69.088L272.91 70.3711C276.186 70.7726 278.964 71.4839 281.244 72.505C283.526 73.501 285.342 74.7594 286.69 76.2804C288.042 77.7762 288.956 79.4998 289.433 81.4513C289.939 83.3806 290.052 85.4793 289.774 87.7475C289.672 88.5792 289.469 89.6158 289.163 90.8574C288.861 92.0738 288.385 93.3457 287.736 94.6731C287.091 95.9754 286.229 97.2639 285.152 98.5389C284.103 99.7917 282.755 100.88 281.107 101.804C279.462 102.702 277.487 103.368 275.183 103.802C272.907 104.214 270.232 104.231 267.157 103.855L240.582 100.598L257.484 46.2643ZM255.103 92.6313L265.839 93.9469C267.603 94.163 269.197 94.2048 270.62 94.0722C272.046 93.9145 273.28 93.554 274.321 92.9909C275.39 92.4057 276.245 91.5895 276.885 90.5424C277.525 89.4952 277.942 88.1778 278.136 86.5901C278.282 85.4056 278.2 84.398 277.893 83.5673C277.614 82.7145 277.151 82.0055 276.504 81.4402C275.882 80.8779 275.092 80.4358 274.134 80.1137C273.175 79.7917 272.104 79.5581 270.92 79.413L259.616 78.0279L255.103 92.6313Z" fill="url(#paint9_linear)"/>
<path d="M318.796 53.8154L330.629 55.2653L325.872 69.0331L314.104 93.9902L308.471 93.3L314.04 67.5832L318.796 53.8154ZM304.107 97.293L315.372 98.6733L311.727 109.316L300.462 107.936L304.107 97.293Z" fill="#ED603C"/>
<path d="M318.796 53.8154L330.629 55.2653L325.872 69.0331L314.104 93.9902L308.471 93.3L314.04 67.5832L318.796 53.8154ZM304.107 97.293L315.372 98.6733L311.727 109.316L300.462 107.936L304.107 97.293Z" fill="url(#paint10_linear)"/>
<path d="M318.796 53.8154L330.629 55.2653L325.872 69.0331L314.104 93.9902L308.471 93.3L314.04 67.5832L318.796 53.8154ZM304.107 97.293L315.372 98.6733L311.727 109.316L300.462 107.936L304.107 97.293Z" fill="url(#paint11_linear)"/>
<path d="M77.2187 50.9585L89.7468 82.1159L76.9693 80.5502L67.1518 54.8283L64.7324 54.5319L57.3873 78.1508L46.8402 76.8584L54.2231 53.2441L52.3708 53.0171L30.8872 74.9036L17.0513 73.2083L45.123 46.7188L32.9711 18.7539L45.7486 20.3196L54.9151 44.4653L56.9187 44.7108L63.7807 22.5291L74.4034 23.8307L67.3524 45.9892L69.1291 46.2069L91.3771 25.9106L104.835 27.5596L77.2187 50.9585Z" stroke="black" stroke-width="6" mask="url(#path-2-outside-1)"/>
<path d="M111.715 28.4027L148.649 32.9283L145.776 42.2841L120.221 39.1527L116.556 51.2125L139.994 54.0845L137.116 63.478L113.754 60.6154L109.409 74.779L136.212 78.0632L133.334 87.4568L94.8503 82.7412L111.715 28.4027Z" stroke="black" stroke-width="6" mask="url(#path-2-outside-1)"/>
<path d="M188.365 56.7116C188.565 55.0735 188.48 53.5793 188.108 52.2291C187.739 50.8538 187.143 49.6679 186.318 48.6716C185.522 47.6532 184.522 46.8399 183.318 46.2319C182.141 45.6017 180.835 45.1986 179.398 45.0226C177.029 44.7323 174.901 44.8808 173.013 45.468C171.124 46.0552 169.443 46.9364 167.969 48.1115C166.498 49.2614 165.215 50.6518 164.12 52.2827C163.053 53.8915 162.144 55.5707 161.392 57.3204C160.666 59.0732 160.079 60.8303 159.633 62.5919C159.216 64.3314 158.917 65.9319 158.738 67.3937C158.5 69.3342 158.503 71.1892 158.747 72.9585C159.016 74.7309 159.588 76.3231 160.464 77.735C161.365 79.15 162.601 80.3375 164.171 81.2973C165.767 82.2603 167.762 82.8885 170.157 83.1818C171.593 83.3579 173.001 83.3513 174.38 83.1621C175.787 82.9509 177.107 82.5115 178.34 81.844C179.576 81.1513 180.703 80.2022 181.72 78.9966C182.738 77.7911 183.589 76.2711 184.274 74.4365L196.069 75.8817C194.898 78.9615 193.428 81.6719 191.657 84.013C189.912 86.3572 187.873 88.2817 185.54 89.7864C183.235 91.269 180.652 92.3083 177.79 92.9042C174.929 93.5001 171.823 93.5926 168.471 93.1819C165.396 92.8052 162.694 92.1031 160.364 91.0758C158.059 90.0516 156.088 88.8124 154.45 87.3582C152.812 85.9041 151.463 84.2807 150.404 82.4882C149.373 80.6735 148.579 78.7984 148.023 76.863C147.468 74.9275 147.129 72.993 147.008 71.0596C146.915 69.1041 146.978 67.2317 147.197 65.4423C147.522 62.7961 148.112 60.1697 148.969 57.5631C149.828 54.9314 150.953 52.4344 152.342 50.0721C153.732 47.7099 155.366 45.5439 157.244 43.5742C159.148 41.6075 161.295 39.9521 163.685 38.6078C166.075 37.2635 168.712 36.3076 171.595 35.74C174.482 35.1472 177.601 35.0562 180.953 35.4669C184.103 35.8529 186.936 36.6349 189.452 37.813C191.994 38.9941 194.106 40.5447 195.789 42.4649C197.472 44.385 198.69 46.6575 199.443 49.2822C200.196 51.9069 200.372 54.8574 199.97 58.1337L188.365 56.7116Z" stroke="black" stroke-width="6" mask="url(#path-2-outside-1)"/>
<path d="M221.949 51.6178L207.244 49.8159L210.193 40.4694L249.583 45.2961L246.635 54.6426L233.555 53.0399L219.563 98.0227L207.957 96.6006L221.949 51.6178Z" stroke="black" stroke-width="6" mask="url(#path-2-outside-1)"/>
<path d="M257.484 46.2643L269.09 47.6863L262.439 69.088L272.91 70.3711C276.186 70.7726 278.964 71.4839 281.244 72.505C283.526 73.501 285.342 74.7594 286.69 76.2804C288.042 77.7762 288.956 79.4998 289.433 81.4513C289.939 83.3806 290.052 85.4793 289.774 87.7475C289.672 88.5792 289.469 89.6158 289.163 90.8574C288.861 92.0738 288.385 93.3457 287.736 94.6731C287.091 95.9754 286.229 97.2639 285.152 98.5389C284.103 99.7917 282.755 100.88 281.107 101.804C279.462 102.702 277.487 103.368 275.183 103.802C272.907 104.214 270.232 104.231 267.157 103.855L240.582 100.598L257.484 46.2643ZM255.103 92.6313L265.839 93.9469C267.603 94.163 269.197 94.2048 270.62 94.0722C272.046 93.9145 273.28 93.554 274.321 92.9909C275.39 92.4057 276.245 91.5895 276.885 90.5424C277.525 89.4952 277.942 88.1778 278.136 86.5901C278.282 85.4056 278.2 84.398 277.893 83.5673C277.614 82.7145 277.151 82.0055 276.504 81.4402C275.882 80.8779 275.092 80.4358 274.134 80.1137C273.175 79.7917 272.104 79.5581 270.92 79.413L259.616 78.0279L255.103 92.6313Z" stroke="black" stroke-width="6" mask="url(#path-2-outside-1)"/>
<path d="M318.796 53.8154L330.629 55.2653L325.872 69.0331L314.104 93.9902L308.471 93.3L314.04 67.5832L318.796 53.8154ZM304.107 97.293L315.372 98.6733L311.727 109.316L300.462 107.936L304.107 97.293Z" stroke="black" stroke-width="6" mask="url(#path-2-outside-1)"/>
<defs>
<linearGradient id="paint0_linear" x1="190.97" y1="22.9887" x2="181.128" y2="103.308" gradientUnits="userSpaceOnUse">
<stop stop-color="#2FAD74"/>
<stop offset="0.385417" stop-color="#ED603C"/>
</linearGradient>
<linearGradient id="paint1_linear" x1="202.016" y1="25.8078" x2="170.522" y2="173.083" gradientUnits="userSpaceOnUse">
<stop offset="0.00520833" stop-color="white"/>
<stop offset="0.541667" stop-color="white" stop-opacity="0"/>
<stop offset="1" stop-color="#D597C3"/>
</linearGradient>
<linearGradient id="paint2_linear" x1="190.97" y1="22.9887" x2="181.128" y2="103.308" gradientUnits="userSpaceOnUse">
<stop stop-color="#2FAD74"/>
<stop offset="0.385417" stop-color="#ED603C"/>
</linearGradient>
<linearGradient id="paint3_linear" x1="202.016" y1="25.8078" x2="170.522" y2="173.083" gradientUnits="userSpaceOnUse">
<stop offset="0.00520833" stop-color="white"/>
<stop offset="0.541667" stop-color="white" stop-opacity="0"/>
<stop offset="1" stop-color="#D597C3"/>
</linearGradient>
<linearGradient id="paint4_linear" x1="190.97" y1="22.9887" x2="181.128" y2="103.308" gradientUnits="userSpaceOnUse">
<stop stop-color="#2FAD74"/>
<stop offset="0.385417" stop-color="#ED603C"/>
</linearGradient>
<linearGradient id="paint5_linear" x1="202.016" y1="25.8078" x2="170.522" y2="173.083" gradientUnits="userSpaceOnUse">
<stop offset="0.00520833" stop-color="white"/>
<stop offset="0.541667" stop-color="white" stop-opacity="0"/>
<stop offset="1" stop-color="#D597C3"/>
</linearGradient>
<linearGradient id="paint6_linear" x1="190.97" y1="22.9887" x2="181.128" y2="103.308" gradientUnits="userSpaceOnUse">
<stop stop-color="#2FAD74"/>
<stop offset="0.385417" stop-color="#ED603C"/>
</linearGradient>
<linearGradient id="paint7_linear" x1="202.016" y1="25.8078" x2="170.522" y2="173.083" gradientUnits="userSpaceOnUse">
<stop offset="0.00520833" stop-color="white"/>
<stop offset="0.541667" stop-color="white" stop-opacity="0"/>
<stop offset="1" stop-color="#D597C3"/>
</linearGradient>
<linearGradient id="paint8_linear" x1="190.97" y1="22.9887" x2="181.128" y2="103.308" gradientUnits="userSpaceOnUse">
<stop stop-color="#2FAD74"/>
<stop offset="0.385417" stop-color="#ED603C"/>
</linearGradient>
<linearGradient id="paint9_linear" x1="202.016" y1="25.8078" x2="170.522" y2="173.083" gradientUnits="userSpaceOnUse">
<stop offset="0.00520833" stop-color="white"/>
<stop offset="0.541667" stop-color="white" stop-opacity="0"/>
<stop offset="1" stop-color="#D597C3"/>
</linearGradient>
<linearGradient id="paint10_linear" x1="190.97" y1="22.9887" x2="181.128" y2="103.308" gradientUnits="userSpaceOnUse">
<stop stop-color="#2FAD74"/>
<stop offset="0.385417" stop-color="#ED603C"/>
</linearGradient>
<linearGradient id="paint11_linear" x1="202.016" y1="25.8078" x2="170.522" y2="173.083" gradientUnits="userSpaceOnUse">
<stop offset="0.00520833" stop-color="white"/>
<stop offset="0.541667" stop-color="white" stop-opacity="0"/>
<stop offset="1" stop-color="#D597C3"/>
</linearGradient>
</defs>
</svg>
