<svg width="372" height="104" viewBox="0 0 372 104" fill="none" xmlns="http://www.w3.org/2000/svg">
<rect y="41.2422" width="367.39" height="62.256" transform="rotate(-6.29163 0 41.2422)" fill="#EBFF00"/>
<mask id="path-2-outside-1" maskUnits="userSpaceOnUse" x="20.5811" y="8.19531" width="321" height="88" fill="black">
<rect fill="white" x="20.5811" y="8.19531" width="321" height="88"/>
<path d="M26.412 47.9615L43.86 45.9116C46.6921 45.5789 49.1202 45.5602 51.1442 45.8557C53.1683 46.1511 54.8567 46.7321 56.2096 47.5985C57.56 48.4448 58.5927 49.554 59.3077 50.9261C60.0226 52.2983 60.487 53.8946 60.7009 55.7153C60.8364 56.8684 60.8142 57.9887 60.6343 59.0763C60.4723 60.1413 60.1402 61.1545 59.6379 62.1159C59.1534 63.0547 58.4863 63.9226 57.6366 64.7197C56.8047 65.4943 55.7866 66.1676 54.5823 66.7398C55.4663 67.1076 56.2742 67.5254 57.006 67.9932C57.7353 68.4407 58.3743 68.9912 58.9227 69.6445C59.4688 70.2777 59.9143 71.0149 60.2593 71.8563C60.6245 72.6953 60.8712 73.6609 60.9996 74.7533C61.2634 76.9988 61.1345 79.0443 60.613 80.8898C60.0892 82.7151 59.1905 84.3178 57.9171 85.698C56.6436 87.0781 55.0132 88.2131 53.0258 89.1028C51.0361 89.9724 48.696 90.5652 46.0054 90.8813L23.5811 93.5158L26.412 47.9615ZM33.3567 84.5535L44.7965 83.2095C46.2125 83.0431 47.3811 82.6905 48.3022 82.1516C49.2233 81.6127 49.9493 80.9839 50.4801 80.2653C51.011 79.5466 51.3627 78.7875 51.5354 77.9879C51.7081 77.1883 51.7528 76.4344 51.6696 75.7264C51.5579 74.7756 51.301 73.9855 50.8989 73.3559C50.4944 72.7061 49.9727 72.1932 49.3338 71.8171C48.7151 71.4386 47.9892 71.1957 47.1563 71.0885C46.3233 70.9812 45.4214 70.9847 44.4503 71.0988L34.1333 72.3109L33.3567 84.5535ZM34.5754 64.8143L45.3172 63.5522C47.5222 63.2932 49.1454 62.6205 50.1868 61.5343C51.2258 60.4278 51.6372 58.9541 51.4209 57.1132C51.3235 56.2838 51.0909 55.6138 50.7233 55.1033C50.3759 54.5904 49.9202 54.203 49.3562 53.9411C48.8125 53.6768 48.1795 53.5256 47.4572 53.4874C46.7325 53.429 45.9656 53.4473 45.1564 53.5424L35.2035 54.7117L34.5754 64.8143Z"/>
<path d="M89.2246 40.5819L98.3582 39.5088L97.0381 57.5988L111.861 37.9224L123.423 36.5641L107.068 57.8663L123.14 81.819L112.763 83.0382L101.396 65.3621L96.4147 71.6692L95.6486 85.0489L86.3936 86.1362L89.2246 40.5819Z"/>
<path d="M130.189 35.7691L139.505 34.6746L137.48 65.0912L137.601 65.0769L156.285 32.7032L166.238 31.5338L163.347 77.0953L154.001 78.1933L157.176 46.565L157.054 46.5793L136.795 80.2147L127.237 81.3377L130.189 35.7691Z"/>
<path d="M174.977 30.5071L190.332 28.7032C193.224 28.3633 195.704 28.431 197.769 28.9061C199.853 29.3586 201.582 30.1091 202.956 31.1577C204.348 32.1836 205.409 33.4434 206.138 34.9369C206.885 36.4078 207.358 37.9928 207.558 39.6921C207.855 42.2208 207.737 44.5317 207.203 46.6247C206.69 48.7154 205.757 50.5477 204.404 52.1218C203.051 53.6959 201.285 54.9903 199.107 56.005C196.95 57.0173 194.374 57.6993 191.38 58.0511L182.428 59.1027L181.462 74.967L172.146 76.0614L174.977 30.5071ZM182.949 51.2277L191.233 50.2545C192.71 50.081 193.95 49.7302 194.955 49.202C195.959 48.6738 196.755 48.0266 197.342 47.2604C197.949 46.4918 198.36 45.6333 198.577 44.6849C198.792 43.7163 198.838 42.7162 198.717 41.6845C198.619 40.8551 198.427 40.0881 198.139 39.3836C197.869 38.6565 197.459 38.0484 196.909 37.5592C196.357 37.0499 195.648 36.682 194.78 36.4558C193.933 36.2272 192.892 36.1854 191.658 36.3304L183.83 37.2502L182.949 51.2277Z"/>
<path d="M213.76 52.1608C213.511 50.0367 213.472 47.8775 213.645 45.6833C213.816 43.4688 214.218 41.3091 214.853 39.2042C215.488 37.0993 216.35 35.1009 217.44 33.2091C218.551 31.3148 219.91 29.617 221.518 28.1155C223.126 26.6141 224.999 25.3685 227.139 24.3788C229.276 23.3689 231.69 22.7059 234.381 22.3898C236.849 22.0998 239.078 22.1353 241.069 22.4961C243.08 22.8546 244.862 23.4451 246.415 24.2676C247.967 25.0901 249.318 26.1107 250.466 27.3294C251.632 28.5255 252.615 29.8251 253.416 31.2282C254.214 32.611 254.835 34.0557 255.278 35.5622C255.742 37.0664 256.059 38.5366 256.227 39.9729C256.477 42.097 256.516 44.2663 256.346 46.4808C256.173 48.675 255.769 50.8246 255.135 52.9295C254.5 55.0344 253.628 57.034 252.517 58.9282C251.427 60.8201 250.078 62.5167 248.47 64.0182C246.862 65.5196 244.988 66.7652 242.849 67.7549C240.711 68.7648 238.297 69.4278 235.607 69.7439C233.119 70.0363 230.879 70.002 228.888 69.6411C226.898 69.2803 225.116 68.6898 223.543 67.8696C221.99 67.0471 220.631 66.0379 219.465 64.8418C218.317 63.6231 217.342 62.3122 216.542 60.9091C215.761 59.5037 215.14 58.059 214.679 56.575C214.235 55.0685 213.929 53.5971 213.76 52.1608ZM223.126 51.4911C223.366 53.5343 223.857 55.2711 224.599 56.7016C225.339 58.1118 226.251 59.2352 227.333 60.0719C228.416 60.9086 229.612 61.4859 230.921 61.8039C232.248 62.0992 233.609 62.1648 235.005 62.0009C236.906 61.7774 238.537 61.2577 239.897 60.4416C241.258 59.6255 242.401 58.6196 243.327 57.4239C244.253 56.2281 244.979 54.902 245.505 53.4456C246.051 51.9868 246.441 50.5054 246.675 49.0013C246.928 47.4949 247.053 46.0241 247.049 44.5891C247.062 43.1314 247 41.8159 246.862 40.6426C246.619 38.5792 246.128 36.8424 245.388 35.4322C244.648 34.022 243.737 32.8985 242.654 32.0618C241.572 31.2251 240.367 30.6591 239.04 30.3638C237.731 30.0458 236.379 29.9689 234.983 30.1329C233.081 30.3563 231.45 30.876 230.09 31.6921C228.73 32.5082 227.587 33.5141 226.661 34.7099C225.733 35.8854 224.996 37.2127 224.452 38.6917C223.926 40.1481 223.536 41.6295 223.283 43.1359C223.049 44.64 222.926 46.1209 222.912 47.5786C222.917 49.0136 222.988 50.3178 223.126 51.4911Z"/>
<path d="M264.796 19.9546L282.244 17.9047C285.076 17.572 287.504 17.5533 289.529 17.8487C291.553 18.1442 293.241 18.7251 294.594 19.5916C295.944 20.4379 296.977 21.5471 297.692 22.9192C298.407 24.2913 298.871 25.8877 299.085 27.7084C299.221 28.8615 299.199 29.9818 299.019 31.0694C298.857 32.1344 298.525 33.1475 298.022 34.1089C297.538 35.0477 296.871 35.9157 296.021 36.7128C295.189 37.4874 294.171 38.1607 292.967 38.7329C293.851 39.1007 294.659 39.5185 295.39 39.9863C296.12 40.4338 296.759 40.9843 297.307 41.6376C297.853 42.2708 298.299 43.008 298.644 43.8494C299.009 44.6883 299.256 45.654 299.384 46.7464C299.648 48.9919 299.519 51.0374 298.997 52.8829C298.473 54.7082 297.575 56.3109 296.301 57.6911C295.028 59.0712 293.398 60.2061 291.41 61.0959C289.42 61.9655 287.08 62.5583 284.39 62.8744L261.965 65.5089L264.796 19.9546ZM271.741 56.5466L283.181 55.2026C284.597 55.0362 285.765 54.6836 286.687 54.1447C287.608 53.6058 288.334 52.977 288.864 52.2584C289.395 51.5397 289.747 50.7806 289.92 49.981C290.092 49.1814 290.137 48.4275 290.054 47.7195C289.942 46.7687 289.685 45.9785 289.283 45.349C288.879 44.6992 288.357 44.1863 287.718 43.8101C287.099 43.4316 286.374 43.1888 285.541 43.0816C284.708 42.9743 283.806 42.9778 282.835 43.0918L272.518 44.3039L271.741 56.5466ZM272.96 36.8073L283.702 35.5453C285.907 35.2863 287.53 34.6136 288.571 33.5273C289.61 32.4209 290.022 30.9472 289.805 29.1063C289.708 28.2769 289.475 27.6069 289.108 27.0964C288.76 26.5834 288.305 26.196 287.741 25.9342C287.197 25.6699 286.564 25.5187 285.841 25.4805C285.117 25.4221 284.35 25.4404 283.541 25.5355L273.588 26.7048L272.96 36.8073Z"/>
<path d="M309.706 14.6784L339.352 11.1953L338.889 19.0328L318.376 21.4428L317.808 31.5382L336.622 29.3279L336.162 37.1958L317.409 39.399L316.711 51.2632L338.225 48.7356L337.765 56.6035L306.875 60.2327L309.706 14.6784Z"/>
</mask>
<path d="M26.412 47.9615L43.86 45.9116C46.6921 45.5789 49.1202 45.5602 51.1442 45.8557C53.1683 46.1511 54.8567 46.7321 56.2096 47.5985C57.56 48.4448 58.5927 49.554 59.3077 50.9261C60.0226 52.2983 60.487 53.8946 60.7009 55.7153C60.8364 56.8684 60.8142 57.9887 60.6343 59.0763C60.4723 60.1413 60.1402 61.1545 59.6379 62.1159C59.1534 63.0547 58.4863 63.9226 57.6366 64.7197C56.8047 65.4943 55.7866 66.1676 54.5823 66.7398C55.4663 67.1076 56.2742 67.5254 57.006 67.9932C57.7353 68.4407 58.3743 68.9912 58.9227 69.6445C59.4688 70.2777 59.9143 71.0149 60.2593 71.8563C60.6245 72.6953 60.8712 73.6609 60.9996 74.7533C61.2634 76.9988 61.1345 79.0443 60.613 80.8898C60.0892 82.7151 59.1905 84.3178 57.9171 85.698C56.6436 87.0781 55.0132 88.2131 53.0258 89.1028C51.0361 89.9724 48.696 90.5652 46.0054 90.8813L23.5811 93.5158L26.412 47.9615ZM33.3567 84.5535L44.7965 83.2095C46.2125 83.0431 47.3811 82.6905 48.3022 82.1516C49.2233 81.6127 49.9493 80.9839 50.4801 80.2653C51.011 79.5466 51.3627 78.7875 51.5354 77.9879C51.7081 77.1883 51.7528 76.4344 51.6696 75.7264C51.5579 74.7756 51.301 73.9855 50.8989 73.3559C50.4944 72.7061 49.9727 72.1932 49.3338 71.8171C48.7151 71.4386 47.9892 71.1957 47.1563 71.0885C46.3233 70.9812 45.4214 70.9847 44.4503 71.0988L34.1333 72.3109L33.3567 84.5535ZM34.5754 64.8143L45.3172 63.5522C47.5222 63.2932 49.1454 62.6205 50.1868 61.5343C51.2258 60.4278 51.6372 58.9541 51.4209 57.1132C51.3235 56.2838 51.0909 55.6138 50.7233 55.1033C50.3759 54.5904 49.9202 54.203 49.3562 53.9411C48.8125 53.6768 48.1795 53.5256 47.4572 53.4874C46.7325 53.429 45.9656 53.4473 45.1564 53.5424L35.2035 54.7117L34.5754 64.8143Z" fill="#2FAD74"/>
<path d="M26.412 47.9615L43.86 45.9116C46.6921 45.5789 49.1202 45.5602 51.1442 45.8557C53.1683 46.1511 54.8567 46.7321 56.2096 47.5985C57.56 48.4448 58.5927 49.554 59.3077 50.9261C60.0226 52.2983 60.487 53.8946 60.7009 55.7153C60.8364 56.8684 60.8142 57.9887 60.6343 59.0763C60.4723 60.1413 60.1402 61.1545 59.6379 62.1159C59.1534 63.0547 58.4863 63.9226 57.6366 64.7197C56.8047 65.4943 55.7866 66.1676 54.5823 66.7398C55.4663 67.1076 56.2742 67.5254 57.006 67.9932C57.7353 68.4407 58.3743 68.9912 58.9227 69.6445C59.4688 70.2777 59.9143 71.0149 60.2593 71.8563C60.6245 72.6953 60.8712 73.6609 60.9996 74.7533C61.2634 76.9988 61.1345 79.0443 60.613 80.8898C60.0892 82.7151 59.1905 84.3178 57.9171 85.698C56.6436 87.0781 55.0132 88.2131 53.0258 89.1028C51.0361 89.9724 48.696 90.5652 46.0054 90.8813L23.5811 93.5158L26.412 47.9615ZM33.3567 84.5535L44.7965 83.2095C46.2125 83.0431 47.3811 82.6905 48.3022 82.1516C49.2233 81.6127 49.9493 80.9839 50.4801 80.2653C51.011 79.5466 51.3627 78.7875 51.5354 77.9879C51.7081 77.1883 51.7528 76.4344 51.6696 75.7264C51.5579 74.7756 51.301 73.9855 50.8989 73.3559C50.4944 72.7061 49.9727 72.1932 49.3338 71.8171C48.7151 71.4386 47.9892 71.1957 47.1563 71.0885C46.3233 70.9812 45.4214 70.9847 44.4503 71.0988L34.1333 72.3109L33.3567 84.5535ZM34.5754 64.8143L45.3172 63.5522C47.5222 63.2932 49.1454 62.6205 50.1868 61.5343C51.2258 60.4278 51.6372 58.9541 51.4209 57.1132C51.3235 56.2838 51.0909 55.6138 50.7233 55.1033C50.3759 54.5904 49.9202 54.203 49.3562 53.9411C48.8125 53.6768 48.1795 53.5256 47.4572 53.4874C46.7325 53.429 45.9656 53.4473 45.1564 53.5424L35.2035 54.7117L34.5754 64.8143Z" fill="url(#paint0_linear)"/>
<path d="M89.2246 40.5819L98.3582 39.5088L97.0381 57.5988L111.861 37.9224L123.423 36.5641L107.068 57.8663L123.14 81.819L112.763 83.0382L101.396 65.3621L96.4147 71.6692L95.6486 85.0489L86.3936 86.1362L89.2246 40.5819Z" fill="#2FAD74"/>
<path d="M89.2246 40.5819L98.3582 39.5088L97.0381 57.5988L111.861 37.9224L123.423 36.5641L107.068 57.8663L123.14 81.819L112.763 83.0382L101.396 65.3621L96.4147 71.6692L95.6486 85.0489L86.3936 86.1362L89.2246 40.5819Z" fill="url(#paint1_linear)"/>
<path d="M130.189 35.7691L139.505 34.6746L137.48 65.0912L137.601 65.0769L156.285 32.7032L166.238 31.5338L163.347 77.0953L154.001 78.1933L157.176 46.565L157.054 46.5793L136.795 80.2147L127.237 81.3377L130.189 35.7691Z" fill="#2FAD74"/>
<path d="M130.189 35.7691L139.505 34.6746L137.48 65.0912L137.601 65.0769L156.285 32.7032L166.238 31.5338L163.347 77.0953L154.001 78.1933L157.176 46.565L157.054 46.5793L136.795 80.2147L127.237 81.3377L130.189 35.7691Z" fill="url(#paint2_linear)"/>
<path d="M174.977 30.5071L190.332 28.7032C193.224 28.3633 195.704 28.431 197.769 28.9061C199.853 29.3586 201.582 30.1091 202.956 31.1577C204.348 32.1836 205.409 33.4434 206.138 34.9369C206.885 36.4078 207.358 37.9928 207.558 39.6921C207.855 42.2208 207.737 44.5317 207.203 46.6247C206.69 48.7154 205.757 50.5477 204.404 52.1218C203.051 53.6959 201.285 54.9903 199.107 56.005C196.95 57.0173 194.374 57.6993 191.38 58.0511L182.428 59.1027L181.462 74.967L172.146 76.0614L174.977 30.5071ZM182.949 51.2277L191.233 50.2545C192.71 50.081 193.95 49.7302 194.955 49.202C195.959 48.6738 196.755 48.0266 197.342 47.2604C197.949 46.4918 198.36 45.6333 198.577 44.6849C198.792 43.7163 198.838 42.7162 198.717 41.6845C198.619 40.8551 198.427 40.0881 198.139 39.3836C197.869 38.6565 197.459 38.0484 196.909 37.5592C196.357 37.0499 195.648 36.682 194.78 36.4558C193.933 36.2272 192.892 36.1854 191.658 36.3304L183.83 37.2502L182.949 51.2277Z" fill="#2FAD74"/>
<path d="M174.977 30.5071L190.332 28.7032C193.224 28.3633 195.704 28.431 197.769 28.9061C199.853 29.3586 201.582 30.1091 202.956 31.1577C204.348 32.1836 205.409 33.4434 206.138 34.9369C206.885 36.4078 207.358 37.9928 207.558 39.6921C207.855 42.2208 207.737 44.5317 207.203 46.6247C206.69 48.7154 205.757 50.5477 204.404 52.1218C203.051 53.6959 201.285 54.9903 199.107 56.005C196.95 57.0173 194.374 57.6993 191.38 58.0511L182.428 59.1027L181.462 74.967L172.146 76.0614L174.977 30.5071ZM182.949 51.2277L191.233 50.2545C192.71 50.081 193.95 49.7302 194.955 49.202C195.959 48.6738 196.755 48.0266 197.342 47.2604C197.949 46.4918 198.36 45.6333 198.577 44.6849C198.792 43.7163 198.838 42.7162 198.717 41.6845C198.619 40.8551 198.427 40.0881 198.139 39.3836C197.869 38.6565 197.459 38.0484 196.909 37.5592C196.357 37.0499 195.648 36.682 194.78 36.4558C193.933 36.2272 192.892 36.1854 191.658 36.3304L183.83 37.2502L182.949 51.2277Z" fill="url(#paint3_linear)"/>
<path d="M213.76 52.1608C213.511 50.0367 213.472 47.8775 213.645 45.6833C213.816 43.4688 214.218 41.3091 214.853 39.2042C215.488 37.0993 216.35 35.1009 217.44 33.2091C218.551 31.3148 219.91 29.617 221.518 28.1155C223.126 26.6141 224.999 25.3685 227.139 24.3788C229.276 23.3689 231.69 22.7059 234.381 22.3898C236.849 22.0998 239.078 22.1353 241.069 22.4961C243.08 22.8546 244.862 23.4451 246.415 24.2676C247.967 25.0901 249.318 26.1107 250.466 27.3294C251.632 28.5255 252.615 29.8251 253.416 31.2282C254.214 32.611 254.835 34.0557 255.278 35.5622C255.742 37.0664 256.059 38.5366 256.227 39.9729C256.477 42.097 256.516 44.2663 256.346 46.4808C256.173 48.675 255.769 50.8246 255.135 52.9295C254.5 55.0344 253.628 57.034 252.517 58.9282C251.427 60.8201 250.078 62.5167 248.47 64.0182C246.862 65.5196 244.988 66.7652 242.849 67.7549C240.711 68.7648 238.297 69.4278 235.607 69.7439C233.119 70.0363 230.879 70.002 228.888 69.6411C226.898 69.2803 225.116 68.6898 223.543 67.8696C221.99 67.0471 220.631 66.0379 219.465 64.8418C218.317 63.6231 217.342 62.3122 216.542 60.9091C215.761 59.5037 215.14 58.059 214.679 56.575C214.235 55.0685 213.929 53.5971 213.76 52.1608ZM223.126 51.4911C223.366 53.5343 223.857 55.2711 224.599 56.7016C225.339 58.1118 226.251 59.2352 227.333 60.0719C228.416 60.9086 229.612 61.4859 230.921 61.8039C232.248 62.0992 233.609 62.1648 235.005 62.0009C236.906 61.7774 238.537 61.2577 239.897 60.4416C241.258 59.6255 242.401 58.6196 243.327 57.4239C244.253 56.2281 244.979 54.902 245.505 53.4456C246.051 51.9868 246.441 50.5054 246.675 49.0013C246.928 47.4949 247.053 46.0241 247.049 44.5891C247.062 43.1314 247 41.8159 246.862 40.6426C246.619 38.5792 246.128 36.8424 245.388 35.4322C244.648 34.022 243.737 32.8985 242.654 32.0618C241.572 31.2251 240.367 30.6591 239.04 30.3638C237.731 30.0458 236.379 29.9689 234.983 30.1329C233.081 30.3563 231.45 30.876 230.09 31.6921C228.73 32.5082 227.587 33.5141 226.661 34.7099C225.733 35.8854 224.996 37.2127 224.452 38.6917C223.926 40.1481 223.536 41.6295 223.283 43.1359C223.049 44.64 222.926 46.1209 222.912 47.5786C222.917 49.0136 222.988 50.3178 223.126 51.4911Z" fill="#2FAD74"/>
<path d="M213.76 52.1608C213.511 50.0367 213.472 47.8775 213.645 45.6833C213.816 43.4688 214.218 41.3091 214.853 39.2042C215.488 37.0993 216.35 35.1009 217.44 33.2091C218.551 31.3148 219.91 29.617 221.518 28.1155C223.126 26.6141 224.999 25.3685 227.139 24.3788C229.276 23.3689 231.69 22.7059 234.381 22.3898C236.849 22.0998 239.078 22.1353 241.069 22.4961C243.08 22.8546 244.862 23.4451 246.415 24.2676C247.967 25.0901 249.318 26.1107 250.466 27.3294C251.632 28.5255 252.615 29.8251 253.416 31.2282C254.214 32.611 254.835 34.0557 255.278 35.5622C255.742 37.0664 256.059 38.5366 256.227 39.9729C256.477 42.097 256.516 44.2663 256.346 46.4808C256.173 48.675 255.769 50.8246 255.135 52.9295C254.5 55.0344 253.628 57.034 252.517 58.9282C251.427 60.8201 250.078 62.5167 248.47 64.0182C246.862 65.5196 244.988 66.7652 242.849 67.7549C240.711 68.7648 238.297 69.4278 235.607 69.7439C233.119 70.0363 230.879 70.002 228.888 69.6411C226.898 69.2803 225.116 68.6898 223.543 67.8696C221.99 67.0471 220.631 66.0379 219.465 64.8418C218.317 63.6231 217.342 62.3122 216.542 60.9091C215.761 59.5037 215.14 58.059 214.679 56.575C214.235 55.0685 213.929 53.5971 213.76 52.1608ZM223.126 51.4911C223.366 53.5343 223.857 55.2711 224.599 56.7016C225.339 58.1118 226.251 59.2352 227.333 60.0719C228.416 60.9086 229.612 61.4859 230.921 61.8039C232.248 62.0992 233.609 62.1648 235.005 62.0009C236.906 61.7774 238.537 61.2577 239.897 60.4416C241.258 59.6255 242.401 58.6196 243.327 57.4239C244.253 56.2281 244.979 54.902 245.505 53.4456C246.051 51.9868 246.441 50.5054 246.675 49.0013C246.928 47.4949 247.053 46.0241 247.049 44.5891C247.062 43.1314 247 41.8159 246.862 40.6426C246.619 38.5792 246.128 36.8424 245.388 35.4322C244.648 34.022 243.737 32.8985 242.654 32.0618C241.572 31.2251 240.367 30.6591 239.04 30.3638C237.731 30.0458 236.379 29.9689 234.983 30.1329C233.081 30.3563 231.45 30.876 230.09 31.6921C228.73 32.5082 227.587 33.5141 226.661 34.7099C225.733 35.8854 224.996 37.2127 224.452 38.6917C223.926 40.1481 223.536 41.6295 223.283 43.1359C223.049 44.64 222.926 46.1209 222.912 47.5786C222.917 49.0136 222.988 50.3178 223.126 51.4911Z" fill="url(#paint4_linear)"/>
<path d="M264.796 19.9546L282.244 17.9047C285.076 17.572 287.504 17.5533 289.529 17.8487C291.553 18.1442 293.241 18.7251 294.594 19.5916C295.944 20.4379 296.977 21.5471 297.692 22.9192C298.407 24.2913 298.871 25.8877 299.085 27.7084C299.221 28.8615 299.199 29.9818 299.019 31.0694C298.857 32.1344 298.525 33.1475 298.022 34.1089C297.538 35.0477 296.871 35.9157 296.021 36.7128C295.189 37.4874 294.171 38.1607 292.967 38.7329C293.851 39.1007 294.659 39.5185 295.39 39.9863C296.12 40.4338 296.759 40.9843 297.307 41.6376C297.853 42.2708 298.299 43.008 298.644 43.8494C299.009 44.6883 299.256 45.654 299.384 46.7464C299.648 48.9919 299.519 51.0374 298.997 52.8829C298.473 54.7082 297.575 56.3109 296.301 57.6911C295.028 59.0712 293.398 60.2061 291.41 61.0959C289.42 61.9655 287.08 62.5583 284.39 62.8744L261.965 65.5089L264.796 19.9546ZM271.741 56.5466L283.181 55.2026C284.597 55.0362 285.765 54.6836 286.687 54.1447C287.608 53.6058 288.334 52.977 288.864 52.2584C289.395 51.5397 289.747 50.7806 289.92 49.981C290.092 49.1814 290.137 48.4275 290.054 47.7195C289.942 46.7687 289.685 45.9785 289.283 45.349C288.879 44.6992 288.357 44.1863 287.718 43.8101C287.099 43.4316 286.374 43.1888 285.541 43.0816C284.708 42.9743 283.806 42.9778 282.835 43.0918L272.518 44.3039L271.741 56.5466ZM272.96 36.8073L283.702 35.5453C285.907 35.2863 287.53 34.6136 288.571 33.5273C289.61 32.4209 290.022 30.9472 289.805 29.1063C289.708 28.2769 289.475 27.6069 289.108 27.0964C288.76 26.5834 288.305 26.196 287.741 25.9342C287.197 25.6699 286.564 25.5187 285.841 25.4805C285.117 25.4221 284.35 25.4404 283.541 25.5355L273.588 26.7048L272.96 36.8073Z" fill="#2FAD74"/>
<path d="M264.796 19.9546L282.244 17.9047C285.076 17.572 287.504 17.5533 289.529 17.8487C291.553 18.1442 293.241 18.7251 294.594 19.5916C295.944 20.4379 296.977 21.5471 297.692 22.9192C298.407 24.2913 298.871 25.8877 299.085 27.7084C299.221 28.8615 299.199 29.9818 299.019 31.0694C298.857 32.1344 298.525 33.1475 298.022 34.1089C297.538 35.0477 296.871 35.9157 296.021 36.7128C295.189 37.4874 294.171 38.1607 292.967 38.7329C293.851 39.1007 294.659 39.5185 295.39 39.9863C296.12 40.4338 296.759 40.9843 297.307 41.6376C297.853 42.2708 298.299 43.008 298.644 43.8494C299.009 44.6883 299.256 45.654 299.384 46.7464C299.648 48.9919 299.519 51.0374 298.997 52.8829C298.473 54.7082 297.575 56.3109 296.301 57.6911C295.028 59.0712 293.398 60.2061 291.41 61.0959C289.42 61.9655 287.08 62.5583 284.39 62.8744L261.965 65.5089L264.796 19.9546ZM271.741 56.5466L283.181 55.2026C284.597 55.0362 285.765 54.6836 286.687 54.1447C287.608 53.6058 288.334 52.977 288.864 52.2584C289.395 51.5397 289.747 50.7806 289.92 49.981C290.092 49.1814 290.137 48.4275 290.054 47.7195C289.942 46.7687 289.685 45.9785 289.283 45.349C288.879 44.6992 288.357 44.1863 287.718 43.8101C287.099 43.4316 286.374 43.1888 285.541 43.0816C284.708 42.9743 283.806 42.9778 282.835 43.0918L272.518 44.3039L271.741 56.5466ZM272.96 36.8073L283.702 35.5453C285.907 35.2863 287.53 34.6136 288.571 33.5273C289.61 32.4209 290.022 30.9472 289.805 29.1063C289.708 28.2769 289.475 27.6069 289.108 27.0964C288.76 26.5834 288.305 26.196 287.741 25.9342C287.197 25.6699 286.564 25.5187 285.841 25.4805C285.117 25.4221 284.35 25.4404 283.541 25.5355L273.588 26.7048L272.96 36.8073Z" fill="url(#paint5_linear)"/>
<path d="M309.706 14.6784L339.352 11.1953L338.889 19.0328L318.376 21.4428L317.808 31.5382L336.622 29.3279L336.162 37.1958L317.409 39.399L316.711 51.2632L338.225 48.7356L337.765 56.6035L306.875 60.2327L309.706 14.6784Z" fill="#2FAD74"/>
<path d="M309.706 14.6784L339.352 11.1953L338.889 19.0328L318.376 21.4428L317.808 31.5382L336.622 29.3279L336.162 37.1958L317.409 39.399L316.711 51.2632L338.225 48.7356L337.765 56.6035L306.875 60.2327L309.706 14.6784Z" fill="url(#paint6_linear)"/>
<path d="M26.412 47.9615L43.86 45.9116C46.6921 45.5789 49.1202 45.5602 51.1442 45.8557C53.1683 46.1511 54.8567 46.7321 56.2096 47.5985C57.56 48.4448 58.5927 49.554 59.3077 50.9261C60.0226 52.2983 60.487 53.8946 60.7009 55.7153C60.8364 56.8684 60.8142 57.9887 60.6343 59.0763C60.4723 60.1413 60.1402 61.1545 59.6379 62.1159C59.1534 63.0547 58.4863 63.9226 57.6366 64.7197C56.8047 65.4943 55.7866 66.1676 54.5823 66.7398C55.4663 67.1076 56.2742 67.5254 57.006 67.9932C57.7353 68.4407 58.3743 68.9912 58.9227 69.6445C59.4688 70.2777 59.9143 71.0149 60.2593 71.8563C60.6245 72.6953 60.8712 73.6609 60.9996 74.7533C61.2634 76.9988 61.1345 79.0443 60.613 80.8898C60.0892 82.7151 59.1905 84.3178 57.9171 85.698C56.6436 87.0781 55.0132 88.2131 53.0258 89.1028C51.0361 89.9724 48.696 90.5652 46.0054 90.8813L23.5811 93.5158L26.412 47.9615ZM33.3567 84.5535L44.7965 83.2095C46.2125 83.0431 47.3811 82.6905 48.3022 82.1516C49.2233 81.6127 49.9493 80.9839 50.4801 80.2653C51.011 79.5466 51.3627 78.7875 51.5354 77.9879C51.7081 77.1883 51.7528 76.4344 51.6696 75.7264C51.5579 74.7756 51.301 73.9855 50.8989 73.3559C50.4944 72.7061 49.9727 72.1932 49.3338 71.8171C48.7151 71.4386 47.9892 71.1957 47.1563 71.0885C46.3233 70.9812 45.4214 70.9847 44.4503 71.0988L34.1333 72.3109L33.3567 84.5535ZM34.5754 64.8143L45.3172 63.5522C47.5222 63.2932 49.1454 62.6205 50.1868 61.5343C51.2258 60.4278 51.6372 58.9541 51.4209 57.1132C51.3235 56.2838 51.0909 55.6138 50.7233 55.1033C50.3759 54.5904 49.9202 54.203 49.3562 53.9411C48.8125 53.6768 48.1795 53.5256 47.4572 53.4874C46.7325 53.429 45.9656 53.4473 45.1564 53.5424L35.2035 54.7117L34.5754 64.8143Z" stroke="black" stroke-width="4" mask="url(#path-2-outside-1)"/>
<path d="M89.2246 40.5819L98.3582 39.5088L97.0381 57.5988L111.861 37.9224L123.423 36.5641L107.068 57.8663L123.14 81.819L112.763 83.0382L101.396 65.3621L96.4147 71.6692L95.6486 85.0489L86.3936 86.1362L89.2246 40.5819Z" stroke="black" stroke-width="4" mask="url(#path-2-outside-1)"/>
<path d="M130.189 35.7691L139.505 34.6746L137.48 65.0912L137.601 65.0769L156.285 32.7032L166.238 31.5338L163.347 77.0953L154.001 78.1933L157.176 46.565L157.054 46.5793L136.795 80.2147L127.237 81.3377L130.189 35.7691Z" stroke="black" stroke-width="4" mask="url(#path-2-outside-1)"/>
<path d="M174.977 30.5071L190.332 28.7032C193.224 28.3633 195.704 28.431 197.769 28.9061C199.853 29.3586 201.582 30.1091 202.956 31.1577C204.348 32.1836 205.409 33.4434 206.138 34.9369C206.885 36.4078 207.358 37.9928 207.558 39.6921C207.855 42.2208 207.737 44.5317 207.203 46.6247C206.69 48.7154 205.757 50.5477 204.404 52.1218C203.051 53.6959 201.285 54.9903 199.107 56.005C196.95 57.0173 194.374 57.6993 191.38 58.0511L182.428 59.1027L181.462 74.967L172.146 76.0614L174.977 30.5071ZM182.949 51.2277L191.233 50.2545C192.71 50.081 193.95 49.7302 194.955 49.202C195.959 48.6738 196.755 48.0266 197.342 47.2604C197.949 46.4918 198.36 45.6333 198.577 44.6849C198.792 43.7163 198.838 42.7162 198.717 41.6845C198.619 40.8551 198.427 40.0881 198.139 39.3836C197.869 38.6565 197.459 38.0484 196.909 37.5592C196.357 37.0499 195.648 36.682 194.78 36.4558C193.933 36.2272 192.892 36.1854 191.658 36.3304L183.83 37.2502L182.949 51.2277Z" stroke="black" stroke-width="4" mask="url(#path-2-outside-1)"/>
<path d="M213.76 52.1608C213.511 50.0367 213.472 47.8775 213.645 45.6833C213.816 43.4688 214.218 41.3091 214.853 39.2042C215.488 37.0993 216.35 35.1009 217.44 33.2091C218.551 31.3148 219.91 29.617 221.518 28.1155C223.126 26.6141 224.999 25.3685 227.139 24.3788C229.276 23.3689 231.69 22.7059 234.381 22.3898C236.849 22.0998 239.078 22.1353 241.069 22.4961C243.08 22.8546 244.862 23.4451 246.415 24.2676C247.967 25.0901 249.318 26.1107 250.466 27.3294C251.632 28.5255 252.615 29.8251 253.416 31.2282C254.214 32.611 254.835 34.0557 255.278 35.5622C255.742 37.0664 256.059 38.5366 256.227 39.9729C256.477 42.097 256.516 44.2663 256.346 46.4808C256.173 48.675 255.769 50.8246 255.135 52.9295C254.5 55.0344 253.628 57.034 252.517 58.9282C251.427 60.8201 250.078 62.5167 248.47 64.0182C246.862 65.5196 244.988 66.7652 242.849 67.7549C240.711 68.7648 238.297 69.4278 235.607 69.7439C233.119 70.0363 230.879 70.002 228.888 69.6411C226.898 69.2803 225.116 68.6898 223.543 67.8696C221.99 67.0471 220.631 66.0379 219.465 64.8418C218.317 63.6231 217.342 62.3122 216.542 60.9091C215.761 59.5037 215.14 58.059 214.679 56.575C214.235 55.0685 213.929 53.5971 213.76 52.1608ZM223.126 51.4911C223.366 53.5343 223.857 55.2711 224.599 56.7016C225.339 58.1118 226.251 59.2352 227.333 60.0719C228.416 60.9086 229.612 61.4859 230.921 61.8039C232.248 62.0992 233.609 62.1648 235.005 62.0009C236.906 61.7774 238.537 61.2577 239.897 60.4416C241.258 59.6255 242.401 58.6196 243.327 57.4239C244.253 56.2281 244.979 54.902 245.505 53.4456C246.051 51.9868 246.441 50.5054 246.675 49.0013C246.928 47.4949 247.053 46.0241 247.049 44.5891C247.062 43.1314 247 41.8159 246.862 40.6426C246.619 38.5792 246.128 36.8424 245.388 35.4322C244.648 34.022 243.737 32.8985 242.654 32.0618C241.572 31.2251 240.367 30.6591 239.04 30.3638C237.731 30.0458 236.379 29.9689 234.983 30.1329C233.081 30.3563 231.45 30.876 230.09 31.6921C228.73 32.5082 227.587 33.5141 226.661 34.7099C225.733 35.8854 224.996 37.2127 224.452 38.6917C223.926 40.1481 223.536 41.6295 223.283 43.1359C223.049 44.64 222.926 46.1209 222.912 47.5786C222.917 49.0136 222.988 50.3178 223.126 51.4911Z" stroke="black" stroke-width="4" mask="url(#path-2-outside-1)"/>
<path d="M264.796 19.9546L282.244 17.9047C285.076 17.572 287.504 17.5533 289.529 17.8487C291.553 18.1442 293.241 18.7251 294.594 19.5916C295.944 20.4379 296.977 21.5471 297.692 22.9192C298.407 24.2913 298.871 25.8877 299.085 27.7084C299.221 28.8615 299.199 29.9818 299.019 31.0694C298.857 32.1344 298.525 33.1475 298.022 34.1089C297.538 35.0477 296.871 35.9157 296.021 36.7128C295.189 37.4874 294.171 38.1607 292.967 38.7329C293.851 39.1007 294.659 39.5185 295.39 39.9863C296.12 40.4338 296.759 40.9843 297.307 41.6376C297.853 42.2708 298.299 43.008 298.644 43.8494C299.009 44.6883 299.256 45.654 299.384 46.7464C299.648 48.9919 299.519 51.0374 298.997 52.8829C298.473 54.7082 297.575 56.3109 296.301 57.6911C295.028 59.0712 293.398 60.2061 291.41 61.0959C289.42 61.9655 287.08 62.5583 284.39 62.8744L261.965 65.5089L264.796 19.9546ZM271.741 56.5466L283.181 55.2026C284.597 55.0362 285.765 54.6836 286.687 54.1447C287.608 53.6058 288.334 52.977 288.864 52.2584C289.395 51.5397 289.747 50.7806 289.92 49.981C290.092 49.1814 290.137 48.4275 290.054 47.7195C289.942 46.7687 289.685 45.9785 289.283 45.349C288.879 44.6992 288.357 44.1863 287.718 43.8101C287.099 43.4316 286.374 43.1888 285.541 43.0816C284.708 42.9743 283.806 42.9778 282.835 43.0918L272.518 44.3039L271.741 56.5466ZM272.96 36.8073L283.702 35.5453C285.907 35.2863 287.53 34.6136 288.571 33.5273C289.61 32.4209 290.022 30.9472 289.805 29.1063C289.708 28.2769 289.475 27.6069 289.108 27.0964C288.76 26.5834 288.305 26.196 287.741 25.9342C287.197 25.6699 286.564 25.5187 285.841 25.4805C285.117 25.4221 284.35 25.4404 283.541 25.5355L273.588 26.7048L272.96 36.8073Z" stroke="black" stroke-width="4" mask="url(#path-2-outside-1)"/>
<path d="M309.706 14.6784L339.352 11.1953L338.889 19.0328L318.376 21.4428L317.808 31.5382L336.622 29.3279L336.162 37.1958L317.409 39.399L316.711 51.2632L338.225 48.7356L337.765 56.6035L306.875 60.2327L309.706 14.6784Z" stroke="black" stroke-width="4" mask="url(#path-2-outside-1)"/>
<defs>
<linearGradient id="paint0_linear" x1="200.777" y1="12.3186" x2="213.555" y2="121.08" gradientUnits="userSpaceOnUse">
<stop stop-color="white"/>
<stop offset="0.385417" stop-color="#2FAD74"/>
</linearGradient>
<linearGradient id="paint1_linear" x1="200.777" y1="12.3186" x2="213.555" y2="121.08" gradientUnits="userSpaceOnUse">
<stop stop-color="white"/>
<stop offset="0.385417" stop-color="#2FAD74"/>
</linearGradient>
<linearGradient id="paint2_linear" x1="200.777" y1="12.3186" x2="213.555" y2="121.08" gradientUnits="userSpaceOnUse">
<stop stop-color="white"/>
<stop offset="0.385417" stop-color="#2FAD74"/>
</linearGradient>
<linearGradient id="paint3_linear" x1="200.777" y1="12.3186" x2="213.555" y2="121.08" gradientUnits="userSpaceOnUse">
<stop stop-color="white"/>
<stop offset="0.385417" stop-color="#2FAD74"/>
</linearGradient>
<linearGradient id="paint4_linear" x1="200.777" y1="12.3186" x2="213.555" y2="121.08" gradientUnits="userSpaceOnUse">
<stop stop-color="white"/>
<stop offset="0.385417" stop-color="#2FAD74"/>
</linearGradient>
<linearGradient id="paint5_linear" x1="200.777" y1="12.3186" x2="213.555" y2="121.08" gradientUnits="userSpaceOnUse">
<stop stop-color="white"/>
<stop offset="0.385417" stop-color="#2FAD74"/>
</linearGradient>
<linearGradient id="paint6_linear" x1="200.777" y1="12.3186" x2="213.555" y2="121.08" gradientUnits="userSpaceOnUse">
<stop stop-color="white"/>
<stop offset="0.385417" stop-color="#2FAD74"/>
</linearGradient>
</defs>
</svg>
