<svg width="285" height="165" viewBox="0 0 285 165" fill="none" xmlns="http://www.w3.org/2000/svg">
<rect y="69.5469" width="280.079" height="55.7396" transform="rotate(-6.33742 0 69.5469)" fill="white"/>
<mask id="path-2-outside-1" maskUnits="userSpaceOnUse" x="14.4546" y="48.1406" width="249" height="68" fill="black">
<rect fill="white" x="14.4546" y="48.1406" width="249" height="68"/>
<path d="M19.6043 79.2971L32.6498 77.7773C34.7673 77.5307 36.5826 77.5185 38.0956 77.7408C39.6085 77.9632 40.8704 78.3987 41.8811 79.0475C42.8901 79.6812 43.6613 80.5111 44.1948 81.5375C44.7283 82.5638 45.0743 83.7576 45.2329 85.1188C45.3334 85.981 45.316 86.8185 45.1807 87.6315C45.0588 88.4275 44.8098 89.1847 44.4335 89.9031C44.0707 90.6046 43.5713 91.253 42.9354 91.8483C42.313 92.4267 41.5513 92.9294 40.6506 93.3563C41.3112 93.6319 41.9149 93.9448 42.4616 94.2951C43.0066 94.6302 43.4838 95.0422 43.8934 95.531C44.3012 96.0048 44.6337 96.5562 44.891 97.1855C45.1634 97.813 45.3471 98.5351 45.4423 99.3519C45.6379 101.031 45.5401 102.56 45.1488 103.939C44.7559 105.303 44.0829 106.501 43.1298 107.532C42.1768 108.563 40.9571 109.41 39.4707 110.074C37.9825 110.722 36.2326 111.164 34.2209 111.398L17.4546 113.351L19.6043 79.2971ZM24.7694 106.658L33.3227 105.662C34.3815 105.538 35.2554 105.276 35.9444 104.874C36.6334 104.471 37.1766 104.002 37.574 103.465C37.9713 102.928 38.2349 102.361 38.3645 101.763C38.4942 101.165 38.5282 100.602 38.4665 100.073C38.3837 99.3616 38.1922 98.7707 37.8921 98.2998C37.5902 97.8137 37.2005 97.4298 36.7231 97.1482C36.2608 96.8648 35.7184 96.6827 35.0958 96.6019C34.4731 96.5211 33.7988 96.523 33.0728 96.6076L25.3589 97.5063L24.7694 106.658ZM25.6949 91.9021L33.7264 90.9665C35.375 90.7744 36.589 90.2727 37.3684 89.4614C38.1459 88.635 38.4545 87.5335 38.2942 86.1571C38.2219 85.537 38.0486 85.036 37.7741 84.654C37.5148 84.2703 37.1744 83.9803 36.753 83.7842C36.3466 83.5862 35.8735 83.4727 35.3335 83.4436C34.7918 83.3994 34.2185 83.4125 33.6134 83.483L26.1718 84.3499L25.6949 91.9021Z"/>
<path d="M65.9329 73.9L76.0971 72.7159L80.3821 97.2591L80.4728 97.2486L87.8041 71.3521L98.3086 70.1283L96.1589 104.183L89.6475 104.941L91.861 75.7776L91.7702 75.7881L83.1587 105.697L76.9649 106.419L71.7368 78.122L71.6461 78.1325L70.4535 107.177L63.9648 107.933L65.9329 73.9Z"/>
<path d="M102.807 89.1968C102.622 87.6086 102.594 85.9944 102.725 84.3541C102.854 82.6987 103.157 81.0844 103.633 79.5113C104.109 77.9381 104.755 76.4447 105.572 75.0312C106.403 73.6159 107.42 72.3476 108.624 71.2263C109.827 70.1049 111.228 69.1751 112.829 68.4368C114.427 67.6833 116.233 67.1894 118.244 66.9551C120.089 66.7401 121.756 66.7682 123.244 67.0395C124.747 67.309 126.079 67.7517 127.239 68.3677C128.399 68.9838 129.408 69.7478 130.266 70.6597C131.136 71.5547 131.871 72.527 132.468 73.5765C133.064 74.6109 133.527 75.6914 133.858 76.818C134.203 77.9429 134.439 79.0423 134.564 80.1162C134.749 81.7043 134.777 83.3261 134.648 84.9815C134.517 86.6218 134.213 88.2285 133.737 89.8017C133.261 91.3748 132.608 92.8691 131.776 94.2844C130.96 95.6979 129.95 96.9653 128.747 98.0867C127.544 99.208 126.142 100.138 124.541 100.876C122.943 101.63 121.138 102.123 119.126 102.358C117.266 102.575 115.591 102.547 114.103 102.276C112.615 102.005 111.284 101.562 110.108 100.948C108.948 100.332 107.933 99.5762 107.062 98.6812C106.204 97.7693 105.477 96.7886 104.879 95.739C104.297 94.6877 103.834 93.6072 103.49 92.4975C103.159 91.3709 102.932 90.2707 102.807 89.1968ZM109.809 88.703C109.987 90.2306 110.353 91.5294 110.907 92.5993C111.459 93.6542 112.139 94.4947 112.948 95.121C113.757 95.7473 114.65 96.1798 115.629 96.4184C116.62 96.6402 117.638 96.6903 118.682 96.5687C120.103 96.4031 121.323 96.0157 122.341 95.4066C123.358 94.7975 124.213 94.0463 124.906 93.153C125.6 92.2597 126.143 91.2689 126.538 90.1805C126.947 89.0903 127.24 87.9831 127.416 86.8588C127.606 85.7328 127.701 84.6333 127.698 83.5605C127.709 82.4707 127.664 81.4872 127.562 80.6099C127.382 79.0672 127.016 77.7684 126.464 76.7136C125.912 75.6588 125.231 74.8182 124.422 74.1919C123.613 73.5656 122.713 73.1416 121.722 72.9198C120.743 72.6812 119.732 72.6226 118.689 72.7442C117.267 72.9099 116.047 73.2972 115.03 73.9063C114.012 74.5155 113.157 75.2666 112.464 76.1599C111.769 77.038 111.218 78.0298 110.81 79.1351C110.415 80.2235 110.123 81.3307 109.932 82.4568C109.756 83.581 109.663 84.688 109.652 85.7778C109.654 86.8506 109.707 87.8257 109.809 88.703Z"/>
<path d="M161.255 74.1323C161.14 73.1491 160.879 72.2904 160.472 71.556C160.062 70.8065 159.547 70.1996 158.926 69.7354C158.318 69.2544 157.62 68.9218 156.832 68.7376C156.057 68.5366 155.239 68.4863 154.377 68.5867C152.955 68.7523 151.735 69.1397 150.718 69.7488C149.7 70.3579 148.845 71.1091 148.152 72.0024C147.457 72.8805 146.906 73.8722 146.498 74.9776C146.103 76.066 145.811 77.1732 145.62 78.2992C145.444 79.4235 145.351 80.5305 145.34 81.6202C145.342 82.6931 145.395 83.6682 145.497 84.5454C145.632 85.7101 145.896 86.7908 146.288 87.7876C146.696 88.7827 147.254 89.6297 147.964 90.3289C148.689 91.0263 149.577 91.5437 150.629 91.8812C151.695 92.2169 152.946 92.301 154.383 92.1336C155.245 92.0332 156.065 91.8304 156.842 91.5253C157.632 91.2032 158.34 90.7606 158.964 90.1973C159.586 89.6188 160.109 88.9064 160.532 88.06C160.954 87.2136 161.236 86.2073 161.376 85.0412L168.454 84.2166C168.207 86.177 167.733 87.9645 167.032 89.5792C166.346 91.1922 165.43 92.6021 164.283 93.8089C163.149 94.9988 161.79 95.9695 160.207 96.7212C158.623 97.4729 156.826 97.966 154.814 98.2003C152.969 98.4153 151.295 98.388 149.792 98.1186C148.304 97.8473 146.979 97.4037 145.819 96.7876C144.659 96.1716 143.643 95.4161 142.773 94.521C141.915 93.6091 141.188 92.6284 140.59 91.5789C139.993 90.5293 139.522 89.4497 139.178 88.34C138.848 87.2134 138.62 86.1131 138.495 85.0392C138.31 83.4511 138.283 81.8369 138.413 80.1966C138.542 78.5412 138.845 76.9269 139.321 75.3537C139.797 73.7806 140.443 72.2872 141.26 70.8737C142.091 69.4584 143.109 68.19 144.312 67.0687C145.515 65.9474 146.917 65.0176 148.517 64.2793C150.115 63.5258 151.921 63.0319 153.932 62.7975C155.823 62.5773 157.585 62.6327 159.218 62.9637C160.866 63.2929 162.316 63.8982 163.568 64.7794C164.821 65.6606 165.852 66.813 166.662 68.2363C167.471 69.6597 167.991 71.3546 168.22 73.3209L161.255 74.1323Z"/>
<path d="M175.016 61.1922L181.845 60.3966L180.845 73.9197L191.941 59.2204L200.586 58.2134L188.343 74.127L200.342 92.0457L192.582 92.9496L184.097 79.7267L180.369 84.4382L179.786 94.4403L172.867 95.2464L175.016 61.1922Z"/>
<path d="M205.554 57.6346L218.6 56.1149C220.717 55.8682 222.533 55.856 224.045 56.0783C225.558 56.3007 226.82 56.7362 227.831 57.385C228.84 58.0187 229.611 58.8487 230.145 59.875C230.678 60.9013 231.024 62.0951 231.183 63.4564C231.283 64.3185 231.266 65.156 231.131 65.969C231.009 66.765 230.76 67.5223 230.383 68.2406C230.021 68.9421 229.521 69.5905 228.885 70.1858C228.263 70.7643 227.501 71.2669 226.601 71.6938C227.261 71.9694 227.865 72.2824 228.412 72.6326C228.957 72.9677 229.434 73.3797 229.843 73.8685C230.251 74.3423 230.584 74.8938 230.841 75.523C231.113 76.1505 231.297 76.8726 231.392 77.6894C231.588 79.3683 231.49 80.8974 231.099 82.2767C230.706 83.6409 230.033 84.8385 229.08 85.8693C228.127 86.9002 226.907 87.7475 225.421 88.4112C223.932 89.0598 222.183 89.5013 220.171 89.7356L203.405 91.6889L205.554 57.6346ZM210.719 84.9958L219.273 83.9994C220.331 83.876 221.205 83.6132 221.894 83.211C222.583 82.8088 223.127 82.3393 223.524 81.8024C223.921 81.2655 224.185 80.6983 224.314 80.1006C224.444 79.5029 224.478 78.9394 224.416 78.41C224.334 77.6991 224.142 77.1082 223.842 76.6373C223.54 76.1512 223.15 75.7674 222.673 75.4857C222.211 75.2023 221.668 75.0202 221.046 74.9394C220.423 74.8586 219.749 74.8606 219.023 74.9451L211.309 75.8438L210.719 84.9958ZM211.645 70.2396L219.676 69.304C221.325 69.1119 222.539 68.6103 223.318 67.7989C224.096 66.9725 224.404 65.8711 224.244 64.4947C224.172 63.8745 223.999 63.3735 223.724 62.9915C223.465 62.6078 223.124 62.3179 222.703 62.1217C222.297 61.9237 221.823 61.8102 221.283 61.7811C220.742 61.7369 220.168 61.7501 219.563 61.8205L212.122 62.6875L211.645 70.2396Z"/>
<path d="M239.132 53.7229L261.298 51.1406L260.946 56.9996L245.609 58.7863L245.178 66.3332L259.244 64.6945L258.894 70.5762L244.873 72.2096L244.343 81.0788L260.429 79.2049L260.079 85.0865L236.983 87.7771L239.132 53.7229Z"/>
</mask>
<path d="M19.6043 79.2971L32.6498 77.7773C34.7673 77.5307 36.5826 77.5185 38.0956 77.7408C39.6085 77.9632 40.8704 78.3987 41.8811 79.0475C42.8901 79.6812 43.6613 80.5111 44.1948 81.5375C44.7283 82.5638 45.0743 83.7576 45.2329 85.1188C45.3334 85.981 45.316 86.8185 45.1807 87.6315C45.0588 88.4275 44.8098 89.1847 44.4335 89.9031C44.0707 90.6046 43.5713 91.253 42.9354 91.8483C42.313 92.4267 41.5513 92.9294 40.6506 93.3563C41.3112 93.6319 41.9149 93.9448 42.4616 94.2951C43.0066 94.6302 43.4838 95.0422 43.8934 95.531C44.3012 96.0048 44.6337 96.5562 44.891 97.1855C45.1634 97.813 45.3471 98.5351 45.4423 99.3519C45.6379 101.031 45.5401 102.56 45.1488 103.939C44.7559 105.303 44.0829 106.501 43.1298 107.532C42.1768 108.563 40.9571 109.41 39.4707 110.074C37.9825 110.722 36.2326 111.164 34.2209 111.398L17.4546 113.351L19.6043 79.2971ZM24.7694 106.658L33.3227 105.662C34.3815 105.538 35.2554 105.276 35.9444 104.874C36.6334 104.471 37.1766 104.002 37.574 103.465C37.9713 102.928 38.2349 102.361 38.3645 101.763C38.4942 101.165 38.5282 100.602 38.4665 100.073C38.3837 99.3616 38.1922 98.7707 37.8921 98.2998C37.5902 97.8137 37.2005 97.4298 36.7231 97.1482C36.2608 96.8648 35.7184 96.6827 35.0958 96.6019C34.4731 96.5211 33.7988 96.523 33.0728 96.6076L25.3589 97.5063L24.7694 106.658ZM25.6949 91.9021L33.7264 90.9665C35.375 90.7744 36.589 90.2727 37.3684 89.4614C38.1459 88.635 38.4545 87.5335 38.2942 86.1571C38.2219 85.537 38.0486 85.036 37.7741 84.654C37.5148 84.2703 37.1744 83.9803 36.753 83.7842C36.3466 83.5862 35.8735 83.4727 35.3335 83.4436C34.7918 83.3994 34.2185 83.4125 33.6134 83.483L26.1718 84.3499L25.6949 91.9021Z" fill="#2FAD74"/>
<path d="M19.6043 79.2971L32.6498 77.7773C34.7673 77.5307 36.5826 77.5185 38.0956 77.7408C39.6085 77.9632 40.8704 78.3987 41.8811 79.0475C42.8901 79.6812 43.6613 80.5111 44.1948 81.5375C44.7283 82.5638 45.0743 83.7576 45.2329 85.1188C45.3334 85.981 45.316 86.8185 45.1807 87.6315C45.0588 88.4275 44.8098 89.1847 44.4335 89.9031C44.0707 90.6046 43.5713 91.253 42.9354 91.8483C42.313 92.4267 41.5513 92.9294 40.6506 93.3563C41.3112 93.6319 41.9149 93.9448 42.4616 94.2951C43.0066 94.6302 43.4838 95.0422 43.8934 95.531C44.3012 96.0048 44.6337 96.5562 44.891 97.1855C45.1634 97.813 45.3471 98.5351 45.4423 99.3519C45.6379 101.031 45.5401 102.56 45.1488 103.939C44.7559 105.303 44.0829 106.501 43.1298 107.532C42.1768 108.563 40.9571 109.41 39.4707 110.074C37.9825 110.722 36.2326 111.164 34.2209 111.398L17.4546 113.351L19.6043 79.2971ZM24.7694 106.658L33.3227 105.662C34.3815 105.538 35.2554 105.276 35.9444 104.874C36.6334 104.471 37.1766 104.002 37.574 103.465C37.9713 102.928 38.2349 102.361 38.3645 101.763C38.4942 101.165 38.5282 100.602 38.4665 100.073C38.3837 99.3616 38.1922 98.7707 37.8921 98.2998C37.5902 97.8137 37.2005 97.4298 36.7231 97.1482C36.2608 96.8648 35.7184 96.6827 35.0958 96.6019C34.4731 96.5211 33.7988 96.523 33.0728 96.6076L25.3589 97.5063L24.7694 106.658ZM25.6949 91.9021L33.7264 90.9665C35.375 90.7744 36.589 90.2727 37.3684 89.4614C38.1459 88.635 38.4545 87.5335 38.2942 86.1571C38.2219 85.537 38.0486 85.036 37.7741 84.654C37.5148 84.2703 37.1744 83.9803 36.753 83.7842C36.3466 83.5862 35.8735 83.4727 35.3335 83.4436C34.7918 83.3994 34.2185 83.4125 33.6134 83.483L26.1718 84.3499L25.6949 91.9021Z" fill="url(#paint0_linear)"/>
<path d="M65.9329 73.9L76.0971 72.7159L80.3821 97.2591L80.4728 97.2486L87.8041 71.3521L98.3086 70.1283L96.1589 104.183L89.6475 104.941L91.861 75.7776L91.7702 75.7881L83.1587 105.697L76.9649 106.419L71.7368 78.122L71.6461 78.1325L70.4535 107.177L63.9648 107.933L65.9329 73.9Z" fill="#2FAD74"/>
<path d="M65.9329 73.9L76.0971 72.7159L80.3821 97.2591L80.4728 97.2486L87.8041 71.3521L98.3086 70.1283L96.1589 104.183L89.6475 104.941L91.861 75.7776L91.7702 75.7881L83.1587 105.697L76.9649 106.419L71.7368 78.122L71.6461 78.1325L70.4535 107.177L63.9648 107.933L65.9329 73.9Z" fill="url(#paint1_linear)"/>
<path d="M102.807 89.1968C102.622 87.6086 102.594 85.9944 102.725 84.3541C102.854 82.6987 103.157 81.0844 103.633 79.5113C104.109 77.9381 104.755 76.4447 105.572 75.0312C106.403 73.6159 107.42 72.3476 108.624 71.2263C109.827 70.1049 111.228 69.1751 112.829 68.4368C114.427 67.6833 116.233 67.1894 118.244 66.9551C120.089 66.7401 121.756 66.7682 123.244 67.0395C124.747 67.309 126.079 67.7517 127.239 68.3677C128.399 68.9838 129.408 69.7478 130.266 70.6597C131.136 71.5547 131.871 72.527 132.468 73.5765C133.064 74.6109 133.527 75.6914 133.858 76.818C134.203 77.9429 134.439 79.0423 134.564 80.1162C134.749 81.7043 134.777 83.3261 134.648 84.9815C134.517 86.6218 134.213 88.2285 133.737 89.8017C133.261 91.3748 132.608 92.8691 131.776 94.2844C130.96 95.6979 129.95 96.9653 128.747 98.0867C127.544 99.208 126.142 100.138 124.541 100.876C122.943 101.63 121.138 102.123 119.126 102.358C117.266 102.575 115.591 102.547 114.103 102.276C112.615 102.005 111.284 101.562 110.108 100.948C108.948 100.332 107.933 99.5762 107.062 98.6812C106.204 97.7693 105.477 96.7886 104.879 95.739C104.297 94.6877 103.834 93.6072 103.49 92.4975C103.159 91.3709 102.932 90.2707 102.807 89.1968ZM109.809 88.703C109.987 90.2306 110.353 91.5294 110.907 92.5993C111.459 93.6542 112.139 94.4947 112.948 95.121C113.757 95.7473 114.65 96.1798 115.629 96.4184C116.62 96.6402 117.638 96.6903 118.682 96.5687C120.103 96.4031 121.323 96.0157 122.341 95.4066C123.358 94.7975 124.213 94.0463 124.906 93.153C125.6 92.2597 126.143 91.2689 126.538 90.1805C126.947 89.0903 127.24 87.9831 127.416 86.8588C127.606 85.7328 127.701 84.6333 127.698 83.5605C127.709 82.4707 127.664 81.4872 127.562 80.6099C127.382 79.0672 127.016 77.7684 126.464 76.7136C125.912 75.6588 125.231 74.8182 124.422 74.1919C123.613 73.5656 122.713 73.1416 121.722 72.9198C120.743 72.6812 119.732 72.6226 118.689 72.7442C117.267 72.9099 116.047 73.2972 115.03 73.9063C114.012 74.5155 113.157 75.2666 112.464 76.1599C111.769 77.038 111.218 78.0298 110.81 79.1351C110.415 80.2235 110.123 81.3307 109.932 82.4568C109.756 83.581 109.663 84.688 109.652 85.7778C109.654 86.8506 109.707 87.8257 109.809 88.703Z" fill="#2FAD74"/>
<path d="M102.807 89.1968C102.622 87.6086 102.594 85.9944 102.725 84.3541C102.854 82.6987 103.157 81.0844 103.633 79.5113C104.109 77.9381 104.755 76.4447 105.572 75.0312C106.403 73.6159 107.42 72.3476 108.624 71.2263C109.827 70.1049 111.228 69.1751 112.829 68.4368C114.427 67.6833 116.233 67.1894 118.244 66.9551C120.089 66.7401 121.756 66.7682 123.244 67.0395C124.747 67.309 126.079 67.7517 127.239 68.3677C128.399 68.9838 129.408 69.7478 130.266 70.6597C131.136 71.5547 131.871 72.527 132.468 73.5765C133.064 74.6109 133.527 75.6914 133.858 76.818C134.203 77.9429 134.439 79.0423 134.564 80.1162C134.749 81.7043 134.777 83.3261 134.648 84.9815C134.517 86.6218 134.213 88.2285 133.737 89.8017C133.261 91.3748 132.608 92.8691 131.776 94.2844C130.96 95.6979 129.95 96.9653 128.747 98.0867C127.544 99.208 126.142 100.138 124.541 100.876C122.943 101.63 121.138 102.123 119.126 102.358C117.266 102.575 115.591 102.547 114.103 102.276C112.615 102.005 111.284 101.562 110.108 100.948C108.948 100.332 107.933 99.5762 107.062 98.6812C106.204 97.7693 105.477 96.7886 104.879 95.739C104.297 94.6877 103.834 93.6072 103.49 92.4975C103.159 91.3709 102.932 90.2707 102.807 89.1968ZM109.809 88.703C109.987 90.2306 110.353 91.5294 110.907 92.5993C111.459 93.6542 112.139 94.4947 112.948 95.121C113.757 95.7473 114.65 96.1798 115.629 96.4184C116.62 96.6402 117.638 96.6903 118.682 96.5687C120.103 96.4031 121.323 96.0157 122.341 95.4066C123.358 94.7975 124.213 94.0463 124.906 93.153C125.6 92.2597 126.143 91.2689 126.538 90.1805C126.947 89.0903 127.24 87.9831 127.416 86.8588C127.606 85.7328 127.701 84.6333 127.698 83.5605C127.709 82.4707 127.664 81.4872 127.562 80.6099C127.382 79.0672 127.016 77.7684 126.464 76.7136C125.912 75.6588 125.231 74.8182 124.422 74.1919C123.613 73.5656 122.713 73.1416 121.722 72.9198C120.743 72.6812 119.732 72.6226 118.689 72.7442C117.267 72.9099 116.047 73.2972 115.03 73.9063C114.012 74.5155 113.157 75.2666 112.464 76.1599C111.769 77.038 111.218 78.0298 110.81 79.1351C110.415 80.2235 110.123 81.3307 109.932 82.4568C109.756 83.581 109.663 84.688 109.652 85.7778C109.654 86.8506 109.707 87.8257 109.809 88.703Z" fill="url(#paint2_linear)"/>
<path d="M161.255 74.1323C161.14 73.1491 160.879 72.2904 160.472 71.556C160.062 70.8065 159.547 70.1996 158.926 69.7354C158.318 69.2544 157.62 68.9218 156.832 68.7376C156.057 68.5366 155.239 68.4863 154.377 68.5867C152.955 68.7523 151.735 69.1397 150.718 69.7488C149.7 70.3579 148.845 71.1091 148.152 72.0024C147.457 72.8805 146.906 73.8722 146.498 74.9776C146.103 76.066 145.811 77.1732 145.62 78.2992C145.444 79.4235 145.351 80.5305 145.34 81.6202C145.342 82.6931 145.395 83.6682 145.497 84.5454C145.632 85.7101 145.896 86.7908 146.288 87.7876C146.696 88.7827 147.254 89.6297 147.964 90.3289C148.689 91.0263 149.577 91.5437 150.629 91.8812C151.695 92.2169 152.946 92.301 154.383 92.1336C155.245 92.0332 156.065 91.8304 156.842 91.5253C157.632 91.2032 158.34 90.7606 158.964 90.1973C159.586 89.6188 160.109 88.9064 160.532 88.06C160.954 87.2136 161.236 86.2073 161.376 85.0412L168.454 84.2166C168.207 86.177 167.733 87.9645 167.032 89.5792C166.346 91.1922 165.43 92.6021 164.283 93.8089C163.149 94.9988 161.79 95.9695 160.207 96.7212C158.623 97.4729 156.826 97.966 154.814 98.2003C152.969 98.4153 151.295 98.388 149.792 98.1186C148.304 97.8473 146.979 97.4037 145.819 96.7876C144.659 96.1716 143.643 95.4161 142.773 94.521C141.915 93.6091 141.188 92.6284 140.59 91.5789C139.993 90.5293 139.522 89.4497 139.178 88.34C138.848 87.2134 138.62 86.1131 138.495 85.0392C138.31 83.4511 138.283 81.8369 138.413 80.1966C138.542 78.5412 138.845 76.9269 139.321 75.3537C139.797 73.7806 140.443 72.2872 141.26 70.8737C142.091 69.4584 143.109 68.19 144.312 67.0687C145.515 65.9474 146.917 65.0176 148.517 64.2793C150.115 63.5258 151.921 63.0319 153.932 62.7975C155.823 62.5773 157.585 62.6327 159.218 62.9637C160.866 63.2929 162.316 63.8982 163.568 64.7794C164.821 65.6606 165.852 66.813 166.662 68.2363C167.471 69.6597 167.991 71.3546 168.22 73.3209L161.255 74.1323Z" fill="#2FAD74"/>
<path d="M161.255 74.1323C161.14 73.1491 160.879 72.2904 160.472 71.556C160.062 70.8065 159.547 70.1996 158.926 69.7354C158.318 69.2544 157.62 68.9218 156.832 68.7376C156.057 68.5366 155.239 68.4863 154.377 68.5867C152.955 68.7523 151.735 69.1397 150.718 69.7488C149.7 70.3579 148.845 71.1091 148.152 72.0024C147.457 72.8805 146.906 73.8722 146.498 74.9776C146.103 76.066 145.811 77.1732 145.62 78.2992C145.444 79.4235 145.351 80.5305 145.34 81.6202C145.342 82.6931 145.395 83.6682 145.497 84.5454C145.632 85.7101 145.896 86.7908 146.288 87.7876C146.696 88.7827 147.254 89.6297 147.964 90.3289C148.689 91.0263 149.577 91.5437 150.629 91.8812C151.695 92.2169 152.946 92.301 154.383 92.1336C155.245 92.0332 156.065 91.8304 156.842 91.5253C157.632 91.2032 158.34 90.7606 158.964 90.1973C159.586 89.6188 160.109 88.9064 160.532 88.06C160.954 87.2136 161.236 86.2073 161.376 85.0412L168.454 84.2166C168.207 86.177 167.733 87.9645 167.032 89.5792C166.346 91.1922 165.43 92.6021 164.283 93.8089C163.149 94.9988 161.79 95.9695 160.207 96.7212C158.623 97.4729 156.826 97.966 154.814 98.2003C152.969 98.4153 151.295 98.388 149.792 98.1186C148.304 97.8473 146.979 97.4037 145.819 96.7876C144.659 96.1716 143.643 95.4161 142.773 94.521C141.915 93.6091 141.188 92.6284 140.59 91.5789C139.993 90.5293 139.522 89.4497 139.178 88.34C138.848 87.2134 138.62 86.1131 138.495 85.0392C138.31 83.4511 138.283 81.8369 138.413 80.1966C138.542 78.5412 138.845 76.9269 139.321 75.3537C139.797 73.7806 140.443 72.2872 141.26 70.8737C142.091 69.4584 143.109 68.19 144.312 67.0687C145.515 65.9474 146.917 65.0176 148.517 64.2793C150.115 63.5258 151.921 63.0319 153.932 62.7975C155.823 62.5773 157.585 62.6327 159.218 62.9637C160.866 63.2929 162.316 63.8982 163.568 64.7794C164.821 65.6606 165.852 66.813 166.662 68.2363C167.471 69.6597 167.991 71.3546 168.22 73.3209L161.255 74.1323Z" fill="url(#paint3_linear)"/>
<path d="M175.016 61.1922L181.845 60.3966L180.845 73.9197L191.941 59.2204L200.586 58.2134L188.343 74.127L200.342 92.0457L192.582 92.9496L184.097 79.7267L180.369 84.4382L179.786 94.4403L172.867 95.2464L175.016 61.1922Z" fill="#2FAD74"/>
<path d="M175.016 61.1922L181.845 60.3966L180.845 73.9197L191.941 59.2204L200.586 58.2134L188.343 74.127L200.342 92.0457L192.582 92.9496L184.097 79.7267L180.369 84.4382L179.786 94.4403L172.867 95.2464L175.016 61.1922Z" fill="url(#paint4_linear)"/>
<path d="M205.554 57.6346L218.6 56.1149C220.717 55.8682 222.533 55.856 224.045 56.0783C225.558 56.3007 226.82 56.7362 227.831 57.385C228.84 58.0187 229.611 58.8487 230.145 59.875C230.678 60.9013 231.024 62.0951 231.183 63.4564C231.283 64.3185 231.266 65.156 231.131 65.969C231.009 66.765 230.76 67.5223 230.383 68.2406C230.021 68.9421 229.521 69.5905 228.885 70.1858C228.263 70.7643 227.501 71.2669 226.601 71.6938C227.261 71.9694 227.865 72.2824 228.412 72.6326C228.957 72.9677 229.434 73.3797 229.843 73.8685C230.251 74.3423 230.584 74.8938 230.841 75.523C231.113 76.1505 231.297 76.8726 231.392 77.6894C231.588 79.3683 231.49 80.8974 231.099 82.2767C230.706 83.6409 230.033 84.8385 229.08 85.8693C228.127 86.9002 226.907 87.7475 225.421 88.4112C223.932 89.0598 222.183 89.5013 220.171 89.7356L203.405 91.6889L205.554 57.6346ZM210.719 84.9958L219.273 83.9994C220.331 83.876 221.205 83.6132 221.894 83.211C222.583 82.8088 223.127 82.3393 223.524 81.8024C223.921 81.2655 224.185 80.6983 224.314 80.1006C224.444 79.5029 224.478 78.9394 224.416 78.41C224.334 77.6991 224.142 77.1082 223.842 76.6373C223.54 76.1512 223.15 75.7674 222.673 75.4857C222.211 75.2023 221.668 75.0202 221.046 74.9394C220.423 74.8586 219.749 74.8606 219.023 74.9451L211.309 75.8438L210.719 84.9958ZM211.645 70.2396L219.676 69.304C221.325 69.1119 222.539 68.6103 223.318 67.7989C224.096 66.9725 224.404 65.8711 224.244 64.4947C224.172 63.8745 223.999 63.3735 223.724 62.9915C223.465 62.6078 223.124 62.3179 222.703 62.1217C222.297 61.9237 221.823 61.8102 221.283 61.7811C220.742 61.7369 220.168 61.7501 219.563 61.8205L212.122 62.6875L211.645 70.2396Z" fill="#2FAD74"/>
<path d="M205.554 57.6346L218.6 56.1149C220.717 55.8682 222.533 55.856 224.045 56.0783C225.558 56.3007 226.82 56.7362 227.831 57.385C228.84 58.0187 229.611 58.8487 230.145 59.875C230.678 60.9013 231.024 62.0951 231.183 63.4564C231.283 64.3185 231.266 65.156 231.131 65.969C231.009 66.765 230.76 67.5223 230.383 68.2406C230.021 68.9421 229.521 69.5905 228.885 70.1858C228.263 70.7643 227.501 71.2669 226.601 71.6938C227.261 71.9694 227.865 72.2824 228.412 72.6326C228.957 72.9677 229.434 73.3797 229.843 73.8685C230.251 74.3423 230.584 74.8938 230.841 75.523C231.113 76.1505 231.297 76.8726 231.392 77.6894C231.588 79.3683 231.49 80.8974 231.099 82.2767C230.706 83.6409 230.033 84.8385 229.08 85.8693C228.127 86.9002 226.907 87.7475 225.421 88.4112C223.932 89.0598 222.183 89.5013 220.171 89.7356L203.405 91.6889L205.554 57.6346ZM210.719 84.9958L219.273 83.9994C220.331 83.876 221.205 83.6132 221.894 83.211C222.583 82.8088 223.127 82.3393 223.524 81.8024C223.921 81.2655 224.185 80.6983 224.314 80.1006C224.444 79.5029 224.478 78.9394 224.416 78.41C224.334 77.6991 224.142 77.1082 223.842 76.6373C223.54 76.1512 223.15 75.7674 222.673 75.4857C222.211 75.2023 221.668 75.0202 221.046 74.9394C220.423 74.8586 219.749 74.8606 219.023 74.9451L211.309 75.8438L210.719 84.9958ZM211.645 70.2396L219.676 69.304C221.325 69.1119 222.539 68.6103 223.318 67.7989C224.096 66.9725 224.404 65.8711 224.244 64.4947C224.172 63.8745 223.999 63.3735 223.724 62.9915C223.465 62.6078 223.124 62.3179 222.703 62.1217C222.297 61.9237 221.823 61.8102 221.283 61.7811C220.742 61.7369 220.168 61.7501 219.563 61.8205L212.122 62.6875L211.645 70.2396Z" fill="url(#paint5_linear)"/>
<path d="M239.132 53.7229L261.298 51.1406L260.946 56.9996L245.609 58.7863L245.178 66.3332L259.244 64.6945L258.894 70.5762L244.873 72.2096L244.343 81.0788L260.429 79.2049L260.079 85.0865L236.983 87.7771L239.132 53.7229Z" fill="#2FAD74"/>
<path d="M239.132 53.7229L261.298 51.1406L260.946 56.9996L245.609 58.7863L245.178 66.3332L259.244 64.6945L258.894 70.5762L244.873 72.2096L244.343 81.0788L260.429 79.2049L260.079 85.0865L236.983 87.7771L239.132 53.7229Z" fill="url(#paint6_linear)"/>
<path d="M19.6043 79.2971L32.6498 77.7773C34.7673 77.5307 36.5826 77.5185 38.0956 77.7408C39.6085 77.9632 40.8704 78.3987 41.8811 79.0475C42.8901 79.6812 43.6613 80.5111 44.1948 81.5375C44.7283 82.5638 45.0743 83.7576 45.2329 85.1188C45.3334 85.981 45.316 86.8185 45.1807 87.6315C45.0588 88.4275 44.8098 89.1847 44.4335 89.9031C44.0707 90.6046 43.5713 91.253 42.9354 91.8483C42.313 92.4267 41.5513 92.9294 40.6506 93.3563C41.3112 93.6319 41.9149 93.9448 42.4616 94.2951C43.0066 94.6302 43.4838 95.0422 43.8934 95.531C44.3012 96.0048 44.6337 96.5562 44.891 97.1855C45.1634 97.813 45.3471 98.5351 45.4423 99.3519C45.6379 101.031 45.5401 102.56 45.1488 103.939C44.7559 105.303 44.0829 106.501 43.1298 107.532C42.1768 108.563 40.9571 109.41 39.4707 110.074C37.9825 110.722 36.2326 111.164 34.2209 111.398L17.4546 113.351L19.6043 79.2971ZM24.7694 106.658L33.3227 105.662C34.3815 105.538 35.2554 105.276 35.9444 104.874C36.6334 104.471 37.1766 104.002 37.574 103.465C37.9713 102.928 38.2349 102.361 38.3645 101.763C38.4942 101.165 38.5282 100.602 38.4665 100.073C38.3837 99.3616 38.1922 98.7707 37.8921 98.2998C37.5902 97.8137 37.2005 97.4298 36.7231 97.1482C36.2608 96.8648 35.7184 96.6827 35.0958 96.6019C34.4731 96.5211 33.7988 96.523 33.0728 96.6076L25.3589 97.5063L24.7694 106.658ZM25.6949 91.9021L33.7264 90.9665C35.375 90.7744 36.589 90.2727 37.3684 89.4614C38.1459 88.635 38.4545 87.5335 38.2942 86.1571C38.2219 85.537 38.0486 85.036 37.7741 84.654C37.5148 84.2703 37.1744 83.9803 36.753 83.7842C36.3466 83.5862 35.8735 83.4727 35.3335 83.4436C34.7918 83.3994 34.2185 83.4125 33.6134 83.483L26.1718 84.3499L25.6949 91.9021Z" stroke="black" stroke-width="4" mask="url(#path-2-outside-1)"/>
<path d="M65.9329 73.9L76.0971 72.7159L80.3821 97.2591L80.4728 97.2486L87.8041 71.3521L98.3086 70.1283L96.1589 104.183L89.6475 104.941L91.861 75.7776L91.7702 75.7881L83.1587 105.697L76.9649 106.419L71.7368 78.122L71.6461 78.1325L70.4535 107.177L63.9648 107.933L65.9329 73.9Z" stroke="black" stroke-width="4" mask="url(#path-2-outside-1)"/>
<path d="M102.807 89.1968C102.622 87.6086 102.594 85.9944 102.725 84.3541C102.854 82.6987 103.157 81.0844 103.633 79.5113C104.109 77.9381 104.755 76.4447 105.572 75.0312C106.403 73.6159 107.42 72.3476 108.624 71.2263C109.827 70.1049 111.228 69.1751 112.829 68.4368C114.427 67.6833 116.233 67.1894 118.244 66.9551C120.089 66.7401 121.756 66.7682 123.244 67.0395C124.747 67.309 126.079 67.7517 127.239 68.3677C128.399 68.9838 129.408 69.7478 130.266 70.6597C131.136 71.5547 131.871 72.527 132.468 73.5765C133.064 74.6109 133.527 75.6914 133.858 76.818C134.203 77.9429 134.439 79.0423 134.564 80.1162C134.749 81.7043 134.777 83.3261 134.648 84.9815C134.517 86.6218 134.213 88.2285 133.737 89.8017C133.261 91.3748 132.608 92.8691 131.776 94.2844C130.96 95.6979 129.95 96.9653 128.747 98.0867C127.544 99.208 126.142 100.138 124.541 100.876C122.943 101.63 121.138 102.123 119.126 102.358C117.266 102.575 115.591 102.547 114.103 102.276C112.615 102.005 111.284 101.562 110.108 100.948C108.948 100.332 107.933 99.5762 107.062 98.6812C106.204 97.7693 105.477 96.7886 104.879 95.739C104.297 94.6877 103.834 93.6072 103.49 92.4975C103.159 91.3709 102.932 90.2707 102.807 89.1968ZM109.809 88.703C109.987 90.2306 110.353 91.5294 110.907 92.5993C111.459 93.6542 112.139 94.4947 112.948 95.121C113.757 95.7473 114.65 96.1798 115.629 96.4184C116.62 96.6402 117.638 96.6903 118.682 96.5687C120.103 96.4031 121.323 96.0157 122.341 95.4066C123.358 94.7975 124.213 94.0463 124.906 93.153C125.6 92.2597 126.143 91.2689 126.538 90.1805C126.947 89.0903 127.24 87.9831 127.416 86.8588C127.606 85.7328 127.701 84.6333 127.698 83.5605C127.709 82.4707 127.664 81.4872 127.562 80.6099C127.382 79.0672 127.016 77.7684 126.464 76.7136C125.912 75.6588 125.231 74.8182 124.422 74.1919C123.613 73.5656 122.713 73.1416 121.722 72.9198C120.743 72.6812 119.732 72.6226 118.689 72.7442C117.267 72.9099 116.047 73.2972 115.03 73.9063C114.012 74.5155 113.157 75.2666 112.464 76.1599C111.769 77.038 111.218 78.0298 110.81 79.1351C110.415 80.2235 110.123 81.3307 109.932 82.4568C109.756 83.581 109.663 84.688 109.652 85.7778C109.654 86.8506 109.707 87.8257 109.809 88.703Z" stroke="black" stroke-width="4" mask="url(#path-2-outside-1)"/>
<path d="M161.255 74.1323C161.14 73.1491 160.879 72.2904 160.472 71.556C160.062 70.8065 159.547 70.1996 158.926 69.7354C158.318 69.2544 157.62 68.9218 156.832 68.7376C156.057 68.5366 155.239 68.4863 154.377 68.5867C152.955 68.7523 151.735 69.1397 150.718 69.7488C149.7 70.3579 148.845 71.1091 148.152 72.0024C147.457 72.8805 146.906 73.8722 146.498 74.9776C146.103 76.066 145.811 77.1732 145.62 78.2992C145.444 79.4235 145.351 80.5305 145.34 81.6202C145.342 82.6931 145.395 83.6682 145.497 84.5454C145.632 85.7101 145.896 86.7908 146.288 87.7876C146.696 88.7827 147.254 89.6297 147.964 90.3289C148.689 91.0263 149.577 91.5437 150.629 91.8812C151.695 92.2169 152.946 92.301 154.383 92.1336C155.245 92.0332 156.065 91.8304 156.842 91.5253C157.632 91.2032 158.34 90.7606 158.964 90.1973C159.586 89.6188 160.109 88.9064 160.532 88.06C160.954 87.2136 161.236 86.2073 161.376 85.0412L168.454 84.2166C168.207 86.177 167.733 87.9645 167.032 89.5792C166.346 91.1922 165.43 92.6021 164.283 93.8089C163.149 94.9988 161.79 95.9695 160.207 96.7212C158.623 97.4729 156.826 97.966 154.814 98.2003C152.969 98.4153 151.295 98.388 149.792 98.1186C148.304 97.8473 146.979 97.4037 145.819 96.7876C144.659 96.1716 143.643 95.4161 142.773 94.521C141.915 93.6091 141.188 92.6284 140.59 91.5789C139.993 90.5293 139.522 89.4497 139.178 88.34C138.848 87.2134 138.62 86.1131 138.495 85.0392C138.31 83.4511 138.283 81.8369 138.413 80.1966C138.542 78.5412 138.845 76.9269 139.321 75.3537C139.797 73.7806 140.443 72.2872 141.26 70.8737C142.091 69.4584 143.109 68.19 144.312 67.0687C145.515 65.9474 146.917 65.0176 148.517 64.2793C150.115 63.5258 151.921 63.0319 153.932 62.7975C155.823 62.5773 157.585 62.6327 159.218 62.9637C160.866 63.2929 162.316 63.8982 163.568 64.7794C164.821 65.6606 165.852 66.813 166.662 68.2363C167.471 69.6597 167.991 71.3546 168.22 73.3209L161.255 74.1323Z" stroke="black" stroke-width="4" mask="url(#path-2-outside-1)"/>
<path d="M175.016 61.1922L181.845 60.3966L180.845 73.9197L191.941 59.2204L200.586 58.2134L188.343 74.127L200.342 92.0457L192.582 92.9496L184.097 79.7267L180.369 84.4382L179.786 94.4403L172.867 95.2464L175.016 61.1922Z" stroke="black" stroke-width="4" mask="url(#path-2-outside-1)"/>
<path d="M205.554 57.6346L218.6 56.1149C220.717 55.8682 222.533 55.856 224.045 56.0783C225.558 56.3007 226.82 56.7362 227.831 57.385C228.84 58.0187 229.611 58.8487 230.145 59.875C230.678 60.9013 231.024 62.0951 231.183 63.4564C231.283 64.3185 231.266 65.156 231.131 65.969C231.009 66.765 230.76 67.5223 230.383 68.2406C230.021 68.9421 229.521 69.5905 228.885 70.1858C228.263 70.7643 227.501 71.2669 226.601 71.6938C227.261 71.9694 227.865 72.2824 228.412 72.6326C228.957 72.9677 229.434 73.3797 229.843 73.8685C230.251 74.3423 230.584 74.8938 230.841 75.523C231.113 76.1505 231.297 76.8726 231.392 77.6894C231.588 79.3683 231.49 80.8974 231.099 82.2767C230.706 83.6409 230.033 84.8385 229.08 85.8693C228.127 86.9002 226.907 87.7475 225.421 88.4112C223.932 89.0598 222.183 89.5013 220.171 89.7356L203.405 91.6889L205.554 57.6346ZM210.719 84.9958L219.273 83.9994C220.331 83.876 221.205 83.6132 221.894 83.211C222.583 82.8088 223.127 82.3393 223.524 81.8024C223.921 81.2655 224.185 80.6983 224.314 80.1006C224.444 79.5029 224.478 78.9394 224.416 78.41C224.334 77.6991 224.142 77.1082 223.842 76.6373C223.54 76.1512 223.15 75.7674 222.673 75.4857C222.211 75.2023 221.668 75.0202 221.046 74.9394C220.423 74.8586 219.749 74.8606 219.023 74.9451L211.309 75.8438L210.719 84.9958ZM211.645 70.2396L219.676 69.304C221.325 69.1119 222.539 68.6103 223.318 67.7989C224.096 66.9725 224.404 65.8711 224.244 64.4947C224.172 63.8745 223.999 63.3735 223.724 62.9915C223.465 62.6078 223.124 62.3179 222.703 62.1217C222.297 61.9237 221.823 61.8102 221.283 61.7811C220.742 61.7369 220.168 61.7501 219.563 61.8205L212.122 62.6875L211.645 70.2396Z" stroke="black" stroke-width="4" mask="url(#path-2-outside-1)"/>
<path d="M239.132 53.7229L261.298 51.1406L260.946 56.9996L245.609 58.7863L245.178 66.3332L259.244 64.6945L258.894 70.5762L244.873 72.2096L244.343 81.0788L260.429 79.2049L260.079 85.0865L236.983 87.7771L239.132 53.7229Z" stroke="black" stroke-width="4" mask="url(#path-2-outside-1)"/>
<defs>
<linearGradient id="paint0_linear" x1="234.604" y1="37.032" x2="250.232" y2="171.181" gradientUnits="userSpaceOnUse">
<stop stop-color="white"/>
<stop offset="0.385417" stop-color="#2FAD74"/>
</linearGradient>
<linearGradient id="paint1_linear" x1="234.604" y1="37.032" x2="250.232" y2="171.181" gradientUnits="userSpaceOnUse">
<stop stop-color="white"/>
<stop offset="0.385417" stop-color="#2FAD74"/>
</linearGradient>
<linearGradient id="paint2_linear" x1="234.604" y1="37.032" x2="250.232" y2="171.181" gradientUnits="userSpaceOnUse">
<stop stop-color="white"/>
<stop offset="0.385417" stop-color="#2FAD74"/>
</linearGradient>
<linearGradient id="paint3_linear" x1="234.604" y1="37.032" x2="250.232" y2="171.181" gradientUnits="userSpaceOnUse">
<stop stop-color="white"/>
<stop offset="0.385417" stop-color="#2FAD74"/>
</linearGradient>
<linearGradient id="paint4_linear" x1="234.604" y1="37.032" x2="250.232" y2="171.181" gradientUnits="userSpaceOnUse">
<stop stop-color="white"/>
<stop offset="0.385417" stop-color="#2FAD74"/>
</linearGradient>
<linearGradient id="paint5_linear" x1="234.604" y1="37.032" x2="250.232" y2="171.181" gradientUnits="userSpaceOnUse">
<stop stop-color="white"/>
<stop offset="0.385417" stop-color="#2FAD74"/>
</linearGradient>
<linearGradient id="paint6_linear" x1="234.604" y1="37.032" x2="250.232" y2="171.181" gradientUnits="userSpaceOnUse">
<stop stop-color="white"/>
<stop offset="0.385417" stop-color="#2FAD74"/>
</linearGradient>
</defs>
</svg>
