<svg width="437" height="99" viewBox="0 0 437 99" fill="none" xmlns="http://www.w3.org/2000/svg">
<mask id="path-1-outside-1" maskUnits="userSpaceOnUse" x="-0.0234375" y="-0.216797" width="437" height="99" fill="black">
<rect fill="white" x="-0.0234375" y="-0.216797" width="437" height="99"/>
<path d="M5.79003 52.1144L22.4832 50.1912C25.1928 49.879 27.5152 49.8668 29.4505 50.1545C31.3857 50.4422 32.9993 51.0027 34.2913 51.8359C35.581 52.6498 36.5661 53.7148 37.2468 55.0309C37.9274 56.347 38.3679 57.8775 38.5683 59.6221C38.6952 60.7271 38.6713 61.8003 38.4968 62.8417C38.3394 63.8616 38.0193 64.8315 37.5366 65.7513C37.0711 66.6495 36.431 67.4795 35.6164 68.2411C34.8189 68.9812 33.8436 69.6239 32.6904 70.1692C33.5351 70.5236 34.3069 70.9258 35.0057 71.3756C35.7022 71.806 36.3121 72.3348 36.8351 72.962C37.356 73.5698 37.7804 74.2771 38.1084 75.0839C38.4557 75.8885 38.6895 76.8142 38.8097 77.861C39.0568 80.0127 38.9289 81.972 38.4258 83.7388C37.9205 85.4862 37.0572 87.0195 35.836 88.3387C34.6148 89.6579 33.0527 90.7414 31.1498 91.5891C29.2447 92.4175 27.005 92.98 24.4309 93.2765L2.97656 95.7483L5.79003 52.1144ZM12.3475 87.1852L23.2924 85.9242C24.6472 85.7682 25.7657 85.4331 26.648 84.9189C27.5302 84.4048 28.226 83.8041 28.7354 83.1169C29.2448 82.4297 29.583 81.7033 29.75 80.9377C29.917 80.1721 29.9616 79.45 29.8837 78.7715C29.779 77.8604 29.5351 77.1028 29.152 76.4988C28.7666 75.8754 28.2688 75.3828 27.6586 75.021C27.0677 74.6569 26.374 74.4226 25.5776 74.3179C24.7811 74.2133 23.9184 74.2145 22.9894 74.3215L13.1187 75.4587L12.3475 87.1852ZM13.5589 68.2781L23.8361 67.094C25.9457 66.851 27.4998 66.2104 28.4984 65.1722C29.4947 64.1146 29.8916 62.7038 29.689 60.9397C29.5977 60.1449 29.3768 59.5026 29.0264 59.0126C28.6954 58.5204 28.2604 58.1482 27.7216 57.896C27.2021 57.6416 26.597 57.4953 25.9062 57.457C25.2132 57.3994 24.4796 57.4151 23.7055 57.5043L14.1831 58.6014L13.5589 68.2781Z"/>
<path d="M65.0725 45.2845L78.0786 43.786L83.5152 75.2443L83.6313 75.2309L93.0589 42.0602L106.501 40.5116L103.687 84.1455L95.355 85.1054L98.2411 47.7386L98.1249 47.752L87.052 86.062L79.1264 86.9751L72.4901 50.7054L72.3739 50.7188L70.7943 87.935L62.4913 88.8916L65.0725 45.2845Z"/>
<path d="M112.58 75.5196C113.62 75.6944 114.467 75.8129 115.121 75.875C115.795 75.9349 116.441 75.9292 117.061 75.8578C118.241 75.7218 119.175 75.4865 119.862 75.152C120.569 74.8153 121.101 74.4102 121.458 73.937C121.814 73.4443 122.026 72.8993 122.094 72.3022C122.182 71.7028 122.187 71.0639 122.109 70.3854C122.027 69.6681 121.854 68.8435 121.59 67.9114C121.326 66.9794 120.954 65.8733 120.474 64.593L111.378 39.9496L120.552 38.8927L127.954 62.1107L128.07 62.0973L137.187 36.9762L147 35.8457L130.691 73.9044C130.026 75.4542 129.297 76.7952 128.506 77.9274C127.731 79.038 126.85 79.9842 125.861 80.7659C124.872 81.5476 123.765 82.1564 122.541 82.5921C121.318 83.0472 119.933 83.3639 118.384 83.5423C117.939 83.5936 117.452 83.6203 116.923 83.6223C116.413 83.6221 115.88 83.5951 115.325 83.5412C114.791 83.5045 114.255 83.4484 113.717 83.3729C113.201 83.3146 112.712 83.2432 112.251 83.1588L112.58 75.5196Z"/>
<path d="M151.18 35.364L165.87 33.6716C168.638 33.3528 171.009 33.4233 172.984 33.8833C174.975 34.3216 176.627 35.0446 177.939 36.0523C179.268 37.0384 180.28 38.2477 180.974 39.6801C181.685 41.091 182.134 42.6106 182.321 44.2389C182.599 46.6621 182.481 48.8756 181.966 50.8794C181.47 52.8811 180.573 54.6343 179.275 56.1391C177.977 57.6439 176.286 58.8798 174.2 59.8468C172.134 60.8115 169.669 61.4589 166.805 61.7889L158.24 62.7756L157.279 77.9711L148.367 78.998L151.18 35.364ZM158.757 55.2327L166.682 54.3196C168.095 54.1568 169.283 53.8236 170.244 53.32C171.206 52.8163 171.969 52.1981 172.532 51.4655C173.114 50.7305 173.51 49.9091 173.72 49.0011C173.927 48.0737 173.974 47.1157 173.86 46.127C173.769 45.3322 173.586 44.5971 173.313 43.9215C173.056 43.2243 172.666 42.6408 172.141 42.1709C171.614 41.6816 170.936 41.3276 170.107 41.1089C169.297 40.8879 168.302 40.8454 167.121 40.9815L159.631 41.8444L158.757 55.2327Z"/>
<path d="M190.605 30.8219L203.611 29.3235L209.048 60.7817L209.164 60.7684L218.591 27.5976L232.033 26.049L229.22 69.6829L220.887 70.6429L223.774 33.2761L223.657 33.2895L212.584 71.5995L204.659 72.5126L198.023 36.2428L197.906 36.2562L196.327 73.4725L188.024 74.4291L190.605 30.8219Z"/>
<path d="M257.909 32.1128L257.793 32.1262L251.009 51.1745L261.722 49.9403L257.909 32.1128ZM253.081 23.6241L263.503 22.4234L273.812 64.5455L265.015 65.5589L263.267 57.2458L248.228 58.9783L245.1 67.8534L235.635 68.9438L253.081 23.6241Z"/>
<path d="M280.08 20.5135L288.993 19.4867L287.898 36.0823L304.592 34.1591L305.715 17.5601L314.628 16.5333L311.756 60.1739L302.815 61.2041L304.133 41.6953L287.44 43.6185L286.121 63.1273L277.209 64.1541L280.08 20.5135Z"/>
<path d="M348.906 27.1092C348.761 25.8491 348.429 24.7482 347.909 23.8064C347.386 22.8452 346.728 22.0666 345.934 21.4706C345.157 20.853 344.265 20.4255 343.257 20.1881C342.267 19.929 341.22 19.863 340.116 19.9901C338.297 20.1997 336.736 20.6939 335.433 21.4725C334.13 22.2511 333.034 23.2121 332.146 24.3555C331.255 25.4795 330.548 26.7493 330.024 28.1649C329.518 29.5589 329.141 30.9772 328.895 32.4197C328.668 33.8601 328.547 35.2784 328.531 36.6748C328.532 38.0496 328.597 39.2992 328.726 40.4235C328.897 41.9162 329.233 43.3016 329.733 44.5796C330.252 45.8554 330.965 46.942 331.872 47.8392C332.798 48.7342 333.934 49.3988 335.278 49.8332C336.641 50.2654 338.242 50.3756 340.081 50.1637C341.184 50.0366 342.233 49.7783 343.228 49.3887C344.24 48.9775 345.145 48.4116 345.945 47.6909C346.743 46.9509 347.412 46.0389 347.955 44.9551C348.497 43.8713 348.859 42.5823 349.04 41.0883L358.098 40.0448C357.779 42.5564 357.169 44.8462 356.269 46.914C355.388 48.9796 354.213 50.7846 352.743 52.3288C351.29 53.8515 349.55 55.0929 347.523 56.0532C345.496 57.0135 343.195 57.642 340.621 57.9385C338.26 58.2106 336.118 58.1725 334.195 57.8244C332.292 57.4741 330.599 56.9031 329.116 56.1116C327.632 55.32 326.335 54.35 325.222 53.2014C324.127 52.0313 323.198 50.7732 322.435 49.4272C321.673 48.0812 321.073 46.6969 320.635 45.2742C320.214 43.8299 319.925 42.4196 319.766 41.0433C319.533 39.0078 319.501 36.9393 319.672 34.8377C319.84 32.7166 320.23 30.6486 320.842 28.6336C321.453 26.6186 322.283 24.7062 323.33 22.8963C324.397 21.0843 325.701 19.4609 327.242 18.0263C328.783 16.5916 330.579 15.4027 332.627 14.4596C334.674 13.4971 336.984 12.8675 339.558 12.571C341.978 12.2922 344.232 12.3665 346.32 12.7937C348.428 13.2186 350.282 13.9969 351.883 15.1285C353.484 16.26 354.801 17.7385 355.834 19.564C356.868 21.3895 357.529 23.5623 357.818 26.0823L348.906 27.1092Z"/>
<path d="M366.536 10.553L375.275 9.54621L373.97 26.8731L388.194 8.05781L399.255 6.78348L383.562 27.1527L398.88 50.1364L388.951 51.2803L378.12 34.3204L373.341 40.351L372.577 53.1667L363.723 54.1869L366.536 10.553Z"/>
<path d="M405.613 6.05099L433.977 2.7832L433.515 10.2904L413.89 12.5514L413.324 22.2214L431.323 20.1477L430.865 27.6839L412.923 29.7509L412.228 41.1151L432.812 38.7437L432.353 46.28L402.799 49.6849L405.613 6.05099Z"/>
</mask>
<path d="M5.79003 52.1144L22.4832 50.1912C25.1928 49.879 27.5152 49.8668 29.4505 50.1545C31.3857 50.4422 32.9993 51.0027 34.2913 51.8359C35.581 52.6498 36.5661 53.7148 37.2468 55.0309C37.9274 56.347 38.3679 57.8775 38.5683 59.6221C38.6952 60.7271 38.6713 61.8003 38.4968 62.8417C38.3394 63.8616 38.0193 64.8315 37.5366 65.7513C37.0711 66.6495 36.431 67.4795 35.6164 68.2411C34.8189 68.9812 33.8436 69.6239 32.6904 70.1692C33.5351 70.5236 34.3069 70.9258 35.0057 71.3756C35.7022 71.806 36.3121 72.3348 36.8351 72.962C37.356 73.5698 37.7804 74.2771 38.1084 75.0839C38.4557 75.8885 38.6895 76.8142 38.8097 77.861C39.0568 80.0127 38.9289 81.972 38.4258 83.7388C37.9205 85.4862 37.0572 87.0195 35.836 88.3387C34.6148 89.6579 33.0527 90.7414 31.1498 91.5891C29.2447 92.4175 27.005 92.98 24.4309 93.2765L2.97656 95.7483L5.79003 52.1144ZM12.3475 87.1852L23.2924 85.9242C24.6472 85.7682 25.7657 85.4331 26.648 84.9189C27.5302 84.4048 28.226 83.8041 28.7354 83.1169C29.2448 82.4297 29.583 81.7033 29.75 80.9377C29.917 80.1721 29.9616 79.45 29.8837 78.7715C29.779 77.8604 29.5351 77.1028 29.152 76.4988C28.7666 75.8754 28.2688 75.3828 27.6586 75.021C27.0677 74.6569 26.374 74.4226 25.5776 74.3179C24.7811 74.2133 23.9184 74.2145 22.9894 74.3215L13.1187 75.4587L12.3475 87.1852ZM13.5589 68.2781L23.8361 67.094C25.9457 66.851 27.4998 66.2104 28.4984 65.1722C29.4947 64.1146 29.8916 62.7038 29.689 60.9397C29.5977 60.1449 29.3768 59.5026 29.0264 59.0126C28.6954 58.5204 28.2604 58.1482 27.7216 57.896C27.2021 57.6416 26.597 57.4953 25.9062 57.457C25.2132 57.3994 24.4796 57.4151 23.7055 57.5043L14.1831 58.6014L13.5589 68.2781Z" fill="#2FAD74"/>
<path d="M65.0725 45.2845L78.0786 43.786L83.5152 75.2443L83.6313 75.2309L93.0589 42.0602L106.501 40.5116L103.687 84.1455L95.355 85.1054L98.2411 47.7386L98.1249 47.752L87.052 86.062L79.1264 86.9751L72.4901 50.7054L72.3739 50.7188L70.7943 87.935L62.4913 88.8916L65.0725 45.2845Z" fill="#2FAD74"/>
<path d="M112.58 75.5196C113.62 75.6944 114.467 75.8129 115.121 75.875C115.795 75.9349 116.441 75.9292 117.061 75.8578C118.241 75.7218 119.175 75.4865 119.862 75.152C120.569 74.8153 121.101 74.4102 121.458 73.937C121.814 73.4443 122.026 72.8993 122.094 72.3022C122.182 71.7028 122.187 71.0639 122.109 70.3854C122.027 69.6681 121.854 68.8435 121.59 67.9114C121.326 66.9794 120.954 65.8733 120.474 64.593L111.378 39.9496L120.552 38.8927L127.954 62.1107L128.07 62.0973L137.187 36.9762L147 35.8457L130.691 73.9044C130.026 75.4542 129.297 76.7952 128.506 77.9274C127.731 79.038 126.85 79.9842 125.861 80.7659C124.872 81.5476 123.765 82.1564 122.541 82.5921C121.318 83.0472 119.933 83.3639 118.384 83.5423C117.939 83.5936 117.452 83.6203 116.923 83.6223C116.413 83.6221 115.88 83.5951 115.325 83.5412C114.791 83.5045 114.255 83.4484 113.717 83.3729C113.201 83.3146 112.712 83.2432 112.251 83.1588L112.58 75.5196Z" fill="#2FAD74"/>
<path d="M151.18 35.364L165.87 33.6716C168.638 33.3528 171.009 33.4233 172.984 33.8833C174.975 34.3216 176.627 35.0446 177.939 36.0523C179.268 37.0384 180.28 38.2477 180.974 39.6801C181.685 41.091 182.134 42.6106 182.321 44.2389C182.599 46.6621 182.481 48.8756 181.966 50.8794C181.47 52.8811 180.573 54.6343 179.275 56.1391C177.977 57.6439 176.286 58.8798 174.2 59.8468C172.134 60.8115 169.669 61.4589 166.805 61.7889L158.24 62.7756L157.279 77.9711L148.367 78.998L151.18 35.364ZM158.757 55.2327L166.682 54.3196C168.095 54.1568 169.283 53.8236 170.244 53.32C171.206 52.8163 171.969 52.1981 172.532 51.4655C173.114 50.7305 173.51 49.9091 173.72 49.0011C173.927 48.0737 173.974 47.1157 173.86 46.127C173.769 45.3322 173.586 44.5971 173.313 43.9215C173.056 43.2243 172.666 42.6408 172.141 42.1709C171.614 41.6816 170.936 41.3276 170.107 41.1089C169.297 40.8879 168.302 40.8454 167.121 40.9815L159.631 41.8444L158.757 55.2327Z" fill="#2FAD74"/>
<path d="M190.605 30.8219L203.611 29.3235L209.048 60.7817L209.164 60.7684L218.591 27.5976L232.033 26.049L229.22 69.6829L220.887 70.6429L223.774 33.2761L223.657 33.2895L212.584 71.5995L204.659 72.5126L198.023 36.2428L197.906 36.2562L196.327 73.4725L188.024 74.4291L190.605 30.8219Z" fill="#2FAD74"/>
<path d="M257.909 32.1128L257.793 32.1262L251.009 51.1745L261.722 49.9403L257.909 32.1128ZM253.081 23.6241L263.503 22.4234L273.812 64.5455L265.015 65.5589L263.267 57.2458L248.228 58.9783L245.1 67.8534L235.635 68.9438L253.081 23.6241Z" fill="#2FAD74"/>
<path d="M280.08 20.5135L288.993 19.4867L287.898 36.0823L304.592 34.1591L305.715 17.5601L314.628 16.5333L311.756 60.1739L302.815 61.2041L304.133 41.6953L287.44 43.6185L286.121 63.1273L277.209 64.1541L280.08 20.5135Z" fill="#2FAD74"/>
<path d="M348.906 27.1092C348.761 25.8491 348.429 24.7482 347.909 23.8064C347.386 22.8452 346.728 22.0666 345.934 21.4706C345.157 20.853 344.265 20.4255 343.257 20.1881C342.267 19.929 341.22 19.863 340.116 19.9901C338.297 20.1997 336.736 20.6939 335.433 21.4725C334.13 22.2511 333.034 23.2121 332.146 24.3555C331.255 25.4795 330.548 26.7493 330.024 28.1649C329.518 29.5589 329.141 30.9772 328.895 32.4197C328.668 33.8601 328.547 35.2784 328.531 36.6748C328.532 38.0496 328.597 39.2992 328.726 40.4235C328.897 41.9162 329.233 43.3016 329.733 44.5796C330.252 45.8554 330.965 46.942 331.872 47.8392C332.798 48.7342 333.934 49.3988 335.278 49.8332C336.641 50.2654 338.242 50.3756 340.081 50.1637C341.184 50.0366 342.233 49.7783 343.228 49.3887C344.24 48.9775 345.145 48.4116 345.945 47.6909C346.743 46.9509 347.412 46.0389 347.955 44.9551C348.497 43.8713 348.859 42.5823 349.04 41.0883L358.098 40.0448C357.779 42.5564 357.169 44.8462 356.269 46.914C355.388 48.9796 354.213 50.7846 352.743 52.3288C351.29 53.8515 349.55 55.0929 347.523 56.0532C345.496 57.0135 343.195 57.642 340.621 57.9385C338.26 58.2106 336.118 58.1725 334.195 57.8244C332.292 57.4741 330.599 56.9031 329.116 56.1116C327.632 55.32 326.335 54.35 325.222 53.2014C324.127 52.0313 323.198 50.7732 322.435 49.4272C321.673 48.0812 321.073 46.6969 320.635 45.2742C320.214 43.8299 319.925 42.4196 319.766 41.0433C319.533 39.0078 319.501 36.9393 319.672 34.8377C319.84 32.7166 320.23 30.6486 320.842 28.6336C321.453 26.6186 322.283 24.7062 323.33 22.8963C324.397 21.0843 325.701 19.4609 327.242 18.0263C328.783 16.5916 330.579 15.4027 332.627 14.4596C334.674 13.4971 336.984 12.8675 339.558 12.571C341.978 12.2922 344.232 12.3665 346.32 12.7937C348.428 13.2186 350.282 13.9969 351.883 15.1285C353.484 16.26 354.801 17.7385 355.834 19.564C356.868 21.3895 357.529 23.5623 357.818 26.0823L348.906 27.1092Z" fill="#2FAD74"/>
<path d="M366.536 10.553L375.275 9.54621L373.97 26.8731L388.194 8.05781L399.255 6.78348L383.562 27.1527L398.88 50.1364L388.951 51.2803L378.12 34.3204L373.341 40.351L372.577 53.1667L363.723 54.1869L366.536 10.553Z" fill="#2FAD74"/>
<path d="M405.613 6.05099L433.977 2.7832L433.515 10.2904L413.89 12.5514L413.324 22.2214L431.323 20.1477L430.865 27.6839L412.923 29.7509L412.228 41.1151L432.812 38.7437L432.353 46.28L402.799 49.6849L405.613 6.05099Z" fill="#2FAD74"/>
<path d="M5.79003 52.1144L22.4832 50.1912C25.1928 49.879 27.5152 49.8668 29.4505 50.1545C31.3857 50.4422 32.9993 51.0027 34.2913 51.8359C35.581 52.6498 36.5661 53.7148 37.2468 55.0309C37.9274 56.347 38.3679 57.8775 38.5683 59.6221C38.6952 60.7271 38.6713 61.8003 38.4968 62.8417C38.3394 63.8616 38.0193 64.8315 37.5366 65.7513C37.0711 66.6495 36.431 67.4795 35.6164 68.2411C34.8189 68.9812 33.8436 69.6239 32.6904 70.1692C33.5351 70.5236 34.3069 70.9258 35.0057 71.3756C35.7022 71.806 36.3121 72.3348 36.8351 72.962C37.356 73.5698 37.7804 74.2771 38.1084 75.0839C38.4557 75.8885 38.6895 76.8142 38.8097 77.861C39.0568 80.0127 38.9289 81.972 38.4258 83.7388C37.9205 85.4862 37.0572 87.0195 35.836 88.3387C34.6148 89.6579 33.0527 90.7414 31.1498 91.5891C29.2447 92.4175 27.005 92.98 24.4309 93.2765L2.97656 95.7483L5.79003 52.1144ZM12.3475 87.1852L23.2924 85.9242C24.6472 85.7682 25.7657 85.4331 26.648 84.9189C27.5302 84.4048 28.226 83.8041 28.7354 83.1169C29.2448 82.4297 29.583 81.7033 29.75 80.9377C29.917 80.1721 29.9616 79.45 29.8837 78.7715C29.779 77.8604 29.5351 77.1028 29.152 76.4988C28.7666 75.8754 28.2688 75.3828 27.6586 75.021C27.0677 74.6569 26.374 74.4226 25.5776 74.3179C24.7811 74.2133 23.9184 74.2145 22.9894 74.3215L13.1187 75.4587L12.3475 87.1852ZM13.5589 68.2781L23.8361 67.094C25.9457 66.851 27.4998 66.2104 28.4984 65.1722C29.4947 64.1146 29.8916 62.7038 29.689 60.9397C29.5977 60.1449 29.3768 59.5026 29.0264 59.0126C28.6954 58.5204 28.2604 58.1482 27.7216 57.896C27.2021 57.6416 26.597 57.4953 25.9062 57.457C25.2132 57.3994 24.4796 57.4151 23.7055 57.5043L14.1831 58.6014L13.5589 68.2781Z" stroke="black" stroke-width="4" mask="url(#path-1-outside-1)"/>
<path d="M65.0725 45.2845L78.0786 43.786L83.5152 75.2443L83.6313 75.2309L93.0589 42.0602L106.501 40.5116L103.687 84.1455L95.355 85.1054L98.2411 47.7386L98.1249 47.752L87.052 86.062L79.1264 86.9751L72.4901 50.7054L72.3739 50.7188L70.7943 87.935L62.4913 88.8916L65.0725 45.2845Z" stroke="black" stroke-width="4" mask="url(#path-1-outside-1)"/>
<path d="M112.58 75.5196C113.62 75.6944 114.467 75.8129 115.121 75.875C115.795 75.9349 116.441 75.9292 117.061 75.8578C118.241 75.7218 119.175 75.4865 119.862 75.152C120.569 74.8153 121.101 74.4102 121.458 73.937C121.814 73.4443 122.026 72.8993 122.094 72.3022C122.182 71.7028 122.187 71.0639 122.109 70.3854C122.027 69.6681 121.854 68.8435 121.59 67.9114C121.326 66.9794 120.954 65.8733 120.474 64.593L111.378 39.9496L120.552 38.8927L127.954 62.1107L128.07 62.0973L137.187 36.9762L147 35.8457L130.691 73.9044C130.026 75.4542 129.297 76.7952 128.506 77.9274C127.731 79.038 126.85 79.9842 125.861 80.7659C124.872 81.5476 123.765 82.1564 122.541 82.5921C121.318 83.0472 119.933 83.3639 118.384 83.5423C117.939 83.5936 117.452 83.6203 116.923 83.6223C116.413 83.6221 115.88 83.5951 115.325 83.5412C114.791 83.5045 114.255 83.4484 113.717 83.3729C113.201 83.3146 112.712 83.2432 112.251 83.1588L112.58 75.5196Z" stroke="black" stroke-width="4" mask="url(#path-1-outside-1)"/>
<path d="M151.18 35.364L165.87 33.6716C168.638 33.3528 171.009 33.4233 172.984 33.8833C174.975 34.3216 176.627 35.0446 177.939 36.0523C179.268 37.0384 180.28 38.2477 180.974 39.6801C181.685 41.091 182.134 42.6106 182.321 44.2389C182.599 46.6621 182.481 48.8756 181.966 50.8794C181.47 52.8811 180.573 54.6343 179.275 56.1391C177.977 57.6439 176.286 58.8798 174.2 59.8468C172.134 60.8115 169.669 61.4589 166.805 61.7889L158.24 62.7756L157.279 77.9711L148.367 78.998L151.18 35.364ZM158.757 55.2327L166.682 54.3196C168.095 54.1568 169.283 53.8236 170.244 53.32C171.206 52.8163 171.969 52.1981 172.532 51.4655C173.114 50.7305 173.51 49.9091 173.72 49.0011C173.927 48.0737 173.974 47.1157 173.86 46.127C173.769 45.3322 173.586 44.5971 173.313 43.9215C173.056 43.2243 172.666 42.6408 172.141 42.1709C171.614 41.6816 170.936 41.3276 170.107 41.1089C169.297 40.8879 168.302 40.8454 167.121 40.9815L159.631 41.8444L158.757 55.2327Z" stroke="black" stroke-width="4" mask="url(#path-1-outside-1)"/>
<path d="M190.605 30.8219L203.611 29.3235L209.048 60.7817L209.164 60.7684L218.591 27.5976L232.033 26.049L229.22 69.6829L220.887 70.6429L223.774 33.2761L223.657 33.2895L212.584 71.5995L204.659 72.5126L198.023 36.2428L197.906 36.2562L196.327 73.4725L188.024 74.4291L190.605 30.8219Z" stroke="black" stroke-width="4" mask="url(#path-1-outside-1)"/>
<path d="M257.909 32.1128L257.793 32.1262L251.009 51.1745L261.722 49.9403L257.909 32.1128ZM253.081 23.6241L263.503 22.4234L273.812 64.5455L265.015 65.5589L263.267 57.2458L248.228 58.9783L245.1 67.8534L235.635 68.9438L253.081 23.6241Z" stroke="black" stroke-width="4" mask="url(#path-1-outside-1)"/>
<path d="M280.08 20.5135L288.993 19.4867L287.898 36.0823L304.592 34.1591L305.715 17.5601L314.628 16.5333L311.756 60.1739L302.815 61.2041L304.133 41.6953L287.44 43.6185L286.121 63.1273L277.209 64.1541L280.08 20.5135Z" stroke="black" stroke-width="4" mask="url(#path-1-outside-1)"/>
<path d="M348.906 27.1092C348.761 25.8491 348.429 24.7482 347.909 23.8064C347.386 22.8452 346.728 22.0666 345.934 21.4706C345.157 20.853 344.265 20.4255 343.257 20.1881C342.267 19.929 341.22 19.863 340.116 19.9901C338.297 20.1997 336.736 20.6939 335.433 21.4725C334.13 22.2511 333.034 23.2121 332.146 24.3555C331.255 25.4795 330.548 26.7493 330.024 28.1649C329.518 29.5589 329.141 30.9772 328.895 32.4197C328.668 33.8601 328.547 35.2784 328.531 36.6748C328.532 38.0496 328.597 39.2992 328.726 40.4235C328.897 41.9162 329.233 43.3016 329.733 44.5796C330.252 45.8554 330.965 46.942 331.872 47.8392C332.798 48.7342 333.934 49.3988 335.278 49.8332C336.641 50.2654 338.242 50.3756 340.081 50.1637C341.184 50.0366 342.233 49.7783 343.228 49.3887C344.24 48.9775 345.145 48.4116 345.945 47.6909C346.743 46.9509 347.412 46.0389 347.955 44.9551C348.497 43.8713 348.859 42.5823 349.04 41.0883L358.098 40.0448C357.779 42.5564 357.169 44.8462 356.269 46.914C355.388 48.9796 354.213 50.7846 352.743 52.3288C351.29 53.8515 349.55 55.0929 347.523 56.0532C345.496 57.0135 343.195 57.642 340.621 57.9385C338.26 58.2106 336.118 58.1725 334.195 57.8244C332.292 57.4741 330.599 56.9031 329.116 56.1116C327.632 55.32 326.335 54.35 325.222 53.2014C324.127 52.0313 323.198 50.7732 322.435 49.4272C321.673 48.0812 321.073 46.6969 320.635 45.2742C320.214 43.8299 319.925 42.4196 319.766 41.0433C319.533 39.0078 319.501 36.9393 319.672 34.8377C319.84 32.7166 320.23 30.6486 320.842 28.6336C321.453 26.6186 322.283 24.7062 323.33 22.8963C324.397 21.0843 325.701 19.4609 327.242 18.0263C328.783 16.5916 330.579 15.4027 332.627 14.4596C334.674 13.4971 336.984 12.8675 339.558 12.571C341.978 12.2922 344.232 12.3665 346.32 12.7937C348.428 13.2186 350.282 13.9969 351.883 15.1285C353.484 16.26 354.801 17.7385 355.834 19.564C356.868 21.3895 357.529 23.5623 357.818 26.0823L348.906 27.1092Z" stroke="black" stroke-width="4" mask="url(#path-1-outside-1)"/>
<path d="M366.536 10.553L375.275 9.54621L373.97 26.8731L388.194 8.05781L399.255 6.78348L383.562 27.1527L398.88 50.1364L388.951 51.2803L378.12 34.3204L373.341 40.351L372.577 53.1667L363.723 54.1869L366.536 10.553Z" stroke="black" stroke-width="4" mask="url(#path-1-outside-1)"/>
<path d="M405.613 6.05099L433.977 2.7832L433.515 10.2904L413.89 12.5514L413.324 22.2214L431.323 20.1477L430.865 27.6839L412.923 29.7509L412.228 41.1151L432.812 38.7437L432.353 46.28L402.799 49.6849L405.613 6.05099Z" stroke="black" stroke-width="4" mask="url(#path-1-outside-1)"/>
</svg>
