<svg width="465" height="122" viewBox="0 0 465 122" fill="none" xmlns="http://www.w3.org/2000/svg">
<rect y="50.7109" width="459.412" height="71.493" transform="rotate(-6.33742 0 50.7109)" fill="#D597C3"/>
<mask id="path-2-outside-1" maskUnits="userSpaceOnUse" x="13.9766" y="11.7812" width="437" height="99" fill="black">
<rect fill="white" x="13.9766" y="11.7812" width="437" height="99"/>
<path d="M19.79 64.1124L36.4832 62.1892C39.1928 61.877 41.5152 61.8648 43.4505 62.1525C45.3857 62.4402 46.9993 63.0007 48.2913 63.834C49.581 64.6478 50.5661 65.7128 51.2468 67.029C51.9274 68.3451 52.3679 69.8755 52.5683 71.6202C52.6952 72.7251 52.6713 73.7983 52.4968 74.8398C52.3394 75.8597 52.0193 76.8295 51.5366 77.7493C51.0711 78.6476 50.431 79.4775 49.6164 80.2392C48.8189 80.9792 47.8436 81.6219 46.6904 82.1673C47.5351 82.5217 48.3069 82.9238 49.0057 83.3736C49.7022 83.8041 50.3121 84.3329 50.8351 84.9601C51.356 85.5679 51.7804 86.2752 52.1084 87.082C52.4557 87.8866 52.6895 88.8122 52.8097 89.859C53.0568 92.0108 52.9289 93.9701 52.4258 95.7368C51.9205 97.4842 51.0572 99.0175 49.836 100.337C48.6148 101.656 47.0527 102.739 45.1498 103.587C43.2447 104.416 41.005 104.978 38.4309 105.275L16.9766 107.746L19.79 64.1124ZM26.3475 99.1833L37.2924 97.9223C38.6472 97.7662 39.7657 97.4311 40.648 96.917C41.5302 96.4029 42.226 95.8022 42.7354 95.115C43.2448 94.4278 43.583 93.7013 43.75 92.9357C43.917 92.1701 43.9616 91.448 43.8837 90.7696C43.779 89.8585 43.5351 89.1009 43.152 88.4969C42.7666 87.8734 42.2688 87.3808 41.6586 87.019C41.0677 86.655 40.374 86.4206 39.5776 86.316C38.7811 86.2113 37.9184 86.2125 36.9894 86.3195L27.1187 87.4567L26.3475 99.1833ZM27.5589 80.2761L37.8361 79.0921C39.9457 78.849 41.4998 78.2084 42.4984 77.1702C43.4947 76.1126 43.8916 74.7018 43.689 72.9378C43.5977 72.143 43.3768 71.5006 43.0264 71.0107C42.6954 70.5185 42.2604 70.1463 41.7216 69.8941C41.2021 69.6397 40.597 69.4933 39.9062 69.4551C39.2132 69.3974 38.4796 69.4132 37.7055 69.5024L28.1831 70.5994L27.5589 80.2761Z"/>
<path d="M79.0725 57.2825L92.0786 55.7841L97.5152 87.2423L97.6313 87.2289L107.059 54.0582L120.501 52.5096L117.687 96.1435L109.355 97.1035L112.241 59.7367L112.125 59.75L101.052 98.06L93.1264 98.9731L86.4901 62.7034L86.3739 62.7168L84.7943 99.9331L76.4913 100.89L79.0725 57.2825Z"/>
<path d="M126.58 87.5176C127.62 87.6925 128.467 87.8109 129.121 87.8731C129.795 87.9329 130.441 87.9272 131.061 87.8559C132.241 87.7198 133.175 87.4846 133.862 87.1501C134.569 86.8133 135.101 86.4083 135.458 85.935C135.814 85.4423 136.026 84.8974 136.094 84.3002C136.182 83.7008 136.187 83.0619 136.109 82.3834C136.027 81.6662 135.854 80.8415 135.59 79.9095C135.326 78.9775 134.954 77.8713 134.474 76.591L125.378 51.9477L134.552 50.8908L141.954 74.1087L142.07 74.0954L151.187 48.9742L161 47.8437L144.691 85.9025C144.026 87.4522 143.297 88.7932 142.506 89.9255C141.731 91.0361 140.85 91.9822 139.861 92.764C138.872 93.5457 137.765 94.1544 136.541 94.5901C135.318 95.0452 133.933 95.362 132.384 95.5403C131.939 95.5916 131.452 95.6183 130.923 95.6204C130.413 95.6202 129.88 95.5931 129.325 95.5393C128.791 95.5025 128.255 95.4464 127.717 95.3709C127.201 95.3126 126.712 95.2412 126.251 95.1568L126.58 87.5176Z"/>
<path d="M165.18 47.3621L179.87 45.6697C182.638 45.3508 185.009 45.4214 186.984 45.8813C188.975 46.3197 190.627 47.0427 191.939 48.0504C193.268 49.0365 194.28 50.2457 194.974 51.6782C195.685 53.089 196.134 54.6086 196.321 56.237C196.599 58.6601 196.481 60.8736 195.966 62.8775C195.47 64.8791 194.573 66.6323 193.275 68.1371C191.977 69.642 190.286 70.8778 188.2 71.8448C186.134 72.8096 183.669 73.457 180.805 73.787L172.24 74.7737L171.279 89.9692L162.367 90.996L165.18 47.3621ZM172.757 67.2307L180.682 66.3176C182.095 66.1549 183.283 65.8216 184.244 65.318C185.206 64.8143 185.969 64.1962 186.532 63.4635C187.114 62.7286 187.51 61.9071 187.72 60.9991C187.927 60.0717 187.974 59.1137 187.86 58.1251C187.769 57.3303 187.586 56.5951 187.313 55.9195C187.056 55.2224 186.666 54.6388 186.141 54.1689C185.614 53.6797 184.936 53.3257 184.107 53.1069C183.297 52.886 182.302 52.8435 181.121 52.9795L173.631 53.8424L172.757 67.2307Z"/>
<path d="M204.605 42.82L217.611 41.3215L223.048 72.7798L223.164 72.7664L232.591 39.5957L246.033 38.0471L243.22 81.681L234.887 82.6409L237.774 45.2741L237.657 45.2875L226.584 83.5975L218.659 84.5106L212.023 48.2409L211.906 48.2543L210.327 85.4705L202.024 86.4271L204.605 42.82Z"/>
<path d="M271.909 44.1108L271.793 44.1242L265.009 63.1725L275.722 61.9383L271.909 44.1108ZM267.081 35.6222L277.503 34.4214L287.812 76.5435L279.015 77.557L277.267 69.2438L262.228 70.9764L259.1 79.8514L249.635 80.9418L267.081 35.6222Z"/>
<path d="M294.08 32.5116L302.993 31.4847L301.898 48.0803L318.592 46.1571L319.715 29.5582L328.628 28.5314L325.756 72.172L316.815 73.2021L318.133 53.6934L301.44 55.6166L300.121 75.1253L291.209 76.1522L294.08 32.5116Z"/>
<path d="M362.906 39.1072C362.761 37.8472 362.429 36.7463 361.909 35.8044C361.386 34.8432 360.728 34.0646 359.934 33.4687C359.157 32.8511 358.265 32.4236 357.257 32.1861C356.267 31.9271 355.22 31.8611 354.116 31.9882C352.297 32.1978 350.736 32.6919 349.433 33.4705C348.13 34.2492 347.034 35.2102 346.146 36.3536C345.255 37.4775 344.548 38.7473 344.024 40.1629C343.518 41.5569 343.141 42.9752 342.895 44.4178C342.668 45.8581 342.547 47.2765 342.531 48.6729C342.532 50.0477 342.597 51.2973 342.726 52.4216C342.897 53.9142 343.233 55.2996 343.733 56.5777C344.252 57.8535 344.965 58.94 345.872 59.8372C346.798 60.7322 347.934 61.3969 349.278 61.8313C350.641 62.2634 352.242 62.3736 354.081 62.1618C355.184 62.0347 356.233 61.7763 357.228 61.3868C358.24 60.9756 359.145 60.4096 359.945 59.689C360.743 58.9489 361.412 58.037 361.955 56.9531C362.497 55.8693 362.859 54.5804 363.04 53.0864L372.098 52.0428C371.779 54.5545 371.169 56.8442 370.269 58.912C369.388 60.9777 368.213 62.7826 366.743 64.3269C365.29 65.8495 363.55 67.091 361.523 68.0513C359.496 69.0116 357.195 69.64 354.621 69.9366C352.26 70.2086 350.118 70.1706 348.195 69.8225C346.292 69.4721 344.599 68.9012 343.116 68.1096C341.632 67.3181 340.335 66.348 339.222 65.1995C338.127 64.0293 337.198 62.7712 336.435 61.4253C335.673 60.0793 335.073 58.6949 334.635 57.2723C334.214 55.828 333.925 54.4177 333.766 53.0413C333.533 51.0059 333.501 48.9373 333.672 46.8357C333.84 44.7147 334.23 42.6466 334.842 40.6316C335.453 38.6166 336.283 36.7042 337.33 34.8944C338.397 33.0823 339.701 31.459 341.242 30.0243C342.783 28.5897 344.579 27.4008 346.627 26.4576C348.674 25.4951 350.984 24.8656 353.558 24.569C355.978 24.2903 358.232 24.3645 360.32 24.7917C362.428 25.2167 364.282 25.9949 365.883 27.1265C367.484 28.2581 368.801 29.7366 369.834 31.5621C370.868 33.3875 371.529 35.5603 371.818 38.0804L362.906 39.1072Z"/>
<path d="M380.536 22.551L389.275 21.5443L387.97 38.8712L402.194 20.0559L413.255 18.7815L397.562 39.1508L412.88 62.1345L402.951 63.2784L392.12 46.3185L387.341 52.349L386.577 65.1648L377.723 66.1849L380.536 22.551Z"/>
<path d="M419.613 18.049L447.977 14.7812L447.515 22.2884L427.89 24.5494L427.324 34.2194L445.323 32.1457L444.865 39.682L426.923 41.749L426.228 53.1132L446.812 50.7418L446.353 58.278L416.799 61.6829L419.613 18.049Z"/>
</mask>
<path d="M19.79 64.1124L36.4832 62.1892C39.1928 61.877 41.5152 61.8648 43.4505 62.1525C45.3857 62.4402 46.9993 63.0007 48.2913 63.834C49.581 64.6478 50.5661 65.7128 51.2468 67.029C51.9274 68.3451 52.3679 69.8755 52.5683 71.6202C52.6952 72.7251 52.6713 73.7983 52.4968 74.8398C52.3394 75.8597 52.0193 76.8295 51.5366 77.7493C51.0711 78.6476 50.431 79.4775 49.6164 80.2392C48.8189 80.9792 47.8436 81.6219 46.6904 82.1673C47.5351 82.5217 48.3069 82.9238 49.0057 83.3736C49.7022 83.8041 50.3121 84.3329 50.8351 84.9601C51.356 85.5679 51.7804 86.2752 52.1084 87.082C52.4557 87.8866 52.6895 88.8122 52.8097 89.859C53.0568 92.0108 52.9289 93.9701 52.4258 95.7368C51.9205 97.4842 51.0572 99.0175 49.836 100.337C48.6148 101.656 47.0527 102.739 45.1498 103.587C43.2447 104.416 41.005 104.978 38.4309 105.275L16.9766 107.746L19.79 64.1124ZM26.3475 99.1833L37.2924 97.9223C38.6472 97.7662 39.7657 97.4311 40.648 96.917C41.5302 96.4029 42.226 95.8022 42.7354 95.115C43.2448 94.4278 43.583 93.7013 43.75 92.9357C43.917 92.1701 43.9616 91.448 43.8837 90.7696C43.779 89.8585 43.5351 89.1009 43.152 88.4969C42.7666 87.8734 42.2688 87.3808 41.6586 87.019C41.0677 86.655 40.374 86.4206 39.5776 86.316C38.7811 86.2113 37.9184 86.2125 36.9894 86.3195L27.1187 87.4567L26.3475 99.1833ZM27.5589 80.2761L37.8361 79.0921C39.9457 78.849 41.4998 78.2084 42.4984 77.1702C43.4947 76.1126 43.8916 74.7018 43.689 72.9378C43.5977 72.143 43.3768 71.5006 43.0264 71.0107C42.6954 70.5185 42.2604 70.1463 41.7216 69.8941C41.2021 69.6397 40.597 69.4933 39.9062 69.4551C39.2132 69.3974 38.4796 69.4132 37.7055 69.5024L28.1831 70.5994L27.5589 80.2761Z" fill="#2FAD74"/>
<path d="M79.0725 57.2825L92.0786 55.7841L97.5152 87.2423L97.6313 87.2289L107.059 54.0582L120.501 52.5096L117.687 96.1435L109.355 97.1035L112.241 59.7367L112.125 59.75L101.052 98.06L93.1264 98.9731L86.4901 62.7034L86.3739 62.7168L84.7943 99.9331L76.4913 100.89L79.0725 57.2825Z" fill="#2FAD74"/>
<path d="M126.58 87.5176C127.62 87.6925 128.467 87.8109 129.121 87.8731C129.795 87.9329 130.441 87.9272 131.061 87.8559C132.241 87.7198 133.175 87.4846 133.862 87.1501C134.569 86.8133 135.101 86.4083 135.458 85.935C135.814 85.4423 136.026 84.8974 136.094 84.3002C136.182 83.7008 136.187 83.0619 136.109 82.3834C136.027 81.6662 135.854 80.8415 135.59 79.9095C135.326 78.9775 134.954 77.8713 134.474 76.591L125.378 51.9477L134.552 50.8908L141.954 74.1087L142.07 74.0954L151.187 48.9742L161 47.8437L144.691 85.9025C144.026 87.4522 143.297 88.7932 142.506 89.9255C141.731 91.0361 140.85 91.9822 139.861 92.764C138.872 93.5457 137.765 94.1544 136.541 94.5901C135.318 95.0452 133.933 95.362 132.384 95.5403C131.939 95.5916 131.452 95.6183 130.923 95.6204C130.413 95.6202 129.88 95.5931 129.325 95.5393C128.791 95.5025 128.255 95.4464 127.717 95.3709C127.201 95.3126 126.712 95.2412 126.251 95.1568L126.58 87.5176Z" fill="#2FAD74"/>
<path d="M165.18 47.3621L179.87 45.6697C182.638 45.3508 185.009 45.4214 186.984 45.8813C188.975 46.3197 190.627 47.0427 191.939 48.0504C193.268 49.0365 194.28 50.2457 194.974 51.6782C195.685 53.089 196.134 54.6086 196.321 56.237C196.599 58.6601 196.481 60.8736 195.966 62.8775C195.47 64.8791 194.573 66.6323 193.275 68.1371C191.977 69.642 190.286 70.8778 188.2 71.8448C186.134 72.8096 183.669 73.457 180.805 73.787L172.24 74.7737L171.279 89.9692L162.367 90.996L165.18 47.3621ZM172.757 67.2307L180.682 66.3176C182.095 66.1549 183.283 65.8216 184.244 65.318C185.206 64.8143 185.969 64.1962 186.532 63.4635C187.114 62.7286 187.51 61.9071 187.72 60.9991C187.927 60.0717 187.974 59.1137 187.86 58.1251C187.769 57.3303 187.586 56.5951 187.313 55.9195C187.056 55.2224 186.666 54.6388 186.141 54.1689C185.614 53.6797 184.936 53.3257 184.107 53.1069C183.297 52.886 182.302 52.8435 181.121 52.9795L173.631 53.8424L172.757 67.2307Z" fill="#2FAD74"/>
<path d="M204.605 42.82L217.611 41.3215L223.048 72.7798L223.164 72.7664L232.591 39.5957L246.033 38.0471L243.22 81.681L234.887 82.6409L237.774 45.2741L237.657 45.2875L226.584 83.5975L218.659 84.5106L212.023 48.2409L211.906 48.2543L210.327 85.4705L202.024 86.4271L204.605 42.82Z" fill="#2FAD74"/>
<path d="M271.909 44.1108L271.793 44.1242L265.009 63.1725L275.722 61.9383L271.909 44.1108ZM267.081 35.6222L277.503 34.4214L287.812 76.5435L279.015 77.557L277.267 69.2438L262.228 70.9764L259.1 79.8514L249.635 80.9418L267.081 35.6222Z" fill="#2FAD74"/>
<path d="M294.08 32.5116L302.993 31.4847L301.898 48.0803L318.592 46.1571L319.715 29.5582L328.628 28.5314L325.756 72.172L316.815 73.2021L318.133 53.6934L301.44 55.6166L300.121 75.1253L291.209 76.1522L294.08 32.5116Z" fill="#2FAD74"/>
<path d="M362.906 39.1072C362.761 37.8472 362.429 36.7463 361.909 35.8044C361.386 34.8432 360.728 34.0646 359.934 33.4687C359.157 32.8511 358.265 32.4236 357.257 32.1861C356.267 31.9271 355.22 31.8611 354.116 31.9882C352.297 32.1978 350.736 32.6919 349.433 33.4705C348.13 34.2492 347.034 35.2102 346.146 36.3536C345.255 37.4775 344.548 38.7473 344.024 40.1629C343.518 41.5569 343.141 42.9752 342.895 44.4178C342.668 45.8581 342.547 47.2765 342.531 48.6729C342.532 50.0477 342.597 51.2973 342.726 52.4216C342.897 53.9142 343.233 55.2996 343.733 56.5777C344.252 57.8535 344.965 58.94 345.872 59.8372C346.798 60.7322 347.934 61.3969 349.278 61.8313C350.641 62.2634 352.242 62.3736 354.081 62.1618C355.184 62.0347 356.233 61.7763 357.228 61.3868C358.24 60.9756 359.145 60.4096 359.945 59.689C360.743 58.9489 361.412 58.037 361.955 56.9531C362.497 55.8693 362.859 54.5804 363.04 53.0864L372.098 52.0428C371.779 54.5545 371.169 56.8442 370.269 58.912C369.388 60.9777 368.213 62.7826 366.743 64.3269C365.29 65.8495 363.55 67.091 361.523 68.0513C359.496 69.0116 357.195 69.64 354.621 69.9366C352.26 70.2086 350.118 70.1706 348.195 69.8225C346.292 69.4721 344.599 68.9012 343.116 68.1096C341.632 67.3181 340.335 66.348 339.222 65.1995C338.127 64.0293 337.198 62.7712 336.435 61.4253C335.673 60.0793 335.073 58.6949 334.635 57.2723C334.214 55.828 333.925 54.4177 333.766 53.0413C333.533 51.0059 333.501 48.9373 333.672 46.8357C333.84 44.7147 334.23 42.6466 334.842 40.6316C335.453 38.6166 336.283 36.7042 337.33 34.8944C338.397 33.0823 339.701 31.459 341.242 30.0243C342.783 28.5897 344.579 27.4008 346.627 26.4576C348.674 25.4951 350.984 24.8656 353.558 24.569C355.978 24.2903 358.232 24.3645 360.32 24.7917C362.428 25.2167 364.282 25.9949 365.883 27.1265C367.484 28.2581 368.801 29.7366 369.834 31.5621C370.868 33.3875 371.529 35.5603 371.818 38.0804L362.906 39.1072Z" fill="#2FAD74"/>
<path d="M380.536 22.551L389.275 21.5443L387.97 38.8712L402.194 20.0559L413.255 18.7815L397.562 39.1508L412.88 62.1345L402.951 63.2784L392.12 46.3185L387.341 52.349L386.577 65.1648L377.723 66.1849L380.536 22.551Z" fill="#2FAD74"/>
<path d="M419.613 18.049L447.977 14.7812L447.515 22.2884L427.89 24.5494L427.324 34.2194L445.323 32.1457L444.865 39.682L426.923 41.749L426.228 53.1132L446.812 50.7418L446.353 58.278L416.799 61.6829L419.613 18.049Z" fill="#2FAD74"/>
<path d="M19.79 64.1124L36.4832 62.1892C39.1928 61.877 41.5152 61.8648 43.4505 62.1525C45.3857 62.4402 46.9993 63.0007 48.2913 63.834C49.581 64.6478 50.5661 65.7128 51.2468 67.029C51.9274 68.3451 52.3679 69.8755 52.5683 71.6202C52.6952 72.7251 52.6713 73.7983 52.4968 74.8398C52.3394 75.8597 52.0193 76.8295 51.5366 77.7493C51.0711 78.6476 50.431 79.4775 49.6164 80.2392C48.8189 80.9792 47.8436 81.6219 46.6904 82.1673C47.5351 82.5217 48.3069 82.9238 49.0057 83.3736C49.7022 83.8041 50.3121 84.3329 50.8351 84.9601C51.356 85.5679 51.7804 86.2752 52.1084 87.082C52.4557 87.8866 52.6895 88.8122 52.8097 89.859C53.0568 92.0108 52.9289 93.9701 52.4258 95.7368C51.9205 97.4842 51.0572 99.0175 49.836 100.337C48.6148 101.656 47.0527 102.739 45.1498 103.587C43.2447 104.416 41.005 104.978 38.4309 105.275L16.9766 107.746L19.79 64.1124ZM26.3475 99.1833L37.2924 97.9223C38.6472 97.7662 39.7657 97.4311 40.648 96.917C41.5302 96.4029 42.226 95.8022 42.7354 95.115C43.2448 94.4278 43.583 93.7013 43.75 92.9357C43.917 92.1701 43.9616 91.448 43.8837 90.7696C43.779 89.8585 43.5351 89.1009 43.152 88.4969C42.7666 87.8734 42.2688 87.3808 41.6586 87.019C41.0677 86.655 40.374 86.4206 39.5776 86.316C38.7811 86.2113 37.9184 86.2125 36.9894 86.3195L27.1187 87.4567L26.3475 99.1833ZM27.5589 80.2761L37.8361 79.0921C39.9457 78.849 41.4998 78.2084 42.4984 77.1702C43.4947 76.1126 43.8916 74.7018 43.689 72.9378C43.5977 72.143 43.3768 71.5006 43.0264 71.0107C42.6954 70.5185 42.2604 70.1463 41.7216 69.8941C41.2021 69.6397 40.597 69.4933 39.9062 69.4551C39.2132 69.3974 38.4796 69.4132 37.7055 69.5024L28.1831 70.5994L27.5589 80.2761Z" stroke="black" stroke-width="4" mask="url(#path-2-outside-1)"/>
<path d="M79.0725 57.2825L92.0786 55.7841L97.5152 87.2423L97.6313 87.2289L107.059 54.0582L120.501 52.5096L117.687 96.1435L109.355 97.1035L112.241 59.7367L112.125 59.75L101.052 98.06L93.1264 98.9731L86.4901 62.7034L86.3739 62.7168L84.7943 99.9331L76.4913 100.89L79.0725 57.2825Z" stroke="black" stroke-width="4" mask="url(#path-2-outside-1)"/>
<path d="M126.58 87.5176C127.62 87.6925 128.467 87.8109 129.121 87.8731C129.795 87.9329 130.441 87.9272 131.061 87.8559C132.241 87.7198 133.175 87.4846 133.862 87.1501C134.569 86.8133 135.101 86.4083 135.458 85.935C135.814 85.4423 136.026 84.8974 136.094 84.3002C136.182 83.7008 136.187 83.0619 136.109 82.3834C136.027 81.6662 135.854 80.8415 135.59 79.9095C135.326 78.9775 134.954 77.8713 134.474 76.591L125.378 51.9477L134.552 50.8908L141.954 74.1087L142.07 74.0954L151.187 48.9742L161 47.8437L144.691 85.9025C144.026 87.4522 143.297 88.7932 142.506 89.9255C141.731 91.0361 140.85 91.9822 139.861 92.764C138.872 93.5457 137.765 94.1544 136.541 94.5901C135.318 95.0452 133.933 95.362 132.384 95.5403C131.939 95.5916 131.452 95.6183 130.923 95.6204C130.413 95.6202 129.88 95.5931 129.325 95.5393C128.791 95.5025 128.255 95.4464 127.717 95.3709C127.201 95.3126 126.712 95.2412 126.251 95.1568L126.58 87.5176Z" stroke="black" stroke-width="4" mask="url(#path-2-outside-1)"/>
<path d="M165.18 47.3621L179.87 45.6697C182.638 45.3508 185.009 45.4214 186.984 45.8813C188.975 46.3197 190.627 47.0427 191.939 48.0504C193.268 49.0365 194.28 50.2457 194.974 51.6782C195.685 53.089 196.134 54.6086 196.321 56.237C196.599 58.6601 196.481 60.8736 195.966 62.8775C195.47 64.8791 194.573 66.6323 193.275 68.1371C191.977 69.642 190.286 70.8778 188.2 71.8448C186.134 72.8096 183.669 73.457 180.805 73.787L172.24 74.7737L171.279 89.9692L162.367 90.996L165.18 47.3621ZM172.757 67.2307L180.682 66.3176C182.095 66.1549 183.283 65.8216 184.244 65.318C185.206 64.8143 185.969 64.1962 186.532 63.4635C187.114 62.7286 187.51 61.9071 187.72 60.9991C187.927 60.0717 187.974 59.1137 187.86 58.1251C187.769 57.3303 187.586 56.5951 187.313 55.9195C187.056 55.2224 186.666 54.6388 186.141 54.1689C185.614 53.6797 184.936 53.3257 184.107 53.1069C183.297 52.886 182.302 52.8435 181.121 52.9795L173.631 53.8424L172.757 67.2307Z" stroke="black" stroke-width="4" mask="url(#path-2-outside-1)"/>
<path d="M204.605 42.82L217.611 41.3215L223.048 72.7798L223.164 72.7664L232.591 39.5957L246.033 38.0471L243.22 81.681L234.887 82.6409L237.774 45.2741L237.657 45.2875L226.584 83.5975L218.659 84.5106L212.023 48.2409L211.906 48.2543L210.327 85.4705L202.024 86.4271L204.605 42.82Z" stroke="black" stroke-width="4" mask="url(#path-2-outside-1)"/>
<path d="M271.909 44.1108L271.793 44.1242L265.009 63.1725L275.722 61.9383L271.909 44.1108ZM267.081 35.6222L277.503 34.4214L287.812 76.5435L279.015 77.557L277.267 69.2438L262.228 70.9764L259.1 79.8514L249.635 80.9418L267.081 35.6222Z" stroke="black" stroke-width="4" mask="url(#path-2-outside-1)"/>
<path d="M294.08 32.5116L302.993 31.4847L301.898 48.0803L318.592 46.1571L319.715 29.5582L328.628 28.5314L325.756 72.172L316.815 73.2021L318.133 53.6934L301.44 55.6166L300.121 75.1253L291.209 76.1522L294.08 32.5116Z" stroke="black" stroke-width="4" mask="url(#path-2-outside-1)"/>
<path d="M362.906 39.1072C362.761 37.8472 362.429 36.7463 361.909 35.8044C361.386 34.8432 360.728 34.0646 359.934 33.4687C359.157 32.8511 358.265 32.4236 357.257 32.1861C356.267 31.9271 355.22 31.8611 354.116 31.9882C352.297 32.1978 350.736 32.6919 349.433 33.4705C348.13 34.2492 347.034 35.2102 346.146 36.3536C345.255 37.4775 344.548 38.7473 344.024 40.1629C343.518 41.5569 343.141 42.9752 342.895 44.4178C342.668 45.8581 342.547 47.2765 342.531 48.6729C342.532 50.0477 342.597 51.2973 342.726 52.4216C342.897 53.9142 343.233 55.2996 343.733 56.5777C344.252 57.8535 344.965 58.94 345.872 59.8372C346.798 60.7322 347.934 61.3969 349.278 61.8313C350.641 62.2634 352.242 62.3736 354.081 62.1618C355.184 62.0347 356.233 61.7763 357.228 61.3868C358.24 60.9756 359.145 60.4096 359.945 59.689C360.743 58.9489 361.412 58.037 361.955 56.9531C362.497 55.8693 362.859 54.5804 363.04 53.0864L372.098 52.0428C371.779 54.5545 371.169 56.8442 370.269 58.912C369.388 60.9777 368.213 62.7826 366.743 64.3269C365.29 65.8495 363.55 67.091 361.523 68.0513C359.496 69.0116 357.195 69.64 354.621 69.9366C352.26 70.2086 350.118 70.1706 348.195 69.8225C346.292 69.4721 344.599 68.9012 343.116 68.1096C341.632 67.3181 340.335 66.348 339.222 65.1995C338.127 64.0293 337.198 62.7712 336.435 61.4253C335.673 60.0793 335.073 58.6949 334.635 57.2723C334.214 55.828 333.925 54.4177 333.766 53.0413C333.533 51.0059 333.501 48.9373 333.672 46.8357C333.84 44.7147 334.23 42.6466 334.842 40.6316C335.453 38.6166 336.283 36.7042 337.33 34.8944C338.397 33.0823 339.701 31.459 341.242 30.0243C342.783 28.5897 344.579 27.4008 346.627 26.4576C348.674 25.4951 350.984 24.8656 353.558 24.569C355.978 24.2903 358.232 24.3645 360.32 24.7917C362.428 25.2167 364.282 25.9949 365.883 27.1265C367.484 28.2581 368.801 29.7366 369.834 31.5621C370.868 33.3875 371.529 35.5603 371.818 38.0804L362.906 39.1072Z" stroke="black" stroke-width="4" mask="url(#path-2-outside-1)"/>
<path d="M380.536 22.551L389.275 21.5443L387.97 38.8712L402.194 20.0559L413.255 18.7815L397.562 39.1508L412.88 62.1345L402.951 63.2784L392.12 46.3185L387.341 52.349L386.577 65.1648L377.723 66.1849L380.536 22.551Z" stroke="black" stroke-width="4" mask="url(#path-2-outside-1)"/>
<path d="M419.613 18.049L447.977 14.7812L447.515 22.2884L427.89 24.5494L427.324 34.2194L445.323 32.1457L444.865 39.682L426.923 41.749L426.228 53.1132L446.812 50.7418L446.353 58.278L416.799 61.6829L419.613 18.049Z" stroke="black" stroke-width="4" mask="url(#path-2-outside-1)"/>
</svg>
