<svg width="330" height="99" viewBox="0 0 330 99" fill="none" xmlns="http://www.w3.org/2000/svg">
<rect x="1.27835" y="36.6024" width="323.032" height="61.256" transform="rotate(-6.29163 1.27835 36.6024)" fill="#ED603C" stroke="black"/>
<mask id="path-2-outside-1" maskUnits="userSpaceOnUse" x="21.3076" y="7.62891" width="283" height="84" fill="black">
<rect fill="white" x="21.3076" y="7.62891" width="283" height="84"/>
<path d="M27.1386 42.8782L44.5865 40.8283C47.4186 40.4956 49.8467 40.4769 51.8708 40.7724C53.8948 41.0678 55.5833 41.6487 56.9361 42.5152C58.2866 43.3615 59.3193 44.4707 60.0342 45.8428C60.7492 47.215 61.2136 48.8113 61.4275 50.632C61.563 51.7851 61.5408 52.9054 61.3609 53.993C61.1989 55.058 60.8668 56.0712 60.3644 57.0326C59.88 57.9713 59.2129 58.8393 58.3631 59.6364C57.5312 60.411 56.5131 61.0843 55.3088 61.6565C56.1929 62.0243 57.0008 62.4421 57.7325 62.9099C58.4619 63.3574 59.1008 63.9079 59.6493 64.5612C60.1954 65.1944 60.6409 65.9316 60.9858 66.773C61.351 67.6119 61.5978 68.5776 61.7261 69.67C61.9899 71.9155 61.8611 73.961 61.3396 75.8065C60.8157 77.6318 59.9171 79.2345 58.6436 80.6147C57.3701 81.9948 55.7397 83.1298 53.7524 84.0195C51.7627 84.8891 49.4225 85.4819 46.732 85.798L24.3076 88.4325L27.1386 42.8782ZM34.0833 79.4702L45.523 78.1262C46.9391 77.9598 48.1077 77.6072 49.0288 77.0683C49.9499 76.5294 50.6759 75.9006 51.2067 75.182C51.7375 74.4633 52.0893 73.7042 52.262 72.9046C52.4346 72.105 52.4794 71.3511 52.3962 70.6431C52.2845 69.6923 52.0276 68.9022 51.6255 68.2726C51.221 67.6228 50.6993 67.1099 50.0603 66.7338C49.4416 66.3553 48.7158 66.1124 47.8828 66.0052C47.0499 65.8979 46.1479 65.9014 45.1769 66.0154L34.8599 67.2276L34.0833 79.4702ZM35.3019 59.731L46.0438 58.4689C48.2488 58.2099 49.872 57.5372 50.9134 56.451C51.9524 55.3445 52.3637 53.8708 52.1475 52.0299C52.05 51.2005 51.8175 50.5305 51.4499 50.02C51.1025 49.507 50.6468 49.1196 50.0828 48.8578C49.539 48.5935 48.906 48.4423 48.1837 48.4041C47.459 48.3457 46.6921 48.364 45.8829 48.4591L35.93 49.6284L35.3019 59.731Z"/>
<path d="M89.3443 35.5699L125.515 31.3204L122.684 76.8747L113.338 77.9727L115.735 40.2524L98.1964 42.3129L95.829 80.0298L86.5133 81.1242L89.3443 35.5699Z"/>
<path d="M134.254 30.2936L163.9 26.8106L163.437 34.6481L142.924 37.0581L142.356 47.1535L161.17 44.9432L160.71 52.8111L141.957 55.0142L141.259 66.8785L162.773 64.3509L162.313 72.2188L131.423 75.848L134.254 30.2936Z"/>
<path d="M172.245 25.8302L187.599 24.0263C190.492 23.6864 192.971 23.7541 195.037 24.2292C197.12 24.6817 198.849 25.4322 200.223 26.4808C201.615 27.5067 202.676 28.7665 203.405 30.26C204.152 31.7309 204.626 33.316 204.825 35.0152C205.122 37.5439 205.004 39.8548 204.471 41.9478C203.958 44.0385 203.024 45.8708 201.671 47.4449C200.318 49.019 198.552 50.3134 196.375 51.3281C194.217 52.3404 191.641 53.0224 188.647 53.3742L179.696 54.4258L178.729 70.2901L169.414 71.3845L172.245 25.8302ZM180.216 46.5509L188.5 45.5776C189.977 45.4041 191.218 45.0533 192.222 44.5251C193.227 43.9969 194.022 43.3497 194.609 42.5835C195.216 41.8149 195.628 40.9564 195.844 40.008C196.059 39.0394 196.105 38.0393 195.984 37.0076C195.887 36.1782 195.694 35.4112 195.406 34.7067C195.136 33.9796 194.726 33.3715 194.177 32.8823C193.625 32.373 192.915 32.0052 192.047 31.7789C191.2 31.5503 190.16 31.5085 188.926 31.6535L181.097 32.5733L180.216 46.5509Z"/>
<path d="M213.452 20.9889L227.046 19.3918L232.81 52.2156L232.931 52.2013L242.704 17.5522L256.753 15.9016L253.922 61.4559L245.214 62.4791L248.136 23.4665L248.015 23.4808L236.535 63.4987L228.251 64.4719L221.221 26.6287L221.1 26.643L219.542 65.4951L210.864 66.5147L213.452 20.9889Z"/>
<path d="M265.584 14.8642L274.899 13.7697L272.874 44.1862L272.995 44.172L291.68 11.7982L301.633 10.6289L298.741 56.1904L289.395 57.2884L292.57 25.6601L292.449 25.6743L272.19 59.3098L262.631 60.4328L265.584 14.8642Z"/>
</mask>
<path d="M27.1386 42.8782L44.5865 40.8283C47.4186 40.4956 49.8467 40.4769 51.8708 40.7724C53.8948 41.0678 55.5833 41.6487 56.9361 42.5152C58.2866 43.3615 59.3193 44.4707 60.0342 45.8428C60.7492 47.215 61.2136 48.8113 61.4275 50.632C61.563 51.7851 61.5408 52.9054 61.3609 53.993C61.1989 55.058 60.8668 56.0712 60.3644 57.0326C59.88 57.9713 59.2129 58.8393 58.3631 59.6364C57.5312 60.411 56.5131 61.0843 55.3088 61.6565C56.1929 62.0243 57.0008 62.4421 57.7325 62.9099C58.4619 63.3574 59.1008 63.9079 59.6493 64.5612C60.1954 65.1944 60.6409 65.9316 60.9858 66.773C61.351 67.6119 61.5978 68.5776 61.7261 69.67C61.9899 71.9155 61.8611 73.961 61.3396 75.8065C60.8157 77.6318 59.9171 79.2345 58.6436 80.6147C57.3701 81.9948 55.7397 83.1298 53.7524 84.0195C51.7627 84.8891 49.4225 85.4819 46.732 85.798L24.3076 88.4325L27.1386 42.8782ZM34.0833 79.4702L45.523 78.1262C46.9391 77.9598 48.1077 77.6072 49.0288 77.0683C49.9499 76.5294 50.6759 75.9006 51.2067 75.182C51.7375 74.4633 52.0893 73.7042 52.262 72.9046C52.4346 72.105 52.4794 71.3511 52.3962 70.6431C52.2845 69.6923 52.0276 68.9022 51.6255 68.2726C51.221 67.6228 50.6993 67.1099 50.0603 66.7338C49.4416 66.3553 48.7158 66.1124 47.8828 66.0052C47.0499 65.8979 46.1479 65.9014 45.1769 66.0154L34.8599 67.2276L34.0833 79.4702ZM35.3019 59.731L46.0438 58.4689C48.2488 58.2099 49.872 57.5372 50.9134 56.451C51.9524 55.3445 52.3637 53.8708 52.1475 52.0299C52.05 51.2005 51.8175 50.5305 51.4499 50.02C51.1025 49.507 50.6468 49.1196 50.0828 48.8578C49.539 48.5935 48.906 48.4423 48.1837 48.4041C47.459 48.3457 46.6921 48.364 45.8829 48.4591L35.93 49.6284L35.3019 59.731Z" fill="#2FAD74"/>
<path d="M27.1386 42.8782L44.5865 40.8283C47.4186 40.4956 49.8467 40.4769 51.8708 40.7724C53.8948 41.0678 55.5833 41.6487 56.9361 42.5152C58.2866 43.3615 59.3193 44.4707 60.0342 45.8428C60.7492 47.215 61.2136 48.8113 61.4275 50.632C61.563 51.7851 61.5408 52.9054 61.3609 53.993C61.1989 55.058 60.8668 56.0712 60.3644 57.0326C59.88 57.9713 59.2129 58.8393 58.3631 59.6364C57.5312 60.411 56.5131 61.0843 55.3088 61.6565C56.1929 62.0243 57.0008 62.4421 57.7325 62.9099C58.4619 63.3574 59.1008 63.9079 59.6493 64.5612C60.1954 65.1944 60.6409 65.9316 60.9858 66.773C61.351 67.6119 61.5978 68.5776 61.7261 69.67C61.9899 71.9155 61.8611 73.961 61.3396 75.8065C60.8157 77.6318 59.9171 79.2345 58.6436 80.6147C57.3701 81.9948 55.7397 83.1298 53.7524 84.0195C51.7627 84.8891 49.4225 85.4819 46.732 85.798L24.3076 88.4325L27.1386 42.8782ZM34.0833 79.4702L45.523 78.1262C46.9391 77.9598 48.1077 77.6072 49.0288 77.0683C49.9499 76.5294 50.6759 75.9006 51.2067 75.182C51.7375 74.4633 52.0893 73.7042 52.262 72.9046C52.4346 72.105 52.4794 71.3511 52.3962 70.6431C52.2845 69.6923 52.0276 68.9022 51.6255 68.2726C51.221 67.6228 50.6993 67.1099 50.0603 66.7338C49.4416 66.3553 48.7158 66.1124 47.8828 66.0052C47.0499 65.8979 46.1479 65.9014 45.1769 66.0154L34.8599 67.2276L34.0833 79.4702ZM35.3019 59.731L46.0438 58.4689C48.2488 58.2099 49.872 57.5372 50.9134 56.451C51.9524 55.3445 52.3637 53.8708 52.1475 52.0299C52.05 51.2005 51.8175 50.5305 51.4499 50.02C51.1025 49.507 50.6468 49.1196 50.0828 48.8578C49.539 48.5935 48.906 48.4423 48.1837 48.4041C47.459 48.3457 46.6921 48.364 45.8829 48.4591L35.93 49.6284L35.3019 59.731Z" fill="url(#paint0_linear)"/>
<path d="M89.3443 35.5699L125.515 31.3204L122.684 76.8747L113.338 77.9727L115.735 40.2524L98.1964 42.3129L95.829 80.0298L86.5133 81.1242L89.3443 35.5699Z" fill="#2FAD74"/>
<path d="M89.3443 35.5699L125.515 31.3204L122.684 76.8747L113.338 77.9727L115.735 40.2524L98.1964 42.3129L95.829 80.0298L86.5133 81.1242L89.3443 35.5699Z" fill="url(#paint1_linear)"/>
<path d="M134.254 30.2936L163.9 26.8106L163.437 34.6481L142.924 37.0581L142.356 47.1535L161.17 44.9432L160.71 52.8111L141.957 55.0142L141.259 66.8785L162.773 64.3509L162.313 72.2188L131.423 75.848L134.254 30.2936Z" fill="#2FAD74"/>
<path d="M134.254 30.2936L163.9 26.8106L163.437 34.6481L142.924 37.0581L142.356 47.1535L161.17 44.9432L160.71 52.8111L141.957 55.0142L141.259 66.8785L162.773 64.3509L162.313 72.2188L131.423 75.848L134.254 30.2936Z" fill="url(#paint2_linear)"/>
<path d="M172.245 25.8302L187.599 24.0263C190.492 23.6864 192.971 23.7541 195.037 24.2292C197.12 24.6817 198.849 25.4322 200.223 26.4808C201.615 27.5067 202.676 28.7665 203.405 30.26C204.152 31.7309 204.626 33.316 204.825 35.0152C205.122 37.5439 205.004 39.8548 204.471 41.9478C203.958 44.0385 203.024 45.8708 201.671 47.4449C200.318 49.019 198.552 50.3134 196.375 51.3281C194.217 52.3404 191.641 53.0224 188.647 53.3742L179.696 54.4258L178.729 70.2901L169.414 71.3845L172.245 25.8302ZM180.216 46.5509L188.5 45.5776C189.977 45.4041 191.218 45.0533 192.222 44.5251C193.227 43.9969 194.022 43.3497 194.609 42.5835C195.216 41.8149 195.628 40.9564 195.844 40.008C196.059 39.0394 196.105 38.0393 195.984 37.0076C195.887 36.1782 195.694 35.4112 195.406 34.7067C195.136 33.9796 194.726 33.3715 194.177 32.8823C193.625 32.373 192.915 32.0052 192.047 31.7789C191.2 31.5503 190.16 31.5085 188.926 31.6535L181.097 32.5733L180.216 46.5509Z" fill="#2FAD74"/>
<path d="M172.245 25.8302L187.599 24.0263C190.492 23.6864 192.971 23.7541 195.037 24.2292C197.12 24.6817 198.849 25.4322 200.223 26.4808C201.615 27.5067 202.676 28.7665 203.405 30.26C204.152 31.7309 204.626 33.316 204.825 35.0152C205.122 37.5439 205.004 39.8548 204.471 41.9478C203.958 44.0385 203.024 45.8708 201.671 47.4449C200.318 49.019 198.552 50.3134 196.375 51.3281C194.217 52.3404 191.641 53.0224 188.647 53.3742L179.696 54.4258L178.729 70.2901L169.414 71.3845L172.245 25.8302ZM180.216 46.5509L188.5 45.5776C189.977 45.4041 191.218 45.0533 192.222 44.5251C193.227 43.9969 194.022 43.3497 194.609 42.5835C195.216 41.8149 195.628 40.9564 195.844 40.008C196.059 39.0394 196.105 38.0393 195.984 37.0076C195.887 36.1782 195.694 35.4112 195.406 34.7067C195.136 33.9796 194.726 33.3715 194.177 32.8823C193.625 32.373 192.915 32.0052 192.047 31.7789C191.2 31.5503 190.16 31.5085 188.926 31.6535L181.097 32.5733L180.216 46.5509Z" fill="url(#paint3_linear)"/>
<path d="M213.452 20.9889L227.046 19.3918L232.81 52.2156L232.931 52.2013L242.704 17.5522L256.753 15.9016L253.922 61.4559L245.214 62.4791L248.136 23.4665L248.015 23.4808L236.535 63.4987L228.251 64.4719L221.221 26.6287L221.1 26.643L219.542 65.4951L210.864 66.5147L213.452 20.9889Z" fill="#2FAD74"/>
<path d="M213.452 20.9889L227.046 19.3918L232.81 52.2156L232.931 52.2013L242.704 17.5522L256.753 15.9016L253.922 61.4559L245.214 62.4791L248.136 23.4665L248.015 23.4808L236.535 63.4987L228.251 64.4719L221.221 26.6287L221.1 26.643L219.542 65.4951L210.864 66.5147L213.452 20.9889Z" fill="url(#paint4_linear)"/>
<path d="M265.584 14.8642L274.899 13.7697L272.874 44.1862L272.995 44.172L291.68 11.7982L301.633 10.6289L298.741 56.1904L289.395 57.2884L292.57 25.6601L292.449 25.6743L272.19 59.3098L262.631 60.4328L265.584 14.8642Z" fill="#2FAD74"/>
<path d="M265.584 14.8642L274.899 13.7697L272.874 44.1862L272.995 44.172L291.68 11.7982L301.633 10.6289L298.741 56.1904L289.395 57.2884L292.57 25.6601L292.449 25.6743L272.19 59.3098L262.631 60.4328L265.584 14.8642Z" fill="url(#paint5_linear)"/>
<path d="M27.1386 42.8782L44.5865 40.8283C47.4186 40.4956 49.8467 40.4769 51.8708 40.7724C53.8948 41.0678 55.5833 41.6487 56.9361 42.5152C58.2866 43.3615 59.3193 44.4707 60.0342 45.8428C60.7492 47.215 61.2136 48.8113 61.4275 50.632C61.563 51.7851 61.5408 52.9054 61.3609 53.993C61.1989 55.058 60.8668 56.0712 60.3644 57.0326C59.88 57.9713 59.2129 58.8393 58.3631 59.6364C57.5312 60.411 56.5131 61.0843 55.3088 61.6565C56.1929 62.0243 57.0008 62.4421 57.7325 62.9099C58.4619 63.3574 59.1008 63.9079 59.6493 64.5612C60.1954 65.1944 60.6409 65.9316 60.9858 66.773C61.351 67.6119 61.5978 68.5776 61.7261 69.67C61.9899 71.9155 61.8611 73.961 61.3396 75.8065C60.8157 77.6318 59.9171 79.2345 58.6436 80.6147C57.3701 81.9948 55.7397 83.1298 53.7524 84.0195C51.7627 84.8891 49.4225 85.4819 46.732 85.798L24.3076 88.4325L27.1386 42.8782ZM34.0833 79.4702L45.523 78.1262C46.9391 77.9598 48.1077 77.6072 49.0288 77.0683C49.9499 76.5294 50.6759 75.9006 51.2067 75.182C51.7375 74.4633 52.0893 73.7042 52.262 72.9046C52.4346 72.105 52.4794 71.3511 52.3962 70.6431C52.2845 69.6923 52.0276 68.9022 51.6255 68.2726C51.221 67.6228 50.6993 67.1099 50.0603 66.7338C49.4416 66.3553 48.7158 66.1124 47.8828 66.0052C47.0499 65.8979 46.1479 65.9014 45.1769 66.0154L34.8599 67.2276L34.0833 79.4702ZM35.3019 59.731L46.0438 58.4689C48.2488 58.2099 49.872 57.5372 50.9134 56.451C51.9524 55.3445 52.3637 53.8708 52.1475 52.0299C52.05 51.2005 51.8175 50.5305 51.4499 50.02C51.1025 49.507 50.6468 49.1196 50.0828 48.8578C49.539 48.5935 48.906 48.4423 48.1837 48.4041C47.459 48.3457 46.6921 48.364 45.8829 48.4591L35.93 49.6284L35.3019 59.731Z" stroke="black" stroke-width="4" mask="url(#path-2-outside-1)"/>
<path d="M89.3443 35.5699L125.515 31.3204L122.684 76.8747L113.338 77.9727L115.735 40.2524L98.1964 42.3129L95.829 80.0298L86.5133 81.1242L89.3443 35.5699Z" stroke="black" stroke-width="4" mask="url(#path-2-outside-1)"/>
<path d="M134.254 30.2936L163.9 26.8106L163.437 34.6481L142.924 37.0581L142.356 47.1535L161.17 44.9432L160.71 52.8111L141.957 55.0142L141.259 66.8785L162.773 64.3509L162.313 72.2188L131.423 75.848L134.254 30.2936Z" stroke="black" stroke-width="4" mask="url(#path-2-outside-1)"/>
<path d="M172.245 25.8302L187.599 24.0263C190.492 23.6864 192.971 23.7541 195.037 24.2292C197.12 24.6817 198.849 25.4322 200.223 26.4808C201.615 27.5067 202.676 28.7665 203.405 30.26C204.152 31.7309 204.626 33.316 204.825 35.0152C205.122 37.5439 205.004 39.8548 204.471 41.9478C203.958 44.0385 203.024 45.8708 201.671 47.4449C200.318 49.019 198.552 50.3134 196.375 51.3281C194.217 52.3404 191.641 53.0224 188.647 53.3742L179.696 54.4258L178.729 70.2901L169.414 71.3845L172.245 25.8302ZM180.216 46.5509L188.5 45.5776C189.977 45.4041 191.218 45.0533 192.222 44.5251C193.227 43.9969 194.022 43.3497 194.609 42.5835C195.216 41.8149 195.628 40.9564 195.844 40.008C196.059 39.0394 196.105 38.0393 195.984 37.0076C195.887 36.1782 195.694 35.4112 195.406 34.7067C195.136 33.9796 194.726 33.3715 194.177 32.8823C193.625 32.373 192.915 32.0052 192.047 31.7789C191.2 31.5503 190.16 31.5085 188.926 31.6535L181.097 32.5733L180.216 46.5509Z" stroke="black" stroke-width="4" mask="url(#path-2-outside-1)"/>
<path d="M213.452 20.9889L227.046 19.3918L232.81 52.2156L232.931 52.2013L242.704 17.5522L256.753 15.9016L253.922 61.4559L245.214 62.4791L248.136 23.4665L248.015 23.4808L236.535 63.4987L228.251 64.4719L221.221 26.6287L221.1 26.643L219.542 65.4951L210.864 66.5147L213.452 20.9889Z" stroke="black" stroke-width="4" mask="url(#path-2-outside-1)"/>
<path d="M265.584 14.8642L274.899 13.7697L272.874 44.1862L272.995 44.172L291.68 11.7982L301.633 10.6289L298.741 56.1904L289.395 57.2884L292.57 25.6601L292.449 25.6743L272.19 59.3098L262.631 60.4328L265.584 14.8642Z" stroke="black" stroke-width="4" mask="url(#path-2-outside-1)"/>
<defs>
<linearGradient id="paint0_linear" x1="160.914" y1="12.0059" x2="172.817" y2="113.325" gradientUnits="userSpaceOnUse">
<stop stop-color="#D597C3"/>
<stop offset="1" stop-color="white"/>
</linearGradient>
<linearGradient id="paint1_linear" x1="160.914" y1="12.0059" x2="172.817" y2="113.325" gradientUnits="userSpaceOnUse">
<stop stop-color="#D597C3"/>
<stop offset="1" stop-color="white"/>
</linearGradient>
<linearGradient id="paint2_linear" x1="160.914" y1="12.0059" x2="172.817" y2="113.325" gradientUnits="userSpaceOnUse">
<stop stop-color="#D597C3"/>
<stop offset="1" stop-color="white"/>
</linearGradient>
<linearGradient id="paint3_linear" x1="160.914" y1="12.0059" x2="172.817" y2="113.325" gradientUnits="userSpaceOnUse">
<stop stop-color="#D597C3"/>
<stop offset="1" stop-color="white"/>
</linearGradient>
<linearGradient id="paint4_linear" x1="160.914" y1="12.0059" x2="172.817" y2="113.325" gradientUnits="userSpaceOnUse">
<stop stop-color="#D597C3"/>
<stop offset="1" stop-color="white"/>
</linearGradient>
<linearGradient id="paint5_linear" x1="160.914" y1="12.0059" x2="172.817" y2="113.325" gradientUnits="userSpaceOnUse">
<stop stop-color="#D597C3"/>
<stop offset="1" stop-color="white"/>
</linearGradient>
</defs>
</svg>
