<svg width="648" height="489" viewBox="0 0 648 489" fill="none" xmlns="http://www.w3.org/2000/svg">
<rect x="51.6238" y="253.23" width="380.309" height="91.6451" transform="rotate(-9.53138 51.6238 253.23)" fill="white"/>
<rect x="36.1174" y="156.691" width="380.079" height="91.6451" transform="rotate(-9.53138 36.1174 156.691)" fill="white"/>
<mask id="path-3-outside-1" maskUnits="userSpaceOnUse" x="36.3095" y="87.259" width="364.317" height="272.956" fill="black">
<rect fill="white" x="36.3095" y="87.259" width="364.317" height="272.956"/>
<path d="M66.1836 175.335L108.259 168.008L107.906 221.531L97.0342 223.424L97.3891 179.102L76.9869 182.655L76.6673 226.971L65.8309 228.859L66.1836 175.335Z"/>
<path d="M117.026 197.467C116.596 194.996 116.41 192.471 116.47 189.89C116.526 187.286 116.857 184.731 117.463 182.225C118.069 179.719 118.949 177.323 120.103 175.037C121.28 172.747 122.761 170.671 124.546 168.808C126.331 166.946 128.444 165.365 130.885 164.068C133.322 162.746 136.105 161.813 139.235 161.268C142.106 160.768 144.718 160.664 147.073 160.957C149.45 161.246 151.575 161.822 153.447 162.684C155.318 163.546 156.966 164.653 158.389 166.006C159.832 167.33 161.068 168.788 162.097 170.379C163.121 171.946 163.942 173.597 164.56 175.332C165.201 177.063 165.667 178.764 165.958 180.435C166.388 182.906 166.575 185.443 166.52 188.047C166.46 190.628 166.127 193.171 165.521 195.677C164.915 198.183 164.023 200.581 162.846 202.871C161.692 205.157 160.223 207.231 158.438 209.094C156.653 210.956 154.54 212.537 152.099 213.835C149.662 215.156 146.879 216.089 143.749 216.634C140.855 217.139 138.23 217.244 135.876 216.951C133.521 216.658 131.397 216.082 129.502 215.224C127.63 214.362 125.973 213.269 124.53 211.944C123.106 210.592 121.88 209.12 120.851 207.53C119.846 205.935 119.025 204.283 118.388 202.576C117.771 200.841 117.317 199.138 117.026 197.467ZM127.949 196.074C128.362 198.451 129.05 200.452 130.013 202.079C130.971 203.682 132.111 204.938 133.433 205.848C134.755 206.757 136.193 207.355 137.746 207.642C139.319 207.902 140.917 207.89 142.541 207.607C144.753 207.222 146.628 206.507 148.168 205.463C149.708 204.419 150.981 203.167 151.987 201.707C152.994 200.247 153.758 198.647 154.279 196.907C154.824 195.164 155.184 193.404 155.36 191.628C155.559 189.847 155.609 188.117 155.51 186.437C155.431 184.729 155.273 183.193 155.035 181.828C154.617 179.428 153.929 177.426 152.971 175.823C152.013 174.22 150.873 172.964 149.551 172.055C148.229 171.145 146.781 170.561 145.208 170.301C143.655 170.014 142.067 170.012 140.443 170.295C138.231 170.68 136.355 171.395 134.816 172.439C133.276 173.483 132.003 174.735 130.996 176.195C129.986 177.632 129.21 179.234 128.669 181.001C128.148 182.741 127.788 184.5 127.589 186.281C127.413 188.057 127.365 189.799 127.444 191.507C127.543 193.187 127.711 194.709 127.949 196.074Z"/>
<path d="M219.326 174.05L239.108 198.682L227.178 200.759L211.319 180.282L209.06 180.675L208.893 203.944L199.045 205.659L199.247 182.384L197.517 182.685L184.149 208.253L171.23 210.503L189.273 178.993L170.701 157.133L182.631 155.056L197.474 174.292L199.345 173.966L199.468 152.123L209.387 150.396L209.087 172.269L210.746 171.98L225.236 147.636L237.802 145.447L219.326 174.05Z"/>
<path d="M266.198 151.667L266.057 151.692L259.102 175.452L272.127 173.183L266.198 151.667ZM259.687 141.636L272.359 139.429L287.961 190.174L277.265 192.036L274.536 182.001L256.251 185.186L253.051 196.253L241.544 198.257L259.687 141.636Z"/>
<path d="M292.443 135.932L310.304 132.821C313.669 132.235 316.576 132.153 319.026 132.575C321.495 132.969 323.568 133.736 325.245 134.874C326.942 135.985 328.266 137.391 329.217 139.092C330.187 140.766 330.844 142.591 331.189 144.568C331.701 147.509 331.713 150.223 331.224 152.708C330.759 155.189 329.786 157.396 328.304 159.327C326.821 161.258 324.838 162.888 322.354 164.218C319.894 165.543 316.922 166.509 313.44 167.116L303.027 168.929L302.927 187.567L292.09 189.455L292.443 135.932ZM303.124 159.675L312.761 157.997C314.479 157.697 315.908 157.206 317.05 156.522C318.192 155.838 319.081 155.029 319.718 154.094C320.379 153.154 320.806 152.122 320.998 150.998C321.186 149.85 321.175 148.676 320.966 147.475C320.798 146.511 320.523 145.625 320.14 144.819C319.776 143.985 319.257 143.3 318.582 142.763C317.902 142.202 317.047 141.818 316.017 141.609C315.01 141.397 313.789 141.415 312.353 141.665L303.246 143.251L303.124 159.675Z"/>
<path d="M82.3241 268.015L102.62 264.48C105.915 263.907 108.757 263.727 111.146 263.941C113.535 264.156 115.55 264.726 117.19 265.653C118.826 266.556 120.108 267.787 121.034 269.347C121.96 270.908 122.608 272.747 122.977 274.864C123.21 276.206 123.257 277.519 123.117 278.804C122.997 280.062 122.674 281.27 122.148 282.428C121.642 283.559 120.917 284.618 119.974 285.607C119.051 286.568 117.902 287.422 116.529 288.171C117.588 288.544 118.562 288.981 119.449 289.481C120.332 289.957 121.116 290.56 121.8 291.29C122.481 291.995 123.051 292.83 123.509 293.792C123.991 294.751 124.343 295.866 124.564 297.136C125.019 299.748 125.001 302.152 124.511 304.347C124.016 306.518 123.068 308.453 121.667 310.152C120.265 311.851 118.43 313.285 116.161 314.457C113.888 315.604 111.186 316.45 108.057 316.995L81.9714 321.538L82.3241 268.015ZM92.8348 310.409L106.142 308.091C107.789 307.804 109.135 307.315 110.178 306.625C111.222 305.934 112.031 305.15 112.606 304.274C113.18 303.398 113.543 302.487 113.693 301.539C113.843 300.592 113.847 299.706 113.703 298.882C113.511 297.776 113.158 296.868 112.647 296.157C112.131 295.422 111.487 294.856 110.714 294.457C109.965 294.054 109.099 293.817 108.117 293.745C107.135 293.674 106.079 293.737 104.949 293.933L92.9481 296.023L92.8348 310.409ZM92.9783 287.217L105.474 285.041C108.039 284.594 109.896 283.701 111.044 282.361C112.189 280.998 112.575 279.246 112.202 277.105C112.034 276.14 111.718 275.37 111.254 274.797C110.814 274.219 110.255 273.795 109.578 273.525C108.924 273.251 108.173 273.115 107.325 273.117C106.473 273.096 105.576 273.167 104.635 273.331L93.0568 275.347L92.9783 287.217Z"/>
<path d="M133.166 290.147C132.736 287.676 132.551 285.15 132.611 282.57C132.666 279.966 132.997 277.411 133.603 274.905C134.21 272.399 135.089 270.003 136.243 267.717C137.42 265.427 138.901 263.351 140.686 261.488C142.471 259.625 144.584 258.045 147.025 256.747C149.462 255.426 152.245 254.492 155.375 253.947C158.246 253.447 160.859 253.344 163.213 253.637C165.591 253.926 167.716 254.502 169.587 255.364C171.459 256.226 173.106 257.333 174.53 258.685C175.973 260.01 177.209 261.468 178.237 263.058C179.262 264.626 180.083 266.277 180.7 268.012C181.341 269.743 181.807 271.444 182.098 273.115C182.528 275.586 182.716 278.123 182.66 280.727C182.6 283.307 182.267 285.851 181.661 288.357C181.055 290.862 180.163 293.26 178.986 295.551C177.833 297.837 176.363 299.911 174.578 301.773C172.793 303.636 170.68 305.216 168.239 306.514C165.803 307.836 163.019 308.769 159.89 309.314C156.995 309.818 154.371 309.924 152.016 309.631C149.662 309.337 147.537 308.762 145.642 307.904C143.77 307.042 142.113 305.948 140.67 304.624C139.247 303.271 138.021 301.8 136.992 300.209C135.987 298.614 135.166 296.963 134.529 295.256C133.912 293.52 133.457 291.817 133.166 290.147ZM144.089 288.754C144.503 291.13 145.191 293.132 146.153 294.759C147.111 296.362 148.251 297.618 149.573 298.527C150.896 299.436 152.333 300.035 153.887 300.322C155.459 300.581 157.057 300.57 158.681 300.287C160.893 299.902 162.769 299.187 164.309 298.143C165.848 297.099 167.121 295.847 168.128 294.387C169.134 292.926 169.898 291.326 170.419 289.587C170.964 287.843 171.325 286.083 171.5 284.307C171.699 282.527 171.75 280.797 171.651 279.117C171.572 277.409 171.413 275.873 171.176 274.508C170.758 272.108 170.07 270.106 169.112 268.503C168.153 266.9 167.013 265.644 165.691 264.734C164.369 263.825 162.922 263.241 161.349 262.981C159.796 262.694 158.207 262.692 156.584 262.974C154.372 263.36 152.496 264.074 150.956 265.118C149.416 266.162 148.143 267.414 147.137 268.875C146.126 270.312 145.351 271.913 144.81 273.681C144.288 275.42 143.928 277.18 143.729 278.96C143.554 280.737 143.505 282.479 143.585 284.186C143.683 285.866 143.851 287.389 144.089 288.754Z"/>
<path d="M189.472 264.921C189.452 262.718 189.741 260.546 190.338 258.405C190.935 256.265 191.926 254.298 193.311 252.505C194.692 250.689 196.504 249.124 198.749 247.812C201.013 246.472 203.769 245.519 207.016 244.954C209.934 244.446 212.494 244.388 214.696 244.78C216.917 245.145 218.793 245.824 220.324 246.819C221.851 247.789 223.056 248.998 223.938 250.444C224.82 251.891 225.401 253.414 225.679 255.014C225.946 256.544 225.988 258.04 225.806 259.502C225.62 260.941 225.2 262.287 224.546 263.54C223.891 264.794 222.986 265.933 221.831 266.959C220.7 267.98 219.299 268.843 217.627 269.546L217.651 269.687C218.851 269.89 219.949 270.208 220.945 270.641C221.938 271.05 222.814 271.625 223.573 272.365C224.352 273.078 225.004 273.971 225.531 275.043C226.057 276.115 226.451 277.404 226.713 278.91C226.943 280.228 227.016 281.622 226.932 283.091C226.849 284.56 226.571 286.027 226.098 287.491C225.649 288.951 224.979 290.39 224.086 291.806C223.212 293.195 222.079 294.483 220.686 295.671C219.316 296.855 217.664 297.883 215.731 298.753C213.801 299.646 211.577 300.312 209.059 300.751C205.977 301.288 203.201 301.359 200.732 300.965C198.291 300.59 196.17 299.832 194.371 298.69C192.568 297.525 191.108 296.034 189.992 294.216C188.871 292.374 188.106 290.277 187.696 287.924L187.524 286.936L197.478 285.202C197.906 286.825 198.44 288.15 199.079 289.178C199.715 290.183 200.467 290.949 201.334 291.477C202.198 291.981 203.196 292.28 204.327 292.374C205.479 292.44 206.772 292.348 208.207 292.098C209.831 291.815 211.182 291.289 212.26 290.52C213.338 289.75 214.178 288.864 214.78 287.862C215.4 286.833 215.791 285.734 215.951 284.567C216.135 283.395 216.135 282.28 215.951 281.221C215.717 279.88 215.313 278.811 214.737 278.014C214.162 277.217 213.479 276.633 212.687 276.262C211.914 275.863 211.05 275.637 210.096 275.585C209.165 275.529 208.217 275.585 207.252 275.753L204.287 276.27L204.217 268.353C204.743 268.31 205.281 268.265 205.83 268.218C206.399 268.143 206.943 268.061 207.46 267.971C208.825 267.733 210.051 267.325 211.139 266.748C212.226 266.171 213.132 265.455 213.856 264.602C214.581 263.748 215.088 262.763 215.378 261.645C215.664 260.505 215.691 259.263 215.457 257.922C215.096 255.851 214.222 254.452 212.835 253.724C211.471 252.991 209.73 252.81 207.612 253.179C206.153 253.433 204.911 253.891 203.887 254.555C202.883 255.19 202.06 255.964 201.418 256.876C200.777 257.787 200.286 258.794 199.944 259.896C199.599 260.975 199.367 262.082 199.25 263.218L189.472 264.921Z"/>
<path d="M235.093 241.41L245.93 239.523L245.766 259.881L266.062 256.346L266.262 235.982L277.098 234.094L276.675 287.63L265.803 289.523L266.035 265.589L245.739 269.123L245.507 293.058L234.67 294.945L235.093 241.41Z"/>
<path d="M287.405 232.299L298.241 230.412L297.848 266.158L297.989 266.134L317.761 227.013L329.339 224.997L328.916 278.532L318.044 280.425L319.705 243.186L319.564 243.21L298.03 283.911L286.911 285.847L287.405 232.299Z"/>
<path d="M340.211 223.103L350.835 221.253L350.466 242.52L366.543 218.517L379.991 216.175L362.227 242.181L382.604 269.182L370.532 271.284L356.073 251.327L350.651 259.035L350.624 274.751L339.858 276.626L340.211 223.103Z"/>
</mask>
<path d="M66.1836 175.335L108.259 168.008L107.906 221.531L97.0342 223.424L97.3891 179.102L76.9869 182.655L76.6673 226.971L65.8309 228.859L66.1836 175.335Z" fill="url(#paint0_linear)"/>
<path d="M117.026 197.467C116.596 194.996 116.41 192.471 116.47 189.89C116.526 187.286 116.857 184.731 117.463 182.225C118.069 179.719 118.949 177.323 120.103 175.037C121.28 172.747 122.761 170.671 124.546 168.808C126.331 166.946 128.444 165.365 130.885 164.068C133.322 162.746 136.105 161.813 139.235 161.268C142.106 160.768 144.718 160.664 147.073 160.957C149.45 161.246 151.575 161.822 153.447 162.684C155.318 163.546 156.966 164.653 158.389 166.006C159.832 167.33 161.068 168.788 162.097 170.379C163.121 171.946 163.942 173.597 164.56 175.332C165.201 177.063 165.667 178.764 165.958 180.435C166.388 182.906 166.575 185.443 166.52 188.047C166.46 190.628 166.127 193.171 165.521 195.677C164.915 198.183 164.023 200.581 162.846 202.871C161.692 205.157 160.223 207.231 158.438 209.094C156.653 210.956 154.54 212.537 152.099 213.835C149.662 215.156 146.879 216.089 143.749 216.634C140.855 217.139 138.23 217.244 135.876 216.951C133.521 216.658 131.397 216.082 129.502 215.224C127.63 214.362 125.973 213.269 124.53 211.944C123.106 210.592 121.88 209.12 120.851 207.53C119.846 205.935 119.025 204.283 118.388 202.576C117.771 200.841 117.317 199.138 117.026 197.467ZM127.949 196.074C128.362 198.451 129.05 200.452 130.013 202.079C130.971 203.682 132.111 204.938 133.433 205.848C134.755 206.757 136.193 207.355 137.746 207.642C139.319 207.902 140.917 207.89 142.541 207.607C144.753 207.222 146.628 206.507 148.168 205.463C149.708 204.419 150.981 203.167 151.987 201.707C152.994 200.247 153.758 198.647 154.279 196.907C154.824 195.164 155.184 193.404 155.36 191.628C155.559 189.847 155.609 188.117 155.51 186.437C155.431 184.729 155.273 183.193 155.035 181.828C154.617 179.428 153.929 177.426 152.971 175.823C152.013 174.22 150.873 172.964 149.551 172.055C148.229 171.145 146.781 170.561 145.208 170.301C143.655 170.014 142.067 170.012 140.443 170.295C138.231 170.68 136.355 171.395 134.816 172.439C133.276 173.483 132.003 174.735 130.996 176.195C129.986 177.632 129.21 179.234 128.669 181.001C128.148 182.741 127.788 184.5 127.589 186.281C127.413 188.057 127.365 189.799 127.444 191.507C127.543 193.187 127.711 194.709 127.949 196.074Z" fill="url(#paint1_linear)"/>
<path d="M219.326 174.05L239.108 198.682L227.178 200.759L211.319 180.282L209.06 180.675L208.893 203.944L199.045 205.659L199.247 182.384L197.517 182.685L184.149 208.253L171.23 210.503L189.273 178.993L170.701 157.133L182.631 155.056L197.474 174.292L199.345 173.966L199.468 152.123L209.387 150.396L209.087 172.269L210.746 171.98L225.236 147.636L237.802 145.447L219.326 174.05Z" fill="url(#paint2_linear)"/>
<path d="M266.198 151.667L266.057 151.692L259.102 175.452L272.127 173.183L266.198 151.667ZM259.687 141.636L272.359 139.429L287.961 190.174L277.265 192.036L274.536 182.001L256.251 185.186L253.051 196.253L241.544 198.257L259.687 141.636Z" fill="url(#paint3_linear)"/>
<path d="M292.443 135.932L310.304 132.821C313.669 132.235 316.576 132.153 319.026 132.575C321.495 132.969 323.568 133.736 325.245 134.874C326.942 135.985 328.266 137.391 329.217 139.092C330.187 140.766 330.844 142.591 331.189 144.568C331.701 147.509 331.713 150.223 331.224 152.708C330.759 155.189 329.786 157.396 328.304 159.327C326.821 161.258 324.838 162.888 322.354 164.218C319.894 165.543 316.922 166.509 313.44 167.116L303.027 168.929L302.927 187.567L292.09 189.455L292.443 135.932ZM303.124 159.675L312.761 157.997C314.479 157.697 315.908 157.206 317.05 156.522C318.192 155.838 319.081 155.029 319.718 154.094C320.379 153.154 320.806 152.122 320.998 150.998C321.186 149.85 321.175 148.676 320.966 147.475C320.798 146.511 320.523 145.625 320.14 144.819C319.776 143.985 319.257 143.3 318.582 142.763C317.902 142.202 317.047 141.818 316.017 141.609C315.01 141.397 313.789 141.415 312.353 141.665L303.246 143.251L303.124 159.675Z" fill="url(#paint4_linear)"/>
<path d="M82.3241 268.015L102.62 264.48C105.915 263.907 108.757 263.727 111.146 263.941C113.535 264.156 115.55 264.726 117.19 265.653C118.826 266.556 120.108 267.787 121.034 269.347C121.96 270.908 122.608 272.747 122.977 274.864C123.21 276.206 123.257 277.519 123.117 278.804C122.997 280.062 122.674 281.27 122.148 282.428C121.642 283.559 120.917 284.618 119.974 285.607C119.051 286.568 117.902 287.422 116.529 288.171C117.588 288.544 118.562 288.981 119.449 289.481C120.332 289.957 121.116 290.56 121.8 291.29C122.481 291.995 123.051 292.83 123.509 293.792C123.991 294.751 124.343 295.866 124.564 297.136C125.019 299.748 125.001 302.152 124.511 304.347C124.016 306.518 123.068 308.453 121.667 310.152C120.265 311.851 118.43 313.285 116.161 314.457C113.888 315.604 111.186 316.45 108.057 316.995L81.9714 321.538L82.3241 268.015ZM92.8348 310.409L106.142 308.091C107.789 307.804 109.135 307.315 110.178 306.625C111.222 305.934 112.031 305.15 112.606 304.274C113.18 303.398 113.543 302.487 113.693 301.539C113.843 300.592 113.847 299.706 113.703 298.882C113.511 297.776 113.158 296.868 112.647 296.157C112.131 295.422 111.487 294.856 110.714 294.457C109.965 294.054 109.099 293.817 108.117 293.745C107.135 293.674 106.079 293.737 104.949 293.933L92.9481 296.023L92.8348 310.409ZM92.9783 287.217L105.474 285.041C108.039 284.594 109.896 283.701 111.044 282.361C112.189 280.998 112.575 279.246 112.202 277.105C112.034 276.14 111.718 275.37 111.254 274.797C110.814 274.219 110.255 273.795 109.578 273.525C108.924 273.251 108.173 273.115 107.325 273.117C106.473 273.096 105.576 273.167 104.635 273.331L93.0568 275.347L92.9783 287.217Z" fill="url(#paint5_linear)"/>
<path d="M133.166 290.147C132.736 287.676 132.551 285.15 132.611 282.57C132.666 279.966 132.997 277.411 133.603 274.905C134.21 272.399 135.089 270.003 136.243 267.717C137.42 265.427 138.901 263.351 140.686 261.488C142.471 259.625 144.584 258.045 147.025 256.747C149.462 255.426 152.245 254.492 155.375 253.947C158.246 253.447 160.859 253.344 163.213 253.637C165.591 253.926 167.716 254.502 169.587 255.364C171.459 256.226 173.106 257.333 174.53 258.685C175.973 260.01 177.209 261.468 178.237 263.058C179.262 264.626 180.083 266.277 180.7 268.012C181.341 269.743 181.807 271.444 182.098 273.115C182.528 275.586 182.716 278.123 182.66 280.727C182.6 283.307 182.267 285.851 181.661 288.357C181.055 290.862 180.163 293.26 178.986 295.551C177.833 297.837 176.363 299.911 174.578 301.773C172.793 303.636 170.68 305.216 168.239 306.514C165.803 307.836 163.019 308.769 159.89 309.314C156.995 309.818 154.371 309.924 152.016 309.631C149.662 309.337 147.537 308.762 145.642 307.904C143.77 307.042 142.113 305.948 140.67 304.624C139.247 303.271 138.021 301.8 136.992 300.209C135.987 298.614 135.166 296.963 134.529 295.256C133.912 293.52 133.457 291.817 133.166 290.147ZM144.089 288.754C144.503 291.13 145.191 293.132 146.153 294.759C147.111 296.362 148.251 297.618 149.573 298.527C150.896 299.436 152.333 300.035 153.887 300.322C155.459 300.581 157.057 300.57 158.681 300.287C160.893 299.902 162.769 299.187 164.309 298.143C165.848 297.099 167.121 295.847 168.128 294.387C169.134 292.926 169.898 291.326 170.419 289.587C170.964 287.843 171.325 286.083 171.5 284.307C171.699 282.527 171.75 280.797 171.651 279.117C171.572 277.409 171.413 275.873 171.176 274.508C170.758 272.108 170.07 270.106 169.112 268.503C168.153 266.9 167.013 265.644 165.691 264.734C164.369 263.825 162.922 263.241 161.349 262.981C159.796 262.694 158.207 262.692 156.584 262.974C154.372 263.36 152.496 264.074 150.956 265.118C149.416 266.162 148.143 267.414 147.137 268.875C146.126 270.312 145.351 271.913 144.81 273.681C144.288 275.42 143.928 277.18 143.729 278.96C143.554 280.737 143.505 282.479 143.585 284.186C143.683 285.866 143.851 287.389 144.089 288.754Z" fill="url(#paint6_linear)"/>
<path d="M189.472 264.921C189.452 262.718 189.741 260.546 190.338 258.405C190.935 256.265 191.926 254.298 193.311 252.505C194.692 250.689 196.504 249.124 198.749 247.812C201.013 246.472 203.769 245.519 207.016 244.954C209.934 244.446 212.494 244.388 214.696 244.78C216.917 245.145 218.793 245.824 220.324 246.819C221.851 247.789 223.056 248.998 223.938 250.444C224.82 251.891 225.401 253.414 225.679 255.014C225.946 256.544 225.988 258.04 225.806 259.502C225.62 260.941 225.2 262.287 224.546 263.54C223.891 264.794 222.986 265.933 221.831 266.959C220.7 267.98 219.299 268.843 217.627 269.546L217.651 269.687C218.851 269.89 219.949 270.208 220.945 270.641C221.938 271.05 222.814 271.625 223.573 272.365C224.352 273.078 225.004 273.971 225.531 275.043C226.057 276.115 226.451 277.404 226.713 278.91C226.943 280.228 227.016 281.622 226.932 283.091C226.849 284.56 226.571 286.027 226.098 287.491C225.649 288.951 224.979 290.39 224.086 291.806C223.212 293.195 222.079 294.483 220.686 295.671C219.316 296.855 217.664 297.883 215.731 298.753C213.801 299.646 211.577 300.312 209.059 300.751C205.977 301.288 203.201 301.359 200.732 300.965C198.291 300.59 196.17 299.832 194.371 298.69C192.568 297.525 191.108 296.034 189.992 294.216C188.871 292.374 188.106 290.277 187.696 287.924L187.524 286.936L197.478 285.202C197.906 286.825 198.44 288.15 199.079 289.178C199.715 290.183 200.467 290.949 201.334 291.477C202.198 291.981 203.196 292.28 204.327 292.374C205.479 292.44 206.772 292.348 208.207 292.098C209.831 291.815 211.182 291.289 212.26 290.52C213.338 289.75 214.178 288.864 214.78 287.862C215.4 286.833 215.791 285.734 215.951 284.567C216.135 283.395 216.135 282.28 215.951 281.221C215.717 279.88 215.313 278.811 214.737 278.014C214.162 277.217 213.479 276.633 212.687 276.262C211.914 275.863 211.05 275.637 210.096 275.585C209.165 275.529 208.217 275.585 207.252 275.753L204.287 276.27L204.217 268.353C204.743 268.31 205.281 268.265 205.83 268.218C206.399 268.143 206.943 268.061 207.46 267.971C208.825 267.733 210.051 267.325 211.139 266.748C212.226 266.171 213.132 265.455 213.856 264.602C214.581 263.748 215.088 262.763 215.378 261.645C215.664 260.505 215.691 259.263 215.457 257.922C215.096 255.851 214.222 254.452 212.835 253.724C211.471 252.991 209.73 252.81 207.612 253.179C206.153 253.433 204.911 253.891 203.887 254.555C202.883 255.19 202.06 255.964 201.418 256.876C200.777 257.787 200.286 258.794 199.944 259.896C199.599 260.975 199.367 262.082 199.25 263.218L189.472 264.921Z" fill="url(#paint7_linear)"/>
<path d="M235.093 241.41L245.93 239.523L245.766 259.881L266.062 256.346L266.262 235.982L277.098 234.094L276.675 287.63L265.803 289.523L266.035 265.589L245.739 269.123L245.507 293.058L234.67 294.945L235.093 241.41Z" fill="url(#paint8_linear)"/>
<path d="M287.405 232.299L298.241 230.412L297.848 266.158L297.989 266.134L317.761 227.013L329.339 224.997L328.916 278.532L318.044 280.425L319.705 243.186L319.564 243.21L298.03 283.911L286.911 285.847L287.405 232.299Z" fill="url(#paint9_linear)"/>
<path d="M340.211 223.103L350.835 221.253L350.466 242.52L366.543 218.517L379.991 216.175L362.227 242.181L382.604 269.182L370.532 271.284L356.073 251.327L350.651 259.035L350.624 274.751L339.858 276.626L340.211 223.103Z" fill="url(#paint10_linear)"/>
<path d="M66.1836 175.335L108.259 168.008L107.906 221.531L97.0342 223.424L97.3891 179.102L76.9869 182.655L76.6673 226.971L65.8309 228.859L66.1836 175.335Z" stroke="black" stroke-width="4" mask="url(#path-3-outside-1)"/>
<path d="M117.026 197.467C116.596 194.996 116.41 192.471 116.47 189.89C116.526 187.286 116.857 184.731 117.463 182.225C118.069 179.719 118.949 177.323 120.103 175.037C121.28 172.747 122.761 170.671 124.546 168.808C126.331 166.946 128.444 165.365 130.885 164.068C133.322 162.746 136.105 161.813 139.235 161.268C142.106 160.768 144.718 160.664 147.073 160.957C149.45 161.246 151.575 161.822 153.447 162.684C155.318 163.546 156.966 164.653 158.389 166.006C159.832 167.33 161.068 168.788 162.097 170.379C163.121 171.946 163.942 173.597 164.56 175.332C165.201 177.063 165.667 178.764 165.958 180.435C166.388 182.906 166.575 185.443 166.52 188.047C166.46 190.628 166.127 193.171 165.521 195.677C164.915 198.183 164.023 200.581 162.846 202.871C161.692 205.157 160.223 207.231 158.438 209.094C156.653 210.956 154.54 212.537 152.099 213.835C149.662 215.156 146.879 216.089 143.749 216.634C140.855 217.139 138.23 217.244 135.876 216.951C133.521 216.658 131.397 216.082 129.502 215.224C127.63 214.362 125.973 213.269 124.53 211.944C123.106 210.592 121.88 209.12 120.851 207.53C119.846 205.935 119.025 204.283 118.388 202.576C117.771 200.841 117.317 199.138 117.026 197.467ZM127.949 196.074C128.362 198.451 129.05 200.452 130.013 202.079C130.971 203.682 132.111 204.938 133.433 205.848C134.755 206.757 136.193 207.355 137.746 207.642C139.319 207.902 140.917 207.89 142.541 207.607C144.753 207.222 146.628 206.507 148.168 205.463C149.708 204.419 150.981 203.167 151.987 201.707C152.994 200.247 153.758 198.647 154.279 196.907C154.824 195.164 155.184 193.404 155.36 191.628C155.559 189.847 155.609 188.117 155.51 186.437C155.431 184.729 155.273 183.193 155.035 181.828C154.617 179.428 153.929 177.426 152.971 175.823C152.013 174.22 150.873 172.964 149.551 172.055C148.229 171.145 146.781 170.561 145.208 170.301C143.655 170.014 142.067 170.012 140.443 170.295C138.231 170.68 136.355 171.395 134.816 172.439C133.276 173.483 132.003 174.735 130.996 176.195C129.986 177.632 129.21 179.234 128.669 181.001C128.148 182.741 127.788 184.5 127.589 186.281C127.413 188.057 127.365 189.799 127.444 191.507C127.543 193.187 127.711 194.709 127.949 196.074Z" stroke="black" stroke-width="4" mask="url(#path-3-outside-1)"/>
<path d="M219.326 174.05L239.108 198.682L227.178 200.759L211.319 180.282L209.06 180.675L208.893 203.944L199.045 205.659L199.247 182.384L197.517 182.685L184.149 208.253L171.23 210.503L189.273 178.993L170.701 157.133L182.631 155.056L197.474 174.292L199.345 173.966L199.468 152.123L209.387 150.396L209.087 172.269L210.746 171.98L225.236 147.636L237.802 145.447L219.326 174.05Z" stroke="black" stroke-width="4" mask="url(#path-3-outside-1)"/>
<path d="M266.198 151.667L266.057 151.692L259.102 175.452L272.127 173.183L266.198 151.667ZM259.687 141.636L272.359 139.429L287.961 190.174L277.265 192.036L274.536 182.001L256.251 185.186L253.051 196.253L241.544 198.257L259.687 141.636Z" stroke="black" stroke-width="4" mask="url(#path-3-outside-1)"/>
<path d="M292.443 135.932L310.304 132.821C313.669 132.235 316.576 132.153 319.026 132.575C321.495 132.969 323.568 133.736 325.245 134.874C326.942 135.985 328.266 137.391 329.217 139.092C330.187 140.766 330.844 142.591 331.189 144.568C331.701 147.509 331.713 150.223 331.224 152.708C330.759 155.189 329.786 157.396 328.304 159.327C326.821 161.258 324.838 162.888 322.354 164.218C319.894 165.543 316.922 166.509 313.44 167.116L303.027 168.929L302.927 187.567L292.09 189.455L292.443 135.932ZM303.124 159.675L312.761 157.997C314.479 157.697 315.908 157.206 317.05 156.522C318.192 155.838 319.081 155.029 319.718 154.094C320.379 153.154 320.806 152.122 320.998 150.998C321.186 149.85 321.175 148.676 320.966 147.475C320.798 146.511 320.523 145.625 320.14 144.819C319.776 143.985 319.257 143.3 318.582 142.763C317.902 142.202 317.047 141.818 316.017 141.609C315.01 141.397 313.789 141.415 312.353 141.665L303.246 143.251L303.124 159.675Z" stroke="black" stroke-width="4" mask="url(#path-3-outside-1)"/>
<path d="M82.3241 268.015L102.62 264.48C105.915 263.907 108.757 263.727 111.146 263.941C113.535 264.156 115.55 264.726 117.19 265.653C118.826 266.556 120.108 267.787 121.034 269.347C121.96 270.908 122.608 272.747 122.977 274.864C123.21 276.206 123.257 277.519 123.117 278.804C122.997 280.062 122.674 281.27 122.148 282.428C121.642 283.559 120.917 284.618 119.974 285.607C119.051 286.568 117.902 287.422 116.529 288.171C117.588 288.544 118.562 288.981 119.449 289.481C120.332 289.957 121.116 290.56 121.8 291.29C122.481 291.995 123.051 292.83 123.509 293.792C123.991 294.751 124.343 295.866 124.564 297.136C125.019 299.748 125.001 302.152 124.511 304.347C124.016 306.518 123.068 308.453 121.667 310.152C120.265 311.851 118.43 313.285 116.161 314.457C113.888 315.604 111.186 316.45 108.057 316.995L81.9714 321.538L82.3241 268.015ZM92.8348 310.409L106.142 308.091C107.789 307.804 109.135 307.315 110.178 306.625C111.222 305.934 112.031 305.15 112.606 304.274C113.18 303.398 113.543 302.487 113.693 301.539C113.843 300.592 113.847 299.706 113.703 298.882C113.511 297.776 113.158 296.868 112.647 296.157C112.131 295.422 111.487 294.856 110.714 294.457C109.965 294.054 109.099 293.817 108.117 293.745C107.135 293.674 106.079 293.737 104.949 293.933L92.9481 296.023L92.8348 310.409ZM92.9783 287.217L105.474 285.041C108.039 284.594 109.896 283.701 111.044 282.361C112.189 280.998 112.575 279.246 112.202 277.105C112.034 276.14 111.718 275.37 111.254 274.797C110.814 274.219 110.255 273.795 109.578 273.525C108.924 273.251 108.173 273.115 107.325 273.117C106.473 273.096 105.576 273.167 104.635 273.331L93.0568 275.347L92.9783 287.217Z" stroke="black" stroke-width="4" mask="url(#path-3-outside-1)"/>
<path d="M133.166 290.147C132.736 287.676 132.551 285.15 132.611 282.57C132.666 279.966 132.997 277.411 133.603 274.905C134.21 272.399 135.089 270.003 136.243 267.717C137.42 265.427 138.901 263.351 140.686 261.488C142.471 259.625 144.584 258.045 147.025 256.747C149.462 255.426 152.245 254.492 155.375 253.947C158.246 253.447 160.859 253.344 163.213 253.637C165.591 253.926 167.716 254.502 169.587 255.364C171.459 256.226 173.106 257.333 174.53 258.685C175.973 260.01 177.209 261.468 178.237 263.058C179.262 264.626 180.083 266.277 180.7 268.012C181.341 269.743 181.807 271.444 182.098 273.115C182.528 275.586 182.716 278.123 182.66 280.727C182.6 283.307 182.267 285.851 181.661 288.357C181.055 290.862 180.163 293.26 178.986 295.551C177.833 297.837 176.363 299.911 174.578 301.773C172.793 303.636 170.68 305.216 168.239 306.514C165.803 307.836 163.019 308.769 159.89 309.314C156.995 309.818 154.371 309.924 152.016 309.631C149.662 309.337 147.537 308.762 145.642 307.904C143.77 307.042 142.113 305.948 140.67 304.624C139.247 303.271 138.021 301.8 136.992 300.209C135.987 298.614 135.166 296.963 134.529 295.256C133.912 293.52 133.457 291.817 133.166 290.147ZM144.089 288.754C144.503 291.13 145.191 293.132 146.153 294.759C147.111 296.362 148.251 297.618 149.573 298.527C150.896 299.436 152.333 300.035 153.887 300.322C155.459 300.581 157.057 300.57 158.681 300.287C160.893 299.902 162.769 299.187 164.309 298.143C165.848 297.099 167.121 295.847 168.128 294.387C169.134 292.926 169.898 291.326 170.419 289.587C170.964 287.843 171.325 286.083 171.5 284.307C171.699 282.527 171.75 280.797 171.651 279.117C171.572 277.409 171.413 275.873 171.176 274.508C170.758 272.108 170.07 270.106 169.112 268.503C168.153 266.9 167.013 265.644 165.691 264.734C164.369 263.825 162.922 263.241 161.349 262.981C159.796 262.694 158.207 262.692 156.584 262.974C154.372 263.36 152.496 264.074 150.956 265.118C149.416 266.162 148.143 267.414 147.137 268.875C146.126 270.312 145.351 271.913 144.81 273.681C144.288 275.42 143.928 277.18 143.729 278.96C143.554 280.737 143.505 282.479 143.585 284.186C143.683 285.866 143.851 287.389 144.089 288.754Z" stroke="black" stroke-width="4" mask="url(#path-3-outside-1)"/>
<path d="M189.472 264.921C189.452 262.718 189.741 260.546 190.338 258.405C190.935 256.265 191.926 254.298 193.311 252.505C194.692 250.689 196.504 249.124 198.749 247.812C201.013 246.472 203.769 245.519 207.016 244.954C209.934 244.446 212.494 244.388 214.696 244.78C216.917 245.145 218.793 245.824 220.324 246.819C221.851 247.789 223.056 248.998 223.938 250.444C224.82 251.891 225.401 253.414 225.679 255.014C225.946 256.544 225.988 258.04 225.806 259.502C225.62 260.941 225.2 262.287 224.546 263.54C223.891 264.794 222.986 265.933 221.831 266.959C220.7 267.98 219.299 268.843 217.627 269.546L217.651 269.687C218.851 269.89 219.949 270.208 220.945 270.641C221.938 271.05 222.814 271.625 223.573 272.365C224.352 273.078 225.004 273.971 225.531 275.043C226.057 276.115 226.451 277.404 226.713 278.91C226.943 280.228 227.016 281.622 226.932 283.091C226.849 284.56 226.571 286.027 226.098 287.491C225.649 288.951 224.979 290.39 224.086 291.806C223.212 293.195 222.079 294.483 220.686 295.671C219.316 296.855 217.664 297.883 215.731 298.753C213.801 299.646 211.577 300.312 209.059 300.751C205.977 301.288 203.201 301.359 200.732 300.965C198.291 300.59 196.17 299.832 194.371 298.69C192.568 297.525 191.108 296.034 189.992 294.216C188.871 292.374 188.106 290.277 187.696 287.924L187.524 286.936L197.478 285.202C197.906 286.825 198.44 288.15 199.079 289.178C199.715 290.183 200.467 290.949 201.334 291.477C202.198 291.981 203.196 292.28 204.327 292.374C205.479 292.44 206.772 292.348 208.207 292.098C209.831 291.815 211.182 291.289 212.26 290.52C213.338 289.75 214.178 288.864 214.78 287.862C215.4 286.833 215.791 285.734 215.951 284.567C216.135 283.395 216.135 282.28 215.951 281.221C215.717 279.88 215.313 278.811 214.737 278.014C214.162 277.217 213.479 276.633 212.687 276.262C211.914 275.863 211.05 275.637 210.096 275.585C209.165 275.529 208.217 275.585 207.252 275.753L204.287 276.27L204.217 268.353C204.743 268.31 205.281 268.265 205.83 268.218C206.399 268.143 206.943 268.061 207.46 267.971C208.825 267.733 210.051 267.325 211.139 266.748C212.226 266.171 213.132 265.455 213.856 264.602C214.581 263.748 215.088 262.763 215.378 261.645C215.664 260.505 215.691 259.263 215.457 257.922C215.096 255.851 214.222 254.452 212.835 253.724C211.471 252.991 209.73 252.81 207.612 253.179C206.153 253.433 204.911 253.891 203.887 254.555C202.883 255.19 202.06 255.964 201.418 256.876C200.777 257.787 200.286 258.794 199.944 259.896C199.599 260.975 199.367 262.082 199.25 263.218L189.472 264.921Z" stroke="black" stroke-width="4" mask="url(#path-3-outside-1)"/>
<path d="M235.093 241.41L245.93 239.523L245.766 259.881L266.062 256.346L266.262 235.982L277.098 234.094L276.675 287.63L265.803 289.523L266.035 265.589L245.739 269.123L245.507 293.058L234.67 294.945L235.093 241.41Z" stroke="black" stroke-width="4" mask="url(#path-3-outside-1)"/>
<path d="M287.405 232.299L298.241 230.412L297.848 266.158L297.989 266.134L317.761 227.013L329.339 224.997L328.916 278.532L318.044 280.425L319.705 243.186L319.564 243.21L298.03 283.911L286.911 285.847L287.405 232.299Z" stroke="black" stroke-width="4" mask="url(#path-3-outside-1)"/>
<path d="M340.211 223.103L350.835 221.253L350.466 242.52L366.543 218.517L379.991 216.175L362.227 242.181L382.604 269.182L370.532 271.284L356.073 251.327L350.651 259.035L350.624 274.751L339.858 276.626L340.211 223.103Z" stroke="black" stroke-width="4" mask="url(#path-3-outside-1)"/>
<rect x="68.3044" y="350.41" width="322.069" height="91.6451" transform="rotate(-9.53138 68.3044 350.41)" fill="white"/>
<mask id="path-5-outside-2" maskUnits="userSpaceOnUse" x="78.2108" y="284.263" width="293.111" height="167.072" fill="black">
<rect fill="white" x="78.2108" y="284.263" width="293.111" height="167.072"/>
<path d="M97.2715 362.563L108.108 360.676L107.714 396.422L107.855 396.397L127.628 357.276L139.205 355.26L138.782 408.795L127.91 410.689L129.571 373.449L129.43 373.474L107.896 414.174L96.7776 416.111L97.2715 362.563Z"/>
<path d="M148.014 369.292C147.994 367.089 148.282 364.917 148.879 362.776C149.476 360.636 150.467 358.669 151.852 356.876C153.233 355.06 155.046 353.495 157.29 352.183C159.554 350.843 162.31 349.891 165.557 349.325C168.475 348.817 171.035 348.759 173.237 349.151C175.459 349.516 177.335 350.196 178.866 351.19C180.392 352.16 181.597 353.369 182.479 354.815C183.362 356.262 183.942 357.785 184.221 359.386C184.487 360.915 184.529 362.411 184.348 363.873C184.162 365.312 183.742 366.658 183.087 367.911C182.432 369.165 181.528 370.304 180.373 371.33C179.241 372.351 177.84 373.214 176.168 373.917L176.193 374.058C177.392 374.261 178.49 374.579 179.487 375.012C180.479 375.421 181.355 375.996 182.114 376.736C182.893 377.449 183.546 378.342 184.072 379.414C184.598 380.486 184.992 381.775 185.255 383.281C185.484 384.599 185.557 385.993 185.474 387.462C185.39 388.931 185.112 390.398 184.64 391.862C184.191 393.323 183.52 394.761 182.627 396.177C181.754 397.566 180.62 398.854 179.227 400.042C177.857 401.226 176.206 402.254 174.272 403.124C172.342 404.017 170.119 404.684 167.601 405.122C164.518 405.659 161.742 405.73 159.273 405.336C156.832 404.961 154.712 404.203 152.913 403.061C151.11 401.896 149.65 400.405 148.533 398.587C147.412 396.745 146.647 394.648 146.237 392.295L146.065 391.307L156.019 389.573C156.447 391.196 156.981 392.521 157.621 393.549C158.256 394.554 159.008 395.32 159.876 395.848C160.739 396.352 161.737 396.651 162.869 396.745C164.02 396.811 165.313 396.719 166.749 396.469C168.372 396.187 169.723 395.66 170.801 394.891C171.88 394.121 172.72 393.235 173.321 392.233C173.942 391.204 174.332 390.105 174.493 388.938C174.677 387.766 174.676 386.651 174.492 385.592C174.258 384.251 173.854 383.182 173.279 382.385C172.703 381.588 172.02 381.004 171.228 380.633C170.455 380.234 169.592 380.008 168.637 379.956C167.706 379.9 166.758 379.956 165.793 380.124L162.828 380.641L162.759 372.725C163.285 372.681 163.822 372.636 164.372 372.589C164.941 372.514 165.484 372.432 166.002 372.342C167.366 372.104 168.593 371.696 169.68 371.119C170.768 370.542 171.673 369.826 172.398 368.973C173.122 368.119 173.629 367.134 173.919 366.017C174.206 364.876 174.232 363.635 173.998 362.293C173.638 360.222 172.764 358.823 171.376 358.095C170.012 357.362 168.271 357.181 166.153 357.55C164.694 357.804 163.453 358.262 162.429 358.926C161.424 359.561 160.601 360.335 159.96 361.247C159.318 362.159 158.827 363.165 158.486 364.267C158.14 365.346 157.909 366.453 157.791 367.589L148.014 369.292Z"/>
<path d="M194.731 373.375L214.992 369.847L214.604 379.734L194.343 383.262L194.731 373.375Z"/>
<path d="M216.28 357.403C216.26 355.2 216.548 353.028 217.145 350.888C217.742 348.747 218.733 346.78 220.118 344.987C221.499 343.171 223.312 341.607 225.556 340.294C227.82 338.954 230.576 338.002 233.823 337.436C236.741 336.928 239.301 336.87 241.503 337.263C243.725 337.627 245.601 338.307 247.132 339.301C248.659 340.272 249.863 341.48 250.745 342.927C251.628 344.373 252.208 345.897 252.487 347.497C252.753 349.026 252.796 350.522 252.614 351.984C252.428 353.423 252.008 354.769 251.353 356.023C250.699 357.276 249.794 358.416 248.639 359.441C247.508 360.462 246.106 361.325 244.434 362.028L244.459 362.169C245.658 362.373 246.756 362.691 247.753 363.123C248.745 363.532 249.621 364.107 250.381 364.848C251.159 365.561 251.812 366.453 252.338 367.525C252.864 368.597 253.258 369.887 253.521 371.393C253.75 372.71 253.823 374.104 253.74 375.573C253.656 377.043 253.378 378.509 252.906 379.974C252.457 381.434 251.786 382.872 250.893 384.288C250.02 385.677 248.886 386.965 247.493 388.154C246.123 389.338 244.472 390.365 242.538 391.235C240.609 392.129 238.385 392.795 235.867 393.233C232.784 393.77 230.008 393.841 227.539 393.447C225.098 393.072 222.978 392.314 221.179 391.172C219.376 390.007 217.916 388.516 216.799 386.698C215.678 384.857 214.913 382.759 214.503 380.406L214.331 379.418L224.285 377.684C224.713 379.307 225.247 380.632 225.887 381.66C226.522 382.665 227.274 383.431 228.142 383.959C229.006 384.463 230.003 384.762 231.135 384.856C232.286 384.922 233.579 384.83 235.015 384.58C236.638 384.298 237.989 383.771 239.068 383.002C240.146 382.232 240.986 381.346 241.587 380.345C242.208 379.315 242.598 378.217 242.759 377.049C242.943 375.878 242.942 374.762 242.758 373.703C242.524 372.362 242.12 371.293 241.545 370.496C240.97 369.699 240.286 369.115 239.494 368.744C238.721 368.345 237.858 368.12 236.903 368.068C235.972 368.012 235.024 368.068 234.059 368.236L231.094 368.752L231.025 360.836C231.551 360.793 232.088 360.747 232.638 360.7C233.207 360.625 233.75 360.543 234.268 360.453C235.633 360.215 236.859 359.808 237.946 359.23C239.034 358.653 239.94 357.938 240.664 357.084C241.388 356.231 241.895 355.245 242.186 354.128C242.472 352.987 242.498 351.746 242.265 350.404C241.904 348.334 241.03 346.934 239.642 346.206C238.278 345.474 236.537 345.292 234.419 345.661C232.96 345.915 231.719 346.374 230.695 347.037C229.69 347.672 228.867 348.446 228.226 349.358C227.585 350.27 227.093 351.277 226.752 352.379C226.406 353.457 226.175 354.564 226.057 355.7L216.28 357.403Z"/>
<path d="M283.802 341.243L283.661 341.268L276.706 365.027L289.731 362.759L283.802 341.243ZM277.291 331.212L289.963 329.005L305.565 379.749L294.869 381.612L292.14 371.577L273.855 374.761L270.655 385.829L259.148 387.833L277.291 331.212Z"/>
<path d="M313.51 367.528L324.206 365.665L323.814 376.571L313.118 378.434L313.51 367.528Z"/>
<path d="M333.63 364.024L344.325 362.161L343.933 373.067L333.238 374.93L333.63 364.024Z"/>
<path d="M353.75 360.52L364.445 358.657L364.053 369.563L353.358 371.426L353.75 360.52Z"/>
</mask>
<path d="M97.2715 362.563L108.108 360.676L107.714 396.422L107.855 396.397L127.628 357.276L139.205 355.26L138.782 408.795L127.91 410.689L129.571 373.449L129.43 373.474L107.896 414.174L96.7776 416.111L97.2715 362.563Z" fill="url(#paint11_linear)"/>
<path d="M148.014 369.292C147.994 367.089 148.282 364.917 148.879 362.776C149.476 360.636 150.467 358.669 151.852 356.876C153.233 355.06 155.046 353.495 157.29 352.183C159.554 350.843 162.31 349.891 165.557 349.325C168.475 348.817 171.035 348.759 173.237 349.151C175.459 349.516 177.335 350.196 178.866 351.19C180.392 352.16 181.597 353.369 182.479 354.815C183.362 356.262 183.942 357.785 184.221 359.386C184.487 360.915 184.529 362.411 184.348 363.873C184.162 365.312 183.742 366.658 183.087 367.911C182.432 369.165 181.528 370.304 180.373 371.33C179.241 372.351 177.84 373.214 176.168 373.917L176.193 374.058C177.392 374.261 178.49 374.579 179.487 375.012C180.479 375.421 181.355 375.996 182.114 376.736C182.893 377.449 183.546 378.342 184.072 379.414C184.598 380.486 184.992 381.775 185.255 383.281C185.484 384.599 185.557 385.993 185.474 387.462C185.39 388.931 185.112 390.398 184.64 391.862C184.191 393.323 183.52 394.761 182.627 396.177C181.754 397.566 180.62 398.854 179.227 400.042C177.857 401.226 176.206 402.254 174.272 403.124C172.342 404.017 170.119 404.684 167.601 405.122C164.518 405.659 161.742 405.73 159.273 405.336C156.832 404.961 154.712 404.203 152.913 403.061C151.11 401.896 149.65 400.405 148.533 398.587C147.412 396.745 146.647 394.648 146.237 392.295L146.065 391.307L156.019 389.573C156.447 391.196 156.981 392.521 157.621 393.549C158.256 394.554 159.008 395.32 159.876 395.848C160.739 396.352 161.737 396.651 162.869 396.745C164.02 396.811 165.313 396.719 166.749 396.469C168.372 396.187 169.723 395.66 170.801 394.891C171.88 394.121 172.72 393.235 173.321 392.233C173.942 391.204 174.332 390.105 174.493 388.938C174.677 387.766 174.676 386.651 174.492 385.592C174.258 384.251 173.854 383.182 173.279 382.385C172.703 381.588 172.02 381.004 171.228 380.633C170.455 380.234 169.592 380.008 168.637 379.956C167.706 379.9 166.758 379.956 165.793 380.124L162.828 380.641L162.759 372.725C163.285 372.681 163.822 372.636 164.372 372.589C164.941 372.514 165.484 372.432 166.002 372.342C167.366 372.104 168.593 371.696 169.68 371.119C170.768 370.542 171.673 369.826 172.398 368.973C173.122 368.119 173.629 367.134 173.919 366.017C174.206 364.876 174.232 363.635 173.998 362.293C173.638 360.222 172.764 358.823 171.376 358.095C170.012 357.362 168.271 357.181 166.153 357.55C164.694 357.804 163.453 358.262 162.429 358.926C161.424 359.561 160.601 360.335 159.96 361.247C159.318 362.159 158.827 363.165 158.486 364.267C158.14 365.346 157.909 366.453 157.791 367.589L148.014 369.292Z" fill="url(#paint12_linear)"/>
<path d="M194.731 373.375L214.992 369.847L214.604 379.734L194.343 383.262L194.731 373.375Z" fill="url(#paint13_linear)"/>
<path d="M216.28 357.403C216.26 355.2 216.548 353.028 217.145 350.888C217.742 348.747 218.733 346.78 220.118 344.987C221.499 343.171 223.312 341.607 225.556 340.294C227.82 338.954 230.576 338.002 233.823 337.436C236.741 336.928 239.301 336.87 241.503 337.263C243.725 337.627 245.601 338.307 247.132 339.301C248.659 340.272 249.863 341.48 250.745 342.927C251.628 344.373 252.208 345.897 252.487 347.497C252.753 349.026 252.796 350.522 252.614 351.984C252.428 353.423 252.008 354.769 251.353 356.023C250.699 357.276 249.794 358.416 248.639 359.441C247.508 360.462 246.106 361.325 244.434 362.028L244.459 362.169C245.658 362.373 246.756 362.691 247.753 363.123C248.745 363.532 249.621 364.107 250.381 364.848C251.159 365.561 251.812 366.453 252.338 367.525C252.864 368.597 253.258 369.887 253.521 371.393C253.75 372.71 253.823 374.104 253.74 375.573C253.656 377.043 253.378 378.509 252.906 379.974C252.457 381.434 251.786 382.872 250.893 384.288C250.02 385.677 248.886 386.965 247.493 388.154C246.123 389.338 244.472 390.365 242.538 391.235C240.609 392.129 238.385 392.795 235.867 393.233C232.784 393.77 230.008 393.841 227.539 393.447C225.098 393.072 222.978 392.314 221.179 391.172C219.376 390.007 217.916 388.516 216.799 386.698C215.678 384.857 214.913 382.759 214.503 380.406L214.331 379.418L224.285 377.684C224.713 379.307 225.247 380.632 225.887 381.66C226.522 382.665 227.274 383.431 228.142 383.959C229.006 384.463 230.003 384.762 231.135 384.856C232.286 384.922 233.579 384.83 235.015 384.58C236.638 384.298 237.989 383.771 239.068 383.002C240.146 382.232 240.986 381.346 241.587 380.345C242.208 379.315 242.598 378.217 242.759 377.049C242.943 375.878 242.942 374.762 242.758 373.703C242.524 372.362 242.12 371.293 241.545 370.496C240.97 369.699 240.286 369.115 239.494 368.744C238.721 368.345 237.858 368.12 236.903 368.068C235.972 368.012 235.024 368.068 234.059 368.236L231.094 368.752L231.025 360.836C231.551 360.793 232.088 360.747 232.638 360.7C233.207 360.625 233.75 360.543 234.268 360.453C235.633 360.215 236.859 359.808 237.946 359.23C239.034 358.653 239.94 357.938 240.664 357.084C241.388 356.231 241.895 355.245 242.186 354.128C242.472 352.987 242.498 351.746 242.265 350.404C241.904 348.334 241.03 346.934 239.642 346.206C238.278 345.474 236.537 345.292 234.419 345.661C232.96 345.915 231.719 346.374 230.695 347.037C229.69 347.672 228.867 348.446 228.226 349.358C227.585 350.27 227.093 351.277 226.752 352.379C226.406 353.457 226.175 354.564 226.057 355.7L216.28 357.403Z" fill="url(#paint14_linear)"/>
<path d="M283.802 341.243L283.661 341.268L276.706 365.027L289.731 362.759L283.802 341.243ZM277.291 331.212L289.963 329.005L305.565 379.749L294.869 381.612L292.14 371.577L273.855 374.761L270.655 385.829L259.148 387.833L277.291 331.212Z" fill="url(#paint15_linear)"/>
<path d="M313.51 367.528L324.206 365.665L323.814 376.571L313.118 378.434L313.51 367.528Z" fill="url(#paint16_linear)"/>
<path d="M333.63 364.024L344.325 362.161L343.933 373.067L333.238 374.93L333.63 364.024Z" fill="url(#paint17_linear)"/>
<path d="M353.75 360.52L364.445 358.657L364.053 369.563L353.358 371.426L353.75 360.52Z" fill="url(#paint18_linear)"/>
<path d="M97.2715 362.563L108.108 360.676L107.714 396.422L107.855 396.397L127.628 357.276L139.205 355.26L138.782 408.795L127.91 410.689L129.571 373.449L129.43 373.474L107.896 414.174L96.7776 416.111L97.2715 362.563Z" stroke="black" stroke-width="4" mask="url(#path-5-outside-2)"/>
<path d="M148.014 369.292C147.994 367.089 148.282 364.917 148.879 362.776C149.476 360.636 150.467 358.669 151.852 356.876C153.233 355.06 155.046 353.495 157.29 352.183C159.554 350.843 162.31 349.891 165.557 349.325C168.475 348.817 171.035 348.759 173.237 349.151C175.459 349.516 177.335 350.196 178.866 351.19C180.392 352.16 181.597 353.369 182.479 354.815C183.362 356.262 183.942 357.785 184.221 359.386C184.487 360.915 184.529 362.411 184.348 363.873C184.162 365.312 183.742 366.658 183.087 367.911C182.432 369.165 181.528 370.304 180.373 371.33C179.241 372.351 177.84 373.214 176.168 373.917L176.193 374.058C177.392 374.261 178.49 374.579 179.487 375.012C180.479 375.421 181.355 375.996 182.114 376.736C182.893 377.449 183.546 378.342 184.072 379.414C184.598 380.486 184.992 381.775 185.255 383.281C185.484 384.599 185.557 385.993 185.474 387.462C185.39 388.931 185.112 390.398 184.64 391.862C184.191 393.323 183.52 394.761 182.627 396.177C181.754 397.566 180.62 398.854 179.227 400.042C177.857 401.226 176.206 402.254 174.272 403.124C172.342 404.017 170.119 404.684 167.601 405.122C164.518 405.659 161.742 405.73 159.273 405.336C156.832 404.961 154.712 404.203 152.913 403.061C151.11 401.896 149.65 400.405 148.533 398.587C147.412 396.745 146.647 394.648 146.237 392.295L146.065 391.307L156.019 389.573C156.447 391.196 156.981 392.521 157.621 393.549C158.256 394.554 159.008 395.32 159.876 395.848C160.739 396.352 161.737 396.651 162.869 396.745C164.02 396.811 165.313 396.719 166.749 396.469C168.372 396.187 169.723 395.66 170.801 394.891C171.88 394.121 172.72 393.235 173.321 392.233C173.942 391.204 174.332 390.105 174.493 388.938C174.677 387.766 174.676 386.651 174.492 385.592C174.258 384.251 173.854 383.182 173.279 382.385C172.703 381.588 172.02 381.004 171.228 380.633C170.455 380.234 169.592 380.008 168.637 379.956C167.706 379.9 166.758 379.956 165.793 380.124L162.828 380.641L162.759 372.725C163.285 372.681 163.822 372.636 164.372 372.589C164.941 372.514 165.484 372.432 166.002 372.342C167.366 372.104 168.593 371.696 169.68 371.119C170.768 370.542 171.673 369.826 172.398 368.973C173.122 368.119 173.629 367.134 173.919 366.017C174.206 364.876 174.232 363.635 173.998 362.293C173.638 360.222 172.764 358.823 171.376 358.095C170.012 357.362 168.271 357.181 166.153 357.55C164.694 357.804 163.453 358.262 162.429 358.926C161.424 359.561 160.601 360.335 159.96 361.247C159.318 362.159 158.827 363.165 158.486 364.267C158.14 365.346 157.909 366.453 157.791 367.589L148.014 369.292Z" stroke="black" stroke-width="4" mask="url(#path-5-outside-2)"/>
<path d="M194.731 373.375L214.992 369.847L214.604 379.734L194.343 383.262L194.731 373.375Z" stroke="black" stroke-width="4" mask="url(#path-5-outside-2)"/>
<path d="M216.28 357.403C216.26 355.2 216.548 353.028 217.145 350.888C217.742 348.747 218.733 346.78 220.118 344.987C221.499 343.171 223.312 341.607 225.556 340.294C227.82 338.954 230.576 338.002 233.823 337.436C236.741 336.928 239.301 336.87 241.503 337.263C243.725 337.627 245.601 338.307 247.132 339.301C248.659 340.272 249.863 341.48 250.745 342.927C251.628 344.373 252.208 345.897 252.487 347.497C252.753 349.026 252.796 350.522 252.614 351.984C252.428 353.423 252.008 354.769 251.353 356.023C250.699 357.276 249.794 358.416 248.639 359.441C247.508 360.462 246.106 361.325 244.434 362.028L244.459 362.169C245.658 362.373 246.756 362.691 247.753 363.123C248.745 363.532 249.621 364.107 250.381 364.848C251.159 365.561 251.812 366.453 252.338 367.525C252.864 368.597 253.258 369.887 253.521 371.393C253.75 372.71 253.823 374.104 253.74 375.573C253.656 377.043 253.378 378.509 252.906 379.974C252.457 381.434 251.786 382.872 250.893 384.288C250.02 385.677 248.886 386.965 247.493 388.154C246.123 389.338 244.472 390.365 242.538 391.235C240.609 392.129 238.385 392.795 235.867 393.233C232.784 393.77 230.008 393.841 227.539 393.447C225.098 393.072 222.978 392.314 221.179 391.172C219.376 390.007 217.916 388.516 216.799 386.698C215.678 384.857 214.913 382.759 214.503 380.406L214.331 379.418L224.285 377.684C224.713 379.307 225.247 380.632 225.887 381.66C226.522 382.665 227.274 383.431 228.142 383.959C229.006 384.463 230.003 384.762 231.135 384.856C232.286 384.922 233.579 384.83 235.015 384.58C236.638 384.298 237.989 383.771 239.068 383.002C240.146 382.232 240.986 381.346 241.587 380.345C242.208 379.315 242.598 378.217 242.759 377.049C242.943 375.878 242.942 374.762 242.758 373.703C242.524 372.362 242.12 371.293 241.545 370.496C240.97 369.699 240.286 369.115 239.494 368.744C238.721 368.345 237.858 368.12 236.903 368.068C235.972 368.012 235.024 368.068 234.059 368.236L231.094 368.752L231.025 360.836C231.551 360.793 232.088 360.747 232.638 360.7C233.207 360.625 233.75 360.543 234.268 360.453C235.633 360.215 236.859 359.808 237.946 359.23C239.034 358.653 239.94 357.938 240.664 357.084C241.388 356.231 241.895 355.245 242.186 354.128C242.472 352.987 242.498 351.746 242.265 350.404C241.904 348.334 241.03 346.934 239.642 346.206C238.278 345.474 236.537 345.292 234.419 345.661C232.96 345.915 231.719 346.374 230.695 347.037C229.69 347.672 228.867 348.446 228.226 349.358C227.585 350.27 227.093 351.277 226.752 352.379C226.406 353.457 226.175 354.564 226.057 355.7L216.28 357.403Z" stroke="black" stroke-width="4" mask="url(#path-5-outside-2)"/>
<path d="M283.802 341.243L283.661 341.268L276.706 365.027L289.731 362.759L283.802 341.243ZM277.291 331.212L289.963 329.005L305.565 379.749L294.869 381.612L292.14 371.577L273.855 374.761L270.655 385.829L259.148 387.833L277.291 331.212Z" stroke="black" stroke-width="4" mask="url(#path-5-outside-2)"/>
<path d="M313.51 367.528L324.206 365.665L323.814 376.571L313.118 378.434L313.51 367.528Z" stroke="black" stroke-width="4" mask="url(#path-5-outside-2)"/>
<path d="M333.63 364.024L344.325 362.161L343.933 373.067L333.238 374.93L333.63 364.024Z" stroke="black" stroke-width="4" mask="url(#path-5-outside-2)"/>
<path d="M353.75 360.52L364.445 358.657L364.053 369.563L353.358 371.426L353.75 360.52Z" stroke="black" stroke-width="4" mask="url(#path-5-outside-2)"/>
<defs>
<linearGradient id="paint0_linear" x1="286.759" y1="116.855" x2="314.627" y2="276.88" gradientUnits="userSpaceOnUse">
<stop stop-color="#EBFC1D"/>
<stop offset="0.4375" stop-color="#ED603C"/>
</linearGradient>
<linearGradient id="paint1_linear" x1="286.759" y1="116.855" x2="314.627" y2="276.88" gradientUnits="userSpaceOnUse">
<stop stop-color="#EBFC1D"/>
<stop offset="0.4375" stop-color="#ED603C"/>
</linearGradient>
<linearGradient id="paint2_linear" x1="286.759" y1="116.855" x2="314.627" y2="276.88" gradientUnits="userSpaceOnUse">
<stop stop-color="#EBFC1D"/>
<stop offset="0.4375" stop-color="#ED603C"/>
</linearGradient>
<linearGradient id="paint3_linear" x1="286.759" y1="116.855" x2="314.627" y2="276.88" gradientUnits="userSpaceOnUse">
<stop stop-color="#EBFC1D"/>
<stop offset="0.4375" stop-color="#ED603C"/>
</linearGradient>
<linearGradient id="paint4_linear" x1="286.759" y1="116.855" x2="314.627" y2="276.88" gradientUnits="userSpaceOnUse">
<stop stop-color="#EBFC1D"/>
<stop offset="0.4375" stop-color="#ED603C"/>
</linearGradient>
<linearGradient id="paint5_linear" x1="286.759" y1="116.855" x2="314.627" y2="276.88" gradientUnits="userSpaceOnUse">
<stop stop-color="#EBFC1D"/>
<stop offset="0.4375" stop-color="#ED603C"/>
</linearGradient>
<linearGradient id="paint6_linear" x1="286.759" y1="116.855" x2="314.627" y2="276.88" gradientUnits="userSpaceOnUse">
<stop stop-color="#EBFC1D"/>
<stop offset="0.4375" stop-color="#ED603C"/>
</linearGradient>
<linearGradient id="paint7_linear" x1="286.759" y1="116.855" x2="314.627" y2="276.88" gradientUnits="userSpaceOnUse">
<stop stop-color="#EBFC1D"/>
<stop offset="0.4375" stop-color="#ED603C"/>
</linearGradient>
<linearGradient id="paint8_linear" x1="286.759" y1="116.855" x2="314.627" y2="276.88" gradientUnits="userSpaceOnUse">
<stop stop-color="#EBFC1D"/>
<stop offset="0.4375" stop-color="#ED603C"/>
</linearGradient>
<linearGradient id="paint9_linear" x1="286.759" y1="116.855" x2="314.627" y2="276.88" gradientUnits="userSpaceOnUse">
<stop stop-color="#EBFC1D"/>
<stop offset="0.4375" stop-color="#ED603C"/>
</linearGradient>
<linearGradient id="paint10_linear" x1="286.759" y1="116.855" x2="314.627" y2="276.88" gradientUnits="userSpaceOnUse">
<stop stop-color="#EBFC1D"/>
<stop offset="0.4375" stop-color="#ED603C"/>
</linearGradient>
<linearGradient id="paint11_linear" x1="222.361" y1="326.441" x2="241.823" y2="438.195" gradientUnits="userSpaceOnUse">
<stop stop-color="white"/>
<stop offset="0.4375" stop-color="#ED603C"/>
</linearGradient>
<linearGradient id="paint12_linear" x1="222.361" y1="326.441" x2="241.823" y2="438.195" gradientUnits="userSpaceOnUse">
<stop stop-color="white"/>
<stop offset="0.4375" stop-color="#ED603C"/>
</linearGradient>
<linearGradient id="paint13_linear" x1="222.361" y1="326.441" x2="241.823" y2="438.195" gradientUnits="userSpaceOnUse">
<stop stop-color="white"/>
<stop offset="0.4375" stop-color="#ED603C"/>
</linearGradient>
<linearGradient id="paint14_linear" x1="222.361" y1="326.441" x2="241.823" y2="438.195" gradientUnits="userSpaceOnUse">
<stop stop-color="white"/>
<stop offset="0.4375" stop-color="#ED603C"/>
</linearGradient>
<linearGradient id="paint15_linear" x1="222.361" y1="326.441" x2="241.823" y2="438.195" gradientUnits="userSpaceOnUse">
<stop stop-color="white"/>
<stop offset="0.4375" stop-color="#ED603C"/>
</linearGradient>
<linearGradient id="paint16_linear" x1="222.361" y1="326.441" x2="241.823" y2="438.195" gradientUnits="userSpaceOnUse">
<stop stop-color="white"/>
<stop offset="0.4375" stop-color="#ED603C"/>
</linearGradient>
<linearGradient id="paint17_linear" x1="222.361" y1="326.441" x2="241.823" y2="438.195" gradientUnits="userSpaceOnUse">
<stop stop-color="white"/>
<stop offset="0.4375" stop-color="#ED603C"/>
</linearGradient>
<linearGradient id="paint18_linear" x1="222.361" y1="326.441" x2="241.823" y2="438.195" gradientUnits="userSpaceOnUse">
<stop stop-color="white"/>
<stop offset="0.4375" stop-color="#ED603C"/>
</linearGradient>
</defs>
</svg>
