<svg width="326" height="174" viewBox="0 0 326 174" fill="none" xmlns="http://www.w3.org/2000/svg">
<rect x="8.21167" y="72.3398" width="303.776" height="64.1932" transform="rotate(-6.44138 8.21167 72.3398)" fill="#EBFF00"/>
<mask id="path-2-outside-1" maskUnits="userSpaceOnUse" x="14.12" y="19.7108" width="283.501" height="136.143" fill="black">
<rect fill="white" x="14.12" y="19.7108" width="283.501" height="136.143"/>
<path d="M28.5415 84.5062L42.871 82.8003C45.1969 82.5234 47.1913 82.505 48.8543 82.7451C50.5173 82.9852 51.9049 83.4602 53.0173 84.1703C54.1276 84.8637 54.9773 85.7735 55.5663 86.8997C56.1553 88.0258 56.5388 89.3366 56.7168 90.8318C56.8296 91.7788 56.8128 92.6991 56.6664 93.5927C56.5347 94.4677 56.2631 95.3003 55.8517 96.0907C55.455 96.8624 54.9081 97.5762 54.2111 98.2321C53.5288 98.8693 52.6933 99.4237 51.7048 99.8953C52.4315 100.196 53.0956 100.538 53.6973 100.922C54.297 101.288 54.8225 101.74 55.2738 102.276C55.7232 102.795 56.0901 103.4 56.3745 104.091C56.6755 104.779 56.8795 105.572 56.9863 106.47C57.2058 108.314 57.1026 109.994 56.6766 111.511C56.2486 113.011 55.5124 114.328 54.4681 115.464C53.4238 116.599 52.086 117.533 50.4547 118.267C48.8214 118.983 46.8999 119.473 44.6903 119.736L26.2739 121.929L28.5415 84.5062ZM34.2924 114.555L43.6875 113.436C44.8505 113.298 45.8099 113.007 46.5659 112.563C47.3218 112.119 47.9173 111.601 48.3524 111.011C48.7876 110.42 49.0755 109.796 49.2163 109.138C49.3572 108.481 49.393 107.862 49.3237 107.281C49.2308 106.5 49.0187 105.851 48.6877 105.335C48.3546 104.801 47.9254 104.381 47.4001 104.072C46.8914 103.762 46.2949 103.564 45.6105 103.477C44.9262 103.39 44.1853 103.394 43.3878 103.489L34.9148 104.497L34.2924 114.555ZM35.2684 98.339L44.0903 97.2887C45.9012 97.0731 47.2337 96.5185 48.0877 95.6249C48.9398 94.7147 49.2758 93.5037 49.0958 91.9918C49.0147 91.3107 48.8229 90.7606 48.5203 90.3417C48.2343 89.9208 47.8595 89.6032 47.3959 89.3888C46.9489 89.1724 46.4287 89.049 45.8354 89.0186C45.24 88.9715 44.6101 88.9875 43.9455 89.0666L35.7715 90.0398L35.2684 98.339Z"/>
<path d="M101.925 88.2298C101.797 87.1499 101.508 86.2071 101.058 85.4013C100.606 84.5789 100.038 83.9136 99.3544 83.4053C98.6851 82.8784 97.9173 82.5148 97.051 82.3147C96.1993 82.0959 95.3 82.0429 94.353 82.1557C92.7913 82.3416 91.4523 82.7706 90.336 83.4427C89.2198 84.1147 88.2821 84.9425 87.523 85.9259C86.7619 86.8926 86.1589 87.9838 85.7139 89.1994C85.2835 90.3964 84.9651 91.6137 84.7586 92.8515C84.5687 94.0872 84.4692 95.3038 84.4601 96.5012C84.4657 97.6799 84.5258 98.7511 84.6405 99.7147C84.7928 100.994 85.0858 102.181 85.5193 103.275C85.9695 104.367 86.5856 105.296 87.3676 106.062C88.1663 106.827 89.1435 107.393 90.2994 107.761C91.4718 108.126 92.8472 108.215 94.4255 108.028C95.3725 107.915 96.2724 107.69 97.1253 107.352C97.9927 106.996 98.7686 106.508 99.453 105.887C100.135 105.25 100.708 104.466 101.17 103.535C101.632 102.604 101.938 101.497 102.089 100.215L109.864 99.2898C109.598 101.444 109.082 103.41 108.316 105.186C107.567 106.96 106.564 108.512 105.307 109.841C104.065 111.151 102.574 112.222 100.837 113.052C99.099 113.882 97.1253 114.429 94.9156 114.692C92.8888 114.933 91.0492 114.908 89.3969 114.616C87.7612 114.322 86.3051 113.838 85.0286 113.165C83.7521 112.491 82.6343 111.664 81.675 110.683C80.7304 109.683 79.9284 108.608 79.269 107.456C78.6095 106.305 78.0894 105.12 77.7084 103.901C77.3421 102.665 77.0888 101.456 76.9483 100.277C76.7407 98.5322 76.7064 96.7587 76.8457 94.9561C76.9829 93.1369 77.3108 91.3624 77.8294 89.6326C78.348 87.9027 79.0539 86.2601 79.9471 84.7048C80.8569 83.1474 81.9712 81.7511 83.29 80.5157C84.6088 79.2803 86.1464 78.2548 87.9027 77.4392C89.657 76.6069 91.639 76.0592 93.8487 75.7961C95.9254 75.5489 97.8613 75.6049 99.6564 75.964C101.468 76.3212 103.063 76.9822 104.442 77.947C105.82 78.9118 106.956 80.175 107.85 81.7367C108.744 83.2984 109.319 85.1592 109.576 87.319L101.925 88.2298Z"/>
<path d="M131.602 79.9957L131.503 80.0076L125.741 96.3633L134.937 95.2686L131.602 79.9957ZM127.427 72.7337L136.373 71.6686L145.37 107.75L137.819 108.649L136.289 101.527L123.38 103.064L120.723 110.684L112.599 111.652L127.427 72.7337Z"/>
<path d="M150.354 70.0042L161.518 68.6751L166.294 95.6298L166.394 95.6179L174.378 67.1442L185.916 65.7705L183.648 103.193L176.496 104.045L178.847 71.9954L178.748 72.0073L169.369 104.893L162.565 105.703L156.743 74.627L156.643 74.6389L155.413 106.555L148.286 107.403L150.354 70.0042Z"/>
<path d="M208.159 70.8816L208.059 70.8934L202.298 87.2492L211.494 86.1544L208.159 70.8816ZM203.983 63.6196L212.93 62.5545L221.926 98.6361L214.375 99.5351L212.845 92.4131L199.936 93.9499L197.28 101.57L189.156 102.538L203.983 63.6196Z"/>
<path d="M227.11 60.8663L239.72 59.3651C242.095 59.0823 244.132 59.1347 245.829 59.5223C247.541 59.8914 248.963 60.5057 250.093 61.3653C251.237 62.2062 252.11 63.2396 252.711 64.4655C253.327 65.6728 253.717 66.9742 253.884 68.3697C254.131 70.4465 254.037 72.3448 253.601 74.0647C253.182 75.7827 252.418 77.289 251.309 78.5837C250.199 79.8784 248.75 80.9439 246.963 81.7801C245.192 82.6144 243.077 83.1778 240.618 83.4706L233.267 84.3458L232.493 97.3781L224.842 98.289L227.11 60.8663ZM233.684 77.8765L240.488 77.0665C241.7 76.9221 242.719 76.6324 243.543 76.1973C244.368 75.7621 245.02 75.2295 245.501 74.5994C245.999 73.9672 246.336 73.2616 246.513 72.4823C246.688 71.6864 246.725 70.8648 246.624 70.0175C246.543 69.3363 246.384 68.7066 246.146 68.1283C245.924 67.5314 245.586 67.0324 245.134 66.6313C244.68 66.2135 244.097 65.9123 243.384 65.7276C242.687 65.5409 241.833 65.5079 240.819 65.6285L234.39 66.394L233.684 77.8765Z"/>
<path d="M261.152 56.8136L285.499 53.915L285.128 60.3535L268.282 62.359L267.829 70.6523L283.279 68.8129L282.912 75.2762L267.511 77.1097L266.952 86.8561L284.621 84.7526L284.253 91.216L258.884 94.2363L261.152 56.8136Z"/>
</mask>
<path d="M28.5415 84.5062L42.871 82.8003C45.1969 82.5234 47.1913 82.505 48.8543 82.7451C50.5173 82.9852 51.9049 83.4602 53.0173 84.1703C54.1276 84.8637 54.9773 85.7735 55.5663 86.8997C56.1553 88.0258 56.5388 89.3366 56.7168 90.8318C56.8296 91.7788 56.8128 92.6991 56.6664 93.5927C56.5347 94.4677 56.2631 95.3003 55.8517 96.0907C55.455 96.8624 54.9081 97.5762 54.2111 98.2321C53.5288 98.8693 52.6933 99.4237 51.7048 99.8953C52.4315 100.196 53.0956 100.538 53.6973 100.922C54.297 101.288 54.8225 101.74 55.2738 102.276C55.7232 102.795 56.0901 103.4 56.3745 104.091C56.6755 104.779 56.8795 105.572 56.9863 106.47C57.2058 108.314 57.1026 109.994 56.6766 111.511C56.2486 113.011 55.5124 114.328 54.4681 115.464C53.4238 116.599 52.086 117.533 50.4547 118.267C48.8214 118.983 46.8999 119.473 44.6903 119.736L26.2739 121.929L28.5415 84.5062ZM34.2924 114.555L43.6875 113.436C44.8505 113.298 45.8099 113.007 46.5659 112.563C47.3218 112.119 47.9173 111.601 48.3524 111.011C48.7876 110.42 49.0755 109.796 49.2163 109.138C49.3572 108.481 49.393 107.862 49.3237 107.281C49.2308 106.5 49.0187 105.851 48.6877 105.335C48.3546 104.801 47.9254 104.381 47.4001 104.072C46.8914 103.762 46.2949 103.564 45.6105 103.477C44.9262 103.39 44.1853 103.394 43.3878 103.489L34.9148 104.497L34.2924 114.555ZM35.2684 98.339L44.0903 97.2887C45.9012 97.0731 47.2337 96.5185 48.0877 95.6249C48.9398 94.7147 49.2758 93.5037 49.0958 91.9918C49.0147 91.3107 48.8229 90.7606 48.5203 90.3417C48.2343 89.9208 47.8595 89.6032 47.3959 89.3888C46.9489 89.1724 46.4287 89.049 45.8354 89.0186C45.24 88.9715 44.6101 88.9875 43.9455 89.0666L35.7715 90.0398L35.2684 98.339Z" fill="url(#paint0_linear)"/>
<path d="M101.925 88.2298C101.797 87.1499 101.508 86.2071 101.058 85.4013C100.606 84.5789 100.038 83.9136 99.3544 83.4053C98.6851 82.8784 97.9173 82.5148 97.051 82.3147C96.1993 82.0959 95.3 82.0429 94.353 82.1557C92.7913 82.3416 91.4523 82.7706 90.336 83.4427C89.2198 84.1147 88.2821 84.9425 87.523 85.9259C86.7619 86.8926 86.1589 87.9838 85.7139 89.1994C85.2835 90.3964 84.9651 91.6137 84.7586 92.8515C84.5687 94.0872 84.4692 95.3038 84.4601 96.5012C84.4657 97.6799 84.5258 98.7511 84.6405 99.7147C84.7928 100.994 85.0858 102.181 85.5193 103.275C85.9695 104.367 86.5856 105.296 87.3676 106.062C88.1663 106.827 89.1435 107.393 90.2994 107.761C91.4718 108.126 92.8472 108.215 94.4255 108.028C95.3725 107.915 96.2724 107.69 97.1253 107.352C97.9927 106.996 98.7686 106.508 99.453 105.887C100.135 105.25 100.708 104.466 101.17 103.535C101.632 102.604 101.938 101.497 102.089 100.215L109.864 99.2898C109.598 101.444 109.082 103.41 108.316 105.186C107.567 106.96 106.564 108.512 105.307 109.841C104.065 111.151 102.574 112.222 100.837 113.052C99.099 113.882 97.1253 114.429 94.9156 114.692C92.8888 114.933 91.0492 114.908 89.3969 114.616C87.7612 114.322 86.3051 113.838 85.0286 113.165C83.7521 112.491 82.6343 111.664 81.675 110.683C80.7304 109.683 79.9284 108.608 79.269 107.456C78.6095 106.305 78.0894 105.12 77.7084 103.901C77.3421 102.665 77.0888 101.456 76.9483 100.277C76.7407 98.5322 76.7064 96.7587 76.8457 94.9561C76.9829 93.1369 77.3108 91.3624 77.8294 89.6326C78.348 87.9027 79.0539 86.2601 79.9471 84.7048C80.8569 83.1474 81.9712 81.7511 83.29 80.5157C84.6088 79.2803 86.1464 78.2548 87.9027 77.4392C89.657 76.6069 91.639 76.0592 93.8487 75.7961C95.9254 75.5489 97.8613 75.6049 99.6564 75.964C101.468 76.3212 103.063 76.9822 104.442 77.947C105.82 78.9118 106.956 80.175 107.85 81.7367C108.744 83.2984 109.319 85.1592 109.576 87.319L101.925 88.2298Z" fill="url(#paint1_linear)"/>
<path d="M131.602 79.9957L131.503 80.0076L125.741 96.3633L134.937 95.2686L131.602 79.9957ZM127.427 72.7337L136.373 71.6686L145.37 107.75L137.819 108.649L136.289 101.527L123.38 103.064L120.723 110.684L112.599 111.652L127.427 72.7337Z" fill="url(#paint2_linear)"/>
<path d="M150.354 70.0042L161.518 68.6751L166.294 95.6298L166.394 95.6179L174.378 67.1442L185.916 65.7705L183.648 103.193L176.496 104.045L178.847 71.9954L178.748 72.0073L169.369 104.893L162.565 105.703L156.743 74.627L156.643 74.6389L155.413 106.555L148.286 107.403L150.354 70.0042Z" fill="url(#paint3_linear)"/>
<path d="M208.159 70.8816L208.059 70.8934L202.298 87.2492L211.494 86.1544L208.159 70.8816ZM203.983 63.6196L212.93 62.5545L221.926 98.6361L214.375 99.5351L212.845 92.4131L199.936 93.9499L197.28 101.57L189.156 102.538L203.983 63.6196Z" fill="url(#paint4_linear)"/>
<path d="M227.11 60.8663L239.72 59.3651C242.095 59.0823 244.132 59.1347 245.829 59.5223C247.541 59.8914 248.963 60.5057 250.093 61.3653C251.237 62.2062 252.11 63.2396 252.711 64.4655C253.327 65.6728 253.717 66.9742 253.884 68.3697C254.131 70.4465 254.037 72.3448 253.601 74.0647C253.182 75.7827 252.418 77.289 251.309 78.5837C250.199 79.8784 248.75 80.9439 246.963 81.7801C245.192 82.6144 243.077 83.1778 240.618 83.4706L233.267 84.3458L232.493 97.3781L224.842 98.289L227.11 60.8663ZM233.684 77.8765L240.488 77.0665C241.7 76.9221 242.719 76.6324 243.543 76.1973C244.368 75.7621 245.02 75.2295 245.501 74.5994C245.999 73.9672 246.336 73.2616 246.513 72.4823C246.688 71.6864 246.725 70.8648 246.624 70.0175C246.543 69.3363 246.384 68.7066 246.146 68.1283C245.924 67.5314 245.586 67.0324 245.134 66.6313C244.68 66.2135 244.097 65.9123 243.384 65.7276C242.687 65.5409 241.833 65.5079 240.819 65.6285L234.39 66.394L233.684 77.8765Z" fill="url(#paint5_linear)"/>
<path d="M261.152 56.8136L285.499 53.915L285.128 60.3535L268.282 62.359L267.829 70.6523L283.279 68.8129L282.912 75.2762L267.511 77.1097L266.952 86.8561L284.621 84.7526L284.253 91.216L258.884 94.2363L261.152 56.8136Z" fill="url(#paint6_linear)"/>
<path d="M28.5415 84.5062L42.871 82.8003C45.1969 82.5234 47.1913 82.505 48.8543 82.7451C50.5173 82.9852 51.9049 83.4602 53.0173 84.1703C54.1276 84.8637 54.9773 85.7735 55.5663 86.8997C56.1553 88.0258 56.5388 89.3366 56.7168 90.8318C56.8296 91.7788 56.8128 92.6991 56.6664 93.5927C56.5347 94.4677 56.2631 95.3003 55.8517 96.0907C55.455 96.8624 54.9081 97.5762 54.2111 98.2321C53.5288 98.8693 52.6933 99.4237 51.7048 99.8953C52.4315 100.196 53.0956 100.538 53.6973 100.922C54.297 101.288 54.8225 101.74 55.2738 102.276C55.7232 102.795 56.0901 103.4 56.3745 104.091C56.6755 104.779 56.8795 105.572 56.9863 106.47C57.2058 108.314 57.1026 109.994 56.6766 111.511C56.2486 113.011 55.5124 114.328 54.4681 115.464C53.4238 116.599 52.086 117.533 50.4547 118.267C48.8214 118.983 46.8999 119.473 44.6903 119.736L26.2739 121.929L28.5415 84.5062ZM34.2924 114.555L43.6875 113.436C44.8505 113.298 45.8099 113.007 46.5659 112.563C47.3218 112.119 47.9173 111.601 48.3524 111.011C48.7876 110.42 49.0755 109.796 49.2163 109.138C49.3572 108.481 49.393 107.862 49.3237 107.281C49.2308 106.5 49.0187 105.851 48.6877 105.335C48.3546 104.801 47.9254 104.381 47.4001 104.072C46.8914 103.762 46.2949 103.564 45.6105 103.477C44.9262 103.39 44.1853 103.394 43.3878 103.489L34.9148 104.497L34.2924 114.555ZM35.2684 98.339L44.0903 97.2887C45.9012 97.0731 47.2337 96.5185 48.0877 95.6249C48.9398 94.7147 49.2758 93.5037 49.0958 91.9918C49.0147 91.3107 48.8229 90.7606 48.5203 90.3417C48.2343 89.9208 47.8595 89.6032 47.3959 89.3888C46.9489 89.1724 46.4287 89.049 45.8354 89.0186C45.24 88.9715 44.6101 88.9875 43.9455 89.0666L35.7715 90.0398L35.2684 98.339Z" stroke="black" stroke-width="4" mask="url(#path-2-outside-1)"/>
<path d="M101.925 88.2298C101.797 87.1499 101.508 86.2071 101.058 85.4013C100.606 84.5789 100.038 83.9136 99.3544 83.4053C98.6851 82.8784 97.9173 82.5148 97.051 82.3147C96.1993 82.0959 95.3 82.0429 94.353 82.1557C92.7913 82.3416 91.4523 82.7706 90.336 83.4427C89.2198 84.1147 88.2821 84.9425 87.523 85.9259C86.7619 86.8926 86.1589 87.9838 85.7139 89.1994C85.2835 90.3964 84.9651 91.6137 84.7586 92.8515C84.5687 94.0872 84.4692 95.3038 84.4601 96.5012C84.4657 97.6799 84.5258 98.7511 84.6405 99.7147C84.7928 100.994 85.0858 102.181 85.5193 103.275C85.9695 104.367 86.5856 105.296 87.3676 106.062C88.1663 106.827 89.1435 107.393 90.2994 107.761C91.4718 108.126 92.8472 108.215 94.4255 108.028C95.3725 107.915 96.2724 107.69 97.1253 107.352C97.9927 106.996 98.7686 106.508 99.453 105.887C100.135 105.25 100.708 104.466 101.17 103.535C101.632 102.604 101.938 101.497 102.089 100.215L109.864 99.2898C109.598 101.444 109.082 103.41 108.316 105.186C107.567 106.96 106.564 108.512 105.307 109.841C104.065 111.151 102.574 112.222 100.837 113.052C99.099 113.882 97.1253 114.429 94.9156 114.692C92.8888 114.933 91.0492 114.908 89.3969 114.616C87.7612 114.322 86.3051 113.838 85.0286 113.165C83.7521 112.491 82.6343 111.664 81.675 110.683C80.7304 109.683 79.9284 108.608 79.269 107.456C78.6095 106.305 78.0894 105.12 77.7084 103.901C77.3421 102.665 77.0888 101.456 76.9483 100.277C76.7407 98.5322 76.7064 96.7587 76.8457 94.9561C76.9829 93.1369 77.3108 91.3624 77.8294 89.6326C78.348 87.9027 79.0539 86.2601 79.9471 84.7048C80.8569 83.1474 81.9712 81.7511 83.29 80.5157C84.6088 79.2803 86.1464 78.2548 87.9027 77.4392C89.657 76.6069 91.639 76.0592 93.8487 75.7961C95.9254 75.5489 97.8613 75.6049 99.6564 75.964C101.468 76.3212 103.063 76.9822 104.442 77.947C105.82 78.9118 106.956 80.175 107.85 81.7367C108.744 83.2984 109.319 85.1592 109.576 87.319L101.925 88.2298Z" stroke="black" stroke-width="4" mask="url(#path-2-outside-1)"/>
<path d="M131.602 79.9957L131.503 80.0076L125.741 96.3633L134.937 95.2686L131.602 79.9957ZM127.427 72.7337L136.373 71.6686L145.37 107.75L137.819 108.649L136.289 101.527L123.38 103.064L120.723 110.684L112.599 111.652L127.427 72.7337Z" stroke="black" stroke-width="4" mask="url(#path-2-outside-1)"/>
<path d="M150.354 70.0042L161.518 68.6751L166.294 95.6298L166.394 95.6179L174.378 67.1442L185.916 65.7705L183.648 103.193L176.496 104.045L178.847 71.9954L178.748 72.0073L169.369 104.893L162.565 105.703L156.743 74.627L156.643 74.6389L155.413 106.555L148.286 107.403L150.354 70.0042Z" stroke="black" stroke-width="4" mask="url(#path-2-outside-1)"/>
<path d="M208.159 70.8816L208.059 70.8934L202.298 87.2492L211.494 86.1544L208.159 70.8816ZM203.983 63.6196L212.93 62.5545L221.926 98.6361L214.375 99.5351L212.845 92.4131L199.936 93.9499L197.28 101.57L189.156 102.538L203.983 63.6196Z" stroke="black" stroke-width="4" mask="url(#path-2-outside-1)"/>
<path d="M227.11 60.8663L239.72 59.3651C242.095 59.0823 244.132 59.1347 245.829 59.5223C247.541 59.8914 248.963 60.5057 250.093 61.3653C251.237 62.2062 252.11 63.2396 252.711 64.4655C253.327 65.6728 253.717 66.9742 253.884 68.3697C254.131 70.4465 254.037 72.3448 253.601 74.0647C253.182 75.7827 252.418 77.289 251.309 78.5837C250.199 79.8784 248.75 80.9439 246.963 81.7801C245.192 82.6144 243.077 83.1778 240.618 83.4706L233.267 84.3458L232.493 97.3781L224.842 98.289L227.11 60.8663ZM233.684 77.8765L240.488 77.0665C241.7 76.9221 242.719 76.6324 243.543 76.1973C244.368 75.7621 245.02 75.2295 245.501 74.5994C245.999 73.9672 246.336 73.2616 246.513 72.4823C246.688 71.6864 246.725 70.8648 246.624 70.0175C246.543 69.3363 246.384 68.7066 246.146 68.1283C245.924 67.5314 245.586 67.0324 245.134 66.6313C244.68 66.2135 244.097 65.9123 243.384 65.7276C242.687 65.5409 241.833 65.5079 240.819 65.6285L234.39 66.394L233.684 77.8765Z" stroke="black" stroke-width="4" mask="url(#path-2-outside-1)"/>
<path d="M261.152 56.8136L285.499 53.915L285.128 60.3535L268.282 62.359L267.829 70.6523L283.279 68.8129L282.912 75.2762L267.511 77.1097L266.952 86.8561L284.621 84.7526L284.253 91.216L258.884 94.2363L261.152 56.8136Z" stroke="black" stroke-width="4" mask="url(#path-2-outside-1)"/>
<defs>
<linearGradient id="paint0_linear" x1="186.579" y1="55.7289" x2="200.668" y2="174.073" gradientUnits="userSpaceOnUse">
<stop stop-color="white"/>
<stop offset="0.4375" stop-color="#ED603C"/>
</linearGradient>
<linearGradient id="paint1_linear" x1="186.579" y1="55.7289" x2="200.668" y2="174.073" gradientUnits="userSpaceOnUse">
<stop stop-color="white"/>
<stop offset="0.4375" stop-color="#ED603C"/>
</linearGradient>
<linearGradient id="paint2_linear" x1="186.579" y1="55.7289" x2="200.668" y2="174.073" gradientUnits="userSpaceOnUse">
<stop stop-color="white"/>
<stop offset="0.4375" stop-color="#ED603C"/>
</linearGradient>
<linearGradient id="paint3_linear" x1="186.579" y1="55.7289" x2="200.668" y2="174.073" gradientUnits="userSpaceOnUse">
<stop stop-color="white"/>
<stop offset="0.4375" stop-color="#ED603C"/>
</linearGradient>
<linearGradient id="paint4_linear" x1="186.579" y1="55.7289" x2="200.668" y2="174.073" gradientUnits="userSpaceOnUse">
<stop stop-color="white"/>
<stop offset="0.4375" stop-color="#ED603C"/>
</linearGradient>
<linearGradient id="paint5_linear" x1="186.579" y1="55.7289" x2="200.668" y2="174.073" gradientUnits="userSpaceOnUse">
<stop stop-color="white"/>
<stop offset="0.4375" stop-color="#ED603C"/>
</linearGradient>
<linearGradient id="paint6_linear" x1="186.579" y1="55.7289" x2="200.668" y2="174.073" gradientUnits="userSpaceOnUse">
<stop stop-color="white"/>
<stop offset="0.4375" stop-color="#ED603C"/>
</linearGradient>
</defs>
</svg>
