<svg width="206" height="309" viewBox="0 0 206 309" fill="none" xmlns="http://www.w3.org/2000/svg">
<path d="M195.816 52.2633L196.361 51.1351L195.348 50.3984L133.254 5.24107L131.801 4.18464L131.021 5.80236L94.5091 81.4741L93.9651 82.6016L94.9771 83.3385L157.049 128.542L158.502 129.6L159.283 127.981L165.701 114.679L166.246 113.55L165.232 112.813L114.866 76.2272L122.202 61.0228L172.107 97.3345L173.56 98.3916L174.34 96.7735L180.759 83.4711L181.303 82.3422L180.289 81.6056L129.923 45.0195L137.238 29.8598L187.166 66.1275L188.618 67.1826L189.398 65.5657L195.816 52.2633ZM141.229 134.453L141.224 134.444C139.464 131.097 137.336 127.984 134.843 125.104C132.354 122.229 129.57 119.641 126.494 117.34C123.459 115.062 120.276 113.118 116.946 111.512C114.673 110.416 112.229 109.492 109.617 108.738L109.606 108.735L109.595 108.732C106.971 108.018 104.261 107.575 101.465 107.403L101.456 107.402L101.448 107.402C98.6136 107.261 95.7582 107.463 92.8838 108.005L92.8712 108.007L92.8587 108.01C89.9524 108.61 87.1515 109.675 84.4593 111.197L84.4508 111.202C81.7245 112.767 79.1683 114.849 76.7779 117.429C74.3542 120.044 72.2144 123.305 70.3432 127.183C68.3142 131.389 67.0325 135.547 66.5223 139.655C65.986 143.712 66.0718 147.638 66.7902 151.426C67.5042 155.192 68.7489 158.764 70.5233 162.139C72.269 165.518 74.3901 168.649 76.8849 171.53C79.3733 174.404 82.141 176.985 85.1864 179.271L85.1885 179.272C88.2539 181.565 91.4519 183.516 94.7823 185.122C97.0592 186.221 99.514 187.13 102.143 187.853C104.792 188.617 107.514 189.061 110.307 189.187C113.144 189.328 115.994 189.102 118.855 188.513C121.782 187.959 124.595 186.915 127.291 185.391C130.01 183.854 132.569 181.768 134.974 179.158C137.396 176.544 139.528 173.299 141.385 169.451C143.414 165.246 144.696 161.087 145.206 156.979C145.742 152.922 145.656 148.996 144.938 145.208C144.224 141.443 142.987 137.857 141.229 134.453ZM87.1362 155.59L87.1309 155.583L87.1255 155.576C85.6237 153.641 84.4704 151.558 83.6594 149.324C82.8603 147.123 82.4866 144.789 82.546 142.312C82.6037 139.91 83.2629 137.35 84.5806 134.619C85.529 132.653 86.7449 130.935 88.2281 129.455C89.6983 128.049 91.4069 126.996 93.3683 126.294C95.2948 125.605 97.4875 125.346 99.9742 125.557C102.45 125.78 105.18 126.587 108.176 128.032C109.904 128.866 111.767 129.91 113.767 131.171C115.757 132.461 117.687 133.922 119.556 135.558C121.396 137.211 123.084 139.028 124.623 141.009C126.141 142.991 127.285 145.086 128.064 147.297L128.066 147.304L128.069 147.311C128.868 149.512 129.242 151.845 129.182 154.322C129.125 156.725 128.465 159.285 127.148 162.016C126.2 163.979 124.98 165.67 123.487 167.101L123.476 167.111L123.466 167.121C122.012 168.57 120.315 169.641 118.36 170.34C116.432 171.03 114.238 171.289 111.75 171.077C109.311 170.869 106.583 170.064 103.552 168.602C101.83 167.771 99.9609 166.706 97.9442 165.399L97.9365 165.394L97.9287 165.39C95.9629 164.15 94.0538 162.7 92.2018 161.037L92.1947 161.031L92.1874 161.024C90.34 159.407 88.6563 157.597 87.1362 155.59ZM117.064 215.482L117.609 214.353L116.593 213.616L54.455 168.551L53.0029 167.498L52.2233 169.113L45.4496 183.152L44.9019 184.288L45.9258 185.023L63.8519 197.891L67.4723 208.168L34.2704 208.265L33.3317 208.267L32.9238 209.113L25.3284 224.855L24.2639 227.061L26.7129 227.006L74.0968 225.947L89.2754 267.223L90.4966 270.544L92.0342 267.357L100.496 249.82L100.776 249.24L100.548 248.638L87.7385 214.762L108.134 229.89L109.591 230.97L110.379 229.337L117.064 215.482ZM81.794 288.462L82.3218 287.368L81.3615 286.624L65.8259 274.592L65.7554 274.537L65.6789 274.491L35.2307 256.23L33.822 255.385L33.1082 256.864L29.7991 263.723L29.3269 264.702L30.1097 265.455L56.9156 291.265L56.9737 291.321L57.0375 291.371L72.5731 303.403L74.0376 304.538L74.8426 302.869L81.794 288.462ZM32.5911 250.885L33.1204 249.788L32.1554 249.044L20.1324 239.784L18.6689 238.657L17.8662 240.32L11.2479 254.037L10.7186 255.134L11.6836 255.877L23.7065 265.138L25.1701 266.265L25.9728 264.601L32.5911 250.885Z" fill="url(#paint0_linear)" stroke="black" stroke-width="3"/>
<defs>
<linearGradient id="paint0_linear" x1="120.532" y1="167.51" x2="-18.7699" y2="100.297" gradientUnits="userSpaceOnUse">
<stop stop-color="#2FAD74"/>
<stop offset="0.520833" stop-color="white"/>
<stop offset="1" stop-color="white"/>
</linearGradient>
</defs>
</svg>
