<svg width="136" height="66" viewBox="0 0 136 66" fill="none" xmlns="http://www.w3.org/2000/svg">
<path d="M79.8251 19.8559C79.0675 18.7132 78.1635 17.6706 77.1154 16.7281C76.0616 15.7492 74.85 14.9549 73.4856 14.344C72.1092 13.7277 70.5658 13.3308 68.8634 13.1441C67.1538 12.9517 65.283 13.0527 63.2577 13.4331C61.0442 13.8489 59.0619 14.5418 57.3199 15.52C55.5909 16.4731 54.0904 17.6306 52.8245 18.9945C51.5667 20.3497 50.5279 21.8568 49.7093 23.5141L49.7069 23.5191C48.9113 25.1605 48.3113 26.8778 47.9069 28.6699C47.5031 30.4594 47.2949 32.2809 47.282 34.1336C47.2661 35.964 47.4225 37.7559 47.752 39.5084C47.9769 40.7051 48.3178 41.9186 48.7727 43.1484L48.7727 43.1484L48.7767 43.159C49.2504 44.3826 49.8547 45.5621 50.5882 46.6971L50.5881 46.6971L50.593 46.7044C51.3496 47.8458 52.2457 48.8972 53.2794 49.8583L53.2793 49.8584L53.2888 49.867C54.3546 50.8247 55.571 51.6079 56.9336 52.2179L56.938 52.2199C58.3273 52.8311 59.8684 53.2278 61.5546 53.4177C63.2651 53.6103 65.1445 53.5076 67.1856 53.1242C69.3993 52.7084 71.3817 52.0155 73.1239 51.0371C74.8527 50.0841 76.353 48.9266 77.6189 47.5628C78.877 46.2074 79.9082 44.701 80.711 43.0455C81.5232 41.4006 82.1318 39.6808 82.5364 37.8874C82.9401 36.0987 83.1499 34.2856 83.1659 32.4489L83.1659 32.4476C83.1787 30.6015 83.0209 28.8017 82.6914 27.049C82.4661 25.8502 82.1164 24.6366 81.6447 23.4088C81.1828 22.1611 80.5758 20.9766 79.8251 19.8559ZM79.8251 19.8559C79.8255 19.8564 79.8258 19.857 79.8262 19.8575L79.2013 20.2717L79.8241 19.8544C79.8245 19.8549 79.8248 19.8554 79.8251 19.8559ZM2.2452 25.8265L1.62964 25.9422L1.63368 26.5685L1.87254 63.5618L1.87834 64.4599L2.76099 64.2941L42.5485 56.82L43.1637 56.7045L43.16 56.0785L42.9454 19.0807L42.9402 18.182L42.0569 18.3479L35.0626 19.6618L34.4467 19.7775L34.4511 20.4042L34.6611 50.3756L26.7212 51.8671L26.5366 22.1627L26.5311 21.2645L25.6482 21.4303L18.6539 22.7442L18.038 22.8599L18.0424 23.4865L18.2524 53.458L10.336 54.9451L10.1279 25.2445L10.1216 24.347L9.23948 24.5127L2.2452 25.8265ZM73.3705 38.4552L73.3681 38.4636C73.0477 39.5967 72.5707 40.637 71.9377 41.5878C71.3145 42.524 70.5188 43.3336 69.5437 44.017C68.5993 44.6788 67.4216 45.1538 65.9887 45.423C64.9583 45.6166 63.9475 45.6361 62.9527 45.4846C61.9908 45.3171 61.0978 44.9568 60.268 44.3989C59.4536 43.8514 58.7288 43.0781 58.1016 42.056C57.4823 41.0356 57.0157 39.7491 56.7201 38.1763C56.5496 37.2694 56.4222 36.2491 56.3394 35.1134C56.2707 33.9747 56.286 32.8099 56.3857 31.6188C56.5006 30.4346 56.722 29.2621 57.0503 28.1007C57.3838 26.9476 57.8683 25.9075 58.5016 24.9755L58.5017 24.9755L58.5056 24.9695C59.1289 24.0333 59.9245 23.2237 60.8997 22.5403C61.8441 21.8785 63.0217 21.4035 64.4546 21.1343C65.4837 20.941 66.4853 20.9311 67.4639 21.1004L67.471 21.1017L67.4782 21.1028C68.4516 21.2519 69.3484 21.6024 70.1754 22.1584C70.9902 22.7063 71.7154 23.4801 72.3428 24.503C72.9573 25.5049 73.4242 26.7899 73.7233 28.3811C73.8932 29.2851 74.0142 30.3133 74.084 31.4681L74.0847 31.4773C74.1658 32.5925 74.1494 33.7459 74.0339 34.9382L74.0339 34.9382L74.0331 34.9478C73.9343 36.1247 73.7138 37.2936 73.3705 38.4552ZM88.0643 9.70551L87.4479 9.82129L87.4527 10.4484L87.74 47.4327L87.747 48.3295L88.6285 48.1639L96.01 46.7773L96.6294 46.661L96.6214 46.0308L96.4874 35.4077L99.4118 31.1041L108.919 43.9229L109.198 44.2999L109.66 44.2132L117.937 42.6584L119.14 42.4323L118.392 41.4629L104.446 23.4037L116.104 5.73199L117.078 4.25525L115.34 4.58187L106.119 6.314L105.802 6.37344L105.627 6.64382L96.2015 21.2191L96.2374 9.07641L96.2401 8.16968L95.349 8.33708L88.0643 9.70551ZM126.453 2.51948L125.856 2.6316L125.841 3.23875L125.616 12.7044L125.615 12.749L125.619 12.7933L127.242 29.8234L127.32 30.641L128.127 30.4894L131.733 29.812L132.267 29.7117L132.338 29.173L134.685 11.3974L134.69 11.3574L134.691 11.3171L134.916 1.85144L134.938 0.925507L134.028 1.0965L126.453 2.51948ZM125.946 32.346L125.347 32.4585L125.334 33.0673L125.18 40.378L125.161 41.3014L126.068 41.1309L133.28 39.7761L133.879 39.6637L133.892 39.0548L134.046 31.7442L134.066 30.8207L133.158 30.9913L125.946 32.346Z" fill="#FF8BDD" stroke="black" stroke-width="1.5"/>
</svg>
