<svg width="381" height="172" viewBox="0 0 381 172" fill="none" xmlns="http://www.w3.org/2000/svg">
<rect y="40.8047" width="368.551" height="131.436" transform="rotate(-6.35633 0 40.8047)" fill="white"/>
<path d="M40.8285 58.6128L39.5832 58.7482L39.4944 59.9977L33.4322 145.31L33.3048 147.101L35.0905 146.907L128.136 136.792L129.381 136.657L129.47 135.408L135.589 50.0899L135.718 48.2971L133.931 48.4914L117.574 50.2695L116.328 50.405L116.24 51.6553L111.353 120.972L92.312 123.042L97.2163 54.2609L97.3441 52.4688L95.558 52.663L79.2014 54.4412L77.9554 54.5766L77.8673 55.8269L72.9798 125.143L53.9942 127.207L58.8435 58.4314L58.9698 56.6406L57.1851 56.8346L40.8285 58.6128ZM150.822 61.6542L150.816 61.6638C148.698 65.2893 147.015 69.124 145.768 73.1655C144.523 77.2018 143.72 81.3468 143.361 85.5985C142.998 89.8001 143.038 93.9432 143.483 98.0261C143.786 100.811 144.352 103.656 145.177 106.56L145.18 106.571L145.184 106.582C146.052 109.471 147.228 112.283 148.708 115.017L148.712 115.025L148.717 115.032C150.247 117.782 152.114 120.35 154.313 122.738L154.321 122.747L154.33 122.756C156.598 125.136 159.242 127.144 162.253 128.783L162.262 128.787C165.332 130.432 168.79 131.615 172.623 132.35C176.503 133.094 180.83 133.194 185.585 132.677C190.741 132.117 195.409 130.88 199.573 128.948C203.708 127.07 207.352 124.683 210.495 121.784C213.62 118.899 216.252 115.629 218.387 111.976C220.544 108.346 222.246 104.508 223.494 100.464C224.739 96.4293 225.544 92.3039 225.908 88.0898L225.908 88.0871C226.266 83.8487 226.224 79.687 225.78 75.6036C225.476 72.8152 224.89 69.9694 224.026 67.0673C223.189 64.1257 222.009 61.3028 220.487 58.6003C218.955 55.8481 217.069 53.2984 214.834 50.9519C212.598 48.5263 209.967 46.494 206.952 44.8533C203.914 43.2001 200.451 42.0166 196.581 41.2856C192.702 40.5417 188.395 40.4397 183.677 40.9526C178.522 41.513 173.854 42.7499 169.689 44.6815C165.555 46.5597 161.91 48.9462 158.768 51.8458C155.643 54.7293 152.993 57.9999 150.822 61.6542ZM202.708 100.287L202.704 100.295L202.701 100.303C201.752 102.88 200.455 105.214 198.81 107.312C197.188 109.383 195.187 111.126 192.793 112.541C190.464 113.917 187.631 114.81 184.254 115.177C181.818 115.442 179.457 115.305 177.164 114.771C174.943 114.205 172.919 113.2 171.08 111.745C169.271 110.313 167.718 108.374 166.443 105.881C165.181 103.387 164.33 100.309 163.927 96.6093C163.695 94.4779 163.583 92.0941 163.596 89.4542C163.641 86.8047 163.886 84.1106 164.33 81.3714C164.809 78.6473 165.533 75.9696 166.503 73.3374C167.486 70.7172 168.8 68.3842 170.443 66.3288L170.448 66.3232L170.452 66.3175C172.075 64.247 174.076 62.504 176.47 61.0891C178.799 59.7124 181.631 58.8197 185.009 58.4526C187.442 58.1881 189.781 58.3458 192.034 58.9182L192.048 58.9218L192.062 58.9251C194.313 59.4507 196.349 60.4342 198.182 61.8848C199.993 63.3173 201.546 65.2585 202.822 67.7535C204.076 70.2045 204.928 73.2792 205.335 77.0203C205.567 79.1462 205.662 81.5478 205.616 84.2298L205.616 84.2389L205.616 84.2481C205.604 86.8471 205.358 89.5159 204.877 92.2559L204.875 92.2653L204.874 92.2748C204.433 94.9858 203.712 97.6561 202.708 100.287ZM241.522 36.7948L240.275 36.9303L240.188 38.1816L234.239 123.481L234.114 125.271L235.897 125.077L253.16 123.2L254.413 123.064L254.494 121.806L256.089 97.2226L263.851 87.5108L283.648 119.036L284.147 119.831L285.08 119.73L304.437 117.626L306.872 117.361L305.529 115.312L276.52 71.053L306.654 32.2721L308.825 29.4781L305.307 29.8605L283.744 32.2048L283.104 32.2744L282.713 32.7865L257.898 65.3311L260.215 36.5544L260.361 34.7468L258.558 34.9428L241.522 36.7948ZM331.292 27.0933L330.084 27.2245L329.961 28.433L327.75 50.2109L327.741 50.2996L327.743 50.3888L328.439 89.9329L328.468 91.5752L330.101 91.3977L338.534 90.4809L339.614 90.3635L339.839 89.3004L348.425 48.7472L348.442 48.6683L348.45 48.588L350.661 26.8101L350.848 24.9672L349.007 25.1674L331.292 27.0933ZM324.791 95.7525L323.58 95.8841L323.461 97.0962L321.798 113.92L321.617 115.758L323.453 115.558L340.319 113.725L341.53 113.593L341.65 112.381L343.312 95.5577L343.494 93.7193L341.657 93.919L324.791 95.7525Z" fill="white"/>
<path d="M40.8285 58.6128L39.5832 58.7482L39.4944 59.9977L33.4322 145.31L33.3048 147.101L35.0905 146.907L128.136 136.792L129.381 136.657L129.47 135.408L135.589 50.0899L135.718 48.2971L133.931 48.4914L117.574 50.2695L116.328 50.405L116.24 51.6553L111.353 120.972L92.312 123.042L97.2163 54.2609L97.3441 52.4688L95.558 52.663L79.2014 54.4412L77.9554 54.5766L77.8673 55.8269L72.9798 125.143L53.9942 127.207L58.8435 58.4314L58.9698 56.6406L57.1851 56.8346L40.8285 58.6128ZM150.822 61.6542L150.816 61.6638C148.698 65.2893 147.015 69.124 145.768 73.1655C144.523 77.2018 143.72 81.3468 143.361 85.5985C142.998 89.8001 143.038 93.9432 143.483 98.0261C143.786 100.811 144.352 103.656 145.177 106.56L145.18 106.571L145.184 106.582C146.052 109.471 147.228 112.283 148.708 115.017L148.712 115.025L148.717 115.032C150.247 117.782 152.114 120.35 154.313 122.738L154.321 122.747L154.33 122.756C156.598 125.136 159.242 127.144 162.253 128.783L162.262 128.787C165.332 130.432 168.79 131.615 172.623 132.35C176.503 133.094 180.83 133.194 185.585 132.677C190.741 132.117 195.409 130.88 199.573 128.948C203.708 127.07 207.352 124.683 210.495 121.784C213.62 118.899 216.252 115.629 218.387 111.976C220.544 108.346 222.246 104.508 223.494 100.464C224.739 96.4293 225.544 92.3039 225.908 88.0898L225.908 88.0871C226.266 83.8487 226.224 79.687 225.78 75.6036C225.476 72.8152 224.89 69.9694 224.026 67.0673C223.189 64.1257 222.009 61.3028 220.487 58.6003C218.955 55.8481 217.069 53.2984 214.834 50.9519C212.598 48.5263 209.967 46.494 206.952 44.8533C203.914 43.2001 200.451 42.0166 196.581 41.2856C192.702 40.5417 188.395 40.4397 183.677 40.9526C178.522 41.513 173.854 42.7499 169.689 44.6815C165.555 46.5597 161.91 48.9462 158.768 51.8458C155.643 54.7293 152.993 57.9999 150.822 61.6542ZM202.708 100.287L202.704 100.295L202.701 100.303C201.752 102.88 200.455 105.214 198.81 107.312C197.188 109.383 195.187 111.126 192.793 112.541C190.464 113.917 187.631 114.81 184.254 115.177C181.818 115.442 179.457 115.305 177.164 114.771C174.943 114.205 172.919 113.2 171.08 111.745C169.271 110.313 167.718 108.374 166.443 105.881C165.181 103.387 164.33 100.309 163.927 96.6093C163.695 94.4779 163.583 92.0941 163.596 89.4542C163.641 86.8047 163.886 84.1106 164.33 81.3714C164.809 78.6473 165.533 75.9696 166.503 73.3374C167.486 70.7172 168.8 68.3842 170.443 66.3288L170.448 66.3232L170.452 66.3175C172.075 64.247 174.076 62.504 176.47 61.0891C178.799 59.7124 181.631 58.8197 185.009 58.4526C187.442 58.1881 189.781 58.3458 192.034 58.9182L192.048 58.9218L192.062 58.9251C194.313 59.4507 196.349 60.4342 198.182 61.8848C199.993 63.3173 201.546 65.2585 202.822 67.7535C204.076 70.2045 204.928 73.2792 205.335 77.0203C205.567 79.1462 205.662 81.5478 205.616 84.2298L205.616 84.2389L205.616 84.2481C205.604 86.8471 205.358 89.5159 204.877 92.2559L204.875 92.2653L204.874 92.2748C204.433 94.9858 203.712 97.6561 202.708 100.287ZM241.522 36.7948L240.275 36.9303L240.188 38.1816L234.239 123.481L234.114 125.271L235.897 125.077L253.16 123.2L254.413 123.064L254.494 121.806L256.089 97.2226L263.851 87.5108L283.648 119.036L284.147 119.831L285.08 119.73L304.437 117.626L306.872 117.361L305.529 115.312L276.52 71.053L306.654 32.2721L308.825 29.4781L305.307 29.8605L283.744 32.2048L283.104 32.2744L282.713 32.7865L257.898 65.3311L260.215 36.5544L260.361 34.7468L258.558 34.9428L241.522 36.7948ZM331.292 27.0933L330.084 27.2245L329.961 28.433L327.75 50.2109L327.741 50.2996L327.743 50.3888L328.439 89.9329L328.468 91.5752L330.101 91.3977L338.534 90.4809L339.614 90.3635L339.839 89.3004L348.425 48.7472L348.442 48.6683L348.45 48.588L350.661 26.8101L350.848 24.9672L349.007 25.1674L331.292 27.0933ZM324.791 95.7525L323.58 95.8841L323.461 97.0962L321.798 113.92L321.617 115.758L323.453 115.558L340.319 113.725L341.53 113.593L341.65 112.381L343.312 95.5577L343.494 93.7193L341.657 93.919L324.791 95.7525Z" fill="url(#paint0_linear)"/>
<path d="M40.8285 58.6128L39.5832 58.7482L39.4944 59.9977L33.4322 145.31L33.3048 147.101L35.0905 146.907L128.136 136.792L129.381 136.657L129.47 135.408L135.589 50.0899L135.718 48.2971L133.931 48.4914L117.574 50.2695L116.328 50.405L116.24 51.6553L111.353 120.972L92.312 123.042L97.2163 54.2609L97.3441 52.4688L95.558 52.663L79.2014 54.4412L77.9554 54.5766L77.8673 55.8269L72.9798 125.143L53.9942 127.207L58.8435 58.4314L58.9698 56.6406L57.1851 56.8346L40.8285 58.6128ZM150.822 61.6542L150.816 61.6638C148.698 65.2893 147.015 69.124 145.768 73.1655C144.523 77.2018 143.72 81.3468 143.361 85.5985C142.998 89.8001 143.038 93.9432 143.483 98.0261C143.786 100.811 144.352 103.656 145.177 106.56L145.18 106.571L145.184 106.582C146.052 109.471 147.228 112.283 148.708 115.017L148.712 115.025L148.717 115.032C150.247 117.782 152.114 120.35 154.313 122.738L154.321 122.747L154.33 122.756C156.598 125.136 159.242 127.144 162.253 128.783L162.262 128.787C165.332 130.432 168.79 131.615 172.623 132.35C176.503 133.094 180.83 133.194 185.585 132.677C190.741 132.117 195.409 130.88 199.573 128.948C203.708 127.07 207.352 124.683 210.495 121.784C213.62 118.899 216.252 115.629 218.387 111.976C220.544 108.346 222.246 104.508 223.494 100.464C224.739 96.4293 225.544 92.3039 225.908 88.0898L225.908 88.0871C226.266 83.8487 226.224 79.687 225.78 75.6036C225.476 72.8152 224.89 69.9694 224.026 67.0673C223.189 64.1257 222.009 61.3028 220.487 58.6003C218.955 55.8481 217.069 53.2984 214.834 50.9519C212.598 48.5263 209.967 46.494 206.952 44.8533C203.914 43.2001 200.451 42.0166 196.581 41.2856C192.702 40.5417 188.395 40.4397 183.677 40.9526C178.522 41.513 173.854 42.7499 169.689 44.6815C165.555 46.5597 161.91 48.9462 158.768 51.8458C155.643 54.7293 152.993 57.9999 150.822 61.6542ZM202.708 100.287L202.704 100.295L202.701 100.303C201.752 102.88 200.455 105.214 198.81 107.312C197.188 109.383 195.187 111.126 192.793 112.541C190.464 113.917 187.631 114.81 184.254 115.177C181.818 115.442 179.457 115.305 177.164 114.771C174.943 114.205 172.919 113.2 171.08 111.745C169.271 110.313 167.718 108.374 166.443 105.881C165.181 103.387 164.33 100.309 163.927 96.6093C163.695 94.4779 163.583 92.0941 163.596 89.4542C163.641 86.8047 163.886 84.1106 164.33 81.3714C164.809 78.6473 165.533 75.9696 166.503 73.3374C167.486 70.7172 168.8 68.3842 170.443 66.3288L170.448 66.3232L170.452 66.3175C172.075 64.247 174.076 62.504 176.47 61.0891C178.799 59.7124 181.631 58.8197 185.009 58.4526C187.442 58.1881 189.781 58.3458 192.034 58.9182L192.048 58.9218L192.062 58.9251C194.313 59.4507 196.349 60.4342 198.182 61.8848C199.993 63.3173 201.546 65.2585 202.822 67.7535C204.076 70.2045 204.928 73.2792 205.335 77.0203C205.567 79.1462 205.662 81.5478 205.616 84.2298L205.616 84.2389L205.616 84.2481C205.604 86.8471 205.358 89.5159 204.877 92.2559L204.875 92.2653L204.874 92.2748C204.433 94.9858 203.712 97.6561 202.708 100.287ZM241.522 36.7948L240.275 36.9303L240.188 38.1816L234.239 123.481L234.114 125.271L235.897 125.077L253.16 123.2L254.413 123.064L254.494 121.806L256.089 97.2226L263.851 87.5108L283.648 119.036L284.147 119.831L285.08 119.73L304.437 117.626L306.872 117.361L305.529 115.312L276.52 71.053L306.654 32.2721L308.825 29.4781L305.307 29.8605L283.744 32.2048L283.104 32.2744L282.713 32.7865L257.898 65.3311L260.215 36.5544L260.361 34.7468L258.558 34.9428L241.522 36.7948ZM331.292 27.0933L330.084 27.2245L329.961 28.433L327.75 50.2109L327.741 50.2996L327.743 50.3888L328.439 89.9329L328.468 91.5752L330.101 91.3977L338.534 90.4809L339.614 90.3635L339.839 89.3004L348.425 48.7472L348.442 48.6683L348.45 48.588L350.661 26.8101L350.848 24.9672L349.007 25.1674L331.292 27.0933ZM324.791 95.7525L323.58 95.8841L323.461 97.0962L321.798 113.92L321.617 115.758L323.453 115.558L340.319 113.725L341.53 113.593L341.65 112.381L343.312 95.5577L343.494 93.7193L341.657 93.919L324.791 95.7525Z" stroke="black" stroke-width="3"/>
<defs>
<linearGradient id="paint0_linear" x1="194.121" y1="61.6352" x2="212.742" y2="232.92" gradientUnits="userSpaceOnUse">
<stop stop-color="#EBFF00"/>
<stop offset="0.520833" stop-color="white"/>
<stop offset="1" stop-color="white"/>
</linearGradient>
</defs>
</svg>
