<svg width="322" height="126" viewBox="0 0 322 126" fill="none" xmlns="http://www.w3.org/2000/svg">
<path d="M9.82851 35.6148L8.58319 35.7502L8.4944 36.9997L2.43215 122.312L2.30484 124.103L4.09049 123.909L97.1363 113.794L98.3808 113.658L98.4704 112.41L104.589 27.0918L104.718 25.2991L102.931 25.4933L86.5743 27.2715L85.3283 27.407L85.2402 28.6572L80.3528 97.9736L61.312 100.044L66.2163 31.2629L66.3441 29.4708L64.558 29.665L48.2014 31.4431L46.9554 31.5786L46.8673 32.8289L41.9798 102.145L22.9942 104.209L27.8435 35.4333L27.9698 33.6426L26.1851 33.8366L9.82851 35.6148ZM119.822 38.6562L119.816 38.6658C117.698 42.2913 116.015 46.126 114.768 50.1675C113.523 54.2038 112.72 58.3488 112.361 62.6005C111.998 66.8021 112.038 70.9451 112.483 75.028C112.786 77.8125 113.352 80.6576 114.177 83.5621L114.18 83.5729L114.184 83.5838C115.052 86.4732 116.228 89.2852 117.708 92.0188L117.712 92.0265L117.717 92.0341C119.247 94.7837 121.114 97.3523 123.313 99.7395L123.321 99.7489L123.33 99.7581C125.598 102.138 128.242 104.146 131.253 105.784L131.262 105.789C134.332 107.434 137.79 108.616 141.623 109.352C145.503 110.096 149.83 110.196 154.585 109.679C159.741 109.119 164.409 107.882 168.573 105.95C172.708 104.072 176.352 101.685 179.495 98.7858C182.62 95.9014 185.252 92.6311 187.387 88.978C189.544 85.3478 191.246 81.5097 192.494 77.4661C193.739 73.4312 194.544 69.3059 194.908 65.0917L194.908 65.0891C195.266 60.8507 195.224 56.689 194.78 52.6055C194.476 49.8172 193.89 46.9714 193.026 44.0693C192.189 41.1276 191.009 38.3047 189.487 35.6022C187.955 32.8501 186.069 30.3004 183.834 27.9539C181.598 25.5282 178.967 23.4959 175.952 21.8553C172.914 20.2021 169.451 19.0185 165.581 18.2875C161.702 17.5436 157.395 17.4416 152.677 17.9545C147.522 18.515 142.854 19.7519 138.689 21.6835C134.555 23.5617 130.91 25.9482 127.768 28.8478C124.643 31.7312 121.993 35.0019 119.822 38.6562ZM171.708 77.2887L171.704 77.2968L171.701 77.305C170.752 79.8818 169.455 82.2159 167.81 84.3141C166.188 86.3846 164.187 88.1276 161.793 89.5425C159.464 90.9192 156.631 91.8119 153.254 92.179C150.818 92.4438 148.457 92.3067 146.164 91.7729C143.943 91.2067 141.919 90.2016 140.08 88.7468C138.271 87.3152 136.718 85.3756 135.443 82.8829C134.181 80.389 133.33 77.311 132.927 73.6113C132.695 71.4799 132.583 69.096 132.596 66.4561C132.641 63.8066 132.886 61.1125 133.33 58.3733C133.809 55.6493 134.533 52.9716 135.503 50.3393C136.486 47.7191 137.8 45.3861 139.443 43.3307L139.448 43.3251L139.452 43.3195C141.075 41.249 143.076 39.506 145.47 38.0911C147.799 36.7144 150.631 35.8217 154.009 35.4545C156.442 35.19 158.781 35.3477 161.034 35.9201L161.048 35.9237L161.062 35.927C163.313 36.4526 165.349 37.4361 167.182 38.8867C168.993 40.3192 170.546 42.2605 171.822 44.7554C173.076 47.2065 173.928 50.2812 174.335 54.0223C174.567 56.1482 174.662 58.5498 174.616 61.2317L174.616 61.2409L174.616 61.2501C174.604 63.849 174.358 66.5179 173.877 69.2578L173.875 69.2673L173.874 69.2767C173.433 71.9878 172.712 74.658 171.708 77.2887ZM210.522 13.7967L209.275 13.9323L209.188 15.1836L203.239 100.483L203.114 102.273L204.897 102.079L222.16 100.202L223.413 100.066L223.494 98.808L225.089 74.2245L232.851 64.5128L252.648 96.0384L253.147 96.8333L254.08 96.7319L273.437 94.6276L275.872 94.3628L274.529 92.3141L245.52 48.055L275.654 9.27404L277.825 6.48006L274.307 6.86247L252.744 9.2067L252.104 9.2763L251.713 9.78841L226.898 42.333L229.215 13.5563L229.361 11.7487L227.558 11.9447L210.522 13.7967ZM300.292 4.09522L299.084 4.22649L298.961 5.43492L296.75 27.2128L296.741 27.3015L296.743 27.3907L297.439 66.9349L297.468 68.5772L299.101 68.3997L307.534 67.4829L308.614 67.3655L308.839 66.3024L317.425 25.7492L317.442 25.6702L317.45 25.59L319.661 3.8121L319.848 1.96917L318.007 2.16937L300.292 4.09522ZM293.791 72.7545L292.58 72.8861L292.461 74.0982L290.798 90.9215L290.617 92.7599L292.453 92.5602L309.319 90.7267L310.53 90.595L310.65 89.383L312.312 72.5596L312.494 70.7213L310.657 70.9209L293.791 72.7545Z" fill="white"/>
<path d="M9.82851 35.6148L8.58319 35.7502L8.4944 36.9997L2.43215 122.312L2.30484 124.103L4.09049 123.909L97.1363 113.794L98.3808 113.658L98.4704 112.41L104.589 27.0918L104.718 25.2991L102.931 25.4933L86.5743 27.2715L85.3283 27.407L85.2402 28.6572L80.3528 97.9736L61.312 100.044L66.2163 31.2629L66.3441 29.4708L64.558 29.665L48.2014 31.4431L46.9554 31.5786L46.8673 32.8289L41.9798 102.145L22.9942 104.209L27.8435 35.4333L27.9698 33.6426L26.1851 33.8366L9.82851 35.6148ZM119.822 38.6562L119.816 38.6658C117.698 42.2913 116.015 46.126 114.768 50.1675C113.523 54.2038 112.72 58.3488 112.361 62.6005C111.998 66.8021 112.038 70.9451 112.483 75.028C112.786 77.8125 113.352 80.6576 114.177 83.5621L114.18 83.5729L114.184 83.5838C115.052 86.4732 116.228 89.2852 117.708 92.0188L117.712 92.0265L117.717 92.0341C119.247 94.7837 121.114 97.3523 123.313 99.7395L123.321 99.7489L123.33 99.7581C125.598 102.138 128.242 104.146 131.253 105.784L131.262 105.789C134.332 107.434 137.79 108.616 141.623 109.352C145.503 110.096 149.83 110.196 154.585 109.679C159.741 109.119 164.409 107.882 168.573 105.95C172.708 104.072 176.352 101.685 179.495 98.7858C182.62 95.9014 185.252 92.6311 187.387 88.978C189.544 85.3478 191.246 81.5097 192.494 77.4661C193.739 73.4312 194.544 69.3059 194.908 65.0917L194.908 65.0891C195.266 60.8507 195.224 56.689 194.78 52.6055C194.476 49.8172 193.89 46.9714 193.026 44.0693C192.189 41.1276 191.009 38.3047 189.487 35.6022C187.955 32.8501 186.069 30.3004 183.834 27.9539C181.598 25.5282 178.967 23.4959 175.952 21.8553C172.914 20.2021 169.451 19.0185 165.581 18.2875C161.702 17.5436 157.395 17.4416 152.677 17.9545C147.522 18.515 142.854 19.7519 138.689 21.6835C134.555 23.5617 130.91 25.9482 127.768 28.8478C124.643 31.7312 121.993 35.0019 119.822 38.6562ZM171.708 77.2887L171.704 77.2968L171.701 77.305C170.752 79.8818 169.455 82.2159 167.81 84.3141C166.188 86.3846 164.187 88.1276 161.793 89.5425C159.464 90.9192 156.631 91.8119 153.254 92.179C150.818 92.4438 148.457 92.3067 146.164 91.7729C143.943 91.2067 141.919 90.2016 140.08 88.7468C138.271 87.3152 136.718 85.3756 135.443 82.8829C134.181 80.389 133.33 77.311 132.927 73.6113C132.695 71.4799 132.583 69.096 132.596 66.4561C132.641 63.8066 132.886 61.1125 133.33 58.3733C133.809 55.6493 134.533 52.9716 135.503 50.3393C136.486 47.7191 137.8 45.3861 139.443 43.3307L139.448 43.3251L139.452 43.3195C141.075 41.249 143.076 39.506 145.47 38.0911C147.799 36.7144 150.631 35.8217 154.009 35.4545C156.442 35.19 158.781 35.3477 161.034 35.9201L161.048 35.9237L161.062 35.927C163.313 36.4526 165.349 37.4361 167.182 38.8867C168.993 40.3192 170.546 42.2605 171.822 44.7554C173.076 47.2065 173.928 50.2812 174.335 54.0223C174.567 56.1482 174.662 58.5498 174.616 61.2317L174.616 61.2409L174.616 61.2501C174.604 63.849 174.358 66.5179 173.877 69.2578L173.875 69.2673L173.874 69.2767C173.433 71.9878 172.712 74.658 171.708 77.2887ZM210.522 13.7967L209.275 13.9323L209.188 15.1836L203.239 100.483L203.114 102.273L204.897 102.079L222.16 100.202L223.413 100.066L223.494 98.808L225.089 74.2245L232.851 64.5128L252.648 96.0384L253.147 96.8333L254.08 96.7319L273.437 94.6276L275.872 94.3628L274.529 92.3141L245.52 48.055L275.654 9.27404L277.825 6.48006L274.307 6.86247L252.744 9.2067L252.104 9.2763L251.713 9.78841L226.898 42.333L229.215 13.5563L229.361 11.7487L227.558 11.9447L210.522 13.7967ZM300.292 4.09522L299.084 4.22649L298.961 5.43492L296.75 27.2128L296.741 27.3015L296.743 27.3907L297.439 66.9349L297.468 68.5772L299.101 68.3997L307.534 67.4829L308.614 67.3655L308.839 66.3024L317.425 25.7492L317.442 25.6702L317.45 25.59L319.661 3.8121L319.848 1.96917L318.007 2.16937L300.292 4.09522ZM293.791 72.7545L292.58 72.8861L292.461 74.0982L290.798 90.9215L290.617 92.7599L292.453 92.5602L309.319 90.7267L310.53 90.595L310.65 89.383L312.312 72.5596L312.494 70.7213L310.657 70.9209L293.791 72.7545Z" fill="url(#paint0_linear)"/>
<path d="M9.82851 35.6148L8.58319 35.7502L8.4944 36.9997L2.43215 122.312L2.30484 124.103L4.09049 123.909L97.1363 113.794L98.3808 113.658L98.4704 112.41L104.589 27.0918L104.718 25.2991L102.931 25.4933L86.5743 27.2715L85.3283 27.407L85.2402 28.6572L80.3528 97.9736L61.312 100.044L66.2163 31.2629L66.3441 29.4708L64.558 29.665L48.2014 31.4431L46.9554 31.5786L46.8673 32.8289L41.9798 102.145L22.9942 104.209L27.8435 35.4333L27.9698 33.6426L26.1851 33.8366L9.82851 35.6148ZM119.822 38.6562L119.816 38.6658C117.698 42.2913 116.015 46.126 114.768 50.1675C113.523 54.2038 112.72 58.3488 112.361 62.6005C111.998 66.8021 112.038 70.9451 112.483 75.028C112.786 77.8125 113.352 80.6576 114.177 83.5621L114.18 83.5729L114.184 83.5838C115.052 86.4732 116.228 89.2852 117.708 92.0188L117.712 92.0265L117.717 92.0341C119.247 94.7837 121.114 97.3523 123.313 99.7395L123.321 99.7489L123.33 99.7581C125.598 102.138 128.242 104.146 131.253 105.784L131.262 105.789C134.332 107.434 137.79 108.616 141.623 109.352C145.503 110.096 149.83 110.196 154.585 109.679C159.741 109.119 164.409 107.882 168.573 105.95C172.708 104.072 176.352 101.685 179.495 98.7858C182.62 95.9014 185.252 92.6311 187.387 88.978C189.544 85.3478 191.246 81.5097 192.494 77.4661C193.739 73.4312 194.544 69.3059 194.908 65.0917L194.908 65.0891C195.266 60.8507 195.224 56.689 194.78 52.6055C194.476 49.8172 193.89 46.9714 193.026 44.0693C192.189 41.1276 191.009 38.3047 189.487 35.6022C187.955 32.8501 186.069 30.3004 183.834 27.9539C181.598 25.5282 178.967 23.4959 175.952 21.8553C172.914 20.2021 169.451 19.0185 165.581 18.2875C161.702 17.5436 157.395 17.4416 152.677 17.9545C147.522 18.515 142.854 19.7519 138.689 21.6835C134.555 23.5617 130.91 25.9482 127.768 28.8478C124.643 31.7312 121.993 35.0019 119.822 38.6562ZM171.708 77.2887L171.704 77.2968L171.701 77.305C170.752 79.8818 169.455 82.2159 167.81 84.3141C166.188 86.3846 164.187 88.1276 161.793 89.5425C159.464 90.9192 156.631 91.8119 153.254 92.179C150.818 92.4438 148.457 92.3067 146.164 91.7729C143.943 91.2067 141.919 90.2016 140.08 88.7468C138.271 87.3152 136.718 85.3756 135.443 82.8829C134.181 80.389 133.33 77.311 132.927 73.6113C132.695 71.4799 132.583 69.096 132.596 66.4561C132.641 63.8066 132.886 61.1125 133.33 58.3733C133.809 55.6493 134.533 52.9716 135.503 50.3393C136.486 47.7191 137.8 45.3861 139.443 43.3307L139.448 43.3251L139.452 43.3195C141.075 41.249 143.076 39.506 145.47 38.0911C147.799 36.7144 150.631 35.8217 154.009 35.4545C156.442 35.19 158.781 35.3477 161.034 35.9201L161.048 35.9237L161.062 35.927C163.313 36.4526 165.349 37.4361 167.182 38.8867C168.993 40.3192 170.546 42.2605 171.822 44.7554C173.076 47.2065 173.928 50.2812 174.335 54.0223C174.567 56.1482 174.662 58.5498 174.616 61.2317L174.616 61.2409L174.616 61.2501C174.604 63.849 174.358 66.5179 173.877 69.2578L173.875 69.2673L173.874 69.2767C173.433 71.9878 172.712 74.658 171.708 77.2887ZM210.522 13.7967L209.275 13.9323L209.188 15.1836L203.239 100.483L203.114 102.273L204.897 102.079L222.16 100.202L223.413 100.066L223.494 98.808L225.089 74.2245L232.851 64.5128L252.648 96.0384L253.147 96.8333L254.08 96.7319L273.437 94.6276L275.872 94.3628L274.529 92.3141L245.52 48.055L275.654 9.27404L277.825 6.48006L274.307 6.86247L252.744 9.2067L252.104 9.2763L251.713 9.78841L226.898 42.333L229.215 13.5563L229.361 11.7487L227.558 11.9447L210.522 13.7967ZM300.292 4.09522L299.084 4.22649L298.961 5.43492L296.75 27.2128L296.741 27.3015L296.743 27.3907L297.439 66.9349L297.468 68.5772L299.101 68.3997L307.534 67.4829L308.614 67.3655L308.839 66.3024L317.425 25.7492L317.442 25.6702L317.45 25.59L319.661 3.8121L319.848 1.96917L318.007 2.16937L300.292 4.09522ZM293.791 72.7545L292.58 72.8861L292.461 74.0982L290.798 90.9215L290.617 92.7599L292.453 92.5602L309.319 90.7267L310.53 90.595L310.65 89.383L312.312 72.5596L312.494 70.7213L310.657 70.9209L293.791 72.7545Z" stroke="black" stroke-width="3"/>
<defs>
<linearGradient id="paint0_linear" x1="163.121" y1="38.6372" x2="181.742" y2="209.922" gradientUnits="userSpaceOnUse">
<stop stop-color="#EBFF00"/>
<stop offset="0.520833" stop-color="white"/>
<stop offset="1" stop-color="white"/>
</linearGradient>
</defs>
</svg>
