<svg width="348" height="340" viewBox="0 0 348 340" fill="none" xmlns="http://www.w3.org/2000/svg">
<path d="M223.287 51.4587L221.639 115.569L286.855 104.262L246.35 154.005L307.225 182.011L243.336 198.385L276.617 255.006L213.748 231.758L206.722 295.367L168.886 241.377L124.238 287.678L125.887 223.567L60.6712 234.874L101.175 185.132L40.3012 157.126L104.189 140.751L70.909 84.1302L133.778 107.378L140.804 43.769L178.64 97.7592L223.287 51.4587Z" fill="#EBFC1D"/>
<path d="M184.352 159.766C183.594 158.623 182.69 157.581 181.642 156.638C180.589 155.659 179.377 154.865 178.013 154.254C176.636 153.638 175.093 153.241 173.39 153.054C171.681 152.862 169.81 152.963 167.785 153.343C165.571 153.759 163.589 154.452 161.847 155.43C160.118 156.383 158.617 157.541 157.351 158.905C156.094 160.26 155.055 161.767 154.236 163.424L154.234 163.429C153.438 165.071 152.838 166.788 152.434 168.58C152.03 170.37 151.822 172.191 151.809 174.044C151.793 175.874 151.95 177.666 152.279 179.419C152.504 180.615 152.845 181.829 153.3 183.059L153.3 183.059L153.304 183.069C153.777 184.293 154.382 185.472 155.115 186.607L155.115 186.607L155.12 186.615C155.877 187.756 156.773 188.807 157.806 189.768L157.806 189.769L157.816 189.777C158.882 190.735 160.098 191.518 161.461 192.128L161.465 192.13C162.854 192.741 164.395 193.138 166.082 193.328C167.792 193.52 169.671 193.418 171.713 193.034C173.926 192.619 175.909 191.926 177.651 190.947C179.38 189.994 180.88 188.837 182.146 187.473C183.404 186.118 184.435 184.611 185.238 182.956C186.05 181.311 186.659 179.591 187.063 177.798C187.467 176.009 187.677 174.196 187.693 172.359L187.693 172.358C187.706 170.512 187.548 168.712 187.218 166.959C186.993 165.76 186.643 164.547 186.172 163.319C185.71 162.071 185.103 160.887 184.352 159.766ZM184.352 159.766C184.352 159.766 184.351 159.765 184.351 159.765L183.728 160.182L184.353 159.768C184.353 159.767 184.352 159.767 184.352 159.766ZM106.772 165.737L106.157 165.852L106.161 166.479L106.4 203.472L106.405 204.37L107.288 204.204L147.075 196.73L147.691 196.615L147.687 195.989L147.472 158.991L147.467 158.092L146.584 158.258L139.59 159.572L138.974 159.688L138.978 160.314L139.188 190.286L131.248 191.777L131.064 162.073L131.058 161.175L130.175 161.34L123.181 162.654L122.565 162.77L122.569 163.397L122.779 193.368L114.863 194.855L114.655 165.155L114.649 164.257L113.766 164.423L106.772 165.737ZM177.897 178.365L177.895 178.374C177.575 179.507 177.098 180.547 176.465 181.498C175.841 182.434 175.046 183.244 174.071 183.927C173.126 184.589 171.949 185.064 170.516 185.333C169.485 185.527 168.475 185.546 167.48 185.395C166.518 185.227 165.625 184.867 164.795 184.309C163.981 183.761 163.256 182.988 162.628 181.966C162.009 180.946 161.543 179.659 161.247 178.086C161.077 177.18 160.949 176.159 160.866 175.024C160.798 173.885 160.813 172.72 160.913 171.529C161.028 170.345 161.249 169.172 161.577 168.011C161.911 166.858 162.395 165.818 163.029 164.886L163.029 164.886L163.033 164.88C163.656 163.944 164.452 163.134 165.427 162.45C166.371 161.789 167.549 161.314 168.982 161.044C170.011 160.851 171.012 160.841 171.991 161.011L171.998 161.012L172.005 161.013C172.979 161.162 173.875 161.513 174.702 162.069C175.517 162.616 176.242 163.39 176.87 164.413C177.484 165.415 177.951 166.7 178.25 168.291C178.42 169.195 178.541 170.223 178.611 171.378L178.612 171.387C178.693 172.503 178.676 173.656 178.561 174.848L178.561 174.848L178.56 174.858C178.461 176.035 178.241 177.204 177.897 178.365ZM192.591 149.28L191.975 149.396L191.98 150.023L192.267 187.007L192.274 187.904L193.155 187.739L200.537 186.352L201.156 186.236L201.148 185.606L201.014 174.982L203.939 170.679L213.446 183.498L213.725 183.875L214.187 183.788L222.464 182.233L223.667 182.007L222.919 181.038L208.973 162.978L220.631 145.307L221.605 143.83L219.866 144.157L210.646 145.889L210.329 145.948L210.154 146.219L200.728 160.794L200.764 148.651L200.767 147.744L199.876 147.912L192.591 149.28ZM231.286 141.819L230.69 141.931L230.675 142.538L230.45 152.004L230.449 152.048L230.453 152.093L232.076 169.123L232.154 169.94L232.961 169.789L236.567 169.111L237.101 169.011L237.172 168.472L239.518 150.697L239.524 150.657L239.525 150.616L239.75 141.151L239.772 140.225L238.862 140.396L231.286 141.819ZM230.779 171.645L230.181 171.758L230.168 172.367L230.014 179.677L229.994 180.601L230.902 180.43L238.114 179.075L238.713 178.963L238.726 178.354L238.88 171.044L238.899 170.12L237.992 170.291L230.779 171.645Z" fill="#FF8BDD" stroke="black" stroke-width="1.5"/>
</svg>
