<svg width="394" height="146" viewBox="0 0 394 146" fill="none" xmlns="http://www.w3.org/2000/svg">
<rect x="12.8671" y="0.559733" width="383.701" height="96.4175" transform="rotate(7.33364 12.8671 0.559733)" fill="white" stroke="black"/>
<mask id="path-2-outside-1" maskUnits="userSpaceOnUse" x="18.3755" y="24.2891" width="364" height="101" fill="black">
<rect fill="white" x="18.3755" y="24.2891" width="364" height="101"/>
<path d="M62.7738 48.7859C62.9745 47.1478 62.889 45.6536 62.5172 44.3035C62.1486 42.9281 61.552 41.7422 60.7276 40.7459C59.9315 39.7275 58.9312 38.9142 57.7267 38.3062C56.5505 37.676 55.2441 37.2729 53.8076 37.0969C51.4386 36.8066 49.31 36.9551 47.4218 37.5423C45.5336 38.1295 43.8525 39.0107 42.3783 40.1858C40.9072 41.3357 39.6241 42.7261 38.5289 44.357C37.462 45.9658 36.5528 47.645 35.8012 49.3947C35.0748 51.1475 34.4886 52.9047 34.0425 54.6662C33.6248 56.4057 33.3263 58.0062 33.1472 59.468C32.9094 61.4085 32.9123 63.2635 33.156 65.0328C33.4248 66.8052 33.9972 68.3974 34.873 69.8093C35.774 71.2243 37.0098 72.4118 38.5805 73.3717C40.1764 74.3346 42.1715 74.9628 44.5657 75.2562C46.0022 75.4322 47.4099 75.4256 48.7889 75.2364C50.1961 75.0252 51.5162 74.5858 52.7491 73.9183C53.9851 73.2256 55.1118 72.2765 56.1293 71.0709C57.1467 69.8654 57.9981 68.3454 58.6833 66.5108L70.4779 67.956C69.3076 71.0358 67.8371 73.7462 66.0666 76.0873C64.3212 78.4315 62.282 80.356 59.9489 81.8607C57.644 83.3434 55.0609 84.3826 52.1996 84.9785C49.3383 85.5744 46.2318 85.6669 42.8799 85.2562C39.8052 84.8795 37.103 84.1774 34.7731 83.1501C32.4685 82.1259 30.4971 80.8867 28.8591 79.4325C27.221 77.9784 25.8723 76.355 24.813 74.5625C23.7819 72.7478 22.9884 70.8727 22.4326 68.9373C21.8767 67.0018 21.5382 65.0673 21.417 63.1339C21.3241 61.1784 21.3872 59.306 21.6065 57.5166C21.9307 54.8704 22.5211 52.244 23.3777 49.6374C24.2374 47.0057 25.3619 44.5087 26.7513 42.1464C28.1408 39.7842 29.7747 37.6182 31.6532 35.6485C33.557 33.6818 35.7039 32.0264 38.0941 30.6821C40.4844 29.3378 43.1212 28.3819 46.0046 27.8143C48.8911 27.2215 52.0103 27.1305 55.3622 27.5412C58.5124 27.9272 61.3456 28.7092 63.8616 29.8873C66.4028 31.0684 68.5151 32.619 70.1983 34.5392C71.8816 36.4593 73.0996 38.7318 73.8524 41.3565C74.6051 43.9812 74.7808 46.9317 74.3793 50.208L62.7738 48.7859Z"/>
<path d="M96.3584 43.6922L81.653 41.8902L84.6017 32.5437L123.993 37.3704L121.044 46.7169L107.964 45.1142L93.9722 90.097L82.3666 88.6749L96.3584 43.6922Z"/>
<path d="M132.498 38.4127L151.627 40.7566C155.231 41.1982 158.213 42.0113 160.575 43.196C162.965 44.3586 164.838 45.7776 166.193 47.4529C167.576 49.106 168.489 50.9446 168.932 52.9685C169.403 54.9704 169.509 57.0298 169.249 59.1468C168.863 62.297 168.039 65.061 166.775 67.4387C165.537 69.8194 163.866 71.7635 161.763 73.2708C159.66 74.7781 157.14 75.8251 154.203 76.4117C151.291 77.0014 147.97 77.0677 144.24 76.6107L133.089 75.2442L127.239 94.1733L115.633 92.7512L132.498 38.4127ZM136.042 65.8599L146.362 67.1245C148.202 67.3499 149.808 67.2909 151.18 66.9475C152.552 66.604 153.707 66.0548 154.644 65.2998C155.605 64.5479 156.357 63.6297 156.9 62.545C157.445 61.4351 157.796 60.2375 157.954 58.9522C158.08 57.9189 158.073 56.9332 157.932 55.995C157.82 55.0347 157.503 54.1773 156.981 53.4227C156.463 52.643 155.712 51.9882 154.728 51.4583C153.769 50.9316 152.521 50.574 150.984 50.3856L141.231 49.1905L136.042 65.8599Z"/>
<path d="M204.225 58.9815L204.074 58.963L189.672 80.9881L203.622 82.6974L204.225 58.9815ZM200.695 46.7691L214.267 48.432L214.489 104.864L203.034 103.461L203.352 92.4106L183.77 90.0111L177.101 100.283L164.778 98.773L200.695 46.7691Z"/>
<path d="M235.852 51.077L247.458 52.4991L241.013 73.1586L262.749 75.8221L269.232 55.1672L280.838 56.5893L263.898 110.919L252.254 109.492L259.872 85.2156L238.135 82.5521L230.517 106.828L218.912 105.406L235.852 51.077Z"/>
<path d="M277.908 102.736C279.172 103.274 280.209 103.683 281.019 103.961C281.855 104.242 282.675 104.433 283.482 104.531C285.019 104.72 286.274 104.707 287.247 104.494C288.245 104.284 289.042 103.934 289.639 103.444C290.24 102.929 290.674 102.305 290.943 101.57C291.238 100.839 291.439 100.032 291.547 99.15C291.661 98.2176 291.693 97.1215 291.643 95.8619C291.592 94.6023 291.458 93.0894 291.24 91.3231L287.227 57.3721L299.173 58.8358L301.474 90.4668L301.626 90.4854L320.834 61.4901L333.611 63.0557L301.347 106.222C300.032 107.979 298.7 109.453 297.352 110.644C296.032 111.812 294.627 112.74 293.136 113.427C291.645 114.114 290.057 114.546 288.372 114.723C286.685 114.926 284.833 114.904 282.817 114.656C282.237 114.585 281.612 114.47 280.941 114.311C280.295 114.156 279.628 113.959 278.941 113.721C278.276 113.512 277.614 113.277 276.955 113.017C276.318 112.786 275.721 112.546 275.163 112.299L277.908 102.736Z"/>
<path d="M343.111 109.536L354.376 110.916L350.732 121.559L339.466 120.178L343.111 109.536ZM351.077 67.383C354.689 65.8814 358.662 65.3962 362.997 65.9274C368.693 66.6253 372.961 68.5297 375.803 71.6407C378.67 74.7547 379.21 78.9136 377.421 84.1175C376.314 87.3073 374.564 89.894 372.172 91.8776C370.771 93.0872 368.353 94.556 364.918 96.2838L361.525 97.9785C359.698 98.9057 358.288 100.076 357.296 101.489C356.675 102.385 356.014 103.813 355.313 105.774L345.106 104.523C346.687 100.394 348.067 97.5829 349.248 96.0904C350.457 94.5758 352.778 92.9546 356.213 91.2267L359.691 89.4656C360.832 88.9149 361.818 88.281 362.648 87.5641C364.128 86.3386 365.147 84.9158 365.703 83.2957C366.341 81.4297 366.353 79.6661 365.738 78.0047C365.151 76.3212 363.371 75.2973 360.397 74.9329C357.473 74.5747 355.074 75.2655 353.198 77.0053C351.347 78.7483 350.067 80.6378 349.357 82.674L338.432 81.3353C341.152 74.3782 345.367 69.7274 351.077 67.383Z"/>
</mask>
<path d="M62.7738 48.7859C62.9745 47.1478 62.889 45.6536 62.5172 44.3035C62.1486 42.9281 61.552 41.7422 60.7276 40.7459C59.9315 39.7275 58.9312 38.9142 57.7267 38.3062C56.5505 37.676 55.2441 37.2729 53.8076 37.0969C51.4386 36.8066 49.31 36.9551 47.4218 37.5423C45.5336 38.1295 43.8525 39.0107 42.3783 40.1858C40.9072 41.3357 39.6241 42.7261 38.5289 44.357C37.462 45.9658 36.5528 47.645 35.8012 49.3947C35.0748 51.1475 34.4886 52.9047 34.0425 54.6662C33.6248 56.4057 33.3263 58.0062 33.1472 59.468C32.9094 61.4085 32.9123 63.2635 33.156 65.0328C33.4248 66.8052 33.9972 68.3974 34.873 69.8093C35.774 71.2243 37.0098 72.4118 38.5805 73.3717C40.1764 74.3346 42.1715 74.9628 44.5657 75.2562C46.0022 75.4322 47.4099 75.4256 48.7889 75.2364C50.1961 75.0252 51.5162 74.5858 52.7491 73.9183C53.9851 73.2256 55.1118 72.2765 56.1293 71.0709C57.1467 69.8654 57.9981 68.3454 58.6833 66.5108L70.4779 67.956C69.3076 71.0358 67.8371 73.7462 66.0666 76.0873C64.3212 78.4315 62.282 80.356 59.9489 81.8607C57.644 83.3434 55.0609 84.3826 52.1996 84.9785C49.3383 85.5744 46.2318 85.6669 42.8799 85.2562C39.8052 84.8795 37.103 84.1774 34.7731 83.1501C32.4685 82.1259 30.4971 80.8867 28.8591 79.4325C27.221 77.9784 25.8723 76.355 24.813 74.5625C23.7819 72.7478 22.9884 70.8727 22.4326 68.9373C21.8767 67.0018 21.5382 65.0673 21.417 63.1339C21.3241 61.1784 21.3872 59.306 21.6065 57.5166C21.9307 54.8704 22.5211 52.244 23.3777 49.6374C24.2374 47.0057 25.3619 44.5087 26.7513 42.1464C28.1408 39.7842 29.7747 37.6182 31.6532 35.6485C33.557 33.6818 35.7039 32.0264 38.0941 30.6821C40.4844 29.3378 43.1212 28.3819 46.0046 27.8143C48.8911 27.2215 52.0103 27.1305 55.3622 27.5412C58.5124 27.9272 61.3456 28.7092 63.8616 29.8873C66.4028 31.0684 68.5151 32.619 70.1983 34.5392C71.8816 36.4593 73.0996 38.7318 73.8524 41.3565C74.6051 43.9812 74.7808 46.9317 74.3793 50.208L62.7738 48.7859Z" fill="#D597C3"/>
<path d="M62.7738 48.7859C62.9745 47.1478 62.889 45.6536 62.5172 44.3035C62.1486 42.9281 61.552 41.7422 60.7276 40.7459C59.9315 39.7275 58.9312 38.9142 57.7267 38.3062C56.5505 37.676 55.2441 37.2729 53.8076 37.0969C51.4386 36.8066 49.31 36.9551 47.4218 37.5423C45.5336 38.1295 43.8525 39.0107 42.3783 40.1858C40.9072 41.3357 39.6241 42.7261 38.5289 44.357C37.462 45.9658 36.5528 47.645 35.8012 49.3947C35.0748 51.1475 34.4886 52.9047 34.0425 54.6662C33.6248 56.4057 33.3263 58.0062 33.1472 59.468C32.9094 61.4085 32.9123 63.2635 33.156 65.0328C33.4248 66.8052 33.9972 68.3974 34.873 69.8093C35.774 71.2243 37.0098 72.4118 38.5805 73.3717C40.1764 74.3346 42.1715 74.9628 44.5657 75.2562C46.0022 75.4322 47.4099 75.4256 48.7889 75.2364C50.1961 75.0252 51.5162 74.5858 52.7491 73.9183C53.9851 73.2256 55.1118 72.2765 56.1293 71.0709C57.1467 69.8654 57.9981 68.3454 58.6833 66.5108L70.4779 67.956C69.3076 71.0358 67.8371 73.7462 66.0666 76.0873C64.3212 78.4315 62.282 80.356 59.9489 81.8607C57.644 83.3434 55.0609 84.3826 52.1996 84.9785C49.3383 85.5744 46.2318 85.6669 42.8799 85.2562C39.8052 84.8795 37.103 84.1774 34.7731 83.1501C32.4685 82.1259 30.4971 80.8867 28.8591 79.4325C27.221 77.9784 25.8723 76.355 24.813 74.5625C23.7819 72.7478 22.9884 70.8727 22.4326 68.9373C21.8767 67.0018 21.5382 65.0673 21.417 63.1339C21.3241 61.1784 21.3872 59.306 21.6065 57.5166C21.9307 54.8704 22.5211 52.244 23.3777 49.6374C24.2374 47.0057 25.3619 44.5087 26.7513 42.1464C28.1408 39.7842 29.7747 37.6182 31.6532 35.6485C33.557 33.6818 35.7039 32.0264 38.0941 30.6821C40.4844 29.3378 43.1212 28.3819 46.0046 27.8143C48.8911 27.2215 52.0103 27.1305 55.3622 27.5412C58.5124 27.9272 61.3456 28.7092 63.8616 29.8873C66.4028 31.0684 68.5151 32.619 70.1983 34.5392C71.8816 36.4593 73.0996 38.7318 73.8524 41.3565C74.6051 43.9812 74.7808 46.9317 74.3793 50.208L62.7738 48.7859Z" fill="url(#paint0_linear)"/>
<path d="M96.3584 43.6922L81.653 41.8902L84.6017 32.5437L123.993 37.3704L121.044 46.7169L107.964 45.1142L93.9722 90.097L82.3666 88.6749L96.3584 43.6922Z" fill="#D597C3"/>
<path d="M96.3584 43.6922L81.653 41.8902L84.6017 32.5437L123.993 37.3704L121.044 46.7169L107.964 45.1142L93.9722 90.097L82.3666 88.6749L96.3584 43.6922Z" fill="url(#paint1_linear)"/>
<path d="M132.498 38.4127L151.627 40.7566C155.231 41.1982 158.213 42.0113 160.575 43.196C162.965 44.3586 164.838 45.7776 166.193 47.4529C167.576 49.106 168.489 50.9446 168.932 52.9685C169.403 54.9704 169.509 57.0298 169.249 59.1468C168.863 62.297 168.039 65.061 166.775 67.4387C165.537 69.8194 163.866 71.7635 161.763 73.2708C159.66 74.7781 157.14 75.8251 154.203 76.4117C151.291 77.0014 147.97 77.0677 144.24 76.6107L133.089 75.2442L127.239 94.1733L115.633 92.7512L132.498 38.4127ZM136.042 65.8599L146.362 67.1245C148.202 67.3499 149.808 67.2909 151.18 66.9475C152.552 66.604 153.707 66.0548 154.644 65.2998C155.605 64.5479 156.357 63.6297 156.9 62.545C157.445 61.4351 157.796 60.2375 157.954 58.9522C158.08 57.9189 158.073 56.9332 157.932 55.995C157.82 55.0347 157.503 54.1773 156.981 53.4227C156.463 52.643 155.712 51.9882 154.728 51.4583C153.769 50.9316 152.521 50.574 150.984 50.3856L141.231 49.1905L136.042 65.8599Z" fill="#D597C3"/>
<path d="M132.498 38.4127L151.627 40.7566C155.231 41.1982 158.213 42.0113 160.575 43.196C162.965 44.3586 164.838 45.7776 166.193 47.4529C167.576 49.106 168.489 50.9446 168.932 52.9685C169.403 54.9704 169.509 57.0298 169.249 59.1468C168.863 62.297 168.039 65.061 166.775 67.4387C165.537 69.8194 163.866 71.7635 161.763 73.2708C159.66 74.7781 157.14 75.8251 154.203 76.4117C151.291 77.0014 147.97 77.0677 144.24 76.6107L133.089 75.2442L127.239 94.1733L115.633 92.7512L132.498 38.4127ZM136.042 65.8599L146.362 67.1245C148.202 67.3499 149.808 67.2909 151.18 66.9475C152.552 66.604 153.707 66.0548 154.644 65.2998C155.605 64.5479 156.357 63.6297 156.9 62.545C157.445 61.4351 157.796 60.2375 157.954 58.9522C158.08 57.9189 158.073 56.9332 157.932 55.995C157.82 55.0347 157.503 54.1773 156.981 53.4227C156.463 52.643 155.712 51.9882 154.728 51.4583C153.769 50.9316 152.521 50.574 150.984 50.3856L141.231 49.1905L136.042 65.8599Z" fill="url(#paint2_linear)"/>
<path d="M204.225 58.9815L204.074 58.963L189.672 80.9881L203.622 82.6974L204.225 58.9815ZM200.695 46.7691L214.267 48.432L214.489 104.864L203.034 103.461L203.352 92.4106L183.77 90.0111L177.101 100.283L164.778 98.773L200.695 46.7691Z" fill="#D597C3"/>
<path d="M204.225 58.9815L204.074 58.963L189.672 80.9881L203.622 82.6974L204.225 58.9815ZM200.695 46.7691L214.267 48.432L214.489 104.864L203.034 103.461L203.352 92.4106L183.77 90.0111L177.101 100.283L164.778 98.773L200.695 46.7691Z" fill="url(#paint3_linear)"/>
<path d="M235.852 51.077L247.458 52.4991L241.013 73.1586L262.749 75.8221L269.232 55.1672L280.838 56.5893L263.898 110.919L252.254 109.492L259.872 85.2156L238.135 82.5521L230.517 106.828L218.912 105.406L235.852 51.077Z" fill="#D597C3"/>
<path d="M235.852 51.077L247.458 52.4991L241.013 73.1586L262.749 75.8221L269.232 55.1672L280.838 56.5893L263.898 110.919L252.254 109.492L259.872 85.2156L238.135 82.5521L230.517 106.828L218.912 105.406L235.852 51.077Z" fill="url(#paint4_linear)"/>
<path d="M277.908 102.736C279.172 103.274 280.209 103.683 281.019 103.961C281.855 104.242 282.675 104.433 283.482 104.531C285.019 104.72 286.274 104.707 287.247 104.494C288.245 104.284 289.042 103.934 289.639 103.444C290.24 102.929 290.674 102.305 290.943 101.57C291.238 100.839 291.439 100.032 291.547 99.15C291.661 98.2176 291.693 97.1215 291.643 95.8619C291.592 94.6023 291.458 93.0894 291.24 91.3231L287.227 57.3721L299.173 58.8358L301.474 90.4668L301.626 90.4854L320.834 61.4901L333.611 63.0557L301.347 106.222C300.032 107.979 298.7 109.453 297.352 110.644C296.032 111.812 294.627 112.74 293.136 113.427C291.645 114.114 290.057 114.546 288.372 114.723C286.685 114.926 284.833 114.904 282.817 114.656C282.237 114.585 281.612 114.47 280.941 114.311C280.295 114.156 279.628 113.959 278.941 113.721C278.276 113.512 277.614 113.277 276.955 113.017C276.318 112.786 275.721 112.546 275.163 112.299L277.908 102.736Z" fill="#D597C3"/>
<path d="M277.908 102.736C279.172 103.274 280.209 103.683 281.019 103.961C281.855 104.242 282.675 104.433 283.482 104.531C285.019 104.72 286.274 104.707 287.247 104.494C288.245 104.284 289.042 103.934 289.639 103.444C290.24 102.929 290.674 102.305 290.943 101.57C291.238 100.839 291.439 100.032 291.547 99.15C291.661 98.2176 291.693 97.1215 291.643 95.8619C291.592 94.6023 291.458 93.0894 291.24 91.3231L287.227 57.3721L299.173 58.8358L301.474 90.4668L301.626 90.4854L320.834 61.4901L333.611 63.0557L301.347 106.222C300.032 107.979 298.7 109.453 297.352 110.644C296.032 111.812 294.627 112.74 293.136 113.427C291.645 114.114 290.057 114.546 288.372 114.723C286.685 114.926 284.833 114.904 282.817 114.656C282.237 114.585 281.612 114.47 280.941 114.311C280.295 114.156 279.628 113.959 278.941 113.721C278.276 113.512 277.614 113.277 276.955 113.017C276.318 112.786 275.721 112.546 275.163 112.299L277.908 102.736Z" fill="url(#paint5_linear)"/>
<path d="M343.111 109.536L354.376 110.916L350.732 121.559L339.466 120.178L343.111 109.536ZM351.077 67.383C354.689 65.8814 358.662 65.3962 362.997 65.9274C368.693 66.6253 372.961 68.5297 375.803 71.6407C378.67 74.7547 379.21 78.9136 377.421 84.1175C376.314 87.3073 374.564 89.894 372.172 91.8776C370.771 93.0872 368.353 94.556 364.918 96.2838L361.525 97.9785C359.698 98.9057 358.288 100.076 357.296 101.489C356.675 102.385 356.014 103.813 355.313 105.774L345.106 104.523C346.687 100.394 348.067 97.5829 349.248 96.0904C350.457 94.5758 352.778 92.9546 356.213 91.2267L359.691 89.4656C360.832 88.9149 361.818 88.281 362.648 87.5641C364.128 86.3386 365.147 84.9158 365.703 83.2957C366.341 81.4297 366.353 79.6661 365.738 78.0047C365.151 76.3212 363.371 75.2973 360.397 74.9329C357.473 74.5747 355.074 75.2655 353.198 77.0053C351.347 78.7483 350.067 80.6378 349.357 82.674L338.432 81.3353C341.152 74.3782 345.367 69.7274 351.077 67.383Z" fill="#D597C3"/>
<path d="M343.111 109.536L354.376 110.916L350.732 121.559L339.466 120.178L343.111 109.536ZM351.077 67.383C354.689 65.8814 358.662 65.3962 362.997 65.9274C368.693 66.6253 372.961 68.5297 375.803 71.6407C378.67 74.7547 379.21 78.9136 377.421 84.1175C376.314 87.3073 374.564 89.894 372.172 91.8776C370.771 93.0872 368.353 94.556 364.918 96.2838L361.525 97.9785C359.698 98.9057 358.288 100.076 357.296 101.489C356.675 102.385 356.014 103.813 355.313 105.774L345.106 104.523C346.687 100.394 348.067 97.5829 349.248 96.0904C350.457 94.5758 352.778 92.9546 356.213 91.2267L359.691 89.4656C360.832 88.9149 361.818 88.281 362.648 87.5641C364.128 86.3386 365.147 84.9158 365.703 83.2957C366.341 81.4297 366.353 79.6661 365.738 78.0047C365.151 76.3212 363.371 75.2973 360.397 74.9329C357.473 74.5747 355.074 75.2655 353.198 77.0053C351.347 78.7483 350.067 80.6378 349.357 82.674L338.432 81.3353C341.152 74.3782 345.367 69.7274 351.077 67.383Z" fill="url(#paint6_linear)"/>
<path d="M62.7738 48.7859C62.9745 47.1478 62.889 45.6536 62.5172 44.3035C62.1486 42.9281 61.552 41.7422 60.7276 40.7459C59.9315 39.7275 58.9312 38.9142 57.7267 38.3062C56.5505 37.676 55.2441 37.2729 53.8076 37.0969C51.4386 36.8066 49.31 36.9551 47.4218 37.5423C45.5336 38.1295 43.8525 39.0107 42.3783 40.1858C40.9072 41.3357 39.6241 42.7261 38.5289 44.357C37.462 45.9658 36.5528 47.645 35.8012 49.3947C35.0748 51.1475 34.4886 52.9047 34.0425 54.6662C33.6248 56.4057 33.3263 58.0062 33.1472 59.468C32.9094 61.4085 32.9123 63.2635 33.156 65.0328C33.4248 66.8052 33.9972 68.3974 34.873 69.8093C35.774 71.2243 37.0098 72.4118 38.5805 73.3717C40.1764 74.3346 42.1715 74.9628 44.5657 75.2562C46.0022 75.4322 47.4099 75.4256 48.7889 75.2364C50.1961 75.0252 51.5162 74.5858 52.7491 73.9183C53.9851 73.2256 55.1118 72.2765 56.1293 71.0709C57.1467 69.8654 57.9981 68.3454 58.6833 66.5108L70.4779 67.956C69.3076 71.0358 67.8371 73.7462 66.0666 76.0873C64.3212 78.4315 62.282 80.356 59.9489 81.8607C57.644 83.3434 55.0609 84.3826 52.1996 84.9785C49.3383 85.5744 46.2318 85.6669 42.8799 85.2562C39.8052 84.8795 37.103 84.1774 34.7731 83.1501C32.4685 82.1259 30.4971 80.8867 28.8591 79.4325C27.221 77.9784 25.8723 76.355 24.813 74.5625C23.7819 72.7478 22.9884 70.8727 22.4326 68.9373C21.8767 67.0018 21.5382 65.0673 21.417 63.1339C21.3241 61.1784 21.3872 59.306 21.6065 57.5166C21.9307 54.8704 22.5211 52.244 23.3777 49.6374C24.2374 47.0057 25.3619 44.5087 26.7513 42.1464C28.1408 39.7842 29.7747 37.6182 31.6532 35.6485C33.557 33.6818 35.7039 32.0264 38.0941 30.6821C40.4844 29.3378 43.1212 28.3819 46.0046 27.8143C48.8911 27.2215 52.0103 27.1305 55.3622 27.5412C58.5124 27.9272 61.3456 28.7092 63.8616 29.8873C66.4028 31.0684 68.5151 32.619 70.1983 34.5392C71.8816 36.4593 73.0996 38.7318 73.8524 41.3565C74.6051 43.9812 74.7808 46.9317 74.3793 50.208L62.7738 48.7859Z" stroke="black" stroke-width="6" mask="url(#path-2-outside-1)"/>
<path d="M96.3584 43.6922L81.653 41.8902L84.6017 32.5437L123.993 37.3704L121.044 46.7169L107.964 45.1142L93.9722 90.097L82.3666 88.6749L96.3584 43.6922Z" stroke="black" stroke-width="6" mask="url(#path-2-outside-1)"/>
<path d="M132.498 38.4127L151.627 40.7566C155.231 41.1982 158.213 42.0113 160.575 43.196C162.965 44.3586 164.838 45.7776 166.193 47.4529C167.576 49.106 168.489 50.9446 168.932 52.9685C169.403 54.9704 169.509 57.0298 169.249 59.1468C168.863 62.297 168.039 65.061 166.775 67.4387C165.537 69.8194 163.866 71.7635 161.763 73.2708C159.66 74.7781 157.14 75.8251 154.203 76.4117C151.291 77.0014 147.97 77.0677 144.24 76.6107L133.089 75.2442L127.239 94.1733L115.633 92.7512L132.498 38.4127ZM136.042 65.8599L146.362 67.1245C148.202 67.3499 149.808 67.2909 151.18 66.9475C152.552 66.604 153.707 66.0548 154.644 65.2998C155.605 64.5479 156.357 63.6297 156.9 62.545C157.445 61.4351 157.796 60.2375 157.954 58.9522C158.08 57.9189 158.073 56.9332 157.932 55.995C157.82 55.0347 157.503 54.1773 156.981 53.4227C156.463 52.643 155.712 51.9882 154.728 51.4583C153.769 50.9316 152.521 50.574 150.984 50.3856L141.231 49.1905L136.042 65.8599Z" stroke="black" stroke-width="6" mask="url(#path-2-outside-1)"/>
<path d="M204.225 58.9815L204.074 58.963L189.672 80.9881L203.622 82.6974L204.225 58.9815ZM200.695 46.7691L214.267 48.432L214.489 104.864L203.034 103.461L203.352 92.4106L183.77 90.0111L177.101 100.283L164.778 98.773L200.695 46.7691Z" stroke="black" stroke-width="6" mask="url(#path-2-outside-1)"/>
<path d="M235.852 51.077L247.458 52.4991L241.013 73.1586L262.749 75.8221L269.232 55.1672L280.838 56.5893L263.898 110.919L252.254 109.492L259.872 85.2156L238.135 82.5521L230.517 106.828L218.912 105.406L235.852 51.077Z" stroke="black" stroke-width="6" mask="url(#path-2-outside-1)"/>
<path d="M277.908 102.736C279.172 103.274 280.209 103.683 281.019 103.961C281.855 104.242 282.675 104.433 283.482 104.531C285.019 104.72 286.274 104.707 287.247 104.494C288.245 104.284 289.042 103.934 289.639 103.444C290.24 102.929 290.674 102.305 290.943 101.57C291.238 100.839 291.439 100.032 291.547 99.15C291.661 98.2176 291.693 97.1215 291.643 95.8619C291.592 94.6023 291.458 93.0894 291.24 91.3231L287.227 57.3721L299.173 58.8358L301.474 90.4668L301.626 90.4854L320.834 61.4901L333.611 63.0557L301.347 106.222C300.032 107.979 298.7 109.453 297.352 110.644C296.032 111.812 294.627 112.74 293.136 113.427C291.645 114.114 290.057 114.546 288.372 114.723C286.685 114.926 284.833 114.904 282.817 114.656C282.237 114.585 281.612 114.47 280.941 114.311C280.295 114.156 279.628 113.959 278.941 113.721C278.276 113.512 277.614 113.277 276.955 113.017C276.318 112.786 275.721 112.546 275.163 112.299L277.908 102.736Z" stroke="black" stroke-width="6" mask="url(#path-2-outside-1)"/>
<path d="M343.111 109.536L354.376 110.916L350.732 121.559L339.466 120.178L343.111 109.536ZM351.077 67.383C354.689 65.8814 358.662 65.3962 362.997 65.9274C368.693 66.6253 372.961 68.5297 375.803 71.6407C378.67 74.7547 379.21 78.9136 377.421 84.1175C376.314 87.3073 374.564 89.894 372.172 91.8776C370.771 93.0872 368.353 94.556 364.918 96.2838L361.525 97.9785C359.698 98.9057 358.288 100.076 357.296 101.489C356.675 102.385 356.014 103.813 355.313 105.774L345.106 104.523C346.687 100.394 348.067 97.5829 349.248 96.0904C350.457 94.5758 352.778 92.9546 356.213 91.2267L359.691 89.4656C360.832 88.9149 361.818 88.281 362.648 87.5641C364.128 86.3386 365.147 84.9158 365.703 83.2957C366.341 81.4297 366.353 79.6661 365.738 78.0047C365.151 76.3212 363.371 75.2973 360.397 74.9329C357.473 74.5747 355.074 75.2655 353.198 77.0053C351.347 78.7483 350.067 80.6378 349.357 82.674L338.432 81.3353C341.152 74.3782 345.367 69.7274 351.077 67.383Z" stroke="black" stroke-width="6" mask="url(#path-2-outside-1)"/>
<defs>
<linearGradient id="paint0_linear" x1="216.817" y1="33.6201" x2="204.764" y2="131.98" gradientUnits="userSpaceOnUse">
<stop stop-color="#D597C3"/>
<stop offset="0.385417" stop-color="#D597C3"/>
</linearGradient>
<linearGradient id="paint1_linear" x1="216.817" y1="33.6201" x2="204.764" y2="131.98" gradientUnits="userSpaceOnUse">
<stop stop-color="#D597C3"/>
<stop offset="0.385417" stop-color="#D597C3"/>
</linearGradient>
<linearGradient id="paint2_linear" x1="216.817" y1="33.6201" x2="204.764" y2="131.98" gradientUnits="userSpaceOnUse">
<stop stop-color="#D597C3"/>
<stop offset="0.385417" stop-color="#D597C3"/>
</linearGradient>
<linearGradient id="paint3_linear" x1="216.817" y1="33.6201" x2="204.764" y2="131.98" gradientUnits="userSpaceOnUse">
<stop stop-color="#D597C3"/>
<stop offset="0.385417" stop-color="#D597C3"/>
</linearGradient>
<linearGradient id="paint4_linear" x1="216.817" y1="33.6201" x2="204.764" y2="131.98" gradientUnits="userSpaceOnUse">
<stop stop-color="#D597C3"/>
<stop offset="0.385417" stop-color="#D597C3"/>
</linearGradient>
<linearGradient id="paint5_linear" x1="216.817" y1="33.6201" x2="204.764" y2="131.98" gradientUnits="userSpaceOnUse">
<stop stop-color="#D597C3"/>
<stop offset="0.385417" stop-color="#D597C3"/>
</linearGradient>
<linearGradient id="paint6_linear" x1="216.817" y1="33.6201" x2="204.764" y2="131.98" gradientUnits="userSpaceOnUse">
<stop stop-color="#D597C3"/>
<stop offset="0.385417" stop-color="#D597C3"/>
</linearGradient>
</defs>
</svg>
