<svg width="685" height="475" viewBox="0 0 685 475" fill="none" xmlns="http://www.w3.org/2000/svg">
<rect x="31.1548" y="235.969" width="612.907" height="101.081" transform="rotate(-9.51027 31.1548 235.969)" fill="#EBFF00"/>
<mask id="path-2-outside-1" maskUnits="userSpaceOnUse" x="55" y="160" width="574" height="156" fill="black">
<rect fill="white" x="55" y="160" width="574" height="156"/>
<path d="M58.5151 256.463L95.189 250.169L95.1296 259.956L69.7545 264.31L69.715 276.915L92.988 272.921L92.9351 282.745L69.7371 286.726L69.6519 301.541L96.2657 296.974L96.2128 306.798L58 313.356L58.5151 256.463Z"/>
<path d="M118.874 230.338C118.989 230.859 119.203 231.351 119.514 231.812C119.846 232.245 120.294 232.606 120.859 232.895C121.449 233.181 122.191 233.375 123.084 233.48C123.999 233.554 125.107 233.48 126.408 233.257C127.509 233.068 128.535 232.815 129.485 232.497C130.431 232.154 131.276 231.752 132.021 231.289C132.791 230.822 133.434 230.287 133.948 229.683C134.459 229.054 134.814 228.349 135.015 227.568L138.619 226.949C138.61 228.703 138.32 230.311 137.747 231.775C137.169 233.213 136.382 234.482 135.386 235.58C134.385 236.654 133.199 237.553 131.83 238.277C130.48 238.973 129.018 239.456 127.441 239.726C125.064 240.134 123.142 240.194 121.675 239.904C120.209 239.615 119.046 239.067 118.186 238.262C117.322 237.431 116.681 236.395 116.261 235.153C115.863 233.882 115.533 232.483 115.271 230.956L118.874 230.338ZM105.662 248.371L117.186 246.394L116.674 284.39L116.824 284.364L137.944 242.831L150.256 240.718L149.666 297.624L138.104 299.609L139.968 260.028L139.817 260.054L116.821 303.261L104.997 305.29L105.662 248.371Z"/>
<path d="M182.463 235.191L204.047 231.487C207.55 230.886 210.571 230.702 213.111 230.936C215.65 231.17 217.79 231.782 219.531 232.771C221.268 233.735 222.627 235.048 223.607 236.709C224.588 238.37 225.271 240.326 225.658 242.578C225.903 244.005 225.949 245.401 225.797 246.766C225.666 248.103 225.319 249.386 224.757 250.616C224.216 251.817 223.443 252.941 222.438 253.989C221.454 255.009 220.231 255.914 218.77 256.706C219.894 257.105 220.928 257.572 221.869 258.106C222.807 258.615 223.639 259.258 224.365 260.035C225.086 260.787 225.689 261.675 226.174 262.7C226.684 263.72 227.055 264.906 227.287 266.257C227.764 269.035 227.739 271.59 227.211 273.921C226.68 276.228 225.667 278.283 224.173 280.085C222.679 281.887 220.724 283.407 218.309 284.646C215.89 285.86 213.016 286.753 209.688 287.324L181.948 292.084L182.463 235.191ZM193.525 280.282L207.676 277.854C209.428 277.553 210.859 277.037 211.97 276.305C213.081 275.574 213.943 274.743 214.557 273.813C215.17 272.884 215.558 271.915 215.72 270.909C215.882 269.902 215.888 268.961 215.738 268.085C215.536 266.909 215.164 265.942 214.622 265.185C214.075 264.403 213.392 263.799 212.572 263.373C211.776 262.942 210.857 262.688 209.813 262.61C208.769 262.531 207.646 262.595 206.445 262.801L193.683 264.991L193.525 280.282ZM193.738 255.63L207.026 253.35C209.754 252.882 211.73 251.937 212.954 250.516C214.175 249.07 214.589 247.209 214.199 244.931C214.022 243.905 213.689 243.087 213.197 242.475C212.731 241.86 212.138 241.408 211.419 241.119C210.725 240.826 209.927 240.68 209.025 240.68C208.119 240.655 207.166 240.728 206.165 240.9L193.852 243.013L193.738 255.63Z"/>
<path d="M272.575 238.777C272.296 237.151 271.784 235.744 271.039 234.558C270.29 233.347 269.378 232.383 268.302 231.666C267.246 230.92 266.054 230.429 264.726 230.193C263.418 229.928 262.051 229.918 260.624 230.163C258.272 230.567 256.276 231.321 254.637 232.427C252.997 233.533 251.641 234.86 250.567 236.41C249.489 237.935 248.661 239.635 248.081 241.512C247.522 243.36 247.135 245.23 246.918 247.122C246.727 249.01 246.671 250.861 246.751 252.677C246.851 254.463 247.026 256.081 247.275 257.533C247.606 259.46 248.143 261.235 248.885 262.86C249.653 264.48 250.659 265.84 251.904 266.94C253.174 268.036 254.699 268.818 256.48 269.285C258.285 269.748 260.377 269.775 262.754 269.367C264.18 269.123 265.527 268.711 266.793 268.133C268.08 267.526 269.218 266.725 270.206 265.731C271.191 264.712 271.997 263.479 272.624 262.032C273.252 260.584 273.63 258.884 273.758 256.93L285.47 254.92C285.235 258.206 284.607 261.225 283.585 263.976C282.588 266.724 281.189 269.154 279.387 271.266C277.606 273.349 275.432 275.088 272.863 276.482C270.294 277.876 267.345 278.858 264.017 279.43C260.964 279.954 258.174 280.059 255.647 279.745C253.145 279.428 250.901 278.808 248.914 277.887C246.926 276.966 245.168 275.799 243.637 274.387C242.128 272.946 240.828 271.379 239.739 269.685C238.65 267.991 237.769 266.236 237.096 264.419C236.444 262.573 235.966 260.762 235.661 258.985C235.21 256.357 235.02 253.672 235.09 250.929C235.156 248.162 235.515 245.447 236.166 242.784C236.816 240.122 237.758 237.578 238.99 235.151C240.248 232.719 241.827 230.516 243.73 228.541C245.632 226.566 247.882 224.892 250.48 223.518C253.074 222.12 256.035 221.135 259.363 220.564C262.492 220.027 265.43 219.961 268.178 220.365C270.952 220.765 273.421 221.642 275.586 222.997C277.75 224.351 279.571 226.177 281.047 228.474C282.523 230.771 283.54 233.546 284.099 236.8L272.575 238.777Z"/>
<path d="M293.573 216.123L330.247 209.829L330.187 219.616L304.812 223.971L304.773 236.575L328.046 232.581L327.993 242.405L304.795 246.386L304.71 261.201L331.324 256.634L331.271 266.458L293.058 273.016L293.573 216.123Z"/>
<path d="M361.966 204.385L380.959 201.126C384.538 200.512 387.629 200.432 390.231 200.887C392.855 201.313 395.057 202.133 396.836 203.347C398.637 204.532 400.041 206.031 401.047 207.842C402.074 209.623 402.768 211.565 403.129 213.667C403.666 216.795 403.671 219.68 403.145 222.32C402.645 224.957 401.604 227.299 400.023 229.348C398.443 231.397 396.331 233.125 393.687 234.532C391.068 235.934 387.907 236.953 384.203 237.589L373.13 239.489L372.974 259.301L361.451 261.279L361.966 204.385ZM373.258 229.652L383.505 227.893C385.332 227.58 386.853 227.061 388.068 226.337C389.284 225.614 390.231 224.755 390.911 223.763C391.616 222.766 392.072 221.67 392.279 220.475C392.482 219.255 392.474 218.007 392.255 216.731C392.079 215.705 391.788 214.763 391.384 213.905C390.999 213.018 390.449 212.288 389.733 211.715C389.012 211.118 388.104 210.707 387.009 210.482C385.939 210.254 384.641 210.271 383.115 210.533L373.43 212.195L373.258 229.652Z"/>
<path d="M436.578 203.444L436.428 203.47L428.973 228.708L442.824 226.331L436.578 203.444ZM429.683 192.764L443.159 190.451L459.61 244.433L448.236 246.385L445.361 235.71L425.917 239.047L422.486 250.804L410.249 252.904L429.683 192.764Z"/>
<path d="M464.517 186.786L486.101 183.082C489.605 182.481 492.626 182.297 495.165 182.531C497.704 182.765 499.844 183.377 501.585 184.366C503.322 185.33 504.681 186.643 505.662 188.304C506.642 189.964 507.326 191.921 507.712 194.173C507.957 195.599 508.003 196.996 507.851 198.361C507.72 199.698 507.374 200.981 506.812 202.211C506.271 203.411 505.498 204.536 504.493 205.584C503.508 206.603 502.285 207.509 500.824 208.301C501.949 208.7 502.982 209.167 503.924 209.701C504.861 210.21 505.693 210.853 506.419 211.63C507.14 212.382 507.744 213.27 508.229 214.295C508.739 215.315 509.11 216.501 509.342 217.852C509.818 220.63 509.793 223.184 509.266 225.516C508.734 227.823 507.721 229.877 506.227 231.68C504.733 233.482 502.779 235.002 500.364 236.241C497.944 237.455 495.07 238.347 491.742 238.918L464.002 243.679L464.517 186.786ZM475.579 231.877L489.73 229.448C491.482 229.148 492.913 228.632 494.025 227.9C495.136 227.168 495.998 226.338 496.611 225.408C497.224 224.478 497.612 223.51 497.774 222.503C497.936 221.497 497.942 220.555 497.792 219.68C497.59 218.503 497.218 217.537 496.676 216.78C496.129 215.997 495.446 215.393 494.626 214.967C493.831 214.537 492.911 214.283 491.867 214.204C490.823 214.126 489.701 214.19 488.5 214.396L475.737 216.586L475.579 231.877ZM475.792 207.225L489.08 204.945C491.808 204.476 493.784 203.532 495.009 202.111C496.229 200.665 496.644 198.803 496.253 196.526C496.077 195.5 495.743 194.681 495.252 194.07C494.785 193.455 494.193 193.003 493.473 192.714C492.779 192.421 491.981 192.274 491.079 192.275C490.173 192.25 489.22 192.323 488.219 192.495L475.907 194.608L475.792 207.225Z"/>
<path d="M520.147 177.239L531.671 175.261L531.443 196.902L553.027 193.197L553.293 171.551L564.817 169.573L564.226 226.479L552.665 228.463L552.974 203.022L531.391 206.726L531.081 232.167L519.557 234.145L520.147 177.239Z"/>
<path d="M574.059 200.91C573.608 198.283 573.418 195.598 573.488 192.855C573.554 190.087 573.912 187.372 574.563 184.71C575.214 182.048 576.156 179.503 577.388 177.076C578.645 174.645 580.225 172.442 582.127 170.466C584.03 168.491 586.28 166.817 588.878 165.444C591.472 164.045 594.433 163.06 597.761 162.489C600.814 161.965 603.592 161.862 606.093 162.18C608.62 162.493 610.877 163.111 612.865 164.032C614.852 164.953 616.6 166.135 618.11 167.576C619.64 168.988 620.95 170.54 622.039 172.234C623.124 173.903 623.993 175.66 624.644 177.506C625.321 179.348 625.812 181.157 626.117 182.934C626.568 185.562 626.76 188.259 626.694 191.027C626.624 193.77 626.263 196.472 625.613 199.134C624.962 201.797 624.008 204.343 622.75 206.775C621.518 209.202 619.951 211.403 618.049 213.378C616.146 215.353 613.896 217.027 611.298 218.401C608.704 219.799 605.743 220.784 602.415 221.355C599.337 221.883 596.547 221.988 594.045 221.671C591.543 221.353 589.286 220.736 587.274 219.819C585.286 218.897 583.528 217.731 581.997 216.319C580.488 214.878 579.188 213.31 578.099 211.617C577.035 209.919 576.166 208.161 575.494 206.345C574.842 204.499 574.364 202.687 574.059 200.91ZM585.673 199.458C586.107 201.986 586.833 204.115 587.851 205.847C588.866 207.553 590.074 208.892 591.477 209.862C592.88 210.832 594.407 211.471 596.057 211.781C597.728 212.061 599.427 212.052 601.154 211.756C603.506 211.352 605.502 210.598 607.141 209.492C608.781 208.386 610.137 207.059 611.211 205.509C612.285 203.959 613.101 202.261 613.66 200.413C614.243 198.561 614.631 196.691 614.822 194.803C615.039 192.911 615.096 191.072 614.996 189.286C614.916 187.471 614.752 185.838 614.503 184.386C614.065 181.834 613.339 179.704 612.324 177.997C611.31 176.291 610.102 174.953 608.699 173.983C607.296 173.013 605.759 172.388 604.088 172.108C602.437 171.798 600.749 171.792 599.022 172.088C596.67 172.492 594.674 173.247 593.034 174.352C591.395 175.458 590.039 176.786 588.965 178.335C587.887 179.86 587.058 181.561 586.479 183.438C585.92 185.285 585.532 187.155 585.316 189.047C585.125 190.935 585.069 192.786 585.149 194.602C585.249 196.388 585.424 198.007 585.673 199.458Z"/>
</mask>
<path d="M58.5151 256.463L95.189 250.169L95.1296 259.956L69.7545 264.31L69.715 276.915L92.988 272.921L92.9351 282.745L69.7371 286.726L69.6519 301.541L96.2657 296.974L96.2128 306.798L58 313.356L58.5151 256.463Z" fill="#ED603C"/>
<path d="M58.5151 256.463L95.189 250.169L95.1296 259.956L69.7545 264.31L69.715 276.915L92.988 272.921L92.9351 282.745L69.7371 286.726L69.6519 301.541L96.2657 296.974L96.2128 306.798L58 313.356L58.5151 256.463Z" fill="url(#paint0_linear)"/>
<path d="M58.5151 256.463L95.189 250.169L95.1296 259.956L69.7545 264.31L69.715 276.915L92.988 272.921L92.9351 282.745L69.7371 286.726L69.6519 301.541L96.2657 296.974L96.2128 306.798L58 313.356L58.5151 256.463Z" fill="url(#paint1_linear)"/>
<path d="M118.874 230.338C118.989 230.859 119.203 231.351 119.514 231.812C119.846 232.245 120.294 232.606 120.859 232.895C121.449 233.181 122.191 233.375 123.084 233.48C123.999 233.554 125.107 233.48 126.408 233.257C127.509 233.068 128.535 232.815 129.485 232.497C130.431 232.154 131.276 231.752 132.021 231.289C132.791 230.822 133.434 230.287 133.948 229.683C134.459 229.054 134.814 228.349 135.015 227.568L138.619 226.949C138.61 228.703 138.32 230.311 137.747 231.775C137.169 233.213 136.382 234.482 135.386 235.58C134.385 236.654 133.199 237.553 131.83 238.277C130.48 238.973 129.018 239.456 127.441 239.726C125.064 240.134 123.142 240.194 121.675 239.904C120.209 239.615 119.046 239.067 118.186 238.262C117.322 237.431 116.681 236.395 116.261 235.153C115.863 233.882 115.533 232.483 115.271 230.956L118.874 230.338ZM105.662 248.371L117.186 246.394L116.674 284.39L116.824 284.364L137.944 242.831L150.256 240.718L149.666 297.624L138.104 299.609L139.968 260.028L139.817 260.054L116.821 303.261L104.997 305.29L105.662 248.371Z" fill="#ED603C"/>
<path d="M118.874 230.338C118.989 230.859 119.203 231.351 119.514 231.812C119.846 232.245 120.294 232.606 120.859 232.895C121.449 233.181 122.191 233.375 123.084 233.48C123.999 233.554 125.107 233.48 126.408 233.257C127.509 233.068 128.535 232.815 129.485 232.497C130.431 232.154 131.276 231.752 132.021 231.289C132.791 230.822 133.434 230.287 133.948 229.683C134.459 229.054 134.814 228.349 135.015 227.568L138.619 226.949C138.61 228.703 138.32 230.311 137.747 231.775C137.169 233.213 136.382 234.482 135.386 235.58C134.385 236.654 133.199 237.553 131.83 238.277C130.48 238.973 129.018 239.456 127.441 239.726C125.064 240.134 123.142 240.194 121.675 239.904C120.209 239.615 119.046 239.067 118.186 238.262C117.322 237.431 116.681 236.395 116.261 235.153C115.863 233.882 115.533 232.483 115.271 230.956L118.874 230.338ZM105.662 248.371L117.186 246.394L116.674 284.39L116.824 284.364L137.944 242.831L150.256 240.718L149.666 297.624L138.104 299.609L139.968 260.028L139.817 260.054L116.821 303.261L104.997 305.29L105.662 248.371Z" fill="url(#paint2_linear)"/>
<path d="M118.874 230.338C118.989 230.859 119.203 231.351 119.514 231.812C119.846 232.245 120.294 232.606 120.859 232.895C121.449 233.181 122.191 233.375 123.084 233.48C123.999 233.554 125.107 233.48 126.408 233.257C127.509 233.068 128.535 232.815 129.485 232.497C130.431 232.154 131.276 231.752 132.021 231.289C132.791 230.822 133.434 230.287 133.948 229.683C134.459 229.054 134.814 228.349 135.015 227.568L138.619 226.949C138.61 228.703 138.32 230.311 137.747 231.775C137.169 233.213 136.382 234.482 135.386 235.58C134.385 236.654 133.199 237.553 131.83 238.277C130.48 238.973 129.018 239.456 127.441 239.726C125.064 240.134 123.142 240.194 121.675 239.904C120.209 239.615 119.046 239.067 118.186 238.262C117.322 237.431 116.681 236.395 116.261 235.153C115.863 233.882 115.533 232.483 115.271 230.956L118.874 230.338ZM105.662 248.371L117.186 246.394L116.674 284.39L116.824 284.364L137.944 242.831L150.256 240.718L149.666 297.624L138.104 299.609L139.968 260.028L139.817 260.054L116.821 303.261L104.997 305.29L105.662 248.371Z" fill="url(#paint3_linear)"/>
<path d="M182.463 235.191L204.047 231.487C207.55 230.886 210.571 230.702 213.111 230.936C215.65 231.17 217.79 231.782 219.531 232.771C221.268 233.735 222.627 235.048 223.607 236.709C224.588 238.37 225.271 240.326 225.658 242.578C225.903 244.005 225.949 245.401 225.797 246.766C225.666 248.103 225.319 249.386 224.757 250.616C224.216 251.817 223.443 252.941 222.438 253.989C221.454 255.009 220.231 255.914 218.77 256.706C219.894 257.105 220.928 257.572 221.869 258.106C222.807 258.615 223.639 259.258 224.365 260.035C225.086 260.787 225.689 261.675 226.174 262.7C226.684 263.72 227.055 264.906 227.287 266.257C227.764 269.035 227.739 271.59 227.211 273.921C226.68 276.228 225.667 278.283 224.173 280.085C222.679 281.887 220.724 283.407 218.309 284.646C215.89 285.86 213.016 286.753 209.688 287.324L181.948 292.084L182.463 235.191ZM193.525 280.282L207.676 277.854C209.428 277.553 210.859 277.037 211.97 276.305C213.081 275.574 213.943 274.743 214.557 273.813C215.17 272.884 215.558 271.915 215.72 270.909C215.882 269.902 215.888 268.961 215.738 268.085C215.536 266.909 215.164 265.942 214.622 265.185C214.075 264.403 213.392 263.799 212.572 263.373C211.776 262.942 210.857 262.688 209.813 262.61C208.769 262.531 207.646 262.595 206.445 262.801L193.683 264.991L193.525 280.282ZM193.738 255.63L207.026 253.35C209.754 252.882 211.73 251.937 212.954 250.516C214.175 249.07 214.589 247.209 214.199 244.931C214.022 243.905 213.689 243.087 213.197 242.475C212.731 241.86 212.138 241.408 211.419 241.119C210.725 240.826 209.927 240.68 209.025 240.68C208.119 240.655 207.166 240.728 206.165 240.9L193.852 243.013L193.738 255.63Z" fill="#ED603C"/>
<path d="M182.463 235.191L204.047 231.487C207.55 230.886 210.571 230.702 213.111 230.936C215.65 231.17 217.79 231.782 219.531 232.771C221.268 233.735 222.627 235.048 223.607 236.709C224.588 238.37 225.271 240.326 225.658 242.578C225.903 244.005 225.949 245.401 225.797 246.766C225.666 248.103 225.319 249.386 224.757 250.616C224.216 251.817 223.443 252.941 222.438 253.989C221.454 255.009 220.231 255.914 218.77 256.706C219.894 257.105 220.928 257.572 221.869 258.106C222.807 258.615 223.639 259.258 224.365 260.035C225.086 260.787 225.689 261.675 226.174 262.7C226.684 263.72 227.055 264.906 227.287 266.257C227.764 269.035 227.739 271.59 227.211 273.921C226.68 276.228 225.667 278.283 224.173 280.085C222.679 281.887 220.724 283.407 218.309 284.646C215.89 285.86 213.016 286.753 209.688 287.324L181.948 292.084L182.463 235.191ZM193.525 280.282L207.676 277.854C209.428 277.553 210.859 277.037 211.97 276.305C213.081 275.574 213.943 274.743 214.557 273.813C215.17 272.884 215.558 271.915 215.72 270.909C215.882 269.902 215.888 268.961 215.738 268.085C215.536 266.909 215.164 265.942 214.622 265.185C214.075 264.403 213.392 263.799 212.572 263.373C211.776 262.942 210.857 262.688 209.813 262.61C208.769 262.531 207.646 262.595 206.445 262.801L193.683 264.991L193.525 280.282ZM193.738 255.63L207.026 253.35C209.754 252.882 211.73 251.937 212.954 250.516C214.175 249.07 214.589 247.209 214.199 244.931C214.022 243.905 213.689 243.087 213.197 242.475C212.731 241.86 212.138 241.408 211.419 241.119C210.725 240.826 209.927 240.68 209.025 240.68C208.119 240.655 207.166 240.728 206.165 240.9L193.852 243.013L193.738 255.63Z" fill="url(#paint4_linear)"/>
<path d="M182.463 235.191L204.047 231.487C207.55 230.886 210.571 230.702 213.111 230.936C215.65 231.17 217.79 231.782 219.531 232.771C221.268 233.735 222.627 235.048 223.607 236.709C224.588 238.37 225.271 240.326 225.658 242.578C225.903 244.005 225.949 245.401 225.797 246.766C225.666 248.103 225.319 249.386 224.757 250.616C224.216 251.817 223.443 252.941 222.438 253.989C221.454 255.009 220.231 255.914 218.77 256.706C219.894 257.105 220.928 257.572 221.869 258.106C222.807 258.615 223.639 259.258 224.365 260.035C225.086 260.787 225.689 261.675 226.174 262.7C226.684 263.72 227.055 264.906 227.287 266.257C227.764 269.035 227.739 271.59 227.211 273.921C226.68 276.228 225.667 278.283 224.173 280.085C222.679 281.887 220.724 283.407 218.309 284.646C215.89 285.86 213.016 286.753 209.688 287.324L181.948 292.084L182.463 235.191ZM193.525 280.282L207.676 277.854C209.428 277.553 210.859 277.037 211.97 276.305C213.081 275.574 213.943 274.743 214.557 273.813C215.17 272.884 215.558 271.915 215.72 270.909C215.882 269.902 215.888 268.961 215.738 268.085C215.536 266.909 215.164 265.942 214.622 265.185C214.075 264.403 213.392 263.799 212.572 263.373C211.776 262.942 210.857 262.688 209.813 262.61C208.769 262.531 207.646 262.595 206.445 262.801L193.683 264.991L193.525 280.282ZM193.738 255.63L207.026 253.35C209.754 252.882 211.73 251.937 212.954 250.516C214.175 249.07 214.589 247.209 214.199 244.931C214.022 243.905 213.689 243.087 213.197 242.475C212.731 241.86 212.138 241.408 211.419 241.119C210.725 240.826 209.927 240.68 209.025 240.68C208.119 240.655 207.166 240.728 206.165 240.9L193.852 243.013L193.738 255.63Z" fill="url(#paint5_linear)"/>
<path d="M272.575 238.777C272.296 237.151 271.784 235.744 271.039 234.558C270.29 233.347 269.378 232.383 268.302 231.666C267.246 230.92 266.054 230.429 264.726 230.193C263.418 229.928 262.051 229.918 260.624 230.163C258.272 230.567 256.276 231.321 254.637 232.427C252.997 233.533 251.641 234.86 250.567 236.41C249.489 237.935 248.661 239.635 248.081 241.512C247.522 243.36 247.135 245.23 246.918 247.122C246.727 249.01 246.671 250.861 246.751 252.677C246.851 254.463 247.026 256.081 247.275 257.533C247.606 259.46 248.143 261.235 248.885 262.86C249.653 264.48 250.659 265.84 251.904 266.94C253.174 268.036 254.699 268.818 256.48 269.285C258.285 269.748 260.377 269.775 262.754 269.367C264.18 269.123 265.527 268.711 266.793 268.133C268.08 267.526 269.218 266.725 270.206 265.731C271.191 264.712 271.997 263.479 272.624 262.032C273.252 260.584 273.63 258.884 273.758 256.93L285.47 254.92C285.235 258.206 284.607 261.225 283.585 263.976C282.588 266.724 281.189 269.154 279.387 271.266C277.606 273.349 275.432 275.088 272.863 276.482C270.294 277.876 267.345 278.858 264.017 279.43C260.964 279.954 258.174 280.059 255.647 279.745C253.145 279.428 250.901 278.808 248.914 277.887C246.926 276.966 245.168 275.799 243.637 274.387C242.128 272.946 240.828 271.379 239.739 269.685C238.65 267.991 237.769 266.236 237.096 264.419C236.444 262.573 235.966 260.762 235.661 258.985C235.21 256.357 235.02 253.672 235.09 250.929C235.156 248.162 235.515 245.447 236.166 242.784C236.816 240.122 237.758 237.578 238.99 235.151C240.248 232.719 241.827 230.516 243.73 228.541C245.632 226.566 247.882 224.892 250.48 223.518C253.074 222.12 256.035 221.135 259.363 220.564C262.492 220.027 265.43 219.961 268.178 220.365C270.952 220.765 273.421 221.642 275.586 222.997C277.75 224.351 279.571 226.177 281.047 228.474C282.523 230.771 283.54 233.546 284.099 236.8L272.575 238.777Z" fill="#ED603C"/>
<path d="M272.575 238.777C272.296 237.151 271.784 235.744 271.039 234.558C270.29 233.347 269.378 232.383 268.302 231.666C267.246 230.92 266.054 230.429 264.726 230.193C263.418 229.928 262.051 229.918 260.624 230.163C258.272 230.567 256.276 231.321 254.637 232.427C252.997 233.533 251.641 234.86 250.567 236.41C249.489 237.935 248.661 239.635 248.081 241.512C247.522 243.36 247.135 245.23 246.918 247.122C246.727 249.01 246.671 250.861 246.751 252.677C246.851 254.463 247.026 256.081 247.275 257.533C247.606 259.46 248.143 261.235 248.885 262.86C249.653 264.48 250.659 265.84 251.904 266.94C253.174 268.036 254.699 268.818 256.48 269.285C258.285 269.748 260.377 269.775 262.754 269.367C264.18 269.123 265.527 268.711 266.793 268.133C268.08 267.526 269.218 266.725 270.206 265.731C271.191 264.712 271.997 263.479 272.624 262.032C273.252 260.584 273.63 258.884 273.758 256.93L285.47 254.92C285.235 258.206 284.607 261.225 283.585 263.976C282.588 266.724 281.189 269.154 279.387 271.266C277.606 273.349 275.432 275.088 272.863 276.482C270.294 277.876 267.345 278.858 264.017 279.43C260.964 279.954 258.174 280.059 255.647 279.745C253.145 279.428 250.901 278.808 248.914 277.887C246.926 276.966 245.168 275.799 243.637 274.387C242.128 272.946 240.828 271.379 239.739 269.685C238.65 267.991 237.769 266.236 237.096 264.419C236.444 262.573 235.966 260.762 235.661 258.985C235.21 256.357 235.02 253.672 235.09 250.929C235.156 248.162 235.515 245.447 236.166 242.784C236.816 240.122 237.758 237.578 238.99 235.151C240.248 232.719 241.827 230.516 243.73 228.541C245.632 226.566 247.882 224.892 250.48 223.518C253.074 222.12 256.035 221.135 259.363 220.564C262.492 220.027 265.43 219.961 268.178 220.365C270.952 220.765 273.421 221.642 275.586 222.997C277.75 224.351 279.571 226.177 281.047 228.474C282.523 230.771 283.54 233.546 284.099 236.8L272.575 238.777Z" fill="url(#paint6_linear)"/>
<path d="M272.575 238.777C272.296 237.151 271.784 235.744 271.039 234.558C270.29 233.347 269.378 232.383 268.302 231.666C267.246 230.92 266.054 230.429 264.726 230.193C263.418 229.928 262.051 229.918 260.624 230.163C258.272 230.567 256.276 231.321 254.637 232.427C252.997 233.533 251.641 234.86 250.567 236.41C249.489 237.935 248.661 239.635 248.081 241.512C247.522 243.36 247.135 245.23 246.918 247.122C246.727 249.01 246.671 250.861 246.751 252.677C246.851 254.463 247.026 256.081 247.275 257.533C247.606 259.46 248.143 261.235 248.885 262.86C249.653 264.48 250.659 265.84 251.904 266.94C253.174 268.036 254.699 268.818 256.48 269.285C258.285 269.748 260.377 269.775 262.754 269.367C264.18 269.123 265.527 268.711 266.793 268.133C268.08 267.526 269.218 266.725 270.206 265.731C271.191 264.712 271.997 263.479 272.624 262.032C273.252 260.584 273.63 258.884 273.758 256.93L285.47 254.92C285.235 258.206 284.607 261.225 283.585 263.976C282.588 266.724 281.189 269.154 279.387 271.266C277.606 273.349 275.432 275.088 272.863 276.482C270.294 277.876 267.345 278.858 264.017 279.43C260.964 279.954 258.174 280.059 255.647 279.745C253.145 279.428 250.901 278.808 248.914 277.887C246.926 276.966 245.168 275.799 243.637 274.387C242.128 272.946 240.828 271.379 239.739 269.685C238.65 267.991 237.769 266.236 237.096 264.419C236.444 262.573 235.966 260.762 235.661 258.985C235.21 256.357 235.02 253.672 235.09 250.929C235.156 248.162 235.515 245.447 236.166 242.784C236.816 240.122 237.758 237.578 238.99 235.151C240.248 232.719 241.827 230.516 243.73 228.541C245.632 226.566 247.882 224.892 250.48 223.518C253.074 222.12 256.035 221.135 259.363 220.564C262.492 220.027 265.43 219.961 268.178 220.365C270.952 220.765 273.421 221.642 275.586 222.997C277.75 224.351 279.571 226.177 281.047 228.474C282.523 230.771 283.54 233.546 284.099 236.8L272.575 238.777Z" fill="url(#paint7_linear)"/>
<path d="M293.573 216.123L330.247 209.829L330.187 219.616L304.812 223.971L304.773 236.575L328.046 232.581L327.993 242.405L304.795 246.386L304.71 261.201L331.324 256.634L331.271 266.458L293.058 273.016L293.573 216.123Z" fill="#ED603C"/>
<path d="M293.573 216.123L330.247 209.829L330.187 219.616L304.812 223.971L304.773 236.575L328.046 232.581L327.993 242.405L304.795 246.386L304.71 261.201L331.324 256.634L331.271 266.458L293.058 273.016L293.573 216.123Z" fill="url(#paint8_linear)"/>
<path d="M293.573 216.123L330.247 209.829L330.187 219.616L304.812 223.971L304.773 236.575L328.046 232.581L327.993 242.405L304.795 246.386L304.71 261.201L331.324 256.634L331.271 266.458L293.058 273.016L293.573 216.123Z" fill="url(#paint9_linear)"/>
<path d="M361.966 204.385L380.959 201.126C384.538 200.512 387.629 200.432 390.231 200.887C392.855 201.313 395.057 202.133 396.836 203.347C398.637 204.532 400.041 206.031 401.047 207.842C402.074 209.623 402.768 211.565 403.129 213.667C403.666 216.795 403.671 219.68 403.145 222.32C402.645 224.957 401.604 227.299 400.023 229.348C398.443 231.397 396.331 233.125 393.687 234.532C391.068 235.934 387.907 236.953 384.203 237.589L373.13 239.489L372.974 259.301L361.451 261.279L361.966 204.385ZM373.258 229.652L383.505 227.893C385.332 227.58 386.853 227.061 388.068 226.337C389.284 225.614 390.231 224.755 390.911 223.763C391.616 222.766 392.072 221.67 392.279 220.475C392.482 219.255 392.474 218.007 392.255 216.731C392.079 215.705 391.788 214.763 391.384 213.905C390.999 213.018 390.449 212.288 389.733 211.715C389.012 211.118 388.104 210.707 387.009 210.482C385.939 210.254 384.641 210.271 383.115 210.533L373.43 212.195L373.258 229.652Z" fill="#ED603C"/>
<path d="M361.966 204.385L380.959 201.126C384.538 200.512 387.629 200.432 390.231 200.887C392.855 201.313 395.057 202.133 396.836 203.347C398.637 204.532 400.041 206.031 401.047 207.842C402.074 209.623 402.768 211.565 403.129 213.667C403.666 216.795 403.671 219.68 403.145 222.32C402.645 224.957 401.604 227.299 400.023 229.348C398.443 231.397 396.331 233.125 393.687 234.532C391.068 235.934 387.907 236.953 384.203 237.589L373.13 239.489L372.974 259.301L361.451 261.279L361.966 204.385ZM373.258 229.652L383.505 227.893C385.332 227.58 386.853 227.061 388.068 226.337C389.284 225.614 390.231 224.755 390.911 223.763C391.616 222.766 392.072 221.67 392.279 220.475C392.482 219.255 392.474 218.007 392.255 216.731C392.079 215.705 391.788 214.763 391.384 213.905C390.999 213.018 390.449 212.288 389.733 211.715C389.012 211.118 388.104 210.707 387.009 210.482C385.939 210.254 384.641 210.271 383.115 210.533L373.43 212.195L373.258 229.652Z" fill="url(#paint10_linear)"/>
<path d="M361.966 204.385L380.959 201.126C384.538 200.512 387.629 200.432 390.231 200.887C392.855 201.313 395.057 202.133 396.836 203.347C398.637 204.532 400.041 206.031 401.047 207.842C402.074 209.623 402.768 211.565 403.129 213.667C403.666 216.795 403.671 219.68 403.145 222.32C402.645 224.957 401.604 227.299 400.023 229.348C398.443 231.397 396.331 233.125 393.687 234.532C391.068 235.934 387.907 236.953 384.203 237.589L373.13 239.489L372.974 259.301L361.451 261.279L361.966 204.385ZM373.258 229.652L383.505 227.893C385.332 227.58 386.853 227.061 388.068 226.337C389.284 225.614 390.231 224.755 390.911 223.763C391.616 222.766 392.072 221.67 392.279 220.475C392.482 219.255 392.474 218.007 392.255 216.731C392.079 215.705 391.788 214.763 391.384 213.905C390.999 213.018 390.449 212.288 389.733 211.715C389.012 211.118 388.104 210.707 387.009 210.482C385.939 210.254 384.641 210.271 383.115 210.533L373.43 212.195L373.258 229.652Z" fill="url(#paint11_linear)"/>
<path d="M436.578 203.444L436.428 203.47L428.973 228.708L442.824 226.331L436.578 203.444ZM429.683 192.764L443.159 190.451L459.61 244.433L448.236 246.385L445.361 235.71L425.917 239.047L422.486 250.804L410.249 252.904L429.683 192.764Z" fill="#ED603C"/>
<path d="M436.578 203.444L436.428 203.47L428.973 228.708L442.824 226.331L436.578 203.444ZM429.683 192.764L443.159 190.451L459.61 244.433L448.236 246.385L445.361 235.71L425.917 239.047L422.486 250.804L410.249 252.904L429.683 192.764Z" fill="url(#paint12_linear)"/>
<path d="M436.578 203.444L436.428 203.47L428.973 228.708L442.824 226.331L436.578 203.444ZM429.683 192.764L443.159 190.451L459.61 244.433L448.236 246.385L445.361 235.71L425.917 239.047L422.486 250.804L410.249 252.904L429.683 192.764Z" fill="url(#paint13_linear)"/>
<path d="M464.517 186.786L486.101 183.082C489.605 182.481 492.626 182.297 495.165 182.531C497.704 182.765 499.844 183.377 501.585 184.366C503.322 185.33 504.681 186.643 505.662 188.304C506.642 189.964 507.326 191.921 507.712 194.173C507.957 195.599 508.003 196.996 507.851 198.361C507.72 199.698 507.374 200.981 506.812 202.211C506.271 203.411 505.498 204.536 504.493 205.584C503.508 206.603 502.285 207.509 500.824 208.301C501.949 208.7 502.982 209.167 503.924 209.701C504.861 210.21 505.693 210.853 506.419 211.63C507.14 212.382 507.744 213.27 508.229 214.295C508.739 215.315 509.11 216.501 509.342 217.852C509.818 220.63 509.793 223.184 509.266 225.516C508.734 227.823 507.721 229.877 506.227 231.68C504.733 233.482 502.779 235.002 500.364 236.241C497.944 237.455 495.07 238.347 491.742 238.918L464.002 243.679L464.517 186.786ZM475.579 231.877L489.73 229.448C491.482 229.148 492.913 228.632 494.025 227.9C495.136 227.168 495.998 226.338 496.611 225.408C497.224 224.478 497.612 223.51 497.774 222.503C497.936 221.497 497.942 220.555 497.792 219.68C497.59 218.503 497.218 217.537 496.676 216.78C496.129 215.997 495.446 215.393 494.626 214.967C493.831 214.537 492.911 214.283 491.867 214.204C490.823 214.126 489.701 214.19 488.5 214.396L475.737 216.586L475.579 231.877ZM475.792 207.225L489.08 204.945C491.808 204.476 493.784 203.532 495.009 202.111C496.229 200.665 496.644 198.803 496.253 196.526C496.077 195.5 495.743 194.681 495.252 194.07C494.785 193.455 494.193 193.003 493.473 192.714C492.779 192.421 491.981 192.274 491.079 192.275C490.173 192.25 489.22 192.323 488.219 192.495L475.907 194.608L475.792 207.225Z" fill="#ED603C"/>
<path d="M464.517 186.786L486.101 183.082C489.605 182.481 492.626 182.297 495.165 182.531C497.704 182.765 499.844 183.377 501.585 184.366C503.322 185.33 504.681 186.643 505.662 188.304C506.642 189.964 507.326 191.921 507.712 194.173C507.957 195.599 508.003 196.996 507.851 198.361C507.72 199.698 507.374 200.981 506.812 202.211C506.271 203.411 505.498 204.536 504.493 205.584C503.508 206.603 502.285 207.509 500.824 208.301C501.949 208.7 502.982 209.167 503.924 209.701C504.861 210.21 505.693 210.853 506.419 211.63C507.14 212.382 507.744 213.27 508.229 214.295C508.739 215.315 509.11 216.501 509.342 217.852C509.818 220.63 509.793 223.184 509.266 225.516C508.734 227.823 507.721 229.877 506.227 231.68C504.733 233.482 502.779 235.002 500.364 236.241C497.944 237.455 495.07 238.347 491.742 238.918L464.002 243.679L464.517 186.786ZM475.579 231.877L489.73 229.448C491.482 229.148 492.913 228.632 494.025 227.9C495.136 227.168 495.998 226.338 496.611 225.408C497.224 224.478 497.612 223.51 497.774 222.503C497.936 221.497 497.942 220.555 497.792 219.68C497.59 218.503 497.218 217.537 496.676 216.78C496.129 215.997 495.446 215.393 494.626 214.967C493.831 214.537 492.911 214.283 491.867 214.204C490.823 214.126 489.701 214.19 488.5 214.396L475.737 216.586L475.579 231.877ZM475.792 207.225L489.08 204.945C491.808 204.476 493.784 203.532 495.009 202.111C496.229 200.665 496.644 198.803 496.253 196.526C496.077 195.5 495.743 194.681 495.252 194.07C494.785 193.455 494.193 193.003 493.473 192.714C492.779 192.421 491.981 192.274 491.079 192.275C490.173 192.25 489.22 192.323 488.219 192.495L475.907 194.608L475.792 207.225Z" fill="url(#paint14_linear)"/>
<path d="M464.517 186.786L486.101 183.082C489.605 182.481 492.626 182.297 495.165 182.531C497.704 182.765 499.844 183.377 501.585 184.366C503.322 185.33 504.681 186.643 505.662 188.304C506.642 189.964 507.326 191.921 507.712 194.173C507.957 195.599 508.003 196.996 507.851 198.361C507.72 199.698 507.374 200.981 506.812 202.211C506.271 203.411 505.498 204.536 504.493 205.584C503.508 206.603 502.285 207.509 500.824 208.301C501.949 208.7 502.982 209.167 503.924 209.701C504.861 210.21 505.693 210.853 506.419 211.63C507.14 212.382 507.744 213.27 508.229 214.295C508.739 215.315 509.11 216.501 509.342 217.852C509.818 220.63 509.793 223.184 509.266 225.516C508.734 227.823 507.721 229.877 506.227 231.68C504.733 233.482 502.779 235.002 500.364 236.241C497.944 237.455 495.07 238.347 491.742 238.918L464.002 243.679L464.517 186.786ZM475.579 231.877L489.73 229.448C491.482 229.148 492.913 228.632 494.025 227.9C495.136 227.168 495.998 226.338 496.611 225.408C497.224 224.478 497.612 223.51 497.774 222.503C497.936 221.497 497.942 220.555 497.792 219.68C497.59 218.503 497.218 217.537 496.676 216.78C496.129 215.997 495.446 215.393 494.626 214.967C493.831 214.537 492.911 214.283 491.867 214.204C490.823 214.126 489.701 214.19 488.5 214.396L475.737 216.586L475.579 231.877ZM475.792 207.225L489.08 204.945C491.808 204.476 493.784 203.532 495.009 202.111C496.229 200.665 496.644 198.803 496.253 196.526C496.077 195.5 495.743 194.681 495.252 194.07C494.785 193.455 494.193 193.003 493.473 192.714C492.779 192.421 491.981 192.274 491.079 192.275C490.173 192.25 489.22 192.323 488.219 192.495L475.907 194.608L475.792 207.225Z" fill="url(#paint15_linear)"/>
<path d="M520.147 177.239L531.671 175.261L531.443 196.902L553.027 193.197L553.293 171.551L564.817 169.573L564.226 226.479L552.665 228.463L552.974 203.022L531.391 206.726L531.081 232.167L519.557 234.145L520.147 177.239Z" fill="#ED603C"/>
<path d="M520.147 177.239L531.671 175.261L531.443 196.902L553.027 193.197L553.293 171.551L564.817 169.573L564.226 226.479L552.665 228.463L552.974 203.022L531.391 206.726L531.081 232.167L519.557 234.145L520.147 177.239Z" fill="url(#paint16_linear)"/>
<path d="M520.147 177.239L531.671 175.261L531.443 196.902L553.027 193.197L553.293 171.551L564.817 169.573L564.226 226.479L552.665 228.463L552.974 203.022L531.391 206.726L531.081 232.167L519.557 234.145L520.147 177.239Z" fill="url(#paint17_linear)"/>
<path d="M574.059 200.91C573.608 198.283 573.418 195.598 573.488 192.855C573.554 190.087 573.912 187.372 574.563 184.71C575.214 182.048 576.156 179.503 577.388 177.076C578.645 174.645 580.225 172.442 582.127 170.466C584.03 168.491 586.28 166.817 588.878 165.444C591.472 164.045 594.433 163.06 597.761 162.489C600.814 161.965 603.592 161.862 606.093 162.18C608.62 162.493 610.877 163.111 612.865 164.032C614.852 164.953 616.6 166.135 618.11 167.576C619.64 168.988 620.95 170.54 622.039 172.234C623.124 173.903 623.993 175.66 624.644 177.506C625.321 179.348 625.812 181.157 626.117 182.934C626.568 185.562 626.76 188.259 626.694 191.027C626.624 193.77 626.263 196.472 625.613 199.134C624.962 201.797 624.008 204.343 622.75 206.775C621.518 209.202 619.951 211.403 618.049 213.378C616.146 215.353 613.896 217.027 611.298 218.401C608.704 219.799 605.743 220.784 602.415 221.355C599.337 221.883 596.547 221.988 594.045 221.671C591.543 221.353 589.286 220.736 587.274 219.819C585.286 218.897 583.528 217.731 581.997 216.319C580.488 214.878 579.188 213.31 578.099 211.617C577.035 209.919 576.166 208.161 575.494 206.345C574.842 204.499 574.364 202.687 574.059 200.91ZM585.673 199.458C586.107 201.986 586.833 204.115 587.851 205.847C588.866 207.553 590.074 208.892 591.477 209.862C592.88 210.832 594.407 211.471 596.057 211.781C597.728 212.061 599.427 212.052 601.154 211.756C603.506 211.352 605.502 210.598 607.141 209.492C608.781 208.386 610.137 207.059 611.211 205.509C612.285 203.959 613.101 202.261 613.66 200.413C614.243 198.561 614.631 196.691 614.822 194.803C615.039 192.911 615.096 191.072 614.996 189.286C614.916 187.471 614.752 185.838 614.503 184.386C614.065 181.834 613.339 179.704 612.324 177.997C611.31 176.291 610.102 174.953 608.699 173.983C607.296 173.013 605.759 172.388 604.088 172.108C602.437 171.798 600.749 171.792 599.022 172.088C596.67 172.492 594.674 173.247 593.034 174.352C591.395 175.458 590.039 176.786 588.965 178.335C587.887 179.86 587.058 181.561 586.479 183.438C585.92 185.285 585.532 187.155 585.316 189.047C585.125 190.935 585.069 192.786 585.149 194.602C585.249 196.388 585.424 198.007 585.673 199.458Z" fill="#ED603C"/>
<path d="M574.059 200.91C573.608 198.283 573.418 195.598 573.488 192.855C573.554 190.087 573.912 187.372 574.563 184.71C575.214 182.048 576.156 179.503 577.388 177.076C578.645 174.645 580.225 172.442 582.127 170.466C584.03 168.491 586.28 166.817 588.878 165.444C591.472 164.045 594.433 163.06 597.761 162.489C600.814 161.965 603.592 161.862 606.093 162.18C608.62 162.493 610.877 163.111 612.865 164.032C614.852 164.953 616.6 166.135 618.11 167.576C619.64 168.988 620.95 170.54 622.039 172.234C623.124 173.903 623.993 175.66 624.644 177.506C625.321 179.348 625.812 181.157 626.117 182.934C626.568 185.562 626.76 188.259 626.694 191.027C626.624 193.77 626.263 196.472 625.613 199.134C624.962 201.797 624.008 204.343 622.75 206.775C621.518 209.202 619.951 211.403 618.049 213.378C616.146 215.353 613.896 217.027 611.298 218.401C608.704 219.799 605.743 220.784 602.415 221.355C599.337 221.883 596.547 221.988 594.045 221.671C591.543 221.353 589.286 220.736 587.274 219.819C585.286 218.897 583.528 217.731 581.997 216.319C580.488 214.878 579.188 213.31 578.099 211.617C577.035 209.919 576.166 208.161 575.494 206.345C574.842 204.499 574.364 202.687 574.059 200.91ZM585.673 199.458C586.107 201.986 586.833 204.115 587.851 205.847C588.866 207.553 590.074 208.892 591.477 209.862C592.88 210.832 594.407 211.471 596.057 211.781C597.728 212.061 599.427 212.052 601.154 211.756C603.506 211.352 605.502 210.598 607.141 209.492C608.781 208.386 610.137 207.059 611.211 205.509C612.285 203.959 613.101 202.261 613.66 200.413C614.243 198.561 614.631 196.691 614.822 194.803C615.039 192.911 615.096 191.072 614.996 189.286C614.916 187.471 614.752 185.838 614.503 184.386C614.065 181.834 613.339 179.704 612.324 177.997C611.31 176.291 610.102 174.953 608.699 173.983C607.296 173.013 605.759 172.388 604.088 172.108C602.437 171.798 600.749 171.792 599.022 172.088C596.67 172.492 594.674 173.247 593.034 174.352C591.395 175.458 590.039 176.786 588.965 178.335C587.887 179.86 587.058 181.561 586.479 183.438C585.92 185.285 585.532 187.155 585.316 189.047C585.125 190.935 585.069 192.786 585.149 194.602C585.249 196.388 585.424 198.007 585.673 199.458Z" fill="url(#paint18_linear)"/>
<path d="M574.059 200.91C573.608 198.283 573.418 195.598 573.488 192.855C573.554 190.087 573.912 187.372 574.563 184.71C575.214 182.048 576.156 179.503 577.388 177.076C578.645 174.645 580.225 172.442 582.127 170.466C584.03 168.491 586.28 166.817 588.878 165.444C591.472 164.045 594.433 163.06 597.761 162.489C600.814 161.965 603.592 161.862 606.093 162.18C608.62 162.493 610.877 163.111 612.865 164.032C614.852 164.953 616.6 166.135 618.11 167.576C619.64 168.988 620.95 170.54 622.039 172.234C623.124 173.903 623.993 175.66 624.644 177.506C625.321 179.348 625.812 181.157 626.117 182.934C626.568 185.562 626.76 188.259 626.694 191.027C626.624 193.77 626.263 196.472 625.613 199.134C624.962 201.797 624.008 204.343 622.75 206.775C621.518 209.202 619.951 211.403 618.049 213.378C616.146 215.353 613.896 217.027 611.298 218.401C608.704 219.799 605.743 220.784 602.415 221.355C599.337 221.883 596.547 221.988 594.045 221.671C591.543 221.353 589.286 220.736 587.274 219.819C585.286 218.897 583.528 217.731 581.997 216.319C580.488 214.878 579.188 213.31 578.099 211.617C577.035 209.919 576.166 208.161 575.494 206.345C574.842 204.499 574.364 202.687 574.059 200.91ZM585.673 199.458C586.107 201.986 586.833 204.115 587.851 205.847C588.866 207.553 590.074 208.892 591.477 209.862C592.88 210.832 594.407 211.471 596.057 211.781C597.728 212.061 599.427 212.052 601.154 211.756C603.506 211.352 605.502 210.598 607.141 209.492C608.781 208.386 610.137 207.059 611.211 205.509C612.285 203.959 613.101 202.261 613.66 200.413C614.243 198.561 614.631 196.691 614.822 194.803C615.039 192.911 615.096 191.072 614.996 189.286C614.916 187.471 614.752 185.838 614.503 184.386C614.065 181.834 613.339 179.704 612.324 177.997C611.31 176.291 610.102 174.953 608.699 173.983C607.296 173.013 605.759 172.388 604.088 172.108C602.437 171.798 600.749 171.792 599.022 172.088C596.67 172.492 594.674 173.247 593.034 174.352C591.395 175.458 590.039 176.786 588.965 178.335C587.887 179.86 587.058 181.561 586.479 183.438C585.92 185.285 585.532 187.155 585.316 189.047C585.125 190.935 585.069 192.786 585.149 194.602C585.249 196.388 585.424 198.007 585.673 199.458Z" fill="url(#paint19_linear)"/>
<path d="M58.5151 256.463L95.189 250.169L95.1296 259.956L69.7545 264.31L69.715 276.915L92.988 272.921L92.9351 282.745L69.7371 286.726L69.6519 301.541L96.2657 296.974L96.2128 306.798L58 313.356L58.5151 256.463Z" stroke="black" stroke-width="4" mask="url(#path-2-outside-1)"/>
<path d="M118.874 230.338C118.989 230.859 119.203 231.351 119.514 231.812C119.846 232.245 120.294 232.606 120.859 232.895C121.449 233.181 122.191 233.375 123.084 233.48C123.999 233.554 125.107 233.48 126.408 233.257C127.509 233.068 128.535 232.815 129.485 232.497C130.431 232.154 131.276 231.752 132.021 231.289C132.791 230.822 133.434 230.287 133.948 229.683C134.459 229.054 134.814 228.349 135.015 227.568L138.619 226.949C138.61 228.703 138.32 230.311 137.747 231.775C137.169 233.213 136.382 234.482 135.386 235.58C134.385 236.654 133.199 237.553 131.83 238.277C130.48 238.973 129.018 239.456 127.441 239.726C125.064 240.134 123.142 240.194 121.675 239.904C120.209 239.615 119.046 239.067 118.186 238.262C117.322 237.431 116.681 236.395 116.261 235.153C115.863 233.882 115.533 232.483 115.271 230.956L118.874 230.338ZM105.662 248.371L117.186 246.394L116.674 284.39L116.824 284.364L137.944 242.831L150.256 240.718L149.666 297.624L138.104 299.609L139.968 260.028L139.817 260.054L116.821 303.261L104.997 305.29L105.662 248.371Z" stroke="black" stroke-width="4" mask="url(#path-2-outside-1)"/>
<path d="M182.463 235.191L204.047 231.487C207.55 230.886 210.571 230.702 213.111 230.936C215.65 231.17 217.79 231.782 219.531 232.771C221.268 233.735 222.627 235.048 223.607 236.709C224.588 238.37 225.271 240.326 225.658 242.578C225.903 244.005 225.949 245.401 225.797 246.766C225.666 248.103 225.319 249.386 224.757 250.616C224.216 251.817 223.443 252.941 222.438 253.989C221.454 255.009 220.231 255.914 218.77 256.706C219.894 257.105 220.928 257.572 221.869 258.106C222.807 258.615 223.639 259.258 224.365 260.035C225.086 260.787 225.689 261.675 226.174 262.7C226.684 263.72 227.055 264.906 227.287 266.257C227.764 269.035 227.739 271.59 227.211 273.921C226.68 276.228 225.667 278.283 224.173 280.085C222.679 281.887 220.724 283.407 218.309 284.646C215.89 285.86 213.016 286.753 209.688 287.324L181.948 292.084L182.463 235.191ZM193.525 280.282L207.676 277.854C209.428 277.553 210.859 277.037 211.97 276.305C213.081 275.574 213.943 274.743 214.557 273.813C215.17 272.884 215.558 271.915 215.72 270.909C215.882 269.902 215.888 268.961 215.738 268.085C215.536 266.909 215.164 265.942 214.622 265.185C214.075 264.403 213.392 263.799 212.572 263.373C211.776 262.942 210.857 262.688 209.813 262.61C208.769 262.531 207.646 262.595 206.445 262.801L193.683 264.991L193.525 280.282ZM193.738 255.63L207.026 253.35C209.754 252.882 211.73 251.937 212.954 250.516C214.175 249.07 214.589 247.209 214.199 244.931C214.022 243.905 213.689 243.087 213.197 242.475C212.731 241.86 212.138 241.408 211.419 241.119C210.725 240.826 209.927 240.68 209.025 240.68C208.119 240.655 207.166 240.728 206.165 240.9L193.852 243.013L193.738 255.63Z" stroke="black" stroke-width="4" mask="url(#path-2-outside-1)"/>
<path d="M272.575 238.777C272.296 237.151 271.784 235.744 271.039 234.558C270.29 233.347 269.378 232.383 268.302 231.666C267.246 230.92 266.054 230.429 264.726 230.193C263.418 229.928 262.051 229.918 260.624 230.163C258.272 230.567 256.276 231.321 254.637 232.427C252.997 233.533 251.641 234.86 250.567 236.41C249.489 237.935 248.661 239.635 248.081 241.512C247.522 243.36 247.135 245.23 246.918 247.122C246.727 249.01 246.671 250.861 246.751 252.677C246.851 254.463 247.026 256.081 247.275 257.533C247.606 259.46 248.143 261.235 248.885 262.86C249.653 264.48 250.659 265.84 251.904 266.94C253.174 268.036 254.699 268.818 256.48 269.285C258.285 269.748 260.377 269.775 262.754 269.367C264.18 269.123 265.527 268.711 266.793 268.133C268.08 267.526 269.218 266.725 270.206 265.731C271.191 264.712 271.997 263.479 272.624 262.032C273.252 260.584 273.63 258.884 273.758 256.93L285.47 254.92C285.235 258.206 284.607 261.225 283.585 263.976C282.588 266.724 281.189 269.154 279.387 271.266C277.606 273.349 275.432 275.088 272.863 276.482C270.294 277.876 267.345 278.858 264.017 279.43C260.964 279.954 258.174 280.059 255.647 279.745C253.145 279.428 250.901 278.808 248.914 277.887C246.926 276.966 245.168 275.799 243.637 274.387C242.128 272.946 240.828 271.379 239.739 269.685C238.65 267.991 237.769 266.236 237.096 264.419C236.444 262.573 235.966 260.762 235.661 258.985C235.21 256.357 235.02 253.672 235.09 250.929C235.156 248.162 235.515 245.447 236.166 242.784C236.816 240.122 237.758 237.578 238.99 235.151C240.248 232.719 241.827 230.516 243.73 228.541C245.632 226.566 247.882 224.892 250.48 223.518C253.074 222.12 256.035 221.135 259.363 220.564C262.492 220.027 265.43 219.961 268.178 220.365C270.952 220.765 273.421 221.642 275.586 222.997C277.75 224.351 279.571 226.177 281.047 228.474C282.523 230.771 283.54 233.546 284.099 236.8L272.575 238.777Z" stroke="black" stroke-width="4" mask="url(#path-2-outside-1)"/>
<path d="M293.573 216.123L330.247 209.829L330.187 219.616L304.812 223.971L304.773 236.575L328.046 232.581L327.993 242.405L304.795 246.386L304.71 261.201L331.324 256.634L331.271 266.458L293.058 273.016L293.573 216.123Z" stroke="black" stroke-width="4" mask="url(#path-2-outside-1)"/>
<path d="M361.966 204.385L380.959 201.126C384.538 200.512 387.629 200.432 390.231 200.887C392.855 201.313 395.057 202.133 396.836 203.347C398.637 204.532 400.041 206.031 401.047 207.842C402.074 209.623 402.768 211.565 403.129 213.667C403.666 216.795 403.671 219.68 403.145 222.32C402.645 224.957 401.604 227.299 400.023 229.348C398.443 231.397 396.331 233.125 393.687 234.532C391.068 235.934 387.907 236.953 384.203 237.589L373.13 239.489L372.974 259.301L361.451 261.279L361.966 204.385ZM373.258 229.652L383.505 227.893C385.332 227.58 386.853 227.061 388.068 226.337C389.284 225.614 390.231 224.755 390.911 223.763C391.616 222.766 392.072 221.67 392.279 220.475C392.482 219.255 392.474 218.007 392.255 216.731C392.079 215.705 391.788 214.763 391.384 213.905C390.999 213.018 390.449 212.288 389.733 211.715C389.012 211.118 388.104 210.707 387.009 210.482C385.939 210.254 384.641 210.271 383.115 210.533L373.43 212.195L373.258 229.652Z" stroke="black" stroke-width="4" mask="url(#path-2-outside-1)"/>
<path d="M436.578 203.444L436.428 203.47L428.973 228.708L442.824 226.331L436.578 203.444ZM429.683 192.764L443.159 190.451L459.61 244.433L448.236 246.385L445.361 235.71L425.917 239.047L422.486 250.804L410.249 252.904L429.683 192.764Z" stroke="black" stroke-width="4" mask="url(#path-2-outside-1)"/>
<path d="M464.517 186.786L486.101 183.082C489.605 182.481 492.626 182.297 495.165 182.531C497.704 182.765 499.844 183.377 501.585 184.366C503.322 185.33 504.681 186.643 505.662 188.304C506.642 189.964 507.326 191.921 507.712 194.173C507.957 195.599 508.003 196.996 507.851 198.361C507.72 199.698 507.374 200.981 506.812 202.211C506.271 203.411 505.498 204.536 504.493 205.584C503.508 206.603 502.285 207.509 500.824 208.301C501.949 208.7 502.982 209.167 503.924 209.701C504.861 210.21 505.693 210.853 506.419 211.63C507.14 212.382 507.744 213.27 508.229 214.295C508.739 215.315 509.11 216.501 509.342 217.852C509.818 220.63 509.793 223.184 509.266 225.516C508.734 227.823 507.721 229.877 506.227 231.68C504.733 233.482 502.779 235.002 500.364 236.241C497.944 237.455 495.07 238.347 491.742 238.918L464.002 243.679L464.517 186.786ZM475.579 231.877L489.73 229.448C491.482 229.148 492.913 228.632 494.025 227.9C495.136 227.168 495.998 226.338 496.611 225.408C497.224 224.478 497.612 223.51 497.774 222.503C497.936 221.497 497.942 220.555 497.792 219.68C497.59 218.503 497.218 217.537 496.676 216.78C496.129 215.997 495.446 215.393 494.626 214.967C493.831 214.537 492.911 214.283 491.867 214.204C490.823 214.126 489.701 214.19 488.5 214.396L475.737 216.586L475.579 231.877ZM475.792 207.225L489.08 204.945C491.808 204.476 493.784 203.532 495.009 202.111C496.229 200.665 496.644 198.803 496.253 196.526C496.077 195.5 495.743 194.681 495.252 194.07C494.785 193.455 494.193 193.003 493.473 192.714C492.779 192.421 491.981 192.274 491.079 192.275C490.173 192.25 489.22 192.323 488.219 192.495L475.907 194.608L475.792 207.225Z" stroke="black" stroke-width="4" mask="url(#path-2-outside-1)"/>
<path d="M520.147 177.239L531.671 175.261L531.443 196.902L553.027 193.197L553.293 171.551L564.817 169.573L564.226 226.479L552.665 228.463L552.974 203.022L531.391 206.726L531.081 232.167L519.557 234.145L520.147 177.239Z" stroke="black" stroke-width="4" mask="url(#path-2-outside-1)"/>
<path d="M574.059 200.91C573.608 198.283 573.418 195.598 573.488 192.855C573.554 190.087 573.912 187.372 574.563 184.71C575.214 182.048 576.156 179.503 577.388 177.076C578.645 174.645 580.225 172.442 582.127 170.466C584.03 168.491 586.28 166.817 588.878 165.444C591.472 164.045 594.433 163.06 597.761 162.489C600.814 161.965 603.592 161.862 606.093 162.18C608.62 162.493 610.877 163.111 612.865 164.032C614.852 164.953 616.6 166.135 618.11 167.576C619.64 168.988 620.95 170.54 622.039 172.234C623.124 173.903 623.993 175.66 624.644 177.506C625.321 179.348 625.812 181.157 626.117 182.934C626.568 185.562 626.76 188.259 626.694 191.027C626.624 193.77 626.263 196.472 625.613 199.134C624.962 201.797 624.008 204.343 622.75 206.775C621.518 209.202 619.951 211.403 618.049 213.378C616.146 215.353 613.896 217.027 611.298 218.401C608.704 219.799 605.743 220.784 602.415 221.355C599.337 221.883 596.547 221.988 594.045 221.671C591.543 221.353 589.286 220.736 587.274 219.819C585.286 218.897 583.528 217.731 581.997 216.319C580.488 214.878 579.188 213.31 578.099 211.617C577.035 209.919 576.166 208.161 575.494 206.345C574.842 204.499 574.364 202.687 574.059 200.91ZM585.673 199.458C586.107 201.986 586.833 204.115 587.851 205.847C588.866 207.553 590.074 208.892 591.477 209.862C592.88 210.832 594.407 211.471 596.057 211.781C597.728 212.061 599.427 212.052 601.154 211.756C603.506 211.352 605.502 210.598 607.141 209.492C608.781 208.386 610.137 207.059 611.211 205.509C612.285 203.959 613.101 202.261 613.66 200.413C614.243 198.561 614.631 196.691 614.822 194.803C615.039 192.911 615.096 191.072 614.996 189.286C614.916 187.471 614.752 185.838 614.503 184.386C614.065 181.834 613.339 179.704 612.324 177.997C611.31 176.291 610.102 174.953 608.699 173.983C607.296 173.013 605.759 172.388 604.088 172.108C602.437 171.798 600.749 171.792 599.022 172.088C596.67 172.492 594.674 173.247 593.034 174.352C591.395 175.458 590.039 176.786 588.965 178.335C587.887 179.86 587.058 181.561 586.479 183.438C585.92 185.285 585.532 187.155 585.316 189.047C585.125 190.935 585.069 192.786 585.149 194.602C585.249 196.388 585.424 198.007 585.673 199.458Z" stroke="black" stroke-width="4" mask="url(#path-2-outside-1)"/>
<defs>
<linearGradient id="paint0_linear" x1="355.879" y1="190.192" x2="369.566" y2="269.945" gradientUnits="userSpaceOnUse">
<stop stop-color="#2FAD74"/>
<stop offset="0.385417" stop-color="#ED603C"/>
</linearGradient>
<linearGradient id="paint1_linear" x1="377.526" y1="187.952" x2="396.156" y2="337.837" gradientUnits="userSpaceOnUse">
<stop offset="0.00520833" stop-color="white"/>
<stop offset="0.541667" stop-color="white" stop-opacity="0"/>
<stop offset="1" stop-color="#D597C3"/>
</linearGradient>
<linearGradient id="paint2_linear" x1="355.879" y1="190.192" x2="369.566" y2="269.945" gradientUnits="userSpaceOnUse">
<stop stop-color="#2FAD74"/>
<stop offset="0.385417" stop-color="#ED603C"/>
</linearGradient>
<linearGradient id="paint3_linear" x1="377.526" y1="187.952" x2="396.156" y2="337.837" gradientUnits="userSpaceOnUse">
<stop offset="0.00520833" stop-color="white"/>
<stop offset="0.541667" stop-color="white" stop-opacity="0"/>
<stop offset="1" stop-color="#D597C3"/>
</linearGradient>
<linearGradient id="paint4_linear" x1="355.879" y1="190.192" x2="369.566" y2="269.945" gradientUnits="userSpaceOnUse">
<stop stop-color="#2FAD74"/>
<stop offset="0.385417" stop-color="#ED603C"/>
</linearGradient>
<linearGradient id="paint5_linear" x1="377.526" y1="187.952" x2="396.156" y2="337.837" gradientUnits="userSpaceOnUse">
<stop offset="0.00520833" stop-color="white"/>
<stop offset="0.541667" stop-color="white" stop-opacity="0"/>
<stop offset="1" stop-color="#D597C3"/>
</linearGradient>
<linearGradient id="paint6_linear" x1="355.879" y1="190.192" x2="369.566" y2="269.945" gradientUnits="userSpaceOnUse">
<stop stop-color="#2FAD74"/>
<stop offset="0.385417" stop-color="#ED603C"/>
</linearGradient>
<linearGradient id="paint7_linear" x1="377.526" y1="187.952" x2="396.156" y2="337.837" gradientUnits="userSpaceOnUse">
<stop offset="0.00520833" stop-color="white"/>
<stop offset="0.541667" stop-color="white" stop-opacity="0"/>
<stop offset="1" stop-color="#D597C3"/>
</linearGradient>
<linearGradient id="paint8_linear" x1="355.879" y1="190.192" x2="369.566" y2="269.945" gradientUnits="userSpaceOnUse">
<stop stop-color="#2FAD74"/>
<stop offset="0.385417" stop-color="#ED603C"/>
</linearGradient>
<linearGradient id="paint9_linear" x1="377.526" y1="187.952" x2="396.156" y2="337.837" gradientUnits="userSpaceOnUse">
<stop offset="0.00520833" stop-color="white"/>
<stop offset="0.541667" stop-color="white" stop-opacity="0"/>
<stop offset="1" stop-color="#D597C3"/>
</linearGradient>
<linearGradient id="paint10_linear" x1="355.879" y1="190.192" x2="369.566" y2="269.945" gradientUnits="userSpaceOnUse">
<stop stop-color="#2FAD74"/>
<stop offset="0.385417" stop-color="#ED603C"/>
</linearGradient>
<linearGradient id="paint11_linear" x1="377.526" y1="187.952" x2="396.156" y2="337.837" gradientUnits="userSpaceOnUse">
<stop offset="0.00520833" stop-color="white"/>
<stop offset="0.541667" stop-color="white" stop-opacity="0"/>
<stop offset="1" stop-color="#D597C3"/>
</linearGradient>
<linearGradient id="paint12_linear" x1="355.879" y1="190.192" x2="369.566" y2="269.945" gradientUnits="userSpaceOnUse">
<stop stop-color="#2FAD74"/>
<stop offset="0.385417" stop-color="#ED603C"/>
</linearGradient>
<linearGradient id="paint13_linear" x1="377.526" y1="187.952" x2="396.156" y2="337.837" gradientUnits="userSpaceOnUse">
<stop offset="0.00520833" stop-color="white"/>
<stop offset="0.541667" stop-color="white" stop-opacity="0"/>
<stop offset="1" stop-color="#D597C3"/>
</linearGradient>
<linearGradient id="paint14_linear" x1="355.879" y1="190.192" x2="369.566" y2="269.945" gradientUnits="userSpaceOnUse">
<stop stop-color="#2FAD74"/>
<stop offset="0.385417" stop-color="#ED603C"/>
</linearGradient>
<linearGradient id="paint15_linear" x1="377.526" y1="187.952" x2="396.156" y2="337.837" gradientUnits="userSpaceOnUse">
<stop offset="0.00520833" stop-color="white"/>
<stop offset="0.541667" stop-color="white" stop-opacity="0"/>
<stop offset="1" stop-color="#D597C3"/>
</linearGradient>
<linearGradient id="paint16_linear" x1="355.879" y1="190.192" x2="369.566" y2="269.945" gradientUnits="userSpaceOnUse">
<stop stop-color="#2FAD74"/>
<stop offset="0.385417" stop-color="#ED603C"/>
</linearGradient>
<linearGradient id="paint17_linear" x1="377.526" y1="187.952" x2="396.156" y2="337.837" gradientUnits="userSpaceOnUse">
<stop offset="0.00520833" stop-color="white"/>
<stop offset="0.541667" stop-color="white" stop-opacity="0"/>
<stop offset="1" stop-color="#D597C3"/>
</linearGradient>
<linearGradient id="paint18_linear" x1="355.879" y1="190.192" x2="369.566" y2="269.945" gradientUnits="userSpaceOnUse">
<stop stop-color="#2FAD74"/>
<stop offset="0.385417" stop-color="#ED603C"/>
</linearGradient>
<linearGradient id="paint19_linear" x1="377.526" y1="187.952" x2="396.156" y2="337.837" gradientUnits="userSpaceOnUse">
<stop offset="0.00520833" stop-color="white"/>
<stop offset="0.541667" stop-color="white" stop-opacity="0"/>
<stop offset="1" stop-color="#D597C3"/>
</linearGradient>
</defs>
</svg>
