<svg width="456" height="362" viewBox="0 0 456 362" fill="none" xmlns="http://www.w3.org/2000/svg">
<rect x="2.23535" y="52.0352" width="390.064" height="72.5773" transform="rotate(-7.66636 2.23535 52.0352)" fill="#EBFF00"/>
<path d="M26.2446 64.8136L59.7367 60.0981L58.078 102.454L49.424 103.672L50.8473 68.5992L34.607 70.8857L33.2118 105.955L24.5859 107.169L26.2446 64.8136Z" fill="url(#paint0_linear)"/>
<path d="M67.8288 58.9588L82.0461 56.9571C84.7247 56.58 87.028 56.59 88.956 56.9871C90.9001 57.3629 92.5213 58.0229 93.8195 58.9672C95.1338 59.8902 96.1454 61.0372 96.8542 62.4083C97.5791 63.7581 98.0523 65.2197 98.2739 66.7931C98.6035 69.1346 98.543 71.2826 98.0923 73.2373C97.6603 75.1893 96.8329 76.9104 95.61 78.4007C94.3871 79.891 92.7755 81.1303 90.7751 82.1188C88.7935 83.1046 86.4165 83.7926 83.6442 84.183L75.3555 85.35L74.796 100.1L66.1701 101.314L67.8288 58.9588ZM75.6713 78.0273L83.3419 76.9473C84.7093 76.7548 85.8536 76.4026 86.7749 75.8909C87.6962 75.3791 88.4211 74.7613 88.9496 74.0374C89.4968 73.3108 89.8609 72.505 90.0419 71.6199C90.2203 70.716 90.2423 69.7864 90.1078 68.8311C89.9996 68.0631 89.8045 67.3552 89.5222 66.7072C89.256 66.0379 88.8626 65.482 88.3418 65.0395C87.8184 64.5783 87.1516 64.2519 86.3414 64.0604C85.55 63.8661 84.5829 63.8495 83.4403 64.0103L76.1912 65.031L75.6713 78.0273Z" fill="url(#paint1_linear)"/>
<path d="M104.298 78.2377C104.021 76.2709 103.939 74.267 104.053 72.2261C104.164 70.1664 104.492 68.1527 105.037 66.1848C105.581 64.217 106.339 62.3432 107.311 60.5635C108.302 58.7812 109.528 57.1759 110.989 55.7476C112.449 54.3193 114.163 53.123 116.128 52.1586C118.091 51.1754 120.318 50.5084 122.81 50.1577C125.095 49.8359 127.165 49.8214 129.021 50.1141C130.896 50.4041 132.563 50.9144 134.022 51.645C135.481 52.3756 136.757 53.2944 137.849 54.4015C138.957 55.4872 139.897 56.6729 140.671 57.9585C141.441 59.2254 142.048 60.5535 142.492 61.9429C142.955 63.3295 143.28 64.6879 143.467 66.0178C143.744 67.9846 143.827 69.9979 143.716 72.0575C143.602 74.0984 143.273 76.1028 142.729 78.0707C142.184 80.0385 141.417 81.9136 140.426 83.6959C139.454 85.4756 138.237 87.0796 136.777 88.5079C135.316 89.9361 133.603 91.1325 131.637 92.0969C129.674 93.0801 127.447 93.7471 124.956 94.0978C122.652 94.4222 120.572 94.4381 118.716 94.1454C116.86 93.8527 115.193 93.3424 113.715 92.6144C112.256 91.8838 110.972 90.9757 109.864 89.89C108.772 88.7829 107.84 87.5866 107.067 86.3009C106.312 85.0126 105.705 83.6845 105.245 82.3166C104.801 80.9273 104.485 79.5676 104.298 78.2377ZM112.979 77.4166C113.246 79.3085 113.739 80.9106 114.458 82.2229C115.175 83.5164 116.045 84.5401 117.068 85.2939C118.091 86.0477 119.214 86.5583 120.436 86.8256C121.674 87.0715 122.939 87.1035 124.232 86.9215C125.993 86.6736 127.496 86.1563 128.741 85.3697C129.987 84.583 131.027 83.6247 131.861 82.4948C132.695 81.3649 133.341 80.1183 133.799 78.7548C134.275 77.3888 134.606 76.005 134.79 74.6036C134.994 73.1996 135.078 71.8314 135.043 70.4991C135.025 69.1454 134.939 67.9253 134.786 66.8389C134.517 64.9283 134.024 63.3262 133.307 62.0326C132.59 60.7391 131.72 59.7154 130.697 58.9616C129.674 58.2078 128.543 57.7079 127.305 57.462C126.083 57.1947 124.826 57.152 123.533 57.334C121.773 57.5819 120.269 58.0991 119.024 58.8858C117.778 59.6725 116.738 60.6307 115.904 61.7607C115.067 62.8718 114.412 64.1198 113.938 65.5046C113.481 66.868 113.15 68.2518 112.947 69.6558C112.762 71.0572 112.679 72.4348 112.698 73.7885C112.732 75.1208 112.826 76.3302 112.979 77.4166Z" fill="url(#paint2_linear)"/>
<path d="M151.109 47.2334L159.735 46.019L158.502 74.3025L158.615 74.2867L175.273 43.8313L184.489 42.5338L182.774 84.8972L174.12 86.1156L176.395 56.6825L176.282 56.6983L158.189 88.3586L149.338 89.6047L151.109 47.2334Z" fill="url(#paint3_linear)"/>
<path d="M192.694 41.3787L218.656 37.7234L218.336 45.018L201 47.4588L199.548 82.5355L190.923 83.7499L192.694 41.3787Z" fill="url(#paint4_linear)"/>
<path d="M223.32 37.0667L237.537 35.065C240.216 34.6879 242.519 34.6979 244.447 35.095C246.391 35.4708 248.012 36.1309 249.31 37.0752C250.625 37.9981 251.636 39.1451 252.345 40.5162C253.07 41.866 253.543 43.3276 253.765 44.901C254.095 47.2425 254.034 49.3905 253.583 51.3452C253.151 53.2972 252.324 55.0183 251.101 56.5086C249.878 57.9989 248.266 59.2382 246.266 60.2267C244.284 61.2125 241.908 61.9006 239.135 62.2909L230.847 63.4579L230.287 78.2077L221.661 79.4222L223.32 37.0667ZM231.162 56.1352L238.833 55.0552C240.2 54.8627 241.345 54.5106 242.266 53.9988C243.187 53.487 243.912 52.8692 244.441 52.1453C244.988 51.4187 245.352 50.6129 245.533 49.7278C245.711 48.8239 245.733 47.8944 245.599 46.9391C245.491 46.1711 245.295 45.4631 245.013 44.8151C244.747 44.1458 244.354 43.5899 243.833 43.1474C243.309 42.6862 242.643 42.3599 241.832 42.1683C241.041 41.9741 240.074 41.9574 238.931 42.1183L231.682 43.1389L231.162 56.1352Z" fill="url(#paint5_linear)"/>
<path d="M278.903 38.0379L278.79 38.0537L272.673 56.6807L283.041 55.2209L278.903 38.0379ZM274.007 29.9302L284.094 28.51L295.136 69.0774L286.622 70.2761L284.72 62.2627L270.166 64.3119L267.347 72.9898L258.188 74.2795L274.007 29.9302Z" fill="url(#paint6_linear)"/>
<path d="M325.527 29.9261L313.614 31.6034L311.796 53.6941C311.609 55.898 311.31 57.9078 310.897 59.7234C310.5 61.5177 309.899 63.0828 309.094 64.4187C308.304 65.7333 307.271 66.8053 305.993 67.6347C304.734 68.4615 303.159 69.008 301.267 69.2744C300.312 69.4089 299.419 69.4486 298.59 69.3934C297.764 69.3569 296.865 69.216 295.894 68.9706L296.058 61.3828C296.668 61.5071 297.251 61.5778 297.807 61.595C298.38 61.5908 298.797 61.5702 299.059 61.5333C299.472 61.4753 299.853 61.4025 300.204 61.3149C300.552 61.2086 300.869 61.0207 301.156 60.7511C301.443 60.4814 301.695 60.1021 301.912 59.613C302.146 59.1025 302.364 58.4127 302.567 57.5437C302.766 56.6559 302.947 55.5608 303.107 54.2583C303.284 52.9345 303.459 51.3337 303.634 49.4561L305.729 25.464L334.445 21.421L332.758 63.7804L324.132 64.9949L325.527 29.9261Z" fill="url(#paint7_linear)"/>
<path d="M359.711 26.6607L359.598 26.6765L353.481 45.3034L363.849 43.8437L359.711 26.6607ZM354.816 18.553L364.903 17.1328L375.944 57.7002L367.43 58.8988L365.528 50.8855L350.974 52.9347L348.156 61.6126L338.996 62.9022L354.816 18.553Z" fill="url(#paint8_linear)"/>
<rect x="13.5762" y="131.055" width="327.185" height="72.5773" transform="rotate(-7.66636 13.5762 131.055)" fill="#EBFF00"/>
<path d="M37.4111 144.236L45.8685 143.045L45.0279 159.869L58.3718 141.285L69.0769 139.777L54.3454 159.904L69.7784 181.801L60.1691 183.153L49.2389 166.984L44.7486 172.946L44.3221 185.385L35.7524 186.591L37.4111 144.236Z" fill="black"/>
<path d="M75.2302 138.911L89.4475 136.909C92.1261 136.532 94.4295 136.542 96.3575 136.939C98.3015 137.315 99.9227 137.975 101.221 138.919C102.535 139.842 103.547 140.989 104.256 142.361C104.981 143.71 105.454 145.172 105.675 146.745C106.005 149.087 105.944 151.235 105.494 153.19C105.062 155.142 104.234 156.863 103.011 158.353C101.789 159.843 100.177 161.083 98.1766 162.071C96.1949 163.057 93.818 163.745 91.0457 164.135L82.757 165.302L82.1974 180.052L73.5715 181.266L75.2302 138.911ZM83.0727 157.98L90.7433 156.9C92.1107 156.707 93.2551 156.355 94.1764 155.843C95.0977 155.331 95.8226 154.714 96.351 153.99C96.8983 153.263 97.2624 152.457 97.4434 151.572C97.6218 150.668 97.6437 149.739 97.5092 148.783C97.4011 148.015 97.2059 147.307 96.9237 146.659C96.6575 145.99 96.264 145.434 95.7433 144.992C95.2199 144.531 94.5531 144.204 93.7429 144.013C92.9514 143.818 91.9844 143.802 90.8417 143.963L83.5926 144.983L83.0727 157.98Z" fill="black"/>
<path d="M112.309 168.42C113.322 168.564 114.147 168.658 114.784 168.702C115.439 168.743 116.067 168.722 116.666 168.637C117.809 168.476 118.709 168.225 119.368 167.884C120.046 167.541 120.552 167.135 120.888 166.667C121.22 166.181 121.413 165.648 121.465 165.068C121.535 164.484 121.525 163.865 121.432 163.21C121.335 162.516 121.146 161.722 120.867 160.825C120.588 159.928 120.2 158.865 119.702 157.636L110.268 133.978L119.146 132.728L126.902 155.047L127.015 155.031L135.246 130.461L144.743 129.124L129.849 166.409C129.241 167.927 128.567 169.244 127.826 170.361C127.102 171.457 126.269 172.395 125.329 173.177C124.388 173.959 123.329 174.576 122.151 175.029C120.975 175.5 119.638 175.841 118.14 176.052C117.709 176.112 117.237 176.15 116.723 176.165C116.228 176.178 115.711 176.165 115.17 176.126C114.651 176.104 114.13 176.062 113.606 176.002C113.103 175.959 112.627 175.902 112.177 175.831L112.309 168.42Z" fill="black"/>
<path d="M148.789 128.554L182.281 123.839L180.623 166.194L171.969 167.413L173.392 132.34L157.152 134.627L155.756 169.695L147.131 170.91L148.789 128.554Z" fill="black"/>
<path d="M190.43 122.692L199.055 121.477L198.401 137.587L214.557 135.313L215.24 119.199L223.865 117.984L222.151 160.348L213.497 161.566L214.297 142.627L198.141 144.902L197.341 163.841L188.715 165.055L190.43 122.692Z" fill="black"/>
<path d="M230.655 151.757C231.669 151.901 232.494 151.995 233.13 152.039C233.786 152.081 234.413 152.059 235.012 151.975C236.155 151.814 237.056 151.563 237.715 151.222C238.392 150.878 238.898 150.473 239.234 150.005C239.567 149.519 239.759 148.986 239.811 148.405C239.882 147.822 239.871 147.203 239.779 146.547C239.681 145.854 239.493 145.059 239.214 144.162C238.934 143.266 238.546 142.203 238.048 140.974L228.614 117.316L237.493 116.066L245.248 138.384L245.361 138.368L253.593 113.799L263.089 112.462L248.195 149.746C247.587 151.265 246.913 152.582 246.172 153.699C245.448 154.794 244.615 155.733 243.675 156.515C242.734 157.297 241.675 157.914 240.497 158.366C239.322 158.837 237.985 159.178 236.486 159.389C236.055 159.45 235.583 159.488 235.069 159.503C234.574 159.515 234.057 159.502 233.517 159.464C232.998 159.441 232.476 159.4 231.952 159.34C231.449 159.296 230.973 159.239 230.524 159.169L230.655 151.757Z" fill="black"/>
<path d="M305.543 123.362C305.276 121.47 304.825 119.891 304.188 118.624C303.57 117.355 302.828 116.361 301.963 115.642C301.095 114.905 300.138 114.419 299.093 114.184C298.047 113.949 296.981 113.908 295.895 114.061C294.621 114.24 293.478 114.669 292.465 115.346C291.469 116.002 290.593 116.842 289.84 117.865C289.102 118.867 288.48 120.014 287.975 121.308C287.469 122.602 287.089 123.973 286.835 125.423C286.58 126.872 286.446 128.362 286.433 129.892C286.416 131.404 286.511 132.89 286.716 134.351C286.985 136.262 287.429 137.852 288.047 139.121C288.684 140.388 289.436 141.39 290.304 142.127C291.17 142.846 292.125 143.323 293.17 143.557C294.216 143.792 295.282 143.833 296.368 143.68C297.642 143.501 298.783 143.054 299.79 142.339C300.795 141.605 301.661 140.7 302.388 139.623C303.131 138.525 303.742 137.303 304.221 135.955C304.716 134.587 305.091 133.178 305.345 131.728C305.599 130.279 305.74 128.836 305.767 127.399C305.794 125.963 305.719 124.617 305.543 123.362ZM265.983 112.054L274.609 110.84L273.948 128.527L278.303 127.914C278.362 126.434 278.551 124.927 278.87 123.392C279.204 121.836 279.689 120.326 280.323 118.861C280.958 117.396 281.744 115.996 282.683 114.66C283.641 113.322 284.762 112.123 286.045 111.064C287.345 109.983 288.821 109.068 290.473 108.32C292.125 107.571 293.981 107.052 296.042 106.762C297.091 106.614 298.212 106.571 299.405 106.632C300.614 106.672 301.819 106.885 303.019 107.27C304.235 107.633 305.422 108.192 306.579 108.946C307.733 109.682 308.799 110.668 309.775 111.906C310.749 113.125 311.59 114.621 312.298 116.393C313.025 118.163 313.558 120.256 313.899 122.673C314.141 124.396 314.219 126.238 314.132 128.199C314.064 130.157 313.806 132.123 313.358 134.096C312.91 136.069 312.254 137.995 311.392 139.874C310.545 141.732 309.456 143.423 308.123 144.948C306.807 146.451 305.239 147.732 303.421 148.791C301.599 149.83 299.509 150.516 297.148 150.849C294.357 151.242 291.88 151.151 289.717 150.577C287.552 149.984 285.692 148.985 284.138 147.58C282.584 146.175 281.32 144.395 280.348 142.239C279.392 140.062 278.721 137.597 278.333 134.844L273.641 135.504L272.951 153.195L264.325 154.41L265.983 112.054Z" fill="black"/>
<rect x="24.7656" y="210.453" width="408.564" height="72.5773" transform="rotate(-7.66636 24.7656 210.453)" fill="#EBFF00"/>
<path d="M73.4792 234.259C73.3077 233.041 72.9581 231.983 72.4302 231.083C71.8997 230.164 71.2418 229.426 70.4564 228.868C69.6871 228.288 68.8105 227.896 67.8264 227.691C66.8585 227.464 65.8406 227.426 64.7729 227.576C63.0122 227.824 61.509 228.341 60.2634 229.128C59.0179 229.915 57.978 230.873 57.1437 232.003C56.3068 233.114 55.6515 234.362 55.1779 235.747C54.7204 237.11 54.3899 238.494 54.1864 239.898C54.0016 241.299 53.9186 242.677 53.9373 244.031C53.972 245.363 54.0659 246.572 54.2188 247.659C54.4219 249.101 54.7817 250.435 55.2982 251.662C55.8334 252.885 56.5523 253.921 57.4548 254.768C58.376 255.612 59.4943 256.229 60.8097 256.616C62.1439 257.002 63.7007 257.069 65.4802 256.819C66.5479 256.668 67.5597 256.392 68.5155 255.99C69.4875 255.567 70.3527 254.996 71.1112 254.278C71.8671 253.541 72.4949 252.641 72.9947 251.577C73.4944 250.513 73.814 249.255 73.9533 247.803L82.7197 246.569C82.4714 249.011 81.9358 251.245 81.1131 253.271C80.3091 255.294 79.2127 257.072 77.8239 258.605C76.4511 260.116 74.7927 261.362 72.8485 262.343C70.9043 263.323 68.6866 263.989 66.1953 264.34C63.91 264.662 61.8301 264.678 59.9553 264.387C58.0994 264.095 56.4418 263.583 54.9826 262.853C53.5234 262.122 52.2399 261.214 51.1319 260.128C50.0399 259.021 49.1074 257.825 48.3342 256.539C47.561 255.253 46.9444 253.927 46.4843 252.559C46.0404 251.169 45.7248 249.81 45.5375 248.48C45.2606 246.513 45.1791 244.509 45.2929 242.468C45.4041 240.408 45.7318 238.395 46.2762 236.427C46.8206 234.459 47.5788 232.585 48.5508 230.806C49.5415 229.023 50.7673 227.418 52.2282 225.99C53.6891 224.561 55.4023 223.365 57.3678 222.401C59.3307 221.417 61.5578 220.75 64.0491 220.4C66.3905 220.07 68.5801 220.087 70.6179 220.449C72.6744 220.809 74.4934 221.518 76.075 222.575C77.6565 223.632 78.9712 225.033 80.0191 226.776C81.0669 228.52 81.7622 230.609 82.1051 233.044L73.4792 234.259Z" fill="black"/>
<path d="M88.321 252.772C89.3346 252.916 90.1598 253.01 90.7964 253.054C91.4517 253.095 92.0791 253.074 92.6785 252.989C93.8211 252.828 94.7218 252.577 95.3806 252.236C96.0581 251.893 96.5645 251.487 96.8999 251.019C97.2326 250.533 97.4249 250 97.4769 249.42C97.5477 248.836 97.5369 248.217 97.4446 247.562C97.347 246.868 97.1587 246.074 96.8796 245.177C96.6005 244.28 96.2121 243.217 95.7143 241.988L86.28 218.33L95.1588 217.08L102.914 239.399L103.027 239.383L111.259 214.813L120.756 213.476L105.861 250.761C105.253 252.279 104.579 253.596 103.839 254.713C103.114 255.809 102.281 256.747 101.341 257.529C100.4 258.311 99.341 258.928 98.163 259.381C96.9877 259.852 95.6507 260.193 94.1522 260.404C93.7214 260.464 93.2491 260.502 92.7355 260.517C92.2405 260.53 91.7229 260.517 91.1826 260.478C90.6637 260.456 90.1421 260.414 89.6179 260.354C89.115 260.311 88.639 260.253 88.1897 260.183L88.321 252.772Z" fill="black"/>
<path d="M124.577 212.938L137.164 211.166L143.214 241.519L143.327 241.503L151.663 209.125L164.672 207.293L163.013 249.648L154.949 250.784L156.832 214.5L156.72 214.516L146.913 251.915L139.243 252.995L131.91 218.009L131.797 218.025L131.179 254.13L123.143 255.262L124.577 212.938Z" fill="black"/>
<path d="M172.511 206.189L185.099 204.417L191.149 234.77L191.261 234.754L199.597 202.376L212.606 200.544L210.947 242.9L202.883 244.035L204.766 207.751L204.654 207.767L194.847 245.166L187.177 246.246L179.844 211.26L179.732 211.276L179.113 247.382L171.077 248.513L172.511 206.189Z" fill="black"/>
<path d="M219.367 234.321C220.381 234.465 221.206 234.559 221.843 234.603C222.498 234.645 223.125 234.623 223.725 234.539C224.867 234.378 225.768 234.127 226.427 233.786C227.104 233.442 227.611 233.036 227.946 232.569C228.279 232.083 228.471 231.549 228.523 230.969C228.594 230.386 228.583 229.767 228.491 229.111C228.393 228.418 228.205 227.623 227.926 226.726C227.647 225.83 227.258 224.767 226.761 223.538L217.326 199.88L226.205 198.629L233.961 220.948L234.073 220.932L242.305 196.363L251.802 195.026L236.907 232.31C236.3 233.829 235.625 235.146 234.885 236.263C234.16 237.358 233.328 238.297 232.387 239.079C231.447 239.861 230.387 240.478 229.209 240.93C228.034 241.401 226.697 241.742 225.198 241.953C224.768 242.014 224.295 242.052 223.782 242.067C223.287 242.079 222.769 242.066 222.229 242.028C221.71 242.005 221.188 241.964 220.664 241.904C220.161 241.86 219.685 241.803 219.236 241.733L219.367 234.321Z" fill="black"/>
<path d="M256.138 243.328C257.779 242.639 259.013 241.701 259.84 240.515C260.685 239.326 261.236 237.749 261.494 235.783L256.634 236.467L257.225 227.845L265.879 226.627L265.354 234.093C265.271 235.404 265.009 236.797 264.567 238.273C264.125 239.749 263.414 241.072 262.432 242.241C261.349 243.502 260.115 244.507 258.731 245.255C257.367 246.02 256.433 246.439 255.927 246.51L256.138 243.328Z" fill="black"/>
<path d="M287.935 189.938L296.561 188.724L295.906 204.834L312.062 202.559L312.745 186.445L321.371 185.231L319.656 227.594L311.002 228.813L311.803 209.874L295.647 212.149L294.846 231.087L286.22 232.302L287.935 189.938Z" fill="black"/>
<path d="M327.551 208.774C327.274 206.807 327.193 204.803 327.306 202.763C327.418 200.703 327.745 198.689 328.29 196.721C328.834 194.753 329.592 192.88 330.564 191.1C331.555 189.318 332.781 187.712 334.242 186.284C335.703 184.856 337.416 183.659 339.381 182.695C341.344 181.712 343.571 181.045 346.063 180.694C348.348 180.372 350.419 180.358 352.275 180.651C354.149 180.941 355.816 181.451 357.275 182.181C358.735 182.912 360.01 183.831 361.102 184.938C362.21 186.024 363.151 187.209 363.924 188.495C364.694 189.762 365.302 191.09 365.746 192.479C366.208 193.866 366.533 195.224 366.72 196.554C366.997 198.521 367.08 200.534 366.969 202.594C366.855 204.635 366.526 206.639 365.982 208.607C365.437 210.575 364.67 212.45 363.679 214.232C362.707 216.012 361.491 217.616 360.03 219.044C358.569 220.473 356.856 221.669 354.89 222.633C352.927 223.617 350.7 224.284 348.209 224.634C345.905 224.959 343.825 224.975 341.969 224.682C340.113 224.389 338.446 223.879 336.968 223.151C335.509 222.42 334.225 221.512 333.117 220.426C332.025 219.319 331.093 218.123 330.32 216.837C329.565 215.549 328.958 214.221 328.498 212.853C328.054 211.464 327.738 210.104 327.551 208.774ZM336.232 207.953C336.499 209.845 336.992 211.447 337.711 212.759C338.428 214.053 339.298 215.077 340.322 215.83C341.345 216.584 342.467 217.095 343.689 217.362C344.927 217.608 346.193 217.64 347.485 217.458C349.246 217.21 350.749 216.693 351.995 215.906C353.24 215.12 354.28 214.161 355.114 213.031C355.949 211.901 356.594 210.655 357.052 209.291C357.528 207.925 357.859 206.542 358.044 205.14C358.247 203.736 358.331 202.368 358.297 201.036C358.278 199.682 358.192 198.462 358.039 197.375C357.77 195.465 357.277 193.863 356.56 192.569C355.843 191.276 354.973 190.252 353.95 189.498C352.927 188.744 351.796 188.244 350.558 187.998C349.336 187.731 348.079 187.688 346.787 187.87C345.026 188.118 343.523 188.636 342.277 189.422C341.031 190.209 339.992 191.167 339.157 192.297C338.32 193.408 337.665 194.656 337.191 196.041C336.734 197.405 336.403 198.788 336.2 200.192C336.015 201.594 335.932 202.971 335.951 204.325C335.986 205.657 336.079 206.867 336.232 207.953Z" fill="black"/>
<path d="M375.908 211.135L384.422 209.937L383.831 218.559L375.317 219.757L375.908 211.135Z" fill="black"/>
<path d="M391.924 208.88L400.437 207.682L399.846 216.304L391.333 217.503L391.924 208.88Z" fill="black"/>
<path d="M407.939 206.625L416.453 205.427L415.862 214.049L407.348 215.248L407.939 206.625Z" fill="black"/>
<defs>
<linearGradient id="paint0_linear" x1="196.117" y1="29.5989" x2="205.674" y2="97.4835" gradientUnits="userSpaceOnUse">
<stop/>
<stop offset="0.4375"/>
</linearGradient>
<linearGradient id="paint1_linear" x1="196.117" y1="29.5989" x2="205.674" y2="97.4835" gradientUnits="userSpaceOnUse">
<stop/>
<stop offset="0.4375"/>
</linearGradient>
<linearGradient id="paint2_linear" x1="196.117" y1="29.5989" x2="205.674" y2="97.4835" gradientUnits="userSpaceOnUse">
<stop/>
<stop offset="0.4375"/>
</linearGradient>
<linearGradient id="paint3_linear" x1="196.117" y1="29.5989" x2="205.674" y2="97.4835" gradientUnits="userSpaceOnUse">
<stop/>
<stop offset="0.4375"/>
</linearGradient>
<linearGradient id="paint4_linear" x1="196.117" y1="29.5989" x2="205.674" y2="97.4835" gradientUnits="userSpaceOnUse">
<stop/>
<stop offset="0.4375"/>
</linearGradient>
<linearGradient id="paint5_linear" x1="196.117" y1="29.5989" x2="205.674" y2="97.4835" gradientUnits="userSpaceOnUse">
<stop/>
<stop offset="0.4375"/>
</linearGradient>
<linearGradient id="paint6_linear" x1="196.117" y1="29.5989" x2="205.674" y2="97.4835" gradientUnits="userSpaceOnUse">
<stop/>
<stop offset="0.4375"/>
</linearGradient>
<linearGradient id="paint7_linear" x1="196.117" y1="29.5989" x2="205.674" y2="97.4835" gradientUnits="userSpaceOnUse">
<stop/>
<stop offset="0.4375"/>
</linearGradient>
<linearGradient id="paint8_linear" x1="196.117" y1="29.5989" x2="205.674" y2="97.4835" gradientUnits="userSpaceOnUse">
<stop/>
<stop offset="0.4375"/>
</linearGradient>
</defs>
</svg>
