<svg width="621" height="178" viewBox="0 0 621 178" fill="none" xmlns="http://www.w3.org/2000/svg">
<rect x="12.6924" width="612.906" height="101.081" transform="rotate(7.2136 12.6924 0)" fill="#EBFF00"/>
<mask id="path-2-outside-1" maskUnits="userSpaceOnUse" x="8.58252" y="17.3906" width="589" height="139" fill="black">
<rect fill="white" x="8.58252" y="17.3906" width="589" height="139"/>
<path d="M29.4474 29.4863L66.3812 34.0119L63.5081 43.3676L37.9531 40.2363L34.2883 52.2961L57.7262 55.1681L54.8485 64.5616L31.4862 61.6989L27.1414 75.8626L53.9439 79.1468L51.0662 88.5404L12.5825 83.8248L29.4474 29.4863Z"/>
<path d="M94.7711 21.8353C94.7315 22.3676 94.7942 22.8997 94.9592 23.4316C95.1526 23.9413 95.4781 24.416 95.9358 24.8558C96.4188 25.2987 97.0732 25.6987 97.8992 26.0557C98.7535 26.3906 99.8359 26.6383 101.146 26.7989C102.255 26.9348 103.31 26.9873 104.312 26.9566C105.316 26.9006 106.242 26.7582 107.089 26.5294C107.96 26.3037 108.73 25.9758 109.396 25.5459C110.066 25.0908 110.609 24.5179 111.027 23.8271L114.656 24.2718C114.143 25.9485 113.402 27.4053 112.432 28.6422C111.465 29.8539 110.346 30.8423 109.076 31.6076C107.808 32.3476 106.414 32.8675 104.894 33.1672C103.402 33.4448 101.862 33.4863 100.274 33.2918C97.8799 32.9984 96.0221 32.5022 94.7009 31.8031C93.3796 31.104 92.4233 30.245 91.8319 29.2261C91.2436 28.1819 90.9273 27.0048 90.8832 25.6948C90.8674 24.3627 90.9536 22.928 91.142 21.3906L94.7711 21.8353ZM76.9283 35.3042L88.5338 36.7263L77.1095 72.9682L77.2607 72.9867L109.439 39.2879L121.838 40.8072L104.898 95.1365L93.2546 93.7098L106.429 56.3394L106.278 56.3209L71.8201 91.0834L59.9121 89.6243L76.9283 35.3042Z"/>
<path d="M154.274 44.7816L176.01 47.4451C179.539 47.8775 182.485 48.571 184.849 49.5258C187.214 50.4806 189.087 51.6823 190.47 53.1307C191.856 54.554 192.78 56.202 193.241 58.0748C193.702 59.9475 193.794 62.018 193.516 64.2861C193.34 65.7227 192.983 67.073 192.444 68.3372C191.934 69.5793 191.233 70.7085 190.341 71.7247C189.477 72.7188 188.413 73.5733 187.149 74.2881C185.913 74.9808 184.481 75.4961 182.854 75.8339C183.816 76.5401 184.671 77.2844 185.419 78.0668C186.171 78.824 186.782 79.6791 187.254 80.6322C187.729 81.5601 188.051 82.5844 188.22 83.7052C188.415 84.829 188.429 86.0714 188.262 87.4323C187.92 90.2297 187.16 92.6692 185.984 94.7506C184.811 96.8068 183.25 98.4829 181.301 99.7788C179.351 101.075 177.042 101.969 174.373 102.46C171.706 102.926 168.697 102.954 165.345 102.543L137.409 99.1202L154.274 44.7816ZM151.892 91.1487L166.144 92.895C167.908 93.1112 169.427 93.0288 170.702 92.6477C171.976 92.2667 173.041 91.7193 173.896 91.0055C174.751 90.2917 175.401 89.476 175.846 88.5584C176.291 87.6409 176.567 86.7411 176.675 85.859C176.821 84.6745 176.742 83.6417 176.441 82.7607C176.143 81.8544 175.662 81.0792 174.999 80.4352C174.362 79.7943 173.554 79.2861 172.577 78.9105C171.6 78.535 170.506 78.2731 169.297 78.1249L156.444 76.5499L151.892 91.1487ZM159.19 67.6007L172.572 69.2405C175.319 69.5771 177.484 69.2412 179.065 68.2327C180.65 67.199 181.583 65.5355 181.864 63.2421C181.991 62.2088 181.907 61.3288 181.612 60.602C181.343 59.8783 180.905 59.2747 180.299 58.7912C179.718 58.3107 178.996 57.9409 178.133 57.6816C177.272 57.3971 176.338 57.1931 175.33 57.0695L162.931 55.5502L159.19 67.6007Z"/>
<path d="M239.542 74.1467C239.743 72.5085 239.657 71.0144 239.286 69.6642C238.917 68.2889 238.32 67.103 237.496 66.1067C236.7 65.0882 235.7 64.275 234.495 63.667C233.319 63.0368 232.012 62.6337 230.576 62.4577C228.207 62.1674 226.078 62.3159 224.19 62.9031C222.302 63.4903 220.621 64.3715 219.147 65.5466C217.676 66.6965 216.392 68.0869 215.297 69.7178C214.23 71.3265 213.321 73.0058 212.57 74.7555C211.843 76.5083 211.257 78.2654 210.811 80.027C210.393 81.7664 210.095 83.367 209.916 84.8287C209.678 86.7693 209.681 88.6243 209.924 90.3936C210.193 92.166 210.766 93.7582 211.641 95.1701C212.542 96.5851 213.778 97.7726 215.349 98.7324C216.945 99.6954 218.94 100.324 221.334 100.617C222.771 100.793 224.178 100.786 225.557 100.597C226.965 100.386 228.285 99.9466 229.518 99.2791C230.754 98.5864 231.88 97.6372 232.898 96.4317C233.915 95.2262 234.766 93.7062 235.452 91.8716L247.246 93.3168C246.076 96.3966 244.606 99.107 242.835 101.448C241.09 103.792 239.05 105.717 236.717 107.221C234.412 108.704 231.829 109.743 228.968 110.339C226.107 110.935 223 111.028 219.648 110.617C216.574 110.24 213.871 109.538 211.542 108.511C209.237 107.487 207.266 106.247 205.627 104.793C203.989 103.339 202.641 101.716 201.581 99.9233C200.55 98.1086 199.757 96.2335 199.201 94.298C198.645 92.3625 198.307 90.4281 198.185 88.4947C198.092 86.5392 198.156 84.6668 198.375 82.8774C198.699 80.2312 199.29 77.6048 200.146 74.9982C201.006 72.3664 202.13 69.8694 203.52 67.5072C204.909 65.145 206.543 62.979 208.422 61.0093C210.325 59.0426 212.472 57.3872 214.863 56.0429C217.253 54.6986 219.89 53.7427 222.773 53.1751C225.66 52.5823 228.779 52.4913 232.131 52.902C235.281 53.288 238.114 54.07 240.63 55.2481C243.171 56.4292 245.283 57.9798 246.967 59.9C248.65 61.8201 249.868 64.0926 250.621 66.7173C251.374 69.342 251.549 72.2925 251.148 75.5687L239.542 74.1467Z"/>
<path d="M266.171 58.4928L303.105 63.0184L300.232 72.3742L274.677 69.2428L271.012 81.3027L294.45 84.1746L291.572 93.5682L268.21 90.7055L263.865 104.869L290.668 108.153L287.79 117.547L249.306 112.831L266.171 58.4928Z"/>
<path d="M335.049 66.9326L354.177 69.2765C357.781 69.7181 360.764 70.5312 363.125 71.7159C365.515 72.8785 367.388 74.2975 368.743 75.9728C370.127 77.6259 371.04 79.4645 371.482 81.4885C371.953 83.4903 372.059 85.5497 371.8 87.6667C371.414 90.8169 370.589 93.5809 369.325 95.9586C368.087 98.3393 366.417 100.283 364.313 101.791C362.21 103.298 359.69 104.345 356.753 104.932C353.841 105.521 350.521 105.588 346.791 105.131L335.639 103.764L329.789 122.693L318.184 121.271L335.049 66.9326ZM338.592 94.3798L348.912 95.6444C350.752 95.8698 352.358 95.8108 353.73 95.4674C355.103 95.1239 356.257 94.5747 357.194 93.8197C358.156 93.0678 358.908 92.1496 359.45 91.0649C359.995 89.955 360.347 88.7574 360.504 87.4721C360.631 86.4388 360.624 85.4531 360.483 84.5149C360.37 83.5546 360.053 82.6972 359.532 81.9426C359.013 81.1629 358.262 80.5081 357.278 79.9782C356.32 79.4515 355.072 79.0939 353.534 78.9055L343.781 77.7104L338.592 94.3798Z"/>
<path d="M406.776 87.5014L406.624 87.4829L392.223 109.508L406.172 111.217L406.776 87.5014ZM403.245 75.289L416.817 76.9519L417.039 133.384L405.585 131.981L405.903 120.93L386.321 118.531L379.652 128.803L367.328 127.293L403.245 75.289Z"/>
<path d="M438.327 79.5876L460.064 82.2511C463.592 82.6835 466.538 83.377 468.903 84.3318C471.267 85.2866 473.141 86.4883 474.523 87.9367C475.91 89.36 476.833 91.008 477.294 92.8808C477.756 94.7535 477.847 96.824 477.569 99.0921C477.393 100.529 477.036 101.879 476.497 103.143C475.987 104.385 475.286 105.514 474.394 106.531C473.53 107.525 472.466 108.379 471.202 109.094C469.966 109.787 468.534 110.302 466.907 110.64C467.869 111.346 468.724 112.09 469.473 112.873C470.224 113.63 470.836 114.485 471.307 115.438C471.782 116.366 472.104 117.39 472.274 118.511C472.468 119.635 472.482 120.877 472.316 122.238C471.973 125.036 471.214 127.475 470.038 129.557C468.865 131.613 467.304 133.289 465.354 134.585C463.405 135.881 461.095 136.775 458.426 137.266C455.76 137.732 452.75 137.76 449.398 137.349L421.462 133.926L438.327 79.5876ZM435.945 125.955L450.197 127.701C451.961 127.917 453.481 127.835 454.755 127.454C456.03 127.073 457.094 126.525 457.949 125.811C458.804 125.098 459.454 124.282 459.899 123.364C460.344 122.447 460.621 121.547 460.729 120.665C460.874 119.481 460.796 118.448 460.494 117.567C460.196 116.66 459.716 115.885 459.053 115.241C458.415 114.6 457.607 114.092 456.63 113.717C455.653 113.341 454.56 113.079 453.35 112.931L440.497 111.356L435.945 125.955ZM443.243 102.407L456.626 104.047C459.373 104.383 461.537 104.047 463.119 103.039C464.703 102.005 465.636 100.341 465.917 98.0481C466.044 97.0148 465.96 96.1348 465.665 95.408C465.396 94.6843 464.958 94.0807 464.352 93.5972C463.772 93.1167 463.05 92.7469 462.186 92.4876C461.326 92.2031 460.391 91.9991 459.383 91.8755L446.984 90.3562L443.243 102.407Z"/>
<path d="M494.351 86.4525L505.957 87.8746L499.511 108.534L521.248 111.198L527.731 90.5427L539.337 91.9647L522.396 146.294L510.753 144.867L518.371 120.591L496.634 117.928L489.016 142.204L477.411 140.782L494.351 86.4525Z"/>
<path d="M539.171 124.636C539.495 121.99 540.085 119.364 540.942 116.757C541.802 114.125 542.926 111.628 544.316 109.266C545.705 106.904 547.339 104.738 549.218 102.768C551.121 100.801 553.268 99.146 555.658 97.8017C558.049 96.4575 560.685 95.5015 563.569 94.934C566.455 94.3412 569.575 94.2501 572.926 94.6609C576.001 95.0376 578.691 95.7381 580.995 96.7623C583.325 97.7896 585.309 99.0304 586.947 100.485C588.585 101.939 589.92 103.573 590.951 105.388C592.01 107.18 592.818 109.044 593.374 110.98C593.933 112.89 594.259 114.823 594.352 116.779C594.47 118.737 594.419 120.611 594.2 122.4C593.876 125.047 593.284 127.686 592.424 130.317C591.567 132.924 590.444 135.408 589.055 137.771C587.666 140.133 586.019 142.297 584.115 144.264C582.237 146.234 580.102 147.891 577.712 149.235C575.322 150.579 572.685 151.535 569.802 152.103C566.915 152.696 563.796 152.787 560.444 152.376C557.344 151.996 554.642 151.294 552.337 150.27C550.033 149.246 548.049 148.005 546.386 146.548C544.748 145.093 543.399 143.47 542.339 141.677C541.308 139.863 540.515 137.988 539.959 136.052C539.428 134.12 539.102 132.187 538.981 130.254C538.888 128.298 538.951 126.426 539.171 124.636ZM550.711 126.588C550.4 129.133 550.482 131.381 550.959 133.333C551.44 135.259 552.212 136.889 553.277 138.221C554.341 139.554 555.619 140.606 557.111 141.377C558.63 142.126 560.26 142.607 561.999 142.82C564.368 143.11 566.496 142.962 568.385 142.375C570.273 141.788 571.954 140.906 573.428 139.731C574.902 138.556 576.173 137.164 577.24 135.555C578.332 133.95 579.241 132.271 579.967 130.518C580.719 128.768 581.304 127.023 581.721 125.284C582.167 123.522 582.48 121.911 582.659 120.449C582.974 117.878 582.891 115.63 582.411 113.704C581.931 111.778 581.159 110.148 580.094 108.815C579.029 107.483 577.737 106.442 576.218 105.693C574.726 104.922 573.111 104.43 571.372 104.217C569.003 103.926 566.874 104.075 564.986 104.662C563.098 105.249 561.417 106.13 559.943 107.305C558.471 108.455 557.188 109.846 556.093 111.477C555.026 113.085 554.117 114.765 553.365 116.514C552.639 118.267 552.053 120.024 551.607 121.786C551.189 123.525 550.891 125.126 550.711 126.588Z"/>
</mask>
<path d="M29.4474 29.4863L66.3812 34.0119L63.5081 43.3676L37.9531 40.2363L34.2883 52.2961L57.7262 55.1681L54.8485 64.5616L31.4862 61.6989L27.1414 75.8626L53.9439 79.1468L51.0662 88.5404L12.5825 83.8248L29.4474 29.4863Z" fill="#ED603C"/>
<path d="M29.4474 29.4863L66.3812 34.0119L63.5081 43.3676L37.9531 40.2363L34.2883 52.2961L57.7262 55.1681L54.8485 64.5616L31.4862 61.6989L27.1414 75.8626L53.9439 79.1468L51.0662 88.5404L12.5825 83.8248L29.4474 29.4863Z" fill="url(#paint0_linear)"/>
<path d="M29.4474 29.4863L66.3812 34.0119L63.5081 43.3676L37.9531 40.2363L34.2883 52.2961L57.7262 55.1681L54.8485 64.5616L31.4862 61.6989L27.1414 75.8626L53.9439 79.1468L51.0662 88.5404L12.5825 83.8248L29.4474 29.4863Z" fill="url(#paint1_linear)"/>
<path d="M94.7711 21.8353C94.7315 22.3676 94.7942 22.8997 94.9592 23.4316C95.1526 23.9413 95.4781 24.416 95.9358 24.8558C96.4188 25.2987 97.0732 25.6987 97.8992 26.0557C98.7535 26.3906 99.8359 26.6383 101.146 26.7989C102.255 26.9348 103.31 26.9873 104.312 26.9566C105.316 26.9006 106.242 26.7582 107.089 26.5294C107.96 26.3037 108.73 25.9758 109.396 25.5459C110.066 25.0908 110.609 24.5179 111.027 23.8271L114.656 24.2718C114.143 25.9485 113.402 27.4053 112.432 28.6422C111.465 29.8539 110.346 30.8423 109.076 31.6076C107.808 32.3476 106.414 32.8675 104.894 33.1672C103.402 33.4448 101.862 33.4863 100.274 33.2918C97.8799 32.9984 96.0221 32.5022 94.7009 31.8031C93.3796 31.104 92.4233 30.245 91.8319 29.2261C91.2436 28.1819 90.9273 27.0048 90.8832 25.6948C90.8674 24.3627 90.9536 22.928 91.142 21.3906L94.7711 21.8353ZM76.9283 35.3042L88.5338 36.7263L77.1095 72.9682L77.2607 72.9867L109.439 39.2879L121.838 40.8072L104.898 95.1365L93.2546 93.7098L106.429 56.3394L106.278 56.3209L71.8201 91.0834L59.9121 89.6243L76.9283 35.3042Z" fill="#ED603C"/>
<path d="M94.7711 21.8353C94.7315 22.3676 94.7942 22.8997 94.9592 23.4316C95.1526 23.9413 95.4781 24.416 95.9358 24.8558C96.4188 25.2987 97.0732 25.6987 97.8992 26.0557C98.7535 26.3906 99.8359 26.6383 101.146 26.7989C102.255 26.9348 103.31 26.9873 104.312 26.9566C105.316 26.9006 106.242 26.7582 107.089 26.5294C107.96 26.3037 108.73 25.9758 109.396 25.5459C110.066 25.0908 110.609 24.5179 111.027 23.8271L114.656 24.2718C114.143 25.9485 113.402 27.4053 112.432 28.6422C111.465 29.8539 110.346 30.8423 109.076 31.6076C107.808 32.3476 106.414 32.8675 104.894 33.1672C103.402 33.4448 101.862 33.4863 100.274 33.2918C97.8799 32.9984 96.0221 32.5022 94.7009 31.8031C93.3796 31.104 92.4233 30.245 91.8319 29.2261C91.2436 28.1819 90.9273 27.0048 90.8832 25.6948C90.8674 24.3627 90.9536 22.928 91.142 21.3906L94.7711 21.8353ZM76.9283 35.3042L88.5338 36.7263L77.1095 72.9682L77.2607 72.9867L109.439 39.2879L121.838 40.8072L104.898 95.1365L93.2546 93.7098L106.429 56.3394L106.278 56.3209L71.8201 91.0834L59.9121 89.6243L76.9283 35.3042Z" fill="url(#paint2_linear)"/>
<path d="M94.7711 21.8353C94.7315 22.3676 94.7942 22.8997 94.9592 23.4316C95.1526 23.9413 95.4781 24.416 95.9358 24.8558C96.4188 25.2987 97.0732 25.6987 97.8992 26.0557C98.7535 26.3906 99.8359 26.6383 101.146 26.7989C102.255 26.9348 103.31 26.9873 104.312 26.9566C105.316 26.9006 106.242 26.7582 107.089 26.5294C107.96 26.3037 108.73 25.9758 109.396 25.5459C110.066 25.0908 110.609 24.5179 111.027 23.8271L114.656 24.2718C114.143 25.9485 113.402 27.4053 112.432 28.6422C111.465 29.8539 110.346 30.8423 109.076 31.6076C107.808 32.3476 106.414 32.8675 104.894 33.1672C103.402 33.4448 101.862 33.4863 100.274 33.2918C97.8799 32.9984 96.0221 32.5022 94.7009 31.8031C93.3796 31.104 92.4233 30.245 91.8319 29.2261C91.2436 28.1819 90.9273 27.0048 90.8832 25.6948C90.8674 24.3627 90.9536 22.928 91.142 21.3906L94.7711 21.8353ZM76.9283 35.3042L88.5338 36.7263L77.1095 72.9682L77.2607 72.9867L109.439 39.2879L121.838 40.8072L104.898 95.1365L93.2546 93.7098L106.429 56.3394L106.278 56.3209L71.8201 91.0834L59.9121 89.6243L76.9283 35.3042Z" fill="url(#paint3_linear)"/>
<path d="M154.274 44.7816L176.01 47.4451C179.539 47.8775 182.485 48.571 184.849 49.5258C187.214 50.4806 189.087 51.6823 190.47 53.1307C191.856 54.554 192.78 56.202 193.241 58.0748C193.702 59.9475 193.794 62.018 193.516 64.2861C193.34 65.7227 192.983 67.073 192.444 68.3372C191.934 69.5793 191.233 70.7085 190.341 71.7247C189.477 72.7188 188.413 73.5733 187.149 74.2881C185.913 74.9808 184.481 75.4961 182.854 75.8339C183.816 76.5401 184.671 77.2844 185.419 78.0668C186.171 78.824 186.782 79.6791 187.254 80.6322C187.729 81.5601 188.051 82.5844 188.22 83.7052C188.415 84.829 188.429 86.0714 188.262 87.4323C187.92 90.2297 187.16 92.6692 185.984 94.7506C184.811 96.8068 183.25 98.4829 181.301 99.7788C179.351 101.075 177.042 101.969 174.373 102.46C171.706 102.926 168.697 102.954 165.345 102.543L137.409 99.1202L154.274 44.7816ZM151.892 91.1487L166.144 92.895C167.908 93.1112 169.427 93.0288 170.702 92.6477C171.976 92.2667 173.041 91.7193 173.896 91.0055C174.751 90.2917 175.401 89.476 175.846 88.5584C176.291 87.6409 176.567 86.7411 176.675 85.859C176.821 84.6745 176.742 83.6417 176.441 82.7607C176.143 81.8544 175.662 81.0792 174.999 80.4352C174.362 79.7943 173.554 79.2861 172.577 78.9105C171.6 78.535 170.506 78.2731 169.297 78.1249L156.444 76.5499L151.892 91.1487ZM159.19 67.6007L172.572 69.2405C175.319 69.5771 177.484 69.2412 179.065 68.2327C180.65 67.199 181.583 65.5355 181.864 63.2421C181.991 62.2088 181.907 61.3288 181.612 60.602C181.343 59.8783 180.905 59.2747 180.299 58.7912C179.718 58.3107 178.996 57.9409 178.133 57.6816C177.272 57.3971 176.338 57.1931 175.33 57.0695L162.931 55.5502L159.19 67.6007Z" fill="#ED603C"/>
<path d="M154.274 44.7816L176.01 47.4451C179.539 47.8775 182.485 48.571 184.849 49.5258C187.214 50.4806 189.087 51.6823 190.47 53.1307C191.856 54.554 192.78 56.202 193.241 58.0748C193.702 59.9475 193.794 62.018 193.516 64.2861C193.34 65.7227 192.983 67.073 192.444 68.3372C191.934 69.5793 191.233 70.7085 190.341 71.7247C189.477 72.7188 188.413 73.5733 187.149 74.2881C185.913 74.9808 184.481 75.4961 182.854 75.8339C183.816 76.5401 184.671 77.2844 185.419 78.0668C186.171 78.824 186.782 79.6791 187.254 80.6322C187.729 81.5601 188.051 82.5844 188.22 83.7052C188.415 84.829 188.429 86.0714 188.262 87.4323C187.92 90.2297 187.16 92.6692 185.984 94.7506C184.811 96.8068 183.25 98.4829 181.301 99.7788C179.351 101.075 177.042 101.969 174.373 102.46C171.706 102.926 168.697 102.954 165.345 102.543L137.409 99.1202L154.274 44.7816ZM151.892 91.1487L166.144 92.895C167.908 93.1112 169.427 93.0288 170.702 92.6477C171.976 92.2667 173.041 91.7193 173.896 91.0055C174.751 90.2917 175.401 89.476 175.846 88.5584C176.291 87.6409 176.567 86.7411 176.675 85.859C176.821 84.6745 176.742 83.6417 176.441 82.7607C176.143 81.8544 175.662 81.0792 174.999 80.4352C174.362 79.7943 173.554 79.2861 172.577 78.9105C171.6 78.535 170.506 78.2731 169.297 78.1249L156.444 76.5499L151.892 91.1487ZM159.19 67.6007L172.572 69.2405C175.319 69.5771 177.484 69.2412 179.065 68.2327C180.65 67.199 181.583 65.5355 181.864 63.2421C181.991 62.2088 181.907 61.3288 181.612 60.602C181.343 59.8783 180.905 59.2747 180.299 58.7912C179.718 58.3107 178.996 57.9409 178.133 57.6816C177.272 57.3971 176.338 57.1931 175.33 57.0695L162.931 55.5502L159.19 67.6007Z" fill="url(#paint4_linear)"/>
<path d="M154.274 44.7816L176.01 47.4451C179.539 47.8775 182.485 48.571 184.849 49.5258C187.214 50.4806 189.087 51.6823 190.47 53.1307C191.856 54.554 192.78 56.202 193.241 58.0748C193.702 59.9475 193.794 62.018 193.516 64.2861C193.34 65.7227 192.983 67.073 192.444 68.3372C191.934 69.5793 191.233 70.7085 190.341 71.7247C189.477 72.7188 188.413 73.5733 187.149 74.2881C185.913 74.9808 184.481 75.4961 182.854 75.8339C183.816 76.5401 184.671 77.2844 185.419 78.0668C186.171 78.824 186.782 79.6791 187.254 80.6322C187.729 81.5601 188.051 82.5844 188.22 83.7052C188.415 84.829 188.429 86.0714 188.262 87.4323C187.92 90.2297 187.16 92.6692 185.984 94.7506C184.811 96.8068 183.25 98.4829 181.301 99.7788C179.351 101.075 177.042 101.969 174.373 102.46C171.706 102.926 168.697 102.954 165.345 102.543L137.409 99.1202L154.274 44.7816ZM151.892 91.1487L166.144 92.895C167.908 93.1112 169.427 93.0288 170.702 92.6477C171.976 92.2667 173.041 91.7193 173.896 91.0055C174.751 90.2917 175.401 89.476 175.846 88.5584C176.291 87.6409 176.567 86.7411 176.675 85.859C176.821 84.6745 176.742 83.6417 176.441 82.7607C176.143 81.8544 175.662 81.0792 174.999 80.4352C174.362 79.7943 173.554 79.2861 172.577 78.9105C171.6 78.535 170.506 78.2731 169.297 78.1249L156.444 76.5499L151.892 91.1487ZM159.19 67.6007L172.572 69.2405C175.319 69.5771 177.484 69.2412 179.065 68.2327C180.65 67.199 181.583 65.5355 181.864 63.2421C181.991 62.2088 181.907 61.3288 181.612 60.602C181.343 59.8783 180.905 59.2747 180.299 58.7912C179.718 58.3107 178.996 57.9409 178.133 57.6816C177.272 57.3971 176.338 57.1931 175.33 57.0695L162.931 55.5502L159.19 67.6007Z" fill="url(#paint5_linear)"/>
<path d="M239.542 74.1467C239.743 72.5085 239.657 71.0144 239.286 69.6642C238.917 68.2889 238.32 67.103 237.496 66.1067C236.7 65.0882 235.7 64.275 234.495 63.667C233.319 63.0368 232.012 62.6337 230.576 62.4577C228.207 62.1674 226.078 62.3159 224.19 62.9031C222.302 63.4903 220.621 64.3715 219.147 65.5466C217.676 66.6965 216.392 68.0869 215.297 69.7178C214.23 71.3265 213.321 73.0058 212.57 74.7555C211.843 76.5083 211.257 78.2654 210.811 80.027C210.393 81.7664 210.095 83.367 209.916 84.8287C209.678 86.7693 209.681 88.6243 209.924 90.3936C210.193 92.166 210.766 93.7582 211.641 95.1701C212.542 96.5851 213.778 97.7726 215.349 98.7324C216.945 99.6954 218.94 100.324 221.334 100.617C222.771 100.793 224.178 100.786 225.557 100.597C226.965 100.386 228.285 99.9466 229.518 99.2791C230.754 98.5864 231.88 97.6372 232.898 96.4317C233.915 95.2262 234.766 93.7062 235.452 91.8716L247.246 93.3168C246.076 96.3966 244.606 99.107 242.835 101.448C241.09 103.792 239.05 105.717 236.717 107.221C234.412 108.704 231.829 109.743 228.968 110.339C226.107 110.935 223 111.028 219.648 110.617C216.574 110.24 213.871 109.538 211.542 108.511C209.237 107.487 207.266 106.247 205.627 104.793C203.989 103.339 202.641 101.716 201.581 99.9233C200.55 98.1086 199.757 96.2335 199.201 94.298C198.645 92.3625 198.307 90.4281 198.185 88.4947C198.092 86.5392 198.156 84.6668 198.375 82.8774C198.699 80.2312 199.29 77.6048 200.146 74.9982C201.006 72.3664 202.13 69.8694 203.52 67.5072C204.909 65.145 206.543 62.979 208.422 61.0093C210.325 59.0426 212.472 57.3872 214.863 56.0429C217.253 54.6986 219.89 53.7427 222.773 53.1751C225.66 52.5823 228.779 52.4913 232.131 52.902C235.281 53.288 238.114 54.07 240.63 55.2481C243.171 56.4292 245.283 57.9798 246.967 59.9C248.65 61.8201 249.868 64.0926 250.621 66.7173C251.374 69.342 251.549 72.2925 251.148 75.5687L239.542 74.1467Z" fill="#ED603C"/>
<path d="M239.542 74.1467C239.743 72.5085 239.657 71.0144 239.286 69.6642C238.917 68.2889 238.32 67.103 237.496 66.1067C236.7 65.0882 235.7 64.275 234.495 63.667C233.319 63.0368 232.012 62.6337 230.576 62.4577C228.207 62.1674 226.078 62.3159 224.19 62.9031C222.302 63.4903 220.621 64.3715 219.147 65.5466C217.676 66.6965 216.392 68.0869 215.297 69.7178C214.23 71.3265 213.321 73.0058 212.57 74.7555C211.843 76.5083 211.257 78.2654 210.811 80.027C210.393 81.7664 210.095 83.367 209.916 84.8287C209.678 86.7693 209.681 88.6243 209.924 90.3936C210.193 92.166 210.766 93.7582 211.641 95.1701C212.542 96.5851 213.778 97.7726 215.349 98.7324C216.945 99.6954 218.94 100.324 221.334 100.617C222.771 100.793 224.178 100.786 225.557 100.597C226.965 100.386 228.285 99.9466 229.518 99.2791C230.754 98.5864 231.88 97.6372 232.898 96.4317C233.915 95.2262 234.766 93.7062 235.452 91.8716L247.246 93.3168C246.076 96.3966 244.606 99.107 242.835 101.448C241.09 103.792 239.05 105.717 236.717 107.221C234.412 108.704 231.829 109.743 228.968 110.339C226.107 110.935 223 111.028 219.648 110.617C216.574 110.24 213.871 109.538 211.542 108.511C209.237 107.487 207.266 106.247 205.627 104.793C203.989 103.339 202.641 101.716 201.581 99.9233C200.55 98.1086 199.757 96.2335 199.201 94.298C198.645 92.3625 198.307 90.4281 198.185 88.4947C198.092 86.5392 198.156 84.6668 198.375 82.8774C198.699 80.2312 199.29 77.6048 200.146 74.9982C201.006 72.3664 202.13 69.8694 203.52 67.5072C204.909 65.145 206.543 62.979 208.422 61.0093C210.325 59.0426 212.472 57.3872 214.863 56.0429C217.253 54.6986 219.89 53.7427 222.773 53.1751C225.66 52.5823 228.779 52.4913 232.131 52.902C235.281 53.288 238.114 54.07 240.63 55.2481C243.171 56.4292 245.283 57.9798 246.967 59.9C248.65 61.8201 249.868 64.0926 250.621 66.7173C251.374 69.342 251.549 72.2925 251.148 75.5687L239.542 74.1467Z" fill="url(#paint6_linear)"/>
<path d="M239.542 74.1467C239.743 72.5085 239.657 71.0144 239.286 69.6642C238.917 68.2889 238.32 67.103 237.496 66.1067C236.7 65.0882 235.7 64.275 234.495 63.667C233.319 63.0368 232.012 62.6337 230.576 62.4577C228.207 62.1674 226.078 62.3159 224.19 62.9031C222.302 63.4903 220.621 64.3715 219.147 65.5466C217.676 66.6965 216.392 68.0869 215.297 69.7178C214.23 71.3265 213.321 73.0058 212.57 74.7555C211.843 76.5083 211.257 78.2654 210.811 80.027C210.393 81.7664 210.095 83.367 209.916 84.8287C209.678 86.7693 209.681 88.6243 209.924 90.3936C210.193 92.166 210.766 93.7582 211.641 95.1701C212.542 96.5851 213.778 97.7726 215.349 98.7324C216.945 99.6954 218.94 100.324 221.334 100.617C222.771 100.793 224.178 100.786 225.557 100.597C226.965 100.386 228.285 99.9466 229.518 99.2791C230.754 98.5864 231.88 97.6372 232.898 96.4317C233.915 95.2262 234.766 93.7062 235.452 91.8716L247.246 93.3168C246.076 96.3966 244.606 99.107 242.835 101.448C241.09 103.792 239.05 105.717 236.717 107.221C234.412 108.704 231.829 109.743 228.968 110.339C226.107 110.935 223 111.028 219.648 110.617C216.574 110.24 213.871 109.538 211.542 108.511C209.237 107.487 207.266 106.247 205.627 104.793C203.989 103.339 202.641 101.716 201.581 99.9233C200.55 98.1086 199.757 96.2335 199.201 94.298C198.645 92.3625 198.307 90.4281 198.185 88.4947C198.092 86.5392 198.156 84.6668 198.375 82.8774C198.699 80.2312 199.29 77.6048 200.146 74.9982C201.006 72.3664 202.13 69.8694 203.52 67.5072C204.909 65.145 206.543 62.979 208.422 61.0093C210.325 59.0426 212.472 57.3872 214.863 56.0429C217.253 54.6986 219.89 53.7427 222.773 53.1751C225.66 52.5823 228.779 52.4913 232.131 52.902C235.281 53.288 238.114 54.07 240.63 55.2481C243.171 56.4292 245.283 57.9798 246.967 59.9C248.65 61.8201 249.868 64.0926 250.621 66.7173C251.374 69.342 251.549 72.2925 251.148 75.5687L239.542 74.1467Z" fill="url(#paint7_linear)"/>
<path d="M266.171 58.4928L303.105 63.0184L300.232 72.3742L274.677 69.2428L271.012 81.3027L294.45 84.1746L291.572 93.5682L268.21 90.7055L263.865 104.869L290.668 108.153L287.79 117.547L249.306 112.831L266.171 58.4928Z" fill="#ED603C"/>
<path d="M266.171 58.4928L303.105 63.0184L300.232 72.3742L274.677 69.2428L271.012 81.3027L294.45 84.1746L291.572 93.5682L268.21 90.7055L263.865 104.869L290.668 108.153L287.79 117.547L249.306 112.831L266.171 58.4928Z" fill="url(#paint8_linear)"/>
<path d="M266.171 58.4928L303.105 63.0184L300.232 72.3742L274.677 69.2428L271.012 81.3027L294.45 84.1746L291.572 93.5682L268.21 90.7055L263.865 104.869L290.668 108.153L287.79 117.547L249.306 112.831L266.171 58.4928Z" fill="url(#paint9_linear)"/>
<path d="M335.049 66.9326L354.177 69.2765C357.781 69.7181 360.764 70.5312 363.125 71.7159C365.515 72.8785 367.388 74.2975 368.743 75.9728C370.127 77.6259 371.04 79.4645 371.482 81.4885C371.953 83.4903 372.059 85.5497 371.8 87.6667C371.414 90.8169 370.589 93.5809 369.325 95.9586C368.087 98.3393 366.417 100.283 364.313 101.791C362.21 103.298 359.69 104.345 356.753 104.932C353.841 105.521 350.521 105.588 346.791 105.131L335.639 103.764L329.789 122.693L318.184 121.271L335.049 66.9326ZM338.592 94.3798L348.912 95.6444C350.752 95.8698 352.358 95.8108 353.73 95.4674C355.103 95.1239 356.257 94.5747 357.194 93.8197C358.156 93.0678 358.908 92.1496 359.45 91.0649C359.995 89.955 360.347 88.7574 360.504 87.4721C360.631 86.4388 360.624 85.4531 360.483 84.5149C360.37 83.5546 360.053 82.6972 359.532 81.9426C359.013 81.1629 358.262 80.5081 357.278 79.9782C356.32 79.4515 355.072 79.0939 353.534 78.9055L343.781 77.7104L338.592 94.3798Z" fill="#ED603C"/>
<path d="M335.049 66.9326L354.177 69.2765C357.781 69.7181 360.764 70.5312 363.125 71.7159C365.515 72.8785 367.388 74.2975 368.743 75.9728C370.127 77.6259 371.04 79.4645 371.482 81.4885C371.953 83.4903 372.059 85.5497 371.8 87.6667C371.414 90.8169 370.589 93.5809 369.325 95.9586C368.087 98.3393 366.417 100.283 364.313 101.791C362.21 103.298 359.69 104.345 356.753 104.932C353.841 105.521 350.521 105.588 346.791 105.131L335.639 103.764L329.789 122.693L318.184 121.271L335.049 66.9326ZM338.592 94.3798L348.912 95.6444C350.752 95.8698 352.358 95.8108 353.73 95.4674C355.103 95.1239 356.257 94.5747 357.194 93.8197C358.156 93.0678 358.908 92.1496 359.45 91.0649C359.995 89.955 360.347 88.7574 360.504 87.4721C360.631 86.4388 360.624 85.4531 360.483 84.5149C360.37 83.5546 360.053 82.6972 359.532 81.9426C359.013 81.1629 358.262 80.5081 357.278 79.9782C356.32 79.4515 355.072 79.0939 353.534 78.9055L343.781 77.7104L338.592 94.3798Z" fill="url(#paint10_linear)"/>
<path d="M335.049 66.9326L354.177 69.2765C357.781 69.7181 360.764 70.5312 363.125 71.7159C365.515 72.8785 367.388 74.2975 368.743 75.9728C370.127 77.6259 371.04 79.4645 371.482 81.4885C371.953 83.4903 372.059 85.5497 371.8 87.6667C371.414 90.8169 370.589 93.5809 369.325 95.9586C368.087 98.3393 366.417 100.283 364.313 101.791C362.21 103.298 359.69 104.345 356.753 104.932C353.841 105.521 350.521 105.588 346.791 105.131L335.639 103.764L329.789 122.693L318.184 121.271L335.049 66.9326ZM338.592 94.3798L348.912 95.6444C350.752 95.8698 352.358 95.8108 353.73 95.4674C355.103 95.1239 356.257 94.5747 357.194 93.8197C358.156 93.0678 358.908 92.1496 359.45 91.0649C359.995 89.955 360.347 88.7574 360.504 87.4721C360.631 86.4388 360.624 85.4531 360.483 84.5149C360.37 83.5546 360.053 82.6972 359.532 81.9426C359.013 81.1629 358.262 80.5081 357.278 79.9782C356.32 79.4515 355.072 79.0939 353.534 78.9055L343.781 77.7104L338.592 94.3798Z" fill="url(#paint11_linear)"/>
<path d="M406.776 87.5014L406.624 87.4829L392.223 109.508L406.172 111.217L406.776 87.5014ZM403.245 75.289L416.817 76.9519L417.039 133.384L405.585 131.981L405.903 120.93L386.321 118.531L379.652 128.803L367.328 127.293L403.245 75.289Z" fill="#ED603C"/>
<path d="M406.776 87.5014L406.624 87.4829L392.223 109.508L406.172 111.217L406.776 87.5014ZM403.245 75.289L416.817 76.9519L417.039 133.384L405.585 131.981L405.903 120.93L386.321 118.531L379.652 128.803L367.328 127.293L403.245 75.289Z" fill="url(#paint12_linear)"/>
<path d="M406.776 87.5014L406.624 87.4829L392.223 109.508L406.172 111.217L406.776 87.5014ZM403.245 75.289L416.817 76.9519L417.039 133.384L405.585 131.981L405.903 120.93L386.321 118.531L379.652 128.803L367.328 127.293L403.245 75.289Z" fill="url(#paint13_linear)"/>
<path d="M438.327 79.5876L460.064 82.2511C463.592 82.6835 466.538 83.377 468.903 84.3318C471.267 85.2866 473.141 86.4883 474.523 87.9367C475.91 89.36 476.833 91.008 477.294 92.8808C477.756 94.7535 477.847 96.824 477.569 99.0921C477.393 100.529 477.036 101.879 476.497 103.143C475.987 104.385 475.286 105.514 474.394 106.531C473.53 107.525 472.466 108.379 471.202 109.094C469.966 109.787 468.534 110.302 466.907 110.64C467.869 111.346 468.724 112.09 469.473 112.873C470.224 113.63 470.836 114.485 471.307 115.438C471.782 116.366 472.104 117.39 472.274 118.511C472.468 119.635 472.482 120.877 472.316 122.238C471.973 125.036 471.214 127.475 470.038 129.557C468.865 131.613 467.304 133.289 465.354 134.585C463.405 135.881 461.095 136.775 458.426 137.266C455.76 137.732 452.75 137.76 449.398 137.349L421.462 133.926L438.327 79.5876ZM435.945 125.955L450.197 127.701C451.961 127.917 453.481 127.835 454.755 127.454C456.03 127.073 457.094 126.525 457.949 125.811C458.804 125.098 459.454 124.282 459.899 123.364C460.344 122.447 460.621 121.547 460.729 120.665C460.874 119.481 460.796 118.448 460.494 117.567C460.196 116.66 459.716 115.885 459.053 115.241C458.415 114.6 457.607 114.092 456.63 113.717C455.653 113.341 454.56 113.079 453.35 112.931L440.497 111.356L435.945 125.955ZM443.243 102.407L456.626 104.047C459.373 104.383 461.537 104.047 463.119 103.039C464.703 102.005 465.636 100.341 465.917 98.0481C466.044 97.0148 465.96 96.1348 465.665 95.408C465.396 94.6843 464.958 94.0807 464.352 93.5972C463.772 93.1167 463.05 92.7469 462.186 92.4876C461.326 92.2031 460.391 91.9991 459.383 91.8755L446.984 90.3562L443.243 102.407Z" fill="#ED603C"/>
<path d="M438.327 79.5876L460.064 82.2511C463.592 82.6835 466.538 83.377 468.903 84.3318C471.267 85.2866 473.141 86.4883 474.523 87.9367C475.91 89.36 476.833 91.008 477.294 92.8808C477.756 94.7535 477.847 96.824 477.569 99.0921C477.393 100.529 477.036 101.879 476.497 103.143C475.987 104.385 475.286 105.514 474.394 106.531C473.53 107.525 472.466 108.379 471.202 109.094C469.966 109.787 468.534 110.302 466.907 110.64C467.869 111.346 468.724 112.09 469.473 112.873C470.224 113.63 470.836 114.485 471.307 115.438C471.782 116.366 472.104 117.39 472.274 118.511C472.468 119.635 472.482 120.877 472.316 122.238C471.973 125.036 471.214 127.475 470.038 129.557C468.865 131.613 467.304 133.289 465.354 134.585C463.405 135.881 461.095 136.775 458.426 137.266C455.76 137.732 452.75 137.76 449.398 137.349L421.462 133.926L438.327 79.5876ZM435.945 125.955L450.197 127.701C451.961 127.917 453.481 127.835 454.755 127.454C456.03 127.073 457.094 126.525 457.949 125.811C458.804 125.098 459.454 124.282 459.899 123.364C460.344 122.447 460.621 121.547 460.729 120.665C460.874 119.481 460.796 118.448 460.494 117.567C460.196 116.66 459.716 115.885 459.053 115.241C458.415 114.6 457.607 114.092 456.63 113.717C455.653 113.341 454.56 113.079 453.35 112.931L440.497 111.356L435.945 125.955ZM443.243 102.407L456.626 104.047C459.373 104.383 461.537 104.047 463.119 103.039C464.703 102.005 465.636 100.341 465.917 98.0481C466.044 97.0148 465.96 96.1348 465.665 95.408C465.396 94.6843 464.958 94.0807 464.352 93.5972C463.772 93.1167 463.05 92.7469 462.186 92.4876C461.326 92.2031 460.391 91.9991 459.383 91.8755L446.984 90.3562L443.243 102.407Z" fill="url(#paint14_linear)"/>
<path d="M438.327 79.5876L460.064 82.2511C463.592 82.6835 466.538 83.377 468.903 84.3318C471.267 85.2866 473.141 86.4883 474.523 87.9367C475.91 89.36 476.833 91.008 477.294 92.8808C477.756 94.7535 477.847 96.824 477.569 99.0921C477.393 100.529 477.036 101.879 476.497 103.143C475.987 104.385 475.286 105.514 474.394 106.531C473.53 107.525 472.466 108.379 471.202 109.094C469.966 109.787 468.534 110.302 466.907 110.64C467.869 111.346 468.724 112.09 469.473 112.873C470.224 113.63 470.836 114.485 471.307 115.438C471.782 116.366 472.104 117.39 472.274 118.511C472.468 119.635 472.482 120.877 472.316 122.238C471.973 125.036 471.214 127.475 470.038 129.557C468.865 131.613 467.304 133.289 465.354 134.585C463.405 135.881 461.095 136.775 458.426 137.266C455.76 137.732 452.75 137.76 449.398 137.349L421.462 133.926L438.327 79.5876ZM435.945 125.955L450.197 127.701C451.961 127.917 453.481 127.835 454.755 127.454C456.03 127.073 457.094 126.525 457.949 125.811C458.804 125.098 459.454 124.282 459.899 123.364C460.344 122.447 460.621 121.547 460.729 120.665C460.874 119.481 460.796 118.448 460.494 117.567C460.196 116.66 459.716 115.885 459.053 115.241C458.415 114.6 457.607 114.092 456.63 113.717C455.653 113.341 454.56 113.079 453.35 112.931L440.497 111.356L435.945 125.955ZM443.243 102.407L456.626 104.047C459.373 104.383 461.537 104.047 463.119 103.039C464.703 102.005 465.636 100.341 465.917 98.0481C466.044 97.0148 465.96 96.1348 465.665 95.408C465.396 94.6843 464.958 94.0807 464.352 93.5972C463.772 93.1167 463.05 92.7469 462.186 92.4876C461.326 92.2031 460.391 91.9991 459.383 91.8755L446.984 90.3562L443.243 102.407Z" fill="url(#paint15_linear)"/>
<path d="M494.351 86.4525L505.957 87.8746L499.511 108.534L521.248 111.198L527.731 90.5427L539.337 91.9647L522.396 146.294L510.753 144.867L518.371 120.591L496.634 117.928L489.016 142.204L477.411 140.782L494.351 86.4525Z" fill="#ED603C"/>
<path d="M494.351 86.4525L505.957 87.8746L499.511 108.534L521.248 111.198L527.731 90.5427L539.337 91.9647L522.396 146.294L510.753 144.867L518.371 120.591L496.634 117.928L489.016 142.204L477.411 140.782L494.351 86.4525Z" fill="url(#paint16_linear)"/>
<path d="M494.351 86.4525L505.957 87.8746L499.511 108.534L521.248 111.198L527.731 90.5427L539.337 91.9647L522.396 146.294L510.753 144.867L518.371 120.591L496.634 117.928L489.016 142.204L477.411 140.782L494.351 86.4525Z" fill="url(#paint17_linear)"/>
<path d="M539.171 124.636C539.495 121.99 540.085 119.364 540.942 116.757C541.802 114.125 542.926 111.628 544.316 109.266C545.705 106.904 547.339 104.738 549.218 102.768C551.121 100.801 553.268 99.146 555.658 97.8017C558.049 96.4575 560.685 95.5015 563.569 94.934C566.455 94.3412 569.575 94.2501 572.926 94.6609C576.001 95.0376 578.691 95.7381 580.995 96.7623C583.325 97.7896 585.309 99.0304 586.947 100.485C588.585 101.939 589.92 103.573 590.951 105.388C592.01 107.18 592.818 109.044 593.374 110.98C593.933 112.89 594.259 114.823 594.352 116.779C594.47 118.737 594.419 120.611 594.2 122.4C593.876 125.047 593.284 127.686 592.424 130.317C591.567 132.924 590.444 135.408 589.055 137.771C587.666 140.133 586.019 142.297 584.115 144.264C582.237 146.234 580.102 147.891 577.712 149.235C575.322 150.579 572.685 151.535 569.802 152.103C566.915 152.696 563.796 152.787 560.444 152.376C557.344 151.996 554.642 151.294 552.337 150.27C550.033 149.246 548.049 148.005 546.386 146.548C544.748 145.093 543.399 143.47 542.339 141.677C541.308 139.863 540.515 137.988 539.959 136.052C539.428 134.12 539.102 132.187 538.981 130.254C538.888 128.298 538.951 126.426 539.171 124.636ZM550.711 126.588C550.4 129.133 550.482 131.381 550.959 133.333C551.44 135.259 552.212 136.889 553.277 138.221C554.341 139.554 555.619 140.606 557.111 141.377C558.63 142.126 560.26 142.607 561.999 142.82C564.368 143.11 566.496 142.962 568.385 142.375C570.273 141.788 571.954 140.906 573.428 139.731C574.902 138.556 576.173 137.164 577.24 135.555C578.332 133.95 579.241 132.271 579.967 130.518C580.719 128.768 581.304 127.023 581.721 125.284C582.167 123.522 582.48 121.911 582.659 120.449C582.974 117.878 582.891 115.63 582.411 113.704C581.931 111.778 581.159 110.148 580.094 108.815C579.029 107.483 577.737 106.442 576.218 105.693C574.726 104.922 573.111 104.43 571.372 104.217C569.003 103.926 566.874 104.075 564.986 104.662C563.098 105.249 561.417 106.13 559.943 107.305C558.471 108.455 557.188 109.846 556.093 111.477C555.026 113.085 554.117 114.765 553.365 116.514C552.639 118.267 552.053 120.024 551.607 121.786C551.189 123.525 550.891 125.126 550.711 126.588Z" fill="#ED603C"/>
<path d="M539.171 124.636C539.495 121.99 540.085 119.364 540.942 116.757C541.802 114.125 542.926 111.628 544.316 109.266C545.705 106.904 547.339 104.738 549.218 102.768C551.121 100.801 553.268 99.146 555.658 97.8017C558.049 96.4575 560.685 95.5015 563.569 94.934C566.455 94.3412 569.575 94.2501 572.926 94.6609C576.001 95.0376 578.691 95.7381 580.995 96.7623C583.325 97.7896 585.309 99.0304 586.947 100.485C588.585 101.939 589.92 103.573 590.951 105.388C592.01 107.18 592.818 109.044 593.374 110.98C593.933 112.89 594.259 114.823 594.352 116.779C594.47 118.737 594.419 120.611 594.2 122.4C593.876 125.047 593.284 127.686 592.424 130.317C591.567 132.924 590.444 135.408 589.055 137.771C587.666 140.133 586.019 142.297 584.115 144.264C582.237 146.234 580.102 147.891 577.712 149.235C575.322 150.579 572.685 151.535 569.802 152.103C566.915 152.696 563.796 152.787 560.444 152.376C557.344 151.996 554.642 151.294 552.337 150.27C550.033 149.246 548.049 148.005 546.386 146.548C544.748 145.093 543.399 143.47 542.339 141.677C541.308 139.863 540.515 137.988 539.959 136.052C539.428 134.12 539.102 132.187 538.981 130.254C538.888 128.298 538.951 126.426 539.171 124.636ZM550.711 126.588C550.4 129.133 550.482 131.381 550.959 133.333C551.44 135.259 552.212 136.889 553.277 138.221C554.341 139.554 555.619 140.606 557.111 141.377C558.63 142.126 560.26 142.607 561.999 142.82C564.368 143.11 566.496 142.962 568.385 142.375C570.273 141.788 571.954 140.906 573.428 139.731C574.902 138.556 576.173 137.164 577.24 135.555C578.332 133.95 579.241 132.271 579.967 130.518C580.719 128.768 581.304 127.023 581.721 125.284C582.167 123.522 582.48 121.911 582.659 120.449C582.974 117.878 582.891 115.63 582.411 113.704C581.931 111.778 581.159 110.148 580.094 108.815C579.029 107.483 577.737 106.442 576.218 105.693C574.726 104.922 573.111 104.43 571.372 104.217C569.003 103.926 566.874 104.075 564.986 104.662C563.098 105.249 561.417 106.13 559.943 107.305C558.471 108.455 557.188 109.846 556.093 111.477C555.026 113.085 554.117 114.765 553.365 116.514C552.639 118.267 552.053 120.024 551.607 121.786C551.189 123.525 550.891 125.126 550.711 126.588Z" fill="url(#paint18_linear)"/>
<path d="M539.171 124.636C539.495 121.99 540.085 119.364 540.942 116.757C541.802 114.125 542.926 111.628 544.316 109.266C545.705 106.904 547.339 104.738 549.218 102.768C551.121 100.801 553.268 99.146 555.658 97.8017C558.049 96.4575 560.685 95.5015 563.569 94.934C566.455 94.3412 569.575 94.2501 572.926 94.6609C576.001 95.0376 578.691 95.7381 580.995 96.7623C583.325 97.7896 585.309 99.0304 586.947 100.485C588.585 101.939 589.92 103.573 590.951 105.388C592.01 107.18 592.818 109.044 593.374 110.98C593.933 112.89 594.259 114.823 594.352 116.779C594.47 118.737 594.419 120.611 594.2 122.4C593.876 125.047 593.284 127.686 592.424 130.317C591.567 132.924 590.444 135.408 589.055 137.771C587.666 140.133 586.019 142.297 584.115 144.264C582.237 146.234 580.102 147.891 577.712 149.235C575.322 150.579 572.685 151.535 569.802 152.103C566.915 152.696 563.796 152.787 560.444 152.376C557.344 151.996 554.642 151.294 552.337 150.27C550.033 149.246 548.049 148.005 546.386 146.548C544.748 145.093 543.399 143.47 542.339 141.677C541.308 139.863 540.515 137.988 539.959 136.052C539.428 134.12 539.102 132.187 538.981 130.254C538.888 128.298 538.951 126.426 539.171 124.636ZM550.711 126.588C550.4 129.133 550.482 131.381 550.959 133.333C551.44 135.259 552.212 136.889 553.277 138.221C554.341 139.554 555.619 140.606 557.111 141.377C558.63 142.126 560.26 142.607 561.999 142.82C564.368 143.11 566.496 142.962 568.385 142.375C570.273 141.788 571.954 140.906 573.428 139.731C574.902 138.556 576.173 137.164 577.24 135.555C578.332 133.95 579.241 132.271 579.967 130.518C580.719 128.768 581.304 127.023 581.721 125.284C582.167 123.522 582.48 121.911 582.659 120.449C582.974 117.878 582.891 115.63 582.411 113.704C581.931 111.778 581.159 110.148 580.094 108.815C579.029 107.483 577.737 106.442 576.218 105.693C574.726 104.922 573.111 104.43 571.372 104.217C569.003 103.926 566.874 104.075 564.986 104.662C563.098 105.249 561.417 106.13 559.943 107.305C558.471 108.455 557.188 109.846 556.093 111.477C555.026 113.085 554.117 114.765 553.365 116.514C552.639 118.267 552.053 120.024 551.607 121.786C551.189 123.525 550.891 125.126 550.711 126.588Z" fill="url(#paint19_linear)"/>
<path d="M29.4474 29.4863L66.3812 34.0119L63.5081 43.3676L37.9531 40.2363L34.2883 52.2961L57.7262 55.1681L54.8485 64.5616L31.4862 61.6989L27.1414 75.8626L53.9439 79.1468L51.0662 88.5404L12.5825 83.8248L29.4474 29.4863Z" stroke="black" stroke-width="6" mask="url(#path-2-outside-1)"/>
<path d="M94.7711 21.8353C94.7315 22.3676 94.7942 22.8997 94.9592 23.4316C95.1526 23.9413 95.4781 24.416 95.9358 24.8558C96.4188 25.2987 97.0732 25.6987 97.8992 26.0557C98.7535 26.3906 99.8359 26.6383 101.146 26.7989C102.255 26.9348 103.31 26.9873 104.312 26.9566C105.316 26.9006 106.242 26.7582 107.089 26.5294C107.96 26.3037 108.73 25.9758 109.396 25.5459C110.066 25.0908 110.609 24.5179 111.027 23.8271L114.656 24.2718C114.143 25.9485 113.402 27.4053 112.432 28.6422C111.465 29.8539 110.346 30.8423 109.076 31.6076C107.808 32.3476 106.414 32.8675 104.894 33.1672C103.402 33.4448 101.862 33.4863 100.274 33.2918C97.8799 32.9984 96.0221 32.5022 94.7009 31.8031C93.3796 31.104 92.4233 30.245 91.8319 29.2261C91.2436 28.1819 90.9273 27.0048 90.8832 25.6948C90.8674 24.3627 90.9536 22.928 91.142 21.3906L94.7711 21.8353ZM76.9283 35.3042L88.5338 36.7263L77.1095 72.9682L77.2607 72.9867L109.439 39.2879L121.838 40.8072L104.898 95.1365L93.2546 93.7098L106.429 56.3394L106.278 56.3209L71.8201 91.0834L59.9121 89.6243L76.9283 35.3042Z" stroke="black" stroke-width="6" mask="url(#path-2-outside-1)"/>
<path d="M154.274 44.7816L176.01 47.4451C179.539 47.8775 182.485 48.571 184.849 49.5258C187.214 50.4806 189.087 51.6823 190.47 53.1307C191.856 54.554 192.78 56.202 193.241 58.0748C193.702 59.9475 193.794 62.018 193.516 64.2861C193.34 65.7227 192.983 67.073 192.444 68.3372C191.934 69.5793 191.233 70.7085 190.341 71.7247C189.477 72.7188 188.413 73.5733 187.149 74.2881C185.913 74.9808 184.481 75.4961 182.854 75.8339C183.816 76.5401 184.671 77.2844 185.419 78.0668C186.171 78.824 186.782 79.6791 187.254 80.6322C187.729 81.5601 188.051 82.5844 188.22 83.7052C188.415 84.829 188.429 86.0714 188.262 87.4323C187.92 90.2297 187.16 92.6692 185.984 94.7506C184.811 96.8068 183.25 98.4829 181.301 99.7788C179.351 101.075 177.042 101.969 174.373 102.46C171.706 102.926 168.697 102.954 165.345 102.543L137.409 99.1202L154.274 44.7816ZM151.892 91.1487L166.144 92.895C167.908 93.1112 169.427 93.0288 170.702 92.6477C171.976 92.2667 173.041 91.7193 173.896 91.0055C174.751 90.2917 175.401 89.476 175.846 88.5584C176.291 87.6409 176.567 86.7411 176.675 85.859C176.821 84.6745 176.742 83.6417 176.441 82.7607C176.143 81.8544 175.662 81.0792 174.999 80.4352C174.362 79.7943 173.554 79.2861 172.577 78.9105C171.6 78.535 170.506 78.2731 169.297 78.1249L156.444 76.5499L151.892 91.1487ZM159.19 67.6007L172.572 69.2405C175.319 69.5771 177.484 69.2412 179.065 68.2327C180.65 67.199 181.583 65.5355 181.864 63.2421C181.991 62.2088 181.907 61.3288 181.612 60.602C181.343 59.8783 180.905 59.2747 180.299 58.7912C179.718 58.3107 178.996 57.9409 178.133 57.6816C177.272 57.3971 176.338 57.1931 175.33 57.0695L162.931 55.5502L159.19 67.6007Z" stroke="black" stroke-width="6" mask="url(#path-2-outside-1)"/>
<path d="M239.542 74.1467C239.743 72.5085 239.657 71.0144 239.286 69.6642C238.917 68.2889 238.32 67.103 237.496 66.1067C236.7 65.0882 235.7 64.275 234.495 63.667C233.319 63.0368 232.012 62.6337 230.576 62.4577C228.207 62.1674 226.078 62.3159 224.19 62.9031C222.302 63.4903 220.621 64.3715 219.147 65.5466C217.676 66.6965 216.392 68.0869 215.297 69.7178C214.23 71.3265 213.321 73.0058 212.57 74.7555C211.843 76.5083 211.257 78.2654 210.811 80.027C210.393 81.7664 210.095 83.367 209.916 84.8287C209.678 86.7693 209.681 88.6243 209.924 90.3936C210.193 92.166 210.766 93.7582 211.641 95.1701C212.542 96.5851 213.778 97.7726 215.349 98.7324C216.945 99.6954 218.94 100.324 221.334 100.617C222.771 100.793 224.178 100.786 225.557 100.597C226.965 100.386 228.285 99.9466 229.518 99.2791C230.754 98.5864 231.88 97.6372 232.898 96.4317C233.915 95.2262 234.766 93.7062 235.452 91.8716L247.246 93.3168C246.076 96.3966 244.606 99.107 242.835 101.448C241.09 103.792 239.05 105.717 236.717 107.221C234.412 108.704 231.829 109.743 228.968 110.339C226.107 110.935 223 111.028 219.648 110.617C216.574 110.24 213.871 109.538 211.542 108.511C209.237 107.487 207.266 106.247 205.627 104.793C203.989 103.339 202.641 101.716 201.581 99.9233C200.55 98.1086 199.757 96.2335 199.201 94.298C198.645 92.3625 198.307 90.4281 198.185 88.4947C198.092 86.5392 198.156 84.6668 198.375 82.8774C198.699 80.2312 199.29 77.6048 200.146 74.9982C201.006 72.3664 202.13 69.8694 203.52 67.5072C204.909 65.145 206.543 62.979 208.422 61.0093C210.325 59.0426 212.472 57.3872 214.863 56.0429C217.253 54.6986 219.89 53.7427 222.773 53.1751C225.66 52.5823 228.779 52.4913 232.131 52.902C235.281 53.288 238.114 54.07 240.63 55.2481C243.171 56.4292 245.283 57.9798 246.967 59.9C248.65 61.8201 249.868 64.0926 250.621 66.7173C251.374 69.342 251.549 72.2925 251.148 75.5687L239.542 74.1467Z" stroke="black" stroke-width="6" mask="url(#path-2-outside-1)"/>
<path d="M266.171 58.4928L303.105 63.0184L300.232 72.3742L274.677 69.2428L271.012 81.3027L294.45 84.1746L291.572 93.5682L268.21 90.7055L263.865 104.869L290.668 108.153L287.79 117.547L249.306 112.831L266.171 58.4928Z" stroke="black" stroke-width="6" mask="url(#path-2-outside-1)"/>
<path d="M335.049 66.9326L354.177 69.2765C357.781 69.7181 360.764 70.5312 363.125 71.7159C365.515 72.8785 367.388 74.2975 368.743 75.9728C370.127 77.6259 371.04 79.4645 371.482 81.4885C371.953 83.4903 372.059 85.5497 371.8 87.6667C371.414 90.8169 370.589 93.5809 369.325 95.9586C368.087 98.3393 366.417 100.283 364.313 101.791C362.21 103.298 359.69 104.345 356.753 104.932C353.841 105.521 350.521 105.588 346.791 105.131L335.639 103.764L329.789 122.693L318.184 121.271L335.049 66.9326ZM338.592 94.3798L348.912 95.6444C350.752 95.8698 352.358 95.8108 353.73 95.4674C355.103 95.1239 356.257 94.5747 357.194 93.8197C358.156 93.0678 358.908 92.1496 359.45 91.0649C359.995 89.955 360.347 88.7574 360.504 87.4721C360.631 86.4388 360.624 85.4531 360.483 84.5149C360.37 83.5546 360.053 82.6972 359.532 81.9426C359.013 81.1629 358.262 80.5081 357.278 79.9782C356.32 79.4515 355.072 79.0939 353.534 78.9055L343.781 77.7104L338.592 94.3798Z" stroke="black" stroke-width="6" mask="url(#path-2-outside-1)"/>
<path d="M406.776 87.5014L406.624 87.4829L392.223 109.508L406.172 111.217L406.776 87.5014ZM403.245 75.289L416.817 76.9519L417.039 133.384L405.585 131.981L405.903 120.93L386.321 118.531L379.652 128.803L367.328 127.293L403.245 75.289Z" stroke="black" stroke-width="6" mask="url(#path-2-outside-1)"/>
<path d="M438.327 79.5876L460.064 82.2511C463.592 82.6835 466.538 83.377 468.903 84.3318C471.267 85.2866 473.141 86.4883 474.523 87.9367C475.91 89.36 476.833 91.008 477.294 92.8808C477.756 94.7535 477.847 96.824 477.569 99.0921C477.393 100.529 477.036 101.879 476.497 103.143C475.987 104.385 475.286 105.514 474.394 106.531C473.53 107.525 472.466 108.379 471.202 109.094C469.966 109.787 468.534 110.302 466.907 110.64C467.869 111.346 468.724 112.09 469.473 112.873C470.224 113.63 470.836 114.485 471.307 115.438C471.782 116.366 472.104 117.39 472.274 118.511C472.468 119.635 472.482 120.877 472.316 122.238C471.973 125.036 471.214 127.475 470.038 129.557C468.865 131.613 467.304 133.289 465.354 134.585C463.405 135.881 461.095 136.775 458.426 137.266C455.76 137.732 452.75 137.76 449.398 137.349L421.462 133.926L438.327 79.5876ZM435.945 125.955L450.197 127.701C451.961 127.917 453.481 127.835 454.755 127.454C456.03 127.073 457.094 126.525 457.949 125.811C458.804 125.098 459.454 124.282 459.899 123.364C460.344 122.447 460.621 121.547 460.729 120.665C460.874 119.481 460.796 118.448 460.494 117.567C460.196 116.66 459.716 115.885 459.053 115.241C458.415 114.6 457.607 114.092 456.63 113.717C455.653 113.341 454.56 113.079 453.35 112.931L440.497 111.356L435.945 125.955ZM443.243 102.407L456.626 104.047C459.373 104.383 461.537 104.047 463.119 103.039C464.703 102.005 465.636 100.341 465.917 98.0481C466.044 97.0148 465.96 96.1348 465.665 95.408C465.396 94.6843 464.958 94.0807 464.352 93.5972C463.772 93.1167 463.05 92.7469 462.186 92.4876C461.326 92.2031 460.391 91.9991 459.383 91.8755L446.984 90.3562L443.243 102.407Z" stroke="black" stroke-width="6" mask="url(#path-2-outside-1)"/>
<path d="M494.351 86.4525L505.957 87.8746L499.511 108.534L521.248 111.198L527.731 90.5427L539.337 91.9647L522.396 146.294L510.753 144.867L518.371 120.591L496.634 117.928L489.016 142.204L477.411 140.782L494.351 86.4525Z" stroke="black" stroke-width="6" mask="url(#path-2-outside-1)"/>
<path d="M539.171 124.636C539.495 121.99 540.085 119.364 540.942 116.757C541.802 114.125 542.926 111.628 544.316 109.266C545.705 106.904 547.339 104.738 549.218 102.768C551.121 100.801 553.268 99.146 555.658 97.8017C558.049 96.4575 560.685 95.5015 563.569 94.934C566.455 94.3412 569.575 94.2501 572.926 94.6609C576.001 95.0376 578.691 95.7381 580.995 96.7623C583.325 97.7896 585.309 99.0304 586.947 100.485C588.585 101.939 589.92 103.573 590.951 105.388C592.01 107.18 592.818 109.044 593.374 110.98C593.933 112.89 594.259 114.823 594.352 116.779C594.47 118.737 594.419 120.611 594.2 122.4C593.876 125.047 593.284 127.686 592.424 130.317C591.567 132.924 590.444 135.408 589.055 137.771C587.666 140.133 586.019 142.297 584.115 144.264C582.237 146.234 580.102 147.891 577.712 149.235C575.322 150.579 572.685 151.535 569.802 152.103C566.915 152.696 563.796 152.787 560.444 152.376C557.344 151.996 554.642 151.294 552.337 150.27C550.033 149.246 548.049 148.005 546.386 146.548C544.748 145.093 543.399 143.47 542.339 141.677C541.308 139.863 540.515 137.988 539.959 136.052C539.428 134.12 539.102 132.187 538.981 130.254C538.888 128.298 538.951 126.426 539.171 124.636ZM550.711 126.588C550.4 129.133 550.482 131.381 550.959 133.333C551.44 135.259 552.212 136.889 553.277 138.221C554.341 139.554 555.619 140.606 557.111 141.377C558.63 142.126 560.26 142.607 561.999 142.82C564.368 143.11 566.496 142.962 568.385 142.375C570.273 141.788 571.954 140.906 573.428 139.731C574.902 138.556 576.173 137.164 577.24 135.555C578.332 133.95 579.241 132.271 579.967 130.518C580.719 128.768 581.304 127.023 581.721 125.284C582.167 123.522 582.48 121.911 582.659 120.449C582.974 117.878 582.891 115.63 582.411 113.704C581.931 111.778 581.159 110.148 580.094 108.815C579.029 107.483 577.737 106.442 576.218 105.693C574.726 104.922 573.111 104.43 571.372 104.217C569.003 103.926 566.874 104.075 564.986 104.662C563.098 105.249 561.417 106.13 559.943 107.305C558.471 108.455 557.188 109.846 556.093 111.477C555.026 113.085 554.117 114.765 553.365 116.514C552.639 118.267 552.053 120.024 551.607 121.786C551.189 123.525 550.891 125.126 550.711 126.588Z" stroke="black" stroke-width="6" mask="url(#path-2-outside-1)"/>
<defs>
<linearGradient id="paint0_linear" x1="333.304" y1="51.5915" x2="323.462" y2="131.911" gradientUnits="userSpaceOnUse">
<stop stop-color="#2FAD74"/>
<stop offset="0.385417" stop-color="#ED603C"/>
</linearGradient>
<linearGradient id="paint1_linear" x1="354.679" y1="55.6763" x2="329.39" y2="204.582" gradientUnits="userSpaceOnUse">
<stop offset="0.00520833" stop-color="white"/>
<stop offset="0.541667" stop-color="white" stop-opacity="0"/>
<stop offset="1" stop-color="#D597C3"/>
</linearGradient>
<linearGradient id="paint2_linear" x1="333.304" y1="51.5915" x2="323.462" y2="131.911" gradientUnits="userSpaceOnUse">
<stop stop-color="#2FAD74"/>
<stop offset="0.385417" stop-color="#ED603C"/>
</linearGradient>
<linearGradient id="paint3_linear" x1="354.679" y1="55.6763" x2="329.39" y2="204.582" gradientUnits="userSpaceOnUse">
<stop offset="0.00520833" stop-color="white"/>
<stop offset="0.541667" stop-color="white" stop-opacity="0"/>
<stop offset="1" stop-color="#D597C3"/>
</linearGradient>
<linearGradient id="paint4_linear" x1="333.304" y1="51.5915" x2="323.462" y2="131.911" gradientUnits="userSpaceOnUse">
<stop stop-color="#2FAD74"/>
<stop offset="0.385417" stop-color="#ED603C"/>
</linearGradient>
<linearGradient id="paint5_linear" x1="354.679" y1="55.6763" x2="329.39" y2="204.582" gradientUnits="userSpaceOnUse">
<stop offset="0.00520833" stop-color="white"/>
<stop offset="0.541667" stop-color="white" stop-opacity="0"/>
<stop offset="1" stop-color="#D597C3"/>
</linearGradient>
<linearGradient id="paint6_linear" x1="333.304" y1="51.5915" x2="323.462" y2="131.911" gradientUnits="userSpaceOnUse">
<stop stop-color="#2FAD74"/>
<stop offset="0.385417" stop-color="#ED603C"/>
</linearGradient>
<linearGradient id="paint7_linear" x1="354.679" y1="55.6763" x2="329.39" y2="204.582" gradientUnits="userSpaceOnUse">
<stop offset="0.00520833" stop-color="white"/>
<stop offset="0.541667" stop-color="white" stop-opacity="0"/>
<stop offset="1" stop-color="#D597C3"/>
</linearGradient>
<linearGradient id="paint8_linear" x1="333.304" y1="51.5915" x2="323.462" y2="131.911" gradientUnits="userSpaceOnUse">
<stop stop-color="#2FAD74"/>
<stop offset="0.385417" stop-color="#ED603C"/>
</linearGradient>
<linearGradient id="paint9_linear" x1="354.679" y1="55.6763" x2="329.39" y2="204.582" gradientUnits="userSpaceOnUse">
<stop offset="0.00520833" stop-color="white"/>
<stop offset="0.541667" stop-color="white" stop-opacity="0"/>
<stop offset="1" stop-color="#D597C3"/>
</linearGradient>
<linearGradient id="paint10_linear" x1="333.304" y1="51.5915" x2="323.462" y2="131.911" gradientUnits="userSpaceOnUse">
<stop stop-color="#2FAD74"/>
<stop offset="0.385417" stop-color="#ED603C"/>
</linearGradient>
<linearGradient id="paint11_linear" x1="354.679" y1="55.6763" x2="329.39" y2="204.582" gradientUnits="userSpaceOnUse">
<stop offset="0.00520833" stop-color="white"/>
<stop offset="0.541667" stop-color="white" stop-opacity="0"/>
<stop offset="1" stop-color="#D597C3"/>
</linearGradient>
<linearGradient id="paint12_linear" x1="333.304" y1="51.5915" x2="323.462" y2="131.911" gradientUnits="userSpaceOnUse">
<stop stop-color="#2FAD74"/>
<stop offset="0.385417" stop-color="#ED603C"/>
</linearGradient>
<linearGradient id="paint13_linear" x1="354.679" y1="55.6763" x2="329.39" y2="204.582" gradientUnits="userSpaceOnUse">
<stop offset="0.00520833" stop-color="white"/>
<stop offset="0.541667" stop-color="white" stop-opacity="0"/>
<stop offset="1" stop-color="#D597C3"/>
</linearGradient>
<linearGradient id="paint14_linear" x1="333.304" y1="51.5915" x2="323.462" y2="131.911" gradientUnits="userSpaceOnUse">
<stop stop-color="#2FAD74"/>
<stop offset="0.385417" stop-color="#ED603C"/>
</linearGradient>
<linearGradient id="paint15_linear" x1="354.679" y1="55.6763" x2="329.39" y2="204.582" gradientUnits="userSpaceOnUse">
<stop offset="0.00520833" stop-color="white"/>
<stop offset="0.541667" stop-color="white" stop-opacity="0"/>
<stop offset="1" stop-color="#D597C3"/>
</linearGradient>
<linearGradient id="paint16_linear" x1="333.304" y1="51.5915" x2="323.462" y2="131.911" gradientUnits="userSpaceOnUse">
<stop stop-color="#2FAD74"/>
<stop offset="0.385417" stop-color="#ED603C"/>
</linearGradient>
<linearGradient id="paint17_linear" x1="354.679" y1="55.6763" x2="329.39" y2="204.582" gradientUnits="userSpaceOnUse">
<stop offset="0.00520833" stop-color="white"/>
<stop offset="0.541667" stop-color="white" stop-opacity="0"/>
<stop offset="1" stop-color="#D597C3"/>
</linearGradient>
<linearGradient id="paint18_linear" x1="333.304" y1="51.5915" x2="323.462" y2="131.911" gradientUnits="userSpaceOnUse">
<stop stop-color="#2FAD74"/>
<stop offset="0.385417" stop-color="#ED603C"/>
</linearGradient>
<linearGradient id="paint19_linear" x1="354.679" y1="55.6763" x2="329.39" y2="204.582" gradientUnits="userSpaceOnUse">
<stop offset="0.00520833" stop-color="white"/>
<stop offset="0.541667" stop-color="white" stop-opacity="0"/>
<stop offset="1" stop-color="#D597C3"/>
</linearGradient>
</defs>
</svg>
