<svg width="428" height="171" viewBox="0 0 428 171" fill="none" xmlns="http://www.w3.org/2000/svg">
<rect x="1.06971" y="40.4574" width="361.515" height="61.0077" transform="rotate(-6.33742 1.06971 40.4574)" fill="white" stroke="black"/>
<rect x="8.71522" y="103.989" width="413.471" height="66.446" transform="rotate(-6.33742 8.71522 103.989)" fill="white" stroke="black"/>
<mask id="path-3-outside-1" maskUnits="userSpaceOnUse" x="11.6885" y="10.25" width="390" height="149" fill="black">
<rect fill="white" x="11.6885" y="10.25" width="390" height="149"/>
<path d="M17.3142 61.1727C17.4019 59.3752 17.7394 57.6176 18.3265 55.9001C18.9137 54.1826 19.8135 52.6254 21.0258 51.2287C22.2359 49.8126 23.7857 48.6225 25.6753 47.6584C27.5819 46.6727 29.8707 46.026 32.5416 45.7183C34.9416 45.4418 37.0288 45.5156 38.8032 45.9397C40.5947 46.3422 42.0903 46.985 43.2899 47.8682C44.4873 48.7319 45.4111 49.7745 46.0612 50.996C46.7114 52.2174 47.1121 53.4872 47.2635 54.8054C47.4082 56.0655 47.3721 57.2874 47.155 58.4713C46.9358 59.6357 46.5301 60.7137 45.938 61.705C45.3459 62.6964 44.5554 63.583 43.5666 64.3647C42.5972 65.1442 41.4152 65.7812 40.0209 66.2758L40.0342 66.3921C41.0011 66.6146 41.8801 66.9258 42.6712 67.3257C43.4601 67.7062 44.1462 68.2164 44.7296 68.8563C45.3301 69.4746 45.8192 70.2334 46.197 71.1326C46.5749 72.0319 46.835 73.1019 46.9775 74.3425C47.1022 75.4281 47.0958 76.568 46.9584 77.7623C46.821 78.9567 46.5255 80.1398 46.0717 81.3116C45.6374 82.4812 45.0232 83.6224 44.2293 84.7353C43.4526 85.8265 42.4689 86.8237 41.2784 87.7269C40.1071 88.6278 38.7138 89.3874 37.0983 90.0057C35.485 90.6433 33.6429 91.0814 31.572 91.32C29.0366 91.6121 26.773 91.539 24.7812 91.1006C22.811 90.6794 21.1204 89.9609 19.7095 88.9449C18.2963 87.9096 17.1779 86.6243 16.3545 85.0889C15.5288 83.5341 15.0046 81.7875 14.782 79.849L14.6885 79.0348L22.8754 78.0916C23.1473 79.4352 23.5195 80.5413 23.9919 81.41C24.462 82.2594 25.0379 82.9198 25.7196 83.3912C26.3991 83.8433 27.1973 84.1343 28.1143 84.2644C29.0484 84.3728 30.1058 84.359 31.2864 84.223C32.6219 84.0691 33.7468 83.7038 34.6611 83.1271C35.5753 82.5504 36.301 81.8677 36.8379 81.0791C37.392 80.2689 37.7619 79.3915 37.9476 78.4469C38.1526 77.5002 38.2051 76.5906 38.1049 75.7183C37.978 74.6133 37.6992 73.7223 37.2684 73.0452C36.8377 72.3681 36.3086 71.8594 35.6812 71.5192C35.071 71.1574 34.3784 70.9327 33.6035 70.8452C32.848 70.7555 32.0735 70.7563 31.28 70.8478L28.8413 71.1287L29.1585 64.6694C29.5887 64.6591 30.0287 64.6477 30.4783 64.6352C30.945 64.6011 31.3913 64.5595 31.8171 64.5104C32.9396 64.3811 33.9573 64.1067 34.87 63.6873C35.7827 63.2679 36.5541 62.7272 37.1841 62.0654C37.814 61.4036 38.2736 60.6239 38.5627 59.7263C38.8496 58.8094 38.9296 57.7985 38.8027 56.6935C38.6068 54.9876 37.9611 53.805 36.8657 53.1455C35.7895 52.4838 34.3805 52.2533 32.6386 52.454C31.4387 52.5923 30.4061 52.9076 29.541 53.4001C28.693 53.871 27.9864 54.4631 27.4211 55.1764C26.8559 55.8897 26.4083 56.6876 26.0782 57.5703C25.7459 58.4335 25.5051 59.3255 25.356 60.2462L17.3142 61.1727Z"/>
<path d="M73.0572 51.1856L72.9411 51.199L66.1569 70.2473L76.8695 69.0131L73.0572 51.1856ZM68.2289 42.6969L78.6512 41.4961L88.96 83.6182L80.1634 84.6317L78.4145 76.3185L63.3761 78.0511L60.2478 86.9262L50.7835 88.0165L68.2289 42.6969Z"/>
<path d="M102.257 46.2305L90.9635 47.5316L91.4831 40.0178L121.734 36.5326L121.214 44.0464L111.169 45.2037L108.818 81.3305L99.9049 82.3573L102.257 46.2305Z"/>
<path d="M125.653 61.183C125.42 59.1476 125.388 57.079 125.558 54.9774C125.727 52.8564 126.117 50.7883 126.729 48.7733C127.34 46.7583 128.17 44.8459 129.217 43.0361C130.284 41.224 131.588 39.6007 133.129 38.166C134.67 36.7314 136.465 35.5425 138.514 34.5993C140.561 33.6368 142.871 33.0073 145.445 32.7107C147.807 32.4387 149.939 32.4778 151.842 32.8281C153.765 33.1763 155.468 33.7461 156.951 34.5376C158.434 35.3292 159.723 36.31 160.819 37.4802C161.931 38.6287 162.869 39.876 163.631 41.222C164.391 42.5486 164.982 43.9341 165.403 45.3783C165.843 46.8204 166.142 48.2296 166.3 49.6059C166.534 51.6414 166.566 53.7196 166.398 55.8406C166.228 57.9423 165.837 60.0006 165.225 62.0156C164.613 64.0307 163.774 65.9442 162.707 67.7562C161.66 69.5661 160.366 71.1883 158.824 72.6229C157.283 74.0576 155.488 75.2465 153.439 76.1896C151.392 77.1522 149.082 77.7817 146.508 78.0783C144.127 78.3525 141.985 78.3145 140.082 77.9642C138.179 77.6138 136.476 77.044 134.973 76.2547C133.49 75.4631 132.192 74.4931 131.08 73.3445C129.985 72.1744 129.056 70.9163 128.293 69.5703C127.55 68.2221 126.96 66.8366 126.522 65.414C126.101 63.9697 125.811 62.5594 125.653 61.183ZM134.613 60.5633C134.838 62.5212 135.303 64.1862 136.01 65.5582C136.715 66.9109 137.584 67.9893 138.617 68.7934C139.651 69.5974 140.793 70.1533 142.044 70.4609C143.313 70.7469 144.615 70.8129 145.95 70.6591C147.769 70.4495 149.33 69.9554 150.633 69.1767C151.936 68.3981 153.032 67.4371 153.92 66.2937C154.809 65.1504 155.506 63.8817 156.013 62.4877C156.539 61.0914 156.916 59.6732 157.142 58.2328C157.388 56.7903 157.511 55.3816 157.51 54.0068C157.526 52.6104 157.47 51.35 157.341 50.2257C157.113 48.2484 156.648 46.5834 155.943 45.2307C155.239 43.878 154.37 42.7997 153.336 41.9956C152.302 41.1915 151.152 40.6465 149.883 40.3605C148.632 40.0529 147.339 39.976 146.003 40.1299C144.184 40.3395 142.623 40.8336 141.32 41.6122C140.017 42.3909 138.921 43.3519 138.033 44.4952C137.142 45.6192 136.435 46.889 135.911 48.3046C135.405 49.6986 135.028 51.1169 134.782 52.5595C134.555 53.9998 134.434 55.4182 134.418 56.8146C134.419 58.1894 134.484 59.4389 134.613 60.5633Z"/>
<path d="M174.542 30.4485L209.148 26.4617L206.335 70.0956L197.393 71.1257L199.774 34.9956L182.994 36.9289L180.642 73.0556L171.729 74.0825L174.542 30.4485Z"/>
<path d="M217.625 25.485L226.538 24.4582L224.53 53.5921L224.646 53.5787L242.592 22.6085L252.115 21.5115L249.243 65.1521L240.301 66.1822L243.412 35.8901L243.296 35.9035L223.841 68.0787L214.696 69.1323L217.625 25.485Z"/>
<path d="M286.578 24.995L274.269 26.4131L271.82 49.1456C271.571 51.4135 271.21 53.4782 270.737 55.3396C270.282 57.1795 269.622 58.7777 268.758 60.1343C267.911 61.4693 266.819 62.5477 265.482 63.3696C264.164 64.1892 262.528 64.7117 260.573 64.9369C259.586 65.0506 258.666 65.0682 257.814 64.9896C256.964 64.9304 256.042 64.7616 255.05 64.4831L255.416 56.6628C256.041 56.8069 256.639 56.8951 257.212 56.9274C257.801 56.938 258.231 56.9277 258.502 56.8965C258.928 56.8475 259.323 56.7823 259.686 56.7012C260.047 56.6007 260.379 56.4152 260.681 56.1446C260.983 55.8741 261.253 55.4895 261.49 54.9908C261.744 54.4705 261.986 53.7649 262.217 52.8741C262.446 51.9638 262.66 50.8392 262.86 49.5003C263.076 48.1398 263.299 46.4937 263.528 44.562L266.311 19.8759L295.981 16.4576L293.139 60.0949L284.226 61.1217L286.578 24.995Z"/>
<path d="M301.701 40.9007C301.467 38.8652 301.435 36.7967 301.606 34.6951C301.774 32.574 302.164 30.506 302.776 28.491C303.388 26.476 304.217 24.5636 305.264 22.7537C306.331 20.9417 307.635 19.3183 309.176 17.8837C310.718 16.449 312.513 15.2601 314.562 14.317C316.608 13.3545 318.919 12.7249 321.493 12.4284C323.854 12.1563 325.986 12.1955 327.889 12.5458C329.812 12.8939 331.515 13.4637 332.998 14.2553C334.481 15.0469 335.771 16.0277 336.866 17.1979C337.978 18.3464 338.916 19.5937 339.678 20.9397C340.439 22.2663 341.029 23.6517 341.45 25.096C341.89 26.5381 342.189 27.9473 342.347 29.3236C342.581 31.359 342.614 33.4373 342.446 35.5583C342.275 37.66 341.884 39.7183 341.272 41.7333C340.66 43.7483 339.821 45.6618 338.755 47.4739C337.707 49.2837 336.413 50.906 334.872 52.3406C333.33 53.7753 331.535 54.9641 329.486 55.9073C327.44 56.8698 325.129 57.4994 322.555 57.7959C320.175 58.0702 318.033 58.0322 316.13 57.6818C314.226 57.3315 312.523 56.7617 311.021 55.9723C309.538 55.1808 308.24 54.2107 307.127 53.0622C306.032 51.892 305.103 50.634 304.341 49.288C303.598 47.9397 303.007 46.5543 302.569 45.1316C302.148 43.6873 301.859 42.277 301.701 40.9007ZM310.66 40.2809C310.885 42.2388 311.351 43.9038 312.057 45.2759C312.762 46.6286 313.631 47.7069 314.665 48.511C315.698 49.3151 316.841 49.8709 318.092 50.1785C319.36 50.4645 320.662 50.5306 321.997 50.3767C323.817 50.1671 325.378 49.673 326.681 48.8944C327.984 48.1157 329.079 47.1547 329.968 46.0114C330.856 44.868 331.554 43.5993 332.06 42.2053C332.587 40.8091 332.963 39.3908 333.19 37.9505C333.436 36.5079 333.558 35.0993 333.557 33.7245C333.574 32.3281 333.517 31.0677 333.388 29.9433C333.161 27.9661 332.695 26.3011 331.991 24.9484C331.286 23.5957 330.417 22.5173 329.384 21.7133C328.35 20.9092 327.199 20.3642 325.931 20.0782C324.679 19.7706 323.386 19.6937 322.051 19.8475C320.231 20.0571 318.67 20.5513 317.367 21.3299C316.064 22.1085 314.969 23.0695 314.08 24.2129C313.19 25.3369 312.482 26.6067 311.959 28.0223C311.452 29.4163 311.076 30.8346 310.829 32.2771C310.603 33.7175 310.481 35.1358 310.465 36.5322C310.466 37.907 310.531 39.1566 310.66 40.2809Z"/>
<path d="M26.5175 112.367L43.2107 110.444C45.9203 110.132 48.2427 110.119 50.178 110.407C52.1133 110.695 53.7268 111.255 55.0188 112.088C56.3085 112.902 57.2937 113.967 57.9743 115.283C58.6549 116.6 59.0954 118.13 59.2958 119.875C59.4227 120.98 59.3989 122.053 59.2243 123.094C59.0669 124.114 58.7468 125.084 58.2642 126.004C57.7986 126.902 57.1585 127.732 56.3439 128.494C55.5464 129.234 54.5711 129.876 53.4179 130.422C54.2626 130.776 55.0344 131.178 55.7332 131.628C56.4298 132.059 57.0396 132.587 57.5627 133.215C58.0835 133.822 58.5079 134.53 58.8359 135.337C59.1832 136.141 59.417 137.067 59.5372 138.114C59.7843 140.265 59.6564 142.225 59.1533 143.991C58.648 145.739 57.7847 147.272 56.5635 148.591C55.3423 149.91 53.7802 150.994 51.8773 151.842C49.9722 152.67 47.7325 153.233 45.1584 153.529L23.7041 156.001L26.5175 112.367ZM33.075 147.438L44.0199 146.177C45.3747 146.021 46.4932 145.686 47.3755 145.171C48.2577 144.657 48.9536 144.057 49.4629 143.369C49.9723 142.682 50.3105 141.956 50.4775 141.19C50.6446 140.425 50.6891 139.703 50.6112 139.024C50.5065 138.113 50.2627 137.355 49.8795 136.751C49.4942 136.128 48.9964 135.635 48.3861 135.274C47.7952 134.91 47.1015 134.675 46.3051 134.57C45.5086 134.466 44.6459 134.467 43.7169 134.574L33.8462 135.711L33.075 147.438ZM34.2864 128.531L44.5636 127.347C46.6732 127.104 48.2273 126.463 49.2259 125.425C50.2222 124.367 50.6191 122.956 50.4165 121.192C50.3252 120.397 50.1044 119.755 49.7539 119.265C49.4229 118.773 48.9879 118.401 48.4491 118.149C47.9296 117.894 47.3245 117.748 46.6337 117.71C45.9407 117.652 45.2071 117.668 44.433 117.757L34.9106 118.854L34.2864 128.531Z"/>
<path d="M69.4843 107.417L97.8481 104.149L97.3865 111.656L77.7612 113.917L77.1951 123.587L95.1946 121.513L94.7364 129.05L76.7949 131.117L76.0997 142.481L96.6831 140.11L96.2249 147.646L66.6708 151.051L69.4843 107.417Z"/>
<path d="M131.748 114.768C131.604 113.508 131.271 112.407 130.751 111.466C130.229 110.504 129.571 109.726 128.777 109.13C128 108.512 127.108 108.085 126.1 107.847C125.109 107.588 124.062 107.522 122.959 107.649C121.14 107.859 119.579 108.353 118.276 109.132C116.973 109.91 115.877 110.871 114.989 112.015C114.098 113.139 113.391 114.408 112.867 115.824C112.361 117.218 111.984 118.636 111.738 120.079C111.511 121.519 111.39 122.938 111.374 124.334C111.375 125.709 111.44 126.958 111.569 128.083C111.74 129.575 112.076 130.961 112.576 132.239C113.095 133.515 113.808 134.601 114.715 135.498C115.641 136.393 116.777 137.058 118.121 137.492C119.484 137.925 121.085 138.035 122.924 137.823C124.027 137.696 125.076 137.437 126.071 137.048C127.083 136.637 127.988 136.071 128.788 135.35C129.585 134.61 130.255 133.698 130.798 132.614C131.34 131.53 131.702 130.241 131.883 128.747L140.941 127.704C140.621 130.216 140.012 132.505 139.112 134.573C138.231 136.639 137.056 138.444 135.586 139.988C134.133 141.511 132.393 142.752 130.366 143.712C128.339 144.673 126.038 145.301 123.464 145.598C121.103 145.87 118.961 145.832 117.038 145.484C115.135 145.133 113.442 144.562 111.959 143.771C110.475 142.979 109.177 142.009 108.065 140.861C106.97 139.69 106.041 138.432 105.278 137.086C104.516 135.74 103.916 134.356 103.478 132.933C103.057 131.489 102.767 130.079 102.609 128.702C102.376 126.667 102.344 124.598 102.514 122.497C102.683 120.376 103.073 118.308 103.685 116.293C104.296 114.278 105.126 112.365 106.173 110.555C107.24 108.743 108.544 107.12 110.085 105.685C111.626 104.251 113.421 103.062 115.47 102.119C117.517 101.156 119.827 100.527 122.401 100.23C124.821 99.9514 127.075 100.026 129.163 100.453C131.271 100.878 133.125 101.656 134.726 102.788C136.327 103.919 137.644 105.398 138.677 107.223C139.71 109.049 140.372 111.221 140.661 113.741L131.748 114.768Z"/>
<path d="M148.334 98.3325L157.247 97.3057L156.132 114.493L164.174 113.566C166.69 113.277 168.89 113.308 170.774 113.66C172.655 113.994 174.236 114.607 175.515 115.501C176.792 116.375 177.784 117.498 178.49 118.87C179.214 120.221 179.676 121.768 179.877 123.513C179.95 124.152 179.984 124.964 179.98 125.946C179.973 126.91 179.846 127.945 179.601 129.054C179.354 130.143 178.943 131.261 178.368 132.407C177.811 133.532 177.001 134.588 175.938 135.575C174.872 136.542 173.519 137.395 171.878 138.134C170.254 138.852 168.262 139.346 165.901 139.618L145.491 141.97L148.334 98.3325ZM154.891 133.403L163.136 132.453C164.491 132.297 165.687 132.042 166.725 131.686C167.761 131.312 168.616 130.82 169.292 130.212C169.984 129.583 170.475 128.819 170.764 127.921C171.053 127.024 171.128 125.964 170.987 124.743C170.883 123.832 170.641 123.094 170.262 122.529C169.901 121.942 169.428 121.495 168.844 121.189C168.279 120.881 167.61 120.693 166.837 120.625C166.065 120.557 165.224 120.575 164.314 120.68L155.634 121.68L154.891 133.403Z"/>
<path d="M199.774 128.232L202.764 127.888C203.654 126.587 204.455 125.022 205.167 123.192C205.895 121.34 206.549 119.35 207.128 117.221C207.705 115.072 208.213 112.833 208.651 110.504C209.107 108.154 209.498 105.84 209.825 103.563C210.169 101.265 210.454 99.052 210.681 96.9242C210.905 94.7771 211.093 92.8305 211.245 91.0845L239.058 87.8803L236.702 123.978L240.331 123.56L239.328 140.44L231.345 141.359L231.86 132.019L207.3 134.849L206.813 144.186L198.771 145.112L199.774 128.232ZM229.683 96.4143L218.68 97.6819C218.458 100.359 218.201 102.903 217.91 105.313C217.618 107.723 217.243 110.094 216.785 112.425C216.327 114.756 215.752 117.091 215.06 119.43C214.387 121.766 213.559 124.209 212.577 126.757L227.848 124.998L229.683 96.4143Z"/>
<path d="M245.358 112.256C245.124 110.221 245.092 108.152 245.263 106.051C245.431 103.93 245.821 101.862 246.433 99.8468C247.045 97.8318 247.874 95.9193 248.921 94.1095C249.988 92.2974 251.292 90.6741 252.833 89.2394C254.375 87.8048 256.17 86.6159 258.218 85.6728C260.265 84.7102 262.575 84.0807 265.15 83.7841C267.511 83.5121 269.643 83.5512 271.546 83.9016C273.469 84.2497 275.172 84.8195 276.655 85.6111C278.138 86.4026 279.427 87.3835 280.523 88.5536C281.635 89.7022 282.573 90.9494 283.335 92.2954C284.095 93.622 284.686 95.0075 285.107 96.4518C285.547 97.8938 285.846 99.303 286.004 100.679C286.238 102.715 286.271 104.793 286.102 106.914C285.932 109.016 285.541 111.074 284.929 113.089C284.317 115.104 283.478 117.018 282.411 118.83C281.364 120.64 280.07 122.262 278.529 123.696C276.987 125.131 275.192 126.32 273.143 127.263C271.097 128.226 268.786 128.855 266.212 129.152C263.832 129.426 261.69 129.388 259.786 129.038C257.883 128.687 256.18 128.117 254.678 127.328C253.194 126.537 251.897 125.567 250.784 124.418C249.689 123.248 248.76 121.99 247.997 120.644C247.254 119.296 246.664 117.91 246.226 116.487C245.805 115.043 245.516 113.633 245.358 112.256ZM254.317 111.637C254.542 113.595 255.008 115.26 255.714 116.632C256.419 117.984 257.288 119.063 258.321 119.867C259.355 120.671 260.497 121.227 261.749 121.534C263.017 121.82 264.319 121.886 265.654 121.733C267.474 121.523 269.035 121.029 270.338 120.25C271.641 119.472 272.736 118.511 273.625 117.367C274.513 116.224 275.211 114.955 275.717 113.561C276.243 112.165 276.62 110.747 276.846 109.306C277.093 107.864 277.215 106.455 277.214 105.08C277.23 103.684 277.174 102.423 277.045 101.299C276.818 99.3218 276.352 97.6569 275.647 96.3042C274.943 94.9515 274.074 93.8731 273.04 93.069C272.007 92.265 270.856 91.7199 269.587 91.4339C268.336 91.1263 267.043 91.0495 265.707 91.2033C263.888 91.4129 262.327 91.907 261.024 92.6857C259.721 93.4643 258.625 94.4253 257.737 95.5687C256.846 96.6927 256.139 97.9625 255.615 99.3781C255.109 100.772 254.732 102.19 254.486 103.633C254.259 105.073 254.138 106.492 254.122 107.888C254.123 109.263 254.188 110.512 254.317 111.637Z"/>
<path d="M294.014 81.5487L307.02 80.0503L312.457 111.509L312.573 111.495L322.001 78.3244L335.442 76.7758L332.629 120.41L324.297 121.37L327.183 84.0029L327.067 84.0163L315.994 122.326L308.068 123.239L301.432 86.9697L301.316 86.983L299.736 124.199L291.433 125.156L294.014 81.5487Z"/>
<path d="M350.745 75.0423L359.832 73.9953L358.759 85.138L354.466 105.903L350.14 106.401L349.672 86.1849L350.745 75.0423ZM347.602 110.17L356.254 109.173L355.448 117.781L346.796 118.778L347.602 110.17Z"/>
<path d="M370.545 72.7612L379.632 71.7142L378.558 82.8569L374.266 103.622L369.94 104.12L369.471 83.9038L370.545 72.7612ZM367.402 107.889L376.053 106.892L375.247 115.5L366.596 116.496L367.402 107.889Z"/>
<path d="M390.344 70.48L399.431 69.4332L398.358 80.5758L394.065 101.341L389.739 101.839L389.271 81.6227L390.344 70.48ZM387.201 105.608L395.853 104.611L395.047 113.219L386.395 114.215L387.201 105.608Z"/>
</mask>
<path d="M17.3142 61.1727C17.4019 59.3752 17.7394 57.6176 18.3265 55.9001C18.9137 54.1826 19.8135 52.6254 21.0258 51.2287C22.2359 49.8126 23.7857 48.6225 25.6753 47.6584C27.5819 46.6727 29.8707 46.026 32.5416 45.7183C34.9416 45.4418 37.0288 45.5156 38.8032 45.9397C40.5947 46.3422 42.0903 46.985 43.2899 47.8682C44.4873 48.7319 45.4111 49.7745 46.0612 50.996C46.7114 52.2174 47.1121 53.4872 47.2635 54.8054C47.4082 56.0655 47.3721 57.2874 47.155 58.4713C46.9358 59.6357 46.5301 60.7137 45.938 61.705C45.3459 62.6964 44.5554 63.583 43.5666 64.3647C42.5972 65.1442 41.4152 65.7812 40.0209 66.2758L40.0342 66.3921C41.0011 66.6146 41.8801 66.9258 42.6712 67.3257C43.4601 67.7062 44.1462 68.2164 44.7296 68.8563C45.3301 69.4746 45.8192 70.2334 46.197 71.1326C46.5749 72.0319 46.835 73.1019 46.9775 74.3425C47.1022 75.4281 47.0958 76.568 46.9584 77.7623C46.821 78.9567 46.5255 80.1398 46.0717 81.3116C45.6374 82.4812 45.0232 83.6224 44.2293 84.7353C43.4526 85.8265 42.4689 86.8237 41.2784 87.7269C40.1071 88.6278 38.7138 89.3874 37.0983 90.0057C35.485 90.6433 33.6429 91.0814 31.572 91.32C29.0366 91.6121 26.773 91.539 24.7812 91.1006C22.811 90.6794 21.1204 89.9609 19.7095 88.9449C18.2963 87.9096 17.1779 86.6243 16.3545 85.0889C15.5288 83.5341 15.0046 81.7875 14.782 79.849L14.6885 79.0348L22.8754 78.0916C23.1473 79.4352 23.5195 80.5413 23.9919 81.41C24.462 82.2594 25.0379 82.9198 25.7196 83.3912C26.3991 83.8433 27.1973 84.1343 28.1143 84.2644C29.0484 84.3728 30.1058 84.359 31.2864 84.223C32.6219 84.0691 33.7468 83.7038 34.6611 83.1271C35.5753 82.5504 36.301 81.8677 36.8379 81.0791C37.392 80.2689 37.7619 79.3915 37.9476 78.4469C38.1526 77.5002 38.2051 76.5906 38.1049 75.7183C37.978 74.6133 37.6992 73.7223 37.2684 73.0452C36.8377 72.3681 36.3086 71.8594 35.6812 71.5192C35.071 71.1574 34.3784 70.9327 33.6035 70.8452C32.848 70.7555 32.0735 70.7563 31.28 70.8478L28.8413 71.1287L29.1585 64.6694C29.5887 64.6591 30.0287 64.6477 30.4783 64.6352C30.945 64.6011 31.3913 64.5595 31.8171 64.5104C32.9396 64.3811 33.9573 64.1067 34.87 63.6873C35.7827 63.2679 36.5541 62.7272 37.1841 62.0654C37.814 61.4036 38.2736 60.6239 38.5627 59.7263C38.8496 58.8094 38.9296 57.7985 38.8027 56.6935C38.6068 54.9876 37.9611 53.805 36.8657 53.1455C35.7895 52.4838 34.3805 52.2533 32.6386 52.454C31.4387 52.5923 30.4061 52.9076 29.541 53.4001C28.693 53.871 27.9864 54.4631 27.4211 55.1764C26.8559 55.8897 26.4083 56.6876 26.0782 57.5703C25.7459 58.4335 25.5051 59.3255 25.356 60.2462L17.3142 61.1727Z" fill="#2FAD74"/>
<path d="M73.0572 51.1856L72.9411 51.199L66.1569 70.2473L76.8695 69.0131L73.0572 51.1856ZM68.2289 42.6969L78.6512 41.4961L88.96 83.6182L80.1634 84.6317L78.4145 76.3185L63.3761 78.0511L60.2478 86.9262L50.7835 88.0165L68.2289 42.6969Z" fill="#2FAD74"/>
<path d="M102.257 46.2305L90.9635 47.5316L91.4831 40.0178L121.734 36.5326L121.214 44.0464L111.169 45.2037L108.818 81.3305L99.9049 82.3573L102.257 46.2305Z" fill="#2FAD74"/>
<path d="M125.653 61.183C125.42 59.1476 125.388 57.079 125.558 54.9774C125.727 52.8564 126.117 50.7883 126.729 48.7733C127.34 46.7583 128.17 44.8459 129.217 43.0361C130.284 41.224 131.588 39.6007 133.129 38.166C134.67 36.7314 136.465 35.5425 138.514 34.5993C140.561 33.6368 142.871 33.0073 145.445 32.7107C147.807 32.4387 149.939 32.4778 151.842 32.8281C153.765 33.1763 155.468 33.7461 156.951 34.5376C158.434 35.3292 159.723 36.31 160.819 37.4802C161.931 38.6287 162.869 39.876 163.631 41.222C164.391 42.5486 164.982 43.9341 165.403 45.3783C165.843 46.8204 166.142 48.2296 166.3 49.6059C166.534 51.6414 166.566 53.7196 166.398 55.8406C166.228 57.9423 165.837 60.0006 165.225 62.0156C164.613 64.0307 163.774 65.9442 162.707 67.7562C161.66 69.5661 160.366 71.1883 158.824 72.6229C157.283 74.0576 155.488 75.2465 153.439 76.1896C151.392 77.1522 149.082 77.7817 146.508 78.0783C144.127 78.3525 141.985 78.3145 140.082 77.9642C138.179 77.6138 136.476 77.044 134.973 76.2547C133.49 75.4631 132.192 74.4931 131.08 73.3445C129.985 72.1744 129.056 70.9163 128.293 69.5703C127.55 68.2221 126.96 66.8366 126.522 65.414C126.101 63.9697 125.811 62.5594 125.653 61.183ZM134.613 60.5633C134.838 62.5212 135.303 64.1862 136.01 65.5582C136.715 66.9109 137.584 67.9893 138.617 68.7934C139.651 69.5974 140.793 70.1533 142.044 70.4609C143.313 70.7469 144.615 70.8129 145.95 70.6591C147.769 70.4495 149.33 69.9554 150.633 69.1767C151.936 68.3981 153.032 67.4371 153.92 66.2937C154.809 65.1504 155.506 63.8817 156.013 62.4877C156.539 61.0914 156.916 59.6732 157.142 58.2328C157.388 56.7903 157.511 55.3816 157.51 54.0068C157.526 52.6104 157.47 51.35 157.341 50.2257C157.113 48.2484 156.648 46.5834 155.943 45.2307C155.239 43.878 154.37 42.7997 153.336 41.9956C152.302 41.1915 151.152 40.6465 149.883 40.3605C148.632 40.0529 147.339 39.976 146.003 40.1299C144.184 40.3395 142.623 40.8336 141.32 41.6122C140.017 42.3909 138.921 43.3519 138.033 44.4952C137.142 45.6192 136.435 46.889 135.911 48.3046C135.405 49.6986 135.028 51.1169 134.782 52.5595C134.555 53.9998 134.434 55.4182 134.418 56.8146C134.419 58.1894 134.484 59.4389 134.613 60.5633Z" fill="#2FAD74"/>
<path d="M174.542 30.4485L209.148 26.4617L206.335 70.0956L197.393 71.1257L199.774 34.9956L182.994 36.9289L180.642 73.0556L171.729 74.0825L174.542 30.4485Z" fill="#2FAD74"/>
<path d="M217.625 25.485L226.538 24.4582L224.53 53.5921L224.646 53.5787L242.592 22.6085L252.115 21.5115L249.243 65.1521L240.301 66.1822L243.412 35.8901L243.296 35.9035L223.841 68.0787L214.696 69.1323L217.625 25.485Z" fill="#2FAD74"/>
<path d="M286.578 24.995L274.269 26.4131L271.82 49.1456C271.571 51.4135 271.21 53.4782 270.737 55.3396C270.282 57.1795 269.622 58.7777 268.758 60.1343C267.911 61.4693 266.819 62.5477 265.482 63.3696C264.164 64.1892 262.528 64.7117 260.573 64.9369C259.586 65.0506 258.666 65.0682 257.814 64.9896C256.964 64.9304 256.042 64.7616 255.05 64.4831L255.416 56.6628C256.041 56.8069 256.639 56.8951 257.212 56.9274C257.801 56.938 258.231 56.9277 258.502 56.8965C258.928 56.8475 259.323 56.7823 259.686 56.7012C260.047 56.6007 260.379 56.4152 260.681 56.1446C260.983 55.8741 261.253 55.4895 261.49 54.9908C261.744 54.4705 261.986 53.7649 262.217 52.8741C262.446 51.9638 262.66 50.8392 262.86 49.5003C263.076 48.1398 263.299 46.4937 263.528 44.562L266.311 19.8759L295.981 16.4576L293.139 60.0949L284.226 61.1217L286.578 24.995Z" fill="#2FAD74"/>
<path d="M301.701 40.9007C301.467 38.8652 301.435 36.7967 301.606 34.6951C301.774 32.574 302.164 30.506 302.776 28.491C303.388 26.476 304.217 24.5636 305.264 22.7537C306.331 20.9417 307.635 19.3183 309.176 17.8837C310.718 16.449 312.513 15.2601 314.562 14.317C316.608 13.3545 318.919 12.7249 321.493 12.4284C323.854 12.1563 325.986 12.1955 327.889 12.5458C329.812 12.8939 331.515 13.4637 332.998 14.2553C334.481 15.0469 335.771 16.0277 336.866 17.1979C337.978 18.3464 338.916 19.5937 339.678 20.9397C340.439 22.2663 341.029 23.6517 341.45 25.096C341.89 26.5381 342.189 27.9473 342.347 29.3236C342.581 31.359 342.614 33.4373 342.446 35.5583C342.275 37.66 341.884 39.7183 341.272 41.7333C340.66 43.7483 339.821 45.6618 338.755 47.4739C337.707 49.2837 336.413 50.906 334.872 52.3406C333.33 53.7753 331.535 54.9641 329.486 55.9073C327.44 56.8698 325.129 57.4994 322.555 57.7959C320.175 58.0702 318.033 58.0322 316.13 57.6818C314.226 57.3315 312.523 56.7617 311.021 55.9723C309.538 55.1808 308.24 54.2107 307.127 53.0622C306.032 51.892 305.103 50.634 304.341 49.288C303.598 47.9397 303.007 46.5543 302.569 45.1316C302.148 43.6873 301.859 42.277 301.701 40.9007ZM310.66 40.2809C310.885 42.2388 311.351 43.9038 312.057 45.2759C312.762 46.6286 313.631 47.7069 314.665 48.511C315.698 49.3151 316.841 49.8709 318.092 50.1785C319.36 50.4645 320.662 50.5306 321.997 50.3767C323.817 50.1671 325.378 49.673 326.681 48.8944C327.984 48.1157 329.079 47.1547 329.968 46.0114C330.856 44.868 331.554 43.5993 332.06 42.2053C332.587 40.8091 332.963 39.3908 333.19 37.9505C333.436 36.5079 333.558 35.0993 333.557 33.7245C333.574 32.3281 333.517 31.0677 333.388 29.9433C333.161 27.9661 332.695 26.3011 331.991 24.9484C331.286 23.5957 330.417 22.5173 329.384 21.7133C328.35 20.9092 327.199 20.3642 325.931 20.0782C324.679 19.7706 323.386 19.6937 322.051 19.8475C320.231 20.0571 318.67 20.5513 317.367 21.3299C316.064 22.1085 314.969 23.0695 314.08 24.2129C313.19 25.3369 312.482 26.6067 311.959 28.0223C311.452 29.4163 311.076 30.8346 310.829 32.2771C310.603 33.7175 310.481 35.1358 310.465 36.5322C310.466 37.907 310.531 39.1566 310.66 40.2809Z" fill="#2FAD74"/>
<path d="M26.5175 112.367L43.2107 110.444C45.9203 110.132 48.2427 110.119 50.178 110.407C52.1133 110.695 53.7268 111.255 55.0188 112.088C56.3085 112.902 57.2937 113.967 57.9743 115.283C58.6549 116.6 59.0954 118.13 59.2958 119.875C59.4227 120.98 59.3989 122.053 59.2243 123.094C59.0669 124.114 58.7468 125.084 58.2642 126.004C57.7986 126.902 57.1585 127.732 56.3439 128.494C55.5464 129.234 54.5711 129.876 53.4179 130.422C54.2626 130.776 55.0344 131.178 55.7332 131.628C56.4298 132.059 57.0396 132.587 57.5627 133.215C58.0835 133.822 58.5079 134.53 58.8359 135.337C59.1832 136.141 59.417 137.067 59.5372 138.114C59.7843 140.265 59.6564 142.225 59.1533 143.991C58.648 145.739 57.7847 147.272 56.5635 148.591C55.3423 149.91 53.7802 150.994 51.8773 151.842C49.9722 152.67 47.7325 153.233 45.1584 153.529L23.7041 156.001L26.5175 112.367ZM33.075 147.438L44.0199 146.177C45.3747 146.021 46.4932 145.686 47.3755 145.171C48.2577 144.657 48.9536 144.057 49.4629 143.369C49.9723 142.682 50.3105 141.956 50.4775 141.19C50.6446 140.425 50.6891 139.703 50.6112 139.024C50.5065 138.113 50.2627 137.355 49.8795 136.751C49.4942 136.128 48.9964 135.635 48.3861 135.274C47.7952 134.91 47.1015 134.675 46.3051 134.57C45.5086 134.466 44.6459 134.467 43.7169 134.574L33.8462 135.711L33.075 147.438ZM34.2864 128.531L44.5636 127.347C46.6732 127.104 48.2273 126.463 49.2259 125.425C50.2222 124.367 50.6191 122.956 50.4165 121.192C50.3252 120.397 50.1044 119.755 49.7539 119.265C49.4229 118.773 48.9879 118.401 48.4491 118.149C47.9296 117.894 47.3245 117.748 46.6337 117.71C45.9407 117.652 45.2071 117.668 44.433 117.757L34.9106 118.854L34.2864 128.531Z" fill="#2FAD74"/>
<path d="M69.4843 107.417L97.8481 104.149L97.3865 111.656L77.7612 113.917L77.1951 123.587L95.1946 121.513L94.7364 129.05L76.7949 131.117L76.0997 142.481L96.6831 140.11L96.2249 147.646L66.6708 151.051L69.4843 107.417Z" fill="#2FAD74"/>
<path d="M131.748 114.768C131.604 113.508 131.271 112.407 130.751 111.466C130.229 110.504 129.571 109.726 128.777 109.13C128 108.512 127.108 108.085 126.1 107.847C125.109 107.588 124.062 107.522 122.959 107.649C121.14 107.859 119.579 108.353 118.276 109.132C116.973 109.91 115.877 110.871 114.989 112.015C114.098 113.139 113.391 114.408 112.867 115.824C112.361 117.218 111.984 118.636 111.738 120.079C111.511 121.519 111.39 122.938 111.374 124.334C111.375 125.709 111.44 126.958 111.569 128.083C111.74 129.575 112.076 130.961 112.576 132.239C113.095 133.515 113.808 134.601 114.715 135.498C115.641 136.393 116.777 137.058 118.121 137.492C119.484 137.925 121.085 138.035 122.924 137.823C124.027 137.696 125.076 137.437 126.071 137.048C127.083 136.637 127.988 136.071 128.788 135.35C129.585 134.61 130.255 133.698 130.798 132.614C131.34 131.53 131.702 130.241 131.883 128.747L140.941 127.704C140.621 130.216 140.012 132.505 139.112 134.573C138.231 136.639 137.056 138.444 135.586 139.988C134.133 141.511 132.393 142.752 130.366 143.712C128.339 144.673 126.038 145.301 123.464 145.598C121.103 145.87 118.961 145.832 117.038 145.484C115.135 145.133 113.442 144.562 111.959 143.771C110.475 142.979 109.177 142.009 108.065 140.861C106.97 139.69 106.041 138.432 105.278 137.086C104.516 135.74 103.916 134.356 103.478 132.933C103.057 131.489 102.767 130.079 102.609 128.702C102.376 126.667 102.344 124.598 102.514 122.497C102.683 120.376 103.073 118.308 103.685 116.293C104.296 114.278 105.126 112.365 106.173 110.555C107.24 108.743 108.544 107.12 110.085 105.685C111.626 104.251 113.421 103.062 115.47 102.119C117.517 101.156 119.827 100.527 122.401 100.23C124.821 99.9514 127.075 100.026 129.163 100.453C131.271 100.878 133.125 101.656 134.726 102.788C136.327 103.919 137.644 105.398 138.677 107.223C139.71 109.049 140.372 111.221 140.661 113.741L131.748 114.768Z" fill="#2FAD74"/>
<path d="M148.334 98.3325L157.247 97.3057L156.132 114.493L164.174 113.566C166.69 113.277 168.89 113.308 170.774 113.66C172.655 113.994 174.236 114.607 175.515 115.501C176.792 116.375 177.784 117.498 178.49 118.87C179.214 120.221 179.676 121.768 179.877 123.513C179.95 124.152 179.984 124.964 179.98 125.946C179.973 126.91 179.846 127.945 179.601 129.054C179.354 130.143 178.943 131.261 178.368 132.407C177.811 133.532 177.001 134.588 175.938 135.575C174.872 136.542 173.519 137.395 171.878 138.134C170.254 138.852 168.262 139.346 165.901 139.618L145.491 141.97L148.334 98.3325ZM154.891 133.403L163.136 132.453C164.491 132.297 165.687 132.042 166.725 131.686C167.761 131.312 168.616 130.82 169.292 130.212C169.984 129.583 170.475 128.819 170.764 127.921C171.053 127.024 171.128 125.964 170.987 124.743C170.883 123.832 170.641 123.094 170.262 122.529C169.901 121.942 169.428 121.495 168.844 121.189C168.279 120.881 167.61 120.693 166.837 120.625C166.065 120.557 165.224 120.575 164.314 120.68L155.634 121.68L154.891 133.403Z" fill="#2FAD74"/>
<path d="M199.774 128.232L202.764 127.888C203.654 126.587 204.455 125.022 205.167 123.192C205.895 121.34 206.549 119.35 207.128 117.221C207.705 115.072 208.213 112.833 208.651 110.504C209.107 108.154 209.498 105.84 209.825 103.563C210.169 101.265 210.454 99.052 210.681 96.9242C210.905 94.7771 211.093 92.8305 211.245 91.0845L239.058 87.8803L236.702 123.978L240.331 123.56L239.328 140.44L231.345 141.359L231.86 132.019L207.3 134.849L206.813 144.186L198.771 145.112L199.774 128.232ZM229.683 96.4143L218.68 97.6819C218.458 100.359 218.201 102.903 217.91 105.313C217.618 107.723 217.243 110.094 216.785 112.425C216.327 114.756 215.752 117.091 215.06 119.43C214.387 121.766 213.559 124.209 212.577 126.757L227.848 124.998L229.683 96.4143Z" fill="#2FAD74"/>
<path d="M245.358 112.256C245.124 110.221 245.092 108.152 245.263 106.051C245.431 103.93 245.821 101.862 246.433 99.8468C247.045 97.8318 247.874 95.9193 248.921 94.1095C249.988 92.2974 251.292 90.6741 252.833 89.2394C254.375 87.8048 256.17 86.6159 258.218 85.6728C260.265 84.7102 262.575 84.0807 265.15 83.7841C267.511 83.5121 269.643 83.5512 271.546 83.9016C273.469 84.2497 275.172 84.8195 276.655 85.6111C278.138 86.4026 279.427 87.3835 280.523 88.5536C281.635 89.7022 282.573 90.9494 283.335 92.2954C284.095 93.622 284.686 95.0075 285.107 96.4518C285.547 97.8938 285.846 99.303 286.004 100.679C286.238 102.715 286.271 104.793 286.102 106.914C285.932 109.016 285.541 111.074 284.929 113.089C284.317 115.104 283.478 117.018 282.411 118.83C281.364 120.64 280.07 122.262 278.529 123.696C276.987 125.131 275.192 126.32 273.143 127.263C271.097 128.226 268.786 128.855 266.212 129.152C263.832 129.426 261.69 129.388 259.786 129.038C257.883 128.687 256.18 128.117 254.678 127.328C253.194 126.537 251.897 125.567 250.784 124.418C249.689 123.248 248.76 121.99 247.997 120.644C247.254 119.296 246.664 117.91 246.226 116.487C245.805 115.043 245.516 113.633 245.358 112.256ZM254.317 111.637C254.542 113.595 255.008 115.26 255.714 116.632C256.419 117.984 257.288 119.063 258.321 119.867C259.355 120.671 260.497 121.227 261.749 121.534C263.017 121.82 264.319 121.886 265.654 121.733C267.474 121.523 269.035 121.029 270.338 120.25C271.641 119.472 272.736 118.511 273.625 117.367C274.513 116.224 275.211 114.955 275.717 113.561C276.243 112.165 276.62 110.747 276.846 109.306C277.093 107.864 277.215 106.455 277.214 105.08C277.23 103.684 277.174 102.423 277.045 101.299C276.818 99.3218 276.352 97.6569 275.647 96.3042C274.943 94.9515 274.074 93.8731 273.04 93.069C272.007 92.265 270.856 91.7199 269.587 91.4339C268.336 91.1263 267.043 91.0495 265.707 91.2033C263.888 91.4129 262.327 91.907 261.024 92.6857C259.721 93.4643 258.625 94.4253 257.737 95.5687C256.846 96.6927 256.139 97.9625 255.615 99.3781C255.109 100.772 254.732 102.19 254.486 103.633C254.259 105.073 254.138 106.492 254.122 107.888C254.123 109.263 254.188 110.512 254.317 111.637Z" fill="#2FAD74"/>
<path d="M294.014 81.5487L307.02 80.0503L312.457 111.509L312.573 111.495L322.001 78.3244L335.442 76.7758L332.629 120.41L324.297 121.37L327.183 84.0029L327.067 84.0163L315.994 122.326L308.068 123.239L301.432 86.9697L301.316 86.983L299.736 124.199L291.433 125.156L294.014 81.5487Z" fill="#2FAD74"/>
<path d="M350.745 75.0423L359.832 73.9953L358.759 85.138L354.466 105.903L350.14 106.401L349.672 86.1849L350.745 75.0423ZM347.602 110.17L356.254 109.173L355.448 117.781L346.796 118.778L347.602 110.17Z" fill="#2FAD74"/>
<path d="M370.545 72.7612L379.632 71.7142L378.558 82.8569L374.266 103.622L369.94 104.12L369.471 83.9038L370.545 72.7612ZM367.402 107.889L376.053 106.892L375.247 115.5L366.596 116.496L367.402 107.889Z" fill="#2FAD74"/>
<path d="M390.344 70.48L399.431 69.4332L398.358 80.5758L394.065 101.341L389.739 101.839L389.271 81.6227L390.344 70.48ZM387.201 105.608L395.853 104.611L395.047 113.219L386.395 114.215L387.201 105.608Z" fill="#2FAD74"/>
<path d="M17.3142 61.1727C17.4019 59.3752 17.7394 57.6176 18.3265 55.9001C18.9137 54.1826 19.8135 52.6254 21.0258 51.2287C22.2359 49.8126 23.7857 48.6225 25.6753 47.6584C27.5819 46.6727 29.8707 46.026 32.5416 45.7183C34.9416 45.4418 37.0288 45.5156 38.8032 45.9397C40.5947 46.3422 42.0903 46.985 43.2899 47.8682C44.4873 48.7319 45.4111 49.7745 46.0612 50.996C46.7114 52.2174 47.1121 53.4872 47.2635 54.8054C47.4082 56.0655 47.3721 57.2874 47.155 58.4713C46.9358 59.6357 46.5301 60.7137 45.938 61.705C45.3459 62.6964 44.5554 63.583 43.5666 64.3647C42.5972 65.1442 41.4152 65.7812 40.0209 66.2758L40.0342 66.3921C41.0011 66.6146 41.8801 66.9258 42.6712 67.3257C43.4601 67.7062 44.1462 68.2164 44.7296 68.8563C45.3301 69.4746 45.8192 70.2334 46.197 71.1326C46.5749 72.0319 46.835 73.1019 46.9775 74.3425C47.1022 75.4281 47.0958 76.568 46.9584 77.7623C46.821 78.9567 46.5255 80.1398 46.0717 81.3116C45.6374 82.4812 45.0232 83.6224 44.2293 84.7353C43.4526 85.8265 42.4689 86.8237 41.2784 87.7269C40.1071 88.6278 38.7138 89.3874 37.0983 90.0057C35.485 90.6433 33.6429 91.0814 31.572 91.32C29.0366 91.6121 26.773 91.539 24.7812 91.1006C22.811 90.6794 21.1204 89.9609 19.7095 88.9449C18.2963 87.9096 17.1779 86.6243 16.3545 85.0889C15.5288 83.5341 15.0046 81.7875 14.782 79.849L14.6885 79.0348L22.8754 78.0916C23.1473 79.4352 23.5195 80.5413 23.9919 81.41C24.462 82.2594 25.0379 82.9198 25.7196 83.3912C26.3991 83.8433 27.1973 84.1343 28.1143 84.2644C29.0484 84.3728 30.1058 84.359 31.2864 84.223C32.6219 84.0691 33.7468 83.7038 34.6611 83.1271C35.5753 82.5504 36.301 81.8677 36.8379 81.0791C37.392 80.2689 37.7619 79.3915 37.9476 78.4469C38.1526 77.5002 38.2051 76.5906 38.1049 75.7183C37.978 74.6133 37.6992 73.7223 37.2684 73.0452C36.8377 72.3681 36.3086 71.8594 35.6812 71.5192C35.071 71.1574 34.3784 70.9327 33.6035 70.8452C32.848 70.7555 32.0735 70.7563 31.28 70.8478L28.8413 71.1287L29.1585 64.6694C29.5887 64.6591 30.0287 64.6477 30.4783 64.6352C30.945 64.6011 31.3913 64.5595 31.8171 64.5104C32.9396 64.3811 33.9573 64.1067 34.87 63.6873C35.7827 63.2679 36.5541 62.7272 37.1841 62.0654C37.814 61.4036 38.2736 60.6239 38.5627 59.7263C38.8496 58.8094 38.9296 57.7985 38.8027 56.6935C38.6068 54.9876 37.9611 53.805 36.8657 53.1455C35.7895 52.4838 34.3805 52.2533 32.6386 52.454C31.4387 52.5923 30.4061 52.9076 29.541 53.4001C28.693 53.871 27.9864 54.4631 27.4211 55.1764C26.8559 55.8897 26.4083 56.6876 26.0782 57.5703C25.7459 58.4335 25.5051 59.3255 25.356 60.2462L17.3142 61.1727Z" stroke="black" stroke-width="4" mask="url(#path-3-outside-1)"/>
<path d="M73.0572 51.1856L72.9411 51.199L66.1569 70.2473L76.8695 69.0131L73.0572 51.1856ZM68.2289 42.6969L78.6512 41.4961L88.96 83.6182L80.1634 84.6317L78.4145 76.3185L63.3761 78.0511L60.2478 86.9262L50.7835 88.0165L68.2289 42.6969Z" stroke="black" stroke-width="4" mask="url(#path-3-outside-1)"/>
<path d="M102.257 46.2305L90.9635 47.5316L91.4831 40.0178L121.734 36.5326L121.214 44.0464L111.169 45.2037L108.818 81.3305L99.9049 82.3573L102.257 46.2305Z" stroke="black" stroke-width="4" mask="url(#path-3-outside-1)"/>
<path d="M125.653 61.183C125.42 59.1476 125.388 57.079 125.558 54.9774C125.727 52.8564 126.117 50.7883 126.729 48.7733C127.34 46.7583 128.17 44.8459 129.217 43.0361C130.284 41.224 131.588 39.6007 133.129 38.166C134.67 36.7314 136.465 35.5425 138.514 34.5993C140.561 33.6368 142.871 33.0073 145.445 32.7107C147.807 32.4387 149.939 32.4778 151.842 32.8281C153.765 33.1763 155.468 33.7461 156.951 34.5376C158.434 35.3292 159.723 36.31 160.819 37.4802C161.931 38.6287 162.869 39.876 163.631 41.222C164.391 42.5486 164.982 43.9341 165.403 45.3783C165.843 46.8204 166.142 48.2296 166.3 49.6059C166.534 51.6414 166.566 53.7196 166.398 55.8406C166.228 57.9423 165.837 60.0006 165.225 62.0156C164.613 64.0307 163.774 65.9442 162.707 67.7562C161.66 69.5661 160.366 71.1883 158.824 72.6229C157.283 74.0576 155.488 75.2465 153.439 76.1896C151.392 77.1522 149.082 77.7817 146.508 78.0783C144.127 78.3525 141.985 78.3145 140.082 77.9642C138.179 77.6138 136.476 77.044 134.973 76.2547C133.49 75.4631 132.192 74.4931 131.08 73.3445C129.985 72.1744 129.056 70.9163 128.293 69.5703C127.55 68.2221 126.96 66.8366 126.522 65.414C126.101 63.9697 125.811 62.5594 125.653 61.183ZM134.613 60.5633C134.838 62.5212 135.303 64.1862 136.01 65.5582C136.715 66.9109 137.584 67.9893 138.617 68.7934C139.651 69.5974 140.793 70.1533 142.044 70.4609C143.313 70.7469 144.615 70.8129 145.95 70.6591C147.769 70.4495 149.33 69.9554 150.633 69.1767C151.936 68.3981 153.032 67.4371 153.92 66.2937C154.809 65.1504 155.506 63.8817 156.013 62.4877C156.539 61.0914 156.916 59.6732 157.142 58.2328C157.388 56.7903 157.511 55.3816 157.51 54.0068C157.526 52.6104 157.47 51.35 157.341 50.2257C157.113 48.2484 156.648 46.5834 155.943 45.2307C155.239 43.878 154.37 42.7997 153.336 41.9956C152.302 41.1915 151.152 40.6465 149.883 40.3605C148.632 40.0529 147.339 39.976 146.003 40.1299C144.184 40.3395 142.623 40.8336 141.32 41.6122C140.017 42.3909 138.921 43.3519 138.033 44.4952C137.142 45.6192 136.435 46.889 135.911 48.3046C135.405 49.6986 135.028 51.1169 134.782 52.5595C134.555 53.9998 134.434 55.4182 134.418 56.8146C134.419 58.1894 134.484 59.4389 134.613 60.5633Z" stroke="black" stroke-width="4" mask="url(#path-3-outside-1)"/>
<path d="M174.542 30.4485L209.148 26.4617L206.335 70.0956L197.393 71.1257L199.774 34.9956L182.994 36.9289L180.642 73.0556L171.729 74.0825L174.542 30.4485Z" stroke="black" stroke-width="4" mask="url(#path-3-outside-1)"/>
<path d="M217.625 25.485L226.538 24.4582L224.53 53.5921L224.646 53.5787L242.592 22.6085L252.115 21.5115L249.243 65.1521L240.301 66.1822L243.412 35.8901L243.296 35.9035L223.841 68.0787L214.696 69.1323L217.625 25.485Z" stroke="black" stroke-width="4" mask="url(#path-3-outside-1)"/>
<path d="M286.578 24.995L274.269 26.4131L271.82 49.1456C271.571 51.4135 271.21 53.4782 270.737 55.3396C270.282 57.1795 269.622 58.7777 268.758 60.1343C267.911 61.4693 266.819 62.5477 265.482 63.3696C264.164 64.1892 262.528 64.7117 260.573 64.9369C259.586 65.0506 258.666 65.0682 257.814 64.9896C256.964 64.9304 256.042 64.7616 255.05 64.4831L255.416 56.6628C256.041 56.8069 256.639 56.8951 257.212 56.9274C257.801 56.938 258.231 56.9277 258.502 56.8965C258.928 56.8475 259.323 56.7823 259.686 56.7012C260.047 56.6007 260.379 56.4152 260.681 56.1446C260.983 55.8741 261.253 55.4895 261.49 54.9908C261.744 54.4705 261.986 53.7649 262.217 52.8741C262.446 51.9638 262.66 50.8392 262.86 49.5003C263.076 48.1398 263.299 46.4937 263.528 44.562L266.311 19.8759L295.981 16.4576L293.139 60.0949L284.226 61.1217L286.578 24.995Z" stroke="black" stroke-width="4" mask="url(#path-3-outside-1)"/>
<path d="M301.701 40.9007C301.467 38.8652 301.435 36.7967 301.606 34.6951C301.774 32.574 302.164 30.506 302.776 28.491C303.388 26.476 304.217 24.5636 305.264 22.7537C306.331 20.9417 307.635 19.3183 309.176 17.8837C310.718 16.449 312.513 15.2601 314.562 14.317C316.608 13.3545 318.919 12.7249 321.493 12.4284C323.854 12.1563 325.986 12.1955 327.889 12.5458C329.812 12.8939 331.515 13.4637 332.998 14.2553C334.481 15.0469 335.771 16.0277 336.866 17.1979C337.978 18.3464 338.916 19.5937 339.678 20.9397C340.439 22.2663 341.029 23.6517 341.45 25.096C341.89 26.5381 342.189 27.9473 342.347 29.3236C342.581 31.359 342.614 33.4373 342.446 35.5583C342.275 37.66 341.884 39.7183 341.272 41.7333C340.66 43.7483 339.821 45.6618 338.755 47.4739C337.707 49.2837 336.413 50.906 334.872 52.3406C333.33 53.7753 331.535 54.9641 329.486 55.9073C327.44 56.8698 325.129 57.4994 322.555 57.7959C320.175 58.0702 318.033 58.0322 316.13 57.6818C314.226 57.3315 312.523 56.7617 311.021 55.9723C309.538 55.1808 308.24 54.2107 307.127 53.0622C306.032 51.892 305.103 50.634 304.341 49.288C303.598 47.9397 303.007 46.5543 302.569 45.1316C302.148 43.6873 301.859 42.277 301.701 40.9007ZM310.66 40.2809C310.885 42.2388 311.351 43.9038 312.057 45.2759C312.762 46.6286 313.631 47.7069 314.665 48.511C315.698 49.3151 316.841 49.8709 318.092 50.1785C319.36 50.4645 320.662 50.5306 321.997 50.3767C323.817 50.1671 325.378 49.673 326.681 48.8944C327.984 48.1157 329.079 47.1547 329.968 46.0114C330.856 44.868 331.554 43.5993 332.06 42.2053C332.587 40.8091 332.963 39.3908 333.19 37.9505C333.436 36.5079 333.558 35.0993 333.557 33.7245C333.574 32.3281 333.517 31.0677 333.388 29.9433C333.161 27.9661 332.695 26.3011 331.991 24.9484C331.286 23.5957 330.417 22.5173 329.384 21.7133C328.35 20.9092 327.199 20.3642 325.931 20.0782C324.679 19.7706 323.386 19.6937 322.051 19.8475C320.231 20.0571 318.67 20.5513 317.367 21.3299C316.064 22.1085 314.969 23.0695 314.08 24.2129C313.19 25.3369 312.482 26.6067 311.959 28.0223C311.452 29.4163 311.076 30.8346 310.829 32.2771C310.603 33.7175 310.481 35.1358 310.465 36.5322C310.466 37.907 310.531 39.1566 310.66 40.2809Z" stroke="black" stroke-width="4" mask="url(#path-3-outside-1)"/>
<path d="M26.5175 112.367L43.2107 110.444C45.9203 110.132 48.2427 110.119 50.178 110.407C52.1133 110.695 53.7268 111.255 55.0188 112.088C56.3085 112.902 57.2937 113.967 57.9743 115.283C58.6549 116.6 59.0954 118.13 59.2958 119.875C59.4227 120.98 59.3989 122.053 59.2243 123.094C59.0669 124.114 58.7468 125.084 58.2642 126.004C57.7986 126.902 57.1585 127.732 56.3439 128.494C55.5464 129.234 54.5711 129.876 53.4179 130.422C54.2626 130.776 55.0344 131.178 55.7332 131.628C56.4298 132.059 57.0396 132.587 57.5627 133.215C58.0835 133.822 58.5079 134.53 58.8359 135.337C59.1832 136.141 59.417 137.067 59.5372 138.114C59.7843 140.265 59.6564 142.225 59.1533 143.991C58.648 145.739 57.7847 147.272 56.5635 148.591C55.3423 149.91 53.7802 150.994 51.8773 151.842C49.9722 152.67 47.7325 153.233 45.1584 153.529L23.7041 156.001L26.5175 112.367ZM33.075 147.438L44.0199 146.177C45.3747 146.021 46.4932 145.686 47.3755 145.171C48.2577 144.657 48.9536 144.057 49.4629 143.369C49.9723 142.682 50.3105 141.956 50.4775 141.19C50.6446 140.425 50.6891 139.703 50.6112 139.024C50.5065 138.113 50.2627 137.355 49.8795 136.751C49.4942 136.128 48.9964 135.635 48.3861 135.274C47.7952 134.91 47.1015 134.675 46.3051 134.57C45.5086 134.466 44.6459 134.467 43.7169 134.574L33.8462 135.711L33.075 147.438ZM34.2864 128.531L44.5636 127.347C46.6732 127.104 48.2273 126.463 49.2259 125.425C50.2222 124.367 50.6191 122.956 50.4165 121.192C50.3252 120.397 50.1044 119.755 49.7539 119.265C49.4229 118.773 48.9879 118.401 48.4491 118.149C47.9296 117.894 47.3245 117.748 46.6337 117.71C45.9407 117.652 45.2071 117.668 44.433 117.757L34.9106 118.854L34.2864 128.531Z" stroke="black" stroke-width="4" mask="url(#path-3-outside-1)"/>
<path d="M69.4843 107.417L97.8481 104.149L97.3865 111.656L77.7612 113.917L77.1951 123.587L95.1946 121.513L94.7364 129.05L76.7949 131.117L76.0997 142.481L96.6831 140.11L96.2249 147.646L66.6708 151.051L69.4843 107.417Z" stroke="black" stroke-width="4" mask="url(#path-3-outside-1)"/>
<path d="M131.748 114.768C131.604 113.508 131.271 112.407 130.751 111.466C130.229 110.504 129.571 109.726 128.777 109.13C128 108.512 127.108 108.085 126.1 107.847C125.109 107.588 124.062 107.522 122.959 107.649C121.14 107.859 119.579 108.353 118.276 109.132C116.973 109.91 115.877 110.871 114.989 112.015C114.098 113.139 113.391 114.408 112.867 115.824C112.361 117.218 111.984 118.636 111.738 120.079C111.511 121.519 111.39 122.938 111.374 124.334C111.375 125.709 111.44 126.958 111.569 128.083C111.74 129.575 112.076 130.961 112.576 132.239C113.095 133.515 113.808 134.601 114.715 135.498C115.641 136.393 116.777 137.058 118.121 137.492C119.484 137.925 121.085 138.035 122.924 137.823C124.027 137.696 125.076 137.437 126.071 137.048C127.083 136.637 127.988 136.071 128.788 135.35C129.585 134.61 130.255 133.698 130.798 132.614C131.34 131.53 131.702 130.241 131.883 128.747L140.941 127.704C140.621 130.216 140.012 132.505 139.112 134.573C138.231 136.639 137.056 138.444 135.586 139.988C134.133 141.511 132.393 142.752 130.366 143.712C128.339 144.673 126.038 145.301 123.464 145.598C121.103 145.87 118.961 145.832 117.038 145.484C115.135 145.133 113.442 144.562 111.959 143.771C110.475 142.979 109.177 142.009 108.065 140.861C106.97 139.69 106.041 138.432 105.278 137.086C104.516 135.74 103.916 134.356 103.478 132.933C103.057 131.489 102.767 130.079 102.609 128.702C102.376 126.667 102.344 124.598 102.514 122.497C102.683 120.376 103.073 118.308 103.685 116.293C104.296 114.278 105.126 112.365 106.173 110.555C107.24 108.743 108.544 107.12 110.085 105.685C111.626 104.251 113.421 103.062 115.47 102.119C117.517 101.156 119.827 100.527 122.401 100.23C124.821 99.9514 127.075 100.026 129.163 100.453C131.271 100.878 133.125 101.656 134.726 102.788C136.327 103.919 137.644 105.398 138.677 107.223C139.71 109.049 140.372 111.221 140.661 113.741L131.748 114.768Z" stroke="black" stroke-width="4" mask="url(#path-3-outside-1)"/>
<path d="M148.334 98.3325L157.247 97.3057L156.132 114.493L164.174 113.566C166.69 113.277 168.89 113.308 170.774 113.66C172.655 113.994 174.236 114.607 175.515 115.501C176.792 116.375 177.784 117.498 178.49 118.87C179.214 120.221 179.676 121.768 179.877 123.513C179.95 124.152 179.984 124.964 179.98 125.946C179.973 126.91 179.846 127.945 179.601 129.054C179.354 130.143 178.943 131.261 178.368 132.407C177.811 133.532 177.001 134.588 175.938 135.575C174.872 136.542 173.519 137.395 171.878 138.134C170.254 138.852 168.262 139.346 165.901 139.618L145.491 141.97L148.334 98.3325ZM154.891 133.403L163.136 132.453C164.491 132.297 165.687 132.042 166.725 131.686C167.761 131.312 168.616 130.82 169.292 130.212C169.984 129.583 170.475 128.819 170.764 127.921C171.053 127.024 171.128 125.964 170.987 124.743C170.883 123.832 170.641 123.094 170.262 122.529C169.901 121.942 169.428 121.495 168.844 121.189C168.279 120.881 167.61 120.693 166.837 120.625C166.065 120.557 165.224 120.575 164.314 120.68L155.634 121.68L154.891 133.403Z" stroke="black" stroke-width="4" mask="url(#path-3-outside-1)"/>
<path d="M199.774 128.232L202.764 127.888C203.654 126.587 204.455 125.022 205.167 123.192C205.895 121.34 206.549 119.35 207.128 117.221C207.705 115.072 208.213 112.833 208.651 110.504C209.107 108.154 209.498 105.84 209.825 103.563C210.169 101.265 210.454 99.052 210.681 96.9242C210.905 94.7771 211.093 92.8305 211.245 91.0845L239.058 87.8803L236.702 123.978L240.331 123.56L239.328 140.44L231.345 141.359L231.86 132.019L207.3 134.849L206.813 144.186L198.771 145.112L199.774 128.232ZM229.683 96.4143L218.68 97.6819C218.458 100.359 218.201 102.903 217.91 105.313C217.618 107.723 217.243 110.094 216.785 112.425C216.327 114.756 215.752 117.091 215.06 119.43C214.387 121.766 213.559 124.209 212.577 126.757L227.848 124.998L229.683 96.4143Z" stroke="black" stroke-width="4" mask="url(#path-3-outside-1)"/>
<path d="M245.358 112.256C245.124 110.221 245.092 108.152 245.263 106.051C245.431 103.93 245.821 101.862 246.433 99.8468C247.045 97.8318 247.874 95.9193 248.921 94.1095C249.988 92.2974 251.292 90.6741 252.833 89.2394C254.375 87.8048 256.17 86.6159 258.218 85.6728C260.265 84.7102 262.575 84.0807 265.15 83.7841C267.511 83.5121 269.643 83.5512 271.546 83.9016C273.469 84.2497 275.172 84.8195 276.655 85.6111C278.138 86.4026 279.427 87.3835 280.523 88.5536C281.635 89.7022 282.573 90.9494 283.335 92.2954C284.095 93.622 284.686 95.0075 285.107 96.4518C285.547 97.8938 285.846 99.303 286.004 100.679C286.238 102.715 286.271 104.793 286.102 106.914C285.932 109.016 285.541 111.074 284.929 113.089C284.317 115.104 283.478 117.018 282.411 118.83C281.364 120.64 280.07 122.262 278.529 123.696C276.987 125.131 275.192 126.32 273.143 127.263C271.097 128.226 268.786 128.855 266.212 129.152C263.832 129.426 261.69 129.388 259.786 129.038C257.883 128.687 256.18 128.117 254.678 127.328C253.194 126.537 251.897 125.567 250.784 124.418C249.689 123.248 248.76 121.99 247.997 120.644C247.254 119.296 246.664 117.91 246.226 116.487C245.805 115.043 245.516 113.633 245.358 112.256ZM254.317 111.637C254.542 113.595 255.008 115.26 255.714 116.632C256.419 117.984 257.288 119.063 258.321 119.867C259.355 120.671 260.497 121.227 261.749 121.534C263.017 121.82 264.319 121.886 265.654 121.733C267.474 121.523 269.035 121.029 270.338 120.25C271.641 119.472 272.736 118.511 273.625 117.367C274.513 116.224 275.211 114.955 275.717 113.561C276.243 112.165 276.62 110.747 276.846 109.306C277.093 107.864 277.215 106.455 277.214 105.08C277.23 103.684 277.174 102.423 277.045 101.299C276.818 99.3218 276.352 97.6569 275.647 96.3042C274.943 94.9515 274.074 93.8731 273.04 93.069C272.007 92.265 270.856 91.7199 269.587 91.4339C268.336 91.1263 267.043 91.0495 265.707 91.2033C263.888 91.4129 262.327 91.907 261.024 92.6857C259.721 93.4643 258.625 94.4253 257.737 95.5687C256.846 96.6927 256.139 97.9625 255.615 99.3781C255.109 100.772 254.732 102.19 254.486 103.633C254.259 105.073 254.138 106.492 254.122 107.888C254.123 109.263 254.188 110.512 254.317 111.637Z" stroke="black" stroke-width="4" mask="url(#path-3-outside-1)"/>
<path d="M294.014 81.5487L307.02 80.0503L312.457 111.509L312.573 111.495L322.001 78.3244L335.442 76.7758L332.629 120.41L324.297 121.37L327.183 84.0029L327.067 84.0163L315.994 122.326L308.068 123.239L301.432 86.9697L301.316 86.983L299.736 124.199L291.433 125.156L294.014 81.5487Z" stroke="black" stroke-width="4" mask="url(#path-3-outside-1)"/>
<path d="M350.745 75.0423L359.832 73.9953L358.759 85.138L354.466 105.903L350.14 106.401L349.672 86.1849L350.745 75.0423ZM347.602 110.17L356.254 109.173L355.448 117.781L346.796 118.778L347.602 110.17Z" stroke="black" stroke-width="4" mask="url(#path-3-outside-1)"/>
<path d="M370.545 72.7612L379.632 71.7142L378.558 82.8569L374.266 103.622L369.94 104.12L369.471 83.9038L370.545 72.7612ZM367.402 107.889L376.053 106.892L375.247 115.5L366.596 116.496L367.402 107.889Z" stroke="black" stroke-width="4" mask="url(#path-3-outside-1)"/>
<path d="M390.344 70.48L399.431 69.4332L398.358 80.5758L394.065 101.341L389.739 101.839L389.271 81.6227L390.344 70.48ZM387.201 105.608L395.853 104.611L395.047 113.219L386.395 114.215L387.201 105.608Z" stroke="black" stroke-width="4" mask="url(#path-3-outside-1)"/>
</svg>
