<svg width="390" height="149" viewBox="0 0 390 149" fill="none" xmlns="http://www.w3.org/2000/svg">
<mask id="path-1-outside-1" maskUnits="userSpaceOnUse" x="-0.311523" y="0.25" width="390" height="149" fill="black">
<rect fill="white" x="-0.311523" y="0.25" width="390" height="149"/>
<path d="M5.31421 51.1727C5.40193 49.3752 5.73938 47.6176 6.32655 45.9001C6.91372 44.1826 7.81346 42.6254 9.02579 41.2287C10.2359 39.8126 11.7857 38.6225 13.6753 37.6584C15.5819 36.6727 17.8707 36.026 20.5416 35.7183C22.9416 35.4418 25.0288 35.5156 26.8032 35.9397C28.5947 36.3422 30.0903 36.985 31.2899 37.8682C32.4873 38.7319 33.4111 39.7745 34.0612 40.996C34.7114 42.2174 35.1121 43.4872 35.2635 44.8054C35.4082 46.0655 35.3721 47.2874 35.155 48.4713C34.9358 49.6357 34.5301 50.7137 33.938 51.705C33.3459 52.6964 32.5554 53.583 31.5666 54.3647C30.5972 55.1442 29.4152 55.7812 28.0209 56.2758L28.0342 56.3921C29.0011 56.6146 29.8801 56.9258 30.6712 57.3257C31.4601 57.7062 32.1462 58.2164 32.7296 58.8563C33.3301 59.4746 33.8192 60.2334 34.197 61.1326C34.5749 62.0319 34.835 63.1019 34.9775 64.3425C35.1022 65.4281 35.0958 66.568 34.9584 67.7623C34.821 68.9567 34.5255 70.1398 34.0717 71.3116C33.6374 72.4812 33.0232 73.6224 32.2293 74.7353C31.4526 75.8265 30.4689 76.8237 29.2784 77.7269C28.1071 78.6278 26.7138 79.3874 25.0983 80.0057C23.485 80.6433 21.6429 81.0814 19.572 81.32C17.0366 81.6121 14.773 81.539 12.7812 81.1006C10.811 80.6794 9.12044 79.9609 7.70947 78.9449C6.29628 77.9096 5.17795 76.6243 4.35447 75.0889C3.52877 73.5341 3.00461 71.7875 2.78198 69.849L2.68848 69.0348L10.8754 68.0916C11.1473 69.4352 11.5195 70.5413 11.9919 71.41C12.462 72.2594 13.0379 72.9198 13.7196 73.3912C14.3991 73.8433 15.1973 74.1343 16.1143 74.2644C17.0484 74.3728 18.1058 74.359 19.2864 74.223C20.6219 74.0691 21.7468 73.7038 22.6611 73.1271C23.5753 72.5504 24.301 71.8677 24.8379 71.0791C25.392 70.2689 25.7619 69.3915 25.9476 68.4469C26.1526 67.5002 26.2051 66.5906 26.1049 65.7183C25.978 64.6133 25.6992 63.7223 25.2684 63.0452C24.8377 62.3681 24.3086 61.8594 23.6812 61.5192C23.071 61.1574 22.3784 60.9327 21.6035 60.8452C20.848 60.7555 20.0735 60.7563 19.28 60.8478L16.8413 61.1287L17.1585 54.6694C17.5887 54.6591 18.0287 54.6477 18.4783 54.6352C18.945 54.6011 19.3913 54.5595 19.8171 54.5104C20.9396 54.3811 21.9573 54.1067 22.87 53.6873C23.7827 53.2679 24.5541 52.7272 25.1841 52.0654C25.814 51.4036 26.2736 50.6239 26.5627 49.7263C26.8496 48.8094 26.9296 47.7985 26.8027 46.6935C26.6068 44.9876 25.9611 43.805 24.8657 43.1455C23.7895 42.4838 22.3805 42.2533 20.6386 42.454C19.4387 42.5923 18.4061 42.9076 17.541 43.4001C16.693 43.871 15.9864 44.4631 15.4211 45.1764C14.8559 45.8897 14.4083 46.6876 14.0782 47.5703C13.7459 48.4335 13.5051 49.3255 13.356 50.2462L5.31421 51.1727Z"/>
<path d="M61.0572 41.1856L60.9411 41.199L54.1569 60.2473L64.8695 59.0131L61.0572 41.1856ZM56.2289 32.6969L66.6512 31.4961L76.96 73.6182L68.1634 74.6317L66.4145 66.3185L51.3761 68.0511L48.2478 76.9262L38.7835 78.0165L56.2289 32.6969Z"/>
<path d="M90.2568 36.2305L78.9635 37.5316L79.4831 30.0178L109.734 26.5326L109.214 34.0464L99.1695 35.2037L96.8176 71.3305L87.9049 72.3573L90.2568 36.2305Z"/>
<path d="M113.653 51.183C113.42 49.1476 113.388 47.079 113.558 44.9774C113.727 42.8564 114.117 40.7883 114.729 38.7733C115.34 36.7583 116.17 34.8459 117.217 33.0361C118.284 31.224 119.588 29.6007 121.129 28.166C122.67 26.7314 124.465 25.5425 126.514 24.5993C128.561 23.6368 130.871 23.0073 133.445 22.7107C135.807 22.4387 137.939 22.4778 139.842 22.8281C141.765 23.1763 143.468 23.7461 144.951 24.5376C146.434 25.3292 147.723 26.31 148.819 27.4802C149.931 28.6287 150.869 29.876 151.631 31.222C152.391 32.5486 152.982 33.9341 153.403 35.3783C153.843 36.8204 154.142 38.2296 154.3 39.6059C154.534 41.6414 154.566 43.7196 154.398 45.8406C154.228 47.9423 153.837 50.0006 153.225 52.0156C152.613 54.0307 151.774 55.9442 150.707 57.7562C149.66 59.5661 148.366 61.1883 146.824 62.6229C145.283 64.0576 143.488 65.2465 141.439 66.1896C139.392 67.1522 137.082 67.7817 134.508 68.0783C132.127 68.3525 129.985 68.3145 128.082 67.9642C126.179 67.6138 124.476 67.044 122.973 66.2547C121.49 65.4631 120.192 64.4931 119.08 63.3445C117.985 62.1744 117.056 60.9163 116.293 59.5703C115.55 58.2221 114.96 56.8366 114.522 55.414C114.101 53.9697 113.811 52.5594 113.653 51.183ZM122.613 50.5633C122.838 52.5212 123.303 54.1862 124.01 55.5582C124.715 56.9109 125.584 57.9893 126.617 58.7934C127.651 59.5974 128.793 60.1533 130.044 60.4609C131.313 60.7469 132.615 60.8129 133.95 60.6591C135.769 60.4495 137.33 59.9554 138.633 59.1767C139.936 58.3981 141.032 57.4371 141.92 56.2937C142.809 55.1504 143.506 53.8817 144.013 52.4877C144.539 51.0914 144.916 49.6732 145.142 48.2328C145.388 46.7903 145.511 45.3816 145.51 44.0068C145.526 42.6104 145.47 41.35 145.341 40.2257C145.113 38.2484 144.648 36.5834 143.943 35.2307C143.239 33.878 142.37 32.7997 141.336 31.9956C140.302 31.1915 139.152 30.6465 137.883 30.3605C136.632 30.0529 135.339 29.976 134.003 30.1299C132.184 30.3395 130.623 30.8336 129.32 31.6122C128.017 32.3909 126.921 33.3519 126.033 34.4952C125.142 35.6192 124.435 36.889 123.911 38.3046C123.405 39.6986 123.028 41.1169 122.782 42.5595C122.555 43.9998 122.434 45.4182 122.418 46.8146C122.419 48.1894 122.484 49.4389 122.613 50.5633Z"/>
<path d="M162.542 20.4485L197.148 16.4617L194.335 60.0956L185.393 61.1257L187.774 24.9956L170.994 26.9289L168.642 63.0556L159.729 64.0825L162.542 20.4485Z"/>
<path d="M205.625 15.485L214.538 14.4582L212.53 43.5921L212.646 43.5787L230.592 12.6085L240.115 11.5115L237.243 55.1521L228.301 56.1822L231.412 25.8901L231.296 25.9035L211.841 58.0787L202.696 59.1323L205.625 15.485Z"/>
<path d="M274.578 14.995L262.269 16.4131L259.82 39.1456C259.571 41.4135 259.21 43.4782 258.737 45.3396C258.282 47.1795 257.622 48.7777 256.758 50.1343C255.911 51.4693 254.819 52.5477 253.482 53.3696C252.164 54.1892 250.528 54.7117 248.573 54.9369C247.586 55.0506 246.666 55.0682 245.814 54.9896C244.964 54.9304 244.042 54.7616 243.05 54.4831L243.416 46.6628C244.041 46.8069 244.639 46.8951 245.212 46.9274C245.801 46.938 246.231 46.9277 246.502 46.8965C246.928 46.8475 247.323 46.7823 247.686 46.7012C248.047 46.6007 248.379 46.4152 248.681 46.1446C248.983 45.8741 249.253 45.4895 249.49 44.9908C249.744 44.4705 249.986 43.7649 250.217 42.8741C250.446 41.9638 250.66 40.8392 250.86 39.5003C251.076 38.1398 251.299 36.4937 251.528 34.562L254.311 9.87591L283.981 6.45761L281.139 50.0949L272.226 51.1217L274.578 14.995Z"/>
<path d="M289.701 30.9007C289.467 28.8652 289.435 26.7967 289.606 24.6951C289.774 22.574 290.164 20.506 290.776 18.491C291.388 16.476 292.217 14.5636 293.264 12.7537C294.331 10.9417 295.635 9.31832 297.176 7.88368C298.718 6.44903 300.513 5.26014 302.562 4.31699C304.608 3.35447 306.919 2.72492 309.493 2.42836C311.854 2.15632 313.986 2.19547 315.889 2.54581C317.812 2.89391 319.515 3.46375 320.998 4.2553C322.481 5.04686 323.771 6.02771 324.866 7.19787C325.978 8.34641 326.916 9.59368 327.678 10.9397C328.439 12.2663 329.029 13.6517 329.45 15.096C329.89 16.5381 330.189 17.9473 330.347 19.3236C330.581 21.359 330.614 23.4373 330.446 25.5583C330.275 27.66 329.884 29.7183 329.272 31.7333C328.66 33.7483 327.821 35.6618 326.755 37.4739C325.707 39.2837 324.413 40.906 322.872 42.3406C321.33 43.7753 319.535 44.9641 317.486 45.9073C315.44 46.8698 313.129 47.4994 310.555 47.7959C308.175 48.0702 306.033 48.0322 304.13 47.6818C302.226 47.3315 300.523 46.7617 299.021 45.9723C297.538 45.1808 296.24 44.2107 295.127 43.0622C294.032 41.892 293.103 40.634 292.341 39.288C291.598 37.9397 291.007 36.5543 290.569 35.1316C290.148 33.6873 289.859 32.277 289.701 30.9007ZM298.66 30.2809C298.885 32.2388 299.351 33.9038 300.057 35.2759C300.762 36.6286 301.631 37.7069 302.665 38.511C303.698 39.3151 304.841 39.8709 306.092 40.1785C307.36 40.4645 308.662 40.5306 309.997 40.3767C311.817 40.1671 313.378 39.673 314.681 38.8944C315.984 38.1157 317.079 37.1547 317.968 36.0114C318.856 34.868 319.554 33.5993 320.06 32.2053C320.587 30.8091 320.963 29.3908 321.19 27.9505C321.436 26.5079 321.558 25.0993 321.557 23.7245C321.574 22.3281 321.517 21.0677 321.388 19.9433C321.161 17.9661 320.695 16.3011 319.991 14.9484C319.286 13.5957 318.417 12.5173 317.384 11.7133C316.35 10.9092 315.199 10.3642 313.931 10.0782C312.679 9.77056 311.386 9.69369 310.051 9.84754C308.231 10.0571 306.67 10.5513 305.367 11.3299C304.064 12.1085 302.969 13.0695 302.08 14.2129C301.19 15.3369 300.482 16.6067 299.959 18.0223C299.452 19.4163 299.076 20.8346 298.829 22.2771C298.603 23.7175 298.481 25.1358 298.465 26.5322C298.466 27.907 298.531 29.1566 298.66 30.2809Z"/>
<path d="M14.5175 102.367L31.2107 100.444C33.9203 100.132 36.2427 100.119 38.178 100.407C40.1133 100.695 41.7268 101.255 43.0188 102.088C44.3085 102.902 45.2937 103.967 45.9743 105.283C46.6549 106.6 47.0954 108.13 47.2958 109.875C47.4227 110.98 47.3989 112.053 47.2243 113.094C47.0669 114.114 46.7468 115.084 46.2642 116.004C45.7986 116.902 45.1585 117.732 44.3439 118.494C43.5464 119.234 42.5711 119.876 41.4179 120.422C42.2626 120.776 43.0344 121.178 43.7332 121.628C44.4298 122.059 45.0396 122.587 45.5627 123.215C46.0835 123.822 46.5079 124.53 46.8359 125.337C47.1832 126.141 47.417 127.067 47.5372 128.114C47.7843 130.265 47.6564 132.225 47.1533 133.991C46.648 135.739 45.7847 137.272 44.5635 138.591C43.3423 139.91 41.7802 140.994 39.8773 141.842C37.9722 142.67 35.7325 143.233 33.1584 143.529L11.7041 146.001L14.5175 102.367ZM21.075 137.438L32.0199 136.177C33.3747 136.021 34.4932 135.686 35.3755 135.171C36.2577 134.657 36.9536 134.057 37.4629 133.369C37.9723 132.682 38.3105 131.956 38.4775 131.19C38.6446 130.425 38.6891 129.703 38.6112 129.024C38.5065 128.113 38.2627 127.355 37.8795 126.751C37.4942 126.128 36.9964 125.635 36.3861 125.274C35.7952 124.91 35.1015 124.675 34.3051 124.57C33.5086 124.466 32.6459 124.467 31.7169 124.574L21.8462 125.711L21.075 137.438ZM22.2864 118.531L32.5636 117.347C34.6732 117.104 36.2273 116.463 37.2259 115.425C38.2222 114.367 38.6191 112.956 38.4165 111.192C38.3252 110.397 38.1044 109.755 37.7539 109.265C37.4229 108.773 36.9879 108.401 36.4491 108.149C35.9296 107.894 35.3245 107.748 34.6337 107.71C33.9407 107.652 33.2071 107.668 32.433 107.757L22.9106 108.854L22.2864 118.531Z"/>
<path d="M57.4843 97.4168L85.8481 94.149L85.3865 101.656L65.7612 103.917L65.1951 113.587L83.1946 111.513L82.7364 119.05L64.7949 121.117L64.0997 132.481L84.6831 130.11L84.2249 137.646L54.6708 141.051L57.4843 97.4168Z"/>
<path d="M119.748 104.768C119.604 103.508 119.271 102.407 118.751 101.466C118.229 100.504 117.571 99.7257 116.777 99.1298C116 98.5122 115.108 98.0846 114.1 97.8472C113.109 97.5882 112.062 97.5222 110.959 97.6493C109.14 97.8589 107.579 98.353 106.276 99.1316C104.973 99.9103 103.877 100.871 102.989 102.015C102.098 103.139 101.391 104.408 100.867 105.824C100.361 107.218 99.9841 108.636 99.738 110.079C99.5112 111.519 99.3897 112.938 99.3736 114.334C99.3746 115.709 99.4397 116.958 99.5688 118.083C99.7402 119.575 100.076 120.961 100.576 122.239C101.095 123.515 101.808 124.601 102.715 125.498C103.641 126.393 104.777 127.058 106.121 127.492C107.484 127.925 109.085 128.035 110.924 127.823C112.027 127.696 113.076 127.437 114.071 127.048C115.083 126.637 115.988 126.071 116.788 125.35C117.585 124.61 118.255 123.698 118.798 122.614C119.34 121.53 119.702 120.241 119.883 118.747L128.941 117.704C128.621 120.216 128.012 122.505 127.112 124.573C126.231 126.639 125.056 128.444 123.586 129.988C122.133 131.511 120.393 132.752 118.366 133.712C116.339 134.673 114.038 135.301 111.464 135.598C109.103 135.87 106.961 135.832 105.038 135.484C103.135 135.133 101.442 134.562 99.9585 133.771C98.4753 132.979 97.1774 132.009 96.065 130.861C94.9697 129.69 94.0408 128.432 93.2783 127.086C92.5158 125.74 91.9156 124.356 91.4777 122.933C91.0568 121.489 90.7674 120.079 90.6094 118.702C90.3756 116.667 90.3439 114.598 90.5144 112.497C90.6826 110.376 91.0727 108.308 91.6845 106.293C92.2963 104.278 93.1259 102.365 94.1731 100.555C95.2397 98.7434 96.5436 97.12 98.085 95.6854C99.6263 94.2508 101.421 93.0619 103.47 92.1187C105.517 91.1562 107.827 90.5267 110.401 90.2301C112.821 89.9514 115.075 90.0256 117.163 90.4528C119.271 90.8777 121.125 91.656 122.726 92.7876C124.327 93.9192 125.644 95.3977 126.677 97.2232C127.71 99.0486 128.372 101.221 128.661 103.741L119.748 104.768Z"/>
<path d="M136.334 88.3325L145.247 87.3057L144.132 104.493L152.174 103.566C154.69 103.277 156.89 103.308 158.774 103.66C160.655 103.994 162.236 104.607 163.515 105.501C164.792 106.375 165.784 107.498 166.49 108.87C167.214 110.221 167.676 111.768 167.877 113.513C167.95 114.152 167.984 114.964 167.98 115.946C167.973 116.91 167.846 117.945 167.601 119.054C167.354 120.143 166.943 121.261 166.368 122.407C165.811 123.532 165.001 124.588 163.938 125.575C162.872 126.542 161.519 127.395 159.878 128.134C158.254 128.852 156.262 129.346 153.901 129.618L133.491 131.97L136.334 88.3325ZM142.891 123.403L151.136 122.453C152.491 122.297 153.687 122.042 154.725 121.686C155.761 121.312 156.616 120.82 157.292 120.212C157.984 119.583 158.475 118.819 158.764 117.921C159.053 117.024 159.128 115.964 158.987 114.743C158.883 113.832 158.641 113.094 158.262 112.529C157.901 111.942 157.428 111.495 156.844 111.189C156.279 110.881 155.61 110.693 154.837 110.625C154.065 110.557 153.224 110.575 152.314 110.68L143.634 111.68L142.891 123.403Z"/>
<path d="M187.774 118.232L190.764 117.888C191.654 116.587 192.455 115.022 193.167 113.192C193.895 111.34 194.549 109.35 195.128 107.221C195.705 105.072 196.213 102.833 196.651 100.504C197.107 98.1539 197.498 95.8402 197.825 93.5634C198.169 91.265 198.454 89.052 198.681 86.9242C198.905 84.7771 199.093 82.8305 199.245 81.0845L227.058 77.8803L224.702 113.978L228.331 113.56L227.328 130.44L219.345 131.359L219.86 122.019L195.3 124.849L194.813 134.186L186.771 135.112L187.774 118.232ZM217.683 86.4143L206.68 87.6819C206.458 90.3591 206.201 92.9029 205.91 95.3131C205.618 97.7234 205.243 100.094 204.785 102.425C204.327 104.756 203.752 107.091 203.06 109.43C202.387 111.766 201.559 114.209 200.577 116.757L215.848 114.998L217.683 86.4143Z"/>
<path d="M233.358 102.256C233.124 100.221 233.092 98.1525 233.263 96.0508C233.431 93.9298 233.821 91.8618 234.433 89.8468C235.045 87.8318 235.874 85.9193 236.921 84.1095C237.988 82.2974 239.292 80.6741 240.833 79.2394C242.375 77.8048 244.17 76.6159 246.218 75.6728C248.265 74.7102 250.575 74.0807 253.15 73.7841C255.511 73.5121 257.643 73.5512 259.546 73.9016C261.469 74.2497 263.172 74.8195 264.655 75.6111C266.138 76.4026 267.427 77.3835 268.523 78.5536C269.635 79.7022 270.573 80.9494 271.335 82.2954C272.095 83.622 272.686 85.0075 273.107 86.4518C273.547 87.8938 273.846 89.303 274.004 90.6794C274.238 92.7148 274.271 94.7931 274.102 96.9141C273.932 99.0157 273.541 101.074 272.929 103.089C272.317 105.104 271.478 107.018 270.411 108.83C269.364 110.64 268.07 112.262 266.529 113.696C264.987 115.131 263.192 116.32 261.143 117.263C259.097 118.226 256.786 118.855 254.212 119.152C251.832 119.426 249.69 119.388 247.786 119.038C245.883 118.687 244.18 118.117 242.678 117.328C241.194 116.537 239.897 115.567 238.784 114.418C237.689 113.248 236.76 111.99 235.997 110.644C235.254 109.296 234.664 107.91 234.226 106.487C233.805 105.043 233.516 103.633 233.358 102.256ZM242.317 101.637C242.542 103.595 243.008 105.26 243.714 106.632C244.419 107.984 245.288 109.063 246.321 109.867C247.355 110.671 248.497 111.227 249.749 111.534C251.017 111.82 252.319 111.886 253.654 111.733C255.474 111.523 257.035 111.029 258.338 110.25C259.641 109.472 260.736 108.511 261.625 107.367C262.513 106.224 263.211 104.955 263.717 103.561C264.243 102.165 264.62 100.747 264.846 99.3063C265.093 97.8637 265.215 96.455 265.214 95.0803C265.23 93.6838 265.174 92.4235 265.045 91.2991C264.818 89.3218 264.352 87.6569 263.647 86.3042C262.943 84.9515 262.074 83.8731 261.04 83.069C260.007 82.265 258.856 81.7199 257.587 81.4339C256.336 81.1263 255.043 81.0495 253.707 81.2033C251.888 81.4129 250.327 81.907 249.024 82.6857C247.721 83.4643 246.625 84.4253 245.737 85.5687C244.846 86.6927 244.139 87.9625 243.615 89.3781C243.109 90.7721 242.732 92.1904 242.486 93.6329C242.259 95.0732 242.138 96.4916 242.122 97.888C242.123 99.2628 242.188 100.512 242.317 101.637Z"/>
<path d="M282.014 71.5487L295.02 70.0503L300.457 101.509L300.573 101.495L310.001 68.3244L323.442 66.7758L320.629 110.41L312.297 111.37L315.183 74.0029L315.067 74.0163L303.994 112.326L296.068 113.239L289.432 76.9697L289.316 76.983L287.736 114.199L279.433 115.156L282.014 71.5487Z"/>
<path d="M338.745 65.0423L347.832 63.9953L346.759 75.138L342.466 95.9027L338.14 96.4011L337.672 76.1849L338.745 65.0423ZM335.602 100.17L344.254 99.1733L343.448 107.781L334.796 108.778L335.602 100.17Z"/>
<path d="M358.545 62.7612L367.632 61.7142L366.558 72.8569L362.266 93.6216L357.94 94.12L357.471 73.9038L358.545 62.7612ZM355.402 97.889L364.053 96.8922L363.247 105.5L354.596 106.496L355.402 97.889Z"/>
<path d="M378.344 60.48L387.431 59.4332L386.358 70.5758L382.065 91.3405L377.739 91.8389L377.271 71.6227L378.344 60.48ZM375.201 95.6079L383.853 94.6111L383.047 103.219L374.395 104.215L375.201 95.6079Z"/>
</mask>
<path d="M5.31421 51.1727C5.40193 49.3752 5.73938 47.6176 6.32655 45.9001C6.91372 44.1826 7.81346 42.6254 9.02579 41.2287C10.2359 39.8126 11.7857 38.6225 13.6753 37.6584C15.5819 36.6727 17.8707 36.026 20.5416 35.7183C22.9416 35.4418 25.0288 35.5156 26.8032 35.9397C28.5947 36.3422 30.0903 36.985 31.2899 37.8682C32.4873 38.7319 33.4111 39.7745 34.0612 40.996C34.7114 42.2174 35.1121 43.4872 35.2635 44.8054C35.4082 46.0655 35.3721 47.2874 35.155 48.4713C34.9358 49.6357 34.5301 50.7137 33.938 51.705C33.3459 52.6964 32.5554 53.583 31.5666 54.3647C30.5972 55.1442 29.4152 55.7812 28.0209 56.2758L28.0342 56.3921C29.0011 56.6146 29.8801 56.9258 30.6712 57.3257C31.4601 57.7062 32.1462 58.2164 32.7296 58.8563C33.3301 59.4746 33.8192 60.2334 34.197 61.1326C34.5749 62.0319 34.835 63.1019 34.9775 64.3425C35.1022 65.4281 35.0958 66.568 34.9584 67.7623C34.821 68.9567 34.5255 70.1398 34.0717 71.3116C33.6374 72.4812 33.0232 73.6224 32.2293 74.7353C31.4526 75.8265 30.4689 76.8237 29.2784 77.7269C28.1071 78.6278 26.7138 79.3874 25.0983 80.0057C23.485 80.6433 21.6429 81.0814 19.572 81.32C17.0366 81.6121 14.773 81.539 12.7812 81.1006C10.811 80.6794 9.12044 79.9609 7.70947 78.9449C6.29628 77.9096 5.17795 76.6243 4.35447 75.0889C3.52877 73.5341 3.00461 71.7875 2.78198 69.849L2.68848 69.0348L10.8754 68.0916C11.1473 69.4352 11.5195 70.5413 11.9919 71.41C12.462 72.2594 13.0379 72.9198 13.7196 73.3912C14.3991 73.8433 15.1973 74.1343 16.1143 74.2644C17.0484 74.3728 18.1058 74.359 19.2864 74.223C20.6219 74.0691 21.7468 73.7038 22.6611 73.1271C23.5753 72.5504 24.301 71.8677 24.8379 71.0791C25.392 70.2689 25.7619 69.3915 25.9476 68.4469C26.1526 67.5002 26.2051 66.5906 26.1049 65.7183C25.978 64.6133 25.6992 63.7223 25.2684 63.0452C24.8377 62.3681 24.3086 61.8594 23.6812 61.5192C23.071 61.1574 22.3784 60.9327 21.6035 60.8452C20.848 60.7555 20.0735 60.7563 19.28 60.8478L16.8413 61.1287L17.1585 54.6694C17.5887 54.6591 18.0287 54.6477 18.4783 54.6352C18.945 54.6011 19.3913 54.5595 19.8171 54.5104C20.9396 54.3811 21.9573 54.1067 22.87 53.6873C23.7827 53.2679 24.5541 52.7272 25.1841 52.0654C25.814 51.4036 26.2736 50.6239 26.5627 49.7263C26.8496 48.8094 26.9296 47.7985 26.8027 46.6935C26.6068 44.9876 25.9611 43.805 24.8657 43.1455C23.7895 42.4838 22.3805 42.2533 20.6386 42.454C19.4387 42.5923 18.4061 42.9076 17.541 43.4001C16.693 43.871 15.9864 44.4631 15.4211 45.1764C14.8559 45.8897 14.4083 46.6876 14.0782 47.5703C13.7459 48.4335 13.5051 49.3255 13.356 50.2462L5.31421 51.1727Z" fill="#2FAD74"/>
<path d="M61.0572 41.1856L60.9411 41.199L54.1569 60.2473L64.8695 59.0131L61.0572 41.1856ZM56.2289 32.6969L66.6512 31.4961L76.96 73.6182L68.1634 74.6317L66.4145 66.3185L51.3761 68.0511L48.2478 76.9262L38.7835 78.0165L56.2289 32.6969Z" fill="#2FAD74"/>
<path d="M90.2568 36.2305L78.9635 37.5316L79.4831 30.0178L109.734 26.5326L109.214 34.0464L99.1695 35.2037L96.8176 71.3305L87.9049 72.3573L90.2568 36.2305Z" fill="#2FAD74"/>
<path d="M113.653 51.183C113.42 49.1476 113.388 47.079 113.558 44.9774C113.727 42.8564 114.117 40.7883 114.729 38.7733C115.34 36.7583 116.17 34.8459 117.217 33.0361C118.284 31.224 119.588 29.6007 121.129 28.166C122.67 26.7314 124.465 25.5425 126.514 24.5993C128.561 23.6368 130.871 23.0073 133.445 22.7107C135.807 22.4387 137.939 22.4778 139.842 22.8281C141.765 23.1763 143.468 23.7461 144.951 24.5376C146.434 25.3292 147.723 26.31 148.819 27.4802C149.931 28.6287 150.869 29.876 151.631 31.222C152.391 32.5486 152.982 33.9341 153.403 35.3783C153.843 36.8204 154.142 38.2296 154.3 39.6059C154.534 41.6414 154.566 43.7196 154.398 45.8406C154.228 47.9423 153.837 50.0006 153.225 52.0156C152.613 54.0307 151.774 55.9442 150.707 57.7562C149.66 59.5661 148.366 61.1883 146.824 62.6229C145.283 64.0576 143.488 65.2465 141.439 66.1896C139.392 67.1522 137.082 67.7817 134.508 68.0783C132.127 68.3525 129.985 68.3145 128.082 67.9642C126.179 67.6138 124.476 67.044 122.973 66.2547C121.49 65.4631 120.192 64.4931 119.08 63.3445C117.985 62.1744 117.056 60.9163 116.293 59.5703C115.55 58.2221 114.96 56.8366 114.522 55.414C114.101 53.9697 113.811 52.5594 113.653 51.183ZM122.613 50.5633C122.838 52.5212 123.303 54.1862 124.01 55.5582C124.715 56.9109 125.584 57.9893 126.617 58.7934C127.651 59.5974 128.793 60.1533 130.044 60.4609C131.313 60.7469 132.615 60.8129 133.95 60.6591C135.769 60.4495 137.33 59.9554 138.633 59.1767C139.936 58.3981 141.032 57.4371 141.92 56.2937C142.809 55.1504 143.506 53.8817 144.013 52.4877C144.539 51.0914 144.916 49.6732 145.142 48.2328C145.388 46.7903 145.511 45.3816 145.51 44.0068C145.526 42.6104 145.47 41.35 145.341 40.2257C145.113 38.2484 144.648 36.5834 143.943 35.2307C143.239 33.878 142.37 32.7997 141.336 31.9956C140.302 31.1915 139.152 30.6465 137.883 30.3605C136.632 30.0529 135.339 29.976 134.003 30.1299C132.184 30.3395 130.623 30.8336 129.32 31.6122C128.017 32.3909 126.921 33.3519 126.033 34.4952C125.142 35.6192 124.435 36.889 123.911 38.3046C123.405 39.6986 123.028 41.1169 122.782 42.5595C122.555 43.9998 122.434 45.4182 122.418 46.8146C122.419 48.1894 122.484 49.4389 122.613 50.5633Z" fill="#2FAD74"/>
<path d="M162.542 20.4485L197.148 16.4617L194.335 60.0956L185.393 61.1257L187.774 24.9956L170.994 26.9289L168.642 63.0556L159.729 64.0825L162.542 20.4485Z" fill="#2FAD74"/>
<path d="M205.625 15.485L214.538 14.4582L212.53 43.5921L212.646 43.5787L230.592 12.6085L240.115 11.5115L237.243 55.1521L228.301 56.1822L231.412 25.8901L231.296 25.9035L211.841 58.0787L202.696 59.1323L205.625 15.485Z" fill="#2FAD74"/>
<path d="M274.578 14.995L262.269 16.4131L259.82 39.1456C259.571 41.4135 259.21 43.4782 258.737 45.3396C258.282 47.1795 257.622 48.7777 256.758 50.1343C255.911 51.4693 254.819 52.5477 253.482 53.3696C252.164 54.1892 250.528 54.7117 248.573 54.9369C247.586 55.0506 246.666 55.0682 245.814 54.9896C244.964 54.9304 244.042 54.7616 243.05 54.4831L243.416 46.6628C244.041 46.8069 244.639 46.8951 245.212 46.9274C245.801 46.938 246.231 46.9277 246.502 46.8965C246.928 46.8475 247.323 46.7823 247.686 46.7012C248.047 46.6007 248.379 46.4152 248.681 46.1446C248.983 45.8741 249.253 45.4895 249.49 44.9908C249.744 44.4705 249.986 43.7649 250.217 42.8741C250.446 41.9638 250.66 40.8392 250.86 39.5003C251.076 38.1398 251.299 36.4937 251.528 34.562L254.311 9.87591L283.981 6.45761L281.139 50.0949L272.226 51.1217L274.578 14.995Z" fill="#2FAD74"/>
<path d="M289.701 30.9007C289.467 28.8652 289.435 26.7967 289.606 24.6951C289.774 22.574 290.164 20.506 290.776 18.491C291.388 16.476 292.217 14.5636 293.264 12.7537C294.331 10.9417 295.635 9.31832 297.176 7.88368C298.718 6.44903 300.513 5.26014 302.562 4.31699C304.608 3.35447 306.919 2.72492 309.493 2.42836C311.854 2.15632 313.986 2.19547 315.889 2.54581C317.812 2.89391 319.515 3.46375 320.998 4.2553C322.481 5.04686 323.771 6.02771 324.866 7.19787C325.978 8.34641 326.916 9.59368 327.678 10.9397C328.439 12.2663 329.029 13.6517 329.45 15.096C329.89 16.5381 330.189 17.9473 330.347 19.3236C330.581 21.359 330.614 23.4373 330.446 25.5583C330.275 27.66 329.884 29.7183 329.272 31.7333C328.66 33.7483 327.821 35.6618 326.755 37.4739C325.707 39.2837 324.413 40.906 322.872 42.3406C321.33 43.7753 319.535 44.9641 317.486 45.9073C315.44 46.8698 313.129 47.4994 310.555 47.7959C308.175 48.0702 306.033 48.0322 304.13 47.6818C302.226 47.3315 300.523 46.7617 299.021 45.9723C297.538 45.1808 296.24 44.2107 295.127 43.0622C294.032 41.892 293.103 40.634 292.341 39.288C291.598 37.9397 291.007 36.5543 290.569 35.1316C290.148 33.6873 289.859 32.277 289.701 30.9007ZM298.66 30.2809C298.885 32.2388 299.351 33.9038 300.057 35.2759C300.762 36.6286 301.631 37.7069 302.665 38.511C303.698 39.3151 304.841 39.8709 306.092 40.1785C307.36 40.4645 308.662 40.5306 309.997 40.3767C311.817 40.1671 313.378 39.673 314.681 38.8944C315.984 38.1157 317.079 37.1547 317.968 36.0114C318.856 34.868 319.554 33.5993 320.06 32.2053C320.587 30.8091 320.963 29.3908 321.19 27.9505C321.436 26.5079 321.558 25.0993 321.557 23.7245C321.574 22.3281 321.517 21.0677 321.388 19.9433C321.161 17.9661 320.695 16.3011 319.991 14.9484C319.286 13.5957 318.417 12.5173 317.384 11.7133C316.35 10.9092 315.199 10.3642 313.931 10.0782C312.679 9.77056 311.386 9.69369 310.051 9.84754C308.231 10.0571 306.67 10.5513 305.367 11.3299C304.064 12.1085 302.969 13.0695 302.08 14.2129C301.19 15.3369 300.482 16.6067 299.959 18.0223C299.452 19.4163 299.076 20.8346 298.829 22.2771C298.603 23.7175 298.481 25.1358 298.465 26.5322C298.466 27.907 298.531 29.1566 298.66 30.2809Z" fill="#2FAD74"/>
<path d="M14.5175 102.367L31.2107 100.444C33.9203 100.132 36.2427 100.119 38.178 100.407C40.1133 100.695 41.7268 101.255 43.0188 102.088C44.3085 102.902 45.2937 103.967 45.9743 105.283C46.6549 106.6 47.0954 108.13 47.2958 109.875C47.4227 110.98 47.3989 112.053 47.2243 113.094C47.0669 114.114 46.7468 115.084 46.2642 116.004C45.7986 116.902 45.1585 117.732 44.3439 118.494C43.5464 119.234 42.5711 119.876 41.4179 120.422C42.2626 120.776 43.0344 121.178 43.7332 121.628C44.4298 122.059 45.0396 122.587 45.5627 123.215C46.0835 123.822 46.5079 124.53 46.8359 125.337C47.1832 126.141 47.417 127.067 47.5372 128.114C47.7843 130.265 47.6564 132.225 47.1533 133.991C46.648 135.739 45.7847 137.272 44.5635 138.591C43.3423 139.91 41.7802 140.994 39.8773 141.842C37.9722 142.67 35.7325 143.233 33.1584 143.529L11.7041 146.001L14.5175 102.367ZM21.075 137.438L32.0199 136.177C33.3747 136.021 34.4932 135.686 35.3755 135.171C36.2577 134.657 36.9536 134.057 37.4629 133.369C37.9723 132.682 38.3105 131.956 38.4775 131.19C38.6446 130.425 38.6891 129.703 38.6112 129.024C38.5065 128.113 38.2627 127.355 37.8795 126.751C37.4942 126.128 36.9964 125.635 36.3861 125.274C35.7952 124.91 35.1015 124.675 34.3051 124.57C33.5086 124.466 32.6459 124.467 31.7169 124.574L21.8462 125.711L21.075 137.438ZM22.2864 118.531L32.5636 117.347C34.6732 117.104 36.2273 116.463 37.2259 115.425C38.2222 114.367 38.6191 112.956 38.4165 111.192C38.3252 110.397 38.1044 109.755 37.7539 109.265C37.4229 108.773 36.9879 108.401 36.4491 108.149C35.9296 107.894 35.3245 107.748 34.6337 107.71C33.9407 107.652 33.2071 107.668 32.433 107.757L22.9106 108.854L22.2864 118.531Z" fill="#2FAD74"/>
<path d="M57.4843 97.4168L85.8481 94.149L85.3865 101.656L65.7612 103.917L65.1951 113.587L83.1946 111.513L82.7364 119.05L64.7949 121.117L64.0997 132.481L84.6831 130.11L84.2249 137.646L54.6708 141.051L57.4843 97.4168Z" fill="#2FAD74"/>
<path d="M119.748 104.768C119.604 103.508 119.271 102.407 118.751 101.466C118.229 100.504 117.571 99.7257 116.777 99.1298C116 98.5122 115.108 98.0846 114.1 97.8472C113.109 97.5882 112.062 97.5222 110.959 97.6493C109.14 97.8589 107.579 98.353 106.276 99.1316C104.973 99.9103 103.877 100.871 102.989 102.015C102.098 103.139 101.391 104.408 100.867 105.824C100.361 107.218 99.9841 108.636 99.738 110.079C99.5112 111.519 99.3897 112.938 99.3736 114.334C99.3746 115.709 99.4397 116.958 99.5688 118.083C99.7402 119.575 100.076 120.961 100.576 122.239C101.095 123.515 101.808 124.601 102.715 125.498C103.641 126.393 104.777 127.058 106.121 127.492C107.484 127.925 109.085 128.035 110.924 127.823C112.027 127.696 113.076 127.437 114.071 127.048C115.083 126.637 115.988 126.071 116.788 125.35C117.585 124.61 118.255 123.698 118.798 122.614C119.34 121.53 119.702 120.241 119.883 118.747L128.941 117.704C128.621 120.216 128.012 122.505 127.112 124.573C126.231 126.639 125.056 128.444 123.586 129.988C122.133 131.511 120.393 132.752 118.366 133.712C116.339 134.673 114.038 135.301 111.464 135.598C109.103 135.87 106.961 135.832 105.038 135.484C103.135 135.133 101.442 134.562 99.9585 133.771C98.4753 132.979 97.1774 132.009 96.065 130.861C94.9697 129.69 94.0408 128.432 93.2783 127.086C92.5158 125.74 91.9156 124.356 91.4777 122.933C91.0568 121.489 90.7674 120.079 90.6094 118.702C90.3756 116.667 90.3439 114.598 90.5144 112.497C90.6826 110.376 91.0727 108.308 91.6845 106.293C92.2963 104.278 93.1259 102.365 94.1731 100.555C95.2397 98.7434 96.5436 97.12 98.085 95.6854C99.6263 94.2508 101.421 93.0619 103.47 92.1187C105.517 91.1562 107.827 90.5267 110.401 90.2301C112.821 89.9514 115.075 90.0256 117.163 90.4528C119.271 90.8777 121.125 91.656 122.726 92.7876C124.327 93.9192 125.644 95.3977 126.677 97.2232C127.71 99.0486 128.372 101.221 128.661 103.741L119.748 104.768Z" fill="#2FAD74"/>
<path d="M136.334 88.3325L145.247 87.3057L144.132 104.493L152.174 103.566C154.69 103.277 156.89 103.308 158.774 103.66C160.655 103.994 162.236 104.607 163.515 105.501C164.792 106.375 165.784 107.498 166.49 108.87C167.214 110.221 167.676 111.768 167.877 113.513C167.95 114.152 167.984 114.964 167.98 115.946C167.973 116.91 167.846 117.945 167.601 119.054C167.354 120.143 166.943 121.261 166.368 122.407C165.811 123.532 165.001 124.588 163.938 125.575C162.872 126.542 161.519 127.395 159.878 128.134C158.254 128.852 156.262 129.346 153.901 129.618L133.491 131.97L136.334 88.3325ZM142.891 123.403L151.136 122.453C152.491 122.297 153.687 122.042 154.725 121.686C155.761 121.312 156.616 120.82 157.292 120.212C157.984 119.583 158.475 118.819 158.764 117.921C159.053 117.024 159.128 115.964 158.987 114.743C158.883 113.832 158.641 113.094 158.262 112.529C157.901 111.942 157.428 111.495 156.844 111.189C156.279 110.881 155.61 110.693 154.837 110.625C154.065 110.557 153.224 110.575 152.314 110.68L143.634 111.68L142.891 123.403Z" fill="#2FAD74"/>
<path d="M187.774 118.232L190.764 117.888C191.654 116.587 192.455 115.022 193.167 113.192C193.895 111.34 194.549 109.35 195.128 107.221C195.705 105.072 196.213 102.833 196.651 100.504C197.107 98.1539 197.498 95.8402 197.825 93.5634C198.169 91.265 198.454 89.052 198.681 86.9242C198.905 84.7771 199.093 82.8305 199.245 81.0845L227.058 77.8803L224.702 113.978L228.331 113.56L227.328 130.44L219.345 131.359L219.86 122.019L195.3 124.849L194.813 134.186L186.771 135.112L187.774 118.232ZM217.683 86.4143L206.68 87.6819C206.458 90.3591 206.201 92.9029 205.91 95.3131C205.618 97.7234 205.243 100.094 204.785 102.425C204.327 104.756 203.752 107.091 203.06 109.43C202.387 111.766 201.559 114.209 200.577 116.757L215.848 114.998L217.683 86.4143Z" fill="#2FAD74"/>
<path d="M233.358 102.256C233.124 100.221 233.092 98.1525 233.263 96.0508C233.431 93.9298 233.821 91.8618 234.433 89.8468C235.045 87.8318 235.874 85.9193 236.921 84.1095C237.988 82.2974 239.292 80.6741 240.833 79.2394C242.375 77.8048 244.17 76.6159 246.218 75.6728C248.265 74.7102 250.575 74.0807 253.15 73.7841C255.511 73.5121 257.643 73.5512 259.546 73.9016C261.469 74.2497 263.172 74.8195 264.655 75.6111C266.138 76.4026 267.427 77.3835 268.523 78.5536C269.635 79.7022 270.573 80.9494 271.335 82.2954C272.095 83.622 272.686 85.0075 273.107 86.4518C273.547 87.8938 273.846 89.303 274.004 90.6794C274.238 92.7148 274.271 94.7931 274.102 96.9141C273.932 99.0157 273.541 101.074 272.929 103.089C272.317 105.104 271.478 107.018 270.411 108.83C269.364 110.64 268.07 112.262 266.529 113.696C264.987 115.131 263.192 116.32 261.143 117.263C259.097 118.226 256.786 118.855 254.212 119.152C251.832 119.426 249.69 119.388 247.786 119.038C245.883 118.687 244.18 118.117 242.678 117.328C241.194 116.537 239.897 115.567 238.784 114.418C237.689 113.248 236.76 111.99 235.997 110.644C235.254 109.296 234.664 107.91 234.226 106.487C233.805 105.043 233.516 103.633 233.358 102.256ZM242.317 101.637C242.542 103.595 243.008 105.26 243.714 106.632C244.419 107.984 245.288 109.063 246.321 109.867C247.355 110.671 248.497 111.227 249.749 111.534C251.017 111.82 252.319 111.886 253.654 111.733C255.474 111.523 257.035 111.029 258.338 110.25C259.641 109.472 260.736 108.511 261.625 107.367C262.513 106.224 263.211 104.955 263.717 103.561C264.243 102.165 264.62 100.747 264.846 99.3063C265.093 97.8637 265.215 96.455 265.214 95.0803C265.23 93.6838 265.174 92.4235 265.045 91.2991C264.818 89.3218 264.352 87.6569 263.647 86.3042C262.943 84.9515 262.074 83.8731 261.04 83.069C260.007 82.265 258.856 81.7199 257.587 81.4339C256.336 81.1263 255.043 81.0495 253.707 81.2033C251.888 81.4129 250.327 81.907 249.024 82.6857C247.721 83.4643 246.625 84.4253 245.737 85.5687C244.846 86.6927 244.139 87.9625 243.615 89.3781C243.109 90.7721 242.732 92.1904 242.486 93.6329C242.259 95.0732 242.138 96.4916 242.122 97.888C242.123 99.2628 242.188 100.512 242.317 101.637Z" fill="#2FAD74"/>
<path d="M282.014 71.5487L295.02 70.0503L300.457 101.509L300.573 101.495L310.001 68.3244L323.442 66.7758L320.629 110.41L312.297 111.37L315.183 74.0029L315.067 74.0163L303.994 112.326L296.068 113.239L289.432 76.9697L289.316 76.983L287.736 114.199L279.433 115.156L282.014 71.5487Z" fill="#2FAD74"/>
<path d="M338.745 65.0423L347.832 63.9953L346.759 75.138L342.466 95.9027L338.14 96.4011L337.672 76.1849L338.745 65.0423ZM335.602 100.17L344.254 99.1733L343.448 107.781L334.796 108.778L335.602 100.17Z" fill="#2FAD74"/>
<path d="M358.545 62.7612L367.632 61.7142L366.558 72.8569L362.266 93.6216L357.94 94.12L357.471 73.9038L358.545 62.7612ZM355.402 97.889L364.053 96.8922L363.247 105.5L354.596 106.496L355.402 97.889Z" fill="#2FAD74"/>
<path d="M378.344 60.48L387.431 59.4332L386.358 70.5758L382.065 91.3405L377.739 91.8389L377.271 71.6227L378.344 60.48ZM375.201 95.6079L383.853 94.6111L383.047 103.219L374.395 104.215L375.201 95.6079Z" fill="#2FAD74"/>
<path d="M5.31421 51.1727C5.40193 49.3752 5.73938 47.6176 6.32655 45.9001C6.91372 44.1826 7.81346 42.6254 9.02579 41.2287C10.2359 39.8126 11.7857 38.6225 13.6753 37.6584C15.5819 36.6727 17.8707 36.026 20.5416 35.7183C22.9416 35.4418 25.0288 35.5156 26.8032 35.9397C28.5947 36.3422 30.0903 36.985 31.2899 37.8682C32.4873 38.7319 33.4111 39.7745 34.0612 40.996C34.7114 42.2174 35.1121 43.4872 35.2635 44.8054C35.4082 46.0655 35.3721 47.2874 35.155 48.4713C34.9358 49.6357 34.5301 50.7137 33.938 51.705C33.3459 52.6964 32.5554 53.583 31.5666 54.3647C30.5972 55.1442 29.4152 55.7812 28.0209 56.2758L28.0342 56.3921C29.0011 56.6146 29.8801 56.9258 30.6712 57.3257C31.4601 57.7062 32.1462 58.2164 32.7296 58.8563C33.3301 59.4746 33.8192 60.2334 34.197 61.1326C34.5749 62.0319 34.835 63.1019 34.9775 64.3425C35.1022 65.4281 35.0958 66.568 34.9584 67.7623C34.821 68.9567 34.5255 70.1398 34.0717 71.3116C33.6374 72.4812 33.0232 73.6224 32.2293 74.7353C31.4526 75.8265 30.4689 76.8237 29.2784 77.7269C28.1071 78.6278 26.7138 79.3874 25.0983 80.0057C23.485 80.6433 21.6429 81.0814 19.572 81.32C17.0366 81.6121 14.773 81.539 12.7812 81.1006C10.811 80.6794 9.12044 79.9609 7.70947 78.9449C6.29628 77.9096 5.17795 76.6243 4.35447 75.0889C3.52877 73.5341 3.00461 71.7875 2.78198 69.849L2.68848 69.0348L10.8754 68.0916C11.1473 69.4352 11.5195 70.5413 11.9919 71.41C12.462 72.2594 13.0379 72.9198 13.7196 73.3912C14.3991 73.8433 15.1973 74.1343 16.1143 74.2644C17.0484 74.3728 18.1058 74.359 19.2864 74.223C20.6219 74.0691 21.7468 73.7038 22.6611 73.1271C23.5753 72.5504 24.301 71.8677 24.8379 71.0791C25.392 70.2689 25.7619 69.3915 25.9476 68.4469C26.1526 67.5002 26.2051 66.5906 26.1049 65.7183C25.978 64.6133 25.6992 63.7223 25.2684 63.0452C24.8377 62.3681 24.3086 61.8594 23.6812 61.5192C23.071 61.1574 22.3784 60.9327 21.6035 60.8452C20.848 60.7555 20.0735 60.7563 19.28 60.8478L16.8413 61.1287L17.1585 54.6694C17.5887 54.6591 18.0287 54.6477 18.4783 54.6352C18.945 54.6011 19.3913 54.5595 19.8171 54.5104C20.9396 54.3811 21.9573 54.1067 22.87 53.6873C23.7827 53.2679 24.5541 52.7272 25.1841 52.0654C25.814 51.4036 26.2736 50.6239 26.5627 49.7263C26.8496 48.8094 26.9296 47.7985 26.8027 46.6935C26.6068 44.9876 25.9611 43.805 24.8657 43.1455C23.7895 42.4838 22.3805 42.2533 20.6386 42.454C19.4387 42.5923 18.4061 42.9076 17.541 43.4001C16.693 43.871 15.9864 44.4631 15.4211 45.1764C14.8559 45.8897 14.4083 46.6876 14.0782 47.5703C13.7459 48.4335 13.5051 49.3255 13.356 50.2462L5.31421 51.1727Z" stroke="black" stroke-width="4" mask="url(#path-1-outside-1)"/>
<path d="M61.0572 41.1856L60.9411 41.199L54.1569 60.2473L64.8695 59.0131L61.0572 41.1856ZM56.2289 32.6969L66.6512 31.4961L76.96 73.6182L68.1634 74.6317L66.4145 66.3185L51.3761 68.0511L48.2478 76.9262L38.7835 78.0165L56.2289 32.6969Z" stroke="black" stroke-width="4" mask="url(#path-1-outside-1)"/>
<path d="M90.2568 36.2305L78.9635 37.5316L79.4831 30.0178L109.734 26.5326L109.214 34.0464L99.1695 35.2037L96.8176 71.3305L87.9049 72.3573L90.2568 36.2305Z" stroke="black" stroke-width="4" mask="url(#path-1-outside-1)"/>
<path d="M113.653 51.183C113.42 49.1476 113.388 47.079 113.558 44.9774C113.727 42.8564 114.117 40.7883 114.729 38.7733C115.34 36.7583 116.17 34.8459 117.217 33.0361C118.284 31.224 119.588 29.6007 121.129 28.166C122.67 26.7314 124.465 25.5425 126.514 24.5993C128.561 23.6368 130.871 23.0073 133.445 22.7107C135.807 22.4387 137.939 22.4778 139.842 22.8281C141.765 23.1763 143.468 23.7461 144.951 24.5376C146.434 25.3292 147.723 26.31 148.819 27.4802C149.931 28.6287 150.869 29.876 151.631 31.222C152.391 32.5486 152.982 33.9341 153.403 35.3783C153.843 36.8204 154.142 38.2296 154.3 39.6059C154.534 41.6414 154.566 43.7196 154.398 45.8406C154.228 47.9423 153.837 50.0006 153.225 52.0156C152.613 54.0307 151.774 55.9442 150.707 57.7562C149.66 59.5661 148.366 61.1883 146.824 62.6229C145.283 64.0576 143.488 65.2465 141.439 66.1896C139.392 67.1522 137.082 67.7817 134.508 68.0783C132.127 68.3525 129.985 68.3145 128.082 67.9642C126.179 67.6138 124.476 67.044 122.973 66.2547C121.49 65.4631 120.192 64.4931 119.08 63.3445C117.985 62.1744 117.056 60.9163 116.293 59.5703C115.55 58.2221 114.96 56.8366 114.522 55.414C114.101 53.9697 113.811 52.5594 113.653 51.183ZM122.613 50.5633C122.838 52.5212 123.303 54.1862 124.01 55.5582C124.715 56.9109 125.584 57.9893 126.617 58.7934C127.651 59.5974 128.793 60.1533 130.044 60.4609C131.313 60.7469 132.615 60.8129 133.95 60.6591C135.769 60.4495 137.33 59.9554 138.633 59.1767C139.936 58.3981 141.032 57.4371 141.92 56.2937C142.809 55.1504 143.506 53.8817 144.013 52.4877C144.539 51.0914 144.916 49.6732 145.142 48.2328C145.388 46.7903 145.511 45.3816 145.51 44.0068C145.526 42.6104 145.47 41.35 145.341 40.2257C145.113 38.2484 144.648 36.5834 143.943 35.2307C143.239 33.878 142.37 32.7997 141.336 31.9956C140.302 31.1915 139.152 30.6465 137.883 30.3605C136.632 30.0529 135.339 29.976 134.003 30.1299C132.184 30.3395 130.623 30.8336 129.32 31.6122C128.017 32.3909 126.921 33.3519 126.033 34.4952C125.142 35.6192 124.435 36.889 123.911 38.3046C123.405 39.6986 123.028 41.1169 122.782 42.5595C122.555 43.9998 122.434 45.4182 122.418 46.8146C122.419 48.1894 122.484 49.4389 122.613 50.5633Z" stroke="black" stroke-width="4" mask="url(#path-1-outside-1)"/>
<path d="M162.542 20.4485L197.148 16.4617L194.335 60.0956L185.393 61.1257L187.774 24.9956L170.994 26.9289L168.642 63.0556L159.729 64.0825L162.542 20.4485Z" stroke="black" stroke-width="4" mask="url(#path-1-outside-1)"/>
<path d="M205.625 15.485L214.538 14.4582L212.53 43.5921L212.646 43.5787L230.592 12.6085L240.115 11.5115L237.243 55.1521L228.301 56.1822L231.412 25.8901L231.296 25.9035L211.841 58.0787L202.696 59.1323L205.625 15.485Z" stroke="black" stroke-width="4" mask="url(#path-1-outside-1)"/>
<path d="M274.578 14.995L262.269 16.4131L259.82 39.1456C259.571 41.4135 259.21 43.4782 258.737 45.3396C258.282 47.1795 257.622 48.7777 256.758 50.1343C255.911 51.4693 254.819 52.5477 253.482 53.3696C252.164 54.1892 250.528 54.7117 248.573 54.9369C247.586 55.0506 246.666 55.0682 245.814 54.9896C244.964 54.9304 244.042 54.7616 243.05 54.4831L243.416 46.6628C244.041 46.8069 244.639 46.8951 245.212 46.9274C245.801 46.938 246.231 46.9277 246.502 46.8965C246.928 46.8475 247.323 46.7823 247.686 46.7012C248.047 46.6007 248.379 46.4152 248.681 46.1446C248.983 45.8741 249.253 45.4895 249.49 44.9908C249.744 44.4705 249.986 43.7649 250.217 42.8741C250.446 41.9638 250.66 40.8392 250.86 39.5003C251.076 38.1398 251.299 36.4937 251.528 34.562L254.311 9.87591L283.981 6.45761L281.139 50.0949L272.226 51.1217L274.578 14.995Z" stroke="black" stroke-width="4" mask="url(#path-1-outside-1)"/>
<path d="M289.701 30.9007C289.467 28.8652 289.435 26.7967 289.606 24.6951C289.774 22.574 290.164 20.506 290.776 18.491C291.388 16.476 292.217 14.5636 293.264 12.7537C294.331 10.9417 295.635 9.31832 297.176 7.88368C298.718 6.44903 300.513 5.26014 302.562 4.31699C304.608 3.35447 306.919 2.72492 309.493 2.42836C311.854 2.15632 313.986 2.19547 315.889 2.54581C317.812 2.89391 319.515 3.46375 320.998 4.2553C322.481 5.04686 323.771 6.02771 324.866 7.19787C325.978 8.34641 326.916 9.59368 327.678 10.9397C328.439 12.2663 329.029 13.6517 329.45 15.096C329.89 16.5381 330.189 17.9473 330.347 19.3236C330.581 21.359 330.614 23.4373 330.446 25.5583C330.275 27.66 329.884 29.7183 329.272 31.7333C328.66 33.7483 327.821 35.6618 326.755 37.4739C325.707 39.2837 324.413 40.906 322.872 42.3406C321.33 43.7753 319.535 44.9641 317.486 45.9073C315.44 46.8698 313.129 47.4994 310.555 47.7959C308.175 48.0702 306.033 48.0322 304.13 47.6818C302.226 47.3315 300.523 46.7617 299.021 45.9723C297.538 45.1808 296.24 44.2107 295.127 43.0622C294.032 41.892 293.103 40.634 292.341 39.288C291.598 37.9397 291.007 36.5543 290.569 35.1316C290.148 33.6873 289.859 32.277 289.701 30.9007ZM298.66 30.2809C298.885 32.2388 299.351 33.9038 300.057 35.2759C300.762 36.6286 301.631 37.7069 302.665 38.511C303.698 39.3151 304.841 39.8709 306.092 40.1785C307.36 40.4645 308.662 40.5306 309.997 40.3767C311.817 40.1671 313.378 39.673 314.681 38.8944C315.984 38.1157 317.079 37.1547 317.968 36.0114C318.856 34.868 319.554 33.5993 320.06 32.2053C320.587 30.8091 320.963 29.3908 321.19 27.9505C321.436 26.5079 321.558 25.0993 321.557 23.7245C321.574 22.3281 321.517 21.0677 321.388 19.9433C321.161 17.9661 320.695 16.3011 319.991 14.9484C319.286 13.5957 318.417 12.5173 317.384 11.7133C316.35 10.9092 315.199 10.3642 313.931 10.0782C312.679 9.77056 311.386 9.69369 310.051 9.84754C308.231 10.0571 306.67 10.5513 305.367 11.3299C304.064 12.1085 302.969 13.0695 302.08 14.2129C301.19 15.3369 300.482 16.6067 299.959 18.0223C299.452 19.4163 299.076 20.8346 298.829 22.2771C298.603 23.7175 298.481 25.1358 298.465 26.5322C298.466 27.907 298.531 29.1566 298.66 30.2809Z" stroke="black" stroke-width="4" mask="url(#path-1-outside-1)"/>
<path d="M14.5175 102.367L31.2107 100.444C33.9203 100.132 36.2427 100.119 38.178 100.407C40.1133 100.695 41.7268 101.255 43.0188 102.088C44.3085 102.902 45.2937 103.967 45.9743 105.283C46.6549 106.6 47.0954 108.13 47.2958 109.875C47.4227 110.98 47.3989 112.053 47.2243 113.094C47.0669 114.114 46.7468 115.084 46.2642 116.004C45.7986 116.902 45.1585 117.732 44.3439 118.494C43.5464 119.234 42.5711 119.876 41.4179 120.422C42.2626 120.776 43.0344 121.178 43.7332 121.628C44.4298 122.059 45.0396 122.587 45.5627 123.215C46.0835 123.822 46.5079 124.53 46.8359 125.337C47.1832 126.141 47.417 127.067 47.5372 128.114C47.7843 130.265 47.6564 132.225 47.1533 133.991C46.648 135.739 45.7847 137.272 44.5635 138.591C43.3423 139.91 41.7802 140.994 39.8773 141.842C37.9722 142.67 35.7325 143.233 33.1584 143.529L11.7041 146.001L14.5175 102.367ZM21.075 137.438L32.0199 136.177C33.3747 136.021 34.4932 135.686 35.3755 135.171C36.2577 134.657 36.9536 134.057 37.4629 133.369C37.9723 132.682 38.3105 131.956 38.4775 131.19C38.6446 130.425 38.6891 129.703 38.6112 129.024C38.5065 128.113 38.2627 127.355 37.8795 126.751C37.4942 126.128 36.9964 125.635 36.3861 125.274C35.7952 124.91 35.1015 124.675 34.3051 124.57C33.5086 124.466 32.6459 124.467 31.7169 124.574L21.8462 125.711L21.075 137.438ZM22.2864 118.531L32.5636 117.347C34.6732 117.104 36.2273 116.463 37.2259 115.425C38.2222 114.367 38.6191 112.956 38.4165 111.192C38.3252 110.397 38.1044 109.755 37.7539 109.265C37.4229 108.773 36.9879 108.401 36.4491 108.149C35.9296 107.894 35.3245 107.748 34.6337 107.71C33.9407 107.652 33.2071 107.668 32.433 107.757L22.9106 108.854L22.2864 118.531Z" stroke="black" stroke-width="4" mask="url(#path-1-outside-1)"/>
<path d="M57.4843 97.4168L85.8481 94.149L85.3865 101.656L65.7612 103.917L65.1951 113.587L83.1946 111.513L82.7364 119.05L64.7949 121.117L64.0997 132.481L84.6831 130.11L84.2249 137.646L54.6708 141.051L57.4843 97.4168Z" stroke="black" stroke-width="4" mask="url(#path-1-outside-1)"/>
<path d="M119.748 104.768C119.604 103.508 119.271 102.407 118.751 101.466C118.229 100.504 117.571 99.7257 116.777 99.1298C116 98.5122 115.108 98.0846 114.1 97.8472C113.109 97.5882 112.062 97.5222 110.959 97.6493C109.14 97.8589 107.579 98.353 106.276 99.1316C104.973 99.9103 103.877 100.871 102.989 102.015C102.098 103.139 101.391 104.408 100.867 105.824C100.361 107.218 99.9841 108.636 99.738 110.079C99.5112 111.519 99.3897 112.938 99.3736 114.334C99.3746 115.709 99.4397 116.958 99.5688 118.083C99.7402 119.575 100.076 120.961 100.576 122.239C101.095 123.515 101.808 124.601 102.715 125.498C103.641 126.393 104.777 127.058 106.121 127.492C107.484 127.925 109.085 128.035 110.924 127.823C112.027 127.696 113.076 127.437 114.071 127.048C115.083 126.637 115.988 126.071 116.788 125.35C117.585 124.61 118.255 123.698 118.798 122.614C119.34 121.53 119.702 120.241 119.883 118.747L128.941 117.704C128.621 120.216 128.012 122.505 127.112 124.573C126.231 126.639 125.056 128.444 123.586 129.988C122.133 131.511 120.393 132.752 118.366 133.712C116.339 134.673 114.038 135.301 111.464 135.598C109.103 135.87 106.961 135.832 105.038 135.484C103.135 135.133 101.442 134.562 99.9585 133.771C98.4753 132.979 97.1774 132.009 96.065 130.861C94.9697 129.69 94.0408 128.432 93.2783 127.086C92.5158 125.74 91.9156 124.356 91.4777 122.933C91.0568 121.489 90.7674 120.079 90.6094 118.702C90.3756 116.667 90.3439 114.598 90.5144 112.497C90.6826 110.376 91.0727 108.308 91.6845 106.293C92.2963 104.278 93.1259 102.365 94.1731 100.555C95.2397 98.7434 96.5436 97.12 98.085 95.6854C99.6263 94.2508 101.421 93.0619 103.47 92.1187C105.517 91.1562 107.827 90.5267 110.401 90.2301C112.821 89.9514 115.075 90.0256 117.163 90.4528C119.271 90.8777 121.125 91.656 122.726 92.7876C124.327 93.9192 125.644 95.3977 126.677 97.2232C127.71 99.0486 128.372 101.221 128.661 103.741L119.748 104.768Z" stroke="black" stroke-width="4" mask="url(#path-1-outside-1)"/>
<path d="M136.334 88.3325L145.247 87.3057L144.132 104.493L152.174 103.566C154.69 103.277 156.89 103.308 158.774 103.66C160.655 103.994 162.236 104.607 163.515 105.501C164.792 106.375 165.784 107.498 166.49 108.87C167.214 110.221 167.676 111.768 167.877 113.513C167.95 114.152 167.984 114.964 167.98 115.946C167.973 116.91 167.846 117.945 167.601 119.054C167.354 120.143 166.943 121.261 166.368 122.407C165.811 123.532 165.001 124.588 163.938 125.575C162.872 126.542 161.519 127.395 159.878 128.134C158.254 128.852 156.262 129.346 153.901 129.618L133.491 131.97L136.334 88.3325ZM142.891 123.403L151.136 122.453C152.491 122.297 153.687 122.042 154.725 121.686C155.761 121.312 156.616 120.82 157.292 120.212C157.984 119.583 158.475 118.819 158.764 117.921C159.053 117.024 159.128 115.964 158.987 114.743C158.883 113.832 158.641 113.094 158.262 112.529C157.901 111.942 157.428 111.495 156.844 111.189C156.279 110.881 155.61 110.693 154.837 110.625C154.065 110.557 153.224 110.575 152.314 110.68L143.634 111.68L142.891 123.403Z" stroke="black" stroke-width="4" mask="url(#path-1-outside-1)"/>
<path d="M187.774 118.232L190.764 117.888C191.654 116.587 192.455 115.022 193.167 113.192C193.895 111.34 194.549 109.35 195.128 107.221C195.705 105.072 196.213 102.833 196.651 100.504C197.107 98.1539 197.498 95.8402 197.825 93.5634C198.169 91.265 198.454 89.052 198.681 86.9242C198.905 84.7771 199.093 82.8305 199.245 81.0845L227.058 77.8803L224.702 113.978L228.331 113.56L227.328 130.44L219.345 131.359L219.86 122.019L195.3 124.849L194.813 134.186L186.771 135.112L187.774 118.232ZM217.683 86.4143L206.68 87.6819C206.458 90.3591 206.201 92.9029 205.91 95.3131C205.618 97.7234 205.243 100.094 204.785 102.425C204.327 104.756 203.752 107.091 203.06 109.43C202.387 111.766 201.559 114.209 200.577 116.757L215.848 114.998L217.683 86.4143Z" stroke="black" stroke-width="4" mask="url(#path-1-outside-1)"/>
<path d="M233.358 102.256C233.124 100.221 233.092 98.1525 233.263 96.0508C233.431 93.9298 233.821 91.8618 234.433 89.8468C235.045 87.8318 235.874 85.9193 236.921 84.1095C237.988 82.2974 239.292 80.6741 240.833 79.2394C242.375 77.8048 244.17 76.6159 246.218 75.6728C248.265 74.7102 250.575 74.0807 253.15 73.7841C255.511 73.5121 257.643 73.5512 259.546 73.9016C261.469 74.2497 263.172 74.8195 264.655 75.6111C266.138 76.4026 267.427 77.3835 268.523 78.5536C269.635 79.7022 270.573 80.9494 271.335 82.2954C272.095 83.622 272.686 85.0075 273.107 86.4518C273.547 87.8938 273.846 89.303 274.004 90.6794C274.238 92.7148 274.271 94.7931 274.102 96.9141C273.932 99.0157 273.541 101.074 272.929 103.089C272.317 105.104 271.478 107.018 270.411 108.83C269.364 110.64 268.07 112.262 266.529 113.696C264.987 115.131 263.192 116.32 261.143 117.263C259.097 118.226 256.786 118.855 254.212 119.152C251.832 119.426 249.69 119.388 247.786 119.038C245.883 118.687 244.18 118.117 242.678 117.328C241.194 116.537 239.897 115.567 238.784 114.418C237.689 113.248 236.76 111.99 235.997 110.644C235.254 109.296 234.664 107.91 234.226 106.487C233.805 105.043 233.516 103.633 233.358 102.256ZM242.317 101.637C242.542 103.595 243.008 105.26 243.714 106.632C244.419 107.984 245.288 109.063 246.321 109.867C247.355 110.671 248.497 111.227 249.749 111.534C251.017 111.82 252.319 111.886 253.654 111.733C255.474 111.523 257.035 111.029 258.338 110.25C259.641 109.472 260.736 108.511 261.625 107.367C262.513 106.224 263.211 104.955 263.717 103.561C264.243 102.165 264.62 100.747 264.846 99.3063C265.093 97.8637 265.215 96.455 265.214 95.0803C265.23 93.6838 265.174 92.4235 265.045 91.2991C264.818 89.3218 264.352 87.6569 263.647 86.3042C262.943 84.9515 262.074 83.8731 261.04 83.069C260.007 82.265 258.856 81.7199 257.587 81.4339C256.336 81.1263 255.043 81.0495 253.707 81.2033C251.888 81.4129 250.327 81.907 249.024 82.6857C247.721 83.4643 246.625 84.4253 245.737 85.5687C244.846 86.6927 244.139 87.9625 243.615 89.3781C243.109 90.7721 242.732 92.1904 242.486 93.6329C242.259 95.0732 242.138 96.4916 242.122 97.888C242.123 99.2628 242.188 100.512 242.317 101.637Z" stroke="black" stroke-width="4" mask="url(#path-1-outside-1)"/>
<path d="M282.014 71.5487L295.02 70.0503L300.457 101.509L300.573 101.495L310.001 68.3244L323.442 66.7758L320.629 110.41L312.297 111.37L315.183 74.0029L315.067 74.0163L303.994 112.326L296.068 113.239L289.432 76.9697L289.316 76.983L287.736 114.199L279.433 115.156L282.014 71.5487Z" stroke="black" stroke-width="4" mask="url(#path-1-outside-1)"/>
<path d="M338.745 65.0423L347.832 63.9953L346.759 75.138L342.466 95.9027L338.14 96.4011L337.672 76.1849L338.745 65.0423ZM335.602 100.17L344.254 99.1733L343.448 107.781L334.796 108.778L335.602 100.17Z" stroke="black" stroke-width="4" mask="url(#path-1-outside-1)"/>
<path d="M358.545 62.7612L367.632 61.7142L366.558 72.8569L362.266 93.6216L357.94 94.12L357.471 73.9038L358.545 62.7612ZM355.402 97.889L364.053 96.8922L363.247 105.5L354.596 106.496L355.402 97.889Z" stroke="black" stroke-width="4" mask="url(#path-1-outside-1)"/>
<path d="M378.344 60.48L387.431 59.4332L386.358 70.5758L382.065 91.3405L377.739 91.8389L377.271 71.6227L378.344 60.48ZM375.201 95.6079L383.853 94.6111L383.047 103.219L374.395 104.215L375.201 95.6079Z" stroke="black" stroke-width="4" mask="url(#path-1-outside-1)"/>
</svg>
