<svg width="476" height="363" viewBox="0 0 476 363" fill="none" xmlns="http://www.w3.org/2000/svg">
<rect x="38.5049" y="176.164" width="405.177" height="73.5946" transform="rotate(-7.52218 38.5049 176.164)" fill="white"/>
<mask id="path-2-outside-1" maskUnits="userSpaceOnUse" x="48.538" y="93.1385" width="394.239" height="185.444" fill="black">
<rect fill="white" x="48.538" y="93.1385" width="394.239" height="185.444"/>
<path d="M60.5367 202.319C60.5827 200.551 60.8754 198.816 61.4148 197.115C61.9542 195.414 62.8049 193.863 63.9669 192.463C65.1262 191.045 66.625 189.84 68.4633 188.85C70.3179 187.839 72.5563 187.152 75.1784 186.789C77.5345 186.464 79.5907 186.489 81.3468 186.866C83.1193 187.221 84.6058 187.819 85.8065 188.66C87.0044 189.482 87.9371 190.486 88.6045 191.672C89.2719 192.858 89.6948 194.097 89.8734 195.389C90.0442 196.624 90.036 197.825 89.8489 198.994C89.6593 200.143 89.2841 201.212 88.7235 202.199C88.1629 203.187 87.4048 204.076 86.449 204.866C85.5123 205.654 84.3632 206.307 83.0018 206.824L83.0176 206.938C83.9742 207.135 84.8464 207.421 85.6341 207.796C86.4192 208.153 87.106 208.639 87.6946 209.254C88.2995 209.848 88.7981 210.583 89.1901 211.458C89.5822 212.334 89.8623 213.379 90.0304 214.595C90.1775 215.659 90.1968 216.78 90.0884 217.957C89.9799 219.133 89.7156 220.303 89.2953 221.465C88.8939 222.624 88.3151 223.759 87.5586 224.871C86.8185 225.961 85.8726 226.963 84.721 227.877C83.5884 228.789 82.2339 229.567 80.6576 230.21C79.084 230.873 77.2806 231.345 75.2475 231.626C72.7584 231.97 70.5287 231.949 68.5583 231.563C66.6095 231.194 64.9293 230.526 63.5177 229.559C62.1034 228.573 60.9738 227.335 60.1288 225.845C59.2811 224.335 58.726 222.631 58.4633 220.731L58.353 219.933L66.3904 218.822C66.6882 220.136 67.0794 221.215 67.5638 222.058C68.0457 222.882 68.6274 223.518 69.3089 223.966C69.9879 224.395 70.7801 224.663 71.6857 224.77C72.6076 224.856 73.6481 224.818 74.8071 224.658C76.1182 224.477 77.2172 224.093 78.1042 223.505C78.9912 222.918 79.6902 222.231 80.201 221.444C80.7282 220.635 81.0726 219.764 81.2342 218.832C81.4148 217.897 81.446 217.002 81.3278 216.147C81.1781 215.064 80.8836 214.194 80.4444 213.539C80.0052 212.883 79.4731 212.395 78.8479 212.075C78.2391 211.733 77.5523 211.528 76.7877 211.459C76.042 211.388 75.2796 211.406 74.5006 211.514L72.1065 211.845L72.2737 205.49C72.697 205.47 73.1297 205.449 73.572 205.426C74.0307 205.382 74.469 205.331 74.887 205.274C75.9891 205.121 76.9846 204.829 77.8736 204.396C78.7626 203.963 79.5097 203.415 80.115 202.75C80.7202 202.085 81.1551 201.309 81.4195 200.42C81.6813 199.513 81.7374 198.517 81.5877 197.434C81.3566 195.762 80.6945 194.615 79.6014 193.991C78.5273 193.365 77.1352 193.17 75.4251 193.407C74.247 193.569 73.2378 193.903 72.3973 194.406C71.5731 194.888 70.8909 195.486 70.3505 196.199C69.8102 196.913 69.3874 197.707 69.0824 198.582C68.7747 199.438 68.5577 200.32 68.4315 201.228L60.5367 202.319Z"/>
<path d="M115.181 191.251L115.067 191.267L108.817 210.14L119.334 208.686L115.181 191.251ZM110.238 183.018L120.47 181.603L131.563 222.767L122.927 223.961L121.019 215.831L106.255 217.871L103.375 226.664L94.0836 227.948L110.238 183.018Z"/>
<path d="M136.687 179.362L170.661 174.666L168.871 217.61L160.092 218.824L161.625 183.263L145.151 185.54L143.647 221.097L134.897 222.306L136.687 179.362Z"/>
<path d="M176.868 198.555C176.592 196.56 176.514 194.527 176.635 192.458C176.753 190.37 177.09 188.329 177.647 186.335C178.204 184.341 178.978 182.443 179.968 180.64C180.977 178.836 182.224 177.211 183.709 175.766C185.194 174.322 186.935 173.113 188.93 172.14C190.923 171.148 193.183 170.478 195.71 170.128C198.028 169.808 200.128 169.798 202.009 170.1C203.91 170.399 205.599 170.921 207.076 171.665C208.554 172.41 209.845 173.345 210.949 174.47C212.07 175.574 213.021 176.778 213.802 178.084C214.58 179.371 215.192 180.719 215.639 182.129C216.104 183.536 216.431 184.914 216.617 186.263C216.893 188.259 216.972 190.3 216.854 192.388C216.733 194.458 216.394 196.489 215.837 198.483C215.28 200.477 214.497 202.377 213.488 204.182C212.498 205.984 211.26 207.607 209.775 209.052C208.29 210.496 206.55 211.705 204.554 212.678C202.562 213.67 200.302 214.34 197.774 214.69C195.437 215.013 193.328 215.024 191.447 214.722C189.566 214.421 187.877 213.899 186.38 213.157C184.902 212.412 183.603 211.488 182.482 210.384C181.378 209.259 180.435 208.044 179.654 206.738C178.893 205.43 178.28 204.081 177.817 202.693C177.371 201.283 177.054 199.904 176.868 198.555ZM185.673 197.744C185.938 199.663 186.434 201.289 187.16 202.622C187.884 203.935 188.764 204.975 189.799 205.742C190.834 206.509 191.971 207.03 193.21 207.304C194.465 207.557 195.748 207.592 197.059 207.411C198.845 207.164 200.37 206.643 201.635 205.849C202.9 205.054 203.957 204.085 204.806 202.942C205.655 201.798 206.313 200.536 206.781 199.154C207.267 197.77 207.606 196.368 207.797 194.947C208.007 193.524 208.096 192.137 208.064 190.786C208.048 189.413 207.964 188.176 207.812 187.074C207.544 185.136 207.048 183.51 206.325 182.196C205.601 180.883 204.721 179.843 203.686 179.076C202.65 178.309 201.505 177.799 200.25 177.546C199.012 177.272 197.737 177.226 196.426 177.407C194.64 177.654 193.114 178.175 191.849 178.969C190.584 179.764 189.527 180.733 188.678 181.876C187.827 183.001 187.159 184.265 186.676 185.668C186.208 187.049 185.869 188.451 185.66 189.875C185.469 191.295 185.381 192.692 185.396 194.065C185.428 195.416 185.52 196.642 185.673 197.744Z"/>
<path d="M250.093 171.034L238.009 172.705L236.108 195.1C235.914 197.335 235.605 199.372 235.181 201.212C234.774 203.03 234.161 204.616 233.341 205.968C232.537 207.299 231.487 208.384 230.189 209.222C228.91 210.057 227.311 210.607 225.392 210.872C224.423 211.006 223.518 211.044 222.678 210.986C221.839 210.947 220.929 210.802 219.945 210.55L220.131 202.857C220.749 202.984 221.34 203.058 221.904 203.076C222.484 203.074 222.908 203.054 223.174 203.017C223.592 202.959 223.978 202.886 224.334 202.798C224.687 202.692 225.01 202.502 225.301 202.229C225.593 201.956 225.849 201.572 226.071 201.077C226.31 200.56 226.533 199.861 226.74 198.98C226.945 198.081 227.13 196.971 227.296 195.65C227.479 194.308 227.661 192.686 227.843 190.782L230.029 166.459L259.157 162.433L257.339 205.382L248.589 206.591L250.093 171.034Z"/>
<path d="M267.394 161.294L276.144 160.085L275.439 176.419L291.827 174.154L292.561 157.816L301.311 156.606L299.464 199.559L290.685 200.772L291.546 181.57L275.157 183.835L274.297 203.038L265.547 204.247L267.394 161.294Z"/>
<path d="M309.633 155.456L318.383 154.246L317.06 182.923L317.174 182.907L334.144 152.068L343.492 150.775L341.645 193.728L332.867 194.941L335.249 165.102L335.135 165.117L316.707 197.175L307.729 198.416L309.633 155.456Z"/>
<path d="M377.494 153.424L365.409 155.095L363.509 177.49C363.314 179.724 363.005 181.762 362.582 183.602C362.175 185.42 361.561 187.006 360.741 188.358C359.938 189.689 358.887 190.774 357.589 191.611C356.311 192.446 354.712 192.997 352.793 193.262C351.824 193.396 350.919 193.434 350.078 193.376C349.24 193.337 348.329 193.191 347.346 192.94L347.531 185.246C348.149 185.374 348.74 185.447 349.304 185.466C349.885 185.463 350.308 185.443 350.574 185.407C350.992 185.349 351.379 185.276 351.735 185.188C352.088 185.081 352.41 184.891 352.702 184.619C352.993 184.346 353.25 183.962 353.472 183.467C353.71 182.95 353.933 182.251 354.141 181.37C354.345 180.47 354.531 179.36 354.697 178.04C354.879 176.698 355.062 175.075 355.244 173.172L357.43 148.849L386.558 144.823L384.739 187.771L375.989 188.981L377.494 153.424Z"/>
<path d="M394.852 143.676L403.602 142.467L402.279 171.143L402.393 171.128L419.363 140.288L428.711 138.996L426.864 181.948L418.086 183.162L420.467 153.322L420.353 153.338L401.926 185.396L392.948 186.637L394.852 143.676Z"/>
</mask>
<path d="M60.5367 202.319C60.5827 200.551 60.8754 198.816 61.4148 197.115C61.9542 195.414 62.8049 193.863 63.9669 192.463C65.1262 191.045 66.625 189.84 68.4633 188.85C70.3179 187.839 72.5563 187.152 75.1784 186.789C77.5345 186.464 79.5907 186.489 81.3468 186.866C83.1193 187.221 84.6058 187.819 85.8065 188.66C87.0044 189.482 87.9371 190.486 88.6045 191.672C89.2719 192.858 89.6948 194.097 89.8734 195.389C90.0442 196.624 90.036 197.825 89.8489 198.994C89.6593 200.143 89.2841 201.212 88.7235 202.199C88.1629 203.187 87.4048 204.076 86.449 204.866C85.5123 205.654 84.3632 206.307 83.0018 206.824L83.0176 206.938C83.9742 207.135 84.8464 207.421 85.6341 207.796C86.4192 208.153 87.106 208.639 87.6946 209.254C88.2995 209.848 88.7981 210.583 89.1901 211.458C89.5822 212.334 89.8623 213.379 90.0304 214.595C90.1775 215.659 90.1968 216.78 90.0884 217.957C89.9799 219.133 89.7156 220.303 89.2953 221.465C88.8939 222.624 88.3151 223.759 87.5586 224.871C86.8185 225.961 85.8726 226.963 84.721 227.877C83.5884 228.789 82.2339 229.567 80.6576 230.21C79.084 230.873 77.2806 231.345 75.2475 231.626C72.7584 231.97 70.5287 231.949 68.5583 231.563C66.6095 231.194 64.9293 230.526 63.5177 229.559C62.1034 228.573 60.9738 227.335 60.1288 225.845C59.2811 224.335 58.726 222.631 58.4633 220.731L58.353 219.933L66.3904 218.822C66.6882 220.136 67.0794 221.215 67.5638 222.058C68.0457 222.882 68.6274 223.518 69.3089 223.966C69.9879 224.395 70.7801 224.663 71.6857 224.77C72.6076 224.856 73.6481 224.818 74.8071 224.658C76.1182 224.477 77.2172 224.093 78.1042 223.505C78.9912 222.918 79.6902 222.231 80.201 221.444C80.7282 220.635 81.0726 219.764 81.2342 218.832C81.4148 217.897 81.446 217.002 81.3278 216.147C81.1781 215.064 80.8836 214.194 80.4444 213.539C80.0052 212.883 79.4731 212.395 78.8479 212.075C78.2391 211.733 77.5523 211.528 76.7877 211.459C76.042 211.388 75.2796 211.406 74.5006 211.514L72.1065 211.845L72.2737 205.49C72.697 205.47 73.1297 205.449 73.572 205.426C74.0307 205.382 74.469 205.331 74.887 205.274C75.9891 205.121 76.9846 204.829 77.8736 204.396C78.7626 203.963 79.5097 203.415 80.115 202.75C80.7202 202.085 81.1551 201.309 81.4195 200.42C81.6813 199.513 81.7374 198.517 81.5877 197.434C81.3566 195.762 80.6945 194.615 79.6014 193.991C78.5273 193.365 77.1352 193.17 75.4251 193.407C74.247 193.569 73.2378 193.903 72.3973 194.406C71.5731 194.888 70.8909 195.486 70.3505 196.199C69.8102 196.913 69.3874 197.707 69.0824 198.582C68.7747 199.438 68.5577 200.32 68.4315 201.228L60.5367 202.319Z" fill="url(#paint0_linear)"/>
<path d="M115.181 191.251L115.067 191.267L108.817 210.14L119.334 208.686L115.181 191.251ZM110.238 183.018L120.47 181.603L131.563 222.767L122.927 223.961L121.019 215.831L106.255 217.871L103.375 226.664L94.0836 227.948L110.238 183.018Z" fill="url(#paint1_linear)"/>
<path d="M136.687 179.362L170.661 174.666L168.871 217.61L160.092 218.824L161.625 183.263L145.151 185.54L143.647 221.097L134.897 222.306L136.687 179.362Z" fill="url(#paint2_linear)"/>
<path d="M176.868 198.555C176.592 196.56 176.514 194.527 176.635 192.458C176.753 190.37 177.09 188.329 177.647 186.335C178.204 184.341 178.978 182.443 179.968 180.64C180.977 178.836 182.224 177.211 183.709 175.766C185.194 174.322 186.935 173.113 188.93 172.14C190.923 171.148 193.183 170.478 195.71 170.128C198.028 169.808 200.128 169.798 202.009 170.1C203.91 170.399 205.599 170.921 207.076 171.665C208.554 172.41 209.845 173.345 210.949 174.47C212.07 175.574 213.021 176.778 213.802 178.084C214.58 179.371 215.192 180.719 215.639 182.129C216.104 183.536 216.431 184.914 216.617 186.263C216.893 188.259 216.972 190.3 216.854 192.388C216.733 194.458 216.394 196.489 215.837 198.483C215.28 200.477 214.497 202.377 213.488 204.182C212.498 205.984 211.26 207.607 209.775 209.052C208.29 210.496 206.55 211.705 204.554 212.678C202.562 213.67 200.302 214.34 197.774 214.69C195.437 215.013 193.328 215.024 191.447 214.722C189.566 214.421 187.877 213.899 186.38 213.157C184.902 212.412 183.603 211.488 182.482 210.384C181.378 209.259 180.435 208.044 179.654 206.738C178.893 205.43 178.28 204.081 177.817 202.693C177.371 201.283 177.054 199.904 176.868 198.555ZM185.673 197.744C185.938 199.663 186.434 201.289 187.16 202.622C187.884 203.935 188.764 204.975 189.799 205.742C190.834 206.509 191.971 207.03 193.21 207.304C194.465 207.557 195.748 207.592 197.059 207.411C198.845 207.164 200.37 206.643 201.635 205.849C202.9 205.054 203.957 204.085 204.806 202.942C205.655 201.798 206.313 200.536 206.781 199.154C207.267 197.77 207.606 196.368 207.797 194.947C208.007 193.524 208.096 192.137 208.064 190.786C208.048 189.413 207.964 188.176 207.812 187.074C207.544 185.136 207.048 183.51 206.325 182.196C205.601 180.883 204.721 179.843 203.686 179.076C202.65 178.309 201.505 177.799 200.25 177.546C199.012 177.272 197.737 177.226 196.426 177.407C194.64 177.654 193.114 178.175 191.849 178.969C190.584 179.764 189.527 180.733 188.678 181.876C187.827 183.001 187.159 184.265 186.676 185.668C186.208 187.049 185.869 188.451 185.66 189.875C185.469 191.295 185.381 192.692 185.396 194.065C185.428 195.416 185.52 196.642 185.673 197.744Z" fill="url(#paint3_linear)"/>
<path d="M250.093 171.034L238.009 172.705L236.108 195.1C235.914 197.335 235.605 199.372 235.181 201.212C234.774 203.03 234.161 204.616 233.341 205.968C232.537 207.299 231.487 208.384 230.189 209.222C228.91 210.057 227.311 210.607 225.392 210.872C224.423 211.006 223.518 211.044 222.678 210.986C221.839 210.947 220.929 210.802 219.945 210.55L220.131 202.857C220.749 202.984 221.34 203.058 221.904 203.076C222.484 203.074 222.908 203.054 223.174 203.017C223.592 202.959 223.978 202.886 224.334 202.798C224.687 202.692 225.01 202.502 225.301 202.229C225.593 201.956 225.849 201.572 226.071 201.077C226.31 200.56 226.533 199.861 226.74 198.98C226.945 198.081 227.13 196.971 227.296 195.65C227.479 194.308 227.661 192.686 227.843 190.782L230.029 166.459L259.157 162.433L257.339 205.382L248.589 206.591L250.093 171.034Z" fill="url(#paint4_linear)"/>
<path d="M267.394 161.294L276.144 160.085L275.439 176.419L291.827 174.154L292.561 157.816L301.311 156.606L299.464 199.559L290.685 200.772L291.546 181.57L275.157 183.835L274.297 203.038L265.547 204.247L267.394 161.294Z" fill="url(#paint5_linear)"/>
<path d="M309.633 155.456L318.383 154.246L317.06 182.923L317.174 182.907L334.144 152.068L343.492 150.775L341.645 193.728L332.867 194.941L335.249 165.102L335.135 165.117L316.707 197.175L307.729 198.416L309.633 155.456Z" fill="url(#paint6_linear)"/>
<path d="M377.494 153.424L365.409 155.095L363.509 177.49C363.314 179.724 363.005 181.762 362.582 183.602C362.175 185.42 361.561 187.006 360.741 188.358C359.938 189.689 358.887 190.774 357.589 191.611C356.311 192.446 354.712 192.997 352.793 193.262C351.824 193.396 350.919 193.434 350.078 193.376C349.24 193.337 348.329 193.191 347.346 192.94L347.531 185.246C348.149 185.374 348.74 185.447 349.304 185.466C349.885 185.463 350.308 185.443 350.574 185.407C350.992 185.349 351.379 185.276 351.735 185.188C352.088 185.081 352.41 184.891 352.702 184.619C352.993 184.346 353.25 183.962 353.472 183.467C353.71 182.95 353.933 182.251 354.141 181.37C354.345 180.47 354.531 179.36 354.697 178.04C354.879 176.698 355.062 175.075 355.244 173.172L357.43 148.849L386.558 144.823L384.739 187.771L375.989 188.981L377.494 153.424Z" fill="url(#paint7_linear)"/>
<path d="M394.852 143.676L403.602 142.467L402.279 171.143L402.393 171.128L419.363 140.288L428.711 138.996L426.864 181.948L418.086 183.162L420.467 153.322L420.353 153.338L401.926 185.396L392.948 186.637L394.852 143.676Z" fill="url(#paint8_linear)"/>
<path d="M60.5367 202.319C60.5827 200.551 60.8754 198.816 61.4148 197.115C61.9542 195.414 62.8049 193.863 63.9669 192.463C65.1262 191.045 66.625 189.84 68.4633 188.85C70.3179 187.839 72.5563 187.152 75.1784 186.789C77.5345 186.464 79.5907 186.489 81.3468 186.866C83.1193 187.221 84.6058 187.819 85.8065 188.66C87.0044 189.482 87.9371 190.486 88.6045 191.672C89.2719 192.858 89.6948 194.097 89.8734 195.389C90.0442 196.624 90.036 197.825 89.8489 198.994C89.6593 200.143 89.2841 201.212 88.7235 202.199C88.1629 203.187 87.4048 204.076 86.449 204.866C85.5123 205.654 84.3632 206.307 83.0018 206.824L83.0176 206.938C83.9742 207.135 84.8464 207.421 85.6341 207.796C86.4192 208.153 87.106 208.639 87.6946 209.254C88.2995 209.848 88.7981 210.583 89.1901 211.458C89.5822 212.334 89.8623 213.379 90.0304 214.595C90.1775 215.659 90.1968 216.78 90.0884 217.957C89.9799 219.133 89.7156 220.303 89.2953 221.465C88.8939 222.624 88.3151 223.759 87.5586 224.871C86.8185 225.961 85.8726 226.963 84.721 227.877C83.5884 228.789 82.2339 229.567 80.6576 230.21C79.084 230.873 77.2806 231.345 75.2475 231.626C72.7584 231.97 70.5287 231.949 68.5583 231.563C66.6095 231.194 64.9293 230.526 63.5177 229.559C62.1034 228.573 60.9738 227.335 60.1288 225.845C59.2811 224.335 58.726 222.631 58.4633 220.731L58.353 219.933L66.3904 218.822C66.6882 220.136 67.0794 221.215 67.5638 222.058C68.0457 222.882 68.6274 223.518 69.3089 223.966C69.9879 224.395 70.7801 224.663 71.6857 224.77C72.6076 224.856 73.6481 224.818 74.8071 224.658C76.1182 224.477 77.2172 224.093 78.1042 223.505C78.9912 222.918 79.6902 222.231 80.201 221.444C80.7282 220.635 81.0726 219.764 81.2342 218.832C81.4148 217.897 81.446 217.002 81.3278 216.147C81.1781 215.064 80.8836 214.194 80.4444 213.539C80.0052 212.883 79.4731 212.395 78.8479 212.075C78.2391 211.733 77.5523 211.528 76.7877 211.459C76.042 211.388 75.2796 211.406 74.5006 211.514L72.1065 211.845L72.2737 205.49C72.697 205.47 73.1297 205.449 73.572 205.426C74.0307 205.382 74.469 205.331 74.887 205.274C75.9891 205.121 76.9846 204.829 77.8736 204.396C78.7626 203.963 79.5097 203.415 80.115 202.75C80.7202 202.085 81.1551 201.309 81.4195 200.42C81.6813 199.513 81.7374 198.517 81.5877 197.434C81.3566 195.762 80.6945 194.615 79.6014 193.991C78.5273 193.365 77.1352 193.17 75.4251 193.407C74.247 193.569 73.2378 193.903 72.3973 194.406C71.5731 194.888 70.8909 195.486 70.3505 196.199C69.8102 196.913 69.3874 197.707 69.0824 198.582C68.7747 199.438 68.5577 200.32 68.4315 201.228L60.5367 202.319Z" stroke="black" stroke-width="4" mask="url(#path-2-outside-1)"/>
<path d="M115.181 191.251L115.067 191.267L108.817 210.14L119.334 208.686L115.181 191.251ZM110.238 183.018L120.47 181.603L131.563 222.767L122.927 223.961L121.019 215.831L106.255 217.871L103.375 226.664L94.0836 227.948L110.238 183.018Z" stroke="black" stroke-width="4" mask="url(#path-2-outside-1)"/>
<path d="M136.687 179.362L170.661 174.666L168.871 217.61L160.092 218.824L161.625 183.263L145.151 185.54L143.647 221.097L134.897 222.306L136.687 179.362Z" stroke="black" stroke-width="4" mask="url(#path-2-outside-1)"/>
<path d="M176.868 198.555C176.592 196.56 176.514 194.527 176.635 192.458C176.753 190.37 177.09 188.329 177.647 186.335C178.204 184.341 178.978 182.443 179.968 180.64C180.977 178.836 182.224 177.211 183.709 175.766C185.194 174.322 186.935 173.113 188.93 172.14C190.923 171.148 193.183 170.478 195.71 170.128C198.028 169.808 200.128 169.798 202.009 170.1C203.91 170.399 205.599 170.921 207.076 171.665C208.554 172.41 209.845 173.345 210.949 174.47C212.07 175.574 213.021 176.778 213.802 178.084C214.58 179.371 215.192 180.719 215.639 182.129C216.104 183.536 216.431 184.914 216.617 186.263C216.893 188.259 216.972 190.3 216.854 192.388C216.733 194.458 216.394 196.489 215.837 198.483C215.28 200.477 214.497 202.377 213.488 204.182C212.498 205.984 211.26 207.607 209.775 209.052C208.29 210.496 206.55 211.705 204.554 212.678C202.562 213.67 200.302 214.34 197.774 214.69C195.437 215.013 193.328 215.024 191.447 214.722C189.566 214.421 187.877 213.899 186.38 213.157C184.902 212.412 183.603 211.488 182.482 210.384C181.378 209.259 180.435 208.044 179.654 206.738C178.893 205.43 178.28 204.081 177.817 202.693C177.371 201.283 177.054 199.904 176.868 198.555ZM185.673 197.744C185.938 199.663 186.434 201.289 187.16 202.622C187.884 203.935 188.764 204.975 189.799 205.742C190.834 206.509 191.971 207.03 193.21 207.304C194.465 207.557 195.748 207.592 197.059 207.411C198.845 207.164 200.37 206.643 201.635 205.849C202.9 205.054 203.957 204.085 204.806 202.942C205.655 201.798 206.313 200.536 206.781 199.154C207.267 197.77 207.606 196.368 207.797 194.947C208.007 193.524 208.096 192.137 208.064 190.786C208.048 189.413 207.964 188.176 207.812 187.074C207.544 185.136 207.048 183.51 206.325 182.196C205.601 180.883 204.721 179.843 203.686 179.076C202.65 178.309 201.505 177.799 200.25 177.546C199.012 177.272 197.737 177.226 196.426 177.407C194.64 177.654 193.114 178.175 191.849 178.969C190.584 179.764 189.527 180.733 188.678 181.876C187.827 183.001 187.159 184.265 186.676 185.668C186.208 187.049 185.869 188.451 185.66 189.875C185.469 191.295 185.381 192.692 185.396 194.065C185.428 195.416 185.52 196.642 185.673 197.744Z" stroke="black" stroke-width="4" mask="url(#path-2-outside-1)"/>
<path d="M250.093 171.034L238.009 172.705L236.108 195.1C235.914 197.335 235.605 199.372 235.181 201.212C234.774 203.03 234.161 204.616 233.341 205.968C232.537 207.299 231.487 208.384 230.189 209.222C228.91 210.057 227.311 210.607 225.392 210.872C224.423 211.006 223.518 211.044 222.678 210.986C221.839 210.947 220.929 210.802 219.945 210.55L220.131 202.857C220.749 202.984 221.34 203.058 221.904 203.076C222.484 203.074 222.908 203.054 223.174 203.017C223.592 202.959 223.978 202.886 224.334 202.798C224.687 202.692 225.01 202.502 225.301 202.229C225.593 201.956 225.849 201.572 226.071 201.077C226.31 200.56 226.533 199.861 226.74 198.98C226.945 198.081 227.13 196.971 227.296 195.65C227.479 194.308 227.661 192.686 227.843 190.782L230.029 166.459L259.157 162.433L257.339 205.382L248.589 206.591L250.093 171.034Z" stroke="black" stroke-width="4" mask="url(#path-2-outside-1)"/>
<path d="M267.394 161.294L276.144 160.085L275.439 176.419L291.827 174.154L292.561 157.816L301.311 156.606L299.464 199.559L290.685 200.772L291.546 181.57L275.157 183.835L274.297 203.038L265.547 204.247L267.394 161.294Z" stroke="black" stroke-width="4" mask="url(#path-2-outside-1)"/>
<path d="M309.633 155.456L318.383 154.246L317.06 182.923L317.174 182.907L334.144 152.068L343.492 150.775L341.645 193.728L332.867 194.941L335.249 165.102L335.135 165.117L316.707 197.175L307.729 198.416L309.633 155.456Z" stroke="black" stroke-width="4" mask="url(#path-2-outside-1)"/>
<path d="M377.494 153.424L365.409 155.095L363.509 177.49C363.314 179.724 363.005 181.762 362.582 183.602C362.175 185.42 361.561 187.006 360.741 188.358C359.938 189.689 358.887 190.774 357.589 191.611C356.311 192.446 354.712 192.997 352.793 193.262C351.824 193.396 350.919 193.434 350.078 193.376C349.24 193.337 348.329 193.191 347.346 192.94L347.531 185.246C348.149 185.374 348.74 185.447 349.304 185.466C349.885 185.463 350.308 185.443 350.574 185.407C350.992 185.349 351.379 185.276 351.735 185.188C352.088 185.081 352.41 184.891 352.702 184.619C352.993 184.346 353.25 183.962 353.472 183.467C353.71 182.95 353.933 182.251 354.141 181.37C354.345 180.47 354.531 179.36 354.697 178.04C354.879 176.698 355.062 175.075 355.244 173.172L357.43 148.849L386.558 144.823L384.739 187.771L375.989 188.981L377.494 153.424Z" stroke="black" stroke-width="4" mask="url(#path-2-outside-1)"/>
<path d="M394.852 143.676L403.602 142.467L402.279 171.143L402.393 171.128L419.363 140.288L428.711 138.996L426.864 181.948L418.086 183.162L420.467 153.322L420.353 153.338L401.926 185.396L392.948 186.637L394.852 143.676Z" stroke="black" stroke-width="4" mask="url(#path-2-outside-1)"/>
<rect x="27.999" y="100.797" width="290.437" height="73.5946" transform="rotate(-7.52218 27.999 100.797)" fill="white"/>
<path d="M51.4303 113.329L50.6029 113.443L50.5681 114.278L48.7781 157.223L48.7283 158.419L49.9142 158.255L58.6641 157.045L59.491 156.931L59.5262 156.097L60.9952 121.374L75.4544 119.376L73.9733 153.738L73.9217 154.936L75.1093 154.772L83.8877 153.559L84.7151 153.444L84.7499 152.61L86.5399 109.665L86.5897 108.469L85.4038 108.633L51.4303 113.329ZM106.096 105.773L105.496 105.855L105.292 106.425L89.137 151.355L88.5778 152.91L90.2149 152.684L99.5063 151.4L100.125 151.314L100.32 150.72L103.005 142.522L116.248 140.691L117.948 147.935L118.156 148.822L119.058 148.697L127.694 147.503L128.818 147.348L128.523 146.253L117.43 105.089L117.201 104.237L116.328 104.358L106.096 105.773ZM133.115 102.038L132.288 102.152L132.253 102.987L130.463 145.931L130.413 147.128L131.599 146.964L140.292 145.762L141.123 145.647L141.154 144.808L141.607 132.512L145.139 127.846L155.4 143.107L155.748 143.626L156.366 143.54L166.114 142.193L167.735 141.969L166.796 140.628L151.615 118.973L166.178 99.181L167.582 97.2734L165.236 97.5977L154.377 99.0987L153.953 99.1573L153.703 99.504L142.112 115.561L142.829 101.895L142.893 100.686L141.694 100.852L133.115 102.038ZM171.478 96.7349L170.65 96.8493L170.615 97.6839L168.825 140.629L168.776 141.825L169.961 141.661L198.976 137.65L199.806 137.536L199.838 136.698L200.12 129.281L200.165 128.089L198.984 128.253L179.958 130.882L180.31 121.728L197.093 119.408L197.924 119.294L197.956 118.456L198.237 111.039L198.283 109.847L197.101 110.011L180.609 112.29L180.877 104.803L199.311 102.255L200.141 102.14L200.174 101.303L200.46 93.9151L200.506 92.7224L199.323 92.8859L171.478 96.7349ZM224.136 98.8236L233.171 97.5748L233.994 97.461L234.033 96.6305L234.376 89.2346L234.431 88.033L233.24 88.1977L203.542 92.3028L202.718 92.4166L202.68 93.2471L202.337 100.643L202.281 101.845L203.473 101.68L213.373 100.311L211.919 134.671L211.869 135.868L213.055 135.704L221.805 134.495L222.632 134.38L222.667 133.546L224.136 98.8236ZM239.311 87.3585L238.484 87.4728L238.448 88.3068L236.63 131.256L236.579 132.452L237.766 132.288L257.688 129.535C260.074 129.205 262.128 128.652 263.826 127.857L263.833 127.854C265.503 127.056 266.909 126.132 268.029 125.07L268.036 125.062C269.134 123.998 269.985 122.846 270.567 121.603C271.135 120.402 271.542 119.218 271.78 118.053L271.781 118.048C272.009 116.896 272.119 115.804 272.103 114.776L272.103 114.773C272.085 113.786 272.031 112.946 271.937 112.265C271.687 110.451 271.163 108.819 270.352 107.385C269.547 105.91 268.433 104.709 267.022 103.79C265.6 102.847 263.889 102.239 261.922 101.936C259.936 101.613 257.667 101.639 255.13 101.989L248.535 102.901L249.196 87.1817L249.247 85.9851L248.06 86.149L239.311 87.3585ZM260.622 112.195L260.633 112.211L260.644 112.227C260.911 112.606 261.125 113.16 261.234 113.948C261.385 115.044 261.331 115.937 261.117 116.654C260.903 117.375 260.53 117.984 259.991 118.497C259.453 119.003 258.743 119.441 257.832 119.795C256.901 120.136 255.804 120.398 254.533 120.574L247.737 121.514L248.122 112.006L255.701 110.958C256.539 110.843 257.298 110.811 257.982 110.855C258.635 110.897 259.158 111.04 259.577 111.256L259.584 111.259L259.592 111.263C260.005 111.467 260.347 111.77 260.622 112.195ZM277.474 82.0833L276.646 82.1977L276.612 83.0323L274.822 125.977L274.772 127.173L275.958 127.009L284.707 125.8L285.535 125.685L285.57 124.851L287.36 81.9061L287.41 80.7099L286.224 80.8738L277.474 82.0833ZM106.266 132.674L110.973 118.461L114.1 131.592L106.266 132.674Z" fill="url(#paint9_linear)" stroke="black" stroke-width="2"/>
<rect x="48.9819" y="252.332" width="299.993" height="73.5946" transform="rotate(-7.52218 48.9819 252.332)" fill="white"/>
<mask id="path-6-outside-2" maskUnits="userSpaceOnUse" x="56.5679" y="201.099" width="268.921" height="143.218" fill="black">
<rect fill="white" x="56.5679" y="201.099" width="268.921" height="143.218"/>
<path d="M72.6621 265.825L98.9972 262.185L98.6544 269.581L81.0691 272.012L79.5079 307.576L70.758 308.786L72.6621 265.825Z"/>
<path d="M101.727 286.555C101.451 284.56 101.373 282.527 101.494 280.458C101.612 278.37 101.95 276.329 102.507 274.335C103.064 272.341 103.837 270.443 104.827 268.641C105.837 266.836 107.084 265.211 108.569 263.767C110.054 262.322 111.794 261.113 113.789 260.14C115.782 259.148 118.042 258.478 120.569 258.128C122.888 257.808 124.987 257.799 126.868 258.1C128.769 258.399 130.458 258.921 131.935 259.665C133.413 260.41 134.704 261.345 135.809 262.47C136.929 263.574 137.88 264.779 138.661 266.084C139.439 267.371 140.051 268.719 140.498 270.129C140.964 271.536 141.29 272.914 141.476 274.264C141.752 276.259 141.831 278.3 141.713 280.389C141.592 282.458 141.253 284.489 140.696 286.483C140.139 288.477 139.356 290.377 138.347 292.182C137.357 293.984 136.119 295.607 134.634 297.052C133.149 298.496 131.409 299.705 129.414 300.678C127.421 301.67 125.161 302.341 122.634 302.69C120.296 303.013 118.187 303.024 116.306 302.722C114.425 302.421 112.736 301.899 111.239 301.157C109.761 300.412 108.462 299.488 107.341 298.385C106.237 297.259 105.294 296.044 104.514 294.738C103.752 293.43 103.139 292.081 102.676 290.693C102.23 289.283 101.913 287.904 101.727 286.555ZM110.532 285.744C110.797 287.663 111.293 289.289 112.019 290.622C112.743 291.935 113.623 292.975 114.658 293.742C115.694 294.509 116.831 295.03 118.069 295.304C119.324 295.557 120.607 295.592 121.918 295.411C123.704 295.164 125.23 294.644 126.495 293.849C127.76 293.055 128.816 292.085 129.665 290.942C130.514 289.798 131.172 288.536 131.64 287.154C132.126 285.77 132.465 284.368 132.656 282.948C132.866 281.524 132.955 280.137 132.923 278.786C132.907 277.413 132.823 276.176 132.671 275.074C132.403 273.136 131.907 271.51 131.184 270.197C130.46 268.883 129.58 267.843 128.545 267.076C127.509 266.309 126.364 265.799 125.109 265.547C123.871 265.272 122.596 265.226 121.285 265.407C119.499 265.654 117.973 266.175 116.708 266.969C115.443 267.764 114.386 268.733 113.538 269.876C112.686 271.001 112.019 272.265 111.535 273.668C111.067 275.049 110.729 276.451 110.519 277.875C110.328 279.295 110.24 280.692 110.256 282.065C110.287 283.416 110.379 284.642 110.532 285.744Z"/>
<path d="M149.159 255.251L163.581 253.258C166.298 252.882 168.634 252.898 170.588 253.306C172.558 253.692 174.2 254.365 175.514 255.326C176.845 256.265 177.868 257.431 178.583 258.823C179.314 260.194 179.791 261.677 180.011 263.273C180.339 265.648 180.273 267.826 179.811 269.807C179.368 271.785 178.524 273.528 177.28 275.036C176.037 276.544 174.399 277.797 172.368 278.794C170.356 279.789 167.944 280.48 165.132 280.869L156.724 282.031L156.119 296.986L147.369 298.196L149.159 255.251ZM157.063 274.607L164.844 273.531C166.231 273.34 167.392 272.986 168.328 272.469C169.263 271.952 170 271.328 170.538 270.595C171.094 269.86 171.466 269.043 171.652 268.146C171.835 267.23 171.859 266.288 171.725 265.319C171.618 264.54 171.422 263.821 171.137 263.164C170.869 262.484 170.471 261.919 169.944 261.469C169.415 261 168.74 260.668 167.918 260.471C167.116 260.273 166.136 260.253 164.977 260.413L157.623 261.43L157.063 274.607Z"/>
<path d="M186.09 274.893C185.815 272.898 185.737 270.866 185.858 268.797C185.976 266.709 186.313 264.667 186.87 262.673C187.427 260.679 188.201 258.781 189.191 256.979C190.2 255.174 191.447 253.55 192.932 252.105C194.417 250.661 196.158 249.452 198.153 248.479C200.146 247.487 202.406 246.816 204.933 246.467C207.251 246.147 209.351 246.137 211.232 246.439C213.132 246.738 214.821 247.259 216.299 248.004C217.777 248.748 219.068 249.683 220.172 250.809C221.293 251.912 222.244 253.117 223.025 254.423C223.803 255.709 224.415 257.058 224.862 258.468C225.327 259.875 225.653 261.253 225.84 262.602C226.116 264.597 226.195 266.639 226.077 268.727C225.956 270.796 225.617 272.828 225.06 274.822C224.503 276.816 223.72 278.715 222.711 280.52C221.721 282.322 220.483 283.946 218.998 285.39C217.513 286.835 215.773 288.044 213.777 289.017C211.784 290.008 209.524 290.679 206.997 291.028C204.66 291.351 202.551 291.362 200.67 291.061C198.789 290.759 197.099 290.238 195.603 289.496C194.125 288.751 192.826 287.827 191.705 286.723C190.601 285.598 189.658 284.382 188.877 283.077C188.115 281.768 187.503 280.42 187.04 279.032C186.594 277.622 186.277 276.242 186.09 274.893ZM194.896 274.083C195.161 276.002 195.657 277.628 196.383 278.96C197.107 280.274 197.986 281.314 199.022 282.081C200.057 282.848 201.194 283.369 202.433 283.643C203.688 283.895 204.971 283.931 206.282 283.75C208.068 283.503 209.593 282.982 210.858 282.188C212.123 281.393 213.18 280.424 214.029 279.28C214.878 278.137 215.536 276.874 216.003 275.493C216.49 274.109 216.829 272.707 217.019 271.286C217.229 269.863 217.318 268.476 217.287 267.125C217.271 265.752 217.187 264.515 217.035 263.413C216.767 261.475 216.271 259.849 215.547 258.535C214.824 257.222 213.944 256.181 212.909 255.414C211.873 254.647 210.728 254.138 209.473 253.885C208.235 253.611 206.96 253.565 205.649 253.746C203.863 253.993 202.337 254.513 201.072 255.308C199.807 256.102 198.75 257.071 197.901 258.215C197.05 259.34 196.382 260.603 195.898 262.006C195.431 263.388 195.092 264.79 194.882 266.213C194.692 267.634 194.604 269.03 194.619 270.403C194.651 271.754 194.743 272.981 194.896 274.083Z"/>
<path d="M229.193 279.508L232.129 279.102C232.976 277.804 233.729 276.248 234.388 274.433C235.064 272.597 235.663 270.626 236.185 268.521C236.705 266.396 237.154 264.185 237.534 261.886C237.929 259.566 238.262 257.283 238.533 255.038C238.82 252.772 239.051 250.591 239.226 248.494C239.398 246.379 239.54 244.462 239.651 242.743L266.955 238.969L265.447 274.497L269.01 274.004L268.401 290.615L260.563 291.699L260.861 282.508L236.749 285.841L236.48 295.028L228.585 296.119L229.193 279.508ZM257.919 247.566L247.117 249.059C246.959 251.695 246.763 254.201 246.53 256.576C246.297 258.951 245.981 261.29 245.583 263.591C245.184 265.892 244.67 268.2 244.041 270.514C243.431 272.825 242.672 275.244 241.762 277.771L256.754 275.698L257.919 247.566Z"/>
<path d="M277.301 271.58L285.937 270.386L285.315 279.128L276.68 280.322L277.301 271.58Z"/>
<path d="M293.547 269.335L302.183 268.141L301.561 276.882L292.925 278.076L293.547 269.335Z"/>
<path d="M309.793 267.089L318.428 265.895L317.807 274.637L309.171 275.83L309.793 267.089Z"/>
</mask>
<path d="M72.6621 265.825L98.9972 262.185L98.6544 269.581L81.0691 272.012L79.5079 307.576L70.758 308.786L72.6621 265.825Z" fill="url(#paint10_linear)"/>
<path d="M101.727 286.555C101.451 284.56 101.373 282.527 101.494 280.458C101.612 278.37 101.95 276.329 102.507 274.335C103.064 272.341 103.837 270.443 104.827 268.641C105.837 266.836 107.084 265.211 108.569 263.767C110.054 262.322 111.794 261.113 113.789 260.14C115.782 259.148 118.042 258.478 120.569 258.128C122.888 257.808 124.987 257.799 126.868 258.1C128.769 258.399 130.458 258.921 131.935 259.665C133.413 260.41 134.704 261.345 135.809 262.47C136.929 263.574 137.88 264.779 138.661 266.084C139.439 267.371 140.051 268.719 140.498 270.129C140.964 271.536 141.29 272.914 141.476 274.264C141.752 276.259 141.831 278.3 141.713 280.389C141.592 282.458 141.253 284.489 140.696 286.483C140.139 288.477 139.356 290.377 138.347 292.182C137.357 293.984 136.119 295.607 134.634 297.052C133.149 298.496 131.409 299.705 129.414 300.678C127.421 301.67 125.161 302.341 122.634 302.69C120.296 303.013 118.187 303.024 116.306 302.722C114.425 302.421 112.736 301.899 111.239 301.157C109.761 300.412 108.462 299.488 107.341 298.385C106.237 297.259 105.294 296.044 104.514 294.738C103.752 293.43 103.139 292.081 102.676 290.693C102.23 289.283 101.913 287.904 101.727 286.555ZM110.532 285.744C110.797 287.663 111.293 289.289 112.019 290.622C112.743 291.935 113.623 292.975 114.658 293.742C115.694 294.509 116.831 295.03 118.069 295.304C119.324 295.557 120.607 295.592 121.918 295.411C123.704 295.164 125.23 294.644 126.495 293.849C127.76 293.055 128.816 292.085 129.665 290.942C130.514 289.798 131.172 288.536 131.64 287.154C132.126 285.77 132.465 284.368 132.656 282.948C132.866 281.524 132.955 280.137 132.923 278.786C132.907 277.413 132.823 276.176 132.671 275.074C132.403 273.136 131.907 271.51 131.184 270.197C130.46 268.883 129.58 267.843 128.545 267.076C127.509 266.309 126.364 265.799 125.109 265.547C123.871 265.272 122.596 265.226 121.285 265.407C119.499 265.654 117.973 266.175 116.708 266.969C115.443 267.764 114.386 268.733 113.538 269.876C112.686 271.001 112.019 272.265 111.535 273.668C111.067 275.049 110.729 276.451 110.519 277.875C110.328 279.295 110.24 280.692 110.256 282.065C110.287 283.416 110.379 284.642 110.532 285.744Z" fill="url(#paint11_linear)"/>
<path d="M149.159 255.251L163.581 253.258C166.298 252.882 168.634 252.898 170.588 253.306C172.558 253.692 174.2 254.365 175.514 255.326C176.845 256.265 177.868 257.431 178.583 258.823C179.314 260.194 179.791 261.677 180.011 263.273C180.339 265.648 180.273 267.826 179.811 269.807C179.368 271.785 178.524 273.528 177.28 275.036C176.037 276.544 174.399 277.797 172.368 278.794C170.356 279.789 167.944 280.48 165.132 280.869L156.724 282.031L156.119 296.986L147.369 298.196L149.159 255.251ZM157.063 274.607L164.844 273.531C166.231 273.34 167.392 272.986 168.328 272.469C169.263 271.952 170 271.328 170.538 270.595C171.094 269.86 171.466 269.043 171.652 268.146C171.835 267.23 171.859 266.288 171.725 265.319C171.618 264.54 171.422 263.821 171.137 263.164C170.869 262.484 170.471 261.919 169.944 261.469C169.415 261 168.74 260.668 167.918 260.471C167.116 260.273 166.136 260.253 164.977 260.413L157.623 261.43L157.063 274.607Z" fill="url(#paint12_linear)"/>
<path d="M186.09 274.893C185.815 272.898 185.737 270.866 185.858 268.797C185.976 266.709 186.313 264.667 186.87 262.673C187.427 260.679 188.201 258.781 189.191 256.979C190.2 255.174 191.447 253.55 192.932 252.105C194.417 250.661 196.158 249.452 198.153 248.479C200.146 247.487 202.406 246.816 204.933 246.467C207.251 246.147 209.351 246.137 211.232 246.439C213.132 246.738 214.821 247.259 216.299 248.004C217.777 248.748 219.068 249.683 220.172 250.809C221.293 251.912 222.244 253.117 223.025 254.423C223.803 255.709 224.415 257.058 224.862 258.468C225.327 259.875 225.653 261.253 225.84 262.602C226.116 264.597 226.195 266.639 226.077 268.727C225.956 270.796 225.617 272.828 225.06 274.822C224.503 276.816 223.72 278.715 222.711 280.52C221.721 282.322 220.483 283.946 218.998 285.39C217.513 286.835 215.773 288.044 213.777 289.017C211.784 290.008 209.524 290.679 206.997 291.028C204.66 291.351 202.551 291.362 200.67 291.061C198.789 290.759 197.099 290.238 195.603 289.496C194.125 288.751 192.826 287.827 191.705 286.723C190.601 285.598 189.658 284.382 188.877 283.077C188.115 281.768 187.503 280.42 187.04 279.032C186.594 277.622 186.277 276.242 186.09 274.893ZM194.896 274.083C195.161 276.002 195.657 277.628 196.383 278.96C197.107 280.274 197.986 281.314 199.022 282.081C200.057 282.848 201.194 283.369 202.433 283.643C203.688 283.895 204.971 283.931 206.282 283.75C208.068 283.503 209.593 282.982 210.858 282.188C212.123 281.393 213.18 280.424 214.029 279.28C214.878 278.137 215.536 276.874 216.003 275.493C216.49 274.109 216.829 272.707 217.019 271.286C217.229 269.863 217.318 268.476 217.287 267.125C217.271 265.752 217.187 264.515 217.035 263.413C216.767 261.475 216.271 259.849 215.547 258.535C214.824 257.222 213.944 256.181 212.909 255.414C211.873 254.647 210.728 254.138 209.473 253.885C208.235 253.611 206.96 253.565 205.649 253.746C203.863 253.993 202.337 254.513 201.072 255.308C199.807 256.102 198.75 257.071 197.901 258.215C197.05 259.34 196.382 260.603 195.898 262.006C195.431 263.388 195.092 264.79 194.882 266.213C194.692 267.634 194.604 269.03 194.619 270.403C194.651 271.754 194.743 272.981 194.896 274.083Z" fill="url(#paint13_linear)"/>
<path d="M229.193 279.508L232.129 279.102C232.976 277.804 233.729 276.248 234.388 274.433C235.064 272.597 235.663 270.626 236.185 268.521C236.705 266.396 237.154 264.185 237.534 261.886C237.929 259.566 238.262 257.283 238.533 255.038C238.82 252.772 239.051 250.591 239.226 248.494C239.398 246.379 239.54 244.462 239.651 242.743L266.955 238.969L265.447 274.497L269.01 274.004L268.401 290.615L260.563 291.699L260.861 282.508L236.749 285.841L236.48 295.028L228.585 296.119L229.193 279.508ZM257.919 247.566L247.117 249.059C246.959 251.695 246.763 254.201 246.53 256.576C246.297 258.951 245.981 261.29 245.583 263.591C245.184 265.892 244.67 268.2 244.041 270.514C243.431 272.825 242.672 275.244 241.762 277.771L256.754 275.698L257.919 247.566Z" fill="url(#paint14_linear)"/>
<path d="M277.301 271.58L285.937 270.386L285.315 279.128L276.68 280.322L277.301 271.58Z" fill="url(#paint15_linear)"/>
<path d="M293.547 269.335L302.183 268.141L301.561 276.882L292.925 278.076L293.547 269.335Z" fill="url(#paint16_linear)"/>
<path d="M309.793 267.089L318.428 265.895L317.807 274.637L309.171 275.83L309.793 267.089Z" fill="url(#paint17_linear)"/>
<path d="M72.6621 265.825L98.9972 262.185L98.6544 269.581L81.0691 272.012L79.5079 307.576L70.758 308.786L72.6621 265.825Z" stroke="black" stroke-width="4" mask="url(#path-6-outside-2)"/>
<path d="M101.727 286.555C101.451 284.56 101.373 282.527 101.494 280.458C101.612 278.37 101.95 276.329 102.507 274.335C103.064 272.341 103.837 270.443 104.827 268.641C105.837 266.836 107.084 265.211 108.569 263.767C110.054 262.322 111.794 261.113 113.789 260.14C115.782 259.148 118.042 258.478 120.569 258.128C122.888 257.808 124.987 257.799 126.868 258.1C128.769 258.399 130.458 258.921 131.935 259.665C133.413 260.41 134.704 261.345 135.809 262.47C136.929 263.574 137.88 264.779 138.661 266.084C139.439 267.371 140.051 268.719 140.498 270.129C140.964 271.536 141.29 272.914 141.476 274.264C141.752 276.259 141.831 278.3 141.713 280.389C141.592 282.458 141.253 284.489 140.696 286.483C140.139 288.477 139.356 290.377 138.347 292.182C137.357 293.984 136.119 295.607 134.634 297.052C133.149 298.496 131.409 299.705 129.414 300.678C127.421 301.67 125.161 302.341 122.634 302.69C120.296 303.013 118.187 303.024 116.306 302.722C114.425 302.421 112.736 301.899 111.239 301.157C109.761 300.412 108.462 299.488 107.341 298.385C106.237 297.259 105.294 296.044 104.514 294.738C103.752 293.43 103.139 292.081 102.676 290.693C102.23 289.283 101.913 287.904 101.727 286.555ZM110.532 285.744C110.797 287.663 111.293 289.289 112.019 290.622C112.743 291.935 113.623 292.975 114.658 293.742C115.694 294.509 116.831 295.03 118.069 295.304C119.324 295.557 120.607 295.592 121.918 295.411C123.704 295.164 125.23 294.644 126.495 293.849C127.76 293.055 128.816 292.085 129.665 290.942C130.514 289.798 131.172 288.536 131.64 287.154C132.126 285.77 132.465 284.368 132.656 282.948C132.866 281.524 132.955 280.137 132.923 278.786C132.907 277.413 132.823 276.176 132.671 275.074C132.403 273.136 131.907 271.51 131.184 270.197C130.46 268.883 129.58 267.843 128.545 267.076C127.509 266.309 126.364 265.799 125.109 265.547C123.871 265.272 122.596 265.226 121.285 265.407C119.499 265.654 117.973 266.175 116.708 266.969C115.443 267.764 114.386 268.733 113.538 269.876C112.686 271.001 112.019 272.265 111.535 273.668C111.067 275.049 110.729 276.451 110.519 277.875C110.328 279.295 110.24 280.692 110.256 282.065C110.287 283.416 110.379 284.642 110.532 285.744Z" stroke="black" stroke-width="4" mask="url(#path-6-outside-2)"/>
<path d="M149.159 255.251L163.581 253.258C166.298 252.882 168.634 252.898 170.588 253.306C172.558 253.692 174.2 254.365 175.514 255.326C176.845 256.265 177.868 257.431 178.583 258.823C179.314 260.194 179.791 261.677 180.011 263.273C180.339 265.648 180.273 267.826 179.811 269.807C179.368 271.785 178.524 273.528 177.28 275.036C176.037 276.544 174.399 277.797 172.368 278.794C170.356 279.789 167.944 280.48 165.132 280.869L156.724 282.031L156.119 296.986L147.369 298.196L149.159 255.251ZM157.063 274.607L164.844 273.531C166.231 273.34 167.392 272.986 168.328 272.469C169.263 271.952 170 271.328 170.538 270.595C171.094 269.86 171.466 269.043 171.652 268.146C171.835 267.23 171.859 266.288 171.725 265.319C171.618 264.54 171.422 263.821 171.137 263.164C170.869 262.484 170.471 261.919 169.944 261.469C169.415 261 168.74 260.668 167.918 260.471C167.116 260.273 166.136 260.253 164.977 260.413L157.623 261.43L157.063 274.607Z" stroke="black" stroke-width="4" mask="url(#path-6-outside-2)"/>
<path d="M186.09 274.893C185.815 272.898 185.737 270.866 185.858 268.797C185.976 266.709 186.313 264.667 186.87 262.673C187.427 260.679 188.201 258.781 189.191 256.979C190.2 255.174 191.447 253.55 192.932 252.105C194.417 250.661 196.158 249.452 198.153 248.479C200.146 247.487 202.406 246.816 204.933 246.467C207.251 246.147 209.351 246.137 211.232 246.439C213.132 246.738 214.821 247.259 216.299 248.004C217.777 248.748 219.068 249.683 220.172 250.809C221.293 251.912 222.244 253.117 223.025 254.423C223.803 255.709 224.415 257.058 224.862 258.468C225.327 259.875 225.653 261.253 225.84 262.602C226.116 264.597 226.195 266.639 226.077 268.727C225.956 270.796 225.617 272.828 225.06 274.822C224.503 276.816 223.72 278.715 222.711 280.52C221.721 282.322 220.483 283.946 218.998 285.39C217.513 286.835 215.773 288.044 213.777 289.017C211.784 290.008 209.524 290.679 206.997 291.028C204.66 291.351 202.551 291.362 200.67 291.061C198.789 290.759 197.099 290.238 195.603 289.496C194.125 288.751 192.826 287.827 191.705 286.723C190.601 285.598 189.658 284.382 188.877 283.077C188.115 281.768 187.503 280.42 187.04 279.032C186.594 277.622 186.277 276.242 186.09 274.893ZM194.896 274.083C195.161 276.002 195.657 277.628 196.383 278.96C197.107 280.274 197.986 281.314 199.022 282.081C200.057 282.848 201.194 283.369 202.433 283.643C203.688 283.895 204.971 283.931 206.282 283.75C208.068 283.503 209.593 282.982 210.858 282.188C212.123 281.393 213.18 280.424 214.029 279.28C214.878 278.137 215.536 276.874 216.003 275.493C216.49 274.109 216.829 272.707 217.019 271.286C217.229 269.863 217.318 268.476 217.287 267.125C217.271 265.752 217.187 264.515 217.035 263.413C216.767 261.475 216.271 259.849 215.547 258.535C214.824 257.222 213.944 256.181 212.909 255.414C211.873 254.647 210.728 254.138 209.473 253.885C208.235 253.611 206.96 253.565 205.649 253.746C203.863 253.993 202.337 254.513 201.072 255.308C199.807 256.102 198.75 257.071 197.901 258.215C197.05 259.34 196.382 260.603 195.898 262.006C195.431 263.388 195.092 264.79 194.882 266.213C194.692 267.634 194.604 269.03 194.619 270.403C194.651 271.754 194.743 272.981 194.896 274.083Z" stroke="black" stroke-width="4" mask="url(#path-6-outside-2)"/>
<path d="M229.193 279.508L232.129 279.102C232.976 277.804 233.729 276.248 234.388 274.433C235.064 272.597 235.663 270.626 236.185 268.521C236.705 266.396 237.154 264.185 237.534 261.886C237.929 259.566 238.262 257.283 238.533 255.038C238.82 252.772 239.051 250.591 239.226 248.494C239.398 246.379 239.54 244.462 239.651 242.743L266.955 238.969L265.447 274.497L269.01 274.004L268.401 290.615L260.563 291.699L260.861 282.508L236.749 285.841L236.48 295.028L228.585 296.119L229.193 279.508ZM257.919 247.566L247.117 249.059C246.959 251.695 246.763 254.201 246.53 256.576C246.297 258.951 245.981 261.29 245.583 263.591C245.184 265.892 244.67 268.2 244.041 270.514C243.431 272.825 242.672 275.244 241.762 277.771L256.754 275.698L257.919 247.566Z" stroke="black" stroke-width="4" mask="url(#path-6-outside-2)"/>
<path d="M277.301 271.58L285.937 270.386L285.315 279.128L276.68 280.322L277.301 271.58Z" stroke="black" stroke-width="4" mask="url(#path-6-outside-2)"/>
<path d="M293.547 269.335L302.183 268.141L301.561 276.882L292.925 278.076L293.547 269.335Z" stroke="black" stroke-width="4" mask="url(#path-6-outside-2)"/>
<path d="M309.793 267.089L318.428 265.895L317.807 274.637L309.171 275.83L309.793 267.089Z" stroke="black" stroke-width="4" mask="url(#path-6-outside-2)"/>
<defs>
<linearGradient id="paint0_linear" x1="266.281" y1="149.997" x2="278.731" y2="240.065" gradientUnits="userSpaceOnUse">
<stop stop-color="white"/>
<stop offset="0.4375" stop-color="#2FAD74"/>
</linearGradient>
<linearGradient id="paint1_linear" x1="266.281" y1="149.997" x2="278.731" y2="240.065" gradientUnits="userSpaceOnUse">
<stop stop-color="white"/>
<stop offset="0.4375" stop-color="#2FAD74"/>
</linearGradient>
<linearGradient id="paint2_linear" x1="266.281" y1="149.997" x2="278.731" y2="240.065" gradientUnits="userSpaceOnUse">
<stop stop-color="white"/>
<stop offset="0.4375" stop-color="#2FAD74"/>
</linearGradient>
<linearGradient id="paint3_linear" x1="266.281" y1="149.997" x2="278.731" y2="240.065" gradientUnits="userSpaceOnUse">
<stop stop-color="white"/>
<stop offset="0.4375" stop-color="#2FAD74"/>
</linearGradient>
<linearGradient id="paint4_linear" x1="266.281" y1="149.997" x2="278.731" y2="240.065" gradientUnits="userSpaceOnUse">
<stop stop-color="white"/>
<stop offset="0.4375" stop-color="#2FAD74"/>
</linearGradient>
<linearGradient id="paint5_linear" x1="266.281" y1="149.997" x2="278.731" y2="240.065" gradientUnits="userSpaceOnUse">
<stop stop-color="white"/>
<stop offset="0.4375" stop-color="#2FAD74"/>
</linearGradient>
<linearGradient id="paint6_linear" x1="266.281" y1="149.997" x2="278.731" y2="240.065" gradientUnits="userSpaceOnUse">
<stop stop-color="white"/>
<stop offset="0.4375" stop-color="#2FAD74"/>
</linearGradient>
<linearGradient id="paint7_linear" x1="266.281" y1="149.997" x2="278.731" y2="240.065" gradientUnits="userSpaceOnUse">
<stop stop-color="white"/>
<stop offset="0.4375" stop-color="#2FAD74"/>
</linearGradient>
<linearGradient id="paint8_linear" x1="266.281" y1="149.997" x2="278.731" y2="240.065" gradientUnits="userSpaceOnUse">
<stop stop-color="white"/>
<stop offset="0.4375" stop-color="#2FAD74"/>
</linearGradient>
<linearGradient id="paint9_linear" x1="172.906" y1="86.0975" x2="184.757" y2="171.834" gradientUnits="userSpaceOnUse">
<stop stop-color="#2FAD74"/>
<stop offset="0.5625" stop-color="white"/>
</linearGradient>
<linearGradient id="paint10_linear" x1="222.794" y1="233.622" x2="236.766" y2="334.697" gradientUnits="userSpaceOnUse">
<stop stop-color="white"/>
<stop offset="0.4375" stop-color="#2FAD74"/>
</linearGradient>
<linearGradient id="paint11_linear" x1="222.794" y1="233.622" x2="236.766" y2="334.697" gradientUnits="userSpaceOnUse">
<stop stop-color="white"/>
<stop offset="0.4375" stop-color="#2FAD74"/>
</linearGradient>
<linearGradient id="paint12_linear" x1="222.794" y1="233.622" x2="236.766" y2="334.697" gradientUnits="userSpaceOnUse">
<stop stop-color="white"/>
<stop offset="0.4375" stop-color="#2FAD74"/>
</linearGradient>
<linearGradient id="paint13_linear" x1="222.794" y1="233.622" x2="236.766" y2="334.697" gradientUnits="userSpaceOnUse">
<stop stop-color="white"/>
<stop offset="0.4375" stop-color="#2FAD74"/>
</linearGradient>
<linearGradient id="paint14_linear" x1="222.794" y1="233.622" x2="236.766" y2="334.697" gradientUnits="userSpaceOnUse">
<stop stop-color="white"/>
<stop offset="0.4375" stop-color="#2FAD74"/>
</linearGradient>
<linearGradient id="paint15_linear" x1="222.794" y1="233.622" x2="236.766" y2="334.697" gradientUnits="userSpaceOnUse">
<stop stop-color="white"/>
<stop offset="0.4375" stop-color="#2FAD74"/>
</linearGradient>
<linearGradient id="paint16_linear" x1="222.794" y1="233.622" x2="236.766" y2="334.697" gradientUnits="userSpaceOnUse">
<stop stop-color="white"/>
<stop offset="0.4375" stop-color="#2FAD74"/>
</linearGradient>
<linearGradient id="paint17_linear" x1="222.794" y1="233.622" x2="236.766" y2="334.697" gradientUnits="userSpaceOnUse">
<stop stop-color="white"/>
<stop offset="0.4375" stop-color="#2FAD74"/>
</linearGradient>
</defs>
</svg>
