<svg width="290" height="50" viewBox="0 0 290 50" fill="none" xmlns="http://www.w3.org/2000/svg">
<g clip-path="url(#clip0)">
<path d="M45 50.0003C45.4751 48.9175 45.9503 47.761 46.4254 46.5306C46.8756 45.3248 47.2757 43.8729 47.6258 42.175C48.5011 42.1258 49.2638 41.9166 49.914 41.5475C50.5892 41.1783 51.1769 40.7723 51.677 40.3294C52.2772 39.7634 52.8774 39.1113 53.4776 38.373C54.0778 37.6102 54.6404 36.8473 55.1656 36.0845C55.7158 35.3216 56.2034 34.608 56.6285 33.9436C57.0537 33.2792 57.3913 32.7378 57.6414 32.3195C58.5916 30.6954 59.3669 29.2927 59.9671 28.1115C60.5922 26.9304 61.1049 25.8476 61.505 24.8633C61.8551 23.9036 62.1302 23.0669 62.3303 22.3533C62.5553 21.6396 62.6554 21.1475 62.6304 20.8768C62.6054 20.4339 62.2928 20.114 61.6926 19.9171C61.0924 19.7202 60.3172 19.548 59.3669 19.4003V18.8836C60.3922 18.9328 61.4425 18.9697 62.5178 18.9943C63.6182 19.0189 64.6935 19.0312 65.7438 19.0312H74.7841C75.4343 19.0312 76.1345 19.0189 76.8847 18.9943C77.6349 18.9451 78.4352 18.9082 79.2854 18.8836V19.4003C78.6352 19.4988 78.0601 19.6464 77.5599 19.8433C77.0598 20.0155 76.5221 20.2862 75.9469 20.6553C75.8469 20.7292 75.6843 20.9876 75.4593 21.4305C75.2592 21.8488 75.0091 22.4025 74.709 23.0915C74.434 23.7559 74.1214 24.5311 73.7713 25.417C73.4462 26.2782 73.1086 27.1887 72.7585 28.1484L69.0073 38.8898C68.7822 39.5542 68.6072 40.0956 68.4822 40.5139C68.3571 40.9076 68.3821 41.2276 68.5572 41.4736C68.7322 41.6951 69.0698 41.8551 69.57 41.9535C70.0951 42.0519 70.8829 42.1258 71.9332 42.175C71.5831 43.3562 71.2955 44.6604 71.0704 46.0876C70.8454 47.5149 70.6828 48.8191 70.5828 50.0003H70.0951C69.72 49.3113 69.4324 48.6715 69.2324 48.0809C69.0323 47.4903 68.8698 46.9243 68.7447 46.3829C68.6447 45.8662 68.5697 45.3494 68.5197 44.8326C68.4947 44.3405 68.4696 43.836 68.4446 43.3192C68.0445 43.2946 67.5819 43.2577 67.0567 43.2085C66.5316 43.1839 65.9939 43.1593 65.4437 43.1347C64.9186 43.1101 64.3809 43.0855 63.8307 43.0609C63.3056 43.0362 62.8304 43.0239 62.4053 43.0239H57.4163C56.9912 43.0239 56.5035 43.0239 55.9533 43.0239C55.4032 43.0485 54.828 43.0732 54.2278 43.0978C53.6526 43.147 53.0775 43.1962 52.5023 43.2454C51.9521 43.2946 51.477 43.3561 51.0769 43.43C50.6267 44.2174 50.2016 44.8818 49.8015 45.4232C49.4263 45.9892 49.0387 46.506 48.6386 46.9735C48.2135 47.4411 47.7633 47.9086 47.2882 48.3762C46.8131 48.8437 46.2504 49.3851 45.6002 50.0003H45ZM58.8792 42.2488C59.9045 42.2488 60.8298 42.2242 61.6551 42.175C62.5053 42.1258 63.4556 42.0519 64.5059 41.9535L72.3083 20.0647C71.8332 20.0155 71.2205 19.9786 70.4703 19.954C69.745 19.9048 69.0948 19.8802 68.5197 19.8802C67.7444 19.8802 67.1067 19.9048 66.6066 19.954C66.1314 20.0032 65.7313 20.114 65.4062 20.2862C65.0811 20.4339 64.806 20.6676 64.581 20.9875C64.3559 21.3074 64.1308 21.7381 63.9058 22.2795L62.4428 25.5646C61.3175 28.173 60.2046 30.3632 59.1043 32.1349C58.029 33.9067 57.1287 35.3463 56.4035 36.4536C55.8533 37.2657 55.3782 37.9424 54.978 38.4838C54.6029 39.0005 54.2778 39.4312 54.0027 39.7757C53.7527 40.1202 53.5526 40.3909 53.4026 40.5878C53.2775 40.7846 53.19 40.9569 53.14 41.1045C53.065 41.3506 53.09 41.5598 53.215 41.732C53.365 41.8797 53.6276 41.9658 54.0027 41.9904C54.1778 41.9904 54.4404 42.015 54.7905 42.0642C55.1406 42.0888 55.5407 42.1134 55.9908 42.138C56.441 42.1627 56.9036 42.1873 57.3788 42.2119C57.8789 42.2365 58.3791 42.2488 58.8792 42.2488Z" fill="black"/>
<path d="M74.9508 42.581C75.651 42.4579 76.2137 42.3472 76.6388 42.2488C77.064 42.1503 77.4016 42.0273 77.6516 41.8797C77.9267 41.732 78.1393 41.5352 78.2893 41.2891C78.4644 41.0184 78.6519 40.6616 78.852 40.2186C78.977 39.9479 79.2271 39.3205 79.6022 38.3361C79.9774 37.3272 80.415 36.146 80.9151 34.7926C81.4153 33.4145 81.9404 31.9627 82.4906 30.437C83.0408 28.8867 83.5409 27.4471 83.9911 26.1183C84.4412 24.7648 84.8163 23.6083 85.1164 22.6486C85.4165 21.6888 85.5666 21.0983 85.5666 20.8768C85.5666 20.3847 85.2915 20.0524 84.7413 19.8802C84.1911 19.7079 83.5034 19.548 82.6782 19.4003V18.8836C83.5284 18.9328 84.3662 18.9697 85.1914 18.9943C86.0417 19.0189 86.892 19.0312 87.7422 19.0312C88.6425 19.0312 89.5303 19.0189 90.4055 18.9943C91.3058 18.9697 92.2061 18.9328 93.1064 18.8836V19.4003C92.5312 19.4742 92.0185 19.5726 91.5684 19.6956C91.1433 19.7941 90.7556 19.954 90.4055 20.1755C90.0804 20.3969 89.7803 20.6922 89.5053 21.0614C89.2302 21.4059 88.9801 21.8488 88.755 22.3902C88.2049 23.719 87.6297 25.1463 87.0295 26.672C86.4543 28.173 85.9667 29.6003 85.5666 30.9537C85.4915 31.2244 85.354 31.6305 85.1539 32.1718C84.9539 32.7132 84.7288 33.3284 84.4787 34.0174C84.2286 34.7065 83.9661 35.4324 83.691 36.1952C83.4159 36.9581 83.1658 37.6717 82.9408 38.3361L99.8959 21.209C99.9209 21.1598 99.9334 21.0983 99.9334 21.0245C99.9334 20.7046 99.8209 20.4462 99.5958 20.2493C99.3708 20.0525 99.0957 19.9048 98.7706 19.8064C98.4705 19.6833 98.1454 19.5972 97.7953 19.548C97.4702 19.4988 97.1826 19.4495 96.9325 19.4003V18.8836C97.8328 18.9328 98.7331 18.9697 99.6333 18.9943C100.534 19.0189 101.434 19.0312 102.334 19.0312C103.184 19.0312 104.035 19.0189 104.885 18.9943C105.735 18.9451 106.585 18.9082 107.436 18.8836V19.4003C106.786 19.4988 106.21 19.6464 105.71 19.8433C105.21 20.0155 104.672 20.2862 104.097 20.6553C103.972 20.7538 103.76 21.1106 103.46 21.7258C103.184 22.341 102.859 23.1284 102.484 24.0881C102.109 25.0232 101.696 26.0814 101.246 27.2625C100.821 28.4437 100.384 29.6495 99.9334 30.8799C99.4833 32.0857 99.0582 33.2792 98.658 34.4604C98.2579 35.617 97.8953 36.6751 97.5702 37.6348C97.2701 38.5699 97.02 39.345 96.82 39.9602C96.6449 40.5508 96.5574 40.8953 96.5574 40.9938C96.5574 41.2645 96.6949 41.5106 96.97 41.732C97.2701 41.9289 97.6077 42.1011 97.9828 42.2488C98.358 42.3718 98.7331 42.4703 99.1082 42.5441C99.4833 42.6179 99.7709 42.6548 99.9709 42.6548V43.1716C99.1457 43.1224 98.3204 43.0855 97.4952 43.0609C96.6949 43.0362 95.8822 43.0239 95.0569 43.0239C94.1067 43.0239 93.1439 43.0362 92.1686 43.0609C91.1933 43.0855 90.2305 43.1224 89.2802 43.1716V42.6548C90.0054 42.5564 90.5806 42.458 91.0057 42.3595C91.4558 42.2365 91.831 42.0519 92.1311 41.8059C92.4311 41.5352 92.6937 41.1783 92.9188 40.7354C93.1439 40.2679 93.4064 39.6404 93.7065 38.8529L96.5949 30.9537C96.6699 30.7077 96.8075 30.2893 97.0075 29.6987C97.2326 29.0836 97.4827 28.4068 97.7578 27.6686C98.0329 26.9057 98.3079 26.1306 98.583 25.3431C98.8831 24.5311 99.1457 23.7929 99.3708 23.1284L82.3406 40.2925C82.1905 40.7846 82.1155 41.1168 82.1155 41.2891C82.1155 41.5106 82.228 41.7074 82.4531 41.8797C82.7032 42.0519 82.9783 42.1996 83.2784 42.3226C83.5784 42.4211 83.8785 42.5071 84.1786 42.581C84.4787 42.6302 84.7038 42.6548 84.8538 42.6548V43.1716C84.0536 43.1224 83.2408 43.0855 82.4156 43.0609C81.5903 43.0362 80.7776 43.0239 79.9774 43.0239C79.1521 43.0239 78.3143 43.0362 77.4641 43.0609C76.6388 43.0855 75.8011 43.1224 74.9508 43.1716V42.581Z" fill="black"/>
<path d="M102.538 42.5441C102.788 42.4703 103.1 42.3964 103.475 42.3226C103.825 42.2488 104.176 42.1627 104.526 42.0642C104.876 41.9412 105.201 41.8058 105.501 41.6582C105.801 41.4859 106.001 41.2891 106.101 41.0676C106.401 40.4278 106.776 39.505 107.226 38.2992C107.702 37.0934 108.202 35.7646 108.727 34.3127C109.252 32.8609 109.777 31.3721 110.302 29.8464C110.853 28.3207 111.34 26.9181 111.765 25.6384C112.19 24.3588 112.541 23.2884 112.816 22.4271C113.091 21.5658 113.228 21.086 113.228 20.9875C113.228 20.7415 113.078 20.5323 112.778 20.36C112.503 20.1878 112.178 20.0401 111.803 19.9171C111.428 19.7694 111.04 19.6587 110.64 19.5849C110.24 19.5111 109.927 19.4495 109.702 19.4003V18.8836C110.753 18.9328 111.778 18.9697 112.778 18.9943C113.778 19.0189 114.804 19.0312 115.854 19.0312C116.654 19.0312 117.467 19.0189 118.292 18.9943C119.118 18.9451 119.93 18.9082 120.731 18.8836V19.4003C120.355 19.4495 119.955 19.5111 119.53 19.5849C119.105 19.6587 118.692 19.7694 118.292 19.9171C117.917 20.0647 117.567 20.2616 117.242 20.5077C116.942 20.7538 116.717 21.086 116.567 21.5043L113.528 29.8095H115.441C116.692 29.8095 117.742 29.5511 118.592 29.0343C119.468 28.493 120.243 27.8408 120.918 27.078C121.593 26.2905 122.206 25.4539 122.756 24.568C123.331 23.6575 123.944 22.8208 124.594 22.058C125.395 20.926 126.17 20.0647 126.92 19.4741C127.695 18.8589 128.483 18.5514 129.283 18.5514C129.983 18.5514 130.521 18.7482 130.896 19.142C131.296 19.5111 131.496 19.9663 131.496 20.5077C131.496 21.0245 131.334 21.4797 131.009 21.8734C130.684 22.2672 130.233 22.464 129.658 22.464C129.083 22.464 128.646 22.341 128.345 22.0949C128.07 21.8242 127.895 21.5658 127.82 21.3197C127.545 21.3197 127.245 21.4182 126.92 21.615C126.595 21.8119 126.257 22.058 125.907 22.3533C125.582 22.6486 125.257 22.9808 124.932 23.3499C124.607 23.719 124.332 24.0758 124.107 24.4204C123.757 24.8633 123.369 25.38 122.944 25.9706C122.544 26.5366 122.081 27.1026 121.556 27.6686C121.056 28.21 120.481 28.7144 119.83 29.182C119.205 29.6495 118.48 30.0064 117.655 30.2524V30.3262C118.68 30.6215 119.48 31.0276 120.055 31.5443C120.631 32.0365 121.056 32.6148 121.331 33.2792C121.631 33.9436 121.831 34.6942 121.931 35.5308C122.056 36.3429 122.156 37.2042 122.231 38.1146L122.306 38.9267C122.381 39.7142 122.506 40.3417 122.681 40.8092C122.881 41.2768 123.156 41.6459 123.506 41.9166C123.857 42.1873 124.294 42.3718 124.819 42.4703C125.37 42.5687 126.032 42.6302 126.807 42.6548L126.77 43.0239L123.732 43.1716C122.806 43.1716 122.031 43.0855 121.406 42.9132C120.806 42.741 120.318 42.4579 119.943 42.0642C119.568 41.6705 119.28 41.166 119.08 40.5508C118.905 39.911 118.78 39.1482 118.705 38.2623L118.63 37.4133C118.555 36.429 118.455 35.5185 118.33 34.6819C118.23 33.8452 118.005 33.1316 117.655 32.541C117.33 31.9504 116.829 31.4951 116.154 31.1752C115.479 30.8307 114.529 30.6585 113.303 30.6585C113.053 31.3475 112.728 32.2211 112.328 33.2792C111.928 34.3373 111.54 35.3955 111.165 36.4536C110.79 37.5117 110.465 38.4838 110.19 39.3696C109.94 40.2555 109.815 40.8584 109.815 41.1784C109.815 41.326 110.015 41.4859 110.415 41.6582C110.815 41.8058 111.265 41.9535 111.765 42.1011C112.266 42.2488 112.753 42.3718 113.228 42.4703C113.728 42.5687 114.066 42.6302 114.241 42.6548V43.1716C113.191 43.1224 112.128 43.0855 111.053 43.0609C110.002 43.0362 108.952 43.0239 107.902 43.0239C107.001 43.0239 106.101 43.0362 105.201 43.0609C104.326 43.0855 103.438 43.1224 102.538 43.1716V42.5441Z" fill="black"/>
<path d="M127.445 42.581C128.145 42.4579 128.708 42.3472 129.133 42.2488C129.558 42.1503 129.896 42.0273 130.146 41.8797C130.421 41.732 130.633 41.5352 130.783 41.2891C130.958 41.0184 131.146 40.6616 131.346 40.2186C131.471 39.9479 131.721 39.3205 132.096 38.3361C132.471 37.3272 132.909 36.146 133.409 34.7926C133.909 33.4145 134.434 31.9627 134.985 30.437C135.535 28.8867 136.035 27.4471 136.485 26.1183C136.935 24.7648 137.31 23.6083 137.61 22.6486C137.911 21.6888 138.061 21.0983 138.061 20.8768C138.061 20.3847 137.785 20.0524 137.235 19.8802C136.685 19.7079 135.997 19.548 135.172 19.4003V18.8836C136.022 18.9328 136.86 18.9697 137.685 18.9943C138.536 19.0189 139.386 19.0312 140.236 19.0312C141.137 19.0312 142.024 19.0189 142.9 18.9943C143.8 18.9697 144.7 18.9328 145.6 18.8836V19.4003C145.025 19.4742 144.513 19.5726 144.062 19.6956C143.637 19.7941 143.25 19.954 142.9 20.1755C142.574 20.3969 142.274 20.6922 141.999 21.0614C141.724 21.4059 141.474 21.8488 141.249 22.3902C140.699 23.719 140.124 25.1463 139.524 26.672C138.948 28.173 138.461 29.6003 138.061 30.9537C137.986 31.2244 137.848 31.6305 137.648 32.1718C137.448 32.7132 137.223 33.3284 136.973 34.0174C136.723 34.7065 136.46 35.4324 136.185 36.1952C135.91 36.9581 135.66 37.6717 135.435 38.3361L152.39 21.209C152.415 21.1598 152.427 21.0983 152.427 21.0245C152.427 20.7046 152.315 20.4462 152.09 20.2493C151.865 20.0525 151.59 19.9048 151.265 19.8064C150.964 19.6833 150.639 19.5972 150.289 19.548C149.964 19.4988 149.677 19.4495 149.427 19.4003V18.8836C150.327 18.9328 151.227 18.9697 152.127 18.9943C153.028 19.0189 153.928 19.0312 154.828 19.0312C155.678 19.0312 156.529 19.0189 157.379 18.9943C158.229 18.9451 159.079 18.9082 159.93 18.8836V19.4003C159.28 19.4988 158.704 19.6464 158.204 19.8433C157.704 20.0155 157.166 20.2862 156.591 20.6553C156.466 20.7538 156.254 21.1106 155.954 21.7258C155.678 22.341 155.353 23.1284 154.978 24.0881C154.603 25.0232 154.19 26.0814 153.74 27.2625C153.315 28.4437 152.878 29.6495 152.427 30.8799C151.977 32.0857 151.552 33.2792 151.152 34.4604C150.752 35.617 150.389 36.6751 150.064 37.6348C149.764 38.5699 149.514 39.345 149.314 39.9602C149.139 40.5508 149.051 40.8953 149.051 40.9938C149.051 41.2645 149.189 41.5106 149.464 41.732C149.764 41.9289 150.102 42.1011 150.477 42.2488C150.852 42.3718 151.227 42.4703 151.602 42.5441C151.977 42.6179 152.265 42.6548 152.465 42.6548V43.1716C151.64 43.1224 150.814 43.0855 149.989 43.0609C149.189 43.0362 148.376 43.0239 147.551 43.0239C146.601 43.0239 145.638 43.0362 144.663 43.0609C143.687 43.0855 142.724 43.1224 141.774 43.1716V42.6548C142.499 42.5564 143.075 42.458 143.5 42.3595C143.95 42.2365 144.325 42.0519 144.625 41.8059C144.925 41.5352 145.188 41.1783 145.413 40.7354C145.638 40.2679 145.9 39.6404 146.201 38.8529L149.089 30.9537C149.164 30.7077 149.301 30.2893 149.502 29.6987C149.727 29.0836 149.977 28.4068 150.252 27.6686C150.527 26.9057 150.802 26.1306 151.077 25.3431C151.377 24.5311 151.64 23.7929 151.865 23.1284L134.835 40.2925C134.685 40.7846 134.61 41.1168 134.61 41.2891C134.61 41.5106 134.722 41.7074 134.947 41.8797C135.197 42.0519 135.472 42.1996 135.772 42.3226C136.072 42.4211 136.373 42.5071 136.673 42.581C136.973 42.6302 137.198 42.6548 137.348 42.6548V43.1716C136.548 43.1224 135.735 43.0855 134.91 43.0609C134.084 43.0362 133.272 43.0239 132.471 43.0239C131.646 43.0239 130.808 43.0362 129.958 43.0609C129.133 43.0855 128.295 43.1224 127.445 43.1716V42.581Z" fill="black"/>
<path d="M155.107 42.7656C155.882 42.5441 156.595 42.3349 157.245 42.138C157.895 41.9166 158.37 41.5105 158.67 40.92C158.895 40.477 159.22 39.6896 159.645 38.5576C160.096 37.4256 160.583 36.146 161.108 34.7188C161.634 33.2915 162.159 31.8027 162.684 30.2524C163.234 28.6775 163.722 27.2379 164.147 25.9337C164.597 24.6049 164.96 23.4853 165.235 22.5748C165.535 21.6643 165.685 21.1475 165.685 21.0245C165.685 20.803 165.547 20.6184 165.272 20.4708C164.997 20.2985 164.672 20.1509 164.297 20.0278C163.947 19.8802 163.584 19.7695 163.209 19.6956C162.834 19.6218 162.559 19.5726 162.384 19.548V19.0312H179.414C179.389 19.5972 179.364 20.1509 179.339 20.6923C179.314 21.209 179.301 21.7504 179.301 22.3164C179.301 22.8823 179.314 23.4483 179.339 24.0143C179.364 24.5557 179.389 25.1094 179.414 25.6754H178.964C178.714 25.4047 178.476 25.0232 178.251 24.5311C178.026 24.0143 177.826 23.4852 177.651 22.9439C177.476 22.4025 177.313 21.8734 177.163 21.3566C177.038 20.8399 176.938 20.4339 176.863 20.1386C175.663 19.9909 174.475 19.9171 173.3 19.9171H169.774L166.022 29.8095C167.548 29.8095 168.736 29.7726 169.586 29.6987C170.436 29.6249 171.136 29.4527 171.687 29.182C172.237 28.8867 172.699 28.4684 173.075 27.927C173.475 27.361 173.975 26.5982 174.575 25.6384H175.363C174.638 27.3364 173.95 29.0343 173.3 30.7323C172.674 32.4302 172.099 34.1651 171.574 35.9368H170.861C170.936 35.2478 170.999 34.5711 171.049 33.9067C171.099 33.2423 171.124 32.5656 171.124 31.8765C171.124 31.4582 171.049 31.1629 170.899 30.9907C170.749 30.7938 170.574 30.6954 170.374 30.6954H165.76L162.084 41.5844C162.634 41.6336 163.334 41.7074 164.184 41.8059C165.06 41.9043 165.96 42.0027 166.885 42.1011C167.835 42.175 168.748 42.2488 169.624 42.3226C170.524 42.3964 171.287 42.4333 171.912 42.4333C172.812 41.2521 173.712 40.1448 174.613 39.1113C175.538 38.0531 176.538 37.0934 177.613 36.2321L177.914 36.6013C177.338 37.6594 176.838 38.7422 176.413 39.8495C175.988 40.9569 175.55 42.0642 175.1 43.1716C174.75 43.147 174.187 43.1224 173.412 43.0978C172.662 43.0978 171.787 43.0855 170.786 43.0609C169.786 43.0609 168.711 43.0485 167.56 43.0239C166.435 43.0239 165.31 43.0239 164.184 43.0239H159.983C159.183 43.0239 158.37 43.0362 157.545 43.0609C156.72 43.0855 155.907 43.1224 155.107 43.1716V42.7656Z" fill="black"/>
<path d="M194.586 43.2454C195.336 43.0485 195.936 42.8886 196.386 42.7656C196.836 42.6179 197.186 42.4703 197.436 42.3226C197.712 42.1504 197.924 41.9535 198.074 41.732C198.224 41.486 198.374 41.1537 198.524 40.7354C198.574 40.6124 198.624 40.4647 198.674 40.2925C198.749 40.1202 198.824 39.9233 198.899 39.7019C197.799 40.1202 196.411 40.3294 194.736 40.3294C193.985 40.3294 193.273 40.2063 192.597 39.9602C191.922 39.7142 191.322 39.3451 190.797 38.8529C190.272 38.3607 189.847 37.7332 189.522 36.9704C189.221 36.2076 189.071 35.3094 189.071 34.2758C189.071 32.9716 189.271 31.7535 189.672 30.6215C190.072 29.4896 190.597 28.456 191.247 27.5209C191.922 26.5858 192.698 25.7615 193.573 25.0479C194.448 24.3342 195.361 23.7313 196.311 23.2391C197.261 22.747 198.212 22.3779 199.162 22.1318C200.112 21.8857 201 21.7627 201.825 21.7627C202.551 21.7627 203.151 21.8242 203.626 21.9472C204.126 22.0457 204.601 22.1687 205.051 22.3164C205.201 21.775 205.326 21.3197 205.426 20.9506C205.526 20.5815 205.576 20.3231 205.576 20.1755C205.576 19.9294 205.451 19.7203 205.201 19.548C204.976 19.3757 204.701 19.2404 204.376 19.142C204.051 19.0189 203.713 18.9328 203.363 18.8836C203.038 18.8343 202.763 18.8098 202.538 18.8098V18.293C203.413 18.3422 204.289 18.3791 205.164 18.4037C206.064 18.4283 206.952 18.4406 207.827 18.4406C208.627 18.4406 209.478 18.4283 210.378 18.4037C211.278 18.3791 212.128 18.3422 212.929 18.293L212.816 18.8098C212.141 18.8836 211.591 18.9697 211.166 19.0681C210.766 19.1419 210.415 19.2896 210.115 19.5111C209.84 19.7079 209.59 19.9909 209.365 20.36C209.165 20.7291 208.927 21.2336 208.652 21.8734C208.627 21.9227 208.602 21.9719 208.577 22.0211C208.577 22.0457 208.565 22.0826 208.54 22.1318C209.065 22.0088 209.565 21.9227 210.04 21.8734C210.54 21.7996 211.078 21.7627 211.653 21.7627C212.579 21.7627 213.454 21.8734 214.279 22.0949C215.104 22.3163 215.817 22.6609 216.417 23.1284C217.042 23.596 217.53 24.1989 217.88 24.9371C218.23 25.6508 218.405 26.5243 218.405 27.5579C218.405 29.4527 217.968 31.1875 217.092 32.7624C216.217 34.3127 215.154 35.6539 213.904 36.7858C212.654 37.8932 211.353 38.7668 210.003 39.4066C208.652 40.0218 207.49 40.3294 206.514 40.3294C205.489 40.3294 204.651 40.2555 204.001 40.1079C203.351 39.9602 202.813 39.7511 202.388 39.4804C202.163 40.194 201.975 40.7846 201.825 41.2521C201.7 41.6951 201.638 41.9781 201.638 42.1011C201.638 42.3472 201.763 42.5441 202.013 42.6917C202.288 42.8148 202.601 42.9132 202.951 42.987C203.326 43.0608 203.688 43.1101 204.038 43.1347C204.389 43.1839 204.639 43.2208 204.789 43.2454V43.7622C203.913 43.713 203.026 43.676 202.125 43.6514C201.25 43.6268 200.375 43.6145 199.5 43.6145C198.674 43.6145 197.849 43.6268 197.024 43.6514C196.224 43.676 195.411 43.713 194.586 43.7622V43.2454ZM196.086 39.5173C196.586 39.5173 197.099 39.4681 197.624 39.3696C198.149 39.2466 198.687 39.062 199.237 38.816C199.587 37.8809 200 36.7366 200.475 35.3832C200.975 34.0297 201.488 32.6271 202.013 31.1752C202.538 29.7233 203.038 28.2961 203.513 26.8934C204.013 25.4662 204.439 24.2112 204.789 23.1284C204.439 22.9562 204.063 22.8208 203.663 22.7224C203.288 22.5994 202.863 22.5378 202.388 22.5378C201.113 22.5378 199.862 22.9069 198.637 23.6452C197.436 24.3834 196.374 25.3554 195.448 26.5612C194.523 27.7424 193.773 29.0712 193.198 30.5477C192.648 32.0242 192.372 33.5007 192.372 34.9771C192.372 35.6416 192.422 36.2568 192.522 36.8228C192.648 37.3641 192.848 37.844 193.123 38.2623C193.398 38.656 193.773 38.9636 194.248 39.1851C194.723 39.4066 195.336 39.5173 196.086 39.5173ZM205.539 39.5173C206.664 39.5173 207.777 39.1728 208.877 38.4838C210.003 37.7948 211.003 36.8966 211.878 35.7892C212.779 34.6572 213.504 33.3776 214.054 31.9504C214.629 30.5231 214.917 29.0589 214.917 27.5579C214.917 26.8688 214.842 26.2167 214.692 25.6015C214.567 24.9863 214.329 24.4573 213.979 24.0143C213.654 23.5468 213.216 23.1899 212.666 22.9439C212.141 22.6732 211.491 22.5378 210.716 22.5378C210.29 22.5378 209.865 22.587 209.44 22.6855C209.04 22.7593 208.627 22.8701 208.202 23.0177C207.902 23.8052 207.515 24.851 207.039 26.1552C206.564 27.4594 206.064 28.8497 205.539 30.3262C205.014 31.7781 204.489 33.2423 203.963 34.7188C203.463 36.1953 203.026 37.5118 202.651 38.6683C203.501 39.2343 204.464 39.5173 205.539 39.5173Z" fill="black"/>
<path d="M227.026 43.7622C225.926 43.7622 224.976 43.5776 224.175 43.2085C223.4 42.864 222.762 42.3718 222.262 41.732C221.762 41.0922 221.387 40.3417 221.137 39.4804C220.887 38.6191 220.762 37.6717 220.762 36.6382C220.762 35.3832 220.949 34.0544 221.325 32.6517C221.725 31.249 222.275 29.871 222.975 28.5176C223.675 27.1641 224.513 25.8722 225.488 24.6418C226.464 23.3868 227.526 22.2917 228.677 21.3566C229.852 20.4215 231.102 19.6833 232.428 19.142C233.753 18.576 235.116 18.293 236.517 18.293C237.592 18.293 238.53 18.4775 239.33 18.8466C240.13 19.1912 240.78 19.6833 241.281 20.3231C241.781 20.9629 242.156 21.7135 242.406 22.5748C242.656 23.436 242.781 24.3834 242.781 25.417C242.781 26.672 242.581 28.0008 242.181 29.4034C241.806 30.8061 241.268 32.1842 240.568 33.5376C239.868 34.891 239.03 36.1952 238.055 37.4502C237.079 38.6806 236.004 39.7634 234.829 40.6985C233.678 41.6336 232.44 42.3841 231.115 42.9501C229.79 43.4915 228.427 43.7622 227.026 43.7622ZM228.527 42.581C229.652 42.581 230.702 42.2488 231.678 41.5844C232.653 40.8954 233.528 40.0095 234.303 38.9267C235.104 37.844 235.804 36.6382 236.404 35.3093C237.029 33.9559 237.554 32.6148 237.98 31.2859C238.405 29.9325 238.717 28.6652 238.917 27.484C239.142 26.2782 239.255 25.2939 239.255 24.5311C239.255 23.8175 239.18 23.1407 239.03 22.5009C238.905 21.8611 238.68 21.3075 238.355 20.8399C238.03 20.3477 237.579 19.9663 237.004 19.6956C236.454 19.4003 235.754 19.2527 234.904 19.2527C233.803 19.2527 232.765 19.5972 231.79 20.2862C230.84 20.9506 229.965 21.8242 229.164 22.907C228.389 23.9897 227.689 25.2078 227.064 26.5612C226.464 27.8901 225.951 29.2312 225.526 30.5846C225.126 31.9134 224.813 33.1808 224.588 34.3866C224.388 35.5677 224.288 36.5397 224.288 37.3026C224.288 38.0162 224.35 38.6929 224.475 39.3327C224.626 39.9725 224.851 40.5386 225.151 41.0307C225.476 41.4983 225.913 41.8797 226.464 42.175C227.014 42.4457 227.701 42.581 228.527 42.581Z" fill="black"/>
<path d="M244.841 42.6548C245.591 42.5072 246.354 42.3595 247.129 42.2119C247.929 42.0396 248.654 41.7689 249.305 41.3998C249.43 41.326 249.617 40.9938 249.867 40.4032C250.142 39.8126 250.467 39.0497 250.842 38.1146C251.218 37.1795 251.618 36.1214 252.043 34.9402C252.468 33.759 252.906 32.5409 253.356 31.2859C253.806 30.0309 254.231 28.7882 254.631 27.5579C255.056 26.3275 255.444 25.1955 255.794 24.162C256.144 23.1284 256.432 22.2425 256.657 21.5043C256.907 20.7661 257.069 20.2616 257.144 19.9909H251.63C250.905 20.926 250.105 21.7873 249.229 22.5748C248.379 23.3376 247.479 24.0636 246.529 24.7526L246.154 24.4942C246.654 23.5591 247.129 22.624 247.579 21.6889C248.054 20.7538 248.529 19.8187 249.004 18.8836C250.68 18.9574 252.343 19.0066 253.993 19.0312C255.669 19.0312 257.369 19.0312 259.095 19.0312C260.745 19.0312 262.371 19.0312 263.971 19.0312C265.597 19.0066 267.235 18.9574 268.885 18.8836C268.76 19.9909 268.648 21.0737 268.548 22.1318C268.448 23.19 268.373 24.2727 268.323 25.38H267.798C267.297 24.5188 266.885 23.6452 266.56 22.7593C266.235 21.8488 265.96 20.926 265.735 19.9909H260.633C260.533 20.3354 260.283 21.086 259.883 22.2425C259.483 23.3745 259.007 24.7033 258.457 26.229C257.932 27.7301 257.369 29.3296 256.769 31.0276C256.169 32.7009 255.619 34.2512 255.119 35.6785C254.619 37.1058 254.206 38.2992 253.881 39.2589C253.556 40.2186 253.393 40.7354 253.393 40.8092C253.393 41.0799 253.618 41.326 254.068 41.5475C254.544 41.7443 255.081 41.9289 255.681 42.1011C256.282 42.2488 256.869 42.3718 257.444 42.4703C258.02 42.5687 258.42 42.6302 258.645 42.6548V43.1716C258.445 43.147 258.145 43.1224 257.745 43.0978C257.369 43.0978 256.932 43.0855 256.432 43.0609C255.932 43.0609 255.394 43.0485 254.819 43.0239C254.244 43.0239 253.681 43.0239 253.131 43.0239H251.03C249.98 43.0239 248.942 43.0362 247.917 43.0609C246.916 43.0855 245.891 43.1224 244.841 43.1716V42.6548Z" fill="black"/>
<path d="M274.245 43.7622C273.145 43.7622 272.195 43.5776 271.394 43.2085C270.619 42.864 269.981 42.3718 269.481 41.732C268.981 41.0922 268.606 40.3417 268.356 39.4804C268.106 38.6191 267.981 37.6717 267.981 36.6382C267.981 35.3832 268.168 34.0544 268.543 32.6517C268.944 31.249 269.494 29.871 270.194 28.5176C270.894 27.1641 271.732 25.8722 272.707 24.6418C273.683 23.3868 274.745 22.2917 275.896 21.3566C277.071 20.4215 278.321 19.6833 279.647 19.142C280.972 18.576 282.335 18.293 283.736 18.293C284.811 18.293 285.749 18.4775 286.549 18.8466C287.349 19.1912 287.999 19.6833 288.5 20.3231C289 20.9629 289.375 21.7135 289.625 22.5748C289.875 23.436 290 24.3834 290 25.417C290 26.672 289.8 28.0008 289.4 29.4034C289.025 30.8061 288.487 32.1842 287.787 33.5376C287.087 34.891 286.249 36.1952 285.274 37.4502C284.298 38.6806 283.223 39.7634 282.048 40.6985C280.897 41.6336 279.659 42.3841 278.334 42.9501C277.009 43.4915 275.646 43.7622 274.245 43.7622ZM275.746 42.581C276.871 42.581 277.921 42.2488 278.897 41.5844C279.872 40.8954 280.747 40.0095 281.522 38.9267C282.323 37.844 283.023 36.6382 283.623 35.3093C284.248 33.9559 284.773 32.6148 285.199 31.2859C285.624 29.9325 285.936 28.6652 286.136 27.484C286.361 26.2782 286.474 25.2939 286.474 24.5311C286.474 23.8175 286.399 23.1407 286.249 22.5009C286.124 21.8611 285.899 21.3075 285.574 20.8399C285.249 20.3477 284.798 19.9663 284.223 19.6956C283.673 19.4003 282.973 19.2527 282.123 19.2527C281.022 19.2527 279.984 19.5972 279.009 20.2862C278.059 20.9506 277.184 21.8242 276.383 22.907C275.608 23.9897 274.908 25.2078 274.283 26.5612C273.683 27.8901 273.17 29.2312 272.745 30.5846C272.345 31.9134 272.032 33.1808 271.807 34.3866C271.607 35.5677 271.507 36.5397 271.507 37.3026C271.507 38.0162 271.569 38.6929 271.694 39.3327C271.844 39.9725 272.07 40.5386 272.37 41.0307C272.695 41.4983 273.132 41.8797 273.683 42.175C274.233 42.4457 274.92 42.581 275.746 42.581Z" fill="black"/>
<path d="M30 23H31.8V29.6H38.4V31.4H31.8V38H30V31.4H23.4V29.6H30V23Z" fill="black"/>
</g>
<defs>
<clipPath id="clip0">
<rect width="290" height="50" fill="white"/>
</clipPath>
</defs>
</svg>
