<svg width="203" height="196" viewBox="0 0 203 196" fill="none" xmlns="http://www.w3.org/2000/svg">
<path d="M186.843 73.212C191.091 87.3094 185.506 103.001 172.864 117.002C160.23 130.996 140.603 143.227 116.971 150.348C93.3385 157.469 70.2214 158.117 51.9596 153.433C33.6871 148.746 20.3626 138.752 16.1149 124.655C11.8671 110.558 17.4521 94.8659 30.0936 80.8645C42.7278 66.8713 62.3547 54.64 85.9871 47.5193C109.619 40.3985 132.736 39.7503 150.998 44.4341C169.271 49.1206 182.595 59.1146 186.843 73.212Z" fill="#EBFF00" stroke="black"/>
<path d="M99.7472 59.0419L98.8768 46.8384L100.485 46.6923L101.255 57.4904L106.659 56.9993L105.889 46.2012L107.497 46.0551L108.267 56.8532L113.672 56.3621L112.902 45.564L114.509 45.4179L115.38 57.6214L99.7472 59.0419Z" fill="black"/>
<path d="M122.343 44.4128C124.19 44.2449 125.668 44.6971 126.778 45.7694C127.886 46.8302 128.507 48.2976 128.641 50.1716C128.775 52.0569 128.379 53.6571 127.451 54.9719C126.524 56.2868 125.131 57.0286 123.272 57.1975C122.326 57.2835 121.464 57.1893 120.687 56.9149C119.91 56.6405 119.26 56.2222 118.738 55.6601C118.228 55.097 117.819 54.4383 117.513 53.6841C117.218 52.9289 117.038 52.0999 116.974 51.1972C116.838 49.289 117.254 47.7216 118.222 46.4951C119.202 45.2675 120.576 44.5734 122.343 44.4128ZM122.443 45.8183C121.086 45.9416 120.077 46.5163 119.416 47.5424C118.765 48.5561 118.49 49.7657 118.59 51.1711C118.7 52.7023 119.169 53.8902 119.998 54.7349C120.838 55.5671 121.902 55.9247 123.19 55.8076C124.467 55.6916 125.455 55.1418 126.154 54.1583C126.853 53.1747 127.148 51.9231 127.039 50.4034C126.932 48.8951 126.458 47.7248 125.618 46.8925C124.79 46.0593 123.732 45.7012 122.443 45.8183Z" fill="black"/>
<path d="M140.113 43.0913L135.332 48.4595L141.189 55.2762L139.136 55.4627L134.281 49.6591L132.4 51.7621L132.705 56.047L131.098 56.1931L130.227 43.9896L131.835 43.8435L132.266 49.8939L138.009 43.2825L140.113 43.0913Z" fill="black"/>
<path d="M129.08 138.368L133.157 132.615L126.54 126.5L128.547 126.112L134.051 131.331L135.656 129.076L134.835 124.895L136.407 124.591L138.746 136.498L137.174 136.802L136.014 130.899L131.137 137.97L129.08 138.368Z" fill="black"/>
<path d="M122.925 139.854C121.119 140.204 119.602 139.907 118.376 138.964C117.151 138.032 116.359 136.652 116 134.824C115.639 132.984 115.837 131.372 116.595 129.987C117.353 128.602 118.64 127.734 120.457 127.382C121.383 127.203 122.246 127.21 123.048 127.402C123.849 127.594 124.542 127.94 125.126 128.44C125.7 128.943 126.183 129.549 126.577 130.26C126.96 130.973 127.238 131.77 127.412 132.65C127.777 134.512 127.556 136.094 126.747 137.396C125.927 138.701 124.653 139.52 122.925 139.854ZM122.655 138.483C123.982 138.226 124.91 137.561 125.44 136.486C125.96 135.425 126.086 134.209 125.817 132.837C125.523 131.343 124.915 130.223 123.993 129.476C123.062 128.741 121.967 128.496 120.707 128.74C119.458 128.982 118.548 129.621 117.976 130.657C117.404 131.694 117.264 132.953 117.556 134.436C117.845 135.908 118.455 137.011 119.386 137.745C120.306 138.481 121.396 138.727 122.655 138.483Z" fill="black"/>
<path d="M105.749 142.883L103.41 130.977L104.982 130.672L106.076 136.241L112.363 135.024L111.269 129.456L112.841 129.151L115.18 141.058L113.608 141.362L112.633 136.396L106.345 137.612L107.321 142.579L105.749 142.883Z" fill="black"/>
<path d="M94.8508 144.992L94.5815 143.621L98.5782 142.848L96.5086 132.312L98.0805 132.008L100.15 142.543L104.147 141.77L104.416 143.141L94.8508 144.992Z" fill="black"/>
<path d="M85.265 146.847L84.9957 145.476L91.668 144.185L90.9355 140.456L84.6979 141.663L84.4383 140.342L90.6759 139.135L89.8678 135.021L83.1118 136.328L82.8424 134.957L91.1704 133.345L93.5094 145.252L85.265 146.847Z" fill="black"/>
<path d="M73.8546 149.056L71.5156 137.149L73.0875 136.845L74.1815 142.413L80.4693 141.197L79.3753 135.628L80.9473 135.324L83.2863 147.23L81.7143 147.535L80.7386 142.568L74.4509 143.785L75.4265 148.751L73.8546 149.056Z" fill="black"/>
<path d="M62.9567 151.165L62.6873 149.793L66.6841 149.02L64.6145 138.485L66.1864 138.18L68.256 148.716L72.2528 147.942L72.5221 149.314L62.9567 151.165Z" fill="black"/>
<path d="M59.9764 151.741L59.2602 148.096L58.6369 142.714L59.4062 142.565L60.8322 147.792L61.5483 151.437L59.9764 151.741ZM57.8856 141.54L57.5538 139.851L59.3097 139.511L59.6415 141.2L57.8856 141.54Z" fill="black"/>
<path d="M30.7664 85.5889L29.0031 92.4204L37.3545 95.7939L35.6185 96.8695L28.6249 93.9389L27.9269 96.6189L30.1792 100.24L28.8193 101.082L22.4048 90.7699L23.7646 89.9273L26.9449 95.0401L28.987 86.6914L30.7664 85.5889Z" fill="black"/>
<path d="M35.9863 82.0135C37.5486 81.0454 39.0701 80.7849 40.5507 81.232C42.0253 81.6694 43.2551 82.6799 44.2402 84.2635C45.2312 85.8567 45.6188 87.4359 45.4032 89.0009C45.1875 90.5659 44.2936 91.8354 42.7216 92.8095C41.9211 93.3055 41.1125 93.6058 40.2958 93.7106C39.4791 93.8153 38.7091 93.7372 37.9857 93.4765C37.2719 93.2097 36.6048 92.8138 35.9842 92.2886C35.3732 91.7575 34.8305 91.1105 34.356 90.3477C33.353 88.7352 32.9978 87.1761 33.2905 85.6704C33.5928 84.1587 34.4914 82.9397 35.9863 82.0135ZM36.725 83.2012C35.5773 83.9123 34.9471 84.8646 34.8344 86.0581C34.7253 87.2361 35.0402 88.4189 35.7789 89.6065C36.5837 90.9004 37.5495 91.7334 38.6762 92.1055C39.8064 92.462 40.9165 92.3026 42.0063 91.6273C43.0865 90.9581 43.7094 90.037 43.8751 88.8641C44.0407 87.6913 43.7242 86.4628 42.9254 85.1785C42.1325 83.9039 41.171 83.0884 40.0407 82.7319C38.9201 82.3695 37.8148 82.5259 36.725 83.2012Z" fill="black"/>
<path d="M50.9497 73.0831L57.3642 83.3956L56.0044 84.2382L53.0043 79.4151L47.5649 82.7854L50.565 87.6085L49.2051 88.4511L42.7906 78.1386L44.1504 77.296L46.8262 81.5977L52.2656 78.2274L49.5898 73.9257L50.9497 73.0831Z" fill="black"/>
<path d="M60.3772 67.2417L61.1159 68.4294L57.6584 70.5717L63.3342 79.6965L61.9744 80.5391L56.2986 71.4143L52.8411 73.5566L52.1024 72.3689L60.3772 67.2417Z" fill="black"/>
<path d="M68.6696 62.1036L69.4084 63.2913L63.6363 66.8677L65.6453 70.0977L71.0413 66.7542L71.753 67.8985L66.357 71.2419L68.5733 74.8049L74.4177 71.1836L75.1565 72.3713L67.9522 76.8352L61.5376 66.5226L68.6696 62.1036Z" fill="black"/>
<path d="M78.5405 55.9875L84.955 66.3L83.5952 67.1426L80.5951 62.3194L75.1557 65.6898L78.1558 70.5129L76.7959 71.3555L70.3814 61.043L71.7412 60.2004L74.417 64.5021L79.8564 61.1318L77.1806 56.8301L78.5405 55.9875Z" fill="black"/>
<path d="M87.968 50.1461L88.7067 51.3338L85.2492 53.4761L90.925 62.6009L89.5652 63.4435L83.8894 54.3186L80.4319 56.4609L79.6932 55.2733L87.968 50.1461Z" fill="black"/>
<path d="M90.5462 48.5486L92.5102 51.7061L95.0044 56.5216L94.339 56.9339L91.1503 52.5487L89.1863 49.3912L90.5462 48.5486ZM96.1231 57.3534L97.033 58.8163L95.5141 59.7575L94.6041 58.2946L96.1231 57.3534Z" fill="black"/>
<path d="M171.396 95.5852L179.667 104.482L178.495 105.57L171.176 97.698L167.236 101.356L174.555 109.228L173.383 110.316L166.064 102.444L162.124 106.102L169.442 113.974L168.27 115.062L159.999 106.166L171.396 95.5852Z" fill="black"/>
<path d="M162.741 120.591C161.395 121.841 159.952 122.388 158.414 122.233C156.884 122.086 155.483 121.33 154.213 119.964C152.935 118.589 152.252 117.113 152.163 115.535C152.074 113.957 152.707 112.539 154.062 111.281C154.752 110.64 155.488 110.19 156.269 109.931C157.05 109.671 157.82 109.6 158.58 109.718C159.331 109.843 160.062 110.104 160.771 110.5C161.472 110.905 162.129 111.436 162.741 112.094C164.034 113.485 164.682 114.948 164.684 116.483C164.677 118.025 164.03 119.394 162.741 120.591ZM161.789 119.566C162.778 118.648 163.213 117.592 163.095 116.398C162.976 115.22 162.44 114.119 161.487 113.095C160.449 111.979 159.342 111.346 158.166 111.196C156.989 111.063 155.93 111.432 154.991 112.304C154.06 113.169 153.626 114.193 153.688 115.376C153.751 116.56 154.297 117.705 155.327 118.813C156.35 119.913 157.449 120.529 158.627 120.663C159.795 120.804 160.849 120.438 161.789 119.566Z" fill="black"/>
<path d="M149.604 132.391L150.022 125.345L141.183 123.634L142.679 122.244L150.101 123.781L150.272 121.016L147.367 117.892L148.539 116.804L156.811 125.7L155.639 126.788L151.538 122.378L151.137 130.967L149.604 132.391Z" fill="black"/>
<path d="M52.6169 137.164L42.8615 144.349L41.9088 143.059L50.5407 136.702L47.3382 132.365L38.7062 138.722L37.7536 137.432L46.3855 131.075L43.183 126.739L34.551 133.096L33.5983 131.806L43.3538 124.622L52.6169 137.164Z" fill="black"/>
<path d="M28.7111 125.676C27.6166 124.194 27.2311 122.698 27.5547 121.189C27.8692 119.686 28.7755 118.383 30.2735 117.279C31.7807 116.17 33.3236 115.662 34.9023 115.756C36.481 115.851 37.821 116.643 38.9223 118.134C39.4831 118.894 39.8495 119.676 40.0213 120.482C40.1932 121.287 40.179 122.061 39.9787 122.801C39.7716 123.533 39.4318 124.228 38.9593 124.887C38.48 125.536 37.8796 126.127 37.158 126.658C35.6325 127.782 34.1069 128.256 32.581 128.08C31.0483 127.895 29.7584 127.094 28.7111 125.676ZM29.8347 124.848C30.6387 125.937 31.6405 126.492 32.8402 126.512C34.024 126.53 35.1777 126.125 36.3012 125.298C37.5252 124.396 38.2763 123.37 38.5543 122.219C38.8165 121.066 38.5659 119.972 37.8024 118.938C37.0457 117.913 36.0756 117.364 34.8921 117.289C33.7087 117.214 32.5096 117.624 31.2947 118.519C30.089 119.407 29.355 120.428 29.0928 121.581C28.8239 122.726 29.0712 123.815 29.8347 124.848Z" fill="black"/>
<path d="M18.4266 111.264L25.3857 112.494L28.0605 103.914L29.2766 105.561L26.9314 112.754L29.6619 113.243L33.0873 110.721L34.0399 112.011L24.2845 119.195L23.3318 117.905L28.1685 114.343L19.6732 112.951L18.4266 111.264Z" fill="black"/>
<path d="M142.39 57.1531L149.319 47.2167L150.634 48.1346L144.503 56.9267L148.924 60.0127L155.055 51.2206L156.37 52.1386L150.239 60.9306L154.66 64.0166L160.791 55.2245L162.106 56.1425L155.177 66.0789L142.39 57.1531Z" fill="black"/>
<path d="M168.697 60.3901C170.208 61.4448 171.052 62.7396 171.23 64.2745C171.414 65.8001 170.974 67.3259 169.91 68.8517C168.839 70.3868 167.542 71.3624 166.018 71.7785C164.493 72.1945 162.971 71.872 161.451 70.8108C160.677 70.2704 160.079 69.6458 159.658 68.937C159.237 68.2282 159.003 67.4905 158.955 66.724C158.916 65.964 159.015 65.196 159.251 64.4201C159.496 63.6507 159.875 62.8986 160.388 62.1636C161.471 60.6098 162.763 59.6719 164.264 59.3498C165.773 59.0342 167.251 59.381 168.697 60.3901ZM167.899 61.5345C166.789 60.7597 165.663 60.5548 164.521 60.9196C163.395 61.2817 162.433 62.0349 161.635 63.1792C160.765 64.4259 160.384 65.6395 160.49 66.82C160.611 67.9977 161.199 68.9544 162.253 69.6901C163.298 70.4193 164.392 70.6298 165.536 70.3217C166.68 70.0136 167.683 69.2409 168.546 68.0035C169.403 66.7754 169.77 65.5725 169.648 64.3948C169.536 63.2236 168.953 62.2701 167.899 61.5345Z" fill="black"/>
<path d="M183.05 70.7618L176.07 71.8234L176.289 80.8154L174.61 79.6436L174.524 72.0721L171.783 72.4827L169.35 75.9717L168.035 75.0537L174.964 65.1173L176.279 66.0352L172.844 70.9616L181.329 69.5607L183.05 70.7618Z" fill="black"/>
</svg>
