<svg width="727" height="159" viewBox="0 0 727 159" fill="none" xmlns="http://www.w3.org/2000/svg">
<rect x="1.11526" y="79.8133" width="720.371" height="78.9972" transform="rotate(-6.29163 1.11526 79.8133)" fill="white" stroke="black"/>
<mask id="path-2-outside-1" maskUnits="userSpaceOnUse" x="24.1338" y="9.44922" width="672" height="138" fill="black">
<rect fill="white" x="24.1338" y="9.44922" width="672" height="138"/>
<path d="M31.3913 91.0663L51.468 88.7076C54.7269 88.3247 57.5208 88.3032 59.8498 88.6432C62.1788 88.9831 64.1217 89.6516 65.6783 90.6487C67.2323 91.6224 68.4205 92.8988 69.2432 94.4776C70.0659 96.0565 70.6003 97.8934 70.8464 99.9883C71.0023 101.315 70.9767 102.604 70.7698 103.856C70.5834 105.081 70.2012 106.247 69.6232 107.353C69.0657 108.434 68.2981 109.432 67.3203 110.349C66.3631 111.241 65.1916 112.015 63.8058 112.674C64.8231 113.097 65.7527 113.578 66.5947 114.116C67.434 114.631 68.1692 115.264 68.8003 116.016C69.4286 116.745 69.9413 117.593 70.3382 118.561C70.7584 119.527 71.0423 120.638 71.19 121.895C71.4936 124.479 71.3453 126.832 70.7453 128.956C70.1425 131.056 69.1084 132.9 67.6431 134.488C66.1777 136.076 64.3017 137.382 62.0149 138.406C59.7254 139.407 57.0327 140.089 53.9368 140.453L28.1338 143.484L31.3913 91.0663ZM39.3823 133.172L52.5457 131.625C54.1751 131.434 55.5197 131.028 56.5796 130.408C57.6395 129.788 58.4749 129.064 59.0857 128.237C59.6965 127.41 60.1012 126.537 60.2999 125.617C60.4986 124.697 60.5501 123.829 60.4544 123.014C60.3258 121.92 60.0302 121.011 59.5675 120.287C59.1021 119.539 58.5018 118.949 57.7666 118.516C57.0547 118.081 56.2195 117.801 55.261 117.678C54.3026 117.554 53.2647 117.558 52.1474 117.69L40.2759 119.084L39.3823 133.172ZM40.7846 110.458L53.1449 109.006C55.6821 108.708 57.5499 107.934 58.7481 106.684C59.9437 105.411 60.417 103.715 60.1682 101.597C60.056 100.643 59.7885 99.8716 59.3655 99.2841C58.9658 98.6939 58.4414 98.2481 57.7924 97.9468C57.1667 97.6427 56.4383 97.4687 55.6072 97.4248C54.7734 97.3576 53.8909 97.3786 52.9598 97.488L41.5073 98.8335L40.7846 110.458Z"/>
<path d="M102.969 82.6569L137.082 78.6491L136.549 87.6674L112.946 90.4405L112.293 102.057L133.941 99.5136L133.411 108.567L111.833 111.102L111.03 124.754L135.786 121.845L135.256 130.899L99.7118 135.075L102.969 82.6569Z"/>
<path d="M147.383 77.4389L157.892 76.2042L156.373 97.0197L173.43 74.3787L186.733 72.8158L167.914 97.3276L186.408 124.889L174.467 126.292L161.387 105.953L155.656 113.21L154.774 128.606L144.125 129.857L147.383 77.4389Z"/>
<path d="M215.506 80.3025L215.367 80.3189L207.261 103.218L220.145 101.704L215.506 80.3025ZM209.673 70.1207L222.208 68.648L234.732 119.212L224.153 120.455L222.025 110.475L203.938 112.6L200.2 123.269L188.818 124.606L209.673 70.1207Z"/>
<path d="M250.62 74.2657L237.038 75.8614L237.641 66.8348L274.023 62.5604L273.42 71.5869L261.339 73.0063L258.615 116.406L247.896 117.665L250.62 74.2657Z"/>
<path d="M281.879 61.6374L315.992 57.6296L315.459 66.6479L291.856 69.421L291.203 81.0375L312.851 78.4941L312.322 87.5474L290.743 90.0826L289.94 103.734L314.696 100.826L314.167 109.879L278.622 114.055L281.879 61.6374Z"/>
<path d="M325.594 56.5015L343.262 54.4258C346.591 54.0347 349.443 54.1125 351.82 54.6592C354.218 55.1799 356.207 56.0435 357.788 57.2501C359.39 58.4306 360.611 59.8801 361.45 61.5986C362.309 63.2912 362.854 65.1151 363.084 67.0704C363.426 69.98 363.29 72.6391 362.676 75.0475C362.085 77.4531 361.011 79.5615 359.454 81.3728C357.897 83.184 355.866 84.6735 353.36 85.841C350.877 87.0058 347.913 87.7906 344.468 88.1954L334.168 89.4055L333.056 107.66L322.337 108.919L325.594 56.5015ZM334.767 80.344L344.299 79.2241C345.999 79.0245 347.426 78.6208 348.582 78.013C349.738 77.4053 350.653 76.6606 351.328 75.7789C352.027 74.8945 352.5 73.9066 352.75 72.8154C352.996 71.7009 353.05 70.55 352.911 69.3629C352.798 68.4085 352.577 67.526 352.246 66.7154C351.935 65.8787 351.463 65.179 350.831 64.6161C350.196 64.03 349.379 63.6068 348.381 63.3465C347.406 63.0834 346.209 63.0353 344.789 63.2021L335.78 64.2605L334.767 80.344Z"/>
<path d="M373.429 50.8815L384.149 49.6221L381.818 84.6214L381.958 84.605L403.457 47.3536L414.91 46.0081L411.582 98.4342L400.828 99.6976L404.482 63.304L404.342 63.3204L381.031 102.024L370.032 103.316L373.429 50.8815Z"/>
<path d="M425.035 44.8185L435.755 43.5591L434.486 63.4957L454.563 61.1369L455.866 41.1963L466.586 39.9369L463.258 92.363L452.504 93.6264L454.034 70.1902L433.957 72.5489L432.427 95.9852L421.708 97.2445L425.035 44.8185Z"/>
<path d="M476.641 38.7555L512.046 34.5959L511.513 43.6143L486.688 46.5309L485.965 58.1556L498.674 56.6624C501.7 56.3069 504.347 56.3381 506.615 56.7561C508.879 57.1508 510.782 57.8829 512.324 58.9525C513.886 59.9961 515.094 61.3409 515.948 62.9869C516.823 64.6068 517.383 66.4643 517.63 68.5592C517.72 69.3274 517.763 70.3016 517.76 71.4819C517.755 72.6389 517.606 73.8835 517.314 75.2157C517.02 76.5247 516.529 77.8685 515.841 79.2472C515.151 80.6026 514.167 81.8745 512.891 83.0628C511.635 84.2251 510.021 85.2524 508.05 86.1448C506.075 87.014 503.668 87.6154 500.828 87.949L473.384 91.1733L476.641 38.7555ZM484.493 80.8771L497.517 79.347C499.146 79.1556 500.584 78.845 501.832 78.4152C503.076 77.9622 504.104 77.3695 504.915 76.6371C505.723 75.8814 506.299 74.9641 506.645 73.8852C507.013 72.8036 507.111 71.5295 506.939 70.063C506.81 68.969 506.518 68.083 506.06 67.4052C505.624 66.7013 505.053 66.1666 504.35 65.8009C503.669 65.4324 502.864 65.2084 501.935 65.1289C501.005 65.0493 499.993 65.0738 498.899 65.2023L485.386 66.7899L484.493 80.8771Z"/>
<path d="M525.712 75.8928C526.964 76.0997 527.983 76.2395 528.77 76.3122C529.581 76.3822 530.359 76.3734 531.104 76.2859C532.524 76.1191 533.646 75.8338 534.472 75.43C535.321 75.0235 535.96 74.5354 536.389 73.9659C536.814 73.3731 537.068 72.7179 537.149 72.0005C537.253 71.2803 537.257 70.5128 537.161 69.6981C537.06 68.8369 536.85 67.8469 536.529 66.7282C536.209 65.6094 535.758 64.2819 535.176 62.7455L524.162 33.1724L535.196 31.8762L544.169 59.7422L544.308 59.7258L555.203 29.5256L567.004 28.1391L547.496 73.8999C546.7 75.7633 545.828 77.3761 544.878 78.7383C543.95 80.0746 542.892 81.2136 541.705 82.1554C540.517 83.0973 539.188 83.8317 537.716 84.3586C536.246 84.9088 534.581 85.2933 532.719 85.5121C532.183 85.575 531.597 85.6084 530.96 85.6124C530.347 85.6137 529.706 85.5828 529.038 85.5197C528.396 85.4771 527.751 85.4113 527.103 85.3222C526.482 85.2537 525.894 85.1694 525.339 85.0693L525.712 75.8928Z"/>
<path d="M572.032 27.5484L589.7 25.4727C593.028 25.0816 595.881 25.1594 598.258 25.7061C600.656 26.2268 602.645 27.0904 604.226 28.297C605.828 29.4775 607.049 30.927 607.888 32.6455C608.747 34.3381 609.292 36.162 609.522 38.1173C609.863 41.0269 609.727 43.686 609.114 46.0944C608.523 48.5 607.449 50.6085 605.892 52.4197C604.335 54.2309 602.304 55.7204 599.798 56.8879C597.315 58.0527 594.351 58.8375 590.906 59.2423L580.606 60.4524L579.494 78.7069L568.775 79.9662L572.032 27.5484ZM581.205 51.3909L590.737 50.271C592.436 50.0714 593.864 49.6677 595.02 49.0599C596.175 48.4522 597.091 47.7075 597.766 46.8258C598.464 45.9414 598.938 44.9535 599.188 43.8623C599.434 42.7478 599.488 41.5969 599.348 40.4098C599.236 39.4554 599.015 38.5729 598.683 37.7623C598.373 36.9256 597.901 36.2259 597.269 35.663C596.633 35.0769 595.817 34.6537 594.819 34.3934C593.844 34.1303 592.646 34.0822 591.226 34.249L582.218 35.3074L581.205 51.3909Z"/>
<path d="M619.867 21.9284L652.13 18.138L651.527 27.1646L629.983 29.6956L627.189 73.1033L616.47 74.3627L619.867 21.9284Z"/>
<path d="M657.926 17.457L692.039 13.4492L691.505 22.4676L667.902 25.2407L667.249 36.8571L688.897 34.3138L688.368 43.3671L666.79 45.9022L665.987 59.554L690.742 56.6456L690.213 65.6989L654.668 69.8749L657.926 17.457Z"/>
</mask>
<path d="M31.3913 91.0663L51.468 88.7076C54.7269 88.3247 57.5208 88.3032 59.8498 88.6432C62.1788 88.9831 64.1217 89.6516 65.6783 90.6487C67.2323 91.6224 68.4205 92.8988 69.2432 94.4776C70.0659 96.0565 70.6003 97.8934 70.8464 99.9883C71.0023 101.315 70.9767 102.604 70.7698 103.856C70.5834 105.081 70.2012 106.247 69.6232 107.353C69.0657 108.434 68.2981 109.432 67.3203 110.349C66.3631 111.241 65.1916 112.015 63.8058 112.674C64.8231 113.097 65.7527 113.578 66.5947 114.116C67.434 114.631 68.1692 115.264 68.8003 116.016C69.4286 116.745 69.9413 117.593 70.3382 118.561C70.7584 119.527 71.0423 120.638 71.19 121.895C71.4936 124.479 71.3453 126.832 70.7453 128.956C70.1425 131.056 69.1084 132.9 67.6431 134.488C66.1777 136.076 64.3017 137.382 62.0149 138.406C59.7254 139.407 57.0327 140.089 53.9368 140.453L28.1338 143.484L31.3913 91.0663ZM39.3823 133.172L52.5457 131.625C54.1751 131.434 55.5197 131.028 56.5796 130.408C57.6395 129.788 58.4749 129.064 59.0857 128.237C59.6965 127.41 60.1012 126.537 60.2999 125.617C60.4986 124.697 60.5501 123.829 60.4544 123.014C60.3258 121.92 60.0302 121.011 59.5675 120.287C59.1021 119.539 58.5018 118.949 57.7666 118.516C57.0547 118.081 56.2195 117.801 55.261 117.678C54.3026 117.554 53.2647 117.558 52.1474 117.69L40.2759 119.084L39.3823 133.172ZM40.7846 110.458L53.1449 109.006C55.6821 108.708 57.5499 107.934 58.7481 106.684C59.9437 105.411 60.417 103.715 60.1682 101.597C60.056 100.643 59.7885 99.8716 59.3655 99.2841C58.9658 98.6939 58.4414 98.2481 57.7924 97.9468C57.1667 97.6427 56.4383 97.4687 55.6072 97.4248C54.7734 97.3576 53.8909 97.3786 52.9598 97.488L41.5073 98.8335L40.7846 110.458Z" fill="#2FAD74"/>
<path d="M31.3913 91.0663L51.468 88.7076C54.7269 88.3247 57.5208 88.3032 59.8498 88.6432C62.1788 88.9831 64.1217 89.6516 65.6783 90.6487C67.2323 91.6224 68.4205 92.8988 69.2432 94.4776C70.0659 96.0565 70.6003 97.8934 70.8464 99.9883C71.0023 101.315 70.9767 102.604 70.7698 103.856C70.5834 105.081 70.2012 106.247 69.6232 107.353C69.0657 108.434 68.2981 109.432 67.3203 110.349C66.3631 111.241 65.1916 112.015 63.8058 112.674C64.8231 113.097 65.7527 113.578 66.5947 114.116C67.434 114.631 68.1692 115.264 68.8003 116.016C69.4286 116.745 69.9413 117.593 70.3382 118.561C70.7584 119.527 71.0423 120.638 71.19 121.895C71.4936 124.479 71.3453 126.832 70.7453 128.956C70.1425 131.056 69.1084 132.9 67.6431 134.488C66.1777 136.076 64.3017 137.382 62.0149 138.406C59.7254 139.407 57.0327 140.089 53.9368 140.453L28.1338 143.484L31.3913 91.0663ZM39.3823 133.172L52.5457 131.625C54.1751 131.434 55.5197 131.028 56.5796 130.408C57.6395 129.788 58.4749 129.064 59.0857 128.237C59.6965 127.41 60.1012 126.537 60.2999 125.617C60.4986 124.697 60.5501 123.829 60.4544 123.014C60.3258 121.92 60.0302 121.011 59.5675 120.287C59.1021 119.539 58.5018 118.949 57.7666 118.516C57.0547 118.081 56.2195 117.801 55.261 117.678C54.3026 117.554 53.2647 117.558 52.1474 117.69L40.2759 119.084L39.3823 133.172ZM40.7846 110.458L53.1449 109.006C55.6821 108.708 57.5499 107.934 58.7481 106.684C59.9437 105.411 60.417 103.715 60.1682 101.597C60.056 100.643 59.7885 99.8716 59.3655 99.2841C58.9658 98.6939 58.4414 98.2481 57.7924 97.9468C57.1667 97.6427 56.4383 97.4687 55.6072 97.4248C54.7734 97.3576 53.8909 97.3786 52.9598 97.488L41.5073 98.8335L40.7846 110.458Z" fill="url(#paint0_linear)"/>
<path d="M102.969 82.6569L137.082 78.6491L136.549 87.6674L112.946 90.4405L112.293 102.057L133.941 99.5136L133.411 108.567L111.833 111.102L111.03 124.754L135.786 121.845L135.256 130.899L99.7118 135.075L102.969 82.6569Z" fill="#2FAD74"/>
<path d="M102.969 82.6569L137.082 78.6491L136.549 87.6674L112.946 90.4405L112.293 102.057L133.941 99.5136L133.411 108.567L111.833 111.102L111.03 124.754L135.786 121.845L135.256 130.899L99.7118 135.075L102.969 82.6569Z" fill="url(#paint1_linear)"/>
<path d="M147.383 77.4389L157.892 76.2042L156.373 97.0197L173.43 74.3787L186.733 72.8158L167.914 97.3276L186.408 124.889L174.467 126.292L161.387 105.953L155.656 113.21L154.774 128.606L144.125 129.857L147.383 77.4389Z" fill="#2FAD74"/>
<path d="M147.383 77.4389L157.892 76.2042L156.373 97.0197L173.43 74.3787L186.733 72.8158L167.914 97.3276L186.408 124.889L174.467 126.292L161.387 105.953L155.656 113.21L154.774 128.606L144.125 129.857L147.383 77.4389Z" fill="url(#paint2_linear)"/>
<path d="M215.506 80.3025L215.367 80.3189L207.261 103.218L220.145 101.704L215.506 80.3025ZM209.673 70.1207L222.208 68.648L234.732 119.212L224.153 120.455L222.025 110.475L203.938 112.6L200.2 123.269L188.818 124.606L209.673 70.1207Z" fill="#2FAD74"/>
<path d="M215.506 80.3025L215.367 80.3189L207.261 103.218L220.145 101.704L215.506 80.3025ZM209.673 70.1207L222.208 68.648L234.732 119.212L224.153 120.455L222.025 110.475L203.938 112.6L200.2 123.269L188.818 124.606L209.673 70.1207Z" fill="url(#paint3_linear)"/>
<path d="M250.62 74.2657L237.038 75.8614L237.641 66.8348L274.023 62.5604L273.42 71.5869L261.339 73.0063L258.615 116.406L247.896 117.665L250.62 74.2657Z" fill="#2FAD74"/>
<path d="M250.62 74.2657L237.038 75.8614L237.641 66.8348L274.023 62.5604L273.42 71.5869L261.339 73.0063L258.615 116.406L247.896 117.665L250.62 74.2657Z" fill="url(#paint4_linear)"/>
<path d="M281.879 61.6374L315.992 57.6296L315.459 66.6479L291.856 69.421L291.203 81.0375L312.851 78.4941L312.322 87.5474L290.743 90.0826L289.94 103.734L314.696 100.826L314.167 109.879L278.622 114.055L281.879 61.6374Z" fill="#2FAD74"/>
<path d="M281.879 61.6374L315.992 57.6296L315.459 66.6479L291.856 69.421L291.203 81.0375L312.851 78.4941L312.322 87.5474L290.743 90.0826L289.94 103.734L314.696 100.826L314.167 109.879L278.622 114.055L281.879 61.6374Z" fill="url(#paint5_linear)"/>
<path d="M325.594 56.5015L343.262 54.4258C346.591 54.0347 349.443 54.1125 351.82 54.6592C354.218 55.1799 356.207 56.0435 357.788 57.2501C359.39 58.4306 360.611 59.8801 361.45 61.5986C362.309 63.2912 362.854 65.1151 363.084 67.0704C363.426 69.98 363.29 72.6391 362.676 75.0475C362.085 77.4531 361.011 79.5615 359.454 81.3728C357.897 83.184 355.866 84.6735 353.36 85.841C350.877 87.0058 347.913 87.7906 344.468 88.1954L334.168 89.4055L333.056 107.66L322.337 108.919L325.594 56.5015ZM334.767 80.344L344.299 79.2241C345.999 79.0245 347.426 78.6208 348.582 78.013C349.738 77.4053 350.653 76.6606 351.328 75.7789C352.027 74.8945 352.5 73.9066 352.75 72.8154C352.996 71.7009 353.05 70.55 352.911 69.3629C352.798 68.4085 352.577 67.526 352.246 66.7154C351.935 65.8787 351.463 65.179 350.831 64.6161C350.196 64.03 349.379 63.6068 348.381 63.3465C347.406 63.0834 346.209 63.0353 344.789 63.2021L335.78 64.2605L334.767 80.344Z" fill="#2FAD74"/>
<path d="M325.594 56.5015L343.262 54.4258C346.591 54.0347 349.443 54.1125 351.82 54.6592C354.218 55.1799 356.207 56.0435 357.788 57.2501C359.39 58.4306 360.611 59.8801 361.45 61.5986C362.309 63.2912 362.854 65.1151 363.084 67.0704C363.426 69.98 363.29 72.6391 362.676 75.0475C362.085 77.4531 361.011 79.5615 359.454 81.3728C357.897 83.184 355.866 84.6735 353.36 85.841C350.877 87.0058 347.913 87.7906 344.468 88.1954L334.168 89.4055L333.056 107.66L322.337 108.919L325.594 56.5015ZM334.767 80.344L344.299 79.2241C345.999 79.0245 347.426 78.6208 348.582 78.013C349.738 77.4053 350.653 76.6606 351.328 75.7789C352.027 74.8945 352.5 73.9066 352.75 72.8154C352.996 71.7009 353.05 70.55 352.911 69.3629C352.798 68.4085 352.577 67.526 352.246 66.7154C351.935 65.8787 351.463 65.179 350.831 64.6161C350.196 64.03 349.379 63.6068 348.381 63.3465C347.406 63.0834 346.209 63.0353 344.789 63.2021L335.78 64.2605L334.767 80.344Z" fill="url(#paint6_linear)"/>
<path d="M373.429 50.8815L384.149 49.6221L381.818 84.6214L381.958 84.605L403.457 47.3536L414.91 46.0081L411.582 98.4342L400.828 99.6976L404.482 63.304L404.342 63.3204L381.031 102.024L370.032 103.316L373.429 50.8815Z" fill="#2FAD74"/>
<path d="M373.429 50.8815L384.149 49.6221L381.818 84.6214L381.958 84.605L403.457 47.3536L414.91 46.0081L411.582 98.4342L400.828 99.6976L404.482 63.304L404.342 63.3204L381.031 102.024L370.032 103.316L373.429 50.8815Z" fill="url(#paint7_linear)"/>
<path d="M425.035 44.8185L435.755 43.5591L434.486 63.4957L454.563 61.1369L455.866 41.1963L466.586 39.9369L463.258 92.363L452.504 93.6264L454.034 70.1902L433.957 72.5489L432.427 95.9852L421.708 97.2445L425.035 44.8185Z" fill="#2FAD74"/>
<path d="M425.035 44.8185L435.755 43.5591L434.486 63.4957L454.563 61.1369L455.866 41.1963L466.586 39.9369L463.258 92.363L452.504 93.6264L454.034 70.1902L433.957 72.5489L432.427 95.9852L421.708 97.2445L425.035 44.8185Z" fill="url(#paint8_linear)"/>
<path d="M476.641 38.7555L512.046 34.5959L511.513 43.6143L486.688 46.5309L485.965 58.1556L498.674 56.6624C501.7 56.3069 504.347 56.3381 506.615 56.7561C508.879 57.1508 510.782 57.8829 512.324 58.9525C513.886 59.9961 515.094 61.3409 515.948 62.9869C516.823 64.6068 517.383 66.4643 517.63 68.5592C517.72 69.3274 517.763 70.3016 517.76 71.4819C517.755 72.6389 517.606 73.8835 517.314 75.2157C517.02 76.5247 516.529 77.8685 515.841 79.2472C515.151 80.6026 514.167 81.8745 512.891 83.0628C511.635 84.2251 510.021 85.2524 508.05 86.1448C506.075 87.014 503.668 87.6154 500.828 87.949L473.384 91.1733L476.641 38.7555ZM484.493 80.8771L497.517 79.347C499.146 79.1556 500.584 78.845 501.832 78.4152C503.076 77.9622 504.104 77.3695 504.915 76.6371C505.723 75.8814 506.299 74.9641 506.645 73.8852C507.013 72.8036 507.111 71.5295 506.939 70.063C506.81 68.969 506.518 68.083 506.06 67.4052C505.624 66.7013 505.053 66.1666 504.35 65.8009C503.669 65.4324 502.864 65.2084 501.935 65.1289C501.005 65.0493 499.993 65.0738 498.899 65.2023L485.386 66.7899L484.493 80.8771Z" fill="#2FAD74"/>
<path d="M476.641 38.7555L512.046 34.5959L511.513 43.6143L486.688 46.5309L485.965 58.1556L498.674 56.6624C501.7 56.3069 504.347 56.3381 506.615 56.7561C508.879 57.1508 510.782 57.8829 512.324 58.9525C513.886 59.9961 515.094 61.3409 515.948 62.9869C516.823 64.6068 517.383 66.4643 517.63 68.5592C517.72 69.3274 517.763 70.3016 517.76 71.4819C517.755 72.6389 517.606 73.8835 517.314 75.2157C517.02 76.5247 516.529 77.8685 515.841 79.2472C515.151 80.6026 514.167 81.8745 512.891 83.0628C511.635 84.2251 510.021 85.2524 508.05 86.1448C506.075 87.014 503.668 87.6154 500.828 87.949L473.384 91.1733L476.641 38.7555ZM484.493 80.8771L497.517 79.347C499.146 79.1556 500.584 78.845 501.832 78.4152C503.076 77.9622 504.104 77.3695 504.915 76.6371C505.723 75.8814 506.299 74.9641 506.645 73.8852C507.013 72.8036 507.111 71.5295 506.939 70.063C506.81 68.969 506.518 68.083 506.06 67.4052C505.624 66.7013 505.053 66.1666 504.35 65.8009C503.669 65.4324 502.864 65.2084 501.935 65.1289C501.005 65.0493 499.993 65.0738 498.899 65.2023L485.386 66.7899L484.493 80.8771Z" fill="url(#paint9_linear)"/>
<path d="M525.712 75.8928C526.964 76.0997 527.983 76.2395 528.77 76.3122C529.581 76.3822 530.359 76.3734 531.104 76.2859C532.524 76.1191 533.646 75.8338 534.472 75.43C535.321 75.0235 535.96 74.5354 536.389 73.9659C536.814 73.3731 537.068 72.7179 537.149 72.0005C537.253 71.2803 537.257 70.5128 537.161 69.6981C537.06 68.8369 536.85 67.8469 536.529 66.7282C536.209 65.6094 535.758 64.2819 535.176 62.7455L524.162 33.1724L535.196 31.8762L544.169 59.7422L544.308 59.7258L555.203 29.5256L567.004 28.1391L547.496 73.8999C546.7 75.7633 545.828 77.3761 544.878 78.7383C543.95 80.0746 542.892 81.2136 541.705 82.1554C540.517 83.0973 539.188 83.8317 537.716 84.3586C536.246 84.9088 534.581 85.2933 532.719 85.5121C532.183 85.575 531.597 85.6084 530.96 85.6124C530.347 85.6137 529.706 85.5828 529.038 85.5197C528.396 85.4771 527.751 85.4113 527.103 85.3222C526.482 85.2537 525.894 85.1694 525.339 85.0693L525.712 75.8928Z" fill="#2FAD74"/>
<path d="M525.712 75.8928C526.964 76.0997 527.983 76.2395 528.77 76.3122C529.581 76.3822 530.359 76.3734 531.104 76.2859C532.524 76.1191 533.646 75.8338 534.472 75.43C535.321 75.0235 535.96 74.5354 536.389 73.9659C536.814 73.3731 537.068 72.7179 537.149 72.0005C537.253 71.2803 537.257 70.5128 537.161 69.6981C537.06 68.8369 536.85 67.8469 536.529 66.7282C536.209 65.6094 535.758 64.2819 535.176 62.7455L524.162 33.1724L535.196 31.8762L544.169 59.7422L544.308 59.7258L555.203 29.5256L567.004 28.1391L547.496 73.8999C546.7 75.7633 545.828 77.3761 544.878 78.7383C543.95 80.0746 542.892 81.2136 541.705 82.1554C540.517 83.0973 539.188 83.8317 537.716 84.3586C536.246 84.9088 534.581 85.2933 532.719 85.5121C532.183 85.575 531.597 85.6084 530.96 85.6124C530.347 85.6137 529.706 85.5828 529.038 85.5197C528.396 85.4771 527.751 85.4113 527.103 85.3222C526.482 85.2537 525.894 85.1694 525.339 85.0693L525.712 75.8928Z" fill="url(#paint10_linear)"/>
<path d="M572.032 27.5484L589.7 25.4727C593.028 25.0816 595.881 25.1594 598.258 25.7061C600.656 26.2268 602.645 27.0904 604.226 28.297C605.828 29.4775 607.049 30.927 607.888 32.6455C608.747 34.3381 609.292 36.162 609.522 38.1173C609.863 41.0269 609.727 43.686 609.114 46.0944C608.523 48.5 607.449 50.6085 605.892 52.4197C604.335 54.2309 602.304 55.7204 599.798 56.8879C597.315 58.0527 594.351 58.8375 590.906 59.2423L580.606 60.4524L579.494 78.7069L568.775 79.9662L572.032 27.5484ZM581.205 51.3909L590.737 50.271C592.436 50.0714 593.864 49.6677 595.02 49.0599C596.175 48.4522 597.091 47.7075 597.766 46.8258C598.464 45.9414 598.938 44.9535 599.188 43.8623C599.434 42.7478 599.488 41.5969 599.348 40.4098C599.236 39.4554 599.015 38.5729 598.683 37.7623C598.373 36.9256 597.901 36.2259 597.269 35.663C596.633 35.0769 595.817 34.6537 594.819 34.3934C593.844 34.1303 592.646 34.0822 591.226 34.249L582.218 35.3074L581.205 51.3909Z" fill="#2FAD74"/>
<path d="M572.032 27.5484L589.7 25.4727C593.028 25.0816 595.881 25.1594 598.258 25.7061C600.656 26.2268 602.645 27.0904 604.226 28.297C605.828 29.4775 607.049 30.927 607.888 32.6455C608.747 34.3381 609.292 36.162 609.522 38.1173C609.863 41.0269 609.727 43.686 609.114 46.0944C608.523 48.5 607.449 50.6085 605.892 52.4197C604.335 54.2309 602.304 55.7204 599.798 56.8879C597.315 58.0527 594.351 58.8375 590.906 59.2423L580.606 60.4524L579.494 78.7069L568.775 79.9662L572.032 27.5484ZM581.205 51.3909L590.737 50.271C592.436 50.0714 593.864 49.6677 595.02 49.0599C596.175 48.4522 597.091 47.7075 597.766 46.8258C598.464 45.9414 598.938 44.9535 599.188 43.8623C599.434 42.7478 599.488 41.5969 599.348 40.4098C599.236 39.4554 599.015 38.5729 598.683 37.7623C598.373 36.9256 597.901 36.2259 597.269 35.663C596.633 35.0769 595.817 34.6537 594.819 34.3934C593.844 34.1303 592.646 34.0822 591.226 34.249L582.218 35.3074L581.205 51.3909Z" fill="url(#paint11_linear)"/>
<path d="M619.867 21.9284L652.13 18.138L651.527 27.1646L629.983 29.6956L627.189 73.1033L616.47 74.3627L619.867 21.9284Z" fill="#2FAD74"/>
<path d="M619.867 21.9284L652.13 18.138L651.527 27.1646L629.983 29.6956L627.189 73.1033L616.47 74.3627L619.867 21.9284Z" fill="url(#paint12_linear)"/>
<path d="M657.926 17.457L692.039 13.4492L691.505 22.4676L667.902 25.2407L667.249 36.8571L688.897 34.3138L688.368 43.3671L666.79 45.9022L665.987 59.554L690.742 56.6456L690.213 65.6989L654.668 69.8749L657.926 17.457Z" fill="#2FAD74"/>
<path d="M657.926 17.457L692.039 13.4492L691.505 22.4676L667.902 25.2407L667.249 36.8571L688.897 34.3138L688.368 43.3671L666.79 45.9022L665.987 59.554L690.742 56.6456L690.213 65.6989L654.668 69.8749L657.926 17.457Z" fill="url(#paint13_linear)"/>
<path d="M31.3913 91.0663L51.468 88.7076C54.7269 88.3247 57.5208 88.3032 59.8498 88.6432C62.1788 88.9831 64.1217 89.6516 65.6783 90.6487C67.2323 91.6224 68.4205 92.8988 69.2432 94.4776C70.0659 96.0565 70.6003 97.8934 70.8464 99.9883C71.0023 101.315 70.9767 102.604 70.7698 103.856C70.5834 105.081 70.2012 106.247 69.6232 107.353C69.0657 108.434 68.2981 109.432 67.3203 110.349C66.3631 111.241 65.1916 112.015 63.8058 112.674C64.8231 113.097 65.7527 113.578 66.5947 114.116C67.434 114.631 68.1692 115.264 68.8003 116.016C69.4286 116.745 69.9413 117.593 70.3382 118.561C70.7584 119.527 71.0423 120.638 71.19 121.895C71.4936 124.479 71.3453 126.832 70.7453 128.956C70.1425 131.056 69.1084 132.9 67.6431 134.488C66.1777 136.076 64.3017 137.382 62.0149 138.406C59.7254 139.407 57.0327 140.089 53.9368 140.453L28.1338 143.484L31.3913 91.0663ZM39.3823 133.172L52.5457 131.625C54.1751 131.434 55.5197 131.028 56.5796 130.408C57.6395 129.788 58.4749 129.064 59.0857 128.237C59.6965 127.41 60.1012 126.537 60.2999 125.617C60.4986 124.697 60.5501 123.829 60.4544 123.014C60.3258 121.92 60.0302 121.011 59.5675 120.287C59.1021 119.539 58.5018 118.949 57.7666 118.516C57.0547 118.081 56.2195 117.801 55.261 117.678C54.3026 117.554 53.2647 117.558 52.1474 117.69L40.2759 119.084L39.3823 133.172ZM40.7846 110.458L53.1449 109.006C55.6821 108.708 57.5499 107.934 58.7481 106.684C59.9437 105.411 60.417 103.715 60.1682 101.597C60.056 100.643 59.7885 99.8716 59.3655 99.2841C58.9658 98.6939 58.4414 98.2481 57.7924 97.9468C57.1667 97.6427 56.4383 97.4687 55.6072 97.4248C54.7734 97.3576 53.8909 97.3786 52.9598 97.488L41.5073 98.8335L40.7846 110.458Z" stroke="black" stroke-width="6" mask="url(#path-2-outside-1)"/>
<path d="M102.969 82.6569L137.082 78.6491L136.549 87.6674L112.946 90.4405L112.293 102.057L133.941 99.5136L133.411 108.567L111.833 111.102L111.03 124.754L135.786 121.845L135.256 130.899L99.7118 135.075L102.969 82.6569Z" stroke="black" stroke-width="6" mask="url(#path-2-outside-1)"/>
<path d="M147.383 77.4389L157.892 76.2042L156.373 97.0197L173.43 74.3787L186.733 72.8158L167.914 97.3276L186.408 124.889L174.467 126.292L161.387 105.953L155.656 113.21L154.774 128.606L144.125 129.857L147.383 77.4389Z" stroke="black" stroke-width="6" mask="url(#path-2-outside-1)"/>
<path d="M215.506 80.3025L215.367 80.3189L207.261 103.218L220.145 101.704L215.506 80.3025ZM209.673 70.1207L222.208 68.648L234.732 119.212L224.153 120.455L222.025 110.475L203.938 112.6L200.2 123.269L188.818 124.606L209.673 70.1207Z" stroke="black" stroke-width="6" mask="url(#path-2-outside-1)"/>
<path d="M250.62 74.2657L237.038 75.8614L237.641 66.8348L274.023 62.5604L273.42 71.5869L261.339 73.0063L258.615 116.406L247.896 117.665L250.62 74.2657Z" stroke="black" stroke-width="6" mask="url(#path-2-outside-1)"/>
<path d="M281.879 61.6374L315.992 57.6296L315.459 66.6479L291.856 69.421L291.203 81.0375L312.851 78.4941L312.322 87.5474L290.743 90.0826L289.94 103.734L314.696 100.826L314.167 109.879L278.622 114.055L281.879 61.6374Z" stroke="black" stroke-width="6" mask="url(#path-2-outside-1)"/>
<path d="M325.594 56.5015L343.262 54.4258C346.591 54.0347 349.443 54.1125 351.82 54.6592C354.218 55.1799 356.207 56.0435 357.788 57.2501C359.39 58.4306 360.611 59.8801 361.45 61.5986C362.309 63.2912 362.854 65.1151 363.084 67.0704C363.426 69.98 363.29 72.6391 362.676 75.0475C362.085 77.4531 361.011 79.5615 359.454 81.3728C357.897 83.184 355.866 84.6735 353.36 85.841C350.877 87.0058 347.913 87.7906 344.468 88.1954L334.168 89.4055L333.056 107.66L322.337 108.919L325.594 56.5015ZM334.767 80.344L344.299 79.2241C345.999 79.0245 347.426 78.6208 348.582 78.013C349.738 77.4053 350.653 76.6606 351.328 75.7789C352.027 74.8945 352.5 73.9066 352.75 72.8154C352.996 71.7009 353.05 70.55 352.911 69.3629C352.798 68.4085 352.577 67.526 352.246 66.7154C351.935 65.8787 351.463 65.179 350.831 64.6161C350.196 64.03 349.379 63.6068 348.381 63.3465C347.406 63.0834 346.209 63.0353 344.789 63.2021L335.78 64.2605L334.767 80.344Z" stroke="black" stroke-width="6" mask="url(#path-2-outside-1)"/>
<path d="M373.429 50.8815L384.149 49.6221L381.818 84.6214L381.958 84.605L403.457 47.3536L414.91 46.0081L411.582 98.4342L400.828 99.6976L404.482 63.304L404.342 63.3204L381.031 102.024L370.032 103.316L373.429 50.8815Z" stroke="black" stroke-width="6" mask="url(#path-2-outside-1)"/>
<path d="M425.035 44.8185L435.755 43.5591L434.486 63.4957L454.563 61.1369L455.866 41.1963L466.586 39.9369L463.258 92.363L452.504 93.6264L454.034 70.1902L433.957 72.5489L432.427 95.9852L421.708 97.2445L425.035 44.8185Z" stroke="black" stroke-width="6" mask="url(#path-2-outside-1)"/>
<path d="M476.641 38.7555L512.046 34.5959L511.513 43.6143L486.688 46.5309L485.965 58.1556L498.674 56.6624C501.7 56.3069 504.347 56.3381 506.615 56.7561C508.879 57.1508 510.782 57.8829 512.324 58.9525C513.886 59.9961 515.094 61.3409 515.948 62.9869C516.823 64.6068 517.383 66.4643 517.63 68.5592C517.72 69.3274 517.763 70.3016 517.76 71.4819C517.755 72.6389 517.606 73.8835 517.314 75.2157C517.02 76.5247 516.529 77.8685 515.841 79.2472C515.151 80.6026 514.167 81.8745 512.891 83.0628C511.635 84.2251 510.021 85.2524 508.05 86.1448C506.075 87.014 503.668 87.6154 500.828 87.949L473.384 91.1733L476.641 38.7555ZM484.493 80.8771L497.517 79.347C499.146 79.1556 500.584 78.845 501.832 78.4152C503.076 77.9622 504.104 77.3695 504.915 76.6371C505.723 75.8814 506.299 74.9641 506.645 73.8852C507.013 72.8036 507.111 71.5295 506.939 70.063C506.81 68.969 506.518 68.083 506.06 67.4052C505.624 66.7013 505.053 66.1666 504.35 65.8009C503.669 65.4324 502.864 65.2084 501.935 65.1289C501.005 65.0493 499.993 65.0738 498.899 65.2023L485.386 66.7899L484.493 80.8771Z" stroke="black" stroke-width="6" mask="url(#path-2-outside-1)"/>
<path d="M525.712 75.8928C526.964 76.0997 527.983 76.2395 528.77 76.3122C529.581 76.3822 530.359 76.3734 531.104 76.2859C532.524 76.1191 533.646 75.8338 534.472 75.43C535.321 75.0235 535.96 74.5354 536.389 73.9659C536.814 73.3731 537.068 72.7179 537.149 72.0005C537.253 71.2803 537.257 70.5128 537.161 69.6981C537.06 68.8369 536.85 67.8469 536.529 66.7282C536.209 65.6094 535.758 64.2819 535.176 62.7455L524.162 33.1724L535.196 31.8762L544.169 59.7422L544.308 59.7258L555.203 29.5256L567.004 28.1391L547.496 73.8999C546.7 75.7633 545.828 77.3761 544.878 78.7383C543.95 80.0746 542.892 81.2136 541.705 82.1554C540.517 83.0973 539.188 83.8317 537.716 84.3586C536.246 84.9088 534.581 85.2933 532.719 85.5121C532.183 85.575 531.597 85.6084 530.96 85.6124C530.347 85.6137 529.706 85.5828 529.038 85.5197C528.396 85.4771 527.751 85.4113 527.103 85.3222C526.482 85.2537 525.894 85.1694 525.339 85.0693L525.712 75.8928Z" stroke="black" stroke-width="6" mask="url(#path-2-outside-1)"/>
<path d="M572.032 27.5484L589.7 25.4727C593.028 25.0816 595.881 25.1594 598.258 25.7061C600.656 26.2268 602.645 27.0904 604.226 28.297C605.828 29.4775 607.049 30.927 607.888 32.6455C608.747 34.3381 609.292 36.162 609.522 38.1173C609.863 41.0269 609.727 43.686 609.114 46.0944C608.523 48.5 607.449 50.6085 605.892 52.4197C604.335 54.2309 602.304 55.7204 599.798 56.8879C597.315 58.0527 594.351 58.8375 590.906 59.2423L580.606 60.4524L579.494 78.7069L568.775 79.9662L572.032 27.5484ZM581.205 51.3909L590.737 50.271C592.436 50.0714 593.864 49.6677 595.02 49.0599C596.175 48.4522 597.091 47.7075 597.766 46.8258C598.464 45.9414 598.938 44.9535 599.188 43.8623C599.434 42.7478 599.488 41.5969 599.348 40.4098C599.236 39.4554 599.015 38.5729 598.683 37.7623C598.373 36.9256 597.901 36.2259 597.269 35.663C596.633 35.0769 595.817 34.6537 594.819 34.3934C593.844 34.1303 592.646 34.0822 591.226 34.249L582.218 35.3074L581.205 51.3909Z" stroke="black" stroke-width="6" mask="url(#path-2-outside-1)"/>
<path d="M619.867 21.9284L652.13 18.138L651.527 27.1646L629.983 29.6956L627.189 73.1033L616.47 74.3627L619.867 21.9284Z" stroke="black" stroke-width="6" mask="url(#path-2-outside-1)"/>
<path d="M657.926 17.457L692.039 13.4492L691.505 22.4676L667.902 25.2407L667.249 36.8571L688.897 34.3138L688.368 43.3671L666.79 45.9022L665.987 59.554L690.742 56.6456L690.213 65.6989L654.668 69.8749L657.926 17.457Z" stroke="black" stroke-width="6" mask="url(#path-2-outside-1)"/>
<defs>
<linearGradient id="paint0_linear" x1="364.231" y1="34.522" x2="377.929" y2="151.107" gradientUnits="userSpaceOnUse">
<stop stop-color="#D597C3"/>
<stop offset="1" stop-color="white"/>
</linearGradient>
<linearGradient id="paint1_linear" x1="364.231" y1="34.522" x2="377.929" y2="151.107" gradientUnits="userSpaceOnUse">
<stop stop-color="#D597C3"/>
<stop offset="1" stop-color="white"/>
</linearGradient>
<linearGradient id="paint2_linear" x1="364.231" y1="34.522" x2="377.929" y2="151.107" gradientUnits="userSpaceOnUse">
<stop stop-color="#D597C3"/>
<stop offset="1" stop-color="white"/>
</linearGradient>
<linearGradient id="paint3_linear" x1="364.231" y1="34.522" x2="377.929" y2="151.107" gradientUnits="userSpaceOnUse">
<stop stop-color="#D597C3"/>
<stop offset="1" stop-color="white"/>
</linearGradient>
<linearGradient id="paint4_linear" x1="364.231" y1="34.522" x2="377.929" y2="151.107" gradientUnits="userSpaceOnUse">
<stop stop-color="#D597C3"/>
<stop offset="1" stop-color="white"/>
</linearGradient>
<linearGradient id="paint5_linear" x1="364.231" y1="34.522" x2="377.929" y2="151.107" gradientUnits="userSpaceOnUse">
<stop stop-color="#D597C3"/>
<stop offset="1" stop-color="white"/>
</linearGradient>
<linearGradient id="paint6_linear" x1="364.231" y1="34.522" x2="377.929" y2="151.107" gradientUnits="userSpaceOnUse">
<stop stop-color="#D597C3"/>
<stop offset="1" stop-color="white"/>
</linearGradient>
<linearGradient id="paint7_linear" x1="364.231" y1="34.522" x2="377.929" y2="151.107" gradientUnits="userSpaceOnUse">
<stop stop-color="#D597C3"/>
<stop offset="1" stop-color="white"/>
</linearGradient>
<linearGradient id="paint8_linear" x1="364.231" y1="34.522" x2="377.929" y2="151.107" gradientUnits="userSpaceOnUse">
<stop stop-color="#D597C3"/>
<stop offset="1" stop-color="white"/>
</linearGradient>
<linearGradient id="paint9_linear" x1="364.231" y1="34.522" x2="377.929" y2="151.107" gradientUnits="userSpaceOnUse">
<stop stop-color="#D597C3"/>
<stop offset="1" stop-color="white"/>
</linearGradient>
<linearGradient id="paint10_linear" x1="364.231" y1="34.522" x2="377.929" y2="151.107" gradientUnits="userSpaceOnUse">
<stop stop-color="#D597C3"/>
<stop offset="1" stop-color="white"/>
</linearGradient>
<linearGradient id="paint11_linear" x1="364.231" y1="34.522" x2="377.929" y2="151.107" gradientUnits="userSpaceOnUse">
<stop stop-color="#D597C3"/>
<stop offset="1" stop-color="white"/>
</linearGradient>
<linearGradient id="paint12_linear" x1="364.231" y1="34.522" x2="377.929" y2="151.107" gradientUnits="userSpaceOnUse">
<stop stop-color="#D597C3"/>
<stop offset="1" stop-color="white"/>
</linearGradient>
<linearGradient id="paint13_linear" x1="364.231" y1="34.522" x2="377.929" y2="151.107" gradientUnits="userSpaceOnUse">
<stop stop-color="#D597C3"/>
<stop offset="1" stop-color="white"/>
</linearGradient>
</defs>
</svg>
