<svg width="610" height="368" viewBox="0 0 610 368" fill="none" xmlns="http://www.w3.org/2000/svg">
<rect x="25.4351" y="103" width="404.263" height="97.4175" transform="rotate(7.33364 25.4351 103)" fill="white"/>
<rect x="39.4365" width="404.019" height="97.4175" transform="rotate(7.33364 39.4365 0)" fill="white"/>
<path d="M64.2738 28.2334L109.335 33.7549L92.4703 88.0935L80.827 86.6668L94.8566 41.6886L73.0063 39.0113L59.0145 83.994L47.4089 82.572L64.2738 28.2334ZM109.169 66.4265C109.493 63.7803 110.084 61.1539 110.94 58.5473C111.8 55.9155 112.924 53.4185 114.314 51.0563C115.703 48.6941 117.337 46.5281 119.216 44.5583C121.119 42.5917 123.266 40.9362 125.657 39.5919C128.047 38.2477 130.684 37.2917 133.567 36.7242C136.454 36.1314 139.573 36.0403 142.925 36.4511C145.999 36.8278 148.689 37.5283 150.994 38.5525C153.323 39.5798 155.307 40.8206 156.945 42.2747C158.583 43.7289 159.918 45.3633 160.949 47.178C162.009 48.9705 162.816 50.8345 163.372 52.77C163.931 54.6803 164.257 56.6132 164.35 58.5687C164.468 60.5273 164.417 62.4013 164.198 64.1906C163.874 66.8368 163.282 69.4759 162.422 72.1076C161.566 74.7142 160.443 77.1986 159.053 79.5608C157.664 81.9231 156.017 84.0875 154.114 86.0541C152.235 88.0239 150.101 89.6809 147.71 91.0252C145.32 92.3694 142.683 93.3254 139.8 93.893C136.913 94.4857 133.794 94.5768 130.442 94.1661C127.343 93.7862 124.64 93.0842 122.336 92.06C120.031 91.0357 118.047 89.795 116.384 88.3377C114.746 86.8836 113.397 85.2602 112.338 83.4677C111.307 81.653 110.513 79.778 109.957 77.8425C109.427 75.9101 109.101 73.9772 108.979 72.0438C108.887 70.0883 108.95 68.2158 109.169 66.4265ZM120.71 68.3778C120.398 70.9232 120.48 73.1716 120.958 75.1231C121.438 77.0493 122.21 78.6788 123.275 80.0115C124.339 81.3442 125.617 82.3961 127.109 83.1673C128.629 83.9163 130.258 84.3973 131.997 84.6104C134.366 84.9007 136.495 84.7522 138.383 84.165C140.271 83.5778 141.952 82.6966 143.426 81.5215C144.9 80.3463 146.171 78.9544 147.238 77.3456C148.33 75.74 149.239 74.0607 149.966 72.308C150.717 70.5583 151.302 68.8137 151.72 67.0742C152.166 65.3127 152.478 63.701 152.657 62.2393C152.972 59.6687 152.89 57.4203 152.409 55.494C151.929 53.5678 151.157 51.9384 150.092 50.6056C149.028 49.2729 147.736 48.232 146.216 47.483C144.724 46.7119 143.109 46.2198 141.37 46.0067C139.001 45.7165 136.872 45.8649 134.984 46.4521C133.096 47.0394 131.415 47.9205 129.941 49.0957C128.47 50.2456 127.187 51.636 126.091 53.2669C125.025 54.8756 124.115 56.5548 123.364 58.3045C122.637 60.0573 122.051 61.8145 121.605 63.5761C121.187 65.3155 120.889 66.9161 120.71 68.3778ZM220.457 74.1538L232.985 105.311L220.207 103.746L210.39 78.0236L207.97 77.7272L200.625 101.346L190.078 100.054L197.461 76.4394L195.609 76.2125L174.125 98.099L160.289 96.4036L188.361 69.9141L176.209 41.9492L188.987 43.5149L198.153 67.6606L200.157 67.9061L207.019 45.7244L217.641 47.0261L210.59 69.1846L212.367 69.4023L234.615 49.1059L248.073 50.755L220.457 74.1538ZM275.041 65.8393L274.89 65.8208L260.488 87.8459L274.437 89.5552L275.041 65.8393ZM271.511 53.6269L285.082 55.2898L285.304 111.722L273.85 110.319L274.168 99.2684L254.586 96.8689L247.917 107.141L235.593 105.631L271.511 53.6269ZM306.592 57.9255L325.721 60.2694C329.325 60.711 332.308 61.5241 334.669 62.7089C337.059 63.8714 338.932 65.2904 340.287 66.9657C341.67 68.6189 342.583 70.4574 343.026 72.4814C343.497 74.4832 343.603 76.5426 343.343 78.6596C342.957 81.8099 342.133 84.5738 340.869 86.9515C339.631 89.3322 337.96 91.2763 335.857 92.7836C333.754 94.291 331.234 95.338 328.297 95.9246C325.385 96.5143 322.064 96.5806 318.335 96.1236L307.183 94.7571L301.333 113.686L289.727 112.264L306.592 57.9255ZM310.136 85.3728L320.456 86.6373C322.296 86.8628 323.902 86.8038 325.274 86.4603C326.646 86.1168 327.801 85.5676 328.738 84.8127C329.699 84.0608 330.452 83.1425 330.994 82.0578C331.539 80.9479 331.89 79.7503 332.048 78.465C332.175 77.4317 332.167 76.446 332.027 75.5078C331.914 74.5476 331.597 73.6902 331.075 72.9356C330.557 72.1558 329.806 71.501 328.822 70.9712C327.863 70.4444 326.615 70.0868 325.078 69.8985L315.325 68.7034L310.136 85.3728ZM52.1115 127.491L73.8483 130.155C77.3766 130.587 80.3229 131.28 82.6872 132.235C85.0515 133.19 86.9252 134.392 88.3081 135.84C89.6941 137.263 90.6177 138.911 91.0789 140.784C91.5401 142.657 91.6318 144.727 91.3538 146.996C91.1778 148.432 90.8205 149.782 90.2819 151.047C89.7716 152.289 89.0704 153.418 88.1785 154.434C87.3148 155.428 86.2509 156.283 84.9866 156.998C83.7506 157.69 82.3189 158.206 80.6915 158.543C81.6537 159.25 82.509 159.994 83.2573 160.776C84.0087 161.533 84.6202 162.389 85.0917 163.342C85.5664 164.27 85.8885 165.294 86.0582 166.415C86.253 167.538 86.267 168.781 86.1003 170.142C85.7575 172.939 84.9982 175.379 83.8222 177.46C82.6494 179.516 81.0882 181.192 79.1388 182.488C77.1893 183.784 74.8799 184.678 72.2105 185.169C69.5441 185.636 66.535 185.663 63.1831 185.253L35.2466 181.83L52.1115 127.491ZM49.7298 173.858L63.9817 175.604C65.7458 175.821 67.2652 175.738 68.5397 175.357C69.8143 174.976 70.879 174.429 71.7339 173.715C72.5887 173.001 73.2387 172.185 73.6836 171.268C74.1286 170.35 74.4052 169.451 74.5132 168.568C74.6584 167.384 74.5803 166.351 74.279 165.47C73.9807 164.564 73.5001 163.789 72.8372 163.145C72.1995 162.504 71.392 161.996 70.4148 161.62C69.4376 161.244 68.3442 160.983 67.1345 160.834L54.2814 159.259L49.7298 173.858ZM57.0279 150.31L70.4102 151.95C73.1573 152.287 75.3216 151.951 76.9033 150.942C78.488 149.908 79.4209 148.245 79.7019 145.952C79.8285 144.918 79.7445 144.038 79.4499 143.311C79.1804 142.588 78.7428 141.984 78.1369 141.501C77.5563 141.02 76.8342 140.65 75.9706 140.391C75.1102 140.107 74.1759 139.902 73.1678 139.779L60.7684 138.26L57.0279 150.31ZM97.0066 165.684C97.3309 163.038 97.9213 160.412 98.7779 157.805C99.6375 155.173 100.762 152.676 102.151 150.314C103.541 147.952 105.175 145.786 107.053 143.816C108.957 141.849 111.104 140.194 113.494 138.85C115.885 137.505 118.521 136.549 121.405 135.982C124.291 135.389 127.41 135.298 130.762 135.709C133.837 136.085 136.527 136.786 138.831 137.81C141.161 138.837 143.145 140.078 144.783 141.532C146.421 142.987 147.756 144.621 148.787 146.436C149.846 148.228 150.654 150.092 151.21 152.028C151.769 153.938 152.094 155.871 152.187 157.826C152.306 159.785 152.255 161.659 152.036 163.448C151.711 166.094 151.119 168.733 150.26 171.365C149.403 173.972 148.28 176.456 146.891 178.818C145.501 181.181 143.855 183.345 141.951 185.312C140.073 187.282 137.938 188.939 135.548 190.283C133.158 191.627 130.521 192.583 127.638 193.151C124.751 193.743 121.632 193.834 118.28 193.424C115.18 193.044 112.478 192.342 110.173 191.318C107.869 190.293 105.885 189.053 104.221 187.595C102.583 186.141 101.235 184.518 100.175 182.725C99.1442 180.911 98.3507 179.036 97.7949 177.1C97.2643 175.168 96.9383 173.235 96.8171 171.301C96.7242 169.346 96.7874 167.473 97.0066 165.684ZM108.547 167.635C108.235 170.181 108.318 172.429 108.795 174.381C109.275 176.307 110.048 177.936 111.112 179.269C112.177 180.602 113.455 181.654 114.946 182.425C116.466 183.174 118.096 183.655 119.835 183.868C122.204 184.158 124.332 184.01 126.22 183.423C128.109 182.835 129.79 181.954 131.264 180.779C132.738 179.604 134.009 178.212 135.075 176.603C136.168 174.998 137.077 173.318 137.803 171.566C138.555 169.816 139.139 168.071 139.557 166.332C140.003 164.57 140.316 162.959 140.495 161.497C140.81 158.926 140.727 156.678 140.247 154.752C139.767 152.825 138.994 151.196 137.93 149.863C136.865 148.531 135.573 147.49 134.053 146.741C132.562 145.97 130.947 145.477 129.208 145.264C126.839 144.974 124.71 145.123 122.822 145.71C120.934 146.297 119.253 147.178 117.778 148.353C116.307 149.503 115.024 150.894 113.929 152.524C112.862 154.133 111.953 155.812 111.201 157.562C110.475 159.315 109.889 161.072 109.443 162.834C109.025 164.573 108.726 166.174 108.547 167.635ZM162.064 157.387C162.723 155.14 163.687 153.019 164.954 151.026C166.221 149.032 167.836 147.337 169.798 145.941C171.763 144.519 174.089 143.486 176.777 142.844C179.493 142.179 182.59 142.059 186.068 142.486C189.193 142.868 191.815 143.599 193.934 144.677C196.082 145.733 197.781 147.003 199.031 148.487C200.285 149.945 201.138 151.546 201.589 153.289C202.041 155.033 202.162 156.762 201.952 158.475C201.751 160.114 201.333 161.648 200.697 163.08C200.064 164.486 199.221 165.726 198.169 166.799C197.116 167.872 195.845 168.752 194.354 169.439C192.888 170.13 191.196 170.575 189.279 170.774L189.26 170.926C190.417 171.502 191.436 172.164 192.317 172.912C193.2 173.634 193.914 174.489 194.458 175.476C195.03 176.442 195.419 177.551 195.624 178.804C195.828 180.057 195.832 181.49 195.634 183.103C195.461 184.514 195.105 185.954 194.567 187.423C194.029 188.892 193.294 190.298 192.362 191.642C191.455 192.989 190.329 194.245 188.984 195.411C187.667 196.554 186.117 197.515 184.333 198.294C182.575 199.076 180.578 199.612 178.342 199.901C176.104 200.215 173.636 200.207 170.94 199.876C167.638 199.472 164.793 198.688 162.403 197.526C160.035 196.391 158.112 194.966 156.634 193.25C155.159 191.509 154.134 189.542 153.558 187.348C152.986 185.129 152.854 182.76 153.163 180.239L153.293 179.181L163.953 180.487C163.888 182.27 164.023 183.783 164.356 185.026C164.693 186.244 165.222 187.255 165.942 188.06C166.665 188.839 167.587 189.451 168.71 189.895C169.86 190.318 171.204 190.623 172.741 190.811C174.48 191.024 176.017 190.906 177.351 190.455C178.685 190.005 179.813 189.363 180.733 188.529C181.683 187.673 182.419 186.676 182.942 185.538C183.49 184.403 183.834 183.268 183.973 182.134C184.149 180.698 184.067 179.486 183.728 178.497C183.388 177.509 182.873 176.704 182.182 176.083C181.519 175.439 180.71 174.943 179.755 174.596C178.825 174.252 177.843 174.016 176.81 173.89L173.635 173.5L176.005 165.426C176.554 165.544 177.114 165.664 177.688 165.786C178.29 165.885 178.868 165.969 179.422 166.037C180.884 166.216 182.257 166.179 183.541 165.927C184.826 165.675 185.968 165.227 186.968 164.582C187.968 163.937 188.788 163.091 189.427 162.044C190.07 160.972 190.48 159.717 190.656 158.281C190.928 156.063 190.47 154.37 189.283 153.201C188.121 152.036 186.406 151.314 184.138 151.036C182.576 150.844 181.171 150.928 179.925 151.287C178.707 151.624 177.631 152.157 176.698 152.887C175.764 153.617 174.954 154.489 174.266 155.505C173.582 156.496 173.005 157.551 172.536 158.67L162.064 157.387ZM215.724 147.539L227.329 148.961L220.884 169.621L242.621 172.284L249.104 151.629L260.71 153.051L243.769 207.381L232.126 205.954L239.743 181.678L218.006 179.014L210.389 203.29L198.783 201.868L215.724 147.539ZM271.748 154.404L283.354 155.826L271.929 192.068L272.081 192.086L304.259 158.388L316.658 159.907L299.718 214.236L288.074 212.809L301.249 175.439L301.097 175.42L266.64 210.183L254.732 208.724L271.748 154.404ZM328.302 161.334L339.68 162.728L332.746 184.248L356.503 164.789L370.906 166.554L344.814 187.531L357.216 221.282L344.288 219.697L335.734 194.936L327.841 201.106L322.967 217.085L311.437 215.672L328.302 161.334Z" fill="url(#paint0_linear)"/>
<path d="M64.2738 28.2334L64.5171 26.2483L62.8589 26.0451L62.3637 27.6406L64.2738 28.2334ZM109.335 33.7549L111.245 34.3478L111.955 32.061L109.579 31.7698L109.335 33.7549ZM92.4703 88.0935L92.2271 90.0787L93.8853 90.2818L94.3805 88.6863L92.4703 88.0935ZM80.827 86.6668L78.9177 86.0713L78.2037 88.3603L80.5837 88.652L80.827 86.6668ZM94.8566 41.6886L96.7659 42.2842L97.4799 39.9951L95.0998 39.7035L94.8566 41.6886ZM73.0063 39.0113L73.2496 37.0261L71.5925 36.8231L71.0966 38.4172L73.0063 39.0113ZM59.0145 83.994L58.7713 85.9792L60.4284 86.1823L60.9243 84.5881L59.0145 83.994ZM47.4089 82.572L45.4988 81.9791L44.7891 84.2659L47.1657 84.5571L47.4089 82.572ZM64.0306 30.2186L109.092 35.7401L109.579 31.7698L64.5171 26.2483L64.0306 30.2186ZM107.425 33.1621L90.5602 87.5007L94.3805 88.6863L111.245 34.3478L107.425 33.1621ZM92.7136 86.1084L81.0702 84.6816L80.5837 88.652L92.2271 90.0787L92.7136 86.1084ZM82.7362 87.2623L96.7659 42.2842L92.9473 41.0931L78.9177 86.0713L82.7362 87.2623ZM95.0998 39.7035L73.2496 37.0261L72.7631 40.9964L94.6133 43.6738L95.0998 39.7035ZM71.0966 38.4172L57.1048 83.4L60.9243 84.5881L74.9161 39.6053L71.0966 38.4172ZM59.2578 82.0089L47.6522 80.5868L47.1657 84.5571L58.7713 85.9792L59.2578 82.0089ZM49.319 83.1648L66.184 28.8263L62.3637 27.6406L45.4988 81.9791L49.319 83.1648ZM110.94 58.5473L112.84 59.1717L112.841 59.1683L110.94 58.5473ZM119.216 44.5583L117.779 43.1673L117.774 43.1727L117.768 43.178L119.216 44.5583ZM133.567 36.7242L133.953 38.6865L133.961 38.6849L133.969 38.6833L133.567 36.7242ZM150.994 38.5525L150.181 40.3802L150.187 40.3825L150.994 38.5525ZM160.949 47.178L159.21 48.166L159.219 48.1808L159.227 48.1955L160.949 47.178ZM163.372 52.77L161.45 53.3221L161.452 53.3316L163.372 52.77ZM164.35 58.5687L162.352 58.6636L162.353 58.6764L162.353 58.6891L164.35 58.5687ZM162.422 72.1076L164.322 72.732L164.323 72.7286L162.422 72.1076ZM154.114 86.0541L152.676 84.6631L152.671 84.6685L152.666 84.6738L154.114 86.0541ZM139.8 93.893L139.414 91.9306L139.406 91.9322L139.398 91.9338L139.8 93.893ZM116.384 88.3377L115.056 89.8334L115.066 89.842L116.384 88.3377ZM112.338 83.4677L110.599 84.4557L110.607 84.4706L110.616 84.4853L112.338 83.4677ZM109.957 77.8425L108.029 78.3721L108.032 78.3833L108.035 78.3945L109.957 77.8425ZM108.979 72.0438L106.982 72.1387L106.982 72.1538L106.983 72.1689L108.979 72.0438ZM120.958 75.1231L119.015 75.5981L119.017 75.6069L120.958 75.1231ZM127.109 83.1673L126.19 84.9439L126.207 84.9527L126.225 84.9612L127.109 83.1673ZM147.238 77.3456L145.584 76.2209L145.578 76.2305L145.571 76.2403L147.238 77.3456ZM149.966 72.308L148.128 71.5186L148.123 71.5304L148.118 71.5423L149.966 72.308ZM151.72 67.0742L149.781 66.5833L149.778 66.5952L149.775 66.6072L151.72 67.0742ZM146.216 47.483L145.297 49.2596L145.314 49.2685L145.332 49.277L146.216 47.483ZM129.941 49.0957L131.173 50.6714L131.18 50.6655L131.187 50.6596L129.941 49.0957ZM126.091 53.2669L124.431 52.1519L124.425 52.1615L126.091 53.2669ZM123.364 58.3045L121.526 57.5152L121.521 57.527L121.516 57.5388L123.364 58.3045ZM121.605 63.5761L119.666 63.0851L119.663 63.097L119.66 63.109L121.605 63.5761ZM111.154 66.6697C111.462 64.1568 112.023 61.6579 112.84 59.1717L109.04 57.9229C108.144 60.6498 107.524 63.4038 107.184 66.1832L111.154 66.6697ZM112.841 59.1683C113.657 56.6721 114.722 54.307 116.038 52.0703L112.59 50.0423C111.127 52.53 109.943 55.1589 109.039 57.9263L112.841 59.1683ZM116.038 52.0703C117.35 49.8394 118.891 47.7965 120.663 45.9386L117.768 43.178C115.783 45.2596 114.057 47.5487 112.59 50.0423L116.038 52.0703ZM120.653 45.9494C122.422 44.1218 124.415 42.5849 126.637 41.3352L124.676 37.8487C122.118 39.2875 119.817 41.0615 117.779 43.1673L120.653 45.9494ZM126.637 41.3352C128.829 40.1022 131.263 39.216 133.953 38.6865L133.181 34.7618C130.104 35.3675 127.264 36.3931 124.676 37.8487L126.637 41.3352ZM133.969 38.6833C136.615 38.1399 139.514 38.0481 142.681 38.4362L143.168 34.4659C139.632 34.0326 136.292 34.1228 133.165 34.765L133.969 38.6833ZM142.681 38.4362C145.603 38.7942 148.093 39.4522 150.181 40.3802L151.806 36.7249C149.285 35.6044 146.396 34.8614 143.168 34.4659L142.681 38.4362ZM150.187 40.3825C152.357 41.3394 154.158 42.4743 155.618 43.7704L158.273 40.7791C156.457 39.1668 154.29 37.8203 151.801 36.7225L150.187 40.3825ZM155.618 43.7704C157.1 45.0863 158.293 46.5512 159.21 48.166L162.688 46.1899C161.543 44.1754 160.067 42.3715 158.273 40.7791L155.618 43.7704ZM159.227 48.1955C160.203 49.847 160.942 51.5551 161.45 53.3221L165.294 52.218C164.69 50.114 163.814 48.094 162.671 46.1604L159.227 48.1955ZM161.452 53.3316C161.968 55.0926 162.267 56.8689 162.352 58.6636L166.348 58.4738C166.247 56.3575 165.894 54.268 165.291 52.2084L161.452 53.3316ZM162.353 58.6891C162.465 60.537 162.416 62.2887 162.213 63.9474L166.183 64.4339C166.418 62.5138 166.471 60.5176 166.346 58.4483L162.353 58.6891ZM162.213 63.9474C161.905 66.4604 161.342 68.973 160.521 71.4866L164.323 72.7286C165.222 69.9787 165.843 67.2133 166.183 64.4339L162.213 63.9474ZM160.522 71.4832C159.71 73.9542 158.646 76.308 157.329 78.5469L160.777 80.5748C162.239 78.0892 163.421 75.4742 164.322 72.732L160.522 71.4832ZM157.329 78.5469C156.02 80.7726 154.47 82.8105 152.676 84.6631L155.551 87.4452C157.565 85.3645 159.307 83.0735 160.777 80.5748L157.329 78.5469ZM152.666 84.6738C150.925 86.4991 148.949 88.0341 146.73 89.2819L148.691 92.7684C151.252 91.3277 153.544 89.5487 155.561 87.4344L152.666 84.6738ZM146.73 89.2819C144.538 90.5149 142.104 91.4011 139.414 91.9306L140.186 95.8553C143.263 95.2496 146.103 94.224 148.691 92.7684L146.73 89.2819ZM139.398 91.9338C136.752 92.4772 133.853 92.569 130.686 92.1809L130.199 96.1512C133.735 96.5845 137.075 96.4943 140.202 95.8521L139.398 91.9338ZM130.686 92.1809C127.737 91.8197 125.235 91.1597 123.148 90.2323L121.523 93.8876C124.046 95.0087 126.948 95.7528 130.199 96.1512L130.686 92.1809ZM123.148 90.2323C121.002 89.2785 119.194 88.141 117.702 86.8334L115.066 89.842C116.9 91.449 119.06 92.7929 121.523 93.8876L123.148 90.2323ZM117.712 86.8421C116.221 85.5186 115.008 84.0547 114.059 82.4501L110.616 84.4853C111.786 86.4658 113.271 88.2485 115.056 89.8334L117.712 86.8421ZM114.077 82.4796C113.121 80.7975 112.39 79.0684 111.88 77.2904L108.035 78.3945C108.636 80.4875 109.492 82.5085 110.599 84.4557L114.077 82.4796ZM111.886 77.3129C111.39 75.5081 111.088 73.7106 110.976 71.9186L106.983 72.1689C107.114 74.2437 107.463 76.3121 108.029 78.3721L111.886 77.3129ZM110.977 71.9488C110.889 70.0967 110.95 68.3378 111.154 66.6697L107.184 66.1832C106.95 68.0939 106.884 70.0799 106.982 72.1387L110.977 71.9488ZM118.725 68.1346C118.391 70.8566 118.467 73.3568 119.015 75.5981L122.9 74.648C122.494 72.9864 122.405 70.9898 122.695 68.6211L118.725 68.1346ZM119.017 75.6069C119.555 77.7667 120.441 79.6684 121.712 81.2597L124.837 78.7633C123.979 77.6891 123.32 76.3319 122.898 74.6393L119.017 75.6069ZM121.712 81.2597C122.949 82.8083 124.445 84.0417 126.19 84.9439L128.027 81.3906C126.789 80.7506 125.73 79.8802 124.837 78.7633L121.712 81.2597ZM126.225 84.9612C127.953 85.8128 129.8 86.3561 131.754 86.5955L132.24 82.6252C130.716 82.4385 129.305 82.0197 127.993 81.3733L126.225 84.9612ZM131.754 86.5955C134.347 86.9133 136.768 86.7617 138.977 86.0748L137.789 82.2552C136.221 82.7427 134.385 82.888 132.24 82.6252L131.754 86.5955ZM138.977 86.0748C141.09 85.4174 142.995 84.4228 144.673 83.0854L142.18 79.9575C140.909 80.9704 139.452 81.7381 137.789 82.2552L138.977 86.0748ZM144.673 83.0854C146.314 81.7771 147.725 80.2294 148.905 78.451L145.571 76.2403C144.617 77.6794 143.487 78.9155 142.18 79.9575L144.673 83.0854ZM148.892 78.4704C150.059 76.7546 151.033 74.9554 151.813 73.0736L148.118 71.5423C147.445 73.1661 146.601 74.7253 145.584 76.2209L148.892 78.4704ZM151.803 73.0973C152.597 71.2501 153.218 69.3978 153.664 67.5413L149.775 66.6072C149.385 68.2295 148.838 69.8664 148.128 71.5186L151.803 73.0973ZM153.658 67.5652C154.121 65.7401 154.451 64.0444 154.642 62.4826L150.672 61.9961C150.505 63.3577 150.211 64.8852 149.781 66.5833L153.658 67.5652ZM154.642 62.4826C154.979 59.7391 154.905 57.2342 154.35 55.0102L150.469 55.9779C150.875 57.6064 150.966 59.5983 150.672 61.9961L154.642 62.4826ZM154.35 55.0102C153.812 52.8504 152.926 50.9487 151.655 49.3574L148.53 51.8539C149.388 52.928 150.047 54.2852 150.469 55.9779L154.35 55.0102ZM151.655 49.3574C150.408 47.7967 148.885 46.5688 147.1 45.6891L145.332 49.277C146.586 49.8952 147.647 50.7491 148.53 51.8539L151.655 49.3574ZM147.134 45.7064C145.423 44.8216 143.578 44.2623 141.613 44.0216L141.127 47.9919C142.64 48.1774 144.026 48.6023 145.297 49.2596L147.134 45.7064ZM141.613 44.0216C139.02 43.7038 136.599 43.8554 134.39 44.5424L135.578 48.3619C137.146 47.8744 138.982 47.7291 141.127 47.9919L141.613 44.0216ZM134.39 44.5424C132.277 45.1997 130.372 46.1943 128.694 47.5317L131.187 50.6596C132.458 49.6468 133.915 48.879 135.578 48.3619L134.39 44.5424ZM128.709 47.5199C127.063 48.8065 125.638 50.355 124.431 52.1519L127.752 54.3818C128.735 52.917 129.876 51.6847 131.173 50.6714L128.709 47.5199ZM124.425 52.1615C123.292 53.8689 122.326 55.6537 121.526 57.5152L125.201 59.0939C125.905 57.4559 126.757 55.8823 127.758 54.3722L124.425 52.1615ZM121.516 57.5388C120.754 59.377 120.137 61.2259 119.666 63.0851L123.544 64.067C123.965 62.4031 124.52 60.7377 125.211 59.0702L121.516 57.5388ZM119.66 63.109C119.228 64.9072 118.915 66.5836 118.725 68.1346L122.695 68.6211C122.863 67.2486 123.146 65.7238 123.55 64.0431L119.66 63.109ZM220.457 74.1538L219.164 72.6279L218.063 73.5609L218.601 74.9L220.457 74.1538ZM232.985 105.311L232.742 107.296L236.104 107.708L234.84 104.565L232.985 105.311ZM220.207 103.746L218.339 104.459L218.768 105.584L219.964 105.731L220.207 103.746ZM210.39 78.0236L212.258 77.3105L211.829 76.185L210.633 76.0385L210.39 78.0236ZM207.97 77.7272L208.214 75.742L206.556 75.539L206.061 77.1333L207.97 77.7272ZM200.625 101.346L200.382 103.331L202.039 103.534L202.535 101.94L200.625 101.346ZM190.078 100.054L188.169 99.4569L187.453 101.747L189.835 102.039L190.078 100.054ZM197.461 76.4394L199.37 77.0362L200.086 74.7461L197.704 74.4543L197.461 76.4394ZM195.609 76.2125L195.852 74.2273L194.873 74.1073L194.181 74.8114L195.609 76.2125ZM174.125 98.099L173.882 100.084L174.861 100.204L175.553 99.5L174.125 98.099ZM160.289 96.4036L158.917 94.949L155.82 97.8709L160.046 98.3887L160.289 96.4036ZM188.361 69.9141L189.734 71.3687L190.755 70.4049L190.195 69.117L188.361 69.9141ZM176.209 41.9492L176.452 39.9641L172.981 39.5387L174.375 42.7463L176.209 41.9492ZM188.987 43.5149L190.856 42.8051L190.428 41.6766L189.23 41.5297L188.987 43.5149ZM198.153 67.6606L196.283 68.3704L196.712 69.4989L197.91 69.6457L198.153 67.6606ZM200.157 67.9061L199.913 69.8912L201.573 70.0946L202.067 68.4972L200.157 67.9061ZM207.019 45.7244L207.262 43.7393L205.602 43.5359L205.108 45.1334L207.019 45.7244ZM217.641 47.0261L219.547 47.6325L220.279 45.3343L217.885 45.0409L217.641 47.0261ZM210.59 69.1846L208.685 68.5781L207.953 70.8764L210.347 71.1697L210.59 69.1846ZM212.367 69.4023L212.124 71.3874L213.036 71.4992L213.715 70.8798L212.367 69.4023ZM234.615 49.1059L234.858 47.1208L233.946 47.009L233.267 47.6284L234.615 49.1059ZM248.073 50.755L249.366 52.2809L252.854 49.3258L248.316 48.7698L248.073 50.755ZM218.601 74.9L231.129 106.057L234.84 104.565L222.312 73.4077L218.601 74.9ZM233.228 103.326L220.451 101.76L219.964 105.731L232.742 107.296L233.228 103.326ZM222.076 103.032L212.258 77.3105L208.521 78.7368L218.339 104.459L222.076 103.032ZM210.633 76.0385L208.214 75.742L207.727 79.7123L210.147 80.0088L210.633 76.0385ZM206.061 77.1333L198.716 100.752L202.535 101.94L209.88 78.3211L206.061 77.1333ZM200.869 99.3609L190.321 98.0686L189.835 102.039L200.382 103.331L200.869 99.3609ZM191.987 100.651L199.37 77.0362L195.552 75.8426L188.169 99.4569L191.987 100.651ZM197.704 74.4543L195.852 74.2273L195.366 78.1976L197.218 78.4246L197.704 74.4543ZM194.181 74.8114L172.698 96.6979L175.553 99.5L197.036 77.6135L194.181 74.8114ZM174.369 96.1138L160.533 94.4184L160.046 98.3887L173.882 100.084L174.369 96.1138ZM161.662 97.8582L189.734 71.3687L186.988 68.4595L158.917 94.949L161.662 97.8582ZM190.195 69.117L178.043 41.1521L174.375 42.7463L186.527 70.7112L190.195 69.117ZM175.966 43.9344L188.743 45.5L189.23 41.5297L176.452 39.9641L175.966 43.9344ZM187.117 44.2247L196.283 68.3704L200.023 66.9507L190.856 42.8051L187.117 44.2247ZM197.91 69.6457L199.913 69.8912L200.4 65.9209L198.396 65.6754L197.91 69.6457ZM202.067 68.4972L208.929 46.3155L205.108 45.1334L198.246 67.315L202.067 68.4972ZM206.775 47.7096L217.398 49.0112L217.885 45.0409L207.262 43.7393L206.775 47.7096ZM215.736 46.4196L208.685 68.5781L212.496 69.791L219.547 47.6325L215.736 46.4196ZM210.347 71.1697L212.124 71.3874L212.61 67.4171L210.834 67.1994L210.347 71.1697ZM213.715 70.8798L235.963 50.5834L233.267 47.6284L211.019 67.9247L213.715 70.8798ZM234.372 51.0911L247.83 52.7401L248.316 48.7698L234.858 47.1208L234.372 51.0911ZM246.78 49.229L219.164 72.6279L221.75 75.6798L249.366 52.2809L246.78 49.229ZM275.041 65.8393L277.04 65.8902L277.087 64.075L275.284 63.8541L275.041 65.8393ZM274.89 65.8208L275.133 63.8356L273.897 63.6842L273.216 64.7262L274.89 65.8208ZM260.488 87.8459L258.814 86.7514L257.056 89.4403L260.245 89.8311L260.488 87.8459ZM274.437 89.5552L274.194 91.5403L276.381 91.8083L276.437 89.6061L274.437 89.5552ZM271.511 53.6269L271.754 51.6417L270.553 51.4946L269.865 52.4903L271.511 53.6269ZM285.082 55.2898L287.082 55.282L287.075 53.5191L285.326 53.3047L285.082 55.2898ZM285.304 111.722L285.061 113.707L287.313 113.983L287.304 111.714L285.304 111.722ZM273.85 110.319L271.851 110.261L271.799 112.082L273.607 112.304L273.85 110.319ZM274.168 99.2684L276.167 99.3259L276.22 97.5048L274.411 97.2832L274.168 99.2684ZM254.586 96.8689L254.829 94.8838L253.589 94.7318L252.909 95.7798L254.586 96.8689ZM247.917 107.141L247.674 109.126L248.914 109.278L249.595 108.23L247.917 107.141ZM235.593 105.631L233.948 104.494L232.069 107.214L235.35 107.616L235.593 105.631ZM275.284 63.8541L275.133 63.8356L274.647 67.8059L274.798 67.8244L275.284 63.8541ZM273.216 64.7262L258.814 86.7514L262.162 88.9405L276.564 66.9153L273.216 64.7262ZM260.245 89.8311L274.194 91.5403L274.681 87.57L260.731 85.8608L260.245 89.8311ZM276.437 89.6061L277.04 65.8902L273.042 65.7884L272.438 89.5043L276.437 89.6061ZM271.268 55.612L284.839 57.275L285.326 53.3047L271.754 51.6417L271.268 55.612ZM283.082 55.2977L283.304 111.73L287.304 111.714L287.082 55.282L283.082 55.2977ZM285.548 109.737L274.093 108.333L273.607 112.304L285.061 113.707L285.548 109.737ZM275.849 110.376L276.167 99.3259L272.169 99.2108L271.851 110.261L275.849 110.376ZM274.411 97.2832L254.829 94.8838L254.343 98.8541L273.925 101.254L274.411 97.2832ZM252.909 95.7798L246.24 106.052L249.595 108.23L256.264 97.958L252.909 95.7798ZM248.16 105.156L235.837 103.646L235.35 107.616L247.674 109.126L248.16 105.156ZM237.239 106.767L273.157 54.7635L269.865 52.4903L233.948 104.494L237.239 106.767ZM306.592 57.9255L306.836 55.9404L305.177 55.7372L304.682 57.3327L306.592 57.9255ZM334.669 62.7089L333.772 64.4965L333.783 64.502L333.794 64.5074L334.669 62.7089ZM340.287 66.9657L338.732 68.2235L338.742 68.2364L338.753 68.2492L340.287 66.9657ZM343.026 72.4814L341.072 72.9087L341.076 72.9241L341.079 72.9394L343.026 72.4814ZM340.869 86.9515L339.103 86.013L339.099 86.0208L339.095 86.0287L340.869 86.9515ZM328.297 95.9246L327.905 93.9633L327.9 93.9644L328.297 95.9246ZM307.183 94.7571L307.426 92.7719L305.766 92.5685L305.272 94.1666L307.183 94.7571ZM301.333 113.686L301.09 115.671L302.75 115.875L303.244 114.277L301.333 113.686ZM289.727 112.264L287.817 111.671L287.108 113.958L289.484 114.249L289.727 112.264ZM310.136 85.3728L308.226 84.7783L307.514 87.0665L309.893 87.3579L310.136 85.3728ZM328.738 84.8127L327.506 83.2369L327.494 83.2461L327.483 83.2555L328.738 84.8127ZM330.994 82.0578L332.783 82.9521L332.789 82.9397L330.994 82.0578ZM332.027 75.5078L330.04 75.7407L330.044 75.7728L330.049 75.8048L332.027 75.5078ZM331.075 72.9356L329.41 74.0428L329.42 74.0578L329.43 74.0726L331.075 72.9356ZM328.822 70.9712L327.859 72.724L327.866 72.728L327.874 72.732L328.822 70.9712ZM315.325 68.7034L315.568 66.7182L313.911 66.5152L313.415 68.1089L315.325 68.7034ZM306.349 59.9107L325.478 62.2545L325.964 58.2842L306.836 55.9404L306.349 59.9107ZM325.478 62.2545C328.933 62.678 331.676 63.4451 333.772 64.4965L335.566 60.9212C332.939 59.6032 329.716 58.744 325.964 58.2842L325.478 62.2545ZM333.794 64.5074C335.981 65.571 337.599 66.8229 338.732 68.2235L341.842 65.7079C340.265 63.7579 338.138 62.1719 335.544 60.9103L333.794 64.5074ZM338.753 68.2492C339.938 69.6654 340.701 71.2128 341.072 72.9087L344.98 72.0541C344.465 69.7021 343.403 67.5724 341.821 65.6822L338.753 68.2492ZM341.079 72.9394C341.494 74.7031 341.59 76.5247 341.358 78.4164L345.329 78.9029C345.616 76.5605 345.5 74.2634 344.973 72.0234L341.079 72.9394ZM341.358 78.4164C340.997 81.366 340.233 83.8867 339.103 86.013L342.635 87.89C344.032 85.261 344.918 82.2537 345.329 78.9029L341.358 78.4164ZM339.095 86.0287C337.996 88.1412 336.53 89.8407 334.692 91.158L337.022 94.4093C339.391 92.7119 341.266 90.5233 342.644 87.8743L339.095 86.0287ZM334.692 91.158C332.853 92.4757 330.607 93.4236 327.905 93.9633L328.689 97.8858C331.861 97.2523 334.654 96.1062 337.022 94.4093L334.692 91.158ZM327.9 93.9644C325.246 94.5018 322.148 94.5759 318.578 94.1384L318.091 98.1087C321.981 98.5853 325.524 98.5267 328.694 97.8848L327.9 93.9644ZM318.578 94.1384L307.426 92.7719L306.939 96.7422L318.091 98.1087L318.578 94.1384ZM305.272 94.1666L299.422 113.096L303.244 114.277L309.093 95.3476L305.272 94.1666ZM301.576 111.701L289.971 110.279L289.484 114.249L301.09 115.671L301.576 111.701ZM291.638 112.857L308.502 58.5184L304.682 57.3327L287.817 111.671L291.638 112.857ZM309.893 87.3579L320.213 88.6225L320.699 84.6522L310.379 83.3876L309.893 87.3579ZM320.213 88.6225C322.225 88.869 324.088 88.8188 325.76 88.4005L324.789 84.5201C323.716 84.7887 322.367 84.8565 320.699 84.6522L320.213 88.6225ZM325.76 88.4005C327.364 87.9989 328.794 87.3359 329.993 86.3698L327.483 83.2555C326.808 83.7993 325.929 84.2348 324.789 84.5201L325.76 88.4005ZM329.969 86.3884C331.164 85.4548 332.107 84.3043 332.783 82.952L329.205 81.1636C328.796 81.9807 328.235 82.6667 327.506 83.2369L329.969 86.3884ZM332.789 82.9397C333.437 81.6197 333.85 80.205 334.033 78.7083L330.063 78.2218C329.931 79.2956 329.641 80.2761 329.199 81.1759L332.789 82.9397ZM334.033 78.7083C334.18 77.5127 334.175 76.3444 334.004 75.2109L330.049 75.8048C330.16 76.5476 330.169 77.3508 330.063 78.2218L334.033 78.7083ZM334.013 75.275C333.864 74.0081 333.438 72.8367 332.721 71.7985L329.43 74.0726C329.756 74.5436 329.964 75.087 330.04 75.7407L334.013 75.275ZM332.741 71.8284C332.009 70.7269 330.988 69.8658 329.77 69.2103L327.874 72.732C328.624 73.1362 329.105 73.5848 329.41 74.0428L332.741 71.8284ZM329.785 69.2183C328.531 68.5294 327.014 68.1207 325.321 67.9133L324.835 71.8836C326.217 72.0529 327.195 72.3594 327.859 72.724L329.785 69.2183ZM325.321 67.9133L315.568 66.7182L315.082 70.6885L324.835 71.8836L325.321 67.9133ZM313.415 68.1089L308.226 84.7783L312.046 85.9672L317.234 69.2978L313.415 68.1089ZM52.1115 127.491L52.3547 125.506L50.6965 125.303L50.2014 126.898L52.1115 127.491ZM88.3081 135.84L86.8615 137.221L86.8684 137.228L86.8752 137.236L88.3081 135.84ZM90.2819 151.047L88.4419 150.263L88.4368 150.275L88.4319 150.287L90.2819 151.047ZM88.1785 154.434L86.6753 153.115L86.6687 153.122L88.1785 154.434ZM84.9866 156.998L85.9644 158.742L85.9709 158.739L84.9866 156.998ZM80.6915 158.543L80.285 156.585L75.887 157.498L79.5081 160.156L80.6915 158.543ZM83.2573 160.776L81.812 162.159L81.8247 162.172L81.8377 162.185L83.2573 160.776ZM85.0917 163.342L83.2991 164.229L83.3051 164.241L83.3112 164.252L85.0917 163.342ZM86.0582 166.415L84.0807 166.714L84.0839 166.735L84.0876 166.756L86.0582 166.415ZM83.8222 177.46L85.5595 178.451L85.5635 178.444L83.8222 177.46ZM72.2105 185.169L72.555 187.14L72.5638 187.138L72.5726 187.136L72.2105 185.169ZM35.2466 181.83L33.3364 181.237L32.6267 183.524L35.0033 183.815L35.2466 181.83ZM49.7298 173.858L47.8205 173.263L47.1069 175.552L49.4866 175.843L49.7298 173.858ZM74.279 165.47L72.3792 166.095L72.3828 166.106L72.3866 166.117L74.279 165.47ZM72.8372 163.145L71.4195 164.555L71.4314 164.567L71.4436 164.579L72.8372 163.145ZM54.2814 159.259L54.5246 157.274L52.8686 157.071L52.372 158.664L54.2814 159.259ZM57.0279 150.31L55.1178 149.717L54.408 152.004L56.7846 152.295L57.0279 150.31ZM76.9033 150.942L77.9785 152.629L77.9872 152.623L77.9959 152.617L76.9033 150.942ZM79.4499 143.311L77.5756 144.009L77.5856 144.036L77.5964 144.063L79.4499 143.311ZM78.1369 141.501L76.8619 143.042L76.8755 143.053L76.8893 143.064L78.1369 141.501ZM75.9706 140.391L75.3428 142.29L75.369 142.299L75.3955 142.307L75.9706 140.391ZM60.7684 138.26L61.0116 136.274L59.3535 136.071L58.8583 137.667L60.7684 138.26ZM51.8682 129.476L73.6051 132.14L74.0916 128.169L52.3547 125.506L51.8682 129.476ZM73.6051 132.14C77.0224 132.558 79.7857 133.22 81.9383 134.09L83.4361 130.381C80.8601 129.34 77.7308 128.615 74.0916 128.169L73.6051 132.14ZM81.9383 134.09C84.1086 134.966 85.7207 136.026 86.8615 137.221L89.7547 134.459C88.1296 132.757 85.9945 131.414 83.4361 130.381L81.9383 134.09ZM86.8752 137.236C88.0208 138.412 88.7635 139.746 89.1369 141.262L93.0209 140.306C92.472 138.077 91.3674 136.115 89.7409 134.445L86.8752 137.236ZM89.1369 141.262C89.5304 142.86 89.6224 144.682 89.3687 146.752L93.339 147.239C93.6411 144.773 93.5498 142.454 93.0209 140.306L89.1369 141.262ZM89.3687 146.752C89.2142 148.013 88.9032 149.18 88.4419 150.263L92.1218 151.831C92.7378 150.385 93.1414 148.852 93.339 147.239L89.3687 146.752ZM88.4319 150.287C88.0061 151.323 87.4226 152.263 86.6753 153.115L89.6816 155.753C90.7182 154.572 91.537 153.255 92.1318 151.807L88.4319 150.287ZM86.6687 153.122C85.969 153.928 85.0885 154.642 84.0022 155.257L85.9709 158.739C87.4132 157.923 88.6606 156.929 89.6883 155.746L86.6687 153.122ZM84.0088 155.253C82.9789 155.83 81.7459 156.282 80.285 156.585L81.0979 160.502C82.8918 160.129 84.5222 159.55 85.9644 158.742L84.0088 155.253ZM79.5081 160.156C80.386 160.8 81.1518 161.468 81.812 162.159L84.7027 159.394C83.8662 158.519 82.9215 157.699 81.8749 156.931L79.5081 160.156ZM81.8377 162.185C82.438 162.79 82.9233 163.469 83.2991 164.229L86.8843 162.455C86.317 161.308 85.5794 160.277 84.6769 159.367L81.8377 162.185ZM83.3112 164.252C83.6794 164.972 83.9405 165.788 84.0807 166.714L88.0356 166.115C87.8366 164.8 87.4533 163.567 86.8723 162.431L83.3112 164.252ZM84.0876 166.756C84.2429 167.653 84.2627 168.694 84.1151 169.898L88.0854 170.385C88.2714 168.867 88.2631 167.424 88.0288 166.073L84.0876 166.756ZM84.1151 169.898C83.7987 172.481 83.1068 174.66 82.0809 176.476L85.5635 178.444C86.8895 176.097 87.7164 173.397 88.0854 170.385L84.1151 169.898ZM82.085 176.469C81.0648 178.258 79.7182 179.701 78.0315 180.823L80.246 184.154C82.4582 182.683 84.2339 180.775 85.5595 178.451L82.085 176.469ZM78.0315 180.823C76.3406 181.947 74.2936 182.752 71.8483 183.202L72.5726 187.136C75.4662 186.604 78.0381 185.622 80.246 184.154L78.0315 180.823ZM71.8659 183.199C69.4348 183.624 66.6289 183.66 63.4264 183.268L62.9399 187.238C66.4411 187.667 69.6535 187.647 72.555 187.14L71.8659 183.199ZM63.4264 183.268L35.4898 179.844L35.0033 183.815L62.9399 187.238L63.4264 183.268ZM37.1567 182.422L54.0216 128.084L50.2014 126.898L33.3364 181.237L37.1567 182.422ZM49.4866 175.843L63.7384 177.59L64.2249 173.619L49.9731 171.873L49.4866 175.843ZM63.7384 177.59C65.6892 177.829 67.5008 177.755 69.1125 177.273L67.9669 173.441C67.0295 173.721 65.8024 173.813 64.2249 173.619L63.7384 177.59ZM69.1125 177.273C70.5972 176.83 71.9164 176.168 73.0157 175.25L70.452 172.18C69.8415 172.689 69.0313 173.123 67.9669 173.441L69.1125 177.273ZM73.0157 175.25C74.0679 174.372 74.9035 173.336 75.4832 172.141L71.8841 170.395C71.5738 171.035 71.1096 171.631 70.452 172.18L73.0157 175.25ZM75.4832 172.141C76.0103 171.054 76.3599 169.942 76.4984 168.812L72.5281 168.325C72.4504 168.959 72.2469 169.647 71.8841 170.395L75.4832 172.141ZM76.4984 168.812C76.6703 167.409 76.594 166.059 76.1713 164.823L72.3866 166.117C72.5666 166.644 72.6465 167.359 72.5281 168.325L76.4984 168.812ZM76.1787 164.845C75.783 163.642 75.1329 162.587 74.2308 161.71L71.4436 164.579C71.8673 164.991 72.1785 165.485 72.3792 166.095L76.1787 164.845ZM74.255 161.734C73.3896 160.864 72.3312 160.214 71.1323 159.753L69.6974 163.487C70.4529 163.777 71.0094 164.143 71.4195 164.555L74.255 161.734ZM71.1323 159.753C69.9799 159.31 68.7239 159.014 67.3777 158.849L66.8912 162.819C67.9645 162.951 68.8953 163.179 69.6974 163.487L71.1323 159.753ZM67.3777 158.849L54.5246 157.274L54.0381 161.245L66.8912 162.819L67.3777 158.849ZM52.372 158.664L47.8205 173.263L51.6392 174.453L56.1907 159.855L52.372 158.664ZM56.7846 152.295L70.167 153.935L70.6535 149.965L57.2711 148.325L56.7846 152.295ZM70.167 153.935C73.1628 154.302 75.8567 153.981 77.9785 152.629L75.828 149.256C74.7865 149.92 73.1517 150.271 70.6535 149.965L70.167 153.935ZM77.9959 152.617C80.1831 151.191 81.3517 148.932 81.6871 146.195L77.7168 145.708C77.4901 147.558 76.7929 148.626 75.8106 149.267L77.9959 152.617ZM81.6871 146.195C81.842 144.931 81.7607 143.688 81.3033 142.56L77.5964 144.063C77.7283 144.388 77.8151 144.906 77.7168 145.708L81.6871 146.195ZM81.3242 142.614C80.9276 141.549 80.2727 140.646 79.3845 139.937L76.8893 143.064C77.2128 143.322 77.4332 143.627 77.5756 144.009L81.3242 142.614ZM79.4119 139.96C78.5891 139.279 77.616 138.797 76.5458 138.475L75.3955 142.307C76.0523 142.504 76.5234 142.761 76.8619 143.042L79.4119 139.96ZM76.5985 138.492C75.599 138.162 74.5345 137.931 73.4111 137.794L72.9246 141.764C73.8173 141.874 74.6213 142.051 75.3428 142.29L76.5985 138.492ZM73.4111 137.794L61.0116 136.274L60.5251 140.245L72.9246 141.764L73.4111 137.794ZM58.8583 137.667L55.1178 149.717L58.938 150.903L62.6785 138.853L58.8583 137.667ZM98.7779 157.805L100.678 158.429L100.679 158.426L98.7779 157.805ZM107.053 143.816L105.616 142.425L105.611 142.43L105.606 142.436L107.053 143.816ZM121.405 135.982L121.791 137.944L121.799 137.943L121.807 137.941L121.405 135.982ZM138.831 137.81L138.019 139.638L138.024 139.64L138.831 137.81ZM148.787 146.436L147.048 147.424L147.056 147.438L147.065 147.453L148.787 146.436ZM151.21 152.028L149.287 152.58L149.29 152.589L151.21 152.028ZM152.187 157.826L150.19 157.921L150.19 157.934L150.191 157.947L152.187 157.826ZM150.26 171.365L152.16 171.99L152.161 171.986L150.26 171.365ZM141.951 185.312L140.514 183.921L140.509 183.926L140.504 183.931L141.951 185.312ZM127.638 193.151L127.251 191.188L127.243 191.19L127.235 191.191L127.638 193.151ZM104.221 187.595L102.894 189.091L102.903 189.1L104.221 187.595ZM100.175 182.725L98.4364 183.713L98.4448 183.728L98.4535 183.743L100.175 182.725ZM97.7949 177.1L95.8663 177.63L95.8694 177.641L95.8726 177.652L97.7949 177.1ZM96.8171 171.301L94.8194 171.396L94.8201 171.411L94.821 171.427L96.8171 171.301ZM108.795 174.381L106.852 174.856L106.855 174.865L108.795 174.381ZM114.946 182.425L114.028 184.202L114.045 184.21L114.062 184.219L114.946 182.425ZM135.075 176.603L133.422 175.478L133.415 175.488L133.409 175.498L135.075 176.603ZM137.803 171.566L135.965 170.776L135.96 170.788L135.956 170.8L137.803 171.566ZM139.557 166.332L137.618 165.841L137.615 165.853L137.613 165.865L139.557 166.332ZM134.053 146.741L133.135 148.517L133.152 148.526L133.169 148.535L134.053 146.741ZM117.778 148.353L119.01 149.929L119.018 149.923L119.025 149.917L117.778 148.353ZM113.929 152.524L112.269 151.409L112.262 151.419L113.929 152.524ZM111.201 157.562L109.364 156.773L109.359 156.785L109.354 156.796L111.201 157.562ZM109.443 162.834L107.504 162.343L107.501 162.355L107.498 162.367L109.443 162.834ZM98.9918 165.927C99.2997 163.414 99.8609 160.916 100.678 158.429L96.8778 157.181C95.9817 159.907 95.362 162.661 95.0215 165.441L98.9918 165.927ZM100.679 158.426C101.494 155.93 102.56 153.565 103.875 151.328L100.428 149.3C98.9644 151.788 97.7807 154.417 96.8767 157.184L100.679 158.426ZM103.875 151.328C105.188 149.097 106.729 147.054 108.501 145.196L105.606 142.436C103.621 144.517 101.894 146.806 100.428 149.3L103.875 151.328ZM108.49 145.207C110.259 143.379 112.253 141.843 114.475 140.593L112.514 137.106C109.956 138.545 107.655 140.319 105.616 142.425L108.49 145.207ZM114.475 140.593C116.667 139.36 119.101 138.474 121.791 137.944L121.018 134.019C117.942 134.625 115.102 135.651 112.514 137.106L114.475 140.593ZM121.807 137.941C124.453 137.398 127.351 137.306 130.519 137.694L131.006 133.724C127.469 133.29 124.13 133.38 121.002 134.023L121.807 137.941ZM130.519 137.694C133.44 138.052 135.931 138.71 138.019 139.638L139.644 135.983C137.122 134.862 134.234 134.119 131.006 133.724L130.519 137.694ZM138.024 139.64C140.194 140.597 141.995 141.732 143.455 143.028L146.111 140.037C144.295 138.424 142.128 137.078 139.638 135.98L138.024 139.64ZM143.455 143.028C144.938 144.344 146.13 145.809 147.048 147.424L150.526 145.448C149.381 143.433 147.905 141.629 146.111 140.037L143.455 143.028ZM147.065 147.453C148.041 149.105 148.78 150.813 149.287 152.58L153.132 151.476C152.528 149.372 151.651 147.352 150.509 145.418L147.065 147.453ZM149.29 152.589C149.805 154.35 150.104 156.127 150.19 157.921L154.185 157.731C154.085 155.615 153.732 153.526 153.129 151.466L149.29 152.589ZM150.191 157.947C150.302 159.795 150.254 161.546 150.051 163.205L154.021 163.692C154.256 161.771 154.309 159.775 154.184 157.706L150.191 157.947ZM150.051 163.205C149.743 165.718 149.18 168.231 148.359 170.744L152.161 171.986C153.059 169.236 153.68 166.471 154.021 163.692L150.051 163.205ZM148.36 170.741C147.548 173.212 146.484 175.566 145.167 177.804L148.615 179.832C150.077 177.347 151.259 174.732 152.16 171.99L148.36 170.741ZM145.167 177.804C143.858 180.03 142.307 182.068 140.514 183.921L143.388 186.703C145.402 184.622 147.145 182.331 148.615 179.832L145.167 177.804ZM140.504 183.931C138.763 185.757 136.786 187.292 134.568 188.54L136.528 192.026C139.09 190.585 141.382 188.806 143.398 186.692L140.504 183.931ZM134.568 188.54C132.375 189.773 129.941 190.659 127.251 191.188L128.024 195.113C131.101 194.507 133.94 193.482 136.528 192.026L134.568 188.54ZM127.235 191.191C124.59 191.735 121.691 191.827 118.523 191.439L118.037 195.409C121.573 195.842 124.913 195.752 128.04 195.11L127.235 191.191ZM118.523 191.439C115.575 191.077 113.072 190.417 110.985 189.49L109.361 193.145C111.884 194.266 114.785 195.01 118.037 195.409L118.523 191.439ZM110.985 189.49C108.839 188.536 107.032 187.399 105.539 186.091L102.903 189.1C104.738 190.707 106.898 192.051 109.361 193.145L110.985 189.49ZM105.549 186.1C104.058 184.776 102.845 183.312 101.897 181.708L98.4535 183.743C99.624 185.723 101.108 187.506 102.894 189.091L105.549 186.1ZM101.914 181.737C100.958 180.055 100.228 178.326 99.7172 176.548L95.8726 177.652C96.4737 179.745 97.33 181.766 98.4364 183.713L101.914 181.737ZM99.7235 176.571C99.2279 174.766 98.9256 172.968 98.8132 171.176L94.821 171.427C94.9511 173.501 95.3006 175.57 95.8663 177.63L99.7235 176.571ZM98.8149 171.206C98.7269 169.354 98.7874 167.595 98.9918 165.927L95.0215 165.441C94.7873 167.352 94.7215 169.338 94.8194 171.396L98.8149 171.206ZM106.562 167.392C106.229 170.114 106.304 172.614 106.852 174.856L110.738 173.906C110.332 172.244 110.242 170.247 110.532 167.879L106.562 167.392ZM106.855 174.865C107.393 177.024 108.279 178.926 109.55 180.517L112.675 178.021C111.817 176.947 111.158 175.59 110.736 173.897L106.855 174.865ZM109.55 180.517C110.787 182.066 112.283 183.299 114.028 184.202L115.865 180.648C114.627 180.008 113.567 179.138 112.675 178.021L109.55 180.517ZM114.062 184.219C115.79 185.07 117.637 185.614 119.591 185.853L120.078 181.883C118.554 181.696 117.142 181.277 115.831 180.631L114.062 184.219ZM119.591 185.853C122.184 186.171 124.606 186.019 126.814 185.332L125.626 181.513C124.059 182 122.223 182.146 120.078 181.883L119.591 185.853ZM126.814 185.332C128.928 184.675 130.833 183.68 132.511 182.343L130.017 179.215C128.747 180.228 127.289 180.996 125.626 181.513L126.814 185.332ZM132.511 182.343C134.152 181.035 135.563 179.487 136.742 177.709L133.409 175.498C132.454 176.937 131.324 178.173 130.017 179.215L132.511 182.343ZM136.729 177.728C137.896 176.012 138.871 174.213 139.651 172.331L135.956 170.8C135.283 172.424 134.439 173.983 133.422 175.478L136.729 177.728ZM139.641 172.355C140.434 170.508 141.056 168.655 141.502 166.799L137.613 165.865C137.223 167.487 136.675 169.124 135.965 170.776L139.641 172.355ZM141.496 166.823C141.958 164.998 142.289 163.302 142.48 161.74L138.51 161.254C138.343 162.615 138.048 164.143 137.618 165.841L141.496 166.823ZM142.48 161.74C142.816 158.997 142.742 156.492 142.188 154.268L138.307 155.235C138.713 156.864 138.804 158.856 138.51 161.254L142.48 161.74ZM142.188 154.268C141.649 152.108 140.764 150.206 139.493 148.615L136.367 151.111C137.225 152.186 137.885 153.543 138.307 155.235L142.188 154.268ZM139.493 148.615C138.246 147.054 136.723 145.826 134.938 144.947L133.169 148.535C134.424 149.153 135.485 150.007 136.367 151.111L139.493 148.615ZM134.972 144.964C133.26 144.079 131.415 143.52 129.451 143.279L128.964 147.25C130.478 147.435 131.863 147.86 133.135 148.517L134.972 144.964ZM129.451 143.279C126.858 142.961 124.437 143.113 122.228 143.8L123.416 147.62C124.983 147.132 126.82 146.987 128.964 147.25L129.451 143.279ZM122.228 143.8C120.114 144.457 118.21 145.452 116.532 146.789L119.025 149.917C120.296 148.904 121.753 148.137 123.416 147.62L122.228 143.8ZM116.547 146.778C114.901 148.064 113.475 149.613 112.269 151.41L115.589 153.639C116.573 152.175 117.714 150.942 119.01 149.929L116.547 146.778ZM112.262 151.419C111.13 153.127 110.163 154.911 109.364 156.773L113.039 158.352C113.743 156.714 114.594 155.14 115.596 153.63L112.262 151.419ZM109.354 156.796C108.592 158.635 107.975 160.484 107.504 162.343L111.381 163.325C111.803 161.661 112.358 159.995 113.049 158.328L109.354 156.796ZM107.498 162.367C107.066 164.165 106.752 165.841 106.562 167.392L110.532 167.879C110.701 166.506 110.984 164.981 111.387 163.301L107.498 162.367ZM162.064 157.387L160.145 156.824L159.482 159.085L161.821 159.372L162.064 157.387ZM169.798 145.941L170.958 147.57L170.964 147.565L170.97 147.561L169.798 145.941ZM176.777 142.844L177.242 144.789L177.253 144.786L176.777 142.844ZM193.934 144.677L193.027 146.46L193.04 146.466L193.052 146.472L193.934 144.677ZM199.031 148.487L197.502 149.776L197.509 149.783L197.515 149.79L199.031 148.487ZM200.697 163.08L202.521 163.9L202.524 163.892L200.697 163.08ZM194.354 169.439L193.517 167.623L193.509 167.626L193.502 167.63L194.354 169.439ZM189.279 170.774L189.071 168.785L187.487 168.95L187.293 170.531L189.279 170.774ZM189.26 170.926L187.275 170.682L187.103 172.085L188.368 172.716L189.26 170.926ZM192.317 172.912L191.022 174.437L191.036 174.449L191.051 174.46L192.317 172.912ZM194.458 175.476L192.706 176.442L192.722 176.469L192.738 176.496L194.458 175.476ZM192.362 191.642L190.719 190.502L190.711 190.514L190.703 190.525L192.362 191.642ZM188.984 195.411L187.674 193.899L187.673 193.901L188.984 195.411ZM184.333 198.294L183.533 196.461L183.521 196.467L184.333 198.294ZM178.342 199.901L178.086 197.917L178.075 197.919L178.065 197.92L178.342 199.901ZM162.403 197.526L163.278 195.727L163.267 195.722L162.403 197.526ZM156.634 193.25L155.108 194.543L155.113 194.549L155.118 194.555L156.634 193.25ZM153.558 187.348L151.622 187.847L151.624 187.855L153.558 187.348ZM153.293 179.181L153.536 177.196L151.551 176.952L151.308 178.938L153.293 179.181ZM163.953 180.487L165.952 180.56L166.019 178.725L164.196 178.502L163.953 180.487ZM164.356 185.026L162.425 185.544L162.427 185.552L162.429 185.559L164.356 185.026ZM165.942 188.06L164.451 189.393L164.463 189.407L164.475 189.42L165.942 188.06ZM168.71 189.895L167.973 191.755L167.997 191.764L168.02 191.773L168.71 189.895ZM180.733 188.529L179.394 187.044L179.391 187.047L180.733 188.529ZM182.942 185.538L181.141 184.668L181.133 184.685L181.125 184.703L182.942 185.538ZM182.182 176.083L180.788 177.517L180.816 177.544L180.844 177.569L182.182 176.083ZM179.755 174.596L179.061 176.471L179.071 176.475L179.755 174.596ZM173.635 173.5L171.716 172.937L171.051 175.199L173.391 175.486L173.635 173.5ZM176.005 165.426L176.427 163.471L174.61 163.079L174.086 164.863L176.005 165.426ZM177.688 165.786L177.274 167.742L177.318 167.752L177.362 167.759L177.688 165.786ZM189.427 162.044L191.134 163.087L191.138 163.08L191.143 163.073L189.427 162.044ZM189.283 153.201L187.867 154.613L187.873 154.62L187.88 154.626L189.283 153.201ZM179.925 151.287L180.458 153.215L180.468 153.212L180.478 153.209L179.925 151.287ZM174.266 155.505L175.912 156.642L175.918 156.634L175.923 156.626L174.266 155.505ZM172.536 158.67L172.292 160.655L173.794 160.839L174.38 159.444L172.536 158.67ZM163.983 157.95C164.589 155.884 165.474 153.935 166.642 152.099L163.266 149.953C161.899 152.103 160.857 154.395 160.145 156.824L163.983 157.95ZM166.642 152.099C167.768 150.327 169.202 148.82 170.958 147.57L168.638 144.311C166.47 145.855 164.675 147.737 163.266 149.953L166.642 152.099ZM170.97 147.561C172.696 146.312 174.774 145.379 177.242 144.789L176.312 140.898C173.405 141.594 170.83 142.725 168.625 144.32L170.97 147.561ZM177.253 144.786C179.683 144.191 182.529 144.067 185.825 144.471L186.312 140.5C182.652 140.052 179.304 140.166 176.302 140.901L177.253 144.786ZM185.825 144.471C188.789 144.834 191.171 145.515 193.027 146.46L194.841 142.895C192.46 141.683 189.597 140.903 186.312 140.5L185.825 144.471ZM193.052 146.472C195.007 147.434 196.466 148.547 197.502 149.776L200.56 147.197C199.095 145.459 197.156 144.033 194.817 142.883L193.052 146.472ZM197.515 149.79C198.583 151.033 199.284 152.363 199.653 153.791L203.525 152.788C202.992 150.728 201.987 148.857 200.548 147.183L197.515 149.79ZM199.653 153.791C200.044 155.302 200.145 156.778 199.966 158.232L203.937 158.719C204.178 156.745 204.037 154.764 203.525 152.788L199.653 153.791ZM199.966 158.232C199.788 159.685 199.42 161.027 198.869 162.268L202.524 163.892C203.245 162.27 203.713 160.543 203.937 158.719L199.966 158.232ZM198.873 162.259C198.334 163.456 197.624 164.498 196.741 165.399L199.597 168.199C200.819 166.953 201.794 165.516 202.521 163.9L198.873 162.259ZM196.741 165.399C195.874 166.283 194.807 167.028 193.517 167.623L195.191 171.256C196.882 170.477 198.359 169.461 199.597 168.199L196.741 165.399ZM193.502 167.63C192.273 168.208 190.807 168.604 189.071 168.785L189.486 172.764C191.586 172.545 193.502 172.051 195.205 171.249L193.502 167.63ZM187.293 170.531L187.275 170.682L191.245 171.169L191.264 171.018L187.293 170.531ZM188.368 172.716C189.398 173.229 190.278 173.805 191.022 174.437L193.611 171.387C192.594 170.524 191.437 169.776 190.152 169.136L188.368 172.716ZM191.051 174.46C191.739 175.023 192.287 175.68 192.706 176.442L196.21 174.511C195.541 173.297 194.661 172.245 193.582 171.363L191.051 174.46ZM192.738 176.496C193.167 177.221 193.48 178.088 193.65 179.126L197.597 178.482C197.358 177.014 196.894 175.663 196.178 174.456L192.738 176.496ZM193.65 179.126C193.817 180.148 193.829 181.385 193.649 182.86L197.619 183.346C197.834 181.595 197.84 179.965 197.597 178.482L193.65 179.126ZM193.649 182.86C193.496 184.105 193.18 185.396 192.689 186.735L196.445 188.111C197.031 186.513 197.426 184.924 197.619 183.346L193.649 182.86ZM192.689 186.735C192.213 188.037 191.558 189.292 190.719 190.502L194.005 192.782C195.03 191.305 195.846 189.747 196.445 188.111L192.689 186.735ZM190.703 190.525C189.904 191.713 188.899 192.838 187.674 193.899L190.294 196.922C191.76 195.652 193.007 194.266 194.021 192.759L190.703 190.525ZM187.673 193.901C186.526 194.897 185.152 195.754 183.533 196.461L185.134 200.127C187.082 199.276 188.809 198.211 190.295 196.921L187.673 193.901ZM183.521 196.467C181.966 197.158 180.161 197.649 178.086 197.917L178.599 201.884C180.994 201.575 183.183 200.995 185.146 200.122L183.521 196.467ZM178.065 197.92C176.03 198.206 173.74 198.204 171.183 197.891L170.697 201.861C173.533 202.209 176.179 202.224 178.62 201.881L178.065 197.92ZM171.183 197.891C168.048 197.507 165.426 196.772 163.277 195.727L161.528 199.324C164.159 200.604 167.229 201.436 170.697 201.861L171.183 197.891ZM163.267 195.722C161.109 194.688 159.42 193.421 158.149 191.945L155.118 194.555C156.803 196.512 158.961 198.094 161.539 199.329L163.267 195.722ZM158.16 191.957C156.877 190.443 155.992 188.743 155.493 186.841L151.624 187.855C152.275 190.34 153.441 192.575 155.108 194.543L158.16 191.957ZM155.495 186.848C154.991 184.897 154.867 182.781 155.148 180.483L151.178 179.996C150.842 182.738 150.98 185.361 151.622 187.847L155.495 186.848ZM155.148 180.483L155.278 179.424L151.308 178.938L151.178 179.996L155.148 180.483ZM153.049 181.166L163.71 182.472L164.196 178.502L153.536 177.196L153.049 181.166ZM161.955 180.414C161.885 182.325 162.024 184.05 162.425 185.544L166.288 184.507C166.022 183.515 165.892 182.214 165.952 180.56L161.955 180.414ZM162.429 185.559C162.834 187.023 163.493 188.323 164.451 189.393L167.432 186.726C166.95 186.187 166.553 185.464 166.284 184.493L162.429 185.559ZM164.475 189.42C165.427 190.446 166.611 191.215 167.973 191.755L169.446 188.036C168.563 187.686 167.902 187.232 167.408 186.699L164.475 189.42ZM168.02 191.773C169.347 192.26 170.846 192.594 172.498 192.796L172.985 188.826C171.562 188.652 170.373 188.375 169.399 188.018L168.02 191.773ZM172.498 192.796C174.464 193.037 176.312 192.917 177.991 192.35L176.711 188.56C175.722 188.894 174.497 189.011 172.985 188.826L172.498 192.796ZM177.991 192.35C179.55 191.824 180.926 191.053 182.076 190.012L179.391 187.047C178.699 187.673 177.82 188.186 176.711 188.56L177.991 192.35ZM182.073 190.014C183.219 188.98 184.12 187.764 184.759 186.373L181.125 184.703C180.717 185.589 180.146 186.366 179.394 187.044L182.073 190.014ZM184.743 186.408C185.377 185.096 185.79 183.751 185.958 182.378L181.988 181.891C181.878 182.786 181.604 183.71 181.141 184.668L184.743 186.408ZM185.958 182.378C186.157 180.749 186.088 179.211 185.619 177.848L181.836 179.147C182.047 179.76 182.14 180.646 181.988 181.891L185.958 182.378ZM185.619 177.848C185.183 176.579 184.494 175.472 183.52 174.596L180.844 177.569C181.253 177.937 181.593 178.44 181.836 179.147L185.619 177.848ZM183.575 174.648C182.69 173.788 181.632 173.15 180.438 172.716L179.071 176.475C179.788 176.736 180.347 177.089 180.788 177.517L183.575 174.648ZM180.449 172.72C179.367 172.319 178.233 172.049 177.053 171.904L176.567 175.875C177.454 175.983 178.283 176.184 179.061 176.471L180.449 172.72ZM177.053 171.904L173.878 171.515L173.391 175.486L176.567 175.875L177.053 171.904ZM175.554 174.064L177.924 165.99L174.086 164.863L171.716 172.937L175.554 174.064ZM175.583 167.381C176.134 167.5 176.698 167.62 177.274 167.742L178.102 163.829C177.531 163.708 176.973 163.589 176.427 163.471L175.583 167.381ZM177.362 167.759C177.989 167.862 178.595 167.95 179.179 168.022L179.666 164.051C179.141 163.987 178.59 163.908 178.014 163.812L177.362 167.759ZM179.179 168.022C180.824 168.223 182.411 168.187 183.926 167.89L183.156 163.965C182.103 164.171 180.944 164.208 179.666 164.051L179.179 168.022ZM183.926 167.89C185.434 167.594 186.818 167.058 188.052 166.263L185.884 162.901C185.117 163.396 184.217 163.757 183.156 163.965L183.926 167.89ZM188.052 166.263C189.312 165.45 190.342 164.383 191.134 163.087L187.721 161.001C187.233 161.8 186.623 162.425 185.884 162.901L188.052 166.263ZM191.143 163.073C191.951 161.725 192.436 160.195 192.641 158.524L188.671 158.038C188.524 159.24 188.19 160.218 187.712 161.016L191.143 163.073ZM192.641 158.524C192.961 155.917 192.456 153.519 190.686 151.776L187.88 154.626C188.484 155.221 188.895 156.21 188.671 158.038L192.641 158.524ZM190.7 151.789C189.119 150.204 186.924 149.362 184.381 149.051L183.895 153.021C185.889 153.265 187.123 153.867 187.867 154.613L190.7 151.789ZM184.381 149.051C182.608 148.833 180.925 148.918 179.371 149.365L180.478 153.209C181.417 152.939 182.544 152.856 183.895 153.021L184.381 149.051ZM179.392 149.359C177.937 149.762 176.62 150.409 175.466 151.311L177.929 154.463C178.642 153.906 179.477 153.486 180.458 153.215L179.392 149.359ZM175.466 151.311C174.362 152.174 173.41 153.202 172.61 154.384L175.923 156.626C176.497 155.777 177.166 155.059 177.929 154.463L175.466 151.311ZM172.621 154.369C171.857 155.474 171.214 156.65 170.691 157.896L174.38 159.444C174.797 158.451 175.307 157.518 175.912 156.642L172.621 154.369ZM172.779 156.685L162.307 155.401L161.821 159.372L172.292 160.655L172.779 156.685ZM215.724 147.539L215.967 145.554L214.311 145.351L213.814 146.944L215.724 147.539ZM227.329 148.961L229.239 149.557L229.953 147.268L227.573 146.976L227.329 148.961ZM220.884 169.621L218.975 169.025L218.261 171.314L220.641 171.606L220.884 169.621ZM242.621 172.284L242.378 174.269L244.03 174.472L244.529 172.883L242.621 172.284ZM249.104 151.629L249.347 149.644L247.694 149.442L247.196 151.03L249.104 151.629ZM260.71 153.051L262.619 153.647L263.333 151.358L260.953 151.066L260.71 153.051ZM243.769 207.381L243.526 209.366L245.182 209.569L245.678 207.976L243.769 207.381ZM232.126 205.954L230.217 205.355L229.498 207.647L231.882 207.939L232.126 205.954ZM239.743 181.678L241.651 182.276L242.371 179.985L239.986 179.693L239.743 181.678ZM218.006 179.014L218.25 177.029L216.597 176.826L216.098 178.415L218.006 179.014ZM210.389 203.29L210.146 205.276L211.798 205.478L212.297 203.889L210.389 203.29ZM198.783 201.868L196.874 201.273L196.16 203.562L198.54 203.853L198.783 201.868ZM215.48 149.524L227.086 150.946L227.573 146.976L215.967 145.554L215.48 149.524ZM225.42 148.365L218.975 169.025L222.793 170.216L229.239 149.557L225.42 148.365ZM220.641 171.606L242.378 174.269L242.864 170.299L221.127 167.635L220.641 171.606ZM244.529 172.883L251.012 152.228L247.196 151.03L240.713 171.685L244.529 172.883ZM248.861 153.614L260.466 155.036L260.953 151.066L249.347 149.644L248.861 153.614ZM258.8 152.456L241.86 206.785L245.678 207.976L262.619 153.647L258.8 152.456ZM244.012 205.395L232.369 203.969L231.882 207.939L243.526 209.366L244.012 205.395ZM234.034 206.553L241.651 182.276L237.835 181.079L230.217 205.355L234.034 206.553ZM239.986 179.693L218.25 177.029L217.763 180.999L239.5 183.663L239.986 179.693ZM216.098 178.415L208.481 202.692L212.297 203.889L219.915 179.613L216.098 178.415ZM210.632 201.305L199.026 199.883L198.54 203.853L210.146 205.276L210.632 201.305ZM200.693 202.464L217.633 148.134L213.814 146.944L196.874 201.273L200.693 202.464ZM271.748 154.404L271.991 152.419L270.338 152.216L269.84 153.806L271.748 154.404ZM283.354 155.826L285.261 156.427L285.984 154.133L283.597 153.841L283.354 155.826ZM271.929 192.068L270.022 191.467L269.299 193.76L271.686 194.053L271.929 192.068ZM272.081 192.086L271.837 194.072L272.834 194.194L273.527 193.468L272.081 192.086ZM304.259 158.388L304.502 156.402L303.506 156.28L302.812 157.006L304.259 158.388ZM316.658 159.907L318.568 160.502L319.281 158.213L316.902 157.922L316.658 159.907ZM299.718 214.236L299.475 216.221L301.13 216.424L301.627 214.832L299.718 214.236ZM288.074 212.809L286.188 212.145L285.361 214.492L287.831 214.795L288.074 212.809ZM301.249 175.439L303.135 176.104L303.962 173.757L301.492 173.454L301.249 175.439ZM301.097 175.42L301.341 173.435L300.367 173.316L299.677 174.013L301.097 175.42ZM266.64 210.183L266.397 212.168L267.37 212.287L268.06 211.591L266.64 210.183ZM254.732 208.724L252.823 208.126L252.106 210.417L254.489 210.709L254.732 208.724ZM271.505 156.389L283.11 157.811L283.597 153.841L271.991 152.419L271.505 156.389ZM281.446 155.225L270.022 191.467L273.837 192.669L285.261 156.427L281.446 155.225ZM271.686 194.053L271.837 194.072L272.324 190.101L272.173 190.083L271.686 194.053ZM273.527 193.468L305.705 159.769L302.812 157.006L270.634 190.705L273.527 193.468ZM304.016 160.373L316.415 161.892L316.902 157.922L304.502 156.402L304.016 160.373ZM314.749 159.312L297.808 213.641L301.627 214.832L318.568 160.502L314.749 159.312ZM299.961 212.251L288.318 210.824L287.831 214.795L299.475 216.221L299.961 212.251ZM289.961 213.474L303.135 176.104L299.362 174.774L286.188 212.145L289.961 213.474ZM301.492 173.454L301.341 173.435L300.854 177.406L301.005 177.424L301.492 173.454ZM299.677 174.013L265.22 208.775L268.06 211.591L302.518 176.828L299.677 174.013ZM266.883 208.198L254.975 206.739L254.489 210.709L266.397 212.168L266.883 208.198ZM256.64 209.322L273.657 155.002L269.84 153.806L252.823 208.126L256.64 209.322ZM328.302 161.334L328.545 159.348L326.887 159.145L326.392 160.741L328.302 161.334ZM339.68 162.728L341.584 163.341L342.326 161.037L339.924 160.743L339.68 162.728ZM332.746 184.248L330.842 183.635L328.759 190.099L334.013 185.796L332.746 184.248ZM356.503 164.789L356.746 162.804L355.897 162.7L355.236 163.242L356.503 164.789ZM370.906 166.554L372.159 168.113L375.851 165.145L371.149 164.569L370.906 166.554ZM344.814 187.531L343.561 185.972L342.441 186.872L342.937 188.22L344.814 187.531ZM357.216 221.282L356.973 223.267L360.223 223.665L359.094 220.592L357.216 221.282ZM344.288 219.697L342.397 220.351L342.805 221.531L344.044 221.683L344.288 219.697ZM335.734 194.936L337.624 194.283L336.709 191.635L334.502 193.36L335.734 194.936ZM327.841 201.106L326.609 199.53L326.112 199.919L325.928 200.522L327.841 201.106ZM322.967 217.085L322.723 219.07L324.39 219.274L324.88 217.668L322.967 217.085ZM311.437 215.672L309.527 215.079L308.817 217.366L311.193 217.657L311.437 215.672ZM328.058 163.319L339.437 164.713L339.924 160.743L328.545 159.348L328.058 163.319ZM337.777 162.114L330.842 183.635L334.65 184.862L341.584 163.341L337.777 162.114ZM334.013 185.796L357.77 166.336L355.236 163.242L331.479 182.701L334.013 185.796ZM356.26 166.774L370.663 168.539L371.149 164.569L356.746 162.804L356.26 166.774ZM369.653 164.995L343.561 185.972L346.067 189.089L372.159 168.113L369.653 164.995ZM342.937 188.22L355.339 221.971L359.094 220.592L346.692 186.841L342.937 188.22ZM357.46 219.297L344.531 217.712L344.044 221.683L356.973 223.267L357.46 219.297ZM346.178 219.044L337.624 194.283L333.843 195.589L342.397 220.351L346.178 219.044ZM334.502 193.36L326.609 199.53L329.073 202.682L336.966 196.512L334.502 193.36ZM325.928 200.522L321.054 216.501L324.88 217.668L329.754 201.69L325.928 200.522ZM323.21 215.1L311.68 213.687L311.193 217.657L322.723 219.07L323.21 215.1ZM313.347 216.265L330.212 161.926L326.392 160.741L309.527 215.079L313.347 216.265Z" fill="black"/>
<rect x="12.4351" y="207" width="342.355" height="97.4175" transform="rotate(7.33364 12.4351 207)" fill="white"/>
<path d="M38.1543 228.296L49.7599 229.719L38.3356 265.96L38.4868 265.979L70.6651 232.28L83.0645 233.799L66.124 288.129L54.4806 286.702L67.6548 249.332L67.5036 249.313L33.0462 284.076L21.1382 282.617L38.1543 228.296ZM87.6975 250.79C88.3566 248.543 89.3198 246.423 90.5873 244.429C91.8548 242.436 93.4694 240.741 95.4312 239.344C97.3961 237.922 99.7225 236.889 102.41 236.247C105.127 235.582 108.224 235.463 111.702 235.889C114.827 236.272 117.449 237.002 119.568 238.081C121.715 239.137 123.414 240.406 124.665 241.89C125.919 243.348 126.771 244.949 127.223 246.693C127.674 248.436 127.795 250.165 127.585 251.879C127.384 253.517 126.966 255.052 126.33 256.483C125.697 257.889 124.855 259.129 123.802 260.202C122.75 261.275 121.478 262.156 119.987 262.843C118.521 263.533 116.829 263.978 114.912 264.178L114.893 264.329C116.051 264.906 117.069 265.568 117.95 266.315C118.833 267.037 119.547 267.892 120.091 268.88C120.664 269.845 121.052 270.954 121.257 272.207C121.461 273.46 121.465 274.893 121.267 276.506C121.094 277.917 120.739 279.357 120.201 280.826C119.663 282.295 118.927 283.702 117.995 285.046C117.089 286.393 115.963 287.649 114.617 288.814C113.301 289.957 111.75 290.918 109.967 291.698C108.208 292.48 106.211 293.015 103.976 293.304C101.737 293.618 99.2698 293.61 96.5732 293.28C93.2717 292.875 90.426 292.091 88.0359 290.929C85.668 289.795 83.7451 288.369 82.267 286.653C80.792 284.912 79.7669 282.945 79.1915 280.751C78.6193 278.532 78.4875 276.163 78.7963 273.643L78.926 272.584L89.5865 273.89C89.5216 275.673 89.656 277.186 89.9897 278.429C90.3264 279.647 90.8548 280.658 91.5748 281.463C92.2979 282.242 93.2206 282.854 94.3428 283.298C95.4934 283.721 96.8373 284.026 98.3746 284.215C100.114 284.428 101.65 284.309 102.984 283.858C104.319 283.408 105.446 282.766 106.367 281.932C107.316 281.077 108.052 280.08 108.575 278.941C109.123 277.806 109.467 276.672 109.606 275.538C109.782 274.101 109.7 272.889 109.361 271.901C109.022 270.913 108.506 270.108 107.815 269.486C107.152 268.842 106.343 268.346 105.388 267.999C104.458 267.655 103.477 267.419 102.443 267.293L99.2679 266.904L101.639 258.829C102.187 258.948 102.748 259.068 103.321 259.189C103.923 259.288 104.501 259.372 105.056 259.44C106.517 259.619 107.89 259.583 109.175 259.331C110.459 259.079 111.601 258.63 112.601 257.985C113.601 257.341 114.421 256.495 115.061 255.447C115.704 254.375 116.113 253.121 116.289 251.684C116.561 249.466 116.103 247.773 114.916 246.604C113.755 245.439 112.04 244.717 109.771 244.439C108.209 244.248 106.805 244.331 105.558 244.69C104.34 245.027 103.265 245.56 102.331 246.29C101.397 247.02 100.587 247.893 99.8997 248.908C99.2156 249.899 98.6387 250.954 98.169 252.073L87.6975 250.79ZM133.962 269.351L155.661 272.01L152.218 281.948L130.519 279.29L133.962 269.351ZM160.809 259.748C161.468 257.501 162.431 255.381 163.699 253.388C164.966 251.394 166.581 249.699 168.543 248.302C170.507 246.88 172.834 245.848 175.522 245.205C178.238 244.541 181.335 244.421 184.813 244.847C187.938 245.23 190.56 245.961 192.679 247.039C194.826 248.095 196.525 249.365 197.776 250.848C199.03 252.307 199.883 253.908 200.334 255.651C200.785 257.395 200.906 259.124 200.696 260.837C200.495 262.475 200.077 264.01 199.441 265.442C198.809 266.848 197.966 268.087 196.914 269.161C195.861 270.234 194.589 271.114 193.098 271.801C191.632 272.491 189.941 272.936 188.023 273.136L188.005 273.288C189.162 273.864 190.181 274.526 191.061 275.274C191.945 275.996 192.659 276.851 193.203 277.838C193.775 278.804 194.164 279.913 194.368 281.166C194.573 282.419 194.576 283.852 194.379 285.465C194.206 286.876 193.85 288.316 193.312 289.785C192.774 291.254 192.039 292.66 191.107 294.004C190.2 295.351 189.074 296.607 187.729 297.773C186.412 298.916 184.862 299.877 183.078 300.656C181.319 301.438 179.322 301.974 177.087 302.263C174.849 302.577 172.381 302.569 169.685 302.238C166.383 301.834 163.537 301.05 161.147 299.887C158.779 298.753 156.856 297.328 155.378 295.612C153.903 293.871 152.878 291.903 152.303 289.71C151.731 287.491 151.599 285.121 151.908 282.601L152.037 281.543L162.698 282.849C162.633 284.632 162.767 286.145 163.101 287.388C163.438 288.606 163.966 289.617 164.686 290.421C165.409 291.201 166.332 291.813 167.454 292.257C168.605 292.679 169.949 292.985 171.486 293.173C173.225 293.386 174.762 293.268 176.096 292.817C177.43 292.367 178.557 291.725 179.478 290.891C180.427 290.035 181.163 289.038 181.686 287.9C182.235 286.765 182.579 285.63 182.717 284.496C182.894 283.06 182.812 281.847 182.472 280.859C182.133 279.871 181.618 279.066 180.927 278.444C180.264 277.8 179.455 277.305 178.5 276.958C177.57 276.613 176.588 276.378 175.555 276.251L172.379 275.862L174.75 267.788C175.298 267.906 175.859 268.026 176.433 268.148C177.034 268.247 177.613 268.331 178.167 268.398C179.629 268.578 181.002 268.541 182.286 268.289C183.57 268.037 184.712 267.589 185.712 266.944C186.712 266.299 187.532 265.453 188.172 264.406C188.815 263.334 189.225 262.079 189.401 260.643C189.672 258.425 189.215 256.732 188.028 255.563C186.866 254.397 185.151 253.676 182.883 253.398C181.32 253.206 179.916 253.29 178.67 253.649C177.452 253.986 176.376 254.519 175.442 255.249C174.509 255.979 173.698 256.851 173.011 257.867C172.327 258.858 171.75 259.912 171.28 261.032L160.809 259.748ZM234.481 264.133L234.33 264.114L219.928 286.14L233.877 287.849L234.481 264.133ZM230.951 251.92L244.522 253.583L244.744 310.016L233.29 308.612L233.608 297.562L214.026 295.163L207.357 305.435L195.033 303.924L230.951 251.92ZM256.596 300.033L268.05 301.437L264.288 312.411L252.834 311.007L256.596 300.033ZM278.144 302.674L289.598 304.077L285.836 315.051L274.382 313.647L278.144 302.674ZM299.692 305.314L311.146 306.718L307.384 317.691L295.93 316.288L299.692 305.314Z" fill="url(#paint1_linear)"/>
<path d="M38.1543 228.296L38.3976 226.311L36.7438 226.109L36.2458 227.699L38.1543 228.296ZM49.7599 229.719L51.6674 230.32L52.3905 228.026L50.0031 227.733L49.7599 229.719ZM38.3356 265.96L36.4281 265.359L35.705 267.653L38.0923 267.946L38.3356 265.96ZM38.4868 265.979L38.2435 267.964L39.24 268.086L39.9332 267.36L38.4868 265.979ZM70.6651 232.28L70.9083 230.295L69.9119 230.173L69.2186 230.899L70.6651 232.28ZM83.0645 233.799L84.9738 234.395L85.6876 232.106L83.3078 231.814L83.0645 233.799ZM66.124 288.129L65.8807 290.114L67.5367 290.317L68.0333 288.724L66.124 288.129ZM54.4806 286.702L52.5944 286.037L51.7669 288.385L54.2374 288.687L54.4806 286.702ZM67.6548 249.332L69.541 249.997L70.3685 247.649L67.898 247.346L67.6548 249.332ZM67.5036 249.313L67.7468 247.328L66.7735 247.209L66.0831 247.905L67.5036 249.313ZM33.0462 284.076L32.8029 286.061L33.7763 286.18L34.4666 285.484L33.0462 284.076ZM21.1382 282.617L19.2296 282.019L18.512 284.31L20.8949 284.602L21.1382 282.617ZM37.9111 230.282L49.5166 231.704L50.0031 227.733L38.3976 226.311L37.9111 230.282ZM47.8524 229.117L36.4281 265.359L40.243 266.562L51.6674 230.32L47.8524 229.117ZM38.0923 267.946L38.2435 267.964L38.73 263.994L38.5788 263.975L38.0923 267.946ZM39.9332 267.36L72.1115 233.661L69.2186 230.899L37.0403 264.598L39.9332 267.36ZM70.4218 234.265L82.8213 235.785L83.3078 231.814L70.9083 230.295L70.4218 234.265ZM81.1552 233.204L64.2147 287.533L68.0333 288.724L84.9738 234.395L81.1552 233.204ZM66.3672 286.144L54.7238 284.717L54.2374 288.687L65.8807 290.114L66.3672 286.144ZM56.3668 287.367L69.541 249.997L65.7686 248.667L52.5944 286.037L56.3668 287.367ZM67.898 247.346L67.7468 247.328L67.2603 251.298L67.4115 251.317L67.898 247.346ZM66.0831 247.905L31.6258 282.668L34.4666 285.484L68.924 250.721L66.0831 247.905ZM33.2894 282.09L21.3814 280.631L20.8949 284.602L32.8029 286.061L33.2894 282.09ZM23.0467 283.214L40.0629 228.894L36.2458 227.699L19.2296 282.019L23.0467 283.214ZM87.6975 250.79L85.7784 250.227L85.1151 252.488L87.4543 252.775L87.6975 250.79ZM95.4312 239.344L96.5912 240.973L96.5975 240.969L96.6038 240.964L95.4312 239.344ZM102.41 236.247L102.876 238.192L102.886 238.189L102.41 236.247ZM119.568 238.081L118.661 239.863L118.673 239.869L118.685 239.875L119.568 238.081ZM124.665 241.89L123.136 243.179L123.142 243.186L123.148 243.194L124.665 241.89ZM126.33 256.483L128.154 257.304L128.158 257.295L126.33 256.483ZM119.987 262.843L119.15 261.026L119.143 261.03L119.135 261.033L119.987 262.843ZM114.912 264.178L114.704 262.188L113.12 262.354L112.927 263.934L114.912 264.178ZM114.893 264.329L112.908 264.086L112.736 265.489L114.001 266.119L114.893 264.329ZM117.95 266.315L116.656 267.84L116.67 267.852L116.684 267.864L117.95 266.315ZM120.091 268.88L118.34 269.845L118.355 269.872L118.371 269.9L120.091 268.88ZM117.995 285.046L116.352 283.906L116.344 283.917L116.336 283.929L117.995 285.046ZM114.617 288.814L113.308 287.302L113.306 287.304L114.617 288.814ZM109.967 291.698L109.166 289.865L109.154 289.87L109.967 291.698ZM103.976 293.304L103.719 291.321L103.709 291.322L103.698 291.323L103.976 293.304ZM88.0359 290.929L88.9108 289.13L88.9 289.125L88.0359 290.929ZM82.267 286.653L80.741 287.946L80.7463 287.952L80.7517 287.959L82.267 286.653ZM79.1915 280.751L77.2549 281.251L77.257 281.259L79.1915 280.751ZM78.926 272.584L79.1693 270.599L77.1841 270.356L76.9409 272.341L78.926 272.584ZM89.5865 273.89L91.5852 273.963L91.6521 272.128L89.8298 271.905L89.5865 273.89ZM89.9897 278.429L88.058 278.948L88.06 278.955L88.062 278.962L89.9897 278.429ZM91.5748 281.463L90.0845 282.797L90.0965 282.81L90.1088 282.823L91.5748 281.463ZM94.3428 283.298L93.6064 285.158L93.6299 285.167L93.6536 285.176L94.3428 283.298ZM106.367 281.932L105.027 280.447L105.024 280.45L106.367 281.932ZM108.575 278.941L106.774 278.071L106.766 278.089L106.758 278.106L108.575 278.941ZM107.815 269.486L106.422 270.92L106.449 270.947L106.477 270.973L107.815 269.486ZM105.388 267.999L104.694 269.875L104.705 269.879L105.388 267.999ZM99.2679 266.904L97.3489 266.34L96.6848 268.602L99.0247 268.889L99.2679 266.904ZM101.639 258.829L102.061 256.874L100.243 256.482L99.7197 258.266L101.639 258.829ZM103.321 259.189L102.907 261.146L102.951 261.155L102.996 261.162L103.321 259.189ZM115.061 255.447L116.767 256.49L116.772 256.483L116.776 256.476L115.061 255.447ZM114.916 246.604L113.5 248.016L113.507 248.023L113.513 248.03L114.916 246.604ZM105.558 244.69L106.091 246.618L106.102 246.615L106.112 246.612L105.558 244.69ZM99.8997 248.908L101.545 250.045L101.551 250.037L101.556 250.029L99.8997 248.908ZM98.169 252.073L97.9257 254.058L99.4276 254.242L100.013 252.847L98.169 252.073ZM89.6167 251.353C90.2224 249.287 91.1074 247.339 92.275 245.502L88.8996 243.356C87.5323 245.506 86.4907 247.798 85.7784 250.227L89.6167 251.353ZM92.275 245.502C93.4014 243.731 94.8354 242.223 96.5912 240.973L94.2712 237.715C92.1035 239.258 90.3082 241.141 88.8996 243.356L92.275 245.502ZM96.6038 240.964C98.3288 239.716 100.407 238.782 102.876 238.192L101.945 234.302C99.0379 234.997 96.4634 236.128 94.2587 237.724L96.6038 240.964ZM102.886 238.189C105.316 237.595 108.162 237.47 111.458 237.874L111.945 233.904C108.285 233.455 104.937 233.569 101.935 234.304L102.886 238.189ZM111.458 237.874C114.423 238.237 116.805 238.919 118.661 239.863L120.475 236.298C118.093 235.086 115.231 234.306 111.945 233.904L111.458 237.874ZM118.685 239.875C120.641 240.837 122.1 241.95 123.136 243.179L126.194 240.601C124.728 238.863 122.789 237.436 120.45 236.286L118.685 239.875ZM123.148 243.194C124.216 244.436 124.917 245.766 125.286 247.194L129.159 246.191C128.626 244.132 127.621 242.26 126.181 240.586L123.148 243.194ZM125.286 247.194C125.678 248.705 125.778 250.181 125.6 251.635L129.57 252.122C129.812 250.148 129.67 248.167 129.159 246.191L125.286 247.194ZM125.6 251.635C125.422 253.088 125.054 254.43 124.502 255.671L128.158 257.295C128.878 255.673 129.347 253.946 129.57 252.122L125.6 251.635ZM124.506 255.662C123.968 256.859 123.257 257.901 122.374 258.802L125.23 261.602C126.452 260.356 127.427 258.919 128.154 257.304L124.506 255.662ZM122.374 258.802C121.507 259.686 120.441 260.431 119.15 261.026L120.824 264.659C122.515 263.88 123.993 262.865 125.23 261.602L122.374 258.802ZM119.135 261.033C117.907 261.611 116.44 262.008 114.704 262.188L115.119 266.167C117.219 265.948 119.135 265.454 120.839 264.652L119.135 261.033ZM112.927 263.934L112.908 264.086L116.879 264.572L116.897 264.421L112.927 263.934ZM114.001 266.119C115.031 266.632 115.912 267.208 116.656 267.84L119.244 264.79C118.227 263.927 117.07 263.179 115.785 262.539L114.001 266.119ZM116.684 267.864C117.372 268.426 117.92 269.084 118.34 269.845L121.843 267.915C121.174 266.701 120.295 265.648 119.216 264.766L116.684 267.864ZM118.371 269.9C118.8 270.624 119.113 271.491 119.283 272.53L123.231 271.885C122.991 270.418 122.527 269.066 121.812 267.86L118.371 269.9ZM119.283 272.53C119.45 273.552 119.463 274.788 119.282 276.263L123.252 276.749C123.467 274.998 123.473 273.369 123.231 271.885L119.283 272.53ZM119.282 276.263C119.13 277.508 118.813 278.799 118.323 280.138L122.079 281.514C122.664 279.916 123.059 278.327 123.252 276.749L119.282 276.263ZM118.323 280.138C117.846 281.44 117.191 282.695 116.352 283.906L119.639 286.185C120.664 284.708 121.479 283.15 122.079 281.514L118.323 280.138ZM116.336 283.929C115.537 285.116 114.532 286.242 113.308 287.302L115.927 290.326C117.393 289.056 118.64 287.669 119.654 286.163L116.336 283.929ZM113.306 287.304C112.159 288.3 110.786 289.157 109.166 289.865L110.767 293.53C112.715 292.68 114.442 291.615 115.929 290.324L113.306 287.304ZM109.154 289.87C107.599 290.561 105.795 291.052 103.719 291.321L104.232 295.288C106.628 294.978 108.817 294.398 110.779 293.525L109.154 289.87ZM103.698 291.323C101.663 291.609 99.3735 291.608 96.8164 291.294L96.3299 295.265C99.1661 295.612 101.812 295.627 104.254 295.285L103.698 291.323ZM96.8164 291.294C93.6815 290.91 91.0593 290.175 88.9108 289.13L87.1611 292.727C89.7927 294.007 92.8619 294.84 96.3299 295.265L96.8164 291.294ZM88.9 289.125C86.7419 288.091 85.0536 286.824 83.7824 285.348L80.7517 287.959C82.4365 289.915 84.5942 291.498 87.1719 292.733L88.9 289.125ZM83.7931 285.361C82.51 283.846 81.6252 282.147 81.1261 280.244L77.257 281.259C77.9086 283.743 79.0741 285.979 80.741 287.946L83.7931 285.361ZM81.1282 280.252C80.6248 278.3 80.4998 276.184 80.7815 273.886L76.8112 273.399C76.4752 276.141 76.6137 278.765 77.2549 281.251L81.1282 280.252ZM80.7815 273.886L80.9112 272.827L76.9409 272.341L76.8112 273.399L80.7815 273.886ZM78.6828 274.569L89.3433 275.876L89.8298 271.905L79.1693 270.599L78.6828 274.569ZM87.5879 273.818C87.5182 275.729 87.657 277.454 88.058 278.948L91.9213 277.911C91.6549 276.918 91.5249 275.617 91.5852 273.963L87.5879 273.818ZM88.062 278.962C88.467 280.427 89.1267 281.726 90.0845 282.797L93.0651 280.129C92.583 279.59 92.1859 278.867 91.9173 277.896L88.062 278.962ZM90.1088 282.823C91.0607 283.849 92.2444 284.618 93.6064 285.158L95.0793 281.439C94.1968 281.089 93.5352 280.635 93.0409 280.102L90.1088 282.823ZM93.6536 285.176C94.9801 285.663 96.4797 285.997 98.1314 286.2L98.6179 282.229C97.1949 282.055 96.0066 281.779 95.0321 281.421L93.6536 285.176ZM98.1314 286.2C100.097 286.441 101.945 286.32 103.624 285.753L102.345 281.964C101.355 282.298 100.13 282.415 98.6179 282.229L98.1314 286.2ZM103.624 285.753C105.184 285.227 106.56 284.456 107.709 283.415L105.024 280.45C104.333 281.076 103.454 281.589 102.345 281.964L103.624 285.753ZM107.706 283.418C108.853 282.384 109.753 281.167 110.392 279.777L106.758 278.106C106.351 278.992 105.779 279.769 105.027 280.447L107.706 283.418ZM110.376 279.811C111.01 278.499 111.423 277.154 111.591 275.781L107.621 275.294C107.511 276.19 107.237 277.113 106.774 278.071L110.376 279.811ZM111.591 275.781C111.791 274.153 111.721 272.614 111.253 271.251L107.47 272.55C107.68 273.163 107.773 274.05 107.621 275.294L111.591 275.781ZM111.253 271.251C110.817 269.982 110.127 268.875 109.153 267.999L106.477 270.973C106.886 271.34 107.227 271.844 107.47 272.55L111.253 271.251ZM109.209 268.051C108.324 267.192 107.265 266.553 106.072 266.119L104.705 269.879C105.421 270.139 105.981 270.492 106.422 270.92L109.209 268.051ZM106.082 266.123C105 265.723 103.866 265.452 102.687 265.308L102.2 269.278C103.087 269.387 103.917 269.587 104.694 269.875L106.082 266.123ZM102.687 265.308L99.5112 264.919L99.0247 268.889L102.2 269.278L102.687 265.308ZM101.187 267.467L103.558 259.393L99.7197 258.266L97.3489 266.34L101.187 267.467ZM101.217 260.784C101.768 260.903 102.331 261.024 102.907 261.146L103.736 257.232C103.165 257.111 102.606 256.992 102.061 256.874L101.217 260.784ZM102.996 261.162C103.622 261.266 104.228 261.353 104.812 261.425L105.299 257.455C104.774 257.39 104.224 257.311 103.647 257.216L102.996 261.162ZM104.812 261.425C106.457 261.627 108.044 261.59 109.56 261.293L108.79 257.368C107.736 257.575 106.577 257.611 105.299 257.455L104.812 261.425ZM109.56 261.293C111.068 260.997 112.452 260.462 113.685 259.666L111.517 256.305C110.75 256.799 109.85 257.16 108.79 257.368L109.56 261.293ZM113.685 259.666C114.946 258.853 115.976 257.786 116.767 256.49L113.354 254.404C112.866 255.203 112.256 255.828 111.517 256.305L113.685 259.666ZM116.776 256.476C117.584 255.129 118.07 253.598 118.274 251.927L114.304 251.441C114.157 252.643 113.824 253.621 113.345 254.419L116.776 256.476ZM118.274 251.927C118.594 249.32 118.09 246.922 116.32 245.179L113.513 248.03C114.117 248.624 114.528 249.613 114.304 251.441L118.274 251.927ZM116.333 245.193C114.753 243.607 112.557 242.766 110.015 242.454L109.528 246.424C111.522 246.669 112.757 247.271 113.5 248.016L116.333 245.193ZM110.015 242.454C108.241 242.237 106.559 242.321 105.005 242.768L106.112 246.612C107.05 246.342 108.177 246.259 109.528 246.424L110.015 242.454ZM105.025 242.763C103.571 243.165 102.254 243.812 101.099 244.714L103.563 247.866C104.275 247.309 105.11 246.889 106.091 246.618L105.025 242.763ZM101.099 244.714C99.9955 245.577 99.0433 246.605 98.2433 247.788L101.556 250.029C102.131 249.18 102.799 248.463 103.563 247.866L101.099 244.714ZM98.2541 247.772C97.4908 248.877 96.8475 250.054 96.3248 251.299L100.013 252.847C100.43 251.854 100.94 250.921 101.545 250.045L98.2541 247.772ZM98.4122 250.088L87.9408 248.805L87.4543 252.775L97.9257 254.058L98.4122 250.088ZM133.962 269.351L134.205 267.366L132.601 267.17L132.072 268.697L133.962 269.351ZM155.661 272.01L157.551 272.665L158.361 270.326L155.904 270.025L155.661 272.01ZM152.218 281.948L151.975 283.934L153.579 284.13L154.108 282.603L152.218 281.948ZM130.519 279.29L128.629 278.635L127.819 280.974L130.276 281.275L130.519 279.29ZM133.719 271.337L155.418 273.995L155.904 270.025L134.205 267.366L133.719 271.337ZM153.771 271.356L150.328 281.294L154.108 282.603L157.551 272.665L153.771 271.356ZM152.461 279.963L130.762 277.304L130.276 281.275L151.975 283.934L152.461 279.963ZM132.409 279.944L135.852 270.006L132.072 268.697L128.629 278.635L132.409 279.944ZM160.809 259.748L158.89 259.186L158.226 261.447L160.566 261.734L160.809 259.748ZM168.543 248.302L169.703 249.932L169.709 249.927L169.715 249.923L168.543 248.302ZM175.522 245.205L175.987 247.151L175.997 247.148L175.522 245.205ZM192.679 247.039L191.772 248.822L191.784 248.828L191.796 248.834L192.679 247.039ZM197.776 250.848L196.247 252.138L196.253 252.145L196.26 252.152L197.776 250.848ZM199.441 265.442L201.265 266.262L201.269 266.253L199.441 265.442ZM193.098 271.801L192.261 269.985L192.254 269.988L192.246 269.992L193.098 271.801ZM188.023 273.136L187.816 271.147L186.232 271.312L186.038 272.893L188.023 273.136ZM188.005 273.288L186.02 273.044L185.848 274.447L187.113 275.078L188.005 273.288ZM191.061 275.274L189.767 276.798L189.781 276.81L189.796 276.822L191.061 275.274ZM193.203 277.838L191.451 278.803L191.466 278.831L191.482 278.858L193.203 277.838ZM191.107 294.004L189.463 292.864L189.455 292.876L189.448 292.887L191.107 294.004ZM187.729 297.773L186.419 296.261L186.418 296.262L187.729 297.773ZM183.078 300.656L182.277 298.823L182.265 298.829L183.078 300.656ZM177.087 302.263L176.831 300.279L176.82 300.281L176.809 300.282L177.087 302.263ZM161.147 299.887L162.022 298.089L162.011 298.084L161.147 299.887ZM155.378 295.612L153.852 296.905L153.858 296.911L153.863 296.917L155.378 295.612ZM152.303 289.71L150.366 290.209L150.368 290.217L152.303 289.71ZM152.037 281.543L152.281 279.558L150.296 279.314L150.052 281.299L152.037 281.543ZM162.698 282.849L164.697 282.922L164.763 281.087L162.941 280.864L162.698 282.849ZM163.101 287.388L161.169 287.906L161.171 287.913L161.173 287.921L163.101 287.388ZM164.686 290.421L163.196 291.755L163.208 291.769L163.22 291.782L164.686 290.421ZM167.454 292.257L166.718 294.116L166.741 294.126L166.765 294.135L167.454 292.257ZM179.478 290.891L178.139 289.406L178.136 289.408L179.478 290.891ZM181.686 287.9L179.886 287.03L179.877 287.047L179.869 287.065L181.686 287.9ZM180.927 278.444L179.533 279.879L179.56 279.906L179.589 279.931L180.927 278.444ZM178.5 276.958L177.805 278.833L177.816 278.837L178.5 276.958ZM172.379 275.862L170.46 275.299L169.796 277.561L172.136 277.847L172.379 275.862ZM174.75 267.788L175.172 265.833L173.355 265.441L172.831 267.224L174.75 267.788ZM176.433 268.148L176.018 270.104L176.062 270.114L176.107 270.121L176.433 268.148ZM188.172 264.406L189.879 265.449L189.883 265.442L189.887 265.435L188.172 264.406ZM188.028 255.563L186.611 256.975L186.618 256.982L186.625 256.988L188.028 255.563ZM178.67 253.649L179.203 255.577L179.213 255.574L179.223 255.571L178.67 253.649ZM173.011 257.867L174.657 259.004L174.662 258.996L174.668 258.988L173.011 257.867ZM171.28 261.032L171.037 263.017L172.539 263.201L173.125 261.806L171.28 261.032ZM162.728 260.311C163.334 258.246 164.219 256.297 165.386 254.461L162.011 252.315C160.644 254.465 159.602 256.757 158.89 259.186L162.728 260.311ZM165.386 254.461C166.513 252.689 167.947 251.182 169.703 249.932L167.383 246.673C165.215 248.217 163.42 250.099 162.011 252.315L165.386 254.461ZM169.715 249.923C171.44 248.674 173.519 247.741 175.987 247.151L175.057 243.26C172.149 243.955 169.575 245.087 167.37 246.682L169.715 249.923ZM175.997 247.148C178.428 246.553 181.274 246.429 184.57 246.833L185.056 242.862C181.397 242.414 178.049 242.528 175.046 243.263L175.997 247.148ZM184.57 246.833C187.534 247.196 189.916 247.877 191.772 248.822L193.586 245.257C191.204 244.045 188.342 243.265 185.056 242.862L184.57 246.833ZM191.796 248.834C193.752 249.796 195.211 250.909 196.247 252.138L199.305 249.559C197.84 247.821 195.901 246.395 193.562 245.244L191.796 248.834ZM196.26 252.152C197.328 253.395 198.028 254.725 198.398 256.153L202.27 255.15C201.737 253.09 200.732 251.219 199.293 249.544L196.26 252.152ZM198.398 256.153C198.789 257.664 198.889 259.14 198.711 260.594L202.681 261.081C202.923 259.107 202.782 257.126 202.27 255.15L198.398 256.153ZM198.711 260.594C198.533 262.046 198.165 263.388 197.614 264.63L201.269 266.253C201.989 264.632 202.458 262.904 202.681 261.081L198.711 260.594ZM197.618 264.621C197.079 265.818 196.369 266.86 195.486 267.76L198.342 270.561C199.563 269.315 200.538 267.878 201.265 266.262L197.618 264.621ZM195.486 267.76C194.618 268.645 193.552 269.39 192.261 269.985L193.935 273.618C195.627 272.838 197.104 271.823 198.342 270.561L195.486 267.76ZM192.246 269.992C191.018 270.57 189.551 270.966 187.816 271.147L188.231 275.126C190.33 274.907 192.247 274.413 193.95 273.611L192.246 269.992ZM186.038 272.893L186.02 273.044L189.99 273.531L190.008 273.38L186.038 272.893ZM187.113 275.078C188.143 275.591 189.023 276.167 189.767 276.798L192.356 273.749C191.339 272.886 190.181 272.138 188.897 271.497L187.113 275.078ZM189.796 276.822C190.484 277.385 191.032 278.042 191.451 278.803L194.954 276.873C194.286 275.659 193.406 274.607 192.327 273.725L189.796 276.822ZM191.482 278.858C191.912 279.583 192.225 280.449 192.394 281.488L196.342 280.844C196.102 279.376 195.638 278.025 194.923 276.818L191.482 278.858ZM192.394 281.488C192.561 282.51 192.574 283.747 192.394 285.221L196.364 285.708C196.578 283.957 196.584 282.327 196.342 280.844L192.394 281.488ZM192.394 285.221C192.241 286.467 191.925 287.758 191.434 289.097L195.19 290.473C195.776 288.875 196.171 287.285 196.364 285.708L192.394 285.221ZM191.434 289.097C190.957 290.399 190.303 291.654 189.463 292.864L192.75 295.144C193.775 293.666 194.591 292.109 195.19 290.473L191.434 289.097ZM189.448 292.887C188.648 294.074 187.644 295.2 186.419 296.261L189.038 299.284C190.504 298.014 191.751 296.628 192.766 295.121L189.448 292.887ZM186.418 296.262C185.27 297.258 183.897 298.116 182.277 298.823L183.878 302.489C185.827 301.638 187.554 300.573 189.04 299.283L186.418 296.262ZM182.265 298.829C180.711 299.52 178.906 300.011 176.831 300.279L177.343 304.246C179.739 303.937 181.928 303.356 183.891 302.484L182.265 298.829ZM176.809 300.282C174.774 300.568 172.485 300.566 169.928 300.253L169.441 304.223C172.277 304.571 174.923 304.586 177.365 304.243L176.809 300.282ZM169.928 300.253C166.793 299.869 164.171 299.134 162.022 298.089L160.272 301.686C162.904 302.966 165.973 303.798 169.441 304.223L169.928 300.253ZM162.011 298.084C159.853 297.05 158.165 295.783 156.894 294.307L153.863 296.917C155.548 298.873 157.706 300.456 160.283 301.691L162.011 298.084ZM156.904 294.319C155.621 292.805 154.737 291.105 154.237 289.202L150.368 290.217C151.02 292.702 152.186 294.937 153.852 296.905L156.904 294.319ZM154.24 289.21C153.736 287.259 153.611 285.143 153.893 282.844L149.923 282.358C149.587 285.1 149.725 287.723 150.366 290.209L154.24 289.21ZM153.893 282.844L154.023 281.786L150.052 281.299L149.923 282.358L153.893 282.844ZM151.794 283.528L162.455 284.834L162.941 280.864L152.281 279.558L151.794 283.528ZM160.699 282.776C160.63 284.687 160.768 286.412 161.169 287.906L165.033 286.869C164.766 285.877 164.636 284.576 164.697 282.922L160.699 282.776ZM161.173 287.921C161.578 289.385 162.238 290.685 163.196 291.755L166.177 289.088C165.694 288.549 165.297 287.826 165.029 286.855L161.173 287.921ZM163.22 291.782C164.172 292.808 165.356 293.577 166.718 294.116L168.191 290.398C167.308 290.048 166.647 289.594 166.152 289.061L163.22 291.782ZM166.765 294.135C168.091 294.621 169.591 294.956 171.243 295.158L171.729 291.188C170.306 291.014 169.118 290.737 168.143 290.38L166.765 294.135ZM171.243 295.158C173.208 295.399 175.057 295.279 176.736 294.712L175.456 290.922C174.466 291.256 173.242 291.373 171.729 291.188L171.243 295.158ZM176.736 294.712C178.295 294.185 179.671 293.414 180.821 292.373L178.136 289.408C177.444 290.035 176.565 290.548 175.456 290.922L176.736 294.712ZM180.818 292.376C181.964 291.342 182.865 290.125 183.504 288.735L179.869 287.065C179.462 287.951 178.89 288.728 178.139 289.406L180.818 292.376ZM183.487 288.77C184.121 287.458 184.534 286.112 184.703 284.739L180.732 284.253C180.623 285.148 180.348 286.072 179.886 287.03L183.487 288.77ZM184.703 284.739C184.902 283.111 184.832 281.573 184.364 280.21L180.581 281.509C180.791 282.122 180.885 283.008 180.732 284.253L184.703 284.739ZM184.364 280.21C183.928 278.94 183.238 277.834 182.264 276.958L179.589 279.931C179.997 280.299 180.338 280.802 180.581 281.509L184.364 280.21ZM182.32 277.01C181.435 276.15 180.377 275.512 179.183 275.078L177.816 278.837C178.532 279.098 179.092 279.451 179.533 279.879L182.32 277.01ZM179.194 275.082C178.111 274.681 176.978 274.411 175.798 274.266L175.312 278.237C176.198 278.345 177.028 278.545 177.805 278.833L179.194 275.082ZM175.798 274.266L172.623 273.877L172.136 277.847L175.312 278.237L175.798 274.266ZM174.298 276.426L176.669 268.351L172.831 267.224L170.46 275.299L174.298 276.426ZM174.328 269.743C174.879 269.862 175.442 269.982 176.018 270.104L176.847 266.191C176.276 266.07 175.718 265.951 175.172 265.833L174.328 269.743ZM176.107 270.121C176.734 270.224 177.339 270.312 177.924 270.384L178.41 266.413C177.886 266.349 177.335 266.269 176.758 266.174L176.107 270.121ZM177.924 270.384C179.569 270.585 181.156 270.549 182.671 270.252L181.901 266.327C180.848 266.533 179.689 266.57 178.41 266.413L177.924 270.384ZM182.671 270.252C184.179 269.956 185.563 269.42 186.796 268.625L184.628 265.263C183.862 265.758 182.962 266.119 181.901 266.327L182.671 270.252ZM186.796 268.625C188.057 267.812 189.087 266.744 189.879 265.449L186.466 263.363C185.977 264.162 185.367 264.787 184.628 265.263L186.796 268.625ZM189.887 265.435C190.695 264.087 191.181 262.557 191.386 260.886L187.416 260.399C187.268 261.602 186.935 262.58 186.457 263.377L189.887 265.435ZM191.386 260.886C191.705 258.278 191.201 255.881 189.431 254.138L186.625 256.988C187.229 257.583 187.64 258.571 187.416 260.399L191.386 260.886ZM189.444 254.151C187.864 252.566 185.669 251.724 183.126 251.413L182.64 255.383C184.633 255.627 185.868 256.229 186.611 256.975L189.444 254.151ZM183.126 251.413C181.352 251.195 179.67 251.28 178.116 251.727L179.223 255.571C180.162 255.301 181.288 255.217 182.64 255.383L183.126 251.413ZM178.137 251.721C176.682 252.124 175.365 252.771 174.211 253.673L176.674 256.824C177.387 256.267 178.221 255.848 179.203 255.577L178.137 251.721ZM174.211 253.673C173.107 254.536 172.155 255.564 171.355 256.746L174.668 258.988C175.242 258.139 175.911 257.421 176.674 256.824L174.211 253.673ZM171.365 256.73C170.602 257.836 169.959 259.012 169.436 260.258L173.125 261.806C173.541 260.813 174.052 259.88 174.657 259.004L171.365 256.73ZM171.524 259.046L161.052 257.763L160.566 261.734L171.037 263.017L171.524 259.046ZM234.481 264.133L236.48 264.184L236.526 262.369L234.724 262.148L234.481 264.133ZM234.33 264.114L234.573 262.129L233.337 261.978L232.656 263.02L234.33 264.114ZM219.928 286.14L218.254 285.045L216.495 287.734L219.684 288.125L219.928 286.14ZM233.877 287.849L233.634 289.834L235.82 290.102L235.876 287.9L233.877 287.849ZM230.951 251.92L231.194 249.935L229.993 249.788L229.305 250.784L230.951 251.92ZM244.522 253.583L246.522 253.576L246.515 251.813L244.765 251.598L244.522 253.583ZM244.744 310.016L244.501 312.001L246.753 312.277L246.744 310.008L244.744 310.016ZM233.29 308.612L231.291 308.555L231.238 310.376L233.046 310.597L233.29 308.612ZM233.608 297.562L235.607 297.62L235.659 295.798L233.851 295.577L233.608 297.562ZM214.026 295.163L214.269 293.177L213.029 293.025L212.348 294.073L214.026 295.163ZM207.357 305.435L207.114 307.42L208.354 307.572L209.034 306.524L207.357 305.435ZM195.033 303.924L193.387 302.788L191.509 305.508L194.79 305.91L195.033 303.924ZM234.724 262.148L234.573 262.129L234.086 266.099L234.238 266.118L234.724 262.148ZM232.656 263.02L218.254 285.045L221.602 287.234L236.003 265.209L232.656 263.02ZM219.684 288.125L233.634 289.834L234.12 285.864L220.171 284.154L219.684 288.125ZM235.876 287.9L236.48 264.184L232.481 264.082L231.878 287.798L235.876 287.9ZM230.707 253.906L244.279 255.569L244.765 251.598L231.194 249.935L230.707 253.906ZM242.522 253.591L242.744 310.024L246.744 310.008L246.522 253.576L242.522 253.591ZM244.987 308.031L233.533 306.627L233.046 310.597L244.501 312.001L244.987 308.031ZM235.289 308.67L235.607 297.62L231.609 297.504L231.291 308.555L235.289 308.67ZM233.851 295.577L214.269 293.177L213.782 297.148L233.365 299.547L233.851 295.577ZM212.348 294.073L205.679 304.345L209.034 306.524L215.703 296.252L212.348 294.073ZM207.6 303.449L195.276 301.939L194.79 305.91L207.114 307.42L207.6 303.449ZM196.679 305.061L232.596 253.057L229.305 250.784L193.387 302.788L196.679 305.061ZM256.596 300.033L256.839 298.048L255.23 297.851L254.704 299.385L256.596 300.033ZM268.05 301.437L269.942 302.086L270.742 299.752L268.294 299.452L268.05 301.437ZM264.288 312.411L264.045 314.396L265.654 314.593L266.18 313.059L264.288 312.411ZM252.834 311.007L250.942 310.358L250.142 312.692L252.591 312.992L252.834 311.007ZM256.353 302.019L267.807 303.422L268.294 299.452L256.839 298.048L256.353 302.019ZM266.158 300.788L262.396 311.762L266.18 313.059L269.942 302.086L266.158 300.788ZM264.532 310.425L253.077 309.022L252.591 312.992L264.045 314.396L264.532 310.425ZM254.726 311.656L258.488 300.682L254.704 299.385L250.942 310.358L254.726 311.656ZM278.144 302.674L278.387 300.689L276.778 300.491L276.252 302.025L278.144 302.674ZM289.598 304.077L291.49 304.726L292.29 302.392L289.841 302.092L289.598 304.077ZM285.836 315.051L285.593 317.036L287.202 317.233L287.728 315.699L285.836 315.051ZM274.382 313.647L272.49 312.999L271.69 315.332L274.139 315.632L274.382 313.647ZM277.901 304.659L289.355 306.062L289.841 302.092L278.387 300.689L277.901 304.659ZM287.706 303.429L283.944 314.402L287.728 315.699L291.49 304.726L287.706 303.429ZM286.079 313.066L274.625 311.662L274.139 315.632L285.593 317.036L286.079 313.066ZM276.274 314.296L280.036 303.322L276.252 302.025L272.49 312.999L276.274 314.296ZM299.692 305.314L299.935 303.329L298.326 303.132L297.8 304.666L299.692 305.314ZM311.146 306.718L313.038 307.366L313.838 305.033L311.389 304.732L311.146 306.718ZM307.384 317.691L307.141 319.676L308.75 319.874L309.276 318.34L307.384 317.691ZM295.93 316.288L294.038 315.639L293.238 317.973L295.686 318.273L295.93 316.288ZM299.448 307.299L310.903 308.703L311.389 304.732L299.935 303.329L299.448 307.299ZM309.254 306.069L305.492 317.043L309.276 318.34L313.038 307.366L309.254 306.069ZM307.627 315.706L296.173 314.302L295.686 318.273L307.141 319.676L307.627 315.706ZM297.822 316.936L301.584 305.963L297.8 304.666L294.038 315.639L297.822 316.936Z" fill="black"/>
<defs>
<linearGradient id="paint0_linear" x1="306.693" y1="36.767" x2="285.693" y2="208.15" gradientUnits="userSpaceOnUse">
<stop stop-color="#EBFC1D"/>
<stop offset="0.4375" stop-color="#ED603C"/>
</linearGradient>
<linearGradient id="paint1_linear" x1="176.543" y1="230.128" x2="161.878" y2="349.814" gradientUnits="userSpaceOnUse">
<stop stop-color="white"/>
<stop offset="0.4375" stop-color="#ED603C"/>
</linearGradient>
</defs>
</svg>
