<svg width="409" height="631" viewBox="0 0 409 631" fill="none" xmlns="http://www.w3.org/2000/svg">
<path d="M111.783 359.018C81.6286 284.313 66.6145 211.797 66.6706 154.976C66.6986 126.561 70.4954 102.151 77.9908 83.3745C85.4842 64.6029 96.6171 51.5875 111.265 45.6748C125.913 39.7622 142.961 41.4021 161.386 49.7117C179.816 58.0235 199.494 72.958 219.24 93.3909C258.725 134.251 298.259 196.87 328.414 271.574C358.568 346.279 373.582 418.796 373.526 475.616C373.498 504.031 369.702 528.441 362.206 547.218C354.713 565.99 343.58 579.005 328.932 584.918C314.284 590.83 297.236 589.19 278.811 580.881C260.381 572.569 240.703 557.634 220.957 537.202C181.472 496.342 141.938 433.723 111.783 359.018Z" stroke="black" stroke-width="3"/>
</svg>
