<svg width="348" height="340" viewBox="0 0 348 340" fill="none" xmlns="http://www.w3.org/2000/svg">
<path d="M223.287 51.4587L221.638 115.569L286.854 104.262L246.35 154.005L307.224 182.011L243.336 198.385L276.617 255.006L213.747 231.758L206.722 295.367L168.886 241.377L124.238 287.678L125.887 223.567L60.6711 234.874L101.175 185.132L40.3011 157.126L104.189 140.751L70.9089 84.1302L133.778 107.378L140.803 43.769L178.64 97.7592L223.287 51.4587Z" fill="#EBFC1D"/>
<path d="M186.13 153.754C185.373 152.612 184.469 151.569 183.421 150.627C182.367 149.648 181.155 148.853 179.791 148.242C178.414 147.626 176.871 147.229 175.169 147.042C173.459 146.85 171.588 146.951 169.563 147.332C167.349 147.747 165.367 148.44 163.625 149.418C161.896 150.371 160.396 151.529 159.13 152.893C157.872 154.248 156.833 155.755 156.014 157.413L156.012 157.418C155.216 159.059 154.616 160.776 154.212 162.568C153.808 164.358 153.6 166.179 153.587 168.032C153.571 169.862 153.728 171.654 154.057 173.407C154.282 174.604 154.623 175.817 155.078 177.047L155.078 177.047L155.082 177.057C155.556 178.281 156.16 179.461 156.893 180.596L156.893 180.596L156.898 180.603C157.655 181.744 158.551 182.796 159.585 183.757L159.585 183.757L159.594 183.765C160.66 184.723 161.876 185.506 163.239 186.116L163.243 186.118C164.633 186.729 166.174 187.126 167.86 187.316C169.57 187.509 171.45 187.406 173.491 187.023C175.705 186.607 177.687 185.914 179.429 184.936C181.158 183.983 182.658 182.825 183.924 181.461C185.182 180.106 186.213 178.599 187.016 176.944C187.828 175.299 188.437 173.579 188.842 171.786C189.245 169.997 189.455 168.184 189.471 166.347L189.471 166.346C189.484 164.5 189.326 162.7 188.997 160.947C188.771 159.749 188.422 158.535 187.95 157.307C187.488 156.06 186.881 154.875 186.13 153.754ZM186.13 153.754C186.131 153.755 186.131 153.755 186.131 153.756L185.506 154.17L186.129 153.753C186.13 153.753 186.13 153.754 186.13 153.754ZM108.55 159.725L107.935 159.841L107.939 160.467L108.178 197.46L108.184 198.358L109.066 198.192L148.854 190.718L149.469 190.603L149.465 189.977L149.251 152.979L149.245 152.08L148.362 152.246L141.368 153.56L140.752 153.676L140.756 154.303L140.966 184.274L133.026 185.766L132.842 156.061L132.836 155.163L131.953 155.329L124.959 156.643L124.343 156.758L124.348 157.385L124.558 187.356L116.641 188.844L116.433 159.143L116.427 158.245L115.545 158.411L108.55 159.725ZM179.676 172.354L179.673 172.362C179.353 173.495 178.876 174.535 178.243 175.486C177.62 176.422 176.824 177.232 175.849 177.915C174.904 178.577 173.727 179.052 172.294 179.321C171.263 179.515 170.253 179.535 169.258 179.383C168.296 179.216 167.403 178.855 166.573 178.297C165.759 177.75 165.034 176.977 164.407 175.954C163.787 174.934 163.321 173.648 163.025 172.075C162.855 171.168 162.727 170.148 162.645 169.012C162.576 167.873 162.591 166.708 162.691 165.517C162.806 164.333 163.027 163.161 163.356 161.999C163.689 160.846 164.174 159.806 164.807 158.874L164.807 158.874L164.811 158.868C165.434 157.932 166.23 157.122 167.205 156.439C168.149 155.777 169.327 155.302 170.76 155.033C171.789 154.839 172.791 154.83 173.769 154.999L173.776 155L173.783 155.001C174.757 155.15 175.654 155.501 176.481 156.057C177.295 156.605 178.021 157.379 178.648 158.401C179.263 159.403 179.729 160.688 180.028 162.28C180.198 163.184 180.319 164.212 180.389 165.367L180.39 165.376C180.471 166.491 180.455 167.644 180.339 168.837L180.339 168.837L180.338 168.846C180.24 170.023 180.019 171.192 179.676 172.354ZM194.369 143.604L193.753 143.72L193.758 144.347L194.045 181.331L194.052 182.228L194.934 182.062L202.315 180.676L202.935 180.559L202.927 179.929L202.793 169.306L205.717 165.003L215.224 177.821L215.504 178.198L215.965 178.112L224.242 176.557L225.446 176.331L224.697 175.361L210.751 157.302L222.409 139.63L223.383 138.154L221.645 138.48L212.424 140.212L212.107 140.272L211.933 140.542L202.507 155.118L202.543 142.975L202.545 142.068L201.654 142.236L194.369 143.604ZM232.758 136.418L232.161 136.53L232.147 137.137L231.921 146.603L231.92 146.647L231.924 146.692L233.547 163.722L233.625 164.539L234.432 164.388L238.038 163.71L238.572 163.61L238.643 163.071L240.99 145.296L240.995 145.256L240.996 145.215L241.221 135.75L241.243 134.824L240.333 134.995L232.758 136.418ZM232.251 166.244L231.652 166.357L231.639 166.966L231.485 174.276L231.466 175.2L232.374 175.029L239.586 173.675L240.184 173.562L240.197 172.953L240.351 165.643L240.371 164.719L239.463 164.89L232.251 166.244Z" fill="#FF8BDD" stroke="black" stroke-width="1.5"/>
</svg>
