<svg width="213" height="209" viewBox="0 0 213 209" fill="none" xmlns="http://www.w3.org/2000/svg">
<path d="M145.982 73.2878L164.47 73.8119L156.728 87.8673L156.144 88.9278L157.296 89.3011L175.99 95.3597L163.556 105.159L162.453 106.029L163.636 106.786L180.62 117.662L164.795 122.391L163.244 122.855L164.353 124.035L178.003 138.545L160.272 137.863L158.513 137.795L159.356 139.341L168.463 156.038L150.423 150.014L148.753 149.456L149.129 151.177L152.924 168.51L136.237 157.63L134.88 156.745L134.697 158.354L132.83 174.765L119.132 159.962L118.177 158.931L117.516 160.171L110.06 174.136L100.803 156.801L100.233 155.733L99.2916 156.495L86.8199 166.593L83.047 148.486L82.8223 147.407L81.7705 147.735L65.4463 152.823L67.5794 135.858L67.7168 134.765L66.6155 134.734L48.127 134.21L55.8694 120.154L56.4536 119.094L55.3018 118.72L36.6076 112.662L49.041 102.862L50.1446 101.993L48.9613 101.235L31.9771 90.359L47.8022 85.6299L49.3539 85.1662L48.2442 83.9866L34.5942 69.4768L52.3253 70.1588L54.0848 70.2265L53.2417 68.6807L44.1343 51.9837L62.1745 58.0073L63.8446 58.5649L63.4681 56.8449L59.6732 39.5112L76.3607 50.3916L77.7173 51.2762L77.9004 49.667L79.7677 33.2563L93.4656 48.059L94.4199 49.0903L95.0817 47.8507L102.537 33.8854L111.795 51.2201L112.365 52.2881L113.306 51.5262L125.778 41.4288L129.55 59.5359L129.775 60.6144L130.827 60.2866L147.151 55.1982L145.018 72.1635L144.881 73.2566L145.982 73.2878Z" fill="#411F52" stroke="white" stroke-width="2"/>
<path d="M99.5201 84.277L99.5202 84.277C101.341 83.4745 103.24 82.9479 105.215 82.6982C107.213 82.4455 109.256 82.5279 111.337 82.9346C113.464 83.3332 115.577 84.1332 117.675 85.31C119.591 86.3844 121.209 87.5925 122.502 88.9475C123.776 90.2764 124.787 91.6816 125.51 93.1669C126.222 94.6287 126.681 96.1429 126.879 97.705C127.093 99.2098 127.119 100.701 126.954 102.176M99.5201 84.277L125.463 102.014M99.5201 84.277L99.51 84.2816M99.5201 84.277L99.51 84.2816M126.954 102.176C126.954 102.178 126.954 102.179 126.954 102.181L125.463 102.014M126.954 102.176C126.954 102.175 126.954 102.174 126.954 102.174L125.463 102.014M126.954 102.176C126.799 103.623 126.481 105.025 125.999 106.38M125.463 102.014C125.32 103.35 125.027 104.64 124.583 105.885M125.999 106.38C126 106.377 126.001 106.374 126.002 106.371L124.583 105.885M125.999 106.38C125.998 106.383 125.997 106.386 125.995 106.389L124.583 105.885M125.999 106.38L124.583 105.885M99.51 84.2816C97.7314 85.0814 96.0612 86.0777 94.5009 87.2688C92.9454 88.4562 91.5282 89.8036 90.2502 91.309L99.51 84.2816ZM60.8165 54.5092L59.7239 53.8964L58.9262 54.8622L34.4559 84.4871L33.312 85.8719L34.8786 86.7506L71.5522 107.321L72.644 107.933L73.4419 106.968L97.9344 77.3561L99.08 75.971L97.5124 75.0918L91.0655 71.4758L89.9723 70.8626L89.1747 71.8294L69.7457 95.3773L63.7059 91.9896L82.8103 68.8723L83.9548 67.4874L82.3879 66.6085L75.941 62.9925L74.8478 62.3794L74.0502 63.3461L54.6212 86.894L48.6024 83.5181L67.6866 60.3882L68.8291 59.0035L67.2634 58.1253L60.8165 54.5092ZM111.778 121.819C111.779 121.818 111.781 121.817 111.783 121.816L111.168 120.448L111.773 121.821C111.774 121.82 111.776 121.819 111.778 121.819ZM99.9774 123.176C99.9795 123.176 99.9816 123.177 99.9837 123.177L100.26 121.703L99.9716 123.175C99.9736 123.175 99.9755 123.175 99.9774 123.176ZM108.298 112.01L108.291 112.015L108.284 112.02C107.334 112.668 106.328 113.145 105.264 113.459C104.234 113.763 103.15 113.87 102.003 113.771C100.931 113.679 99.7749 113.312 98.5255 112.611C97.6465 112.118 96.8942 111.512 96.2593 110.794C95.6739 110.099 95.252 109.309 94.9914 108.41C94.741 107.546 94.6793 106.553 94.8482 105.407C95.0192 104.288 95.4686 103.035 96.2499 101.642C96.7024 100.835 97.2647 99.9614 97.942 99.0206C98.6234 98.0993 99.3873 97.2101 100.235 96.3535C101.084 95.5191 102.007 94.7616 103.005 94.0805C103.979 93.4252 104.989 92.9535 106.037 92.6554L106.044 92.6535L106.051 92.6515C107.081 92.3478 108.165 92.2408 109.312 92.3393C110.384 92.4313 111.54 92.7989 112.79 93.4996C113.666 93.9914 114.403 94.597 115.011 95.3157L115.021 95.3268L115.03 95.3377C115.636 96.025 116.065 96.8075 116.324 97.7007L117.764 97.2832L116.324 97.7007C116.574 98.5658 116.636 99.5594 116.466 100.707C116.304 101.806 115.857 103.057 115.065 104.469C114.615 105.271 114.044 106.145 113.344 107.092L113.338 107.1L113.333 107.107C112.679 108.015 111.924 108.892 111.065 109.738L111.058 109.744L111.051 109.751C110.223 110.587 109.306 111.34 108.298 112.01ZM139.919 98.8774L138.825 98.2638L138.027 99.2319L113.602 128.882L112.461 130.266L114.026 131.144L120.83 134.96L121.929 135.577L122.726 134.6L129.557 126.225L133.561 125.086L132.647 140.621L132.592 141.558L133.411 142.017L141.04 146.296L143.177 147.494L143.273 145.047L144.183 121.88L164.756 115.724L168.146 114.71L165.06 112.979L156.56 108.212L155.999 107.896L155.383 108.087L140.506 112.687L147.047 104.918L148.215 103.531L146.634 102.644L139.919 98.8774ZM175.286 118.744L174.227 118.15L173.425 119.063L166.936 126.452L166.877 126.519L166.827 126.593L156.767 141.239L155.837 142.593L157.269 143.396L160.593 145.261L161.541 145.792L162.341 145.057L176.06 132.463L176.119 132.409L176.172 132.348L182.662 124.959L183.884 123.567L182.268 122.661L175.286 118.744ZM154.999 142.163L153.937 141.568L153.136 142.485L148.14 148.205L146.924 149.596L148.536 150.5L155.183 154.229L156.245 154.825L157.047 153.907L162.043 148.187L163.258 146.796L161.647 145.892L154.999 142.163Z" fill="white" stroke="#411F52" stroke-width="3"/>
</svg>
