<svg width="253" height="263" viewBox="0 0 253 263" fill="none" xmlns="http://www.w3.org/2000/svg">
<path d="M146.91 60.0391L192.92 29.5023L183.6 83.9314L183.313 85.611L185.015 85.6832L240.187 88.0221L200.655 126.578L199.435 127.768L200.77 128.827L244.03 163.149L189.385 171.105L187.698 171.351L188.156 172.992L202.98 226.186L154.095 200.504L152.586 199.711L151.992 201.308L132.718 253.056L108.265 203.545L107.511 202.017L106.091 202.959L60.0811 233.496L69.4004 179.067L69.688 177.387L67.9855 177.315L12.8138 174.976L52.346 136.42L53.5659 135.23L52.2309 134.171L8.97092 99.8494L63.6159 91.8931L65.3022 91.6476L64.8448 90.0061L50.0202 36.8119L98.9056 62.4947L100.414 63.2872L101.009 61.6903L120.282 9.94169L144.736 59.4536L145.49 60.9814L146.91 60.0391Z" stroke="black" stroke-width="3"/>
</svg>
