<svg width="145" height="145" viewBox="0 0 145 145" fill="none" xmlns="http://www.w3.org/2000/svg">
<path d="M59.6135 45.1951L65.0966 23.771L76.9318 42.4522L77.5398 43.4118L78.4146 42.687L95.4434 28.5775L94.0377 50.6474L93.9655 51.7811L95.0993 51.7089L117.169 50.3033L103.06 67.3321L102.335 68.2068L103.295 68.8148L121.976 80.65L100.552 86.1332L99.451 86.4149L99.87 87.4708L108.027 108.026L87.4714 99.8694L86.4155 99.4504L86.1338 100.551L80.6506 121.975L68.8154 103.294L68.2074 102.334L67.3327 103.059L50.3039 117.169L51.7095 95.0987L51.7817 93.9649L50.648 94.0372L28.578 95.4428L42.6876 78.414L43.4124 77.5392L42.4528 76.9313L23.7716 65.096L45.1957 59.6129L46.2963 59.3312L45.8773 58.2753L37.7205 37.7199L58.2759 45.8767L59.3318 46.2957L59.6135 45.1951Z" stroke="black" stroke-width="2"/>
</svg>
