<svg width="221" height="176" viewBox="0 0 221 176" fill="none" xmlns="http://www.w3.org/2000/svg">
<path d="M84.4551 68.4731C107.289 49.8919 130.904 36.7576 150.595 30.5211C160.444 27.4019 169.26 26.0245 176.481 26.5191C183.7 27.0136 189.225 29.3673 192.676 33.6079C196.127 37.8484 197.309 43.7364 196.325 50.9054C195.342 58.0765 192.202 66.4288 187.146 75.438C177.037 93.4508 159.378 113.903 136.544 132.484C113.71 151.065 90.0951 164.2 70.4038 170.436C60.5551 173.555 51.7389 174.933 44.5176 174.438C37.2985 173.944 31.7735 171.59 28.3228 167.349C24.8721 163.109 23.6903 157.221 24.6734 150.052C25.6568 142.881 28.7972 134.528 33.853 125.519C43.9614 107.506 61.6209 87.0543 84.4551 68.4731Z" stroke="black" stroke-width="2"/>
</svg>
